<svg width="628" height="391" viewBox="0 0 628 391" fill="none" xmlns="http://www.w3.org/2000/svg">
<path d="M519.85 257.9C519.85 139.14 423.57 42.8999 304.85 42.8999C186.13 42.8999 89.8499 139.18 89.8499 257.9C89.7746 305.818 105.779 352.376 135.3 390.12H474.4C503.921 352.376 519.925 305.818 519.85 257.9V257.9Z" fill="#E6F5FA"/>
<path d="M599.2 303.39H543.64C542.667 303.39 541.733 303.003 541.045 302.315C540.357 301.627 539.97 300.693 539.97 299.72V299.72C539.969 299.237 540.063 298.759 540.247 298.313C540.431 297.866 540.701 297.46 541.042 297.118C541.383 296.777 541.788 296.505 542.233 296.32C542.679 296.135 543.157 296.04 543.64 296.04H599.2C600.174 296.043 601.108 296.432 601.796 297.121C602.484 297.811 602.87 298.746 602.87 299.72V299.72C602.868 300.693 602.48 301.625 601.792 302.312C601.105 303 600.173 303.387 599.2 303.39V303.39Z" fill="#E6F5FA"/>
<path d="M64.67 264.81H3.67C2.69747 264.807 1.76552 264.42 1.07784 263.732C0.390148 263.044 0.00263918 262.112 0 261.14V261.14C-3.59708e-06 260.166 0.386338 259.231 1.07431 258.541C1.76228 257.851 2.69574 257.463 3.67 257.46H64.67C65.646 257.46 66.582 257.848 67.2721 258.538C67.9623 259.228 68.35 260.164 68.35 261.14C68.3474 262.114 67.9585 263.048 67.2686 263.736C66.5788 264.424 65.6443 264.81 64.67 264.81Z" fill="#E6F5FA"/>
<path d="M611.09 337.35H605.26C603.73 337.35 602.49 338.59 602.49 340.12V345.59C602.49 347.12 603.73 348.36 605.26 348.36H611.09C612.62 348.36 613.86 347.12 613.86 345.59V340.12C613.86 338.59 612.62 337.35 611.09 337.35Z" fill="#90D3ED"/>
<path d="M49.1598 306.21H41.4498C39.4229 306.21 37.7798 307.853 37.7798 309.88V317.12C37.7798 319.147 39.4229 320.79 41.4498 320.79H49.1598C51.1867 320.79 52.8298 319.147 52.8298 317.12V309.88C52.8298 307.853 51.1867 306.21 49.1598 306.21Z" fill="#90D3ED"/>
<path d="M416.21 17H442.62C443.273 17.0053 443.898 17.2692 444.357 17.734C444.816 18.1988 445.073 18.8266 445.07 19.48V32.48C445.073 33.1334 444.816 33.7612 444.357 34.226C443.898 34.6908 443.273 34.9547 442.62 34.96H429L420.91 41.9V35.33L416.15 35.14C415.505 35.1243 414.891 34.8554 414.442 34.3915C413.993 33.9275 413.745 33.3056 413.75 32.66V19.48C413.749 19.1556 413.811 18.8342 413.934 18.534C414.057 18.2338 414.238 17.9608 414.466 17.7305C414.695 17.5002 414.966 17.3172 415.266 17.1918C415.565 17.0665 415.886 17.0013 416.21 17Z" stroke="white" stroke-width="1.29" stroke-linecap="round" stroke-linejoin="round"/>
<path d="M591.15 136.93C591.126 138.507 590.637 140.042 589.744 141.341C588.85 142.641 587.593 143.648 586.129 144.235C584.666 144.822 583.061 144.964 581.517 144.641C579.973 144.319 578.559 143.548 577.452 142.425C576.345 141.301 575.595 139.876 575.296 138.327C574.997 136.779 575.162 135.176 575.771 133.722C576.38 132.267 577.405 131.024 578.718 130.15C580.031 129.277 581.573 128.81 583.15 128.81C584.209 128.817 585.256 129.032 586.231 129.444C587.207 129.856 588.092 130.456 588.835 131.21C589.578 131.965 590.165 132.858 590.562 133.839C590.959 134.821 591.159 135.871 591.15 136.93V136.93Z" stroke="white" stroke-width="1.26" stroke-miterlimit="10"/>
<path d="M16.8699 204.55C16.8482 206.127 16.3606 207.663 15.4685 208.964C14.5763 210.265 13.3195 211.273 11.8559 211.862C10.3923 212.451 8.78732 212.594 7.24279 212.273C5.69826 211.952 4.2831 211.181 3.17526 210.058C2.06741 208.935 1.31634 207.509 1.01647 205.961C0.716602 204.412 0.881323 202.809 1.48992 201.354C2.09852 199.898 3.12383 198.655 4.43694 197.781C5.75004 196.907 7.29232 196.44 8.86985 196.44C11.0058 196.456 13.048 197.319 14.5481 198.839C16.0481 200.36 16.8832 202.414 16.8699 204.55Z" stroke="white" stroke-width="1.26" stroke-miterlimit="10"/>
<path d="M234.53 29.34C234.598 29.4163 234.688 29.4703 234.788 29.495C234.887 29.5196 234.992 29.5138 235.088 29.4781C235.184 29.4425 235.267 29.3788 235.326 29.2953C235.385 29.2118 235.418 29.1124 235.42 29.01V19.26V3.49C235.418 2.56347 235.048 1.6758 234.392 1.02158C233.735 0.367368 232.847 -3.78172e-06 231.92 0H189.42C188.495 0 187.607 0.367692 186.952 1.02219C186.298 1.6767 185.93 2.56439 185.93 3.49V20.61C185.93 21.5356 186.298 22.4233 186.952 23.0778C187.607 23.7323 188.495 24.1 189.42 24.1H230.04L234.53 29.34Z" fill="#0083C8"/>
<path d="M202.66 12.1799C202.662 12.5992 202.539 13.0097 202.308 13.3594C202.077 13.7091 201.747 13.9824 201.36 14.1447C200.974 14.307 200.548 14.3509 200.136 14.2711C199.725 14.1912 199.346 13.9911 199.048 13.696C198.75 13.4009 198.546 13.0241 198.463 12.6133C198.379 12.2024 198.419 11.776 198.577 11.3879C198.736 10.9997 199.006 10.6674 199.354 10.4328C199.701 10.1982 200.111 10.0719 200.53 10.0699C200.809 10.0673 201.085 10.1199 201.343 10.2248C201.602 10.3296 201.837 10.4846 202.035 10.6808C202.233 10.877 202.39 11.1105 202.497 11.3678C202.605 11.6251 202.66 11.9011 202.66 12.1799V12.1799Z" fill="white"/>
<path d="M211.76 12.1601C211.76 12.5794 211.636 12.9892 211.403 13.3379C211.17 13.6865 210.839 13.9582 210.451 14.1187C210.064 14.2791 209.638 14.3211 209.226 14.2393C208.815 14.1575 208.437 13.9556 208.141 13.6591C207.844 13.3626 207.643 12.9849 207.561 12.5737C207.479 12.1624 207.521 11.7362 207.681 11.3488C207.842 10.9614 208.114 10.6303 208.462 10.3973C208.811 10.1644 209.221 10.0401 209.64 10.0401C209.919 10.0387 210.195 10.0927 210.453 10.1987C210.711 10.3048 210.945 10.4609 211.142 10.658C211.339 10.8552 211.495 11.0894 211.601 11.3472C211.707 11.605 211.761 11.8813 211.76 12.1601V12.1601Z" fill="white"/>
<path d="M220.87 12.1298C220.872 12.5515 220.749 12.9643 220.516 13.3158C220.283 13.6674 219.951 13.942 219.562 14.1048C219.173 14.2675 218.744 14.3111 218.33 14.2301C217.917 14.149 217.536 13.9469 217.237 13.6494C216.938 13.352 216.735 12.9725 216.652 12.559C216.569 12.1456 216.61 11.7168 216.771 11.327C216.932 10.9372 217.205 10.6039 217.555 10.3694C217.906 10.135 218.318 10.0098 218.74 10.0098C219.302 10.0124 219.841 10.2362 220.24 10.633C220.638 11.0297 220.865 11.5674 220.87 12.1298V12.1298Z" fill="white"/>
<path d="M512.65 8.14014H564.44C566.196 8.14014 567.88 8.8376 569.121 10.0791C570.363 11.3206 571.06 13.0044 571.06 14.7601V63.0602C571.06 64.8159 570.363 66.4997 569.121 67.7412C567.88 68.9827 566.196 69.6801 564.44 69.6801H514.76C512.442 69.6801 510.219 68.7593 508.58 67.1203C506.941 65.4812 506.02 63.2581 506.02 60.9401V14.7401C506.025 12.9861 506.726 11.3059 507.97 10.0685C509.213 8.83103 510.896 8.13749 512.65 8.14014V8.14014Z" fill="#0083C8"/>
<path d="M553.4 43.9499L549.54 40.0899C549.232 39.7315 548.852 39.4415 548.425 39.2383C547.998 39.0351 547.533 38.9232 547.06 38.9098C546.117 38.938 545.222 39.3368 544.57 40.0198L542.37 42.2198L541.95 42.0198C541.716 41.9176 541.489 41.8007 541.27 41.6698C539.087 40.2476 537.151 38.4775 535.54 36.4298C534.825 35.5707 534.223 34.6229 533.75 33.6098C534.3 33.1198 534.75 32.6098 535.27 32.0898L535.89 31.4698C536.258 31.1544 536.553 30.7632 536.755 30.3231C536.958 29.8829 537.062 29.4043 537.062 28.9198C537.062 28.4354 536.958 27.9568 536.755 27.5166C536.553 27.0765 536.258 26.6853 535.89 26.3698L533.96 24.4398C533.736 24.2262 533.529 23.9955 533.34 23.7498C532.92 23.3398 532.44 22.8498 532.03 22.4398C531.38 21.762 530.489 21.3669 529.55 21.3398C529.082 21.343 528.619 21.4422 528.191 21.6314C527.763 21.8206 527.378 22.0958 527.06 22.4398L524.65 24.8498C523.749 25.7599 523.19 26.9544 523.07 28.2298C522.99 30.02 523.293 31.8066 523.96 33.4698C525.178 36.7785 527.003 39.8307 529.34 42.4698C532.362 46.0824 536.11 49.0192 540.34 51.0899C542.282 52.069 544.38 52.6986 546.54 52.9499H547.03C547.807 52.9622 548.578 52.808 549.29 52.4975C550.003 52.187 550.64 51.7275 551.16 51.1498L551.23 51.0899C551.608 50.6422 552.023 50.2274 552.47 49.8498L553.37 48.9499C553.711 48.6296 553.983 48.2434 554.17 47.8148C554.357 47.3861 554.455 46.9239 554.458 46.4563C554.461 45.9886 554.368 45.5253 554.186 45.0944C554.005 44.6636 553.737 44.2741 553.4 43.9499V43.9499ZM551.81 47.5298L550.98 48.3598C550.5 48.7698 550.09 49.2498 549.61 49.7398C549.289 50.0726 548.901 50.3338 548.472 50.5061C548.043 50.6785 547.582 50.7581 547.12 50.7398H546.78C544.897 50.5447 543.069 49.9842 541.4 49.0899C537.459 47.1561 533.967 44.4171 531.15 41.0498C529.038 38.5628 527.348 35.7452 526.15 32.7098C525.507 31.3827 525.221 29.9111 525.32 28.4398C525.347 28.0571 525.45 27.6835 525.621 27.3403C525.793 26.9972 526.03 26.6912 526.32 26.4398L528.66 24.0898C528.919 23.8063 529.277 23.6342 529.66 23.6098C529.852 23.6125 530.04 23.6568 530.213 23.7397C530.386 23.8226 530.538 23.9421 530.66 24.0898C531.07 24.5098 531.49 24.9198 531.9 25.3298C532.112 25.577 532.343 25.8077 532.59 26.0198L534.52 27.9498C534.794 28.2158 534.964 28.5702 535 28.9498C534.992 29.1403 534.945 29.3272 534.863 29.499C534.78 29.6709 534.664 29.8243 534.52 29.9498L533.9 30.5698L532.18 32.2998L532.11 32.3698C531.869 32.5761 531.699 32.8539 531.625 33.163C531.551 33.4721 531.578 33.7967 531.7 34.0898V34.1598C532.284 35.4976 533.047 36.7492 533.97 37.8798C535.726 40.123 537.846 42.0564 540.24 43.5998C540.525 43.7899 540.826 43.9539 541.14 44.0899C541.379 44.185 541.609 44.2987 541.83 44.4298L541.9 44.4998C542.214 44.6675 542.576 44.7241 542.926 44.6606C543.276 44.5971 543.595 44.4171 543.83 44.1498L546.24 41.7398C546.346 41.5913 546.485 41.4701 546.647 41.3864C546.809 41.3028 546.988 41.2592 547.17 41.2592C547.352 41.2592 547.532 41.3028 547.694 41.3864C547.856 41.4701 547.995 41.5913 548.1 41.7398L551.96 45.5998C552.085 45.7327 552.181 45.89 552.241 46.0619C552.301 46.2338 552.325 46.4163 552.311 46.598C552.297 46.7796 552.245 46.9563 552.159 47.1167C552.073 47.2772 551.954 47.4179 551.81 47.5298V47.5298Z" fill="white"/>
<path d="M27.1502 48.4302H85.1502C87.1181 48.4302 89.0054 49.2119 90.3969 50.6034C91.7885 51.995 92.5702 53.8823 92.5702 55.8502V109.98C92.5702 111.948 91.7885 113.835 90.3969 115.227C89.0054 116.618 87.1181 117.4 85.1502 117.4H29.5102C26.9137 117.4 24.4236 116.369 22.5876 114.533C20.7517 112.697 19.7202 110.207 19.7202 107.61V55.8502C19.7202 54.8749 19.9125 53.9092 20.286 53.0084C20.6595 52.1075 21.2069 51.289 21.897 50.5999C22.5871 49.9108 23.4062 49.3644 24.3076 48.9921C25.209 48.6198 26.175 48.4289 27.1502 48.4302V48.4302Z" fill="#FFCC05"/>
<path d="M42.2899 68.6498C39.5465 71.3939 37.6783 74.8898 36.9216 78.6956C36.1649 82.5014 36.5537 86.4461 38.0388 90.0309C39.524 93.6157 42.0387 96.6797 45.2651 98.8354C48.4915 100.991 52.2847 102.142 56.1649 102.142C60.0452 102.142 63.8384 100.991 67.0648 98.8354C70.2912 96.6797 72.8059 93.6157 74.291 90.0309C75.7762 86.4461 76.1649 82.5014 75.4083 78.6956C74.6516 74.8898 72.7834 71.3939 70.0399 68.6498C66.35 64.9888 61.3628 62.9346 56.1649 62.9346C50.9671 62.9346 45.9798 64.9888 42.2899 68.6498V68.6498ZM69.9899 71.4798H63.7399C63.085 69.456 62.2725 67.4866 61.3099 65.5898C64.7325 66.6298 67.7591 68.6836 69.9899 71.4798V71.4798ZM48.9899 81.3798C48.989 78.8147 49.3013 76.2591 49.9199 73.7698H62.4699C63.0838 76.26 63.396 78.815 63.3999 81.3798H48.9899ZM63.3199 83.6798C63.1378 86.2535 62.6853 88.8008 61.9699 91.2798H50.3799C49.6741 88.7986 49.2218 86.2522 49.0299 83.6798H63.3199ZM56.1499 64.8298C57.0773 64.8283 58.0034 64.8985 58.9199 65.0398C60.0809 67.0867 61.0356 69.244 61.7699 71.4798H50.5499C51.2849 69.2459 52.2361 67.089 53.3899 65.0398C54.3032 64.8993 55.2259 64.8291 56.1499 64.8298V64.8298ZM51.0099 65.5898C50.0389 67.4828 49.2261 69.4528 48.5799 71.4798H42.3199C44.5574 68.6816 47.5909 66.6279 51.0199 65.5898H51.0099ZM40.7699 73.7398H47.9399C47.3233 76.2311 46.9879 78.7837 46.9399 81.3498H38.5099C38.6735 78.674 39.4466 76.0711 40.7699 73.7398V73.7398ZM40.7699 91.2498C39.4432 88.9229 38.6667 86.3231 38.4999 83.6498H46.9699C47.0971 86.218 47.4959 88.7656 48.1599 91.2498H40.7699ZM42.3299 93.5498H48.8399C49.5109 95.6019 50.3194 97.6064 51.2599 99.5498C47.7364 98.5335 44.6158 96.4473 42.3299 93.5798V93.5498ZM56.1499 100.23C55.3742 100.23 54.5992 100.18 53.8299 100.08C52.7733 97.9764 51.8579 95.8049 51.0899 93.5798H61.2199C60.4442 95.8034 59.5256 97.9746 58.4699 100.08C57.7007 100.18 56.9257 100.231 56.1499 100.23V100.23ZM61.0599 99.5398C62.0004 97.5964 62.8089 95.5919 63.4799 93.5398H69.9799C67.7032 96.4145 64.5898 98.5111 61.0699 99.5398H61.0599ZM71.5399 91.2798H64.1499C64.8123 88.7949 65.2145 86.2479 65.3499 83.6798H73.8199C73.6483 86.3523 72.8721 88.9509 71.5499 91.2798H71.5399ZM73.8199 81.3798H65.3799C65.3371 78.8133 65.0016 76.2602 64.3799 73.7698H71.5399C72.8689 76.1006 73.6519 78.7026 73.8299 81.3798H73.8199Z" fill="white"/>
<path d="M565.23 190.74H620.54C621.468 190.74 622.388 190.923 623.246 191.278C624.103 191.634 624.883 192.155 625.539 192.811C626.196 193.468 626.717 194.247 627.072 195.105C627.427 195.962 627.61 196.882 627.61 197.81V249.39C627.61 250.319 627.427 251.238 627.072 252.096C626.717 252.954 626.196 253.733 625.539 254.389C624.883 255.046 624.103 255.567 623.246 255.922C622.388 256.277 621.468 256.46 620.54 256.46H567.48C565.006 256.46 562.632 255.477 560.883 253.728C559.133 251.978 558.15 249.605 558.15 247.13V197.85C558.145 196.918 558.324 195.993 558.678 195.13C559.031 194.267 559.552 193.482 560.21 192.822C560.868 192.161 561.651 191.637 562.512 191.279C563.374 190.922 564.297 190.739 565.23 190.74Z" fill="#6FC7BF"/>
<path d="M601.02 218.27C601.022 216.6 600.529 214.967 599.603 213.578C598.676 212.189 597.359 211.105 595.817 210.465C594.275 209.825 592.578 209.656 590.94 209.981C589.302 210.305 587.797 211.108 586.616 212.288C585.434 213.468 584.63 214.972 584.303 216.61C583.977 218.247 584.143 219.945 584.782 221.487C585.42 223.03 586.502 224.349 587.89 225.277C589.278 226.205 590.91 226.7 592.58 226.7C594.817 226.7 596.962 225.812 598.545 224.231C600.127 222.651 601.017 220.507 601.02 218.27V218.27ZM586.26 218.27C586.258 217.017 586.628 215.792 587.323 214.749C588.018 213.707 589.006 212.894 590.163 212.414C591.32 211.933 592.594 211.807 593.823 212.051C595.051 212.295 596.18 212.898 597.066 213.784C597.952 214.67 598.555 215.799 598.799 217.027C599.043 218.256 598.917 219.53 598.436 220.687C597.956 221.844 597.143 222.832 596.101 223.527C595.058 224.222 593.833 224.592 592.58 224.59C590.904 224.59 589.296 223.924 588.111 222.739C586.926 221.553 586.26 219.946 586.26 218.27V218.27Z" fill="white"/>
<path d="M591.73 243.14C591.897 243.365 592.147 243.515 592.425 243.556C592.702 243.597 592.984 243.527 593.21 243.36C593.293 243.297 593.367 243.223 593.43 243.14C593.52 243.02 593.92 242.47 594.53 241.6L600.75 231.98C603.64 227.05 606.29 221.62 606.29 218.27C606.339 216.439 606.022 214.617 605.355 212.911C604.689 211.205 603.687 209.65 602.409 208.337C601.132 207.025 599.604 205.982 597.917 205.269C596.23 204.557 594.417 204.19 592.585 204.19C590.753 204.19 588.94 204.557 587.253 205.269C585.566 205.982 584.038 207.025 582.761 208.337C581.483 209.65 580.481 211.205 579.815 212.911C579.148 214.617 578.831 216.439 578.88 218.27C578.88 221.52 581.37 226.74 584.16 231.55L590.64 241.61L591.73 243.14ZM592.58 206.67C594.103 206.67 595.612 206.97 597.019 207.553C598.427 208.136 599.705 208.991 600.782 210.068C601.86 211.145 602.714 212.424 603.297 213.831C603.88 215.238 604.18 216.747 604.18 218.27C604.18 223.27 596.47 235.27 592.58 240.71C588.69 235.23 580.99 223.31 580.99 218.27C580.989 216.747 581.288 215.239 581.869 213.832C582.451 212.424 583.305 211.146 584.381 210.068C585.457 208.991 586.736 208.136 588.142 207.553C589.549 206.97 591.057 206.67 592.58 206.67V206.67Z" fill="white"/>
<path d="M103.25 201.6L98.9902 211.83C98.9902 211.83 123.51 229.4 143.8 239.48C150.2 242.66 157.63 237.43 157.23 230.3V230.08C157.124 228.188 156.455 226.371 155.31 224.862C154.164 223.353 152.594 222.221 150.8 221.61C130.04 214.58 125.99 211.74 103.25 201.6Z" fill="#D97F48"/>
<path d="M102.23 212.74C102.23 212.74 81.02 222.09 73.23 208.52L105.4 200.52L102.23 212.74Z" fill="#D97F48"/>
<path d="M168.34 165.18C158.2 182.55 145.97 207.41 139.25 226.35C137.52 231.24 139.3 236.71 144.02 238.86L144.19 238.94C146.41 239.976 148.941 240.134 151.273 239.38C153.605 238.627 155.565 237.02 156.76 234.88C172.08 207.22 185.76 185.67 185.76 185.67L168.34 165.18Z" fill="#D97F48"/>
<path d="M168.75 160.39C168.75 160.39 153.52 163.63 140.75 201.25L169.43 218.25L180.01 197.25L168.75 160.39Z" fill="#6FC7BF"/>
<path d="M154.65 208.79H121.55V203.49H154.65C155.353 203.49 156.027 203.769 156.524 204.266C157.021 204.763 157.3 205.437 157.3 206.14V206.14C157.301 206.489 157.234 206.834 157.101 207.156C156.968 207.478 156.773 207.771 156.527 208.017C156.28 208.263 155.988 208.459 155.665 208.591C155.343 208.724 154.998 208.792 154.65 208.79V208.79Z" fill="#08101C"/>
<path d="M134.71 208.74H59.2899C58.4273 208.747 57.5855 208.476 56.8899 207.966C56.1943 207.456 55.6821 206.735 55.4299 205.91L42.0699 161.24C41.9348 160.81 41.9029 160.354 41.9768 159.91C42.0506 159.465 42.2282 159.044 42.495 158.681C42.7618 158.318 43.1104 158.022 43.5126 157.819C43.9148 157.615 44.3592 157.51 44.8099 157.51H116.32C117.182 157.502 118.024 157.774 118.72 158.284C119.415 158.794 119.928 159.515 120.18 160.34L134.71 208.74Z" fill="#111D36"/>
<path d="M91.1499 181.39C91.343 182.503 91.2017 183.648 90.744 184.68C90.2863 185.713 89.5327 186.586 88.5784 187.191C87.6242 187.795 86.5122 188.102 85.3831 188.075C84.254 188.047 83.1586 187.685 82.2353 187.034C81.312 186.384 80.6023 185.474 80.1961 184.42C79.7899 183.366 79.7053 182.216 79.9531 181.114C80.2008 180.012 80.7698 179.008 81.588 178.23C82.4063 177.451 83.437 176.933 84.5499 176.74C86.0417 176.482 87.575 176.826 88.8127 177.698C90.0503 178.57 90.891 179.898 91.1499 181.39V181.39Z" fill="#E6F5FA"/>
<path d="M236.45 213.95C236.45 213.95 254.66 279.67 262.08 336.83L274.58 334.46C274.58 334.46 270.7 250.74 258.15 198.88L236.45 213.95Z" fill="#D97F48"/>
<path d="M274.48 331.6C274.48 331.6 293.29 359.36 270.72 371.85C269.995 372.247 269.155 372.384 268.341 372.236C267.528 372.089 266.79 371.667 266.25 371.04L266.11 370.87C265.53 370.179 265.233 369.294 265.277 368.393C265.322 367.492 265.705 366.641 266.35 366.01C269.55 362.76 273.86 356.01 266.99 347.23C266.99 347.23 263.38 348.15 263.99 355.31C264.023 355.741 263.962 356.175 263.812 356.58C263.662 356.986 263.426 357.354 263.12 357.66C262.814 357.966 262.446 358.202 262.04 358.352C261.634 358.502 261.201 358.563 260.77 358.53C260.161 358.466 259.587 358.216 259.124 357.816C258.661 357.416 258.332 356.883 258.18 356.29C256.99 351.57 255.04 339.86 262.58 333.57L274.48 331.6Z" fill="#D97F48"/>
<path d="M238.82 160.39C238.82 160.39 250.46 163.79 262.88 203.11L234.2 220.11L227.55 197.25L238.82 160.39Z" fill="#6FC7BF"/>
<path d="M237.07 159.33L215.46 150.74L193.24 151.04L170.96 159.21C168.94 159.951 167.267 161.413 166.262 163.315C165.257 165.218 164.993 167.425 165.52 169.51L181.89 234.08H225.74L240.86 166.53C241.19 165.075 240.989 163.551 240.294 162.231C239.6 160.91 238.456 159.882 237.07 159.33V159.33Z" fill="#6FC7BF"/>
<path d="M225.74 234.06H181.89V241.08H225.74V234.06Z" fill="#111D36"/>
<path d="M175.34 208.22L167.81 178.53" stroke="#51A99F" stroke-width="1.37" stroke-miterlimit="10"/>
<path d="M231.18 209.75L238.17 178.53" stroke="#51A99F" stroke-width="1.37" stroke-miterlimit="10"/>
<path d="M225.74 241.07H181.89C181.89 241.07 160.64 246.46 146.42 345.99C144.25 361.16 142.42 375.99 140.77 390.12H182.15L200.45 298.26L204.45 299.32L211.2 390.12H250.15L250.96 341.07C250.96 341.07 247.45 261.23 225.74 241.07Z" fill="#006AB8"/>
<path d="M204.48 299.32L190.85 294" stroke="#005A94" stroke-width="1.37" stroke-miterlimit="10"/>
<path d="M240.4 113.07C238.46 105.71 237.75 107.02 231.23 92.3799C227.33 83.6399 224.31 80.1199 222.51 78.6999C217.581 74.1995 211.166 71.6752 204.492 71.6106C197.818 71.5461 191.355 73.9457 186.34 78.3499V78.3499C184.63 79.4899 181.42 82.7999 177.15 92.3499C170.62 106.99 169.91 105.68 167.97 113.04C166.03 120.4 168.5 133.98 183.67 136.63C182.36 135.182 181.45 133.417 181.03 131.51C181.03 131.51 187.38 140.15 196.03 139.62H212.35C221 140.15 227.35 131.51 227.35 131.51C226.924 133.417 226.011 135.181 224.7 136.63C239.87 134.01 242.34 120.43 240.4 113.07Z" fill="#111D36"/>
<path d="M224.4 154.28L215.46 150.74L212.76 127.22C210.956 128.961 208.713 130.178 206.27 130.74C203.732 131.05 201.162 130.523 198.95 129.24C198.9 129.24 195.95 126.74 195.95 126.74L193.26 151.04L183.52 154.61C183.52 154.61 184.15 160.95 204.76 160.95C225.37 160.95 224.4 154.28 224.4 154.28Z" fill="#D97F48"/>
<path d="M194.23 127.56C194.23 127.56 199.89 138.49 206.63 136.93C213.63 135.29 213.63 126.05 213.63 126.05L194.23 127.56Z" fill="#111D36"/>
<path d="M228.43 96.1399C228.43 109.53 218.01 120.39 205.16 120.39C192.31 120.39 181.89 109.53 181.89 96.1399C181.89 82.7499 192.31 73.6499 205.16 73.6499C218.01 73.6499 228.43 82.7399 228.43 96.1399Z" fill="#111D36"/>
<path d="M224.39 97.39C224.381 104.341 223.603 111.27 222.07 118.05C220.93 123.05 217.74 126.55 213.23 129.37L212.4 129.88C210.033 131.343 207.312 132.133 204.53 132.165C201.748 132.196 199.01 131.469 196.61 130.06V130.06C191.72 127.17 188.3 123.35 187.24 117.98C186.031 111.178 185.332 104.296 185.15 97.39C185.15 97.39 183.32 76.32 204.5 76.73C225.68 77.14 224.39 97.39 224.39 97.39Z" fill="#D97F48"/>
<path d="M187.43 117.18C183.7 120.4 175.84 107.64 179.43 104.18C183.02 100.72 185.6 106.34 185.6 106.34L186.33 110.34L187.43 115.77L187.71 116.99L187.43 117.18Z" fill="#D97F48"/>
<path d="M181.08 108.5C181.08 108.5 182.6 105.2 186.15 111" stroke="#111D36" stroke-linecap="round" stroke-linejoin="round"/>
<path d="M222.06 117.25C225.84 120.41 233.48 107.52 229.81 104.14C226.14 100.76 223.68 106.41 223.68 106.41L223.01 110.41L222.01 115.85L221.74 117.08L222.06 117.25Z" fill="#D97F48"/>
<path d="M228.26 108.47C228.26 108.47 226.68 105.19 223.26 111.05" stroke="#111D36" stroke-linecap="round" stroke-linejoin="round"/>
<path d="M185.39 103.95C185.39 103.95 193.86 92.5102 191.9 80.9502C189.847 82.1633 188.078 83.8023 186.712 85.7567C185.346 87.7111 184.414 89.9355 183.98 92.2802C182.35 100.4 185.39 103.95 185.39 103.95Z" fill="#111D36"/>
<path d="M224.74 104.18C224.74 104.18 214.57 91.7299 216.52 80.1299C220.829 82.8905 223.87 87.2442 224.98 92.2399C226.61 100.4 224.74 104.18 224.74 104.18Z" fill="#111D36"/>
<path d="M179.15 95.7398H230.41C230.41 95.7398 224.64 74.0198 203.02 72.7398C181.4 71.4598 179.15 95.7398 179.15 95.7398Z" fill="#111D36"/>
<path d="M197.32 105.58C197.32 105.978 197.201 106.366 196.979 106.696C196.757 107.026 196.442 107.282 196.073 107.432C195.705 107.582 195.3 107.619 194.911 107.537C194.522 107.456 194.165 107.261 193.888 106.976C193.61 106.691 193.424 106.33 193.352 105.939C193.281 105.548 193.328 105.144 193.487 104.78C193.646 104.415 193.91 104.106 194.245 103.893C194.581 103.679 194.972 103.57 195.37 103.58C195.892 103.593 196.387 103.81 196.752 104.183C197.116 104.557 197.32 105.058 197.32 105.58Z" fill="#111D36"/>
<path d="M215.4 105.58C215.4 105.978 215.281 106.366 215.059 106.696C214.837 107.026 214.522 107.282 214.153 107.432C213.785 107.582 213.38 107.619 212.991 107.537C212.602 107.456 212.246 107.261 211.968 106.976C211.69 106.691 211.504 106.33 211.432 105.939C211.361 105.548 211.408 105.144 211.567 104.78C211.726 104.415 211.99 104.106 212.325 103.893C212.661 103.679 213.052 103.57 213.45 103.58C213.972 103.593 214.468 103.81 214.832 104.183C215.196 104.557 215.4 105.058 215.4 105.58V105.58Z" fill="#111D36"/>
<path d="M203.43 109.83V112.46C203.426 112.612 203.457 112.763 203.521 112.901C203.584 113.04 203.678 113.162 203.796 113.258C203.913 113.354 204.051 113.423 204.2 113.458C204.348 113.493 204.502 113.494 204.65 113.46L206.05 113.17" stroke="#111D36" stroke-width="0.99" stroke-linecap="round" stroke-linejoin="round"/>
<path d="M201.15 99.5298L189.32 100.95C189.32 100.95 190.27 97.8098 195.1 97.2698C199.93 96.7298 201.15 99.5298 201.15 99.5298Z" fill="#111D36"/>
<path d="M207.99 99.5298L219.83 100.95C219.83 100.95 218.88 97.8098 214.04 97.2698C209.2 96.7298 207.99 99.5298 207.99 99.5298Z" fill="#111D36"/>
<path d="M193.45 113.59C197.907 113.59 201.52 109.977 201.52 105.52C201.52 101.063 197.907 97.4502 193.45 97.4502C188.993 97.4502 185.38 101.063 185.38 105.52C185.38 109.977 188.993 113.59 193.45 113.59Z" stroke="#6FC7BF" stroke-width="1.08" stroke-miterlimit="10"/>
<path d="M216.31 113.59C220.767 113.59 224.38 109.977 224.38 105.52C224.38 101.063 220.767 97.4502 216.31 97.4502C211.853 97.4502 208.24 101.063 208.24 105.52C208.24 109.977 211.853 113.59 216.31 113.59Z" stroke="#6FC7BF" stroke-width="1.08" stroke-miterlimit="10"/>
<path d="M201.52 106.19C201.52 106.19 204.37 101.8 208.24 106.19" stroke="#6FC7BF" stroke-width="1.08" stroke-miterlimit="10"/>
<path d="M198.44 117.19H211.32C211.32 117.19 205.29 124.38 198.44 117.19Z" fill="white"/>
<path d="M478.07 181.37L507.48 206.82C510.154 209.132 511.814 212.402 512.102 215.925C512.39 219.449 511.283 222.944 509.02 225.66V225.66C506.75 228.388 503.498 230.113 499.967 230.461C496.435 230.809 492.909 229.752 490.15 227.52L461.02 203.91L478.07 181.37Z" fill="#F7A771"/>
<path d="M440.61 156.45C461.99 159.9 485.46 181.37 485.46 181.37L466.05 209.14L440.49 188.2L440.61 156.45Z" fill="#0083C8"/>
<path d="M509.15 153.46L488.01 213.85C487.451 215.43 487.22 217.106 487.331 218.778C487.441 220.45 487.891 222.082 488.652 223.574C489.414 225.067 490.472 226.388 491.761 227.459C493.05 228.529 494.543 229.326 496.15 229.8C497.838 230.292 499.612 230.417 501.352 230.166C503.092 229.916 504.759 229.297 506.24 228.35C507.721 227.403 508.983 226.15 509.94 224.675C510.897 223.201 511.528 221.538 511.79 219.8L522.65 155.74L509.15 153.46Z" fill="#F7A771"/>
<path d="M509.15 153.46C509.15 153.46 505 148.11 504.15 132.8C504.13 132.332 504.248 131.868 504.49 131.466C504.732 131.064 505.087 130.742 505.51 130.54V130.54C505.811 130.401 506.137 130.327 506.468 130.321C506.8 130.315 507.129 130.378 507.434 130.506C507.74 130.633 508.016 130.823 508.244 131.064C508.472 131.304 508.648 131.589 508.76 131.9L510.86 138.29L522.65 155.74L509.15 153.46Z" fill="#F7A771"/>
<path d="M510.85 138.29L511.37 117.05C511.37 116.15 512.01 114.88 513.16 114.83C513.422 114.785 513.691 114.795 513.949 114.859C514.208 114.923 514.45 115.04 514.661 115.203C514.871 115.365 515.046 115.57 515.173 115.804C515.3 116.037 515.378 116.295 515.4 116.56L515.88 131.61L518.68 114.01C518.747 113.597 518.97 113.225 519.303 112.972C519.636 112.719 520.054 112.604 520.47 112.65C520.877 112.7 521.251 112.902 521.516 113.215C521.781 113.528 521.918 113.93 521.9 114.34L520.99 133.45L524.82 117.75C524.92 117.337 525.162 116.973 525.504 116.72C525.846 116.468 526.266 116.344 526.69 116.37C526.933 116.386 527.17 116.451 527.388 116.562C527.605 116.672 527.797 116.826 527.953 117.013C528.109 117.2 528.226 117.416 528.296 117.65C528.366 117.883 528.388 118.128 528.36 118.37L526.36 135.6L533.98 124.88C534.134 124.696 534.325 124.546 534.541 124.441C534.757 124.336 534.992 124.277 535.232 124.27C535.472 124.262 535.711 124.306 535.933 124.397C536.155 124.488 536.355 124.626 536.52 124.8C536.763 125.068 536.916 125.405 536.955 125.764C536.995 126.124 536.92 126.486 536.74 126.8L530.34 139.8C530.34 139.8 529.93 147.88 522.62 155.66L511.3 148.94L510.85 138.29Z" fill="#F7A771"/>
<path d="M510.85 138.29C510.85 138.29 518.85 138.29 519.01 145.51" stroke="#111D36" stroke-width="1.02" stroke-linecap="round" stroke-linejoin="round"/>
<path d="M438.44 154.79L454.44 160.85C458.63 162.38 459.69 167.02 458.6 171.34L451.21 262.84H388.15L383.29 168.36C382.963 166.908 383.166 165.387 383.86 164.071C384.555 162.755 385.697 161.73 387.08 161.18L408.69 152.58L438.44 154.79Z" fill="#0083C8"/>
<path d="M456.19 201.06L457.66 182.79" stroke="#00678D" stroke-width="1.46" stroke-miterlimit="10"/>
<path d="M384.72 217.74C384.72 217.74 367.58 284.36 363.29 341.85L350.68 340.16C350.68 340.16 352.54 256.32 362.28 203.89L384.72 217.74Z" fill="#F7A771"/>
<path d="M385.29 162.24C385.29 162.24 371.08 165.64 358.66 204.96L389.91 221.96L396.56 199.1L385.29 162.24Z" fill="#0083C8"/>
<path d="M431.22 152.62L429.99 129.94C429.99 129.94 425.8 132.87 421.99 133.57C418.18 134.27 414.5 132.05 414.45 132.03L410.02 129.45L408.69 152.57L402.03 155.22C402.03 155.22 406.21 162.35 420.17 161.62C434.13 160.89 438.48 154.78 438.48 154.78L431.22 152.62Z" fill="#F7A771"/>
<path d="M409.15 130.32C409.15 130.32 415.32 141.57 422.66 139.96C430.32 138.28 430.61 128.47 430.61 128.47L409.15 130.32Z" fill="#111D36"/>
<path d="M440.64 99.2599C440.628 106.416 439.826 113.549 438.25 120.53C437.08 125.68 433.79 129.28 429.15 132.18L428.3 132.71C425.863 134.212 423.063 135.023 420.2 135.054C417.337 135.086 414.52 134.338 412.05 132.89V132.89C407.05 129.89 403.49 125.98 402.4 120.45C401.142 113.451 400.41 106.368 400.21 99.2599C400.21 99.2599 398.34 77.5699 420.14 77.9899C441.94 78.4099 440.64 99.2599 440.64 99.2599Z" fill="#F7A771"/>
<path d="M402.59 119.63C398.75 122.95 390.66 109.81 394.38 106.27C398.1 102.73 400.73 108.49 400.73 108.49L401.49 112.64L402.61 118.23L402.9 119.48L402.59 119.63Z" fill="#F7A771"/>
<path d="M396.05 110.74C396.05 110.74 397.63 107.34 401.28 113.31" stroke="#111D36" stroke-width="1.03" stroke-linecap="round" stroke-linejoin="round"/>
<path d="M438.24 119.74C442.14 122.99 450 109.74 446.24 106.24C442.48 102.74 439.93 108.57 439.93 108.57L439.24 112.73L438.24 118.34L437.97 119.59L438.24 119.74Z" fill="#F7A771"/>
<path d="M444.62 110.66C444.62 110.66 442.99 107.29 439.44 113.32" stroke="#111D36" stroke-width="1.03" stroke-linecap="round" stroke-linejoin="round"/>
<path d="M412.78 106.36C412.78 106.755 412.663 107.142 412.443 107.471C412.223 107.8 411.911 108.056 411.545 108.208C411.18 108.359 410.778 108.399 410.39 108.321C410.002 108.244 409.645 108.054 409.366 107.774C409.086 107.494 408.895 107.138 408.818 106.75C408.741 106.362 408.781 105.96 408.932 105.594C409.083 105.229 409.34 104.917 409.669 104.697C409.998 104.477 410.384 104.36 410.78 104.36C411.31 104.36 411.819 104.571 412.194 104.946C412.569 105.321 412.78 105.829 412.78 106.36Z" fill="#111D36"/>
<path d="M431.39 106.36C431.39 106.755 431.273 107.142 431.053 107.471C430.833 107.8 430.521 108.056 430.156 108.208C429.79 108.359 429.388 108.399 429 108.321C428.612 108.244 428.256 108.054 427.976 107.774C427.696 107.494 427.506 107.138 427.429 106.75C427.351 106.362 427.391 105.96 427.542 105.594C427.694 105.229 427.95 104.917 428.279 104.697C428.608 104.477 428.995 104.36 429.39 104.36C429.921 104.36 430.429 104.571 430.804 104.946C431.179 105.321 431.39 105.829 431.39 106.36Z" fill="#111D36"/>
<path d="M419.06 109.42V113.42C419.056 113.577 419.087 113.734 419.151 113.878C419.215 114.022 419.311 114.15 419.43 114.252C419.55 114.355 419.691 114.429 419.843 114.471C419.995 114.512 420.155 114.518 420.31 114.49L421.75 114.18" stroke="#111D36" stroke-width="1.02" stroke-linecap="round" stroke-linejoin="round"/>
<path d="M423.15 98.99L434.74 101.99C434.74 101.99 434.22 98.73 429.47 97.55C424.72 96.37 423.15 98.99 423.15 98.99Z" fill="#111D36"/>
<path d="M415.98 98.99L404.38 101.99C404.38 101.99 404.91 98.73 409.65 97.55C414.39 96.37 415.98 98.99 415.98 98.99Z" fill="#111D36"/>
<path d="M419.15 120.42C419.581 120.149 419.892 119.723 420.02 119.23C420.29 118.23 420.41 116.63 418.48 116.45C415.66 116.18 410.92 121.62 406.78 118.51C406.74 118.51 410.7 125.86 419.15 120.42Z" fill="#111D36"/>
<path d="M420.69 120.42C420.259 120.149 419.948 119.723 419.82 119.23C419.55 118.23 419.43 116.63 421.35 116.45C424.17 116.18 428.88 121.62 433.01 118.51C433.01 118.51 429.06 125.86 420.69 120.42Z" fill="#111D36"/>
<path d="M440.15 73.56C433.03 68.56 419.46 73.21 411.96 76.48C412.021 75.7803 411.942 75.0753 411.725 74.407C411.509 73.7388 411.16 73.1209 410.7 72.59C397.81 76.59 399.43 83.88 400.33 86.23C397.8 88.89 394.33 95.52 400.92 109.42C400.92 109.42 404.6 97.55 403.04 88.1C409.15 90.86 425.74 97.48 436.28 93.27C436.672 98.7924 437.851 104.231 439.78 109.42C443.78 99.22 443.21 93.08 441.62 89.42C443.42 87.3 448.78 79.67 440.15 73.56Z" fill="#111D36"/>
<path d="M439.23 390.12H479.77C464.77 326.12 453.05 281.91 453.05 281.91L451.2 262.84H420.41L421.81 329.84L439.23 390.12Z" fill="#006AB8"/>
<path d="M421.81 329.82L420.41 262.82H388.15C363.97 299.01 377.65 363.31 377.65 363.31L381.34 390.1H421.85L421.81 329.82Z" fill="#006AB8"/>
<path d="M421.81 329.82V310.84L430.96 296.66" stroke="#005A94" stroke-width="1.37" stroke-miterlimit="10"/>
<path d="M297.36 367.87C297.36 367.87 308.25 313.81 314.66 299.07C314.79 298.777 315.009 298.533 315.284 298.37C315.56 298.207 315.88 298.135 316.199 298.162C316.518 298.19 316.821 298.316 317.065 298.524C317.308 298.731 317.482 299.009 317.56 299.32C319.11 304.93 321.14 321.49 320.23 370.21V390.12H358.47L364.15 342.2C364.15 342.2 372.67 275.4 344.93 237.46H289.29C289.29 237.46 260.94 278.7 257.21 335.66C256.38 348.33 254.94 367.66 253.21 390.12H292.6L297.36 367.87Z" fill="#0083C8"/>
<path d="M305.13 294L318.15 299.32" stroke="#00678D" stroke-width="1.46" stroke-miterlimit="10"/>
<path d="M304.98 132.02L278.24 139.37L289.29 230.66H345.4L356.47 138.97L326.83 131.62L304.98 132.02Z" fill="#FFCC05"/>
<path d="M344.89 230.66H289.29V237.46H344.89V230.66Z" fill="#111D36"/>
<path d="M330.83 197.74C330.83 197.74 353.74 188.55 366.02 194.96L367.15 209.74L329.74 214.44L330.83 197.74Z" fill="#F7A771"/>
<path d="M379.79 227.5C379.79 227.5 342.59 231.97 312.44 216.15L337.98 208.42L369.52 203.11L379.79 227.5Z" fill="#FFCC05"/>
<path d="M354.66 138.74C354.66 138.74 369.11 139.67 378.32 168.28C388.11 198.68 388.82 222.61 382.03 226.63C375.24 230.65 366.81 221.74 358.15 197.25C349.49 172.76 345.52 159.58 345.52 159.58L354.66 138.74Z" fill="#FFCC05"/>
<path d="M351.7 178.53L353.92 160.09" stroke="#EAB600" stroke-width="1.46" stroke-miterlimit="10"/>
<path d="M278.24 139.37C278.24 139.37 263.79 140.3 254.58 168.91C244.8 199.31 244.08 223.24 250.88 227.26C257.68 231.28 267.11 222.41 275.76 197.93C284.41 173.45 287.37 160.26 287.37 160.26L278.24 139.37Z" fill="#FFCC05"/>
<path d="M282.77 176.77L280.76 160.09" stroke="#EAB600" stroke-width="1.46" stroke-miterlimit="10"/>
<path d="M290.22 197.88C282.372 190.456 272.972 184.868 262.7 181.52C262.329 181.404 261.935 181.385 261.555 181.466C261.175 181.546 260.822 181.723 260.53 181.98C260.253 182.225 260.041 182.535 259.914 182.882C259.786 183.229 259.747 183.602 259.8 183.968C259.852 184.334 259.995 184.681 260.215 184.978C260.435 185.275 260.725 185.513 261.06 185.67L271.39 190.49L257.83 191.4C257.297 191.425 256.775 191.56 256.296 191.796C255.817 192.031 255.392 192.363 255.047 192.77C254.701 193.177 254.444 193.651 254.289 194.162C254.135 194.673 254.088 195.21 254.15 195.74C254.43 197.69 255.75 200.24 259.51 203.2L290.22 197.88Z" fill="#F7A771"/>
<path d="M259.55 203.21C259.55 203.21 308.68 193.52 331.99 193.61L341.29 216.61C341.29 216.61 268.57 234.84 250.88 227.26L259.55 203.21Z" fill="#FFCC05"/>
<path d="M290.22 197.88C290.22 197.88 321.1 193.06 331.99 193.61L333.3 196.86" stroke="#EAB600" stroke-width="1.46" stroke-miterlimit="10"/>
<path d="M288.85 226.99L341.29 216.61L333.3 196.86" stroke="#EAB600" stroke-width="1.46" stroke-miterlimit="10"/>
<path d="M291.54 92.5901L280.54 106.91C280.54 106.91 320 137.22 352.45 104.77L340.9 90.6401L291.54 92.5901Z" fill="#111D36"/>
<path d="M326.77 130.91L324 108.91C322.148 110.696 319.846 111.947 317.34 112.53C313.55 113.23 309.87 111.01 309.83 110.99C309.79 110.97 306.73 108.42 306.73 108.42L305.05 131.2C305.047 131.468 305.024 131.735 304.98 132L316.98 158.12L326.81 131.6C326.778 131.371 326.764 131.141 326.77 130.91V130.91Z" fill="#F7A771"/>
<path d="M304.98 109.3C304.98 109.3 310.79 121.57 317.71 119.97C324.93 118.29 324.9 107.75 324.9 107.75L304.98 109.3Z" fill="#111D36"/>
<path d="M340.08 77.0602C340.08 90.8002 329.39 101.94 316.2 101.94C303.01 101.94 292.32 90.8002 292.32 77.0602C292.32 63.3202 303.01 53.9702 316.2 53.9702C329.39 53.9702 340.08 63.3202 340.08 77.0602Z" fill="#111D36"/>
<path d="M335.93 78.3401C335.921 85.4729 335.122 92.5827 333.55 99.5401C332.39 104.68 329.11 108.27 324.48 111.16L323.63 111.68C321.202 113.18 318.411 113.991 315.557 114.024C312.702 114.058 309.893 113.313 307.43 111.87C302.43 108.87 298.89 104.98 297.81 99.4701C296.559 92.4907 295.83 85.4278 295.63 78.3401C295.63 78.3401 293.76 56.7101 315.49 57.1301C337.22 57.5501 335.93 78.3401 335.93 78.3401Z" fill="#F7A771"/>
<path d="M298 98.6498C294.17 101.95 286.11 88.8598 289.82 85.3298C293.53 81.7998 296.15 87.5398 296.15 87.5398L296.9 91.6798L298.02 97.2498L298.31 98.4998L298 98.6498Z" fill="#F7A771"/>
<path d="M291.48 89.7399C291.48 89.7399 293.05 86.3499 296.69 92.2999" stroke="#111D36" stroke-width="1.03" stroke-linecap="round" stroke-linejoin="round"/>
<path d="M333.54 98.7401C337.43 101.98 345.26 88.7401 341.54 85.2901C337.82 81.8401 335.24 87.6101 335.24 87.6101L334.56 91.7601L333.56 97.3501L333.29 98.6001L333.54 98.7401Z" fill="#F7A771"/>
<path d="M339.91 89.7401C339.91 89.7401 338.28 86.3701 334.74 92.3901" stroke="#111D36" stroke-width="1.03" stroke-linecap="round" stroke-linejoin="round"/>
<path d="M336.54 73.0498C335.502 68.3 332.745 64.1013 328.8 61.2598C326.126 58.5703 322.625 56.8585 318.86 56.3998C318.86 56.3998 305.28 53.3398 299.67 63.6098C296.982 66.1277 295.162 69.4326 294.47 73.0498C292.79 81.4198 295.91 85.0498 295.91 85.0498C299.268 80.2369 301.547 74.7552 302.59 68.9798C306.7 72.3798 315.03 76.6398 330.85 76.4198C332.337 79.5636 334.165 82.5347 336.3 85.2798C336.3 85.2798 338.22 81.4198 336.54 73.0498Z" fill="#111D36"/>
<path d="M308.15 86.7402C308.15 87.1358 308.033 87.5225 307.813 87.8514C307.593 88.1803 307.281 88.4366 306.915 88.588C306.55 88.7394 306.148 88.779 305.76 88.7018C305.372 88.6246 305.015 88.4342 304.736 88.1544C304.456 87.8747 304.265 87.5184 304.188 87.1304C304.111 86.7425 304.151 86.3403 304.302 85.9749C304.454 85.6094 304.71 85.2971 305.039 85.0773C305.368 84.8575 305.754 84.7402 306.15 84.7402C306.68 84.7402 307.189 84.9509 307.564 85.326C307.939 85.7011 308.15 86.2098 308.15 86.7402Z" fill="#111D36"/>
<path d="M326.71 86.7402C326.71 87.1358 326.593 87.5225 326.373 87.8514C326.153 88.1803 325.841 88.4366 325.475 88.588C325.11 88.7394 324.708 88.779 324.32 88.7018C323.932 88.6246 323.575 88.4342 323.296 88.1544C323.016 87.8747 322.826 87.5184 322.748 87.1304C322.671 86.7425 322.711 86.3403 322.862 85.9749C323.014 85.6094 323.27 85.2971 323.599 85.0773C323.928 84.8575 324.314 84.7402 324.71 84.7402C325.24 84.7402 325.749 84.9509 326.124 85.326C326.499 85.7011 326.71 86.2098 326.71 86.7402Z" fill="#111D36"/>
<path d="M313.94 91.1001V93.8101C313.927 93.9695 313.952 94.1297 314.013 94.2773C314.075 94.4249 314.171 94.5556 314.293 94.6584C314.416 94.7613 314.561 94.8333 314.717 94.8684C314.873 94.9035 315.035 94.9006 315.19 94.8601L316.63 94.5601" stroke="#111D36" stroke-width="1.01" stroke-linecap="round" stroke-linejoin="round"/>
<path d="M323.81 77.4598C323.81 77.4598 317.94 76.9798 317.88 79.3698C317.88 79.3698 317.88 80.9898 323.01 81.3098C328.14 81.6298 329.46 81.3098 329.93 79.7398C330.4 78.1698 326.56 77.4798 323.81 77.4598Z" fill="#111D36"/>
<path d="M306.26 77.4598C306.26 77.4598 312.13 76.9798 312.19 79.3698C312.19 79.3698 312.19 80.9898 307.07 81.3098C301.95 81.6298 300.62 81.3098 300.15 79.7398C299.68 78.1698 303.51 77.4798 306.26 77.4598Z" fill="#111D36"/>
<path d="M320.74 96.9502C320.74 96.9502 318.63 100.33 313.2 99.3802" stroke="#111D36" stroke-width="1.01" stroke-linecap="round" stroke-linejoin="round"/>
<path d="M48.0098 390.12H563.29" stroke="#111D36" stroke-width="0.98" stroke-linecap="round" stroke-linejoin="round"/>
</svg>
