<svg width="240" height="241" viewBox="0 0 240 241" fill="none" xmlns="http://www.w3.org/2000/svg">
<path d="M88.1279 52.8897C88.1044 52.8898 88.0811 52.8847 88.06 52.875C88.0388 52.8653 88.0203 52.8511 88.0058 52.8336C87.9813 52.8032 87.9706 52.7648 87.976 52.7269C87.9814 52.6891 88.0025 52.6548 88.0346 52.6316C88.0533 52.6171 90.0299 51.2109 92.7615 52.4632C92.7961 52.4808 92.8221 52.5104 92.8342 52.5457C92.8463 52.581 92.8435 52.6193 92.8265 52.6527C92.8095 52.6861 92.7795 52.7121 92.7427 52.7252C92.706 52.7382 92.6653 52.7374 92.6292 52.7229C90.0723 51.5509 88.2942 52.8063 88.2178 52.8608C88.1914 52.8784 88.1602 52.8884 88.1279 52.8897Z" fill="#3797DB"/>
<path d="M131.328 202.893C75.1681 175.154 56.0161 146.413 49.9199 126.892H85.9912C85.7855 129.968 84.8284 132.957 83.1951 135.625C82.4126 136.852 81.9892 138.254 81.9681 139.686C81.9469 141.118 82.3289 142.53 83.0749 143.777C83.8209 145.024 84.9041 146.061 86.2136 146.783C87.5232 147.504 89.012 147.884 90.5278 147.883C92.0436 147.882 93.5319 147.5 94.8404 146.777C96.1489 146.054 97.2305 145.015 97.9747 143.767C98.7188 142.519 99.0987 141.107 99.0755 139.675C99.0523 138.242 98.6268 136.842 97.8425 135.616C96.2139 132.953 95.2587 129.971 95.0515 126.901H131.328V158.66L131.995 158.604C135.233 158.327 138.368 157.387 141.182 155.849C142.294 155.212 143.565 154.865 144.865 154.845C146.165 154.824 147.447 155.131 148.581 155.733C149.714 156.335 150.657 157.211 151.315 158.272C151.972 159.332 152.318 160.538 152.32 161.767C152.321 162.996 151.976 164.203 151.322 165.264C150.667 166.326 149.725 167.204 148.593 167.808C147.461 168.412 146.179 168.721 144.879 168.703C143.579 168.685 142.307 168.34 141.194 167.705C138.376 166.164 135.237 165.222 131.995 164.944L131.328 164.888V202.893Z" fill="#FF8881"/>
<path d="M132.551 166.159C135.378 166.479 138.107 167.342 140.569 168.695C141.867 169.434 143.349 169.834 144.865 169.854C146.38 169.874 147.874 169.513 149.193 168.808C150.512 168.103 151.609 167.08 152.372 165.842C153.135 164.605 153.537 163.199 153.536 161.766C153.535 160.334 153.131 158.928 152.366 157.692C151.601 156.456 150.503 155.434 149.182 154.731C147.862 154.027 146.368 153.668 144.853 153.69C143.338 153.712 141.856 154.114 140.559 154.855C138.1 156.205 135.375 157.067 132.551 157.386V126.899H175.273L175.293 126.341C175.433 122.399 174.396 118.5 172.302 115.088C171.628 114.038 171.262 112.837 171.24 111.609C171.219 110.381 171.544 109.169 172.181 108.099C172.818 107.028 173.745 106.137 174.867 105.516C175.989 104.896 177.265 104.568 178.565 104.567C179.864 104.566 181.141 104.892 182.264 105.511C183.387 106.13 184.315 107.019 184.954 108.089C185.594 109.159 185.92 110.37 185.901 111.598C185.882 112.826 185.518 114.027 184.845 115.079C182.748 118.493 181.71 122.396 181.849 126.341L181.869 126.899H213.957C207.861 146.416 188.71 175.162 132.549 202.901L132.551 166.159Z" fill="#91B3FA"/>
<path d="M132.396 203.131V165.994L132.566 166.015C135.415 166.337 138.164 167.206 140.644 168.569C141.918 169.296 143.374 169.69 144.862 169.711C146.351 169.731 147.818 169.378 149.114 168.687C150.411 167.995 151.489 166.991 152.24 165.776C152.99 164.561 153.386 163.18 153.386 161.773C153.386 160.367 152.99 158.985 152.24 157.77C151.489 156.556 150.411 155.551 149.114 154.86C147.818 154.168 146.351 153.815 144.862 153.836C143.374 153.856 141.918 154.25 140.644 154.977C138.166 156.338 135.42 157.206 132.575 157.528L132.405 157.547V126.754H175.124L175.139 126.335C175.277 122.421 174.248 118.548 172.168 115.16C171.48 114.087 171.106 112.861 171.084 111.607C171.063 110.353 171.394 109.116 172.045 108.022C172.696 106.929 173.642 106.019 174.788 105.386C175.934 104.752 177.237 104.418 178.564 104.417C179.891 104.416 181.195 104.749 182.341 105.381C183.488 106.013 184.436 106.922 185.088 108.014C185.74 109.107 186.074 110.343 186.054 111.597C186.034 112.852 185.661 114.078 184.975 115.152C182.894 118.542 181.863 122.418 182 126.335L182.016 126.754H214.169L214.112 126.94C208.073 146.272 189.035 175.166 132.627 203.023L132.396 203.131ZM132.702 166.32V202.65C188.66 174.964 207.675 146.29 213.752 127.036H181.719L181.693 126.339C181.554 122.366 182.6 118.436 184.71 114.998C185.369 113.969 185.726 112.793 185.746 111.591C185.766 110.389 185.447 109.203 184.822 108.156C184.197 107.108 183.289 106.237 182.19 105.63C181.092 105.023 179.842 104.704 178.57 104.704C177.297 104.704 176.048 105.023 174.949 105.63C173.851 106.237 172.943 107.108 172.318 108.156C171.693 109.203 171.374 110.389 171.394 111.591C171.413 112.793 171.771 113.969 172.43 114.998C174.541 118.438 175.585 122.37 175.441 126.345L175.416 127.042H132.702V157.222C135.448 156.89 138.096 156.043 140.49 154.729C141.81 153.975 143.319 153.567 144.862 153.545C146.405 153.524 147.926 153.89 149.27 154.607C150.613 155.324 151.731 156.365 152.509 157.624C153.287 158.883 153.697 160.315 153.697 161.773C153.697 163.231 153.287 164.663 152.509 165.922C151.731 167.181 150.613 168.223 149.27 168.939C147.926 169.656 146.405 170.022 144.862 170.001C143.319 169.98 141.81 169.571 140.49 168.818C138.096 167.503 135.448 166.654 132.702 166.321V166.32Z" fill="#96D9C9"/>
<path d="M90.5202 146.726C89.2203 146.726 87.9436 146.4 86.8209 145.781C85.6983 145.162 84.77 144.271 84.1313 143.201C83.4925 142.131 83.1662 140.92 83.1857 139.692C83.2053 138.464 83.57 137.262 84.2425 136.211C86.0857 133.204 87.115 129.813 87.2389 126.34L87.2592 125.744H49.5693C48.0018 120.453 47.1955 114.986 47.1719 109.492C47.1719 97.0571 51.3355 85.4292 58.8993 76.7515C66.687 67.8125 77.4643 62.8916 89.246 62.8916C103.691 62.8916 114.379 68.5805 120.804 73.3555C127.155 78.0759 130.708 82.8557 131.324 83.7183V98.4056C128.747 98.0277 126.268 97.1978 124.014 95.9588C122.716 95.2194 121.233 94.8192 119.718 94.7992C118.202 94.7793 116.708 95.1402 115.388 95.8452C114.069 96.5502 112.971 97.5738 112.208 98.8114C111.444 100.049 111.043 101.456 111.044 102.888C111.045 104.321 111.449 105.727 112.214 106.964C112.979 108.201 114.078 109.223 115.399 109.926C116.719 110.629 118.214 110.988 119.729 110.966C121.245 110.944 122.727 110.542 124.024 109.801C126.274 108.565 128.749 107.738 131.32 107.361V125.744H93.7778L93.7999 126.34C93.9225 129.81 94.9493 133.197 96.7894 136.201C97.4646 137.253 97.8314 138.455 97.8523 139.685C97.8732 140.915 97.5473 142.128 96.9083 143.199C96.2692 144.27 95.3399 145.162 94.2158 145.782C93.0916 146.402 91.8132 146.728 90.5117 146.726H90.5202Z" fill="#E6ECFE"/>
<path d="M89.4534 59.8148C87.7296 60.0793 87.8314 60.3439 87.6091 60.3728C87.3461 60.4048 84.2344 58.9297 84.2344 58.9297C84.2344 58.9297 75.0266 54.6534 74.5379 54.4016L67.8937 46.5225L62.7715 48.748C62.7715 48.748 70.2453 57.1258 70.7187 57.4946C71.1921 57.8634 84.3922 62.2263 85.5409 62.6464C85.5409 62.6464 86.698 63.6437 87.4462 64.2498C88.1945 64.8559 89.1972 65.0916 89.4364 65.2279C90.0816 65.5334 90.766 65.7587 91.4724 65.8981C92.4786 66.105 91.6421 65.4604 91.6421 65.4604C91.6421 65.4604 89.8623 64.7533 89.9454 64.625C90.0133 64.5272 90.9634 64.9697 92.0697 65.2086C92.3547 65.2696 92.638 65.3305 92.8959 65.3834C93.5746 65.5213 93.8783 65.1541 93.1929 64.9024C92.8832 64.7827 92.5644 64.6852 92.2393 64.6106C91.9388 64.5279 91.6464 64.4206 91.3655 64.2899C91.0581 64.1958 90.7577 64.0822 90.4663 63.95C90.4935 63.9275 90.4188 63.8169 90.7242 63.8746C91.0907 63.942 91.8321 64.253 92.3819 64.3107C92.694 64.3444 93.3388 64.4518 93.3388 64.4518C93.3388 64.4518 94.4806 64.5561 94.4891 64.4053C94.5061 64.075 93.802 63.8906 93.371 63.8987C93.0621 63.7914 92.7418 63.7162 92.4158 63.6742C92.4158 63.6742 91.0907 63.1803 91.167 62.9959C91.1976 62.9222 92.0001 63.036 92.8518 63.0905C93.7511 63.1483 94.4026 63.1483 94.4501 62.9847C94.5265 62.7234 93.8105 62.6255 93.8105 62.6255C93.8105 62.6255 93.1793 62.539 92.9723 62.4941C92.7297 62.4428 92.0188 62.2327 92.0188 62.2327C92.0188 62.2327 89.5823 61.3893 89.6706 61.2194C89.7588 61.0494 90.1609 60.695 90.3323 60.6966C90.5036 60.6982 90.8107 60.857 90.9838 60.857C91.1568 60.857 91.525 60.8265 91.5505 60.6229C91.5759 60.4193 90.6224 59.9975 90.6224 59.9975C90.6224 59.9975 89.9522 59.7394 89.4534 59.8148Z" fill="#EFAC7F"/>
<path d="M72.5164 51.4041C72.5164 51.4041 70.8588 52.8231 70.1699 53.2897C69.5965 53.6777 66.802 54.946 66.802 54.946C66.802 54.946 64.0229 50.9375 62.8081 48.9252C61.3337 46.4848 60.3123 42.8563 60.6601 42.7585C61.6391 42.4811 62.9845 42.3127 64.2231 42.8499C68.5276 44.713 72.5164 51.4041 72.5164 51.4041Z" fill="#3B77BE"/>
<path d="M87.8438 61.9129C88.5818 62.0219 89.3368 61.8905 89.6626 61.2539C89.7372 62.0075 88.5224 62.3827 87.8438 61.9129Z" fill="#FE875E"/>
<path d="M45.3797 112.563C45.3797 112.563 45.1965 115.634 45.1948 115.64C45.1269 116.03 44.8555 116.992 44.8555 117.348C44.8555 118.679 51.123 116.226 49.7181 115.628C49.5909 115.573 48.9241 115.171 48.8834 114.717C48.8189 114.018 48.6543 112.607 48.6543 112.607L45.3797 112.563Z" fill="#EFAC7F"/>
<path d="M49.7182 115.617C48.9858 115.822 48.2429 115.992 47.4922 116.125C46.7389 116.228 45.7446 115.37 45.2119 115.603C44.6248 115.856 44.6486 118.15 44.6486 118.15C44.6486 118.15 52.5398 118.805 54.7591 118.128C55.6294 117.86 52.718 116.565 49.7182 115.617Z" fill="#45258F"/>
<path d="M35.3063 112.378C35.3063 112.378 35.1264 115.45 35.1264 115.456C35.0586 115.846 34.7871 116.81 34.7871 117.164C34.7871 118.495 41.0546 116.034 39.6498 115.444C39.5225 115.391 38.6589 114.685 38.6182 114.233C38.5537 113.534 38.5877 112.423 38.5877 112.423L35.3063 112.378Z" fill="#EFAC7F"/>
<path d="M39.6331 115.423C38.9011 115.628 38.1587 115.799 37.4087 115.933C36.6537 116.034 35.6611 115.178 35.1267 115.409C34.5413 115.664 34.5176 117.958 34.5176 117.958C34.5176 117.958 42.3528 118.261 44.6739 117.936C45.5884 117.814 42.6413 116.385 39.6331 115.423Z" fill="#45258F"/>
<path d="M36.7259 63.9551C36.7259 63.9551 35.6637 69.1341 36.0964 73.0609C36.529 76.9876 36.563 90.9405 36.563 90.9405L34.9121 113.263L38.8314 113.348C38.8314 113.348 43.4803 91.0367 43.3921 91.6091C43.3039 92.1816 44.9513 75.8957 44.9513 75.8957L39.41 63.458L36.7259 63.9551Z" fill="#2D185D"/>
<path d="M38.2119 60.6016C38.2119 60.6016 33.4001 65.3781 35.1901 70.5956C35.9095 72.6913 42.6164 92.7115 42.703 94.3486C42.7895 95.9857 44.9714 114.071 44.9714 114.071L49.5287 113.941L50.5145 93.8323L49.2114 66.7346L46.4458 62.1649L38.2119 60.6016Z" fill="#45258F"/>
<path d="M67.4311 45.1106C65.8548 43.4527 62.4242 41.0412 62.4242 41.0412C62.4242 41.0412 60.3882 39.3961 59.5483 39.1171C58.3233 38.7194 56.2228 37.6564 53.1858 41.9936C51.0123 45.0978 37.2964 61.1704 35.0449 61.7156L49.7466 68.3441C50.1504 65.1774 57.4173 59.1966 58.4624 58.0823C60.7987 55.5922 68.9224 46.6788 67.4311 45.1106Z" fill="#3797DB"/>
<path d="M66.744 38.3203L62.1629 40.8473C62.1629 40.8473 62.034 44.5351 63.5322 45.4876C64.7877 46.2893 65.7378 44.3652 65.7378 44.3652C65.7378 44.3652 67.4345 42.1412 68.7342 41.4486C70.0338 40.7559 66.744 38.3203 66.744 38.3203Z" fill="#EFAC7F"/>
<path d="M65.977 39.9414C66.2037 40.9299 66.6053 41.8753 67.1647 42.7377C67.6737 42.223 68.237 41.7179 68.7426 41.447C69.3398 41.1263 68.9598 40.4368 68.3778 39.7858C67.5566 38.9841 66.7456 38.3203 66.7456 38.3203L65.865 38.8013C65.809 39.1204 65.9193 39.6864 65.977 39.9414Z" fill="#D19369"/>
<path d="M69.1307 31.9888C69.0527 31.899 65.2878 36.318 65.7526 38.3864C66.2175 40.4548 68.4928 42.3484 70.0792 41.8273C71.8301 41.2517 75.0826 36.055 73.9153 33.5296C72.748 31.0043 69.1307 31.9888 69.1307 31.9888Z" fill="#EFAC7F"/>
<path d="M73.2511 30.6037C71.6104 29.7443 68.9331 29.4973 66.9327 30.4834C64.4742 31.6972 63.9126 34.7501 64.6829 36.6133C65.4532 38.4765 64.5709 39.5267 64.5709 39.5267L65.8757 38.81C65.8757 38.81 66.6375 37.6876 66.7376 36.7961C66.8377 35.9046 68.2205 36.0601 68.8958 35.6545C69.4149 35.3434 70.0834 34.33 70.9199 33.8025C70.9199 33.8025 73.0373 33.5588 74.0791 34.1088C75.847 35.0403 75.6027 31.8287 73.2511 30.6037Z" fill="#5E2E0D"/>
<path d="M80.5235 66.3203C78.725 66.115 78.7284 66.2529 78.4976 66.2209C78.2262 66.1824 75.4301 63.9151 75.4301 63.9151C75.4301 63.9151 67.1435 57.2818 66.7092 56.9098L62.1621 47.416L56.166 48.2578C56.166 48.2578 61.765 59.4192 62.1519 59.905C62.5387 60.3908 74.8362 67.1637 75.895 67.8804C75.895 67.8804 76.8315 69.1631 77.4457 69.9472C78.0599 70.7313 79.0151 71.2299 79.2255 71.4319C79.8 71.8997 80.4317 72.3007 81.1071 72.6265C82.0725 73.0979 81.3769 72.2465 81.3769 72.2465C81.3769 72.2465 79.7481 71.0808 79.8652 70.9798C79.9822 70.8788 80.8068 71.5859 81.8706 72.1166C82.1438 72.2529 82.4136 72.386 82.663 72.5062C83.3179 72.8269 83.7047 72.5463 83.0736 72.115C82.7903 71.9152 82.492 71.7352 82.1811 71.5763C81.8969 71.4134 81.6269 71.2295 81.3735 71.0263C80.8832 70.7056 80.5489 70.4859 80.5744 70.4747C80.5998 70.4635 80.5303 70.3144 80.8238 70.4507C81.1784 70.611 81.8537 71.1161 82.3932 71.3197C82.7003 71.4352 83.3247 71.7125 83.3247 71.7125C83.3247 71.7125 84.2477 71.8248 84.2833 71.7735C84.4716 71.5025 83.9219 71.2924 83.4842 71.1834C83.1994 70.9938 82.8947 70.8326 82.5748 70.7024C82.5748 70.7024 81.3531 69.8686 81.4736 69.7099C81.5194 69.649 82.2388 70.1107 83.1194 70.4218C84.1289 70.7778 84.6125 70.5821 84.7007 70.4314C84.8381 70.1989 84.2222 70.0562 84.2222 70.0562C83.8685 69.9789 83.52 69.8815 83.1788 69.7644C82.9463 69.649 80.2486 67.72 80.3759 67.5789C80.5031 67.4378 80.9205 67.4362 81.0919 67.4827C81.2632 67.5292 81.572 67.6431 81.7451 67.6944C81.9181 67.7457 82.2201 67.5517 82.2931 67.3609C82.3661 67.1701 81.7196 66.8205 81.7196 66.8205C81.7196 66.8205 81.0427 66.3796 80.5235 66.3203Z" fill="#EFAC7F"/>
<path d="M57.1135 52.8723C57.1135 52.8723 58.8391 52.3544 59.947 51.8766C60.6901 51.5559 63.9257 50.0391 63.9257 50.0391C63.9257 50.0391 62.531 44.4929 61.5877 42.5031C58.1265 35.1851 54.1919 40.231 53.6591 41.4079C52.4647 44.0359 57.1135 52.8723 57.1135 52.8723Z" fill="#62BDF3"/>
<path d="M183.05 125.742C183.03 122.204 184.01 118.726 185.889 115.665C186.671 114.438 187.095 113.037 187.116 111.605C187.137 110.172 186.755 108.76 186.009 107.513C185.263 106.266 184.18 105.229 182.87 104.508C181.561 103.786 180.072 103.406 178.556 103.407C177.04 103.408 175.552 103.79 174.244 104.513C172.935 105.236 171.853 106.275 171.109 107.523C170.365 108.771 169.985 110.183 170.009 111.616C170.032 113.048 170.457 114.449 171.242 115.675C173.118 118.732 174.095 122.208 174.073 125.742H132.551V106.045L131.872 106.123C128.887 106.465 126.008 107.378 123.409 108.806C122.297 109.442 121.027 109.788 119.727 109.808C118.428 109.828 117.146 109.521 116.013 108.919C114.881 108.317 113.938 107.44 113.281 106.38C112.625 105.32 112.278 104.115 112.277 102.886C112.276 101.658 112.621 100.452 113.275 99.3907C113.93 98.3297 114.871 97.4522 116.003 96.8482C117.135 96.2441 118.416 95.9352 119.715 95.9531C121.015 95.971 122.286 96.315 123.399 96.95C126.001 98.3804 128.884 99.2953 131.872 99.6389L132.551 99.7175V83.7154C133.165 82.8528 136.718 78.073 143.07 73.3526C149.492 68.5776 160.179 62.8887 174.628 62.8887C186.41 62.8887 197.194 67.8095 204.976 76.7486C212.537 85.4263 216.702 97.0542 216.702 109.489C216.681 114.983 215.877 120.451 214.312 125.742H183.05Z" fill="#FF8881"/>
<path d="M214.57 151.371H202.128C201.832 151.371 201.548 151.26 201.339 151.062C201.129 150.864 201.012 150.596 201.012 150.316V150.316C201.012 150.036 201.129 149.768 201.339 149.57C201.548 149.372 201.832 149.261 202.128 149.261H214.57C214.866 149.261 215.15 149.372 215.359 149.57C215.569 149.768 215.686 150.036 215.686 150.316V150.316C215.686 150.596 215.569 150.864 215.359 151.062C215.15 151.26 214.866 151.371 214.57 151.371V151.371Z" fill="#7772D6"/>
<path d="M215.794 153.036H200.905C200.61 153.035 200.326 152.924 200.117 152.726C199.907 152.529 199.79 152.261 199.789 151.981C199.79 151.701 199.907 151.433 200.117 151.235C200.326 151.038 200.61 150.926 200.905 150.926H215.794C216.09 150.926 216.373 151.038 216.583 151.235C216.792 151.433 216.91 151.701 216.91 151.981C216.91 152.261 216.792 152.529 216.583 152.726C216.373 152.924 216.09 153.035 215.794 153.036V153.036Z" fill="#45258F"/>
<path d="M172.141 223.224C172.141 223.224 170.994 224.295 170.969 224.688C170.943 225.081 170.867 229.293 171.335 229.686C171.803 230.078 173.176 230.357 172.735 230.808C172.395 231.141 169.832 231.069 168.13 230.981C167.633 230.954 167.009 227.155 166.812 226.597C166.527 225.786 165.497 224.022 165.756 223.456C165.884 223.182 166.824 222.554 167.677 222.026C168.575 221.47 169.435 220.233 169.435 220.233L172.141 223.224Z" fill="#EFAC7F"/>
<path d="M187.47 225.855C187.47 225.855 186.452 228.63 186.443 228.636C186.367 229.076 186.066 230.163 186.066 230.561C186.066 232.061 193.136 229.286 191.552 228.62C191.2 228.363 190.97 227.985 190.91 227.569C190.839 226.781 191.508 225.792 191.508 225.792L187.47 225.855Z" fill="#EFAC7F"/>
<path d="M197.228 173.162L199.789 179.427C199.789 179.427 201.458 194.375 200.486 203.318C200.079 207.06 191.275 227.095 191.275 227.095L186.902 226.504L192.759 202.774L190.604 193.702L187.55 175.768L197.228 173.162Z" fill="#2D185D"/>
<path d="M185.171 173.491L182.976 180.466L179.635 201.519L168.342 221.212C168.342 221.212 170.038 223.676 171.862 224.064L187.894 204.16L196.581 179.243L196.276 173.706L185.171 173.491Z" fill="#45258F"/>
<path d="M218.877 161.876C217.562 162.439 217.69 162.677 217.52 162.74C217.318 162.819 214.551 161.986 214.551 161.986C214.551 161.986 206.38 159.599 205.944 159.451L199.077 153.188L195.465 156.235C195.465 156.235 203.088 162.82 203.538 163.085C203.987 163.349 215.343 165.087 216.339 165.278C216.339 165.278 217.459 166.013 218.175 166.449C218.891 166.885 219.732 166.93 219.951 167.015C220.515 167.185 221.103 167.275 221.695 167.281C222.535 167.294 221.74 166.835 221.74 166.835C221.74 166.835 220.185 166.487 220.228 166.354C220.262 166.248 221.102 166.497 222.031 166.514C222.271 166.514 222.506 166.527 222.722 166.53C223.292 166.53 223.455 166.134 222.859 166.017C222.592 165.959 222.319 165.925 222.045 165.913C221.787 165.888 221.532 165.839 221.285 165.766C221.02 165.731 220.759 165.678 220.503 165.605C220.52 165.58 220.438 165.488 220.693 165.485C220.998 165.485 221.648 165.645 222.096 165.599C222.35 165.575 222.883 165.56 222.883 165.56C222.883 165.56 223.747 165.426 223.752 165.368C223.781 165.047 223.138 164.943 222.797 165.03C222.532 164.983 222.262 164.969 221.994 164.988C221.994 164.988 220.844 164.762 220.867 164.573C220.886 164.412 223.726 164.345 223.737 164.024C223.737 163.765 222.888 163.741 222.888 163.741C222.888 163.741 222.379 163.774 222.198 163.769C221.994 163.769 221.388 163.694 221.388 163.694C221.388 163.694 219.284 163.336 219.32 163.16C219.356 162.984 219.602 162.573 219.739 162.543C219.877 162.512 220.151 162.61 220.289 162.58C220.375 162.55 220.448 162.494 220.497 162.421C220.545 162.348 220.567 162.262 220.559 162.176C220.538 161.978 219.827 161.831 219.827 161.831C219.827 161.831 219.259 161.714 218.877 161.876Z" fill="#F8A492"/>
<path d="M201.557 154.778L198.121 159.197C198.121 159.197 195.083 155.756 193.71 154.029C192.052 151.932 190.237 149.029 190.505 148.874C191.263 148.431 192.202 147.963 193.313 148.233C197.161 149.169 201.557 154.778 201.557 154.778Z" fill="#3B77BE"/>
<path d="M167.734 221.989C167.734 221.989 170.148 228.975 171.182 229.318C171.457 229.41 173.001 229.78 173.25 230.338C173.25 230.353 173.26 230.369 173.265 230.388C173.281 230.472 173.276 230.559 173.252 230.641C173.228 230.724 173.184 230.8 173.125 230.865C173.066 230.93 172.993 230.982 172.911 231.017C172.828 231.052 172.738 231.069 172.648 231.068H167.744C167.744 231.068 167.047 227.928 166.772 226.549C166.772 226.549 165.315 223.182 165.478 222.874C165.64 222.566 167.734 221.989 167.734 221.989Z" fill="#45258F"/>
<path d="M185.666 231.057L186.455 228.607C186.455 228.607 188.175 229.297 189.027 229.181C189.873 229.031 190.711 228.839 191.537 228.607C194.93 229.677 197.709 230.196 197.203 231.057H185.666V231.057Z" fill="#45258F"/>
<path d="M217.832 164.007C218.14 164.007 218.443 163.927 218.707 163.776C218.971 163.626 219.186 163.41 219.33 163.152C219.196 163.964 218.387 164.299 217.832 164.007Z" fill="#FE875E"/>
<path d="M186.05 148.095C186.05 148.095 181.949 148.505 180.577 148.959C179.431 149.337 177.879 152.877 177.879 152.877C177.879 152.877 184.096 169.858 183.851 172.893C183.607 175.928 182.916 180.429 182.916 180.429C182.916 180.429 195.156 181.16 199.791 179.43C199.791 179.43 198.329 172.551 198.329 170.744C198.329 168.937 197.506 150.884 196.921 149.938C196.335 148.992 195.156 148.455 192.92 147.993C190.684 147.532 186.05 148.095 186.05 148.095Z" fill="#3797DB"/>
<path d="M186.865 143.042L186.049 148.095C186.049 148.095 188.506 150.771 190.291 150.25C191.784 149.812 191.392 147.828 191.392 147.828C191.392 147.828 190.577 144.97 190.822 143.539C191.066 142.109 186.865 143.042 186.865 143.042Z" fill="#EFAC7F"/>
<path d="M190.816 143.539C191.061 142.109 186.865 143.042 186.865 143.042L186.797 143.461C186.904 143.719 187.057 143.958 187.252 144.166C188.225 145.101 189.534 145.657 190.92 145.725C190.794 144.952 190.713 144.125 190.816 143.539Z" fill="#D19369"/>
<path d="M186.178 135.895C186.059 135.855 185.228 141.65 186.806 143.244C188.384 144.838 191.46 145.36 192.563 144.105C193.783 142.716 193.722 136.487 191.268 134.847C188.815 133.206 186.178 135.895 186.178 135.895Z" fill="#EFAC7F"/>
<path d="M190.332 131.746C188.96 132.021 187.711 132.69 186.756 133.66C185.894 133.756 184.72 134.204 183.515 136.083C182.027 138.392 183.125 140.953 184.855 142.208C186.586 143.464 186.562 144.911 186.562 144.911L186.835 144.164C187.041 143.598 187.115 142.996 187.053 142.4C187.02 142.034 186.925 141.675 186.773 141.337C186.357 140.499 187.667 139.942 188.033 139.243C188.317 138.706 188.33 137.48 188.776 136.59L189.309 135.911C189.309 135.911 190.536 135.014 191.737 135.27C192.938 135.527 192.765 131.279 190.332 131.746Z" fill="#282828"/>
<path d="M187.954 140.278C187.966 140.985 187.614 141.56 187.189 141.572C186.763 141.583 186.391 141.01 186.379 140.303C186.367 139.596 186.708 139.02 187.143 139.011C187.577 139.001 187.94 139.567 187.954 140.278Z" fill="#EFAC7F"/>
<path d="M193.501 172.623H218.205V152.37H193.501V172.623Z" fill="#96A65F"/>
<path d="M208.874 172.623H230.305V152.37H208.874V172.623Z" fill="#9ED16F"/>
<path d="M208.454 172.192C207.194 171.847 192.746 168.344 192.202 168.012C191.657 167.68 182.734 159.796 182.734 159.796L187.846 157.24L195.834 164.675C196.379 164.892 206.612 168.568 206.612 168.568C206.612 168.568 209.739 169.774 210.005 169.724C210.236 169.683 210.431 169.487 212.211 169.112C212.72 169.003 213.458 169.208 213.458 169.208C213.458 169.208 214.355 169.468 214.354 169.673C214.343 169.77 214.296 169.861 214.221 169.928C214.147 169.996 214.05 170.037 213.946 170.043C213.765 170.053 213.42 169.912 213.241 169.923C213.061 169.934 212.681 170.313 212.609 170.489C212.565 170.595 215.097 172.343 215.221 172.574C215.278 172.628 218.314 172.433 218.188 172.617C218.188 172.91 217.827 172.825 217.825 172.867C217.778 173.653 213.48 174.236 213.185 174.15C212.701 174.033 208.454 172.192 208.454 172.192Z" fill="#EFAC7F"/>
<path d="M185.486 163.424L191.341 159.802C191.341 159.802 184.554 150.082 182.245 149.08C180.65 148.388 178.667 149.431 177.89 151.985C177.045 154.759 185.486 163.424 185.486 163.424Z" fill="#3B77BE"/>
<path d="M228.166 156.952L227.172 157.851V152.592C227.172 152.463 227.145 152.334 227.093 152.214C227.041 152.095 226.964 151.986 226.867 151.894C226.77 151.802 226.655 151.729 226.528 151.68C226.401 151.63 226.266 151.604 226.128 151.604H217.447C217.169 151.604 216.904 151.709 216.708 151.894C216.512 152.079 216.401 152.33 216.401 152.592V158.7L215.333 156.947L211.666 157.957C211.666 157.957 214.608 163.248 216.401 164.113C218.801 165.269 224.759 165.235 227.172 164.113C228.641 163.426 231.144 159.189 231.144 159.189L228.166 156.952Z" fill="#7772D6"/>
<path d="M224.861 164.744C224.692 162.926 223.397 161.512 221.826 161.512C220.255 161.512 218.95 162.936 218.787 164.763C220.801 165.045 222.849 165.038 224.861 164.744Z" fill="#45258F"/>
<path d="M173.149 17.1726C172.265 18.5932 170.684 18.5355 168.987 18.9364C167.849 19.2041 167.15 20.9743 167.258 22.3132C167.533 25.7044 164.713 25.1287 162.459 26.5333C157.029 29.9005 160.535 38.6696 166.458 39.2356C167.645 39.3494 169.003 39.1666 170.046 38.6086C170.894 38.1613 171.487 37.5889 172.442 37.2698C174.439 36.6012 176.661 36.3687 178.258 34.9192C180.54 32.8348 178.648 31.8294 179.239 30.3174C179.829 28.8054 182.366 29.5638 182.849 26.4339C183.372 23.0475 182.8 20.1293 181.478 18.4473C179.29 15.6638 175.448 15.4746 174.049 16.3196C173.681 16.5315 173.372 16.8241 173.149 17.1726Z" fill="#5E2E0D"/>
<path d="M198.031 23.5276C197.82 23.1059 195.945 24.3517 195.53 24.1144C195.114 23.8771 197.209 21.8809 196.996 21.5329C196.602 20.8916 194.559 23.5853 194.357 23.2967C194.155 23.0081 196.118 20.1348 195.418 19.976C194.717 19.8173 193.721 23.1604 193.353 22.9455C192.985 22.7307 194.583 19.9167 193.904 19.3427C193.543 19.0348 191.834 24.4736 191.213 24.7045C190.592 24.9354 189.895 22.5543 189.311 22.6473C188.728 22.7403 191.225 27.0182 191.103 27.3517C190.981 27.6852 188.694 34.6681 187.345 36.7766C186.532 36.4094 185.742 36.0406 184.987 35.6815C184.683 37.3009 184.647 39.0053 184.252 40.5943C186.872 41.683 189.208 42.4719 189.968 42.2073C192.284 41.4056 193.428 30.7766 193.799 28.7932C194.171 26.8098 195.156 26.4201 195.725 25.3795C196.293 24.3389 198.241 23.9477 198.031 23.5276Z" fill="#EFAC7F"/>
<path d="M178.666 32.4746L174.789 36.1705C174.789 36.1705 179.91 38.7937 184.253 40.5975C184.652 39.0085 184.684 37.3041 184.988 35.6846C181.398 33.9706 178.666 32.4746 178.666 32.4746Z" fill="#7772D6"/>
<path d="M202.846 73.5128C203.991 74.7986 205.018 76.1751 205.913 77.6272C205.978 77.7459 206.003 78.4289 206.066 78.5444C208.713 80.1895 211.516 79.7325 213.818 79.0558C212.303 78.4353 210.192 77.717 209.995 77.4172C208.731 75.7498 207.643 73.9683 206.75 72.0986C205.564 73.213 204.446 73.0847 202.846 73.5128Z" fill="#EFAC7F"/>
<path d="M205.94 77.7168C205.709 78.7157 205.801 80.7424 206.011 80.7857C206.262 80.8402 215.146 82.0797 216.283 81.0022C216.962 80.3528 215.675 79.8541 213.818 79.054C211.515 79.7307 206.026 78.3934 205.94 77.7168Z" fill="#3797DB"/>
<path d="M203.607 81.0851C204.749 82.3715 205.771 83.7486 206.661 85.2011C206.726 85.3181 206.751 85.9932 206.816 86.1166C209.463 87.7617 212.266 87.3047 214.566 86.6281C213.051 86.0076 210.942 85.2909 210.744 84.991C210.43 84.51 208.986 82.7815 207.498 79.6709C206.322 80.7901 205.199 80.657 203.607 81.0851Z" fill="#EFAC7F"/>
<path d="M206.693 85.291C206.463 86.2899 206.556 88.3167 206.765 88.3615C207.016 88.4145 215.9 89.6539 217.036 88.5764C217.715 87.935 216.431 87.43 214.571 86.6283C212.27 87.3049 206.78 85.9677 206.693 85.291Z" fill="#3797DB"/>
<path d="M207.941 73.425L203.321 74.937L178.453 55.4395C178.453 55.4395 184.522 55.3674 195.398 56.4176C198.65 56.7303 207.941 73.425 207.941 73.425Z" fill="#96A65F"/>
<path d="M169.117 53.8204C169.117 53.8204 168.453 55.4703 168.37 56.3682C168.099 59.2768 169.689 62.9711 171.402 63.5355C173.158 64.1159 183.958 66.962 190.454 66.101L204.537 83.8507L209.233 81.9026L198.237 63.6333C198.237 63.6333 196.116 60.489 194.372 59.7482C192.628 59.0074 178.454 55.4382 178.454 55.4382L176.26 52.4238L169.117 53.8204Z" fill="#9ED16F"/>
<path d="M180.577 35.415C180.095 34.5757 179.567 33.7606 178.995 32.973C178.188 31.6117 176.101 30.9238 176.101 30.9238C176.101 30.9238 175.402 30.9367 174.601 30.9735C174.572 31.0681 174.521 31.1549 174.45 31.2269C174.148 31.4401 172.414 31.1643 171.306 31.8827C167.573 34.9211 168.603 49.6469 168.897 54.2984L177.977 54.6191C177.977 54.6191 178.838 44.3941 181.159 41.8286C182.769 40.0344 181.732 37.4401 180.577 35.415Z" fill="#7772D6"/>
<path d="M175.441 25.9433C175.441 25.9433 174.815 30.1812 174.377 31.2122C173.939 32.2431 176.781 34.443 179.145 35.1117C181.508 35.7803 178.422 32.838 178.52 31.7365C178.619 30.6349 179.046 25.4238 179.046 25.4238L175.441 25.9433Z" fill="#EFAC7F"/>
<path d="M178.93 26.9153C179 26.0526 179.049 25.4209 179.049 25.4209L175.442 25.9436C175.442 25.9436 175.35 26.4423 175.25 27.1462C176.714 27.9511 178.029 27.6961 178.93 26.9153Z" fill="#D19369"/>
<path d="M176.576 18.2047C175.636 18.454 174.82 19.0123 174.277 19.7792C173.4 21.0491 172.797 24.7883 175.688 26.5344C178.58 28.2805 180.828 25.8097 180.865 23.4014C180.902 20.993 180.365 17.7766 176.576 18.2047Z" fill="#EFAC7F"/>
<path d="M181.524 22.6466C181.276 23.2287 180.788 23.5895 180.432 23.4484C180.075 23.3072 179.984 22.73 180.231 22.1496C180.479 21.5691 180.968 21.2068 181.324 21.3479C181.68 21.489 181.77 22.0662 181.524 22.6466Z" fill="#EFAC7F"/>
<path d="M174.229 23.126C174.44 23.7529 174.246 24.3686 173.8 24.5033C173.354 24.638 172.823 24.2388 172.612 23.6134C172.402 22.9881 172.595 22.3708 173.042 22.2361C173.488 22.1014 174.019 22.5007 174.229 23.126Z" fill="#EFAC7F"/>
<path d="M186.203 37.0272C186.203 37.0272 187.175 37.0529 187.454 37.0272C189.047 36.8829 188.385 39.1117 188.385 39.1117C188.385 39.1117 187.606 38.3901 187.294 38.3901C187.044 38.3985 186.795 38.4253 186.549 38.4703L186.203 37.0272Z" fill="#45258F"/>
<path d="M191.603 51.8999C191.603 51.8999 192.259 52.862 192.996 52.4307C193.732 51.9993 195.006 51.1559 195.244 51.7893C195.481 52.4226 195.434 52.9486 195.176 53.072C194.918 53.1955 193.014 54.1768 191.985 54.2441C190.955 54.3115 190.1 53.3863 190.1 53.3863L191.603 51.8999Z" fill="#3B77BE"/>
<path d="M193.141 54.0826C193.131 53.2698 192.914 52.4714 192.508 51.7544C191.38 49.9105 186.619 44.9431 185.91 44.5583C185.201 44.1735 185.713 42.6759 185.713 42.6759L182.89 41.2328L181.419 40.4824C181.419 40.4824 178.085 45.2927 177.83 45.7448C177.576 46.197 178.027 47.685 177.69 48.5989C177.352 49.5129 177.703 54.477 177.225 55.0222C176.851 55.3749 176.502 55.4246 176.387 55.6379C176.343 55.7013 176.321 55.776 176.325 55.8516C176.328 55.9271 176.356 55.9999 176.405 56.0596C176.789 56.5246 178.741 56.135 178.741 56.135C178.757 56.1061 179.561 55.0366 179.435 54.4017C179.31 53.7667 179.709 50.0821 179.978 50.0821C180.216 50.0821 181.336 51.7288 181.79 52.0414C181.825 52.0703 181.868 52.0892 181.914 52.096C182.238 52.096 184.324 52.5289 184.782 52.9634C184.906 53.0788 184.951 53.3915 184.951 53.7827C184.951 54.0441 184.951 54.3375 184.917 54.639C184.873 55.1889 184.792 55.7533 184.736 56.1237C185.23 56.1237 185.728 56.1237 186.224 56.1237C186.457 55.7555 186.79 55.4525 187.188 55.2458C187.586 55.039 188.035 54.9358 188.489 54.9468C188.918 54.9382 189.342 55.0303 189.724 55.2147C190.106 55.3991 190.434 55.6701 190.678 56.0035C191.511 55.9618 191.833 56.345 192.544 56.2809C192.591 56.0532 193.153 54.3824 193.141 54.0826Z" fill="#3797DB"/>
<path d="M186.489 37.2428C186.332 37.1028 186.144 36.999 185.937 36.9394C185.731 36.8799 185.514 36.8663 185.301 36.8997C184.959 36.944 184.613 36.9489 184.269 36.9141C183.233 36.8259 182.169 36.9061 181.5 37.5378C180.832 38.1696 180.747 40.424 181.5 41.4822C182.254 42.5405 184.385 42.8067 184.571 43.2877C184.758 43.7687 186.607 43.9996 186.869 43.4128C186.943 43.4522 187.024 43.4769 187.108 43.4854C187.193 43.494 187.278 43.4862 187.359 43.4625C188.05 43.2765 188.301 42.6287 188.056 41.9344C187.812 41.2401 186.775 39.8163 186.964 38.5352C187.004 38.2994 186.981 38.058 186.899 37.8324C186.816 37.6069 186.675 37.4043 186.489 37.2428V37.2428Z" fill="#3B77BE"/>
<path d="M186.053 41.5801C185.996 41.6375 185.963 41.7126 185.961 41.7913C185.959 41.8699 185.987 41.9466 186.041 42.0067C186.294 42.3019 186.588 42.5639 186.915 42.7859C187.325 43.0072 187.716 42.0676 187.716 41.6459C187.716 41.2242 186.776 40.8795 186.053 41.5801Z" fill="#45258F"/>
<path d="M185.632 48.3371C185.63 48.2885 185.618 48.2408 185.596 48.1967C185.574 48.1526 185.543 48.1131 185.505 48.0804C185.467 48.0477 185.423 48.0225 185.374 48.0063C185.326 47.9901 185.274 47.9832 185.223 47.986V47.986C184.964 48.0031 184.712 48.0709 184.483 48.1852C184.254 48.2994 184.052 48.4574 183.891 48.6493C183.73 48.8411 183.613 49.0626 183.548 49.2995C183.482 49.5365 183.47 49.7837 183.511 50.0255C183.52 50.0753 183.52 50.1264 183.511 50.1762C183.469 50.359 183.144 50.9699 182.795 51.592L184.772 52.0602C185.255 51.2682 185.734 50.5322 185.734 50.5322L185.632 48.3371Z" fill="#3B77BE"/>
<path d="M181.888 53.1674C181.888 53.1674 181.142 55.2839 180.928 56.092C181.53 56.4127 181.895 55.7713 183.262 56.1337C183.3 55.8787 183.782 54.309 183.782 53.9242C183.782 53.7366 184.389 52.8531 184.871 52.0738C184.879 52.0603 184.884 52.0451 184.885 52.0294C184.887 52.0138 184.884 51.998 184.878 51.9835C184.872 51.9689 184.862 51.9559 184.849 51.9454C184.837 51.935 184.822 51.9273 184.806 51.9231C184.207 51.7628 183.449 51.4774 182.852 51.3202C182.815 51.3116 182.777 51.3147 182.743 51.3289C182.708 51.3431 182.68 51.3677 182.662 51.3988C182.368 51.9737 182.109 52.5642 181.888 53.1674Z" fill="#3B77BE"/>
<path d="M180.361 55.8857C180.481 55.6798 180.659 55.5092 180.875 55.3932C181.092 55.2771 181.338 55.22 181.586 55.2283C182.228 55.2283 183.251 56.1343 183.251 56.1343C183.251 56.1343 182.947 56.4133 182.111 56.4133C181.274 56.4133 180.076 56.4742 180.361 55.8857Z" fill="#3B77BE"/>
<path d="M184.137 55.7588C184.257 55.5528 184.435 55.3823 184.652 55.2662C184.868 55.1501 185.114 55.0931 185.362 55.1014C185.653 55.1299 185.931 55.2282 186.17 55.3868C186.268 55.4394 186.345 55.5215 186.389 55.62C186.432 55.7186 186.44 55.828 186.411 55.9311C186.381 56.0342 186.316 56.125 186.226 56.1894C186.136 56.2537 186.025 56.2878 185.912 56.2863H185.887C185.05 56.2863 183.849 56.3472 184.137 55.7588Z" fill="#3B77BE"/>
<path d="M190.154 55.759C190.324 55.4575 190.855 55.1016 191.627 55.1016C191.97 55.1281 192.302 55.2255 192.601 55.387C193.127 55.6419 192.906 56.2833 192.289 56.2865H192.26C191.254 56.2865 189.807 56.3474 190.154 55.759Z" fill="#3B77BE"/>
<path d="M183.703 37.7071C183.4 37.4201 183.59 37.0834 183.754 36.8862C182.894 36.8685 182.057 37.0113 181.504 37.5388C180.836 38.1705 180.751 40.4249 181.504 41.4832C182.183 42.4324 183.966 42.7451 184.46 43.1475C184.969 42.325 184.188 41.6323 184.005 41.2459C183.822 40.8594 184.923 39.8846 185.05 39.1101C185.178 38.3357 184.165 38.1401 183.703 37.7071Z" fill="#45258F"/>
<path d="M182.254 37.0876C181.756 37.217 181.229 37.1951 180.745 37.0251C179.907 36.7445 179.072 38.1603 179.072 38.1603C179.072 38.1603 179.851 39.7493 180.472 40.1373C181.093 40.5253 182.254 37.0876 182.254 37.0876Z" fill="#3B77BE"/>
<path d="M192.919 50.6064C192.919 50.2536 191.775 49.2371 191.222 49.4022C190.669 49.5674 188.528 50.8453 188.528 50.8453L178.965 48.7224C178.965 48.7224 176.553 43.5241 176.319 39.0586C174.323 39.3151 172.966 39.7817 171.229 40.6941C172.063 44.9656 174.096 51.8875 176.341 53.1863C177.286 53.733 188.567 52.5321 188.567 52.5321C188.567 52.5321 190.912 52.8431 191.494 52.6924C193.891 52.0623 192.919 51.3151 192.919 50.6064Z" fill="#EFAC7F"/>
<path d="M176.375 34.2812C176.079 32.9327 175.733 31.581 174.193 31.1529C173.712 31.0319 173.207 31.0214 172.722 31.1224C172.236 31.2234 171.783 31.4329 171.4 31.7334C170.492 32.4373 170.238 33.5661 170.243 34.6339C170.23 37.0904 170.448 39.5432 170.894 41.9631C172.627 41.0508 175.15 41.1614 177.145 40.9001C177.33 38.7419 176.76 36.0385 176.375 34.2812Z" fill="#45258F"/>
<path d="M98.898 26.692C97.88 31.7668 94.6563 42.4407 89.3966 42.274C89.1404 35.3103 88.779 29.328 88.2734 27.4376C88.1593 27.0508 88.0199 26.6712 87.856 26.3008C91.134 26.5701 93.1038 21.8449 93.8588 18.5178C93.1802 20.6295 91.6633 24.0127 89.6681 25.1431C88.5347 25.7845 87.7033 25.4638 87.3877 25.3724C85.4841 22.0228 81.8871 19.7813 80.1514 17.7866C78.7788 16.1912 79.6594 9.80964 79.9987 7.78613C79.5151 10.1335 79.0011 13.5745 79.2165 15.9732C79.4846 18.6781 80.9624 18.8497 84.3456 22.4846C87.0603 25.3499 88.0019 26.8956 88.0969 37.8774C87.8505 37.9266 87.6003 37.9571 87.3487 37.9688C84.5729 38.0169 82.0228 35.4707 80.6095 33.2419C81.7259 35.2686 83.7059 37.5615 86.027 38.2574C86.4553 38.3828 86.899 38.4555 87.347 38.4739C87.5993 38.4766 87.8516 38.4633 88.102 38.4338C88.1614 39.3958 88.4736 58.2664 88.197 70.4572C89.0148 70.4652 88.8757 70.1044 89.6697 70.1654C89.6392 66.8623 89.8174 54.5144 89.4458 43.6786C95.5827 43.4461 98.1616 32.7096 98.898 26.692Z" fill="#7772D6"/>
<path d="M76.3796 10.0319C77.6318 10.9811 79.4964 10.747 79.4964 10.747L74.9629 7.3125C74.9629 7.3125 75.1275 9.08427 76.3796 10.0319Z" fill="#96A65F"/>
<path d="M74.9629 7.3114L79.4964 10.7459C79.4964 10.7459 79.3267 8.98216 78.0797 8.02011C76.8326 7.05806 74.9629 7.3114 74.9629 7.3114Z" fill="#9ED16F"/>
<path d="M97.44 41.467C99.0433 41.4109 100.292 40.0801 100.292 40.0801L94.4844 40.2869C94.4844 40.2869 95.8349 41.5248 97.44 41.467Z" fill="#96A65F"/>
<path d="M94.4844 40.2874L100.292 40.0805C100.292 40.0805 98.9348 38.8427 97.3365 38.9004C95.7382 38.9581 94.4844 40.2874 94.4844 40.2874Z" fill="#9ED16F"/>
<path d="M99.1209 35.9467C100.217 35.2765 100.505 33.8623 100.505 33.8623L96.5352 36.2835C96.5352 36.2835 98.0248 36.6154 99.1209 35.9467Z" fill="#96A65F"/>
<path d="M96.5352 36.2795L100.505 33.8584C100.505 33.8584 99.0174 33.5233 97.9213 34.1919C96.8253 34.8605 96.5352 36.2795 96.5352 36.2795Z" fill="#9ED16F"/>
<path d="M93.4488 35.7352C93.9001 36.8928 95.3032 37.4685 95.3032 37.4685L93.6625 33.2852C93.6625 33.2852 92.9957 34.5839 93.4488 35.7352Z" fill="#96A65F"/>
<path d="M93.6621 33.2852L95.2977 37.4733C95.2977 37.4733 95.9764 36.1745 95.5166 35.0168C95.0568 33.8592 93.6621 33.2852 93.6621 33.2852Z" fill="#9ED16F"/>
<path d="M80.5783 13.2174C79.5976 13.8588 79.3906 15.1704 79.3906 15.1704L82.9418 12.8342C82.9418 12.8342 81.559 12.5712 80.5783 13.2174Z" fill="#96A65F"/>
<path d="M82.9359 12.834L79.3848 15.1702C79.3848 15.1702 80.7574 15.4315 81.7381 14.7869C82.7187 14.1424 82.9359 12.834 82.9359 12.834Z" fill="#9ED16F"/>
<path d="M94.1405 22.5862C92.9528 22.498 91.9043 23.3879 91.9043 23.3879L96.2172 23.7086C96.2172 23.7086 95.3316 22.6664 94.1405 22.5862Z" fill="#96A65F"/>
<path d="M96.2172 23.6918L91.9043 23.3711C91.9043 23.3711 92.7917 24.3957 93.9827 24.4839C95.1738 24.5721 96.2172 23.6918 96.2172 23.6918Z" fill="#9ED16F"/>
<path d="M81.3983 35.4143C80.2107 35.3262 79.1621 36.2161 79.1621 36.2161L83.4768 36.5367C83.4768 36.5367 82.5894 35.4993 81.3983 35.4143Z" fill="#96A65F"/>
<path d="M83.4826 36.5238L79.168 36.2031C79.168 36.2031 80.0553 37.2277 81.2464 37.3159C82.4375 37.4041 83.4826 36.5238 83.4826 36.5238Z" fill="#9ED16F"/>
<path d="M83.6388 34.2702C83.2045 33.2183 81.9082 32.7148 81.9082 32.7148L83.4844 36.523C83.4844 36.523 84.0732 35.322 83.6388 34.2702Z" fill="#96A65F"/>
<path d="M83.4819 36.523L81.9074 32.7148C81.9074 32.7148 81.3169 33.9142 81.7513 34.9596C82.1856 36.0051 83.4819 36.523 83.4819 36.523Z" fill="#9ED16F"/>
<path d="M92.1537 21.143C91.8856 20.4663 91.0645 20.1328 91.0645 20.1328L92.0299 22.5796C92.0299 22.5796 92.4201 21.81 92.1537 21.143Z" fill="#96A65F"/>
<path d="M92.03 22.5728L91.0646 20.126C91.0646 20.126 90.6743 20.8876 90.9407 21.569C91.2071 22.2505 92.03 22.5728 92.03 22.5728Z" fill="#9ED16F"/>
<path d="M77.8343 15.6785C76.7179 15.2777 75.459 15.8389 75.459 15.8389L79.4954 17.2948C79.4954 17.2948 78.9507 16.081 77.8343 15.6785Z" fill="#96A65F"/>
<path d="M79.4963 17.2956L75.4531 15.8525C75.4531 15.8525 75.9978 17.0727 77.1142 17.4752C78.2306 17.8776 79.4963 17.2956 79.4963 17.2956Z" fill="#9ED16F"/>
<path d="M92.0645 70.2065H92.6956V46.8207C92.6956 46.7416 92.6624 46.6657 92.6032 46.6098C92.544 46.5539 92.4637 46.5225 92.38 46.5225C92.2963 46.5225 92.2161 46.5539 92.1569 46.6098C92.0977 46.6657 92.0645 46.7416 92.0645 46.8207V70.2065Z" fill="#96A65F"/>
<path d="M84.7207 71.0445C84.7207 71.0445 87.622 67.7479 89.9583 68.6859C92.2947 69.6239 92.673 67.9307 93.898 68.4887C95.123 69.0467 96.6483 70.4577 96.6483 70.4577L84.7207 71.0445Z" fill="#3B77BE"/>
<path d="M90.3258 53.4299C89.5347 53.4215 88.758 53.2293 88.0641 52.8703C88.0283 52.8523 88.0015 52.8216 87.9894 52.785C87.9773 52.7484 87.981 52.7088 87.9996 52.6747C88.0089 52.6578 88.0216 52.6428 88.0371 52.6306C88.0526 52.6185 88.0706 52.6093 88.0899 52.6038C88.1092 52.5983 88.1294 52.5965 88.1495 52.5984C88.1695 52.6004 88.189 52.6062 88.2066 52.6154C90.7194 53.8677 92.5314 52.5336 92.6078 52.4775C92.6394 52.4549 92.6791 52.4448 92.7185 52.4493C92.7579 52.4539 92.7939 52.4727 92.8188 52.5019C92.8437 52.5311 92.8556 52.5683 92.852 52.6056C92.8484 52.643 92.8296 52.6775 92.7995 52.702C92.0746 53.181 91.2102 53.4353 90.3258 53.4299V53.4299Z" fill="#3797DB"/>
<path d="M88.2349 52.9045L87.9634 52.7538C87.7581 52.6384 85.9613 51.6154 85.9003 50.8297C85.8925 50.7375 85.9097 50.6449 85.9504 50.5607C85.9911 50.4765 86.0538 50.4036 86.1327 50.3487C86.4296 50.121 86.7198 50.0585 86.9946 50.1611C87.8565 50.4818 88.1602 52.3931 88.1925 52.6095L88.2349 52.9045ZM86.735 50.4032C86.5817 50.4143 86.437 50.4742 86.3244 50.5732C86.2833 50.598 86.2499 50.6329 86.2278 50.674C86.2057 50.7152 86.1957 50.7612 86.1989 50.8073C86.2328 51.2675 87.2169 51.9617 87.826 52.3385C87.692 51.6843 87.3747 50.6181 86.8758 50.4321C86.8296 50.4139 86.7801 50.4041 86.7299 50.4032H86.735Z" fill="#3797DB"/>
<path d="M86.3057 54.6543C86.2282 54.6536 86.1523 54.6328 86.0865 54.594C86.0206 54.5553 85.9674 54.5001 85.9325 54.4347C85.8866 54.3649 85.8584 54.286 85.8502 54.2042C85.842 54.1225 85.8538 54.04 85.885 53.9633C86.1293 53.3363 87.5664 52.8633 87.7293 52.812L88.1025 52.6934L87.9108 53.014C87.7513 53.285 86.9233 54.6399 86.3142 54.6495L86.3057 54.6543ZM87.4205 53.2321C86.9369 53.4261 86.2956 53.7468 86.1717 54.0643C86.1562 54.1005 86.1503 54.1397 86.1544 54.1785C86.1586 54.2173 86.1727 54.2546 86.1955 54.2872C86.2464 54.3657 86.2871 54.3641 86.3091 54.3657C86.5704 54.3577 87.0557 53.7773 87.4205 53.2289V53.2321Z" fill="#3797DB"/>
<path d="M88.3644 52.6909C88.364 52.7397 88.3484 52.7873 88.3195 52.8277C88.2906 52.8681 88.2497 52.8994 88.2019 52.9179C88.1541 52.9363 88.1016 52.941 88.0511 52.9313C88.0005 52.9216 87.9541 52.8979 87.9177 52.8633C87.8814 52.8287 87.8566 52.7847 87.8467 52.7369C87.8367 52.689 87.842 52.6395 87.8619 52.5944C87.8817 52.5494 87.9152 52.5109 87.9581 52.4839C88.001 52.4568 88.0515 52.4424 88.1031 52.4424C88.1375 52.4424 88.1717 52.4488 88.2035 52.4613C88.2353 52.4738 88.2642 52.4922 88.2884 52.5153C88.3127 52.5384 88.3319 52.5658 88.345 52.5959C88.358 52.6261 88.3646 52.6583 88.3644 52.6909V52.6909Z" fill="#3797DB"/>
<path d="M117.711 14.5984L113.973 13.7822L112.984 16.298L109.266 15.6149L107.917 17.9094L105.057 17.7346L105.045 18.8202L108.871 19.0543L110.149 16.88L114.017 17.5903L114.989 15.1163L118.376 15.8554L117.711 14.5984Z" fill="#9ED16F"/>
<path d="M223.889 71.6778L225.246 69.5244L224.133 67.2523C224.105 67.194 224.094 67.1293 224.103 67.0655C224.111 67.0017 224.138 66.9414 224.181 66.8913C224.223 66.8413 224.28 66.8036 224.344 66.7824C224.408 66.7611 224.478 66.7573 224.544 66.7713L227.128 67.3181L229.059 65.6185C229.109 65.5747 229.17 65.545 229.237 65.5327C229.304 65.5204 229.372 65.526 229.436 65.5489C229.499 65.5718 229.555 65.611 229.596 65.6621C229.637 65.7133 229.662 65.7742 229.668 65.8381L229.917 68.3298L232.23 69.55C232.289 69.5816 232.337 69.6281 232.37 69.6842C232.402 69.7403 232.418 69.8039 232.414 69.8678C232.411 69.9317 232.388 69.9934 232.35 70.0461C232.311 70.0987 232.258 70.1401 232.196 70.1657L229.765 71.1583L229.256 73.6147C229.243 73.6777 229.211 73.7359 229.165 73.7829C229.119 73.8298 229.059 73.8635 228.994 73.8802C228.928 73.8969 228.859 73.8959 228.794 73.8773C228.729 73.8587 228.671 73.8233 228.626 73.775L226.875 71.8974L224.245 72.1941C224.178 72.2019 224.11 72.1917 224.048 72.1647C223.986 72.1376 223.934 72.0948 223.897 72.041C223.86 71.9872 223.839 71.9246 223.838 71.8604C223.837 71.7962 223.854 71.7329 223.889 71.6778V71.6778Z" fill="#7772D6"/>
<path d="M3.41532 164.571C3.21172 166.093 4.88803 167.297 6.37941 167.206C8.02858 167.101 9.43342 165.823 9.66926 164.292C9.92885 162.634 8.87522 161.31 7.24471 161.188C5.65832 161.069 4.64371 162.405 5.10181 163.753C5.43097 164.716 6.36414 165.078 6.83242 164.812C7.1989 164.605 7.17176 164.081 6.73401 163.988C6.64888 163.975 6.56168 163.985 6.48245 164.017C6.40322 164.049 6.33516 164.102 6.28609 164.169C5.89755 164.023 5.52768 163.356 5.77709 162.634C6.09776 161.714 7.32955 161.661 8.09475 162.091C9.06864 162.638 9.22134 163.814 8.86504 164.752C8.67004 165.25 8.33092 165.686 7.88634 166.011C7.44176 166.336 6.90961 166.536 6.35057 166.588C5.7406 166.625 5.1397 166.434 4.6771 166.057C4.21449 165.679 3.92713 165.145 3.87681 164.57C3.8767 164.541 3.87062 164.513 3.85893 164.486C3.84723 164.46 3.83014 164.436 3.80863 164.416C3.78712 164.395 3.76162 164.38 3.73359 164.369C3.70555 164.358 3.67552 164.352 3.64522 164.352C3.61492 164.352 3.58493 164.358 3.55698 164.369C3.52903 164.38 3.50365 164.396 3.4823 164.417C3.46095 164.437 3.44405 164.461 3.43256 164.488C3.42107 164.514 3.41521 164.543 3.41532 164.571V164.571Z" fill="#9ED16F"/>
<path d="M11.1216 98.6527L11.0978 95.8034L8.60032 94.2C8.53672 94.1587 8.48652 94.1015 8.45535 94.0348C8.42418 93.9681 8.41327 93.8946 8.42384 93.8223C8.4344 93.7501 8.46603 93.6821 8.51518 93.6259C8.56433 93.5697 8.62906 93.5275 8.70212 93.5041L11.5627 92.603L12.3924 89.8708C12.4138 89.8006 12.4556 89.7374 12.513 89.6885C12.5705 89.6396 12.6413 89.6068 12.7174 89.594C12.7935 89.5811 12.8719 89.5887 12.9437 89.6158C13.0155 89.6429 13.0778 89.6884 13.1237 89.7473L14.9153 92.0386L17.9286 91.944C18.006 91.9414 18.0825 91.9593 18.1496 91.9957C18.2167 92.0322 18.2716 92.0856 18.3082 92.1501C18.3448 92.2145 18.3615 92.2873 18.3565 92.3603C18.3515 92.4333 18.3249 92.5035 18.2799 92.5629L16.5323 94.8814L17.5503 97.5591C17.5761 97.6273 17.5815 97.7009 17.5657 97.7718C17.5499 97.8427 17.5136 97.908 17.4608 97.9605C17.4081 98.0131 17.3409 98.0507 17.2668 98.0693C17.1927 98.0879 17.1147 98.0867 17.0413 98.0658L14.1671 97.208L11.7918 98.9589C11.7306 99.0037 11.6574 99.0314 11.5805 99.039C11.5036 99.0466 11.4259 99.0338 11.3563 99.002C11.2866 98.9702 11.2278 98.9206 11.1863 98.8589C11.1449 98.7972 11.1224 98.7257 11.1216 98.6527V98.6527Z" fill="#3797DB"/>
<path d="M229.635 133.85C229.6 133.38 229.714 132.911 229.961 132.502C230.209 132.093 230.579 131.763 231.025 131.553C231.471 131.343 231.973 131.262 232.467 131.322C232.962 131.381 233.426 131.578 233.802 131.887C234.178 132.197 234.449 132.604 234.58 133.059C234.71 133.513 234.696 133.994 234.537 134.441C234.379 134.887 234.084 135.279 233.69 135.567C233.296 135.855 232.82 136.027 232.323 136.059C231.993 136.081 231.661 136.041 231.348 135.942C231.034 135.843 230.744 135.686 230.494 135.481C230.245 135.276 230.04 135.026 229.893 134.746C229.745 134.466 229.658 134.162 229.635 133.85Z" fill="#62BDF3"/>
<path d="M233.908 140.571C233.757 139.88 233.665 139.141 233.416 138.476C233.202 137.903 232.257 138.078 232.304 138.692C232.364 139.446 232.612 140.209 232.78 140.946C232.847 141.245 233.265 141.383 233.541 141.291C233.881 141.179 233.972 140.871 233.908 140.571V140.571Z" fill="#62BDF3"/>
<path d="M238.219 137.623C237.385 137.158 236.657 136.582 235.887 136.032C235.284 135.603 234.636 136.342 235.13 136.852C235.841 137.586 236.776 138.158 237.675 138.662C237.821 138.728 237.988 138.738 238.141 138.689C238.295 138.64 238.421 138.536 238.494 138.399C238.563 138.261 238.573 138.103 238.521 137.958C238.47 137.814 238.361 137.694 238.218 137.623H238.219Z" fill="#62BDF3"/>
<path d="M236.642 133.361C236.554 133.422 236.493 133.513 236.472 133.615C236.452 133.717 236.473 133.823 236.532 133.911C236.815 134.392 237.531 134.371 238.04 134.355C238.574 134.334 239.101 134.239 239.605 134.073C240.348 133.834 239.944 132.745 239.199 132.986C237.742 133.455 237.19 132.946 236.642 133.361Z" fill="#62BDF3"/>
<path d="M235.844 128.733C235.111 129.746 234.512 130.088 234.605 130.646C234.613 130.717 234.637 130.786 234.676 130.847C234.716 130.908 234.769 130.96 234.832 131C234.895 131.039 234.967 131.064 235.042 131.074C235.117 131.084 235.193 131.078 235.265 131.056C235.659 130.973 235.874 130.575 236.114 130.301C236.353 130.027 236.562 129.769 236.764 129.487C236.948 129.23 236.974 128.897 236.704 128.677C236.48 128.491 236.025 128.475 235.856 128.733H235.844Z" fill="#62BDF3"/>
<path d="M232.985 128.556C232.751 127.942 232.698 127.719 232.394 127.434C232.13 127.187 231.571 127.344 231.536 127.71C231.492 128.136 231.587 128.295 231.833 128.941C231.889 129.082 232.002 129.197 232.146 129.261C232.291 129.325 232.457 129.332 232.607 129.282C232.758 129.232 232.882 129.128 232.952 128.993C233.023 128.858 233.035 128.701 232.985 128.558V128.556Z" fill="#62BDF3"/>
<path d="M229.905 130.042C228.848 129.283 228.634 129.07 228.218 129.11C227.974 129.136 227.709 129.355 227.755 129.615C227.854 130.096 228.149 130.224 229.113 130.898C229.234 130.994 229.39 131.042 229.549 131.032C229.707 131.021 229.855 130.953 229.961 130.842C230.065 130.728 230.117 130.58 230.106 130.429C230.095 130.279 230.021 130.139 229.902 130.04L229.905 130.042Z" fill="#62BDF3"/>
<path d="M225.653 133.522C225.237 133.731 225.403 134.411 225.854 134.467C226.306 134.523 226.453 134.454 228.552 134.093C228.712 134.078 228.859 134.006 228.964 133.891C229.07 133.777 229.125 133.629 229.119 133.477C229.097 133.194 228.793 132.887 228.467 132.942C226.289 133.314 226.07 133.312 225.653 133.522Z" fill="#62BDF3"/>
<path d="M228.938 136.764C227.79 137.816 227.62 137.63 227.167 138.273C226.958 138.566 227.301 139.036 227.662 138.974C228.127 138.892 228.251 138.813 228.85 138.366C229.201 138.103 229.537 137.821 229.868 137.527C230.107 137.309 230.038 136.9 229.809 136.706C229.684 136.608 229.524 136.559 229.362 136.57C229.2 136.581 229.049 136.65 228.94 136.764H228.938Z" fill="#62BDF3"/>
<path d="M32.0566 229.298H34.5202V105.655C34.5202 105.347 34.3904 105.05 34.1594 104.832C33.9284 104.614 33.6151 104.491 33.2884 104.491C32.9617 104.491 32.6484 104.614 32.4174 104.832C32.1864 105.05 32.0566 105.347 32.0566 105.655V229.298Z" fill="#3797DB"/>
<path d="M48.7012 229.298H51.1647V103.559C51.1647 103.25 51.035 102.954 50.804 102.735C50.573 102.517 50.2596 102.395 49.933 102.395C49.6063 102.395 49.293 102.517 49.062 102.735C48.8309 102.954 48.7012 103.25 48.7012 103.559V229.298Z" fill="#3797DB"/>
<path d="M50.7649 117.895H33.8066V119.29H50.7649V117.895Z" fill="#3797DB"/>
<path d="M50.7649 136.593H33.8066V137.988H50.7649V136.593Z" fill="#3797DB"/>
<path d="M50.7649 155.289H33.8066V156.684H50.7649V155.289Z" fill="#3797DB"/>
<path d="M50.7649 173.984H33.8066V175.379H50.7649V173.984Z" fill="#3797DB"/>
<path d="M38.5377 185.853H27.8402C27.4159 185.853 27.0089 186.012 26.7089 186.295C26.4088 186.579 26.2402 186.964 26.2402 187.365V193.039H28.0302V187.66H38.5377V185.853Z" fill="#13375B"/>
<path d="M40.5837 182.02L37.2684 178.714C37.2684 178.714 33.7189 180.559 29.5807 182.322C28.444 180.45 26.5878 174.304 26.4877 174.003C26.3876 173.702 28.6611 170.011 28.1538 169.919C27.6465 169.828 26.9831 171.893 26.4453 171.683C25.9074 171.473 24.5246 166.679 24.2023 166.94C23.5966 167.431 24.9285 169.922 24.6095 170.105C24.2905 170.288 23.4812 167.341 22.8636 167.468C22.246 167.594 23.9054 170.148 23.7238 170.394C23.5423 170.639 21.81 168.242 21.452 168.79C21.2569 169.092 23.0502 170.875 22.6804 171.078C22.3105 171.282 20.697 170.153 20.5035 170.517C20.3101 170.881 22.0119 171.261 22.4835 172.183C22.9552 173.105 23.8137 173.466 24.0988 175.209C24.3838 176.952 25.1609 186.272 27.1715 187.02C28.9275 187.679 40.5837 182.02 40.5837 182.02Z" fill="#EFAC7F"/>
<path d="M71.1677 224.989C71.429 223.226 71.4087 219.985 71.2763 216.562C72.8983 216.483 74.2727 216.387 75.893 216.286C75.2143 220.659 74.7647 225.161 74.7647 225.161L74.875 226.025L74.9344 228.591L65.752 228.655C67.3526 227.946 68.9032 227.14 70.3941 226.242C70.6107 226.098 70.792 225.912 70.9255 225.695C71.0591 225.479 71.1417 225.238 71.1677 224.989V224.989Z" fill="#EFAC7F"/>
<path d="M75.1809 229.136L65.498 229.245C65.1468 229.214 65.062 228.946 65.1824 228.781C65.4335 228.441 66.5398 228.191 67.7817 227.649C69.9619 227.864 74.5243 226.456 74.8687 225.983C75.0672 226.931 75.376 229.096 75.1809 229.136Z" fill="#45258F"/>
<path d="M87.6235 223.173C86.8651 221.548 85.0378 218.8 83.0137 215.957C84.3507 215.083 85.6741 214.194 86.9958 213.299C88.8621 217.352 90.776 221.528 90.776 221.528L91.3511 222.207L92.8306 224.354L85.0633 228.985C86.0276 227.584 86.8958 226.126 87.6626 224.621C87.7659 224.391 87.816 224.142 87.8092 223.893C87.8025 223.643 87.7392 223.397 87.6235 223.173V223.173Z" fill="#EFAC7F"/>
<path d="M93.2348 224.896L85.179 229.619C84.8651 229.768 84.6429 229.582 84.6548 229.382C84.6768 228.968 85.4776 228.205 86.2327 227.126C88.2042 226.222 91.2786 222.733 91.3057 222.155C92.0014 222.864 93.3774 224.766 93.2348 224.896Z" fill="#45258F"/>
<path d="M83.8429 151.697C84.5623 148.388 82.3159 145.107 79.1516 143.874C79.172 141.992 78.5273 139.606 77.1665 138.317C74.4824 135.774 69.3618 134.884 67.3869 138.125C64.7791 139.52 62.7278 142.537 63.5066 145.287C60.9785 147.761 61.9389 152.236 65.6223 154.348C65.5647 157.123 67.1171 159.881 69.6842 161.066C70.3001 161.352 71.2655 161.748 71.3809 161.868C71.2112 161.725 73.2811 167.159 79.6946 164.667C86.2335 162.136 88.105 155.002 83.8429 151.697Z" fill="#5E2E0D"/>
<path d="M70.9991 222.504C71.7948 218.335 69.0327 208 67.3479 203.456C65.5952 198.73 64.4805 178.728 64.4805 178.728L66.4673 176.533L74.5757 176.074C74.5757 176.074 71.1263 186.092 71.1263 189.533C71.1263 192.974 72.8044 201.862 74.7759 206.485C76.5947 210.75 75.8397 219.693 75.2849 222.634C73.86 222.84 72.4072 222.796 70.9991 222.504V222.504Z" fill="#96A65F"/>
<path d="M76.6253 177.005C76.9968 177.354 79.1703 179.793 79.1703 181.494C79.1703 183.196 75.0626 198.542 76.0484 199.472C77.0342 200.402 80.6803 202.73 83.0048 205.974C84.9661 208.7 89.4623 216.608 90.3191 218.48C88.6224 219.593 87.1548 220.101 85.4582 220.639C85.185 219.24 71.9051 205.406 70.39 202.52C68.8749 199.634 68.0503 186.402 67.2834 184.645C66.5165 182.888 64.4805 178.438 64.4805 178.438L76.6253 177.005Z" fill="#9ED16F"/>
<path d="M64.7934 165.697C64.7934 165.697 59.7882 171.097 54.2469 173.129C53.6626 173.362 53.1196 173.678 52.6367 174.067C52.6367 174.618 53.6751 174.227 53.6751 174.227C53.4625 174.59 53.4019 175.015 53.5054 175.418C53.687 176.073 54.895 175.638 55.5533 175.638C55.8536 175.638 57.3993 174.004 59.4845 173.044C61.9532 171.907 64.8647 170.799 65.221 170.459C65.8844 169.831 64.9868 165.5 64.7934 165.697Z" fill="#EFAC7F"/>
<path d="M74.9771 150.501C74.9771 150.501 69.9397 150.02 67.3098 151.603C64.68 153.185 63.002 158.836 63.002 161.246C63.002 163.656 64.8971 176.332 64.1693 178.742C64.1693 178.742 72.4948 178.399 75.3419 178.399C78.1889 178.399 78.7742 177.365 78.7742 177.365C78.7742 177.365 72.8596 171.854 72.8596 169.444C72.8596 167.034 74.9771 150.501 74.9771 150.501Z" fill="#45258F"/>
<path d="M6.18164 215.441V223.698H7.13348V216.191H13.3959V218.768C10.9747 219.013 9.08296 221.126 9.08296 223.698C9.08296 226.434 11.2259 228.653 13.8693 228.653C16.5127 228.653 18.6556 226.434 18.6556 223.698C18.6556 221.133 16.7638 219.013 14.3426 218.768V216.191H15.6423V215.211H14.3426V212.239H15.6423V211.261H14.3426V207.953H31.4791V206.484H22.0116V198.076C22.0116 195.831 24.1969 193.318 27.1203 193.318H35.2643V191.85H27.1203C23.6438 191.85 20.5932 194.76 20.5932 198.076V206.484H14.3376V201.768H13.3908V211.261H10.2197C7.99369 211.261 6.18164 213.135 6.18164 215.441ZM13.3908 215.211H7.13348C7.24715 213.553 8.58752 212.239 10.218 212.239H13.3891L13.3908 215.211Z" fill="#45258F"/>
<path d="M9.89169 216.737C9.89169 216.737 10.0817 219.921 10.0834 219.929C10.153 220.332 10.4227 221.331 10.4227 221.693C10.4227 223.074 3.92279 220.521 5.37853 219.909C5.51087 219.854 6.2608 219.089 6.44914 218.652C6.78847 217.874 6.93269 216.351 6.93269 216.351L9.89169 216.737Z" fill="#F48C7F"/>
<path d="M5.40314 219.902C6.1624 220.114 6.93254 220.29 7.71061 220.429C8.49278 220.535 9.52266 219.647 10.0758 219.886C10.6849 220.15 10.7188 222.578 10.7188 222.578C10.7188 222.578 2.54933 222.836 0.175683 222.506C-0.772758 222.371 2.28295 220.885 5.40314 219.902Z" fill="#466EB6"/>
<path d="M42.4336 209.936H44.2304V177.606C44.2304 176.516 45.3604 175.629 46.7482 175.629H62.9023C63.0026 175.631 63.1023 175.615 63.1958 175.58C63.2893 175.546 63.3747 175.495 63.4472 175.429C63.5197 175.363 63.5778 175.285 63.6182 175.198C63.6586 175.112 63.6805 175.018 63.6827 174.923C63.6805 174.829 63.6586 174.735 63.6182 174.649C63.5778 174.562 63.5197 174.483 63.4472 174.418C63.3747 174.352 63.2893 174.301 63.1958 174.267C63.1023 174.232 63.0026 174.216 62.9023 174.218H46.7482C44.3729 174.218 42.4336 175.738 42.4336 177.606V209.936Z" fill="#45258F"/>
<path d="M34.0147 203.155C40.0005 203.155 44.8513 207.781 44.8513 213.486C44.8513 219.191 40.0005 223.815 34.0147 223.815C28.0288 223.815 23.1797 219.189 23.1797 213.483C23.1797 207.776 28.0305 203.155 34.0147 203.155Z" fill="#45258F"/>
<path d="M20.8203 213.486C20.8203 220.435 26.7264 226.068 34.0137 226.068C41.3009 226.068 47.2087 220.435 47.2087 213.486C47.2087 206.536 41.3009 200.905 34.0137 200.905C26.7264 200.905 20.8203 206.538 20.8203 213.486ZM22.0691 213.486C22.0691 207.197 27.417 202.101 34.0137 202.101C40.6103 202.101 45.9582 207.202 45.9582 213.486C45.9582 219.769 40.612 224.87 34.0137 224.87C27.4153 224.87 22.0623 219.776 22.0623 213.486H22.0691Z" fill="#45258F"/>
<path d="M42.6803 199.15H47.9824V179.739H42.6803V199.15Z" fill="#7772D6"/>
<path d="M25.2846 211.261H20.8002C19.6329 211.268 18.516 211.711 17.6943 212.495C16.8725 213.278 16.4129 214.338 16.416 215.441V223.698H17.4425V215.441C17.4385 214.595 17.7898 213.782 18.4193 213.181C19.0489 212.58 19.9052 212.239 20.8002 212.234H25.2846V211.261Z" fill="#7772D6"/>
<path d="M9.49006 202.661H23.4316V200.4H9.49006V202.661Z" fill="#45258F"/>
<path d="M25.2114 215.213H16.9316V216.191H25.2114V215.213Z" fill="#7772D6"/>
<path d="M43.8723 206.486H24.7559V207.955H43.8723V206.486Z" fill="#7772D6"/>
<path d="M23.0903 202.661H47.9805V200.367H23.0903V202.661Z" fill="#45258F"/>
<path d="M47.2085 211.665H48.7491V179.335C48.7589 178.803 48.9912 178.296 49.3953 177.926C49.7994 177.555 50.3424 177.35 50.9055 177.357H65.424V175.947H50.9055C48.8695 175.947 47.2051 177.467 47.2051 179.335L47.2085 211.665Z" fill="#7772D6"/>
<path d="M18.9805 223.7C18.9805 226.435 21.5679 228.654 24.7492 228.654C27.9304 228.654 30.5263 226.435 30.5263 223.7C30.5263 220.964 27.9406 218.745 24.7492 218.745C21.5577 218.745 18.9805 220.963 18.9805 223.7Z" fill="#45258F"/>
<path d="M21.2402 223.699C21.2402 225.365 22.8148 226.715 24.7574 226.715C26.7001 226.715 28.2763 225.365 28.2763 223.699C28.2763 222.033 26.7001 220.682 24.7574 220.682C22.8148 220.682 21.2402 222.033 21.2402 223.699Z" fill="#7772D6"/>
<path d="M10.6667 191.85C12.3379 190.273 35.6214 191.034 35.6214 191.034C35.6214 191.034 15.8959 195.583 14.7523 196.176C13.6088 196.77 9.31447 216.79 9.30938 217.051C8.12171 216.784 7.39893 216.986 6.1875 216.751C6.37413 213.272 7.97919 194.395 10.6667 191.85Z" fill="#3B77BE"/>
<path d="M12.9386 216.836C12.9386 216.836 13.1286 220.02 13.1303 220.027C13.1999 220.431 13.4696 221.43 13.4696 221.79C13.4696 223.171 6.96966 220.618 8.42541 220.007C8.55775 219.951 9.45359 219.22 9.49601 218.75C9.56388 218.026 9.52825 216.874 9.52825 216.874L12.9386 216.836Z" fill="#F7A491"/>
<path d="M7.33005 222.99C8.08921 223.204 8.85937 223.38 9.63753 223.52C10.418 223.625 11.4496 222.735 12.0027 222.976C12.6101 223.241 12.6457 225.668 12.6457 225.668C12.6457 225.668 4.47624 225.925 2.1009 225.596C1.15415 225.464 4.20986 223.975 7.33005 222.99Z" fill="#466EB6"/>
<path d="M39.2548 195.551C39.2548 195.551 39.0529 200.548 37.2934 200.607C35.534 200.666 24.246 200.905 17.8869 200.365L13.6095 218.235L8.58398 217.778C8.58398 217.778 10.0974 205.844 10.6353 201.304C11.1646 196.839 12.6916 193.092 15.3622 193C18.0328 192.909 35.5984 190.342 35.5984 190.342L39.2548 195.551Z" fill="#3797DB"/>
<path d="M43.9904 172.234C43.9904 172.234 46.8408 172.917 46.4539 178.178C46.0671 183.439 42.9876 199.357 37.2919 200.607C31.5962 201.856 27.8906 190.526 27.8906 190.526C27.8906 190.526 31.4825 189.403 32.9806 184.143C34.0156 180.495 36.7948 172.261 37.4904 171.864C39.2176 170.881 43.9904 172.234 43.9904 172.234Z" fill="#9ED16F"/>
<path d="M32.0566 207.62H33.6006V198.082C33.6006 195.837 35.976 193.324 39.147 193.324H47.985V191.855H39.142C35.3669 191.855 32.0566 194.766 32.0566 198.082V207.62Z" fill="#7772D6"/>
<path d="M47.9803 226.716C54.8535 226.716 60.4254 221.403 60.4254 214.849C60.4254 208.295 54.8535 202.982 47.9803 202.982C41.107 202.982 35.5352 208.295 35.5352 214.849C35.5352 221.403 41.107 226.716 47.9803 226.716Z" fill="#7772D6"/>
<path d="M32.8242 214.85C32.8242 222.831 39.6109 229.299 47.9789 229.299C56.3469 229.299 63.1336 222.831 63.1336 214.85C63.1336 206.87 56.3469 200.4 47.9789 200.4C39.6109 200.4 32.8242 206.869 32.8242 214.85ZM34.2613 214.85C34.2613 207.625 40.4033 201.77 47.9789 201.77C55.5546 201.77 61.6965 207.625 61.6965 214.85C61.6965 222.075 55.5546 227.929 47.9789 227.929C40.4033 227.929 34.2613 222.074 34.2613 214.85V214.85Z" fill="#7772D6"/>
<path d="M37.7168 214.852C37.7168 220.257 42.3114 224.633 47.98 224.633C53.6486 224.633 58.2432 220.252 58.2432 214.852C58.2432 209.452 53.6486 205.071 47.98 205.071C42.3114 205.071 37.7168 209.447 37.7168 214.852Z" fill="#45258F"/>
<path d="M45.67 214.851C45.6743 215.281 45.8134 215.701 46.0698 216.057C46.3262 216.413 46.6883 216.69 47.1106 216.852C47.5329 217.014 47.9965 217.054 48.443 216.967C48.8895 216.881 49.2989 216.671 49.6196 216.365C49.9403 216.059 50.1581 215.671 50.2454 215.248C50.3327 214.825 50.2857 214.387 50.1103 213.99C49.9349 213.592 49.639 213.253 49.2597 213.014C48.8805 212.775 48.4349 212.647 47.9791 212.647C47.6744 212.649 47.3729 212.707 47.0919 212.818C46.8109 212.93 46.5559 213.092 46.3415 213.297C46.127 213.501 45.9573 213.744 45.8421 214.011C45.7269 214.277 45.6684 214.563 45.67 214.851V214.851Z" fill="#7772D6"/>
<path d="M2.20061 225.206H17.8711V222.641H2.20061V225.206Z" fill="#45258F"/>
<path d="M8.97543 225.206H17.8711V222.641H8.97543V225.206Z" fill="#7772D6"/>
<path d="M25.2706 202.634H24.2441V225.205H25.2706V202.634Z" fill="#7772D6"/>
<path d="M24.1484 223.987C24.1491 224.105 24.1869 224.221 24.2571 224.319C24.3274 224.417 24.4268 224.494 24.5429 224.539C24.659 224.583 24.7866 224.595 24.9095 224.571C25.0324 224.547 25.1451 224.49 25.2335 224.406C25.3218 224.322 25.3818 224.215 25.4058 224.098C25.4298 223.982 25.4168 223.861 25.3684 223.752C25.32 223.643 25.2384 223.549 25.1339 223.484C25.0294 223.418 24.9067 223.383 24.7813 223.384C24.6128 223.385 24.4516 223.449 24.333 223.562C24.2144 223.675 24.148 223.827 24.1484 223.987Z" fill="#45258F"/>
<path d="M42.2692 158.149C42.2692 158.149 44.2645 156.866 45.1095 159.111C45.3765 159.094 45.6445 159.101 45.9103 159.13C46.3209 159.262 46.7179 159.666 47.0844 159.887C48.3874 160.676 48.9881 162.209 49.0593 163.617C49.1458 165.324 48.3993 166.573 47.2099 167.808C46.8738 168.186 46.4722 168.508 46.0223 168.759C45.4692 169.038 45.0314 168.817 44.5122 168.935C44.0728 169.035 43.9201 169.472 43.4026 169.314C42.6798 169.094 41.9197 168.236 41.0273 168.364C40.1348 168.493 38.0598 167.723 38.0547 167.723C35.396 166.743 37.1911 161.879 37.7018 160.152C38.1819 158.529 40.6235 157.562 42.2692 158.149Z" fill="#282828"/>
<path d="M39.8632 169.2L39.1726 170.98L38.8011 171.975C38.8011 171.975 38.7756 173.758 39.215 174.22C39.9718 175.022 43.0835 172.07 43.0835 172.07L44.0692 166.458L39.8632 169.2Z" fill="#EFAC7F"/>
<path d="M43.749 168.285C42.5613 170.019 40.5253 170.811 39.168 171L39.8653 169.203L44.0714 166.469L43.749 168.285Z" fill="#D19369"/>
<path d="M43.2616 160.712C42.8893 160.5 42.4724 160.367 42.0401 160.324C41.6078 160.28 41.1706 160.326 40.7593 160.459C40.3479 160.592 39.9723 160.808 39.6589 161.093C39.3455 161.378 39.1019 161.724 38.9452 162.107C38.6045 162.953 38.3211 163.818 38.0969 164.697C37.4895 167.088 38.2666 169.7 39.4135 169.94C40.5605 170.181 44.1184 169.299 45.0312 165.908C45.5894 163.818 44.9243 161.673 43.2616 160.712Z" fill="#EFAC7F"/>
<path d="M44.1198 166C43.9959 166.53 44.2674 167.037 44.7255 167.132C45.1836 167.226 45.657 166.877 45.7808 166.346C45.9047 165.815 45.6332 165.31 45.1751 165.214C44.717 165.118 44.2369 165.471 44.1198 166Z" fill="#EFAC7F"/>
<path d="M40.5567 166.993C40.5567 166.993 42.0838 167.463 42.2025 167.99C42.3213 168.518 42.1397 169.281 41.3949 169.866C40.6501 170.451 39.0569 170.092 38.6225 169.768C38.1882 169.445 37.8573 168.078 38.2917 167.315C38.726 166.552 40.5567 166.993 40.5567 166.993Z" fill="#282828"/>
<path d="M41.0489 168.096C41.0489 168.096 41.0387 168.685 40.8317 168.791C40.6167 168.902 40.3812 168.973 40.1378 169.001C39.9593 169.02 39.7787 168.993 39.6152 168.923C39.4517 168.852 39.3116 168.741 39.2097 168.602C39.1894 168.575 39.1712 168.546 39.1554 168.517C39.0484 168.257 38.9854 167.983 38.9688 167.705C39.3014 167.627 39.6447 167.598 39.9868 167.617C40.3549 167.676 41.0489 168.096 41.0489 168.096Z" fill="#EFAC7F"/>
<path d="M57.4889 174.955C58.0912 174.386 60.8822 173.512 63.0014 172.069C63.9379 171.428 65.7381 170.588 67.4908 169.664C68.7497 170.299 69.8701 171.153 70.7925 172.181C67.6214 173.559 64.1755 174.944 63.6664 175.436C62.679 176.366 60.9636 178.467 60.5615 178.467C60.1594 178.467 57.1122 177.623 56.6592 177.194C56.2062 176.764 56.8865 175.523 57.4889 174.955Z" fill="#EFAC7F"/>
<path d="M67.4902 169.664C69.6959 168.51 71.832 167.237 72.056 166.103C72.4564 164.072 70.6308 155.288 71.6539 153.596C72.677 151.905 74.976 150.497 74.976 150.497C75.3407 150.497 76.6557 151.254 77.012 152.769C77.3683 154.284 76.7201 167.925 76.3554 169.164C76.1857 169.746 73.6848 172.065 70.8785 173.283C70.0234 172.281 68.7695 170.335 67.4902 169.664Z" fill="#7772D6"/>
<path d="M44.7304 188.059L35.9195 190.24C35.9195 190.24 33.3304 192.004 32.1648 192.356C30.9992 192.709 29.5774 193.918 29.8556 194.29C30.1339 194.662 31.5981 193.399 31.8373 193.437C32.0766 193.475 30.9771 194.971 30.799 195.953C30.6208 196.934 30.2628 197.886 30.8584 197.81C31.4539 197.733 31.8865 195.523 31.8865 195.523C31.8865 195.523 32.8011 193.852 32.9487 194.05C33.0963 194.247 32.3379 195.393 32.3379 195.393C32.3379 195.393 32.158 196.634 32.0783 197.07C32.0189 197.391 32.3362 198.372 32.6059 198.013C32.7654 197.801 32.6908 196.995 32.874 196.536C33.1248 195.933 33.4597 195.364 33.87 194.845C33.87 194.845 33.2083 197.67 33.6239 197.731C34.0396 197.792 34.4723 195.457 34.4723 195.457C34.4723 195.457 35.4903 193.508 35.9331 193.333C36.3759 193.158 37.5959 192.417 38.5392 192.108C39.4826 191.798 43.3815 192.818 45.1223 192.839C46.8631 192.86 49.6847 191.843 49.9188 190.554C49.9901 190.16 49.7305 189.725 49.3351 189.31C48.762 188.723 48.0297 188.297 47.2178 188.076C46.4059 187.856 45.5455 187.85 44.7304 188.059V188.059Z" fill="#EFAC7F"/>
<path d="M43.9883 172.234C43.9883 172.234 46.6538 171.785 49.0664 175.887C51.4791 179.988 49.9148 190.56 49.9148 190.56L44.7297 188.058L43.9883 172.234Z" fill="#96A65F"/>
<path d="M55.8565 175.775C55.5444 175.775 53.9037 175.871 53.6509 175.629C53.3981 175.387 54.4992 174.763 54.6112 174.867C54.7232 174.971 55.1914 174.741 55.3475 174.89C55.5036 175.039 55.9736 174.869 56.1077 174.994C56.2417 175.119 56.1653 175.775 55.8565 175.775Z" fill="#EFAC7F"/>
<path d="M72.3605 146.25C72.3605 146.25 71.8006 149.165 71.9126 150.315C72.0246 151.465 71.4851 155.17 69.0605 155.188C66.636 155.205 68.2851 151.34 68.5125 150.217C68.7398 149.095 69.1114 144.738 69.1114 144.738L72.3605 146.25Z" fill="#EFAC7F"/>
<path d="M68.9629 146.38C68.9854 145.805 69.0592 145.232 69.1835 144.668L72.3613 146.251C72.3613 146.251 72.2477 146.847 72.1323 147.605C71.5348 147.737 70.9087 147.69 70.3407 147.471C69.7728 147.251 69.2913 146.87 68.9629 146.38V146.38Z" fill="#D19369"/>
<path d="M72.4294 137.785C73.3437 138.149 74.0907 138.81 74.5366 139.648C75.2798 141.051 75.5258 144.977 72.5312 146.486C69.5365 147.995 67.5599 145.204 67.7465 142.718C67.9332 140.233 68.7628 136.959 72.4294 137.785Z" fill="#EFAC7F"/>
<path d="M66.8562 142.022C66.7781 142.664 67.0259 143.22 67.3974 143.254C67.769 143.288 68.144 142.792 68.222 142.144C68.3001 141.497 68.0523 140.948 67.6825 140.913C67.3126 140.878 66.9376 141.376 66.8562 142.022Z" fill="#EFAC7F"/>
<path d="M74.2744 143.112C74.0115 143.738 74.1421 144.395 74.5663 144.578C74.9904 144.761 75.5503 144.405 75.8133 143.776C76.0763 143.148 75.9457 142.493 75.5198 142.309C75.0939 142.125 74.5374 142.485 74.2744 143.112Z" fill="#EFAC7F"/>
<path d="M202.201 36.3975L208.048 43.9784L211.918 39.9779L202.201 36.3975Z" fill="#45258F"/>
<path d="M212.441 37.8838L211.918 39.9779L202.201 36.3975L212.441 37.8838Z" fill="#7772D6"/>
<path d="M211.918 40.778L202.201 36.3975L211.233 43.9784L211.918 40.778Z" fill="#7772D6"/>
<path d="M217.82 49.8621C217.747 49.8621 216.04 49.6906 213.875 48.419C211.71 47.1475 210.891 44.9092 210.891 44.5516C210.891 44.4861 210.918 44.4233 210.967 44.377C211.016 44.3307 211.083 44.3047 211.152 44.3047C211.221 44.3047 211.288 44.3307 211.337 44.377C211.386 44.4233 211.413 44.4861 211.413 44.5516C211.437 44.7905 212.133 46.814 214.153 48.0022C216.205 49.2095 217.852 49.3747 217.869 49.3763C217.903 49.3793 217.936 49.3887 217.967 49.4039C217.997 49.4191 218.024 49.4398 218.046 49.4648C218.068 49.4898 218.084 49.5187 218.094 49.5497C218.105 49.5807 218.108 49.6133 218.105 49.6457C218.102 49.678 218.092 49.7094 218.076 49.7381C218.06 49.7668 218.038 49.7922 218.011 49.8129C217.985 49.8336 217.954 49.8491 217.921 49.8587C217.889 49.8682 217.854 49.8716 217.82 49.8685V49.8621Z" fill="#62BDF3"/>
<path d="M228.441 52.1062C225.403 51.5287 222.491 50.4665 219.831 48.9651C217.625 47.7209 215.835 45.8256 213.58 44.7722C213.549 44.7579 213.522 44.738 213.499 44.7136C213.476 44.6892 213.459 44.6608 213.448 44.6301C213.437 44.5993 213.432 44.5668 213.434 44.5344C213.436 44.502 213.445 44.4703 213.46 44.4411C213.476 44.4119 213.497 44.3859 213.522 44.3644C213.548 44.343 213.578 44.3265 213.611 44.316C213.643 44.3055 213.678 44.3012 213.712 44.3032C213.746 44.3053 213.78 44.3137 213.811 44.3281C216.147 45.4184 217.917 47.312 220.099 48.5402C222.708 50.0129 225.565 51.0546 228.545 51.6204C229.812 51.8379 231.103 51.9138 232.389 51.8465C232.424 51.8451 232.458 51.8501 232.49 51.8613C232.522 51.8724 232.552 51.8895 232.577 51.9114C232.603 51.9334 232.623 51.9598 232.638 51.9893C232.652 52.0187 232.66 52.0505 232.662 52.083C232.663 52.1154 232.658 52.1478 232.646 52.1783C232.634 52.2087 232.616 52.2367 232.593 52.2606C232.57 52.2845 232.542 52.3039 232.511 52.3175C232.479 52.3312 232.446 52.339 232.411 52.3403C231.083 52.4092 229.75 52.3307 228.441 52.1062V52.1062Z" fill="#62BDF3"/>
<path d="M119.493 133.519C119.493 133.519 113.063 122.674 111.498 120.371C109.934 118.069 105.86 108.904 105.709 108.543C105.558 108.182 108.516 103.847 107.856 103.697C107.196 103.548 106.468 105.984 105.765 105.692C105.063 105.4 103.013 99.5494 102.613 99.8332C101.863 100.377 103.721 103.468 103.32 103.662C102.92 103.856 101.71 100.261 100.926 100.367C100.142 100.473 102.418 103.664 102.199 103.944C101.98 104.225 99.6148 101.219 99.1872 101.86C98.9548 102.208 101.361 104.485 100.899 104.696C100.438 104.908 98.2965 103.441 98.0708 103.864C97.8452 104.288 100.049 104.868 100.709 106.01C101.369 107.151 102.492 107.647 102.959 109.76C103.426 111.873 104.123 119.528 106.512 123.346C108.901 127.163 114.157 135.613 114.157 135.613L119.493 133.519Z" fill="#EFAC7F"/>
<path d="M147.988 185.853C147.988 185.853 147.465 185.236 147.309 185.018C147.126 184.763 146.63 183.958 146.63 183.958C146.63 183.958 145.064 181.072 145.3 180.984C145.536 180.896 146.094 181.245 146.257 181.391C146.42 181.537 146.625 181.693 146.788 181.838C146.874 181.912 146.987 181.951 147.103 181.945C147.219 181.94 147.328 181.892 147.406 181.811C147.611 181.633 147.097 180.918 146.866 180.706C146.15 180.041 143.856 178.622 143.62 178.462C143.34 178.272 141.598 172.803 140.845 170.974C139.705 167.945 138.692 164.778 138.573 164.457L137.855 150.705L132.426 148.994C132.426 148.994 132.996 164.265 133.116 165.028C133.174 165.391 136.394 172.216 136.396 172.216C138.206 175.483 139.81 178.357 140.1 178.917C140.1 178.917 140.495 180.815 140.672 182.037C140.848 183.259 141.528 184.317 141.634 184.654C141.886 185.528 142.294 186.354 142.842 187.098C143.614 188.148 143.391 186.809 143.391 186.809C143.391 186.809 142.329 184.614 142.526 184.564C142.679 184.524 143.184 185.756 144.026 186.926C144.243 187.228 144.459 187.524 144.657 187.794C145.183 188.504 145.796 188.395 145.371 187.567C145.183 187.191 144.967 186.827 144.725 186.479C144.467 186.137 144.35 185.743 144.18 185.424C143.841 184.79 143.593 184.333 143.629 184.333C143.665 184.333 143.702 184.163 143.943 184.476C144.231 184.851 144.659 185.781 145.13 186.301C145.397 186.597 145.914 187.247 145.914 187.247C145.914 187.247 146.876 188.209 146.948 188.174C147.336 187.965 146.858 187.085 146.439 186.73C146.296 186.373 145.731 185.703 145.731 185.703C145.731 185.703 144.91 184.099 145.147 183.987C145.344 183.891 148.091 187.354 148.464 187.119C148.765 186.936 147.988 185.853 147.988 185.853Z" fill="#EFAC7F"/>
<path d="M138.265 132.282C138.397 129.282 137.925 126.321 136.509 123.528C135.287 121.123 132.267 119.763 129.507 119.76C120.753 119.749 119.64 130.679 114.067 134.896C112.37 136.179 110.461 137.232 108.85 138.622C102.901 143.753 105.58 153.249 111.043 157.746C114.834 160.868 120.792 162.641 125.465 160.201C127.903 158.928 129.756 156.811 131.074 154.491C132.941 151.2 134.154 147.401 135.486 143.891C136.902 140.157 138.09 136.269 138.265 132.282Z" fill="#282828"/>
<path d="M110.903 228.85C110.903 228.85 110.285 232.884 109.225 234.186C108.868 234.624 108.217 235.177 107.791 235.966C107.126 237.195 107.492 239.025 107.983 240.033C108.236 240.551 107.966 240.55 108.539 240.716C109.364 240.945 110.248 240.881 111.026 240.537C111.805 240.192 112.422 239.591 112.764 238.845C113.266 237.759 113.547 236.592 113.594 235.408C113.773 231.744 114.981 229.882 114.981 229.882L110.903 228.85Z" fill="#EFAC7F"/>
<path d="M129.462 230.695C129.462 230.695 129.844 235.244 129.535 236.723C129.365 237.515 128.447 239.145 128.87 239.889C129.292 240.633 129.776 240.821 129.776 240.821L140.733 240.981C141.33 240.991 140.937 240.628 140.455 240.295C139.667 239.748 139.031 239.387 136.515 238.239C136.345 238.164 135.753 237.806 135.538 237.681C134.954 237.317 134.426 236.878 133.97 236.376C133.183 235.55 133.122 231.544 133.122 231.544L129.462 230.695Z" fill="#EFAC7F"/>
<path d="M138.029 170.22C138.029 170.22 139.409 177.606 138.503 182.45C137.597 187.294 133.243 232.182 133.243 232.182L128.411 232.438C128.411 232.438 127.393 213.678 127.579 211.079C127.766 208.48 129.195 204.108 129.195 204.108L128.715 188.968L134.812 169.086L138.029 170.22Z" fill="#2D185D"/>
<path d="M123.826 168.667C123.826 168.667 120.021 174.068 119.116 178.538C118.212 183.008 119.78 196.746 118.037 202.605C117.094 205.775 113.519 210.672 112.974 214.77C112.43 218.869 110.299 229.602 110.299 229.602L115.129 230.505L126.354 203.699L135.16 179.47L137.417 166.99L123.826 168.667Z" fill="#45258F"/>
<path d="M126.905 137.933C126.905 137.933 121.867 137.631 119.875 139.68C117.884 141.729 124.287 157.937 124.658 160.544C125.03 163.151 122.811 170.084 122.811 170.084C122.811 170.084 134.645 172.329 138.028 170.219C138.028 170.219 138.391 151.469 138.028 149.605C137.665 147.742 134.645 140.168 133.92 139.424C133.196 138.68 126.905 137.933 126.905 137.933Z" fill="#9ED16F"/>
<path d="M128.584 131.584C128.584 131.584 128.558 131.724 128.511 131.961C128.287 133.104 127.421 136.893 126.838 137.935C126.13 139.194 129.254 143.211 132.267 142.72C133.163 142.574 131.512 139.032 131.588 138.655C131.741 137.937 131.946 136.956 132.158 135.952C132.277 135.384 132.398 134.809 132.51 134.268C132.832 132.734 133.095 131.479 133.095 131.479L128.584 131.584Z" fill="#EFAC7F"/>
<path d="M128.511 131.961C128.558 131.724 128.584 131.584 128.584 131.584L133.09 131.479C133.09 131.479 132.827 132.734 132.505 134.268C132.393 134.807 132.272 135.378 132.155 135.942C131.46 135.845 130.732 135.526 130.004 134.924C129.259 134.31 128.698 133.522 128.375 132.639C128.429 132.37 128.477 132.139 128.511 131.961Z" fill="#D19369"/>
<path d="M131.617 121.925C131.617 121.925 129.494 121.695 128.162 123.317C126.83 124.94 125.397 129.963 128.703 132.692C132.01 135.421 135.278 132.332 135.762 129.056C136.245 125.78 136.435 121.807 131.617 121.925Z" fill="#EFAC7F"/>
<path d="M136.739 129.008C136.344 129.731 135.68 130.13 135.258 129.903C134.835 129.675 134.813 128.901 135.208 128.177C135.604 127.454 136.265 127.055 136.688 127.283C137.11 127.51 137.132 128.285 136.739 129.008Z" fill="#EFAC7F"/>
<path d="M131.853 121.389C131.853 121.389 129.016 126.167 126.987 126.385C124.958 126.603 124.691 129.143 124.691 129.143C124.691 129.143 125.416 123.297 127.426 122.168C129.437 121.039 131.853 121.389 131.853 121.389Z" fill="#282828"/>
<path d="M113.094 238.04C110.461 238.493 108.71 237.041 107.799 235.955C107.13 237.187 106.803 239.024 107.29 240.036C107.724 240.927 108.986 240.902 109.987 240.937C111.043 240.974 111.854 240.421 112.381 239.555C112.673 239.074 112.911 238.566 113.094 238.04V238.04Z" fill="#45258F"/>
<path d="M135.537 237.688C132.639 238.388 130.497 237.912 129.298 237.455C128.989 238.282 128.58 239.318 128.797 239.916C129.064 240.647 129.442 240.813 129.776 240.821C132.423 240.886 139.473 240.981 141.483 241C141.546 241.001 141.608 240.985 141.662 240.953C141.716 240.922 141.758 240.876 141.785 240.822C141.812 240.768 141.822 240.708 141.814 240.649C141.806 240.59 141.78 240.534 141.74 240.489C141.246 239.926 135.752 237.811 135.537 237.688Z" fill="#45258F"/>
<path d="M127.521 127.585C127.691 128.433 127.351 129.211 126.779 129.321C126.208 129.432 125.605 128.84 125.439 127.987C125.273 127.134 125.609 126.363 126.181 126.251C126.752 126.139 127.355 126.737 127.521 127.585Z" fill="#EFAC7F"/>
<path d="M117.714 130.006C117.714 130.006 124.826 137.221 125.883 140.125C126.94 143.029 124.852 147.191 121.969 147.372C119.086 147.554 112.666 134.571 112.666 134.571L117.714 130.006Z" fill="#9ED16F"/>
<path d="M125.789 38.8204L117.755 40.4736C117.298 40.5678 116.825 40.5759 116.363 40.4972C115.902 40.4185 115.462 40.2547 115.068 40.0151C114.674 39.7754 114.334 39.4647 114.067 39.1007C113.801 38.7367 113.612 38.3265 113.514 37.8937L112.765 34.6467C112.666 34.2142 112.657 33.7674 112.74 33.3317C112.823 32.896 112.997 32.4801 113.25 32.1078C113.503 31.7355 113.832 31.4141 114.217 31.1619C114.602 30.9097 115.036 30.7318 115.494 30.6382L123.524 28.9787C123.982 28.8844 124.455 28.8763 124.916 28.9548C125.377 29.0334 125.817 29.1971 126.211 29.4366C126.605 29.6761 126.945 29.9866 127.212 30.3504C127.478 30.7143 127.667 31.1243 127.766 31.557L128.514 34.8055C128.615 35.2382 128.624 35.6855 128.542 36.1218C128.459 36.558 128.287 36.9745 128.033 37.3475C127.78 37.7205 127.452 38.0426 127.067 38.2954C126.681 38.5481 126.247 38.7266 125.789 38.8204V38.8204Z" fill="#7772D6"/>
<path d="M113.587 36.126L110.146 41.382L115.425 39.235L113.587 36.126Z" fill="#7772D6"/>
<path d="M117.47 34.66L118.809 34.3505C118.809 34.3505 120.219 32.7936 120.166 32.3607C120.113 31.9278 119.625 31.0908 119.861 30.9176C120.044 30.7777 120.278 30.7108 120.513 30.7311C120.747 30.7515 120.964 30.8575 121.118 31.0267C121.471 31.3794 121.612 32.9075 121.796 32.9732C121.91 33.0133 122.686 32.8562 123.249 32.7327C123.431 32.6922 123.621 32.7 123.799 32.7552C123.977 32.8103 124.135 32.9107 124.257 33.0454V33.0454C124.336 33.1343 124.382 33.2462 124.386 33.3627C124.389 33.4792 124.351 33.5934 124.277 33.6867L124.033 33.9994L124.34 34.2447C124.394 34.2882 124.439 34.3414 124.472 34.4013C124.505 34.4611 124.525 34.5265 124.531 34.5937C124.537 34.6608 124.528 34.7284 124.507 34.7926C124.485 34.8568 124.45 34.9164 124.404 34.9678L124.202 35.1891L124.406 35.3302C124.468 35.3726 124.52 35.4268 124.558 35.4894C124.596 35.552 124.62 35.6215 124.628 35.6934C124.636 35.7653 124.628 35.838 124.604 35.9067C124.58 35.9753 124.541 36.0384 124.489 36.0918L124.311 36.2762L124.357 36.3243C124.446 36.4214 124.494 36.5466 124.491 36.6754C124.488 36.8041 124.434 36.9271 124.34 37.0202L124.16 37.1982L120.597 38.0208C120.264 38.0977 119.917 38.1097 119.579 38.056L118.274 38.149C118.206 38.1545 118.139 38.1365 118.084 38.0985C118.029 38.0605 117.99 38.0049 117.976 37.9422L117.261 34.9807C117.244 34.912 117.257 34.8399 117.296 34.7798C117.335 34.7198 117.397 34.6767 117.47 34.66V34.66Z" fill="white"/>
<path d="M150.932 0.342125C158.127 1.60882 163.292 6.01981 162.469 10.1967C162.058 12.2811 160.228 13.9198 157.599 14.8739L159.306 21.5457L154.104 15.6772C152.055 15.9042 149.982 15.8334 147.956 15.4671C140.76 14.2004 135.595 9.78944 136.418 5.61255C137.241 1.43565 143.738 -0.924572 150.932 0.342125Z" fill="#62BDF3"/>
<path d="M154.235 9.51977C153.839 10.2974 153.208 10.9467 152.422 11.3856C151.636 11.8245 150.73 12.0334 149.819 11.9857C148.907 11.9381 148.031 11.6361 147.301 11.1179C146.571 10.5998 146.02 9.88869 145.718 9.07461C145.415 8.26054 145.375 7.38001 145.602 6.54434C145.829 5.70867 146.313 4.95539 146.993 4.37973C147.673 3.80407 148.519 3.43188 149.423 3.31021C150.326 3.18853 151.248 3.32285 152.071 3.69616C153.175 4.19737 154.023 5.09248 154.429 6.1846C154.835 7.27672 154.765 8.4764 154.235 9.51977V9.51977Z" fill="#3797DB"/>
<path d="M147.524 7.24414C147.381 7.52058 147.297 7.82101 147.278 8.12812C147.258 8.43524 147.303 8.74297 147.41 9.03361C147.517 9.32425 147.683 9.59206 147.9 9.8216C148.117 10.0512 148.38 10.2379 148.673 10.3711C148.967 10.5044 149.285 10.5814 149.61 10.5978C149.935 10.6143 150.261 10.5698 150.567 10.4669C150.874 10.3641 151.157 10.2049 151.398 9.9985C151.639 9.79212 151.835 9.54265 151.974 9.26444L147.524 7.24414Z" fill="#EFEFEF"/>
<path d="M229.187 100.665L225.463 99.124L224.617 101.553L223.385 101.17L224.676 97.4612L228.378 98.9925L229.323 96.1176L232.73 97.4596L234.13 94.6328L235.304 95.1523L233.378 99.0438L230.139 97.7675L229.187 100.665Z" fill="#9ED16F"/>
</svg>
