<svg width="600" height="365" viewBox="0 0 600 365" fill="none" xmlns="http://www.w3.org/2000/svg">
<path d="M468.06 319.022C459.249 312.514 454.706 306.489 453.89 305.346L484.94 288.053C484.94 288.053 484.897 287.99 484.806 287.872C484.832 287.904 487.417 291.262 492.59 294.878C499.197 299.499 507.058 302.519 515.396 303.64C526.254 305.165 537.458 301.974 544.948 299.036C549.866 297.121 554.554 294.775 558.942 292.036L586.474 296.726L581.298 317.73C570.528 325.01 553.44 332.2 537.592 334.974C511.297 339.561 486.186 332.39 468.06 319.022Z" fill="#92B5F9"/>
<path d="M512.991 91.2038L520.278 87.8776L527.52 91.2843C527.706 91.3685 527.914 91.4057 528.122 91.3918C528.33 91.3778 528.53 91.3134 528.699 91.2055C528.868 91.0976 529 90.9505 529.08 90.7805C529.16 90.6106 529.185 90.4244 529.152 90.2427L527.811 83.104L533.721 78.0831C533.879 77.9557 533.992 77.7915 534.047 77.6096C534.103 77.4277 534.098 77.2356 534.035 77.0558C533.971 76.876 533.851 76.7158 533.688 76.594C533.525 76.4723 533.326 76.3939 533.114 76.3682L525.001 75.2863L521.411 68.7777C521.318 68.6114 521.174 68.4714 520.995 68.3735C520.817 68.2755 520.611 68.2236 520.401 68.2236C520.19 68.2236 519.984 68.2755 519.806 68.3735C519.627 68.4714 519.483 68.6114 519.391 68.7777L515.716 75.2489L507.583 76.2473C507.373 76.2712 507.176 76.3464 507.013 76.4642C506.849 76.582 506.727 76.7379 506.659 76.914C506.591 77.0902 506.58 77.2796 506.628 77.4608C506.676 77.642 506.781 77.8077 506.93 77.9392L512.775 83.0206L511.342 90.1478C511.302 90.3328 511.323 90.524 511.402 90.6991C511.48 90.8742 511.614 91.026 511.787 91.1367C511.959 91.2475 512.164 91.3126 512.378 91.3244C512.591 91.3363 512.803 91.2944 512.991 91.2038Z" fill="#DDE8FE"/>
<path d="M497.707 221.934H139.14V255.026H497.707V221.934Z" fill="#F47257"/>
<path d="M402.334 339.07C321.475 301.377 233.651 278.174 143.484 270.687C146.826 236.195 150.166 201.703 153.506 167.209C257.759 175.853 359.304 202.684 452.796 246.261L402.334 339.07Z" fill="#4951EC"/>
<path d="M151.434 251.757C153.718 230.246 155.995 208.734 158.264 187.221C167.729 188.084 176.214 182.687 177.259 174.958C264.172 184.583 348.879 206.96 428.195 241.249C424.667 248.316 428.805 257.043 437.333 260.945L406.355 319.102C404.534 318.25 402.532 317.741 400.476 317.607C398.421 317.473 396.356 317.716 394.412 318.322C392.469 318.927 390.689 319.882 389.185 321.125C387.681 322.368 386.487 323.873 385.677 325.544C316.028 295.435 241.64 275.783 165.317 267.332C166.358 259.61 160.154 252.546 151.434 251.757Z" fill="#7C9AF2"/>
<path d="M338.018 255.307C330.73 273.811 308.254 283.237 287.406 277.589C266.574 271.895 253.187 252.709 257.87 233.494C262.553 214.279 285.67 202.821 309.109 209.215C332.548 215.608 345.296 236.837 338.018 255.307Z" fill="#50BFA5"/>
<path d="M287.233 271.075C287.814 269.009 288.396 266.943 288.979 264.877C285.997 264.021 283.147 262.843 280.494 261.37C279.54 260.839 278.845 260.015 278.544 259.058C278.242 258.1 278.355 257.078 278.862 256.19L278.992 255.972C279.282 255.499 279.681 255.084 280.163 254.755C280.646 254.427 281.202 254.191 281.794 254.064C282.387 253.936 283.003 253.92 283.603 254.015C284.203 254.111 284.774 254.317 285.278 254.619C287.675 256.021 290.303 257.088 293.068 257.785C297.327 258.835 300.656 258.156 301.426 255.555C302.154 253.089 300.216 250.896 295.062 247.884C287.615 243.545 282.86 239.018 284.501 232.654C285.986 226.899 292.008 223.446 300.819 224.117L302.543 217.916C305.127 218.545 307.71 219.189 310.29 219.847L308.629 225.576C311.025 226.261 313.332 227.167 315.512 228.277C317.738 229.428 318.525 231.854 317.304 233.675C316.044 235.56 313.153 236.101 310.911 234.869C308.866 233.751 306.652 232.892 304.334 232.32C299.286 231.054 297.154 232.501 296.642 234.334C296.041 236.495 298.378 238.501 304.276 242.235C312.578 247.302 315.046 251.886 313.241 257.704C311.42 263.459 305.225 267.087 296.368 266.23L294.41 272.865C292.019 272.257 289.626 271.66 287.233 271.075Z" fill="#3C8F7C"/>
<path d="M245.524 232.778C224.915 228.585 204.125 225.172 183.153 222.538C183.638 219.223 184.123 215.907 184.608 212.591C205.855 215.253 226.935 218.712 247.851 222.967C247.078 226.239 246.303 229.51 245.524 232.778Z" fill="#50BFA5"/>
<path d="M406.221 283.085C387.033 274.816 367.54 267.293 347.74 260.518L351.5 251.101C371.576 257.97 391.346 265.599 410.81 273.987C409.276 277.018 407.746 280.051 406.221 283.085Z" fill="#50BFA5"/>
<path d="M440.117 220.665C356.689 236.03 277.262 266.826 205.978 311.425C186.721 282.128 167.466 252.832 148.212 223.536C230.619 171.969 322.47 136.353 418.93 118.597C425.988 152.618 433.05 186.641 440.117 220.665Z" fill="#4951EC"/>
<path d="M199.928 291.925L164.325 236.789C171.857 232.157 174.729 223.113 170.624 216.389C240.84 175.312 317.464 145.606 397.605 128.402C399.452 136.001 408.003 140.617 416.763 138.933C421.349 160.141 425.937 181.344 430.525 202.54C422.464 204.091 417.471 211.661 419.318 219.255C348.941 234.366 281.655 260.447 219.993 296.52C215.89 289.801 206.863 287.663 199.928 291.925Z" fill="#7C9AF2"/>
<path d="M339.908 190.137C346.184 208.935 335.528 229.03 316.583 236.227C297.618 243.38 275.65 235.634 267.011 217.731C258.373 199.828 268.212 177.762 289.53 169.699C310.848 161.637 333.638 171.371 339.908 190.137Z" fill="#4951EC"/>
<path d="M312.336 231.146L309.726 225.242C307.009 226.23 304.156 226.894 301.24 227.216C299.07 227.443 297.108 226.045 296.762 224.008C296.762 223.924 296.733 223.844 296.72 223.76C296.341 221.516 298.088 219.378 300.509 219.156C303.191 218.927 305.81 218.305 308.26 217.318C312.066 215.767 314.099 213.361 313.028 210.861C312.01 208.49 309.2 207.834 303.499 208.329C295.268 209.054 288.907 208.122 286.11 202.143C283.577 196.727 285.859 190.602 292.774 186.211C291.904 184.245 291.026 182.278 290.141 180.312C292.449 179.367 294.761 178.43 297.076 177.504L299.461 182.991C301.64 182.197 303.914 181.623 306.24 181.282C306.798 181.204 307.369 181.229 307.916 181.355C308.462 181.481 308.974 181.705 309.418 182.014C309.861 182.323 310.228 182.709 310.495 183.148C310.761 183.588 310.921 184.071 310.966 184.568C311.09 185.628 310.747 186.69 310.008 187.534C309.27 188.378 308.192 188.939 306.997 189.102C304.763 189.362 302.586 189.919 300.542 190.754C296.022 192.578 295.349 194.929 296.129 196.664C297.046 198.716 300.046 199.003 306.739 198.664C316.06 198.037 320.773 200.29 323.097 205.935C325.42 211.58 323.097 217.89 316.015 222.175L318.756 228.542C316.611 229.402 314.471 230.27 312.336 231.146Z" fill="#92B5F9"/>
<path d="M257.433 224.084C239.579 232.306 222.083 241.25 204.947 250.916L199.755 242.192C217.115 232.395 234.855 223.326 252.975 214.983L257.433 224.084Z" fill="#50BFA5"/>
<path d="M407.736 173.986C388.371 178.164 369.241 183.114 350.345 188.836C349.294 185.636 348.242 182.437 347.189 179.24C366.336 173.445 385.733 168.426 405.383 164.183C406.166 167.451 406.95 170.719 407.736 173.986Z" fill="#4951EC"/>
<path d="M453.426 284.959C366.666 280.323 279.779 291.551 197.343 318.048L163.291 219.482C258.608 188.844 359.069 175.864 459.386 181.213C457.408 215.799 455.421 250.38 453.426 284.959Z" fill="#4951EC"/>
<path d="M196.498 297.766L175.771 236.078C184.465 233.356 189.7 225.274 187.405 217.81C267.867 194.475 351.657 183.644 435.662 185.73C435.486 193.499 442.744 199.985 451.873 200.405C450.817 221.997 449.762 243.588 448.707 265.18C440.306 264.794 433.368 270.955 433.182 278.735C359.424 276.902 285.833 286.412 215.172 306.904C212.884 299.44 204.497 295.262 196.498 297.766Z" fill="#7C9AF2"/>
<path d="M362.139 231.983C363.396 251.641 347.522 268.597 326.84 271.135C306.149 273.621 286.423 260.99 282.585 241.642C278.747 222.295 294.334 203.241 317.614 200.427C340.893 197.613 360.896 212.357 362.139 231.983Z" fill="#4951EC"/>
<path d="M323.988 265.229C323.644 263.119 323.3 261.009 322.956 258.899C319.989 259.22 316.987 259.196 314.027 258.827C312.942 258.667 311.966 258.148 311.299 257.376C310.632 256.604 310.324 255.637 310.437 254.672C310.437 254.591 310.437 254.508 310.463 254.424C310.679 252.166 312.973 250.503 315.434 250.859C318.133 251.263 320.889 251.274 323.593 250.891C327.777 250.278 330.424 248.425 330.025 245.755C329.644 243.226 327.029 241.934 321.246 241.076C312.898 239.856 306.837 237.468 305.646 231.026C304.563 225.193 308.443 219.804 316.462 217.166C316.109 215.056 315.758 212.946 315.408 210.836C317.942 210.452 320.482 210.086 323.025 209.739C323.33 211.696 323.634 213.651 323.939 215.606C326.322 215.346 328.73 215.323 331.119 215.537C331.692 215.59 332.247 215.744 332.752 215.989C333.256 216.235 333.699 216.567 334.055 216.967C334.411 217.367 334.672 217.825 334.823 218.316C334.974 218.806 335.012 219.318 334.934 219.821C334.768 220.878 334.135 221.833 333.173 222.48C332.212 223.126 331 223.412 329.8 223.274C327.53 223.003 325.226 223.033 322.966 223.363C318.002 224.074 316.716 226.189 317.03 228.051C317.395 230.252 320.293 231.216 327.02 232.47C336.425 234.041 340.512 237.324 341.314 243.329C342.104 249.288 338.149 254.899 330.003 257.391C330.349 259.658 330.693 261.926 331.037 264.193C328.683 264.533 326.333 264.878 323.988 265.229Z" fill="#92B5F9"/>
<path d="M271.424 245.556C251.555 249.337 231.849 253.902 212.307 259.252C211.36 256.034 210.413 252.814 209.464 249.593C229.263 244.172 249.245 239.543 269.41 235.707C270.083 238.989 270.754 242.272 271.424 245.556Z" fill="#50BFA5"/>
<path d="M433.662 232.21C413.358 231.727 393.085 232.045 372.844 233.163C372.648 229.823 372.45 226.483 372.25 223.141C392.759 222.007 413.32 221.685 433.933 222.174L433.662 232.21Z" fill="#50BFA5"/>
<path d="M497.707 221.934H139.14V361.065H497.707V221.934Z" fill="#FA7167"/>
<path d="M497.707 325.546H408.982C405.05 325.546 401.858 328.492 401.858 332.124C401.858 335.755 405.05 338.698 408.982 338.698H397.478C393.542 338.698 390.354 341.642 390.354 345.276C390.354 348.907 393.542 351.851 397.478 351.851H399.469C395.552 351.851 392.348 354.794 392.348 358.425C392.347 359.332 392.55 360.23 392.945 361.067H497.707V325.546Z" fill="#E8605D"/>
<path d="M478.765 228.784H152.354V239.589H478.765V228.784Z" fill="#E8605D"/>
<path d="M293.022 272.931H148.761C141.268 272.931 135.194 278.286 135.194 284.892V347.376C135.194 353.982 141.268 359.337 148.761 359.337H293.022C300.515 359.337 306.589 353.982 306.589 347.376V284.892C306.589 278.286 300.515 272.931 293.022 272.931Z" fill="#7C9AF2"/>
<path d="M188.42 290.115H146.212V311.75H188.42V290.115Z" fill="#DDE8FE"/>
<path d="M295.738 284.633H220.89V288.673H295.738V284.633Z" fill="#DDE8FE"/>
<path d="M290.177 330.789H152.429V335.778H290.177V330.789Z" fill="#DDE8FE"/>
<path d="M290.177 342.537H152.429V347.526H290.177V342.537Z" fill="#DDE8FE"/>
<path d="M308.694 257.456H156.499V261.041H308.694V257.456Z" fill="#E8605D"/>
<path d="M419.779 225.536C433.017 213.865 433.017 194.944 419.779 183.273C406.542 171.603 385.08 171.603 371.843 183.273C358.606 194.944 358.606 213.865 371.843 225.536C385.08 237.206 406.542 237.206 419.779 225.536Z" fill="#DDE8FE"/>
<path d="M419.09 190C422.321 194.059 424.115 198.873 424.244 203.831C424.372 208.789 422.831 213.67 419.813 217.856C416.796 222.041 412.439 225.344 407.292 227.347C402.146 229.349 396.441 229.961 390.9 229.105C385.359 228.249 380.231 225.964 376.163 222.538C372.095 219.112 369.271 214.7 368.047 209.859C366.824 205.018 367.256 199.966 369.289 195.342C371.322 190.718 374.865 186.729 379.469 183.88C382.527 181.988 385.977 180.646 389.622 179.929C393.268 179.213 397.038 179.137 400.717 179.705C404.396 180.274 407.912 181.475 411.065 183.242C414.217 185.008 416.944 187.304 419.09 190Z" fill="#92B5F9"/>
<path d="M399.093 222.045L397.853 218.016C395.866 218.407 393.83 218.565 391.796 218.485C391.063 218.452 390.372 218.173 389.863 217.707C389.355 217.24 389.067 216.62 389.058 215.973V215.812C389.05 215.461 389.124 215.112 389.277 214.787C389.43 214.463 389.657 214.169 389.945 213.926C390.232 213.683 390.574 213.495 390.948 213.374C391.323 213.252 391.721 213.201 392.119 213.223C393.96 213.337 395.81 213.184 397.595 212.771C400.347 212.115 401.942 210.731 401.42 209.03C400.924 207.416 399.067 206.763 395.17 206.55C389.537 206.262 385.38 204.962 384.097 200.836C382.948 197.095 385.04 193.444 389.929 191.32L388.689 187.292L393.418 186.164L394.567 189.905C396.065 189.595 397.597 189.431 399.136 189.415C399.896 189.415 400.626 189.678 401.166 190.149C401.707 190.62 402.015 191.26 402.024 191.93C402.031 192.272 401.959 192.611 401.814 192.928C401.669 193.245 401.453 193.533 401.178 193.774C400.904 194.016 400.578 194.207 400.219 194.335C399.859 194.463 399.474 194.526 399.087 194.52C397.601 194.492 396.118 194.654 394.684 195C391.551 195.748 390.902 197.181 391.267 198.373C391.698 199.777 393.659 200.269 398.18 200.651C404.469 201.069 407.504 202.856 408.675 206.694C409.837 210.478 407.791 214.437 402.504 216.609L403.832 220.948L399.093 222.045Z" fill="white"/>
<path d="M451.756 321.178C464.993 309.508 464.993 290.586 451.756 278.916C438.519 267.245 417.057 267.245 403.82 278.916C390.582 290.586 390.582 309.508 403.82 321.178C417.057 332.849 438.519 332.849 451.756 321.178Z" fill="#DDE8FE"/>
<path d="M451.067 285.64C454.296 289.701 456.088 294.515 456.215 299.473C456.341 304.431 454.798 309.311 451.779 313.496C448.76 317.68 444.401 320.982 439.254 322.983C434.107 324.984 428.402 325.594 422.862 324.736C417.321 323.879 412.194 321.592 408.127 318.166C404.061 314.739 401.238 310.326 400.016 305.485C398.794 300.644 399.228 295.592 401.262 290.968C403.297 286.345 406.841 282.357 411.446 279.509C414.504 277.618 417.955 276.276 421.601 275.561C425.247 274.845 429.018 274.77 432.697 275.34C436.376 275.909 439.892 277.112 443.044 278.879C446.196 280.647 448.922 282.944 451.067 285.64Z" fill="#92B5F9"/>
<path d="M431.07 317.684L429.83 313.656C427.843 314.047 425.807 314.205 423.773 314.125C423.04 314.091 422.349 313.813 421.84 313.346C421.332 312.88 421.044 312.26 421.035 311.613V311.446C421.027 311.095 421.101 310.746 421.254 310.421C421.407 310.096 421.634 309.803 421.922 309.56C422.209 309.317 422.551 309.128 422.925 309.007C423.3 308.886 423.698 308.835 424.096 308.856C425.937 308.971 427.787 308.818 429.572 308.405C432.324 307.749 433.92 306.365 433.397 304.664C432.901 303.05 431.044 302.397 427.148 302.184C421.515 301.896 417.357 300.596 416.074 296.469C414.925 292.729 417.017 289.078 421.906 286.954L420.666 282.926L425.395 281.798L426.544 285.538C428.042 285.229 429.574 285.065 431.113 285.049C431.872 285.049 432.601 285.313 433.141 285.784C433.682 286.255 433.989 286.894 433.998 287.564C434.004 287.906 433.933 288.245 433.788 288.562C433.642 288.879 433.426 289.167 433.152 289.408C432.878 289.65 432.552 289.84 432.192 289.968C431.833 290.097 431.448 290.16 431.061 290.154C429.575 290.126 428.093 290.289 426.661 290.637C423.525 291.382 422.875 292.815 423.241 294.006C423.672 295.411 425.636 295.903 430.153 296.285C436.442 296.703 439.477 298.489 440.652 302.328C441.811 306.111 439.765 310.071 434.478 312.243L435.809 316.582L431.07 317.684Z" fill="white"/>
<path d="M395.759 263.87C396.543 247.379 382.016 233.451 363.312 232.76C344.609 232.069 328.811 244.877 328.027 261.367C327.243 277.857 341.77 291.785 360.474 292.476C379.177 293.167 394.975 280.36 395.759 263.87Z" fill="#DDE8FE"/>
<path d="M390.32 263.276C390.734 249.431 378.34 237.912 362.637 237.548C346.934 237.183 333.869 248.11 333.455 261.954C333.041 275.798 345.435 287.317 361.138 287.682C376.841 288.047 389.907 277.12 390.32 263.276Z" fill="#92B5F9"/>
<path d="M353.106 278.735L354.737 274.799C352.856 274.115 351.085 273.213 349.473 272.117C348.893 271.717 348.507 271.138 348.395 270.496C348.283 269.855 348.453 269.199 348.87 268.664L348.971 268.532C349.194 268.242 349.483 267.996 349.82 267.809C350.156 267.622 350.533 267.498 350.926 267.446C351.319 267.394 351.72 267.413 352.104 267.504C352.489 267.595 352.847 267.755 353.158 267.974C354.59 269.001 356.204 269.812 357.936 270.376C360.612 271.239 362.831 270.906 363.504 269.251C364.156 267.677 363.053 266.201 360.005 264.055C355.589 260.956 353.011 257.788 354.662 253.768C356.164 250.123 360.253 248.198 365.638 248.934L367.27 244.998L371.875 246.471L370.373 250.117C371.802 250.624 373.164 251.265 374.437 252.03C375.059 252.415 375.484 253.001 375.619 253.66C375.755 254.319 375.59 254.999 375.161 255.552C374.943 255.834 374.662 256.075 374.335 256.259C374.009 256.444 373.644 256.569 373.262 256.627C372.88 256.684 372.489 256.674 372.111 256.595C371.734 256.517 371.378 256.373 371.065 256.171C369.869 255.394 368.549 254.775 367.149 254.335C364.094 253.36 362.632 254.203 362.156 255.362C361.594 256.729 362.88 258.124 366.33 260.728C371.206 264.256 372.531 267.254 370.99 270.983C369.473 274.669 365.217 276.873 359.473 275.973L357.737 280.199L353.106 278.735Z" fill="white"/>
<path d="M478.765 279.868H325.251V352.403H478.765V279.868Z" fill="#FB9390"/>
<path d="M401.858 332.121C401.858 335.752 405.05 338.695 408.982 338.695H397.478C393.542 338.695 390.354 341.639 390.354 345.273C390.354 348.904 393.542 351.848 397.478 351.848H399.469C398.48 351.847 397.504 352.037 396.607 352.403H478.765V325.546H408.982C405.05 325.546 401.858 328.489 401.858 332.121Z" fill="#E8605D"/>
<path d="M13.6436 358.943C13.6215 359.485 13.8441 360.012 14.2626 360.41C14.681 360.808 15.2612 361.042 15.8759 361.063H572.444C573.059 361.042 573.639 360.808 574.058 360.41C574.477 360.013 574.701 359.485 574.679 358.943C574.701 358.401 574.477 357.873 574.058 357.476C573.639 357.078 573.059 356.843 572.444 356.822H15.8759C15.2612 356.843 14.681 357.078 14.2626 357.476C13.8441 357.873 13.6215 358.401 13.6436 358.943Z" fill="#4951EC"/>
<path d="M498.608 365H406.982C406.107 365 405.241 364.849 404.434 364.554C403.626 364.259 402.892 363.826 402.274 363.281C401.656 362.736 401.165 362.089 400.831 361.377C400.496 360.665 400.324 359.901 400.324 359.131C400.324 358.36 400.496 357.597 400.831 356.885C401.165 356.173 401.656 355.526 402.274 354.981C402.892 354.436 403.626 354.004 404.434 353.709C405.242 353.415 406.107 353.263 406.982 353.264H498.608C499.482 353.263 500.347 353.415 501.155 353.709C501.963 354.004 502.697 354.436 503.315 354.981C503.933 355.526 504.424 356.173 504.759 356.885C505.093 357.597 505.265 358.36 505.265 359.131C505.265 359.901 505.093 360.665 504.759 361.377C504.424 362.089 503.934 362.736 503.315 363.281C502.697 363.826 501.963 364.259 501.155 364.554C500.348 364.849 499.482 365 498.608 365Z" fill="#7C9AF2"/>
<path d="M496.744 353.264H405.118C403.353 353.263 401.66 352.645 400.411 351.544C399.163 350.443 398.461 348.951 398.46 347.394C398.46 346.623 398.633 345.86 398.967 345.148C399.302 344.436 399.792 343.789 400.41 343.244C401.029 342.699 401.763 342.266 402.57 341.971C403.378 341.676 404.244 341.524 405.118 341.524H496.744C497.619 341.524 498.484 341.676 499.292 341.971C500.1 342.266 500.834 342.699 501.452 343.244C502.07 343.789 502.561 344.436 502.895 345.148C503.23 345.86 503.402 346.623 503.402 347.394C503.402 348.165 503.23 348.928 502.895 349.64C502.561 350.353 502.07 351 501.452 351.545C500.834 352.09 500.1 352.522 499.292 352.817C498.484 353.112 497.619 353.264 496.744 353.264Z" fill="#BED1F9"/>
<path d="M507.498 341.524H415.872C414.106 341.524 412.412 340.905 411.164 339.805C409.915 338.704 409.214 337.211 409.214 335.654C409.214 334.883 409.386 334.12 409.721 333.408C410.055 332.696 410.546 332.049 411.164 331.504C411.782 330.96 412.516 330.528 413.324 330.233C414.132 329.938 414.998 329.787 415.872 329.787H507.498C509.263 329.787 510.955 330.405 512.203 331.505C513.451 332.606 514.152 334.098 514.152 335.654C514.153 336.425 513.981 337.188 513.647 337.9C513.312 338.612 512.822 339.259 512.204 339.804C511.586 340.349 510.853 340.782 510.045 341.077C509.238 341.372 508.372 341.524 507.498 341.524Z" fill="#7C9AF2"/>
<path d="M390.957 87.3816L392.122 94.3333L379.639 97.225L379.923 107.578L370.98 111.085L372.997 115.076L384.952 110.383L384.684 100.571L397.67 97.5646L395.918 87.1025L390.957 87.3816Z" fill="#4951EC"/>
<path d="M272.912 65.371L275.317 60.1083C272.807 59.1002 270.458 57.8037 268.333 56.2527C267.569 55.6905 267.076 54.8927 266.954 54.0215C266.833 53.1503 267.093 52.271 267.681 51.5626L267.831 51.3842C268.15 51.0022 268.555 50.6824 269.021 50.4446C269.487 50.2068 270.003 50.0563 270.538 50.0023C271.072 49.9483 271.614 49.992 272.129 50.1308C272.643 50.2695 273.12 50.5003 273.529 50.8087C275.414 52.2577 277.557 53.4241 279.87 54.2615C283.46 55.5333 286.459 55.1852 287.474 52.9696C288.434 50.8663 287.031 48.8205 283.016 45.7762C277.204 41.3912 273.878 36.9917 276.339 31.6197C278.568 26.7455 284.211 24.3055 291.466 25.5312L293.871 20.2686L300.03 22.4553L297.807 27.3411C299.715 28.0886 301.526 29.0157 303.208 30.1062C304.031 30.6528 304.575 31.463 304.725 32.3613C304.875 33.2595 304.617 34.1736 304.008 34.9056C303.697 35.2788 303.303 35.5929 302.851 35.8293C302.399 36.0657 301.898 36.2194 301.377 36.2814C300.857 36.3435 300.327 36.3125 299.82 36.1903C299.313 36.0681 298.84 35.8573 298.427 35.5703C296.853 34.4693 295.105 33.5766 293.238 32.9203C289.152 31.4672 287.125 32.5519 286.417 34.1028C285.582 35.93 287.246 37.875 291.779 41.5437C298.192 46.5272 299.814 50.6476 297.536 55.6427C295.284 60.5744 289.4 63.377 281.668 61.9182L279.084 67.5693L272.912 65.371Z" fill="#BED1F9"/>
<path d="M284.289 121.542C284.595 121.976 284.719 122.491 284.641 122.998C284.563 123.504 284.288 123.971 283.862 124.318C281.574 126.121 278.924 127.531 276.048 128.473C271.153 130.09 265.732 130.246 260.843 128.289C257.586 126.925 254.86 124.74 253.011 122.011L250.122 122.966C249.889 123.044 249.641 123.08 249.391 123.073C249.142 123.065 248.897 123.015 248.67 122.924C248.443 122.833 248.238 122.704 248.068 122.543C247.898 122.382 247.765 122.194 247.678 121.988L247.648 121.922C247.561 121.716 247.519 121.497 247.528 121.277C247.536 121.057 247.593 120.841 247.696 120.641C247.799 120.441 247.946 120.261 248.128 120.111C248.311 119.96 248.525 119.844 248.758 119.766L251.131 118.981C250.749 118.287 250.478 117.856 250.315 117.465C249.998 116.696 249.747 115.907 249.564 115.105L247.12 115.914C246.648 116.069 246.125 116.054 245.666 115.87C245.207 115.686 244.849 115.349 244.672 114.933C244.496 114.517 244.515 114.056 244.724 113.652C244.932 113.248 245.314 112.934 245.785 112.777L248.748 111.796C248.282 108.522 248.774 105.305 250.161 102.612C252.521 98.0281 256.966 94.7709 262.077 93.079C264.442 92.2633 266.953 91.8239 269.492 91.7814C270.155 91.7755 270.795 91.9965 271.277 92.3978C271.759 92.7992 272.045 93.3497 272.077 93.9336V93.9739C272.091 94.2727 272.039 94.5712 271.922 94.8521C271.806 95.133 271.627 95.3906 271.397 95.6103C271.166 95.8299 270.889 96.0072 270.58 96.1318C270.272 96.2564 269.939 96.3259 269.6 96.3362C267.625 96.42 265.679 96.7843 263.836 97.4152C260.572 98.4913 257.707 100.485 256.059 103.564C255.053 105.467 254.749 107.601 255.191 109.664L271.858 104.148C272.33 103.992 272.852 104.008 273.311 104.191C273.77 104.375 274.128 104.711 274.306 105.127C274.481 105.543 274.463 106.004 274.254 106.408C274.046 106.812 273.664 107.128 273.193 107.285L255.785 113.039C256.016 113.782 256.248 114.524 256.437 114.981C256.689 115.571 256.94 116.158 257.345 116.918L274.792 111.143C275.03 111.064 275.284 111.027 275.539 111.035C275.793 111.043 276.044 111.095 276.276 111.188C276.508 111.281 276.716 111.413 276.89 111.577C277.064 111.741 277.199 111.934 277.289 112.144C277.47 112.569 277.452 113.039 277.239 113.452C277.027 113.864 276.637 114.186 276.156 114.346L259.459 119.867C260.673 121.485 262.366 122.778 264.355 123.608C267.994 125.012 271.349 124.946 275.05 123.72C277.048 123.053 278.919 122.121 280.598 120.955C280.875 120.762 281.195 120.623 281.537 120.547C281.879 120.472 282.236 120.46 282.583 120.515C282.931 120.569 283.261 120.688 283.553 120.863C283.845 121.038 284.091 121.265 284.276 121.53L284.289 121.542Z" fill="#DDE8FE"/>
<path d="M238.781 69.1456L231.213 69.8218L228.631 59.2043L217.427 58.9914L214.02 51.3262L209.617 52.8454L214.173 63.1003L224.79 63.3017L227.476 74.3449L238.866 73.3264L238.781 69.1456Z" fill="#4951EC"/>
<path d="M326.246 61.205L334.343 63.5616C334.343 63.5616 347.182 59.893 348.445 57.5853C349.708 55.2777 350.077 49.6813 351.895 49.5288C353.713 49.3763 357.25 49.8999 358.096 53.7297C358.706 56.5121 354.085 64.5485 354.809 65.406C355.26 65.9411 359.868 67.4201 363.255 68.4358C364.353 68.7727 365.323 69.3701 366.06 70.162C366.797 70.954 367.272 71.9099 367.433 72.9245C367.546 73.6086 367.393 74.3063 366.999 74.9039C366.605 75.5016 365.993 75.9641 365.263 76.2162L362.936 77.0103L363.676 79.1309C363.942 79.8911 363.862 80.7127 363.453 81.4217C363.043 82.1306 362.337 82.6712 361.483 82.929L359.679 83.4613L360.256 84.7532C360.431 85.1476 360.511 85.5696 360.492 85.9927C360.472 86.4157 360.353 86.8306 360.142 87.2111C359.932 87.5915 359.634 87.9293 359.267 88.2031C358.901 88.4769 358.474 88.6807 358.014 88.8017L356.441 89.2045L356.503 89.5757C356.635 90.3203 356.45 91.0816 355.984 91.7132C355.518 92.3448 354.803 92.802 353.977 92.9968L352.414 93.3594L330.851 87.0839C328.829 86.4955 326.967 85.5431 325.384 84.2871L318.204 80.9523C317.83 80.7751 317.54 80.4854 317.388 80.1359C317.235 79.7864 317.23 79.4002 317.372 79.0475L324.01 62.1891C324.161 61.7984 324.48 61.4759 324.899 61.2916C325.317 61.1074 325.801 61.0762 326.246 61.205Z" fill="#FA7167"/>
<path d="M198.156 136.721L199.869 129.239L207.842 126.238C208.046 126.161 208.221 126.035 208.348 125.874C208.475 125.714 208.549 125.525 208.561 125.33C208.573 125.134 208.523 124.94 208.417 124.768C208.311 124.596 208.152 124.454 207.96 124.357L200.408 120.616L199.631 113.003C199.611 112.808 199.529 112.622 199.395 112.466C199.262 112.309 199.081 112.189 198.874 112.119C198.667 112.048 198.442 112.03 198.224 112.066C198.006 112.102 197.804 112.191 197.64 112.324L191.256 117.503L182.807 115.799C182.595 115.76 182.375 115.772 182.17 115.835C181.965 115.897 181.784 116.008 181.645 116.155C181.507 116.302 181.416 116.479 181.383 116.668C181.35 116.857 181.377 117.05 181.459 117.227L185.049 124.175L180.617 130.75C180.503 130.918 180.444 131.111 180.448 131.307C180.452 131.503 180.518 131.694 180.638 131.859C180.759 132.023 180.929 132.155 181.13 132.239C181.331 132.323 181.555 132.355 181.776 132.333L190.388 131.455L196.09 137.21C196.236 137.358 196.427 137.466 196.64 137.523C196.853 137.581 197.081 137.584 197.296 137.533C197.511 137.482 197.705 137.379 197.858 137.235C198.01 137.092 198.113 136.913 198.156 136.721Z" fill="#FA7167"/>
<path d="M94.1247 320.734C94.1247 320.734 83.4983 327.488 81.8274 329.505C79.4155 332.405 99.8262 337.849 97.6004 334.436C97.088 333.654 95.6194 331.024 95.5541 330.765C95.2278 329.381 99.5423 325.655 99.5423 325.655L94.1247 320.734Z" fill="#FB9390"/>
<path d="M103.122 340.114L95.9063 331.125C95.9063 331.125 91.4025 330.202 86.7682 325.618C86.7682 325.618 82.6103 327.017 80.0549 330.046C83.8811 333.547 87.9816 336.807 92.3261 339.801C95.4464 342.092 99.005 343.874 102.835 345.063C108.944 346.879 103.122 340.114 103.122 340.114Z" fill="#0B0754"/>
<path d="M5.32798 197.645C5.32798 197.645 6.63343 198.664 7.09686 198.974C7.63862 199.337 9.35202 200.318 9.35202 200.318C9.35202 200.318 15.5529 203.428 15.765 203.02C15.9772 202.611 15.9674 201.429 15.6606 201.118C15.3538 200.807 14.4596 200.488 14.1528 200.177C13.9806 199.998 13.8848 199.772 13.8818 199.538C13.8788 199.304 13.9689 199.076 14.1365 198.894C14.5314 198.548 16.6495 199.57 16.6495 199.57C16.6495 199.57 18.3661 200.41 19.0841 201.426C21.571 204.942 20.8171 205.149 21.15 205.592C21.5449 206.116 30.2424 209.6 30.2424 209.6C30.2424 209.6 56.247 219.13 57.6569 219.651H57.6732C57.8625 220.713 57.2195 221.688 56.8866 222.629C56.2665 225.903 55.1602 226.122 54.3182 229.279C50.3268 227.5 22.7165 214.089 19.9098 212.693C19.9098 212.693 15.7063 212.06 13.0758 211.586C10.4453 211.111 8.1608 209.646 7.43954 209.416C5.64017 208.696 3.94516 207.788 2.39072 206.711C0.161666 205.189 3.04344 205.762 3.04344 205.762C3.04344 205.762 7.72673 207.952 7.84749 207.603C7.94213 207.336 5.30839 206.271 2.82478 204.608C2.17206 204.182 1.5585 203.745 0.984099 203.362C-0.523693 202.332 -0.259341 201.247 1.50628 202.113C2.31211 202.499 3.08639 202.933 3.82345 203.414C4.54797 203.918 5.39325 204.182 6.07208 204.525C7.42322 205.21 8.39904 205.722 8.39904 205.658C8.39904 205.595 8.77109 205.549 8.10858 205.083C7.31225 204.507 5.32471 203.63 4.22487 202.718C3.60152 202.203 2.22427 201.19 2.22427 201.19C2.22427 201.19 0.458657 199.328 0.543511 199.204C1.01021 198.534 2.61591 199.521 3.36328 200.315C4.12696 200.617 5.54337 201.719 5.54337 201.719C5.54337 201.719 8.95386 203.397 9.21821 202.985C9.32917 202.81 7.371 201.567 5.6576 200.088C4.06822 198.715 2.72034 197.107 2.96185 196.799C3.38286 196.281 5.32798 197.645 5.32798 197.645Z" fill="#FB9390"/>
<path d="M77.875 251.311L79.5558 258.64L121.807 292.52L91.5626 319.504L99.7217 326.864C99.7217 326.864 144.391 297.947 146 294.158C148.477 288.322 113.98 249.677 113.98 249.677L77.875 251.311Z" fill="#E8605D"/>
<path d="M48.5774 339.933C48.5774 339.933 40.0529 348.124 38.3786 350.139C35.9701 353.042 53.9689 357.332 51.7399 353.928C51.2275 353.145 49.7589 350.516 49.6936 350.257C49.3672 348.873 53.6818 345.146 53.6818 345.146L48.5774 339.933Z" fill="#FB9390"/>
<path d="M61.2306 353.674L49.4979 349.894C49.4979 349.894 45.0659 351.672 38.3037 350.216C38.3037 350.216 35.9179 353.168 35.7678 356.943C35.7678 356.943 58.0061 359.443 64.194 357.884C70.3818 356.324 61.2306 353.674 61.2306 353.674Z" fill="#0B0754"/>
<path d="M79.3208 254.717L81.217 300.95L43.7278 341.477L53.8711 346.369C53.8711 346.369 95.3419 314.989 99.8881 306.247C102.711 300.826 112.215 251.816 112.215 251.816L79.3208 254.717Z" fill="#FA7167"/>
<path d="M113.413 250.926C109.976 244.086 110.374 195.068 96.9998 183.596C92.2969 184.298 88.9387 184.689 88.1554 184.87C87.457 189.92 86.6901 208.465 86.2168 225.441C85.8905 236.755 86.2168 248.621 84.647 254.873C83.6549 258.735 116.539 257.169 113.413 250.926Z" fill="#DDE8FE"/>
<path d="M77.1863 187.39C73.4331 188.147 70.6591 188.676 65.7473 195.084C61.0346 201.219 50.5747 215.778 50.5747 215.778L23.0396 204.985L21.7341 217.286C21.7341 217.286 52.9017 231.572 57.3076 230.283C61.7135 228.994 74.0663 213.062 74.9801 211.986C75.1955 211.735 73.9455 229.005 73.9455 231.765C73.9455 234.524 67.9698 258.547 67.9698 258.547C67.9698 258.547 83.1293 261.839 86.0894 255.862C95.1623 237.539 88.1977 184.841 88.1977 184.841C88.1977 184.841 79.9016 186.858 77.1863 187.39Z" fill="#4951EC"/>
<path d="M133.791 134.931C132.632 134.067 132.126 132.027 131.937 130.707L131.421 128.963C131.891 128.793 141.078 127.639 143.849 127.576C144.12 128.35 144.254 129.015 144.175 129.421C143.761 131.417 140.869 144.383 140.869 144.383L132.958 144.524C132.958 144.524 134.672 136.833 133.791 134.931Z" fill="#FB9390"/>
<path d="M100.087 186.454C100.087 186.454 105.518 200.076 109.986 198.113C114.454 196.151 139.554 173.59 139.802 172.505C140.05 171.42 141.786 143.732 141.786 143.732L131.858 141.971L126.141 164.65C126.141 164.65 107.773 180.133 104.049 181.658C102.979 182.092 102.053 182.761 101.359 183.601C100.666 184.441 100.228 185.423 100.087 186.454Z" fill="#4951EC"/>
<path d="M114.744 254.203C117.75 254.203 118.859 253.834 120.86 253.305C120.86 253.305 115.136 224.865 111.81 196.662C110.504 185.52 109.274 180.954 104.062 181.763C102.554 181.993 98.4715 183.365 96.9866 183.587C110.087 216.265 110.132 241.421 111.999 248.713C112.92 252.373 113.739 254.226 114.744 254.203Z" fill="#4951EC"/>
<path d="M95.6064 178.648L96.9771 183.585C96.9771 183.585 97.3034 187.884 95.0189 188.27C92.2905 188.736 88.2338 185.133 88.2338 185.133L85.884 171.21L95.6064 178.648Z" fill="#F7A491"/>
<path d="M95.6064 178.648L96.9771 183.585C96.9771 183.585 97.3034 187.884 95.0189 188.27C92.2905 188.736 88.2338 185.133 88.2338 185.133L85.884 171.21L95.6064 178.648Z" fill="#FB9390"/>
<path d="M85.9165 171.277L95.6062 178.649L96.631 182.338C92.9268 181.552 87.6495 177.959 85.9165 171.277Z" fill="#EF7F7F"/>
<path d="M95.6389 158.464C97.9821 158.464 100.09 159.903 100.913 161.954C101.845 164.28 102.553 166.671 103.028 169.101C104.052 174.456 100.593 179.356 97.584 179.748C94.5749 180.139 87.408 178.384 85.835 170.799C85.1561 167.545 84.2619 163.281 87.2938 161.042C89.6403 159.298 92.9464 158.472 95.6389 158.464Z" fill="#FB9390"/>
<path d="M86.7977 176.577C86.7977 176.577 76.1909 168.233 75.7275 161.73C75.264 155.227 82.085 151.732 87.9171 151.55C90.3036 151.469 92.6935 151.578 95.0579 151.875C100.9 152.526 104.689 154.807 103.354 159.028C101.566 164.697 89.4379 159.915 86.9576 161.676C84.9113 163.114 88.2271 166.616 86.2396 167.948C84.3728 169.2 85.3225 168.777 85.9426 171.156C86.3603 172.945 86.646 174.756 86.7977 176.577Z" fill="#0B0754"/>
<path d="M82.7084 169.019C82.9728 170.578 84.053 171.732 85.1267 171.591C86.2005 171.45 86.8532 170.075 86.5889 168.515C86.3245 166.956 85.2442 165.802 84.1738 165.94C83.1033 166.078 82.4473 167.468 82.7084 169.019Z" fill="#FB9390"/>
<path d="M134.329 128.943C135.663 129.698 136.825 130.666 137.756 131.797C137.756 131.797 142.227 129.268 142.07 128.468C141.865 127.407 137.292 129.378 137.292 129.378L134.329 128.943Z" fill="#EF7F7F"/>
<path d="M18.9732 76.575L139.77 131.411C146.271 134.361 154.488 131.699 158.124 125.478L188.972 72.6589C192.608 66.4295 190.277 58.9887 183.789 56.0394L62.9896 1.20292C56.4918 -1.74636 48.274 0.915181 44.635 7.136L13.7873 59.967C10.1516 66.1849 12.4721 73.6257 18.9732 76.575Z" fill="#92B5F9"/>
<path d="M23.8321 42.7379L14.4749 58.7627L158.816 124.276L168.173 108.252L23.8321 42.7379Z" fill="#0B0754"/>
<path d="M92.4297 23.2113L60.6213 8.74316L51.519 24.2979L83.3274 38.7661L92.4297 23.2113Z" fill="#DDE8FE"/>
<path d="M134.3 128.86C134.091 128.36 133.676 127.66 133.882 127.384C135.168 125.658 133.781 123.764 132.844 125.241C132.299 126.104 131.346 127.983 131.428 128.964C131.487 129.675 132.302 132.382 132.302 132.382C132.302 132.382 135.488 131.697 134.3 128.86Z" fill="#FB9390"/>
<path d="M498.193 311.329C498.193 311.329 497.449 319.492 498.053 322.148C498.379 323.566 500.174 326.493 499.358 327.828C498.542 329.163 497.589 329.5 497.589 329.5L476.2 329.787C475.034 329.805 475.805 329.154 476.745 328.556C478.282 327.575 479.522 326.927 484.434 324.867C484.76 324.732 485.922 324.09 486.343 323.866C487.479 323.212 488.508 322.424 489.401 321.524C490.935 320.042 491.072 312.851 491.072 312.851L498.193 311.329Z" fill="#FB9390"/>
<path d="M481.47 202.81C481.47 202.81 472.277 198.813 474.046 207.506C475.815 216.198 489.283 313.921 489.283 313.921L501.901 314.537C501.901 314.537 503.51 281.957 503.157 277.275C502.805 272.594 500.713 265.36 500.713 265.36L499.642 236.454L487.74 200.775L481.47 202.81Z" fill="#0B0754"/>
<path d="M486.33 323.877C491.989 325.135 496.17 324.28 498.51 323.463C499.11 324.945 499.91 326.803 499.489 327.877C498.97 329.189 498.294 329.773 497.642 329.787C492.475 329.905 478.654 329.787 474.711 329.822C474.59 329.824 474.469 329.796 474.365 329.74C474.261 329.684 474.178 329.602 474.125 329.505C474.073 329.408 474.053 329.3 474.068 329.193C474.083 329.087 474.134 328.986 474.212 328.904C475.188 327.894 485.909 324.107 486.33 323.877Z" fill="#0B0754"/>
<path d="M474.043 144.076C474.043 144.076 466.269 130.892 465.064 126.05C463.86 121.207 459.683 96.8333 460.035 95.2622C460.388 93.6912 466.99 89.9161 466.174 88.5839C465.358 87.2517 459.069 87.2459 457.63 87.361C456.191 87.4761 453.296 88.2242 452.056 89.1162C450.815 90.0082 453.449 119.228 454.236 125.518C455.022 131.807 464.679 151.175 464.679 151.175L474.043 144.076Z" fill="#FB9390"/>
<path d="M534.605 246.842C534.605 246.842 541.018 240.915 542.438 238.518C543.202 237.238 543.897 233.966 545.493 233.385C547.089 232.804 548.058 233.071 548.058 233.071L564.882 244.719C565.799 245.355 564.738 245.429 563.577 245.375C561.68 245.283 560.254 245.087 554.967 243.968C554.641 243.893 553.257 243.743 552.774 243.68C551.424 243.557 550.061 243.597 548.724 243.801C546.469 244.089 541.218 249.607 541.218 249.607L534.605 246.842Z" fill="#FB9390"/>
<path d="M552.781 243.684C549.285 239.566 545.428 237.906 543.026 237.241C543.616 235.757 544.263 233.814 545.359 233.213C546.7 232.482 547.624 232.638 548.143 232.986C552.239 235.762 562.963 243.364 566.054 245.519C566.15 245.585 566.223 245.674 566.264 245.775C566.304 245.877 566.311 245.986 566.282 246.091C566.254 246.195 566.192 246.29 566.104 246.364C566.016 246.439 565.906 246.489 565.786 246.509C564.304 246.754 553.267 243.744 552.781 243.684Z" fill="#0B0754"/>
<path d="M534.746 140.064C530.758 132.684 521.916 128.621 513.349 130.586C510.278 126.921 505.517 124.357 500.582 123.738C490.827 122.521 478.239 126.691 479.525 135.668C476.441 141.949 477.198 150.601 483.354 154.842C482.224 163.095 491.611 170.418 502.72 169.431C507.188 174.869 514.958 178.063 522.227 176.817C523.973 176.529 526.619 175.954 527.076 176.028C526.505 175.974 539.746 183.616 548.877 170.003C558.208 156.114 549.031 140.585 534.746 140.064Z" fill="#0B0754"/>
<path d="M477.77 205.959C477.77 205.959 498.386 197.877 498.712 198.798C501.297 206.138 509.339 203.77 514.113 216.698C516.111 222.113 518.163 258.131 518.163 258.131C518.163 258.131 526.296 252.184 537.911 241.788C538.806 240.991 547.539 248.314 547.539 248.314C524.478 275.784 514.531 277.217 510.68 275.68C502.648 272.469 485.7 227.56 485.726 227.565C483.693 224.064 477.77 205.959 477.77 205.959Z" fill="#4951EC"/>
<path d="M511.949 155.228C511.949 155.228 541.749 155.193 548.13 154.868C553.906 154.581 576.81 155.09 577.705 154.998C578.599 154.906 584.522 146.078 585.505 147.016C586.487 147.954 582.212 151.398 583.547 152.29C584.881 153.182 599.085 151.185 598.886 152.112C598.533 153.838 590.24 153.625 590.25 154.463C590.26 155.3 598.928 153.994 599.515 155.383C600.103 156.773 591.177 155.959 590.818 156.569C590.459 157.179 599.101 158.324 598.216 159.616C597.737 160.318 590.563 158.445 590.599 159.4C590.635 160.355 595.867 162.534 595.224 163.296C594.581 164.059 591.118 160.957 588.08 160.919C585.041 160.882 582.858 159.481 578.021 160.655C575.629 161.23 557.356 163.204 541.916 164.366C526.087 165.561 513.111 165.937 513.111 165.937L511.949 155.228Z" fill="#FB9390"/>
<path d="M467.76 173.8C467.365 169.582 468.308 166.319 468.523 164.935C467.074 160.553 463.997 151.205 462.887 149.366C462.887 149.366 468.076 140.576 473.39 140.636C473.39 140.636 478.814 151.415 483.007 153.345C483.069 153.345 484.489 153.904 485.116 153.901C489.166 153.875 503.317 153.495 505.957 153.455L504.469 171.153C494.218 188.872 496.995 198.171 500.879 201.61C502.713 203.23 475.292 209.796 474.029 207.506C472.557 204.801 468.559 182.329 467.76 173.8Z" fill="#92B5F9"/>
<path d="M498.768 154.122C501.378 153.023 520.265 153.575 520.265 153.575C520.265 153.575 522.905 165.171 520.771 167.962C520.771 167.962 503.885 170.178 504.365 171.415L498.768 154.122Z" fill="#92B5F9"/>
<path d="M493.817 146.673C493.817 146.673 493.49 153.003 493.817 155.63C494.143 158.257 490.752 164.44 484.421 164.55C478.089 164.659 483.491 158.625 484.045 156.033C484.6 153.44 485.266 143.292 485.266 143.292L493.817 146.673Z" fill="#FB9390"/>
<path d="M485.269 143.289C485.269 143.289 485.113 145.646 484.891 148.376C486.888 150.477 489.959 151.541 493.702 150.272C493.745 148.313 493.83 146.673 493.83 146.673L485.269 143.289Z" fill="#EF7F7F"/>
<path d="M494.339 127.827C496.701 128.564 498.686 130.02 499.939 131.933C501.95 135.098 502.798 144.098 495.067 147.807C487.335 151.516 482.032 145.283 482.387 139.54C482.743 133.797 484.731 126.227 494.339 127.827Z" fill="#FB9390"/>
<path d="M480.831 137.655C481.353 139.079 482.541 140.014 483.481 139.744C484.421 139.473 484.757 138.104 484.235 136.682C483.713 135.261 482.525 134.323 481.585 134.593C480.645 134.864 480.309 136.216 480.831 137.655Z" fill="#FB9390"/>
<path d="M493.262 127.584C493.262 127.584 497.178 137.048 501.202 138.115C505.226 139.183 504.792 143.801 504.792 143.801C504.792 143.801 505.533 133.126 501.904 130.444C498.275 127.762 493.262 127.584 493.262 127.584Z" fill="#0B0754"/>
<path d="M499.433 139.914C498.781 141.373 499.156 142.872 500.275 143.26C501.395 143.649 502.827 142.783 503.483 141.324C504.139 139.865 503.761 138.369 502.641 137.978C501.522 137.586 500.086 138.455 499.433 139.914Z" fill="#FB9390"/>
<path d="M450.936 91.3649C450.936 91.3649 459.666 91.7015 460.694 91.7015C461.722 91.7015 464.702 88.9824 464.702 88.9824L450.936 91.3649Z" fill="#EF7F7F"/>
<path d="M479.512 44.6478C483.364 49.4855 485.502 55.2216 485.656 61.1307C485.811 67.0398 483.974 72.8565 480.378 77.8451C476.783 82.8338 471.59 86.7704 465.457 89.1571C459.323 91.5438 452.525 92.2734 445.921 91.2537C439.318 90.2339 433.206 87.5106 428.357 83.4281C423.509 79.3456 420.143 74.0873 418.685 68.3181C417.227 62.549 417.742 56.5282 420.165 51.0171C422.588 45.5059 426.81 40.7521 432.298 37.3566C439.656 32.8046 448.763 31.0156 457.617 32.3829C466.471 33.7502 474.347 38.1619 479.512 44.6478Z" fill="#DDE8FE"/>
<path d="M475.051 47.411C478.282 51.4705 480.076 56.2838 480.205 61.2421C480.334 66.2003 478.792 71.0809 475.774 75.2667C472.757 79.4524 468.4 82.7553 463.253 84.7577C458.107 86.7601 452.402 87.372 446.861 86.5161C441.32 85.6602 436.192 83.3749 432.124 79.9492C428.056 76.5235 425.232 72.1112 424.008 67.2704C422.785 62.4296 423.217 57.3776 425.25 52.7532C427.283 48.1289 430.826 44.14 435.43 41.2909C441.605 37.471 449.248 35.9699 456.678 37.1176C464.108 38.2653 470.717 41.9679 475.051 47.411Z" fill="#92B5F9"/>
<path d="M455.051 79.4554L453.811 75.4127C451.826 75.8046 449.79 75.9633 447.757 75.8846C447.024 75.8497 446.334 75.571 445.825 75.1048C445.316 74.6386 445.027 74.0196 445.016 73.3727V73.2029C445.01 72.8526 445.086 72.505 445.239 72.1819C445.393 71.8588 445.62 71.5671 445.908 71.3253C446.195 71.0834 446.536 70.8966 446.91 70.7766C447.283 70.6565 447.68 70.6058 448.077 70.6277C449.918 70.7419 451.768 70.5893 453.553 70.176C456.305 69.5199 457.897 68.133 457.375 66.4354C456.879 64.8183 455.022 64.168 451.125 63.9551C445.495 63.653 441.334 62.3668 440.055 58.2407C438.906 54.5002 440.998 50.8488 445.884 48.7253L444.647 44.6827L449.376 43.5576L450.521 47.2982C452.02 46.9896 453.552 46.8247 455.091 46.8061C455.851 46.8061 456.58 47.0705 457.12 47.542C457.66 48.0134 457.968 48.6537 457.976 49.3238C457.983 49.6656 457.912 50.0052 457.766 50.3222C457.621 50.6392 457.405 50.9271 457.131 51.1689C456.857 51.4106 456.53 51.6011 456.171 51.729C455.811 51.857 455.426 51.9197 455.038 51.9134C453.552 51.8857 452.069 52.0476 450.636 52.3939C447.499 53.1421 446.853 54.575 447.219 55.7662C447.649 57.1703 449.611 57.6595 454.131 58.0451C460.42 58.4623 463.452 60.2491 464.627 64.0875C465.802 67.9259 463.739 71.8333 458.452 74.0057L459.784 78.3447L455.051 79.4554Z" fill="white"/>
<path d="M460.694 91.7014L464.284 88.8442C464.284 88.8442 462.584 87.0516 463.289 86.7092C464.441 86.1481 466.409 88.3148 466.226 88.8413C466.043 89.3679 463.942 91.0655 463.942 91.0655L460.694 91.7014Z" fill="#FB9390"/>
</svg>
