<svg width="240" height="241" viewBox="0 0 240 241" fill="none" xmlns="http://www.w3.org/2000/svg">
<path d="M212.181 207.467C207.252 212.596 202.589 215.901 198.905 218.518C155.598 249.241 104.354 240.285 93.4638 238.098C77.3817 234.869 46.2953 228.626 23.8218 202.494C-10.1809 162.959 -4.88638 100.673 21.4888 59.5557C26.3132 52.0349 51.797 10.2917 103.592 3.59801C134.938 -0.453316 171.478 7.71733 197.939 29.636C253.481 75.6457 249.526 168.593 212.181 207.467Z" fill="url(#paint0_linear_307_2059)"/>
<path d="M164.071 232.945C163.864 232.918 163.665 232.851 163.486 232.746C163.306 232.642 163.15 232.503 163.026 232.337C159.37 227.467 132.793 189.351 168.162 154.509C201.742 121.434 216.963 114.643 218.988 95.2069C219.224 92.9381 222.327 92.3933 223.348 94.4392C230.978 109.73 242.866 145.409 203.525 168.828C160.134 194.664 163.691 222.982 165.792 231.029C165.857 231.274 165.86 231.531 165.8 231.777C165.741 232.024 165.621 232.251 165.451 232.441C165.281 232.63 165.066 232.775 164.826 232.863C164.586 232.951 164.328 232.979 164.074 232.945H164.071Z" fill="#91B3FA"/>
<path d="M169.448 233.669C168.967 233.606 168.521 233.39 168.174 233.055C167.828 232.72 167.6 232.283 167.526 231.809C166.49 225.182 163.946 200.414 182.4 193.846C202.716 186.616 219.117 205.323 234.051 190.682C234.835 189.907 236.158 190.583 235.971 191.661C234.641 199.309 228.721 217.025 202.381 220.589C174.188 224.405 171.015 227.602 171.584 231.569C171.758 232.792 170.686 233.835 169.448 233.669Z" fill="#91B3FA"/>
<path opacity="0.47" d="M218.01 115.022C217.667 116.433 217.216 117.816 216.66 119.16C216.12 120.5 215.51 121.812 214.832 123.09C213.499 125.658 211.899 128.088 210.145 130.406C206.617 135.023 202.348 139.08 197.643 142.52C195.286 144.218 192.838 145.788 190.308 147.222C187.891 148.613 185.565 150.154 183.344 151.834C178.892 155.204 174.846 159.068 171.285 163.351C164.18 171.894 159.138 182.2 157.478 193.182C156.641 198.684 156.61 204.276 157.384 209.787C158.138 215.317 159.734 220.73 161.833 225.951C161.889 226.082 161.891 226.23 161.837 226.363C161.784 226.496 161.679 226.602 161.547 226.659C161.415 226.717 161.265 226.72 161.13 226.669C160.995 226.618 160.886 226.516 160.827 226.386C158.368 221.227 156.532 215.743 155.516 210.08C154.462 204.395 154.295 198.583 155.022 192.848C155.728 187.104 157.367 181.477 159.727 176.18C162.087 170.884 165.221 165.931 168.874 161.416C172.526 156.901 176.762 152.849 181.394 149.315C183.715 147.546 186.147 145.923 188.674 144.456C191.153 143.049 193.507 141.62 195.788 139.993C200.338 136.779 204.543 133.069 208.162 128.834C209.989 126.726 211.662 124.492 213.168 122.148C214.653 119.802 216.041 117.328 217.04 114.767L217.053 114.733C217.099 114.616 217.188 114.52 217.302 114.465C217.417 114.41 217.548 114.4 217.67 114.437C217.792 114.474 217.894 114.556 217.958 114.665C218.021 114.774 218.04 114.903 218.011 115.026L218.01 115.022Z" fill="white"/>
<path opacity="0.47" d="M168.281 229.174C168.368 228.934 168.34 228.711 168.332 228.485L168.31 227.802L168.295 226.437C168.295 225.526 168.315 224.616 168.356 223.708C168.437 221.889 168.594 220.072 168.841 218.265C169.343 214.656 170.17 211.058 171.643 207.669C173.1 204.303 175.306 201.087 178.509 198.986C180.109 197.95 181.893 197.224 183.767 196.846C185.631 196.458 187.545 196.4 189.418 196.563C196.757 197.404 203.951 198.795 211.163 199.925C214.755 200.455 218.399 200.927 221.926 200.45C222.8 200.327 223.663 200.132 224.504 199.868C225.34 199.592 226.147 199.236 226.912 198.805C228.446 197.939 229.795 196.755 231.004 195.441C231.083 195.356 231.193 195.304 231.31 195.298C231.428 195.292 231.543 195.332 231.63 195.409C231.718 195.486 231.772 195.594 231.78 195.71C231.788 195.826 231.75 195.94 231.673 196.028C230.455 197.418 229.056 198.703 227.425 199.672C226.609 200.155 225.747 200.559 224.851 200.877C223.953 201.181 223.031 201.412 222.095 201.565C218.339 202.109 214.614 201.646 210.981 201.154C207.337 200.637 203.738 199.973 200.127 199.395C196.516 198.818 192.885 198.256 189.3 197.84C187.531 197.668 185.742 197.712 184.016 198.056C182.288 198.389 180.64 199.042 179.158 199.981C176.178 201.858 174.017 204.843 172.549 208.072C171.064 211.319 170.181 214.835 169.621 218.383C169.345 220.161 169.157 221.953 169.043 223.75C168.985 224.649 168.948 225.549 168.932 226.45L168.922 227.8L168.931 228.474C168.937 228.698 168.927 228.927 169.038 229.139C169.07 229.2 169.086 229.267 169.084 229.335C169.083 229.403 169.065 229.47 169.031 229.529C168.997 229.588 168.949 229.638 168.891 229.675C168.833 229.711 168.767 229.733 168.698 229.737C168.629 229.742 168.561 229.73 168.498 229.702C168.435 229.674 168.381 229.631 168.339 229.577C168.297 229.523 168.27 229.459 168.259 229.392C168.248 229.325 168.255 229.256 168.277 229.192L168.281 229.174Z" fill="white"/>
<path d="M129.935 2.73938C118.879 2.6533 107.725 4.38676 97.8575 8.43464C74.887 17.8576 55.3933 42.7913 63.0217 68.2595C65.5001 76.5326 64.1978 85.6603 72.5339 89.2555C77.0441 91.2007 89.3272 92.3592 93.9976 90.8254C106.41 86.7508 114.569 75.5996 107.818 63.2321C105.657 59.2729 102.856 55.658 100.991 51.5498C99.1267 47.4417 98.2736 42.5735 100.177 38.4852C103.913 30.4609 116.324 27.9098 124.372 28.1499C133.872 28.4339 142.479 33.08 147.591 41.0492C153.963 50.9818 155.577 63.0617 154.643 74.5917C153.644 86.9281 148.384 96.3485 140.499 105.813C133.709 113.96 126.236 121.781 121.725 131.349C117.583 140.132 116.229 149.864 116.042 159.473C116.005 161.336 106.64 178.887 106.678 184.249C106.684 185.007 117.298 187.52 118.069 187.524L137.56 187.74C137.971 187.746 138.368 187.589 138.663 187.305C138.958 187.02 139.127 186.632 139.133 186.225C139.429 160.138 147.545 135.266 168.09 117.746C175.565 111.37 183.615 106.179 189.428 98.1319C197.713 86.663 201.801 75.3766 200.621 61.2224C199.543 48.2946 195.238 35.36 186.715 25.3311C177.558 14.5482 164.151 7.81752 150.216 4.91265C143.545 3.52492 136.751 2.79691 129.935 2.73938V2.73938Z" fill="url(#paint1_linear_307_2059)"/>
<path d="M150.326 216.985C150.326 228.981 143.601 239.594 131.467 239.594C128.847 239.594 119.932 239.618 117.602 238.786C109.144 235.765 109.113 229.34 109.113 219.937C109.113 207.94 113.21 196.143 125.343 196.143C137.477 196.143 150.326 204.988 150.326 216.985Z" fill="url(#paint2_linear_307_2059)"/>
<path d="M119.429 0.00304707C108.373 -0.0830232 97.219 1.65043 87.3516 5.69831C64.3811 15.1213 44.8874 40.055 52.5158 65.5232C54.9942 73.7962 60.724 84.2107 69.0558 87.8059C73.566 89.7511 78.817 89.622 83.4874 88.0891C95.9002 84.0145 104.059 72.8624 97.3078 60.4958C95.1463 56.5366 92.3458 52.9216 90.4812 48.8135C88.6165 44.7054 87.7634 39.8372 89.6664 35.7489C93.4026 27.7237 105.814 25.1734 113.862 25.4136C123.362 25.6976 131.969 30.3437 137.081 38.3129C143.453 48.2446 145.067 60.3254 144.132 71.8545C143.134 84.1918 137.873 93.6122 129.989 103.076C123.199 111.224 115.726 119.045 111.214 128.613C107.072 137.392 105.719 147.128 105.532 156.737C105.495 158.6 106.13 178.049 106.17 183.41C106.173 183.774 106.32 184.123 106.581 184.381C106.842 184.638 107.194 184.784 107.563 184.787L127.053 185.003C127.465 185.008 127.862 184.852 128.157 184.567C128.452 184.283 128.62 183.895 128.626 183.488C128.923 157.4 137.039 132.529 157.583 115.008C165.058 108.633 173.109 103.441 178.921 95.3947C187.206 83.9302 191.297 72.6463 190.117 58.4895C189.039 45.5618 184.734 32.6271 176.211 22.5982C167.052 11.8171 153.645 5.08119 139.71 2.17976C133.039 0.790877 126.246 0.0617122 119.429 0.00304707V0.00304707Z" fill="url(#paint3_linear_307_2059)"/>
<path d="M120.578 238.923C132.711 238.923 142.546 229.198 142.546 217.202C142.546 205.206 132.711 195.481 120.578 195.481C108.445 195.481 98.6094 205.206 98.6094 217.202C98.6094 229.198 108.445 238.923 120.578 238.923Z" fill="url(#paint4_linear_307_2059)"/>
<path opacity="0.63" d="M59.7859 63.0313C59.7219 63.0312 59.6598 63.0095 59.6099 62.9697C59.56 62.93 59.5254 62.8746 59.5117 62.8127C57.9717 55.94 57.7454 45.1769 65.4121 32.9334C72.8986 20.9826 83.3902 12.9866 96.6074 9.16685C110.737 5.08368 127.511 5.9573 146.468 11.7645C146.504 11.7745 146.538 11.7917 146.567 11.8149C146.596 11.8381 146.621 11.8669 146.639 11.8995C146.657 11.9322 146.668 11.9681 146.672 12.0052C146.676 12.0422 146.672 12.0796 146.661 12.1151C146.65 12.1507 146.631 12.1837 146.607 12.2122C146.583 12.2407 146.553 12.2641 146.52 12.2811C146.486 12.298 146.45 12.3082 146.412 12.311C146.375 12.3138 146.337 12.3091 146.301 12.2972C109.883 1.13994 81.3271 8.57297 65.8909 33.2269C58.3252 45.3112 58.5446 55.9202 60.0584 62.6922C60.0665 62.7279 60.0673 62.7649 60.0609 62.8009C60.0546 62.837 60.041 62.8715 60.0211 62.9023C60.0012 62.9332 59.9754 62.9599 59.945 62.9808C59.9147 63.0018 59.8804 63.0166 59.8442 63.0244C59.8251 63.029 59.8056 63.0313 59.7859 63.0313V63.0313Z" fill="white"/>
<path opacity="0.63" d="M64.4088 74.0886C64.3644 74.0886 64.3205 74.0783 64.2809 74.0584C64.2412 74.0385 64.2069 74.0096 64.1807 73.9741C64.1146 73.8881 62.5267 71.7217 61.059 67.9122C61.0425 67.8463 61.051 67.7766 61.0827 67.7164C61.1145 67.6561 61.1674 67.6094 61.2315 67.585C61.2956 67.5606 61.3665 67.5602 61.431 67.5838C61.4954 67.6075 61.5488 67.6535 61.5813 67.7134C63.0247 71.4471 64.616 73.6238 64.6282 73.6453C64.6592 73.6868 64.6779 73.736 64.6823 73.7873C64.6866 73.8387 64.6764 73.8903 64.6529 73.9363C64.6293 73.9823 64.5933 74.0209 64.5488 74.0478C64.5043 74.0747 64.4531 74.0888 64.401 74.0886H64.4088Z" fill="white"/>
<path opacity="0.63" d="M127.924 203.124C127.879 203.124 127.836 203.113 127.796 203.093C125.559 201.967 123.082 201.384 120.571 201.392C120.496 201.392 120.425 201.362 120.372 201.31C120.319 201.258 120.289 201.187 120.289 201.113C120.289 201.039 120.319 200.968 120.372 200.916C120.425 200.863 120.496 200.834 120.571 200.834C123.17 200.827 125.734 201.43 128.05 202.596C128.106 202.624 128.152 202.671 128.178 202.728C128.205 202.785 128.211 202.849 128.197 202.91C128.182 202.971 128.147 203.025 128.097 203.064C128.047 203.103 127.985 203.124 127.922 203.124H127.924Z" fill="white"/>
<path opacity="0.63" d="M111.477 230.822C111.421 230.822 111.366 230.805 111.32 230.774C108.956 229.197 107.043 227.043 105.768 224.521C104.493 221.998 103.899 219.193 104.043 216.377C104.186 213.56 105.063 210.829 106.588 208.446C108.114 206.063 110.236 204.11 112.748 202.776C112.781 202.757 112.817 202.745 112.855 202.74C112.893 202.735 112.931 202.737 112.968 202.747C113.005 202.757 113.039 202.775 113.069 202.798C113.098 202.822 113.123 202.851 113.141 202.884C113.159 202.917 113.17 202.953 113.174 202.991C113.177 203.028 113.173 203.066 113.161 203.102C113.149 203.138 113.13 203.171 113.105 203.199C113.08 203.228 113.05 203.251 113.016 203.267C110.588 204.555 108.538 206.442 107.065 208.743C105.591 211.045 104.744 213.684 104.605 216.404C104.466 219.125 105.04 221.835 106.272 224.271C107.504 226.708 109.351 228.789 111.635 230.312C111.685 230.346 111.723 230.394 111.743 230.45C111.763 230.506 111.764 230.567 111.746 230.624C111.729 230.681 111.693 230.731 111.645 230.767C111.596 230.802 111.538 230.821 111.477 230.822V230.822Z" fill="white"/>
<g opacity="0.3">
<path d="M47.496 40.6399C47.441 40.7071 47.3732 40.7629 47.2964 40.8041C47.2196 40.8453 47.1353 40.8712 47.0484 40.8803C46.9615 40.8893 46.8737 40.8813 46.7899 40.8567C46.7061 40.8322 46.628 40.7915 46.5601 40.7371C46.0065 40.2939 45.4241 39.867 44.8304 39.4693C44.6862 39.3729 44.5861 39.2243 44.5516 39.0556C44.5171 38.8869 44.5509 38.7116 44.6459 38.5673L44.6528 38.5561C44.7019 38.4848 44.7648 38.4238 44.8377 38.3766C44.9107 38.3294 44.9924 38.2968 45.0781 38.2808C45.1638 38.2648 45.2519 38.2657 45.3372 38.2834C45.4226 38.3011 45.5036 38.3353 45.5756 38.384C46.2006 38.8023 46.8135 39.2516 47.3976 39.7189C47.5343 39.8286 47.6214 39.9875 47.6398 40.1606C47.6583 40.3337 47.6065 40.507 47.496 40.6425V40.6399ZM41.8062 37.7298C41.1629 37.4165 40.5004 37.1274 39.8362 36.8691C39.7529 36.8391 39.6765 36.7928 39.6116 36.7332C39.5466 36.6735 39.4944 36.6016 39.4579 36.5216C39.4215 36.4417 39.4016 36.3554 39.3994 36.2677C39.3972 36.18 39.4128 36.0928 39.4452 36.0112C39.4776 35.9296 39.5261 35.8552 39.588 35.7924C39.6499 35.7297 39.7239 35.6797 39.8056 35.6456C39.8873 35.6115 39.9751 35.5939 40.0637 35.5939C40.1524 35.5938 40.2402 35.6112 40.322 35.6452C41.0184 35.9155 41.7148 36.2202 42.3947 36.5507C42.4733 36.5887 42.5436 36.6416 42.6015 36.7065C42.6593 36.7714 42.7037 36.847 42.7319 36.9289C42.7601 37.0108 42.7717 37.0974 42.766 37.1838C42.7602 37.2701 42.7373 37.3545 42.6985 37.432C42.6871 37.4553 42.674 37.4778 42.6593 37.4992C42.5707 37.6346 42.4347 37.733 42.2773 37.7756C42.1199 37.8182 41.9522 37.8019 41.8062 37.7298V37.7298ZM36.496 35.8363C35.7996 35.6728 35.0892 35.5368 34.3824 35.4326C34.2109 35.4037 34.0577 35.3095 33.9556 35.1702C33.8535 35.031 33.8107 34.8577 33.8364 34.6876C33.862 34.5174 33.954 34.364 34.0927 34.2602C34.2314 34.1563 34.4057 34.1104 34.5782 34.1321C35.3234 34.2423 36.0721 34.3852 36.8042 34.5625C36.9757 34.6029 37.1239 34.709 37.2163 34.8575C37.3087 35.006 37.3377 35.1847 37.2969 35.3543C37.2801 35.4273 37.2507 35.4969 37.2098 35.56C37.1344 35.6722 37.0258 35.7588 36.8989 35.8079C36.772 35.857 36.6328 35.8663 36.5004 35.8346L36.496 35.8363ZM30.8942 35.1624C30.1786 35.1563 29.4543 35.1804 28.7414 35.2347C28.5657 35.248 28.3918 35.1918 28.258 35.0784C28.1918 35.0223 28.1374 34.9538 28.0979 34.8768C28.0584 34.7999 28.0347 34.716 28.028 34.63C28.0213 34.544 28.0318 34.4575 28.0589 34.3755C28.086 34.2935 28.1292 34.2176 28.186 34.1521C28.3007 34.0198 28.4638 33.938 28.6395 33.9247C29.3899 33.867 30.1525 33.8386 30.9029 33.8472C31.0793 33.8487 31.2478 33.9194 31.3715 34.0438C31.4952 34.1681 31.5638 34.336 31.5623 34.5104C31.5608 34.6848 31.4893 34.8515 31.3635 34.9737C31.2377 35.096 31.068 35.1639 30.8916 35.1624H30.8942ZM25.288 35.7365C24.5916 35.8879 23.8899 36.0695 23.2057 36.2796C23.1223 36.305 23.0345 36.314 22.9476 36.306C22.8606 36.298 22.7761 36.2731 22.6989 36.2328C22.6216 36.1925 22.5532 36.1375 22.4974 36.071C22.4417 36.0045 22.3997 35.9278 22.3739 35.8453C22.3481 35.7628 22.3391 35.6761 22.3472 35.5901C22.3553 35.5041 22.3805 35.4206 22.4212 35.3442C22.462 35.2678 22.5176 35.2002 22.5849 35.145C22.6521 35.0899 22.7297 35.0484 22.8131 35.0229C23.533 34.8035 24.2704 34.6115 25.0042 34.4523C25.0906 34.4307 25.1806 34.4265 25.2687 34.44C25.3568 34.4534 25.4413 34.4843 25.5171 34.5306C25.5929 34.577 25.6585 34.638 25.71 34.71C25.7615 34.7819 25.7979 34.8633 25.8169 34.9495C25.8359 35.0356 25.8372 35.1246 25.8208 35.2112C25.8043 35.2979 25.7704 35.3803 25.7211 35.4537C25.6717 35.5272 25.608 35.59 25.5336 35.6386C25.4592 35.6872 25.3757 35.7204 25.288 35.7365V35.7365ZM19.9404 37.5302C19.2927 37.8297 18.6503 38.1611 18.0304 38.5148C17.8773 38.6019 17.6954 38.6252 17.5248 38.5797C17.3541 38.5342 17.2088 38.4235 17.1207 38.2721C17.0327 38.1206 17.009 37.9408 17.0551 37.7721C17.1011 37.6034 17.213 37.4597 17.3662 37.3727C18.0183 37.0008 18.6947 36.6522 19.3763 36.3398C19.535 36.2721 19.7141 36.2681 19.8757 36.3287C20.0374 36.3893 20.1688 36.5098 20.2421 36.6645C20.3155 36.8193 20.325 36.9962 20.2687 37.1578C20.2123 37.3194 20.0946 37.4529 19.9404 37.5302V37.5302ZM4.95603 56.9261C4.78176 56.9 4.62511 56.8065 4.52048 56.6663C4.41585 56.526 4.37181 56.3505 4.39803 56.1781C4.51032 55.4431 4.65918 54.702 4.83329 53.9773C4.87874 53.8124 4.9874 53.6714 5.13621 53.5843C5.28503 53.4972 5.4623 53.4709 5.63044 53.5108C5.79857 53.5508 5.94436 53.6539 6.03687 53.7984C6.12939 53.9428 6.16136 54.1172 6.12601 54.2846C5.958 54.9732 5.81959 55.6763 5.71339 56.3744C5.70031 56.4598 5.67034 56.5418 5.6252 56.6157C5.58006 56.6897 5.52063 56.7541 5.4503 56.8054C5.37997 56.8566 5.30012 56.8936 5.21531 56.9143C5.1305 56.9351 5.0424 56.939 4.95603 56.9261V56.9261ZM15.1325 40.4419C14.5692 40.8723 14.0173 41.3405 13.4941 41.819C13.3642 41.9337 13.1939 41.9934 13.0199 41.9853C12.846 41.9772 12.6821 41.9019 12.5637 41.7757C12.4452 41.6494 12.3816 41.4823 12.3864 41.3101C12.3913 41.138 12.4643 40.9746 12.5897 40.8551C13.1407 40.349 13.7213 39.8601 14.315 39.4022C14.3837 39.3469 14.4628 39.3058 14.5478 39.2812C14.6327 39.2566 14.7218 39.249 14.8097 39.2588C14.8977 39.2687 14.9828 39.2958 15.06 39.3386C15.1372 39.3814 15.205 39.439 15.2594 39.508C15.3138 39.5771 15.3538 39.6562 15.3769 39.7407C15.4 39.8251 15.4058 39.9133 15.3939 40.0001C15.3821 40.0868 15.3529 40.1703 15.308 40.2458C15.2631 40.3212 15.2034 40.387 15.1325 40.4393V40.4419ZM6.31666 51.3574C6.15264 51.2933 6.02107 51.1675 5.95087 51.0075C5.88068 50.8475 5.87761 50.6666 5.94234 50.5044C6.21829 49.8158 6.52733 49.1273 6.86248 48.4559C6.94413 48.3054 7.08181 48.1922 7.2464 48.1402C7.41098 48.0883 7.58954 48.1017 7.74429 48.1777C7.89904 48.2536 8.01782 48.3861 8.07551 48.5471C8.13319 48.7081 8.12525 48.885 8.05336 49.0403C7.73562 49.6747 7.44399 50.3314 7.18283 50.9872C7.1173 51.1488 6.98994 51.2783 6.82842 51.3476C6.6669 51.4169 6.48425 51.4204 6.32014 51.3574H6.31666ZM11.1045 44.3452C10.6545 44.8935 10.2218 45.4641 9.81878 46.0528C9.77048 46.1247 9.70834 46.1864 9.63592 46.2345C9.56349 46.2826 9.4822 46.3161 9.39667 46.3331C9.31115 46.3501 9.22307 46.3503 9.13747 46.3337C9.05187 46.3171 8.97041 46.2839 8.89776 46.2362C8.82511 46.1884 8.76269 46.127 8.71406 46.0554C8.66542 45.9838 8.63152 45.9034 8.61431 45.8188C8.59709 45.7343 8.59688 45.6472 8.6137 45.5625C8.63053 45.4779 8.66405 45.3974 8.71235 45.3255C8.71412 45.3211 8.71678 45.317 8.72018 45.3135C9.14325 44.6972 9.59853 44.093 10.073 43.5155C10.179 43.3803 10.3341 43.2913 10.5054 43.2674C10.6767 43.2434 10.8507 43.2864 10.9904 43.3872C11.1302 43.488 11.2248 43.6386 11.254 43.8072C11.2833 43.9758 11.245 44.149 11.1472 44.2901C11.1341 44.3073 11.1202 44.3297 11.1045 44.3452V44.3452Z" fill="#91B3FA"/>
<path d="M5.33597 61.2405C5.41003 61.1284 5.44741 60.9965 5.44304 60.8627C5.43172 60.5236 5.42824 60.1793 5.43172 59.8384C5.43334 59.664 5.36482 59.4961 5.24124 59.3717C5.11765 59.2472 4.94912 59.1764 4.77273 59.1748C4.59634 59.1732 4.42654 59.241 4.30067 59.3632C4.1748 59.4854 4.10318 59.652 4.10156 59.8264C4.10156 60.1844 4.10156 60.5468 4.11375 60.904C4.11952 61.0428 4.16961 61.1763 4.25686 61.2852C4.3441 61.3941 4.46401 61.473 4.59937 61.5103C4.73473 61.5477 4.87858 61.5417 5.01029 61.4933C5.142 61.4448 5.25479 61.3563 5.33249 61.2405H5.33597Z" fill="#91B3FA"/>
</g>
<g opacity="0.3">
<path d="M13.8363 79.4363C13.922 79.3051 13.9577 79.1481 13.9371 78.9933C13.9166 78.8384 13.841 78.6959 13.724 78.5911C13.4698 78.3638 13.2156 78.128 12.9701 77.8887C12.9084 77.8255 12.8345 77.775 12.7528 77.7405C12.6711 77.7059 12.5832 77.6879 12.4943 77.6875C12.4054 77.6871 12.3173 77.7043 12.2353 77.7381C12.1533 77.772 12.0789 77.8217 12.0166 77.8844C11.9544 77.9471 11.9054 78.0216 11.8728 78.1033C11.8401 78.185 11.8243 78.2724 11.8263 78.3603C11.8284 78.4481 11.8482 78.5347 11.8847 78.6148C11.9212 78.695 11.9735 78.7671 12.0386 78.8269C12.2998 79.0782 12.561 79.327 12.8326 79.5662C12.9041 79.6298 12.9887 79.6772 13.0805 79.7054C13.1724 79.7335 13.2693 79.7417 13.3646 79.7294C13.46 79.717 13.5515 79.6844 13.6329 79.6338C13.7143 79.5833 13.7837 79.5159 13.8363 79.4363V79.4363Z" fill="#91B3FA"/>
<path d="M52.175 75.4999C52.0708 75.6387 51.9155 75.7314 51.7427 75.7578C51.57 75.7843 51.3936 75.7424 51.2518 75.6412C51.11 75.5401 51.0142 75.3878 50.9852 75.2174C50.9561 75.0469 50.9961 74.872 51.0964 74.7305C51.5056 74.1701 51.8973 73.5831 52.2647 72.9815C52.308 72.9043 52.3666 72.8365 52.4371 72.7821C52.5075 72.7278 52.5883 72.688 52.6746 72.6652C52.7609 72.6424 52.851 72.637 52.9394 72.6494C53.0279 72.6618 53.1129 72.6917 53.1895 72.7373C53.266 72.7828 53.3324 72.8432 53.3848 72.9147C53.4373 72.9863 53.4746 73.0675 53.4945 73.1536C53.5145 73.2397 53.5167 73.3289 53.501 73.4158C53.4854 73.5028 53.4521 73.5858 53.4033 73.6597C53.2437 73.9214 53.0809 74.1796 52.915 74.4344C52.6773 74.7941 52.4283 75.1531 52.175 75.4999ZM54.1859 70.8177C54.0247 70.7488 53.8976 70.6196 53.8323 70.4583C53.7671 70.2971 53.769 70.1169 53.8377 69.957C54.1172 69.3175 54.3713 68.6582 54.5951 67.9998C54.6205 67.9151 54.6628 67.8364 54.7196 67.7683C54.7765 67.7002 54.8466 67.6441 54.9258 67.6033C55.005 67.5626 55.0917 67.538 55.1807 67.5311C55.2698 67.5242 55.3593 67.5351 55.4439 67.5631C55.5286 67.5912 55.6067 67.6358 55.6736 67.6943C55.7404 67.7528 55.7947 67.8241 55.8331 67.9038C55.8715 67.9835 55.8933 68.07 55.8972 68.1582C55.901 68.2464 55.8869 68.3345 55.8556 68.4172C55.6205 69.1109 55.3524 69.8038 55.0591 70.4777C55.044 70.5119 55.026 70.5448 55.0051 70.5758C54.9192 70.7051 54.7899 70.8002 54.6401 70.8444C54.4902 70.8886 54.3294 70.8792 54.1859 70.8177V70.8177ZM49.8585 78.2533C49.3475 78.7826 48.8069 79.2973 48.2507 79.7828C48.1858 79.8429 48.1093 79.8895 48.0259 79.9199C47.9424 79.9503 47.8537 79.9639 47.7648 79.9598C47.676 79.9556 47.5889 79.9339 47.5087 79.8959C47.4284 79.858 47.3568 79.8045 47.2978 79.7386C47.2389 79.6727 47.1939 79.5958 47.1656 79.5125C47.1372 79.4292 47.1261 79.341 47.1328 79.2533C47.1395 79.1657 47.1639 79.0802 47.2046 79.002C47.2453 78.9238 47.3014 78.8545 47.3697 78.7981C47.8981 78.3368 48.4143 77.8514 48.8966 77.3461C49.0106 77.2268 49.1656 77.1539 49.3312 77.1419C49.4968 77.13 49.6609 77.1798 49.7912 77.2815C49.9216 77.3832 50.0086 77.5295 50.0352 77.6916C50.0619 77.8536 50.0262 78.0196 49.9351 78.1569C49.9129 78.1915 49.8872 78.2238 49.8585 78.2533V78.2533ZM55.9923 65.4702C55.9064 65.4543 55.8246 65.4219 55.7515 65.3748C55.6783 65.3277 55.6153 65.2668 55.566 65.1956C55.5166 65.1243 55.482 65.0442 55.464 64.9597C55.4461 64.8753 55.4451 64.7881 55.4612 64.7033C55.5909 64.0147 55.6928 63.3261 55.7642 62.6298C55.773 62.544 55.7988 62.4607 55.8402 62.3847C55.8815 62.3087 55.9376 62.2416 56.0052 62.187C56.0728 62.1325 56.1507 62.0916 56.2343 62.0668C56.3178 62.042 56.4056 62.0337 56.4924 62.0424C56.5792 62.0511 56.6634 62.0766 56.7403 62.1175C56.8171 62.1584 56.8851 62.2139 56.9403 62.2807C56.9954 62.3476 57.0367 62.4245 57.0618 62.5072C57.0869 62.5898 57.0953 62.6765 57.0865 62.7624C57.0116 63.4905 56.9046 64.2256 56.7679 64.9451C56.7518 65.0296 56.7196 65.1102 56.673 65.1827C56.601 65.2917 56.4978 65.3772 56.3767 65.4284C56.2555 65.4796 56.1218 65.4941 55.9923 65.4702V65.4702ZM45.3797 81.9638C44.7642 82.3683 44.1227 82.7522 43.4724 83.1051C43.3959 83.1466 43.3119 83.1729 43.2252 83.1823C43.1384 83.1917 43.0507 83.1842 42.9669 83.1601C42.8831 83.136 42.8049 83.0958 42.7368 83.0419C42.6688 82.9879 42.6121 82.9212 42.5701 82.8456C42.5281 82.77 42.5015 82.6869 42.492 82.6012C42.4824 82.5154 42.4901 82.4286 42.5144 82.3458C42.5388 82.2629 42.5794 82.1857 42.634 82.1184C42.6886 82.051 42.7561 81.995 42.8325 81.9535C43.4497 81.6178 44.0591 81.2529 44.6441 80.8681C44.7168 80.8193 44.7986 80.7853 44.8848 80.768C44.9709 80.7507 45.0597 80.7504 45.1459 80.7672C45.2321 80.784 45.3142 80.8175 45.3872 80.8658C45.4603 80.9141 45.5229 80.9763 45.5715 81.0487C45.6201 81.1211 45.6537 81.2023 45.6704 81.2876C45.6871 81.373 45.6865 81.4607 45.6686 81.5458C45.6508 81.6309 45.6161 81.7117 45.5665 81.7834C45.5169 81.8551 45.4534 81.9165 45.3797 81.9638V81.9638ZM40.187 84.6113C39.4958 84.8695 38.7846 85.1105 38.0742 85.3145C37.9057 85.3608 37.7255 85.3395 37.5726 85.2553C37.4198 85.1711 37.3067 85.0307 37.2578 84.8647C37.2089 84.6986 37.2282 84.5201 37.3114 84.368C37.3947 84.2159 37.5352 84.1023 37.7025 84.0519C38.3781 83.8582 39.0536 83.6327 39.7108 83.384C39.793 83.35 39.8811 83.3327 39.9702 83.333C40.0592 83.3334 40.1472 83.3514 40.2291 83.386C40.3109 83.4206 40.3849 83.4711 40.4466 83.5345C40.5084 83.5979 40.5566 83.6729 40.5885 83.7551C40.6204 83.8372 40.6353 83.9249 40.6322 84.0129C40.6292 84.1008 40.6084 84.1873 40.5709 84.2672C40.5335 84.347 40.4802 84.4186 40.4143 84.4777C40.3483 84.5368 40.271 84.5823 40.187 84.6113V84.6113ZM34.5338 86.0745C33.8008 86.1821 33.0539 86.2596 32.3157 86.306C32.143 86.312 31.9747 86.2512 31.8465 86.1366C31.7183 86.0219 31.6403 85.8624 31.629 85.6919C31.6176 85.5214 31.6739 85.3532 31.7859 85.223C31.8978 85.0928 32.0566 85.0108 32.2287 84.9943C32.9303 84.9504 33.6389 84.8764 34.3362 84.774C34.4238 84.7587 34.5136 84.7608 34.6003 84.7804C34.6871 84.8 34.7689 84.8366 34.8411 84.888C34.9132 84.9394 34.9742 85.0046 35.0205 85.0798C35.0667 85.1549 35.0972 85.2385 35.1102 85.3255C35.1232 85.4125 35.1184 85.5012 35.0961 85.5863C35.0738 85.6715 35.0344 85.7513 34.9804 85.8212C34.9263 85.891 34.8586 85.9494 34.7813 85.9929C34.704 86.0364 34.6187 86.0642 34.5303 86.0745H34.5338ZM28.6917 86.2871C27.9527 86.2337 27.2066 86.1477 26.4754 86.0289C26.3869 86.0179 26.3015 85.9894 26.2243 85.9451C26.1471 85.9008 26.0798 85.8417 26.0262 85.7711C25.9727 85.7005 25.934 85.6201 25.9126 85.5344C25.8912 85.4488 25.8874 85.3598 25.9015 85.2727C25.9155 85.1856 25.9472 85.1021 25.9946 85.0274C26.0419 84.9526 26.104 84.888 26.1771 84.8375C26.2503 84.787 26.3329 84.7515 26.4202 84.7332C26.5075 84.7149 26.5976 84.7141 26.6852 84.731C27.3816 84.8403 28.0876 84.922 28.7901 84.9728C28.9618 84.991 29.1195 85.0745 29.2301 85.2055C29.3406 85.3366 29.3953 85.5051 29.3825 85.6753C29.3698 85.8455 29.2905 86.0042 29.1616 86.1177C29.0327 86.2312 28.8642 86.2907 28.6917 86.2837V86.2871ZM22.9402 85.2293C22.2333 85.0167 21.5256 84.7705 20.837 84.4986C20.6732 84.4338 20.5421 84.3075 20.4725 84.1472C20.403 83.9869 20.4007 83.8059 20.4662 83.6439C20.5316 83.4819 20.6594 83.3523 20.8216 83.2836C20.9837 83.2148 21.1668 83.2125 21.3306 83.2772C21.9843 83.5354 22.6564 83.7695 23.3328 83.9718C23.5015 84.0229 23.6428 84.138 23.7257 84.2919C23.8086 84.4459 23.8263 84.6261 23.775 84.7929C23.7567 84.8516 23.7304 84.9075 23.6967 84.959C23.6178 85.0797 23.5011 85.1714 23.3645 85.2203C23.2279 85.2691 23.0788 85.2723 22.9402 85.2293V85.2293ZM17.5725 82.9476C17.0981 82.6816 16.6263 82.3985 16.1701 82.1058C16.0047 81.9991 15.8419 81.8915 15.6791 81.7822C15.6064 81.7341 15.544 81.6721 15.4958 81.6C15.4475 81.5278 15.4143 81.4468 15.3981 81.3617C15.3819 81.2767 15.383 81.1893 15.4014 81.1047C15.4197 81.0201 15.455 80.94 15.505 80.869C15.6048 80.7253 15.7581 80.6265 15.9313 80.5943C16.1046 80.562 16.2837 80.5989 16.4295 80.6968C16.5827 80.8001 16.7386 80.9034 16.8953 81.0041C17.3305 81.283 17.778 81.5515 18.2289 81.8046C18.3823 81.8906 18.4948 82.0332 18.5419 82.2012C18.5889 82.3693 18.5665 82.5489 18.4796 82.7006C18.4726 82.7118 18.4657 82.7238 18.4579 82.735C18.3655 82.8749 18.2228 82.9747 18.0586 83.0142C17.8945 83.0537 17.7213 83.0299 17.5743 82.9476H17.5725Z" fill="#91B3FA"/>
<path d="M57.0959 59.5453C57.1707 59.4319 57.2081 59.2984 57.203 59.1631C57.19 58.8076 57.1691 58.4461 57.1412 58.0872C57.1237 57.9164 57.0393 57.7592 56.906 57.6491C56.7728 57.539 56.6013 57.4848 56.4282 57.4981C56.255 57.5113 56.094 57.591 55.9795 57.7201C55.865 57.8491 55.8061 58.0174 55.8154 58.1888C55.8424 58.5331 55.8615 58.8774 55.8746 59.2113C55.8803 59.3502 55.9305 59.4838 56.0179 59.5927C56.1053 59.7016 56.2254 59.7803 56.3609 59.8174C56.4964 59.8546 56.6403 59.8482 56.7719 59.7993C56.9036 59.7504 57.0161 59.6615 57.0933 59.5453H57.0959Z" fill="#91B3FA"/>
</g>
<path d="M48.7542 51.8629C48.7346 51.802 48.6962 51.7486 48.6443 51.7103C48.5925 51.6721 48.5299 51.6508 48.4652 51.6495L44.6845 51.5634C43.7643 50.0445 42.5996 48.6842 41.2363 47.5362L41.7761 43.8351C41.785 43.7718 41.7739 43.7073 41.7443 43.6504C41.7147 43.5935 41.668 43.5471 41.6107 43.5175L37.5766 41.4717C37.5192 41.4424 37.454 41.4315 37.39 41.4406C37.326 41.4497 37.2665 41.4783 37.2197 41.5224L34.4889 44.1045C32.7514 43.6762 30.9548 43.5308 29.17 43.6742L26.9066 40.6798C26.8675 40.6278 26.8128 40.5894 26.7503 40.5699C26.6878 40.5504 26.6206 40.5509 26.5584 40.5714L22.2406 41.9382C22.179 41.9577 22.1251 41.9957 22.0864 42.0469C22.0477 42.0981 22.0262 42.16 22.0247 42.2239L21.9429 45.9645C20.4065 46.8749 19.0305 48.0267 17.8688 49.3746L14.1256 48.841C14.0616 48.8317 13.9963 48.8424 13.9388 48.8718C13.8813 48.9011 13.8346 48.9475 13.8052 49.0045L11.729 52.9922C11.6993 53.0489 11.6882 53.1135 11.6975 53.1768C11.7067 53.24 11.7357 53.2989 11.7804 53.345L14.392 56.0451C13.9587 57.763 13.8117 59.5393 13.9567 61.304L10.9281 63.5418C10.8757 63.5806 10.8369 63.6347 10.8172 63.6964C10.7975 63.7582 10.7979 63.8246 10.8185 63.8861L12.2026 68.1569C12.2223 68.2178 12.2608 68.271 12.3126 68.3093C12.3644 68.3476 12.427 68.3689 12.4916 68.3703L16.2732 68.4564C17.1942 69.9722 18.3592 71.3293 19.7222 72.4742L19.1825 76.1752C19.1732 76.2386 19.1842 76.3032 19.2139 76.3601C19.2435 76.417 19.2903 76.4634 19.3479 76.4928L23.3819 78.5447C23.4393 78.574 23.5046 78.5848 23.5685 78.5757C23.6325 78.5666 23.692 78.538 23.7388 78.4939L26.4688 75.9118C28.2066 76.3402 30.0034 76.4855 31.7885 76.3422L34.0519 79.3365C34.0904 79.3878 34.1442 79.4258 34.2058 79.4453C34.2673 79.4647 34.3334 79.4646 34.3949 79.445L38.7153 78.0765C38.7768 78.0569 38.8306 78.0188 38.8693 77.9676C38.908 77.9164 38.9296 77.8546 38.9312 77.7907L39.0182 74.0527C40.5546 73.1423 41.9306 71.9905 43.0923 70.6426L46.8356 71.1762C46.8995 71.1854 46.9648 71.1746 47.0223 71.1453C47.0797 71.1159 47.1264 71.0696 47.1559 71.0127L49.2321 67.0251C49.2616 66.9682 49.2724 66.9036 49.2631 66.8404C49.2537 66.7771 49.2246 66.7183 49.1799 66.6722L46.5683 63.9721C47.0015 62.2542 47.1486 60.478 47.0036 58.7133L50.0321 56.4754C50.084 56.4372 50.1225 56.3838 50.1422 56.3229C50.1619 56.2619 50.1617 56.1963 50.1418 56.1355L48.7542 51.8629Z" fill="#91B3FA"/>
<path d="M33.902 62.9889C33.1213 63.8646 32.0277 64.4068 30.8511 64.5016C29.6744 64.5964 28.5064 64.2364 27.5927 63.4973C26.679 62.7582 26.0907 61.6975 25.9517 60.5384C25.8126 59.3793 26.1336 58.212 26.8471 57.2821C27.5605 56.3521 28.6109 55.732 29.7774 55.552C30.9438 55.372 32.1354 55.6462 33.1015 56.317C34.0677 56.9878 34.7331 58.0029 34.9579 59.1488C35.1826 60.2946 34.9492 61.4821 34.3068 62.4613C34.1847 62.6465 34.0495 62.8228 33.902 62.9889V62.9889ZM26.9926 60.2243C27.0425 61.0225 27.3706 61.7788 27.9213 62.3645C28.4719 62.9502 29.2108 63.3291 30.0123 63.4365C30.8137 63.5439 31.628 63.3733 32.3165 62.9537C33.005 62.5341 33.525 61.8915 33.788 61.1353C34.051 60.3791 34.0407 59.5562 33.7588 58.8067C33.477 58.0572 32.941 57.4274 32.2423 57.0248C31.5435 56.6222 30.7252 56.4716 29.9267 56.5986C29.1282 56.7256 28.3989 57.1224 27.8631 57.7214C27.749 57.8499 27.6443 57.9862 27.5497 58.1294C27.1402 58.7499 26.9447 59.4849 26.9926 60.2243V60.2243Z" fill="#BDD0FB"/>
<path d="M39.7759 66.0875C39.9854 65.7688 40.1786 65.4399 40.3548 65.102V65.102C40.4105 64.9953 40.4645 64.8877 40.5167 64.7784C40.7738 64.2429 40.9872 63.688 41.1548 63.1189C41.1575 63.1113 41.1599 63.1035 41.1618 63.0957C41.1687 63.0742 41.1748 63.0518 41.1809 63.0303C41.1931 62.9872 41.2053 62.9442 41.2166 62.9012C41.2312 62.8476 41.2283 62.7909 41.2083 62.7391C41.1883 62.6873 41.1522 62.6431 41.1052 62.6128C41.0815 62.5979 41.0557 62.5866 41.0286 62.5793C40.9605 62.5614 40.888 62.5709 40.827 62.6057C40.7659 62.6406 40.7214 62.6979 40.703 62.7652C40.2651 64.3762 39.4476 65.8618 38.3175 67.1005C37.1873 68.3392 35.7766 69.2957 34.2007 69.8918C32.6249 70.4879 30.9287 70.7066 29.2509 70.5301C27.5732 70.3536 25.9615 69.7868 24.5478 68.8762C23.2094 68.0119 22.0843 66.8616 21.2554 65.51C20.4266 64.1585 19.9151 62.6403 19.7588 61.0673C19.6025 59.4943 19.8054 57.9067 20.3524 56.4216C20.8994 54.9364 21.7766 53.5916 22.9193 52.4863C24.062 51.381 25.4411 50.5434 26.9548 50.0354C28.4686 49.5273 30.0784 49.3617 31.6655 49.5507C33.2526 49.7397 34.7766 50.2786 36.125 51.1276C37.4734 51.9766 38.6119 53.114 39.4564 54.456C39.4936 54.5152 39.553 54.5574 39.6217 54.5733C39.6903 54.5892 39.7626 54.5775 39.8225 54.5407C39.8824 54.504 39.9251 54.4452 39.9412 54.3773C39.9572 54.3095 39.9454 54.2381 39.9082 54.1788C38.8365 52.4772 37.3189 51.0942 35.5164 50.1765C30.0191 47.3793 23.242 49.5267 20.4163 54.9603C19.1471 57.3992 18.8373 60.2167 19.5467 62.8682C20.2561 65.5198 21.9343 67.8173 24.2571 69.3169C24.5797 69.524 24.9127 69.715 25.2547 69.8892C27.7215 71.1446 30.5715 71.4512 33.2537 70.7496C35.9358 70.048 38.2597 68.3882 39.7759 66.0909V66.0875Z" fill="#BDD0FB"/>
<g opacity="0.3">
<path d="M74.5914 31.2147C74.6396 31.1416 74.6627 31.0551 74.6573 30.968C74.652 30.8809 74.6185 30.7978 74.5618 30.731C74.3346 30.4728 74.0961 30.2145 73.8541 29.9632C73.7774 29.8902 73.6751 29.8495 73.5686 29.8496C73.4621 29.8497 73.3599 29.8907 73.2834 29.9639C73.2069 30.0371 73.1621 30.1368 73.1584 30.242C73.1548 30.3472 73.1926 30.4497 73.2639 30.5278C73.4946 30.7637 73.7218 31.0098 73.9385 31.2594C73.9799 31.3075 74.0321 31.3453 74.0909 31.3699C74.1497 31.3945 74.2135 31.4051 74.2772 31.4009C74.3409 31.3967 74.4028 31.3779 74.4578 31.3458C74.5128 31.3138 74.5594 31.2695 74.594 31.2164L74.5914 31.2147Z" fill="#91B3FA"/>
<path d="M72.2977 29.0741C72.2291 29.1579 72.1298 29.2113 72.0214 29.2228C71.9131 29.2342 71.8045 29.2027 71.7196 29.1352C71.2726 28.7792 70.8078 28.4457 70.3268 28.136C70.2258 28.0705 70.1231 28.0069 70.0195 27.9432C69.9271 27.8863 69.8614 27.7956 69.8366 27.6909C69.8117 27.5862 69.83 27.476 69.8872 27.3846C69.9472 27.2959 70.039 27.2331 70.144 27.2088C70.249 27.1846 70.3595 27.2006 70.453 27.2537C70.561 27.3197 70.668 27.3869 70.7742 27.4551C71.2796 27.7796 71.7677 28.1295 72.2367 28.5035C72.3158 28.5664 72.3684 28.656 72.3845 28.755C72.4006 28.8541 72.3789 28.9555 72.3238 29.0397C72.3151 29.0517 72.3072 29.0629 72.2977 29.0741ZM68.1827 26.9654C67.5514 26.6766 66.9028 26.4262 66.2405 26.2157C66.1891 26.1995 66.1414 26.1733 66.1002 26.1388C66.0589 26.1043 66.025 26.0621 66.0003 26.0147C65.9755 25.9672 65.9605 25.9154 65.956 25.8621C65.9515 25.8089 65.9577 25.7553 65.9742 25.7045C65.9906 25.6536 66.0171 25.6065 66.052 25.5657C66.0869 25.5249 66.1295 25.4914 66.1775 25.4669C66.2256 25.4424 66.278 25.4276 66.3318 25.4232C66.3856 25.4187 66.4398 25.4248 66.4913 25.4411C67.1857 25.6612 67.8657 25.9237 68.5274 26.2269C68.6262 26.2726 68.7027 26.3552 68.7399 26.4565C68.7771 26.5579 68.7721 26.6697 68.7259 26.7674C68.6797 26.8651 68.5962 26.9407 68.4937 26.9775C68.3911 27.0143 68.278 27.0093 68.1792 26.9637L68.1827 26.9654ZM64.2183 25.7096C63.5345 25.5829 62.8435 25.4981 62.1491 25.4557C62.0944 25.4536 62.0408 25.4406 61.9912 25.4177C61.9417 25.3947 61.8973 25.3623 61.8606 25.3221C61.824 25.282 61.7958 25.235 61.7777 25.184C61.7597 25.1329 61.7521 25.0788 61.7554 25.0248C61.7588 24.9709 61.773 24.9181 61.7973 24.8696C61.8216 24.8211 61.8554 24.778 61.8967 24.7426C61.9381 24.7072 61.9862 24.6803 62.0382 24.6636C62.0902 24.6468 62.1451 24.6405 62.1996 24.6449C62.9279 24.6894 63.6527 24.7785 64.3698 24.9118C64.4228 24.9216 64.4734 24.9417 64.5186 24.9708C64.5638 25 64.6028 25.0376 64.6332 25.0817C64.6637 25.1257 64.6851 25.1753 64.6962 25.2275C64.7073 25.2797 64.7079 25.3336 64.698 25.386C64.6881 25.4379 64.668 25.4873 64.6388 25.5315C64.5945 25.5989 64.531 25.6518 64.4563 25.6835C64.3816 25.7152 64.2991 25.7243 64.2192 25.7096H64.2183ZM60.0633 25.4557C59.3693 25.4989 58.6785 25.5837 57.9949 25.7096C57.941 25.722 57.885 25.7234 57.8305 25.7138C57.776 25.7042 57.7239 25.6838 57.6776 25.6538C57.6312 25.6238 57.5915 25.5849 57.5607 25.5394C57.53 25.4938 57.5088 25.4426 57.4986 25.3888C57.4884 25.3349 57.4893 25.2796 57.5013 25.2261C57.5132 25.1727 57.536 25.1221 57.5682 25.0776C57.6004 25.033 57.6414 24.9954 57.6887 24.9669C57.736 24.9384 57.7886 24.9196 57.8435 24.9118C58.5603 24.7788 59.2848 24.6899 60.0128 24.6458C60.1214 24.6392 60.2283 24.6755 60.3098 24.7468C60.3914 24.818 60.4409 24.9184 60.4476 25.0258C60.4543 25.1332 60.4176 25.2388 60.3455 25.3195C60.2734 25.4001 60.1719 25.4491 60.0633 25.4557V25.4557ZM55.9718 26.2123C55.3091 26.4207 54.6599 26.669 54.028 26.9559C53.9289 27.0009 53.8159 27.0051 53.7137 26.9677C53.6115 26.9302 53.5285 26.8542 53.483 26.7563C53.4375 26.6583 53.4332 26.5465 53.4711 26.4455C53.509 26.3445 53.5859 26.2624 53.685 26.2175C54.3479 25.917 55.0287 25.6569 55.7237 25.4385C55.7752 25.4224 55.8293 25.4165 55.8831 25.4211C55.9369 25.4256 55.9892 25.4407 56.0371 25.4652C56.085 25.4898 56.1275 25.5235 56.1622 25.5643C56.197 25.6051 56.2232 25.6523 56.2395 25.7032C56.2558 25.754 56.2618 25.8076 56.2572 25.8607C56.2525 25.9139 56.2374 25.9656 56.2125 26.013C56.1876 26.0603 56.1536 26.1024 56.1123 26.1367C56.071 26.1711 56.0233 26.197 55.9718 26.2132V26.2123ZM52.1885 27.9285C51.5972 28.2896 51.0291 28.6865 50.4875 29.1172C50.4024 29.1829 50.2945 29.2129 50.1872 29.2006C50.0799 29.1883 49.9818 29.1347 49.9142 29.0514C49.8465 28.9681 49.8148 28.8618 49.8258 28.7556C49.8368 28.6493 49.8897 28.5517 49.9731 28.4837C50.5412 28.0325 51.1369 27.6162 51.7568 27.2374C51.8361 27.1891 51.9297 27.1688 52.0223 27.1801C52.1148 27.1913 52.2007 27.2333 52.2659 27.2991C52.3311 27.365 52.3717 27.4508 52.381 27.5425C52.3904 27.6342 52.3679 27.7263 52.3174 27.8037C52.2844 27.8544 52.2404 27.897 52.1885 27.9285V27.9285ZM48.9476 30.5055C48.4635 30.9995 48.0109 31.5227 47.5922 32.072C47.5256 32.1555 47.4286 32.2098 47.3219 32.2234C47.2153 32.237 47.1075 32.2087 47.0217 32.1446C46.9359 32.0805 46.879 31.9857 46.8631 31.8806C46.8472 31.7754 46.8736 31.6683 46.9367 31.5822C47.3762 31.0066 47.8509 30.4582 48.3582 29.94C48.4293 29.8677 48.525 29.8241 48.6267 29.8177C48.7285 29.8113 48.829 29.8425 48.9088 29.9053C48.9885 29.968 49.0419 30.0579 49.0584 30.1574C49.0749 30.2568 49.0534 30.3588 48.9981 30.4435C48.9836 30.4652 48.9676 30.486 48.9502 30.5055H48.9476ZM44.9754 35.853C44.8751 35.8111 44.7958 35.7315 44.7548 35.6318C44.7138 35.532 44.7146 35.4203 44.7569 35.3211C45.0048 34.7446 45.2829 34.1812 45.59 33.6333C45.637 33.5472 45.684 33.468 45.7319 33.3854C45.7586 33.3389 45.7944 33.2981 45.8372 33.2654C45.88 33.2327 45.9289 33.2088 45.9812 33.195C46.0335 33.1812 46.088 33.1778 46.1416 33.1851C46.1952 33.1924 46.2468 33.2101 46.2933 33.2373C46.3875 33.2915 46.4561 33.3803 46.4842 33.4843C46.5122 33.5884 46.4974 33.6992 46.4431 33.7925C46.3978 33.8691 46.356 33.9466 46.309 34.0266C46.016 34.5489 45.7513 35.0861 45.516 35.6361C45.5066 35.658 45.4952 35.6791 45.482 35.699C45.4298 35.7792 45.3506 35.8386 45.2584 35.8668C45.1662 35.895 45.0669 35.8901 44.978 35.853H44.9754Z" fill="#91B3FA"/>
</g>
<g opacity="0.3">
<path d="M75.8298 51.9079C75.4314 52.4974 74.9974 53.0624 74.5301 53.6001C74.4585 53.6797 74.3581 53.7284 74.2506 53.7355C74.1431 53.7427 74.037 53.7078 73.9553 53.6384C73.8735 53.569 73.8226 53.4705 73.8135 53.3644C73.8045 53.2582 73.838 53.1528 73.9068 53.0708C74.3529 52.5581 74.7672 52.0192 75.1473 51.4569C75.2087 51.3706 75.3018 51.3112 75.4067 51.2915C75.5116 51.2718 75.6202 51.2933 75.7094 51.3514C75.7986 51.4095 75.8614 51.4996 75.8845 51.6027C75.9076 51.7058 75.8893 51.8137 75.8333 51.9036L75.8298 51.9079ZM76.3634 50.2502C76.3153 50.2262 76.2725 50.1931 76.2374 50.1527C76.2023 50.1123 76.1756 50.0654 76.1589 50.0148C76.1421 49.9642 76.1357 49.9108 76.1398 49.8577C76.144 49.8046 76.1588 49.7529 76.1832 49.7054C76.4926 49.1014 76.7652 48.4798 76.9998 47.8437C77.0404 47.7472 77.1172 47.6699 77.2141 47.6279C77.3109 47.5859 77.4204 47.5824 77.5198 47.6182C77.6192 47.6541 77.7007 47.7264 77.7475 47.8202C77.7943 47.9139 77.8028 48.022 77.7711 48.1217C77.5256 48.7882 77.2399 49.4395 76.9153 50.0721C76.9088 50.0851 76.9015 50.0977 76.8936 50.1099C76.8384 50.194 76.7536 50.2548 76.6557 50.2807C76.5578 50.3066 76.4537 50.2958 76.3634 50.2502ZM73.0302 55.1253C72.4988 55.602 71.939 56.0466 71.3536 56.4568C71.2645 56.5143 71.1564 56.5355 71.0519 56.5158C70.9475 56.4962 70.8548 56.4373 70.7933 56.3514C70.7319 56.2656 70.7065 56.1596 70.7225 56.0556C70.7385 55.9517 70.7946 55.8579 70.8791 55.794C71.4374 55.4026 71.9714 54.9783 72.4783 54.5236C72.5519 54.4566 72.6479 54.4186 72.7479 54.4167C72.848 54.4148 72.9453 54.4492 73.0215 54.5133C73.0978 54.5775 73.1476 54.667 73.1617 54.7649C73.1758 54.8629 73.1532 54.9626 73.0981 55.0452C73.0791 55.0747 73.0563 55.1017 73.0302 55.1253ZM77.8895 46.3865C77.7834 46.3621 77.6914 46.2972 77.6336 46.2059C77.5759 46.1146 77.557 46.0044 77.5813 45.8994C77.7351 45.2401 77.8479 44.5721 77.919 43.8991C77.9228 43.8446 77.9377 43.7914 77.9627 43.7427C77.9878 43.6939 78.0225 43.6507 78.0648 43.6156C78.1072 43.5804 78.1563 43.5541 78.2091 43.5382C78.262 43.5222 78.3176 43.517 78.3725 43.5228C78.4275 43.5286 78.4807 43.5453 78.529 43.5719C78.5773 43.5985 78.6196 43.6345 78.6535 43.6776C78.6874 43.7208 78.7122 43.7703 78.7263 43.8231C78.7404 43.876 78.7435 43.9311 78.7356 43.9852C78.661 44.6911 78.5429 45.3918 78.3822 46.0836C78.3713 46.1299 78.3521 46.1739 78.3256 46.2135C78.2796 46.2831 78.2131 46.337 78.1351 46.3679C78.0571 46.3989 77.9713 46.4054 77.8895 46.3865V46.3865ZM69.5324 57.5757C68.9008 57.9121 68.2494 58.2107 67.5816 58.4699C67.4805 58.5075 67.3684 58.5042 67.2698 58.4608C67.1711 58.4173 67.0937 58.3372 67.0543 58.2377C67.015 58.1383 67.0168 58.0275 67.0594 57.9294C67.102 57.8312 67.1821 57.7536 67.2821 57.7134C67.919 57.4664 68.5403 57.1815 69.1424 56.8604C69.2228 56.8178 69.3152 56.8028 69.4051 56.8178C69.4951 56.8329 69.5774 56.877 69.6391 56.9434C69.7008 57.0098 69.7385 57.0945 69.7461 57.1844C69.7538 57.2742 69.7309 57.3641 69.6813 57.4397C69.6425 57.4972 69.5899 57.5442 69.5281 57.5765L69.5324 57.5757ZM65.5367 59.1249C64.842 59.3025 64.137 59.4385 63.4257 59.532C63.3201 59.5415 63.2149 59.5102 63.1321 59.4448C63.0493 59.3793 62.9952 59.2848 62.9813 59.1809C62.9674 59.0769 62.9946 58.9717 63.0573 58.8872C63.12 58.8027 63.2133 58.7454 63.3177 58.7273C63.9962 58.6378 64.6685 58.5082 65.3313 58.3391C65.4114 58.3184 65.4961 58.3222 65.574 58.3499C65.652 58.3777 65.7196 58.4282 65.768 58.4948C65.8163 58.5613 65.8432 58.6408 65.8449 58.7227C65.8467 58.8046 65.8233 58.8851 65.7778 58.9537C65.7213 59.04 65.6334 59.1016 65.5324 59.1258L65.5367 59.1249ZM61.2807 59.6844C60.563 59.6923 59.8456 59.6569 59.1323 59.5785C59.0787 59.5729 59.0268 59.5569 58.9795 59.5314C58.9322 59.5059 58.8904 59.4714 58.8566 59.43C58.8228 59.3885 58.7975 59.3409 58.7823 59.2898C58.7671 59.2388 58.7622 59.1852 58.7679 59.1323C58.7737 59.0793 58.7899 59.028 58.8156 58.9812C58.8414 58.9345 58.8763 58.8932 58.9182 58.8597C58.9601 58.8263 59.0083 58.8013 59.0599 58.7863C59.1116 58.7712 59.1658 58.7664 59.2193 58.7721C59.8994 58.8467 60.5835 58.88 61.2677 58.8719C61.3766 58.8706 61.4816 58.9122 61.5596 58.9875C61.6376 59.0628 61.6821 59.1657 61.6833 59.2734C61.6846 59.3812 61.6425 59.485 61.5664 59.5621C61.4902 59.6391 61.3862 59.6831 61.2772 59.6844H61.2807Z" fill="#91B3FA"/>
<path d="M78.7632 42.0683C78.8074 42.0001 78.8301 41.9204 78.8285 41.8394C78.8224 41.4951 78.8058 41.1431 78.7788 40.8065C78.7685 40.7006 78.7165 40.603 78.6341 40.5346C78.5517 40.4662 78.4454 40.4324 78.3381 40.4407C78.2308 40.4489 78.1311 40.4984 78.0603 40.5786C77.9895 40.6587 77.9534 40.7632 77.9597 40.8694C77.9858 41.1939 78.0015 41.5269 78.0076 41.8583C78.0092 41.9453 78.039 42.0295 78.0926 42.0984C78.1463 42.1674 78.2209 42.2175 78.3055 42.2414C78.3901 42.2653 78.4802 42.2618 78.5626 42.2312C78.645 42.2007 78.7153 42.1448 78.7632 42.0718V42.0683Z" fill="#91B3FA"/>
</g>
<path d="M73.2035 36.6361C73.1902 36.5953 73.1643 36.5596 73.1295 36.534C73.0947 36.5084 73.0528 36.4942 73.0094 36.4932L70.4797 36.4381C69.8639 35.4217 69.0844 34.5114 68.1719 33.7433L68.5332 31.2687C68.5396 31.2263 68.5323 31.183 68.5125 31.1449C68.4927 31.1067 68.4612 31.0757 68.4226 31.0562L65.724 29.6833C65.6855 29.6636 65.6416 29.6562 65.5987 29.6624C65.5557 29.6686 65.5158 29.688 65.4846 29.7178L63.6565 31.4461C62.4937 31.159 61.2915 31.061 60.0969 31.156L58.5813 29.1523C58.5553 29.1182 58.5192 29.093 58.478 29.08C58.4369 29.0671 58.3927 29.0671 58.3515 29.08L55.4614 29.9958C55.4201 30.0087 55.384 30.0341 55.3581 30.0684C55.3322 30.1026 55.3177 30.1441 55.3169 30.1868L55.2611 32.688C54.2336 33.2969 53.3133 34.0673 52.5364 34.9689L50.0336 34.6117C49.9909 34.6057 49.9473 34.613 49.9089 34.6326C49.8706 34.6522 49.8393 34.6831 49.8195 34.721L48.4267 37.3892C48.4067 37.4272 48.3994 37.4704 48.4056 37.5127C48.4119 37.555 48.4314 37.5943 48.4615 37.625L50.2095 39.4325C49.9192 40.5821 49.8201 41.7708 49.9161 42.9519L47.8895 44.4504C47.8551 44.4762 47.8296 44.5118 47.8165 44.5525C47.8034 44.5932 47.8034 44.6369 47.8164 44.6776L48.7427 47.536C48.756 47.5767 48.7817 47.6123 48.8163 47.6378C48.8509 47.6634 48.8927 47.6778 48.9359 47.6789L51.4657 47.7331C52.0816 48.7497 52.8611 49.6602 53.7734 50.4288L53.4122 52.9034C53.4062 52.9457 53.4136 52.9889 53.4333 53.027C53.4531 53.0651 53.4843 53.0961 53.5227 53.116L56.2213 54.4931C56.2597 54.5128 56.3033 54.5201 56.346 54.5141C56.3888 54.5081 56.4286 54.489 56.4599 54.4595L58.288 52.7304C59.4506 53.0178 60.6529 53.1158 61.8475 53.0204L63.3631 55.0241C63.3888 55.0586 63.4249 55.0842 63.4662 55.0971C63.5074 55.1101 63.5518 55.1099 63.5929 55.0964L66.4839 54.1806C66.5251 54.1675 66.561 54.142 66.5869 54.1078C66.6128 54.0736 66.6273 54.0323 66.6285 53.9896L66.6842 51.4884C67.7121 50.8794 68.6327 50.1087 69.4098 49.2067L71.9125 49.5638C71.9554 49.5702 71.9993 49.563 72.0378 49.5434C72.0764 49.5238 72.1078 49.4927 72.1276 49.4545L73.5204 46.7864C73.5403 46.7484 73.5477 46.7053 73.5417 46.6631C73.5356 46.6208 73.5163 46.5814 73.4864 46.5505L71.7376 44.743C72.0283 43.5935 72.1274 42.4047 72.0309 41.2236L74.0575 39.7252C74.0923 39.6997 74.1182 39.6641 74.1314 39.6233C74.1447 39.5825 74.1447 39.5387 74.1315 39.4979L73.2035 36.6361Z" fill="#91B3FA"/>
<path d="M63.3034 44.1163C62.7729 44.7091 62.0306 45.0755 61.2325 45.1385C60.4344 45.2014 59.6428 44.9561 59.0239 44.4539C58.405 43.9518 58.007 43.232 57.9137 42.4458C57.8203 41.6597 58.0389 40.8683 58.5233 40.2382C59.0078 39.608 59.7205 39.188 60.5116 39.0665C61.3027 38.945 62.1107 39.1315 62.7656 39.5867C63.4206 40.0419 63.8716 40.7304 64.0238 41.5076C64.1761 42.2847 64.0177 43.0899 63.582 43.754C63.4981 43.8813 63.405 44.0024 63.3034 44.1163ZM59.4627 43.7798C59.9168 44.1752 60.5112 44.3761 61.1151 44.3385C61.719 44.3009 62.2832 44.0278 62.6836 43.5793V43.5793C62.9828 43.2443 63.1748 42.8291 63.2352 42.3863C63.2957 41.9434 63.2219 41.4928 63.0233 41.0914C62.8246 40.69 62.51 40.3559 62.1192 40.1314C61.7284 39.9069 61.279 39.8021 60.828 39.8301C60.3769 39.8582 59.9444 40.018 59.5852 40.2892C59.2259 40.5604 58.9562 40.9309 58.81 41.3537C58.6638 41.7766 58.6478 42.2328 58.764 42.6647C58.8802 43.0965 59.1233 43.4846 59.4627 43.7798V43.7798Z" fill="#BDD0FB"/>
<path d="M67.3946 46.2714C67.5356 46.0562 67.667 45.8318 67.7889 45.5983C68.0304 45.1355 68.2235 44.6496 68.3652 44.148L68.3835 44.0809C68.4061 43.9979 68.4015 43.91 68.3702 43.8298C68.3388 43.7497 68.2825 43.6814 68.2094 43.635C68.1734 43.6115 68.1337 43.594 68.0919 43.5834C67.9867 43.5557 67.8748 43.5704 67.7805 43.6241C67.6862 43.6778 67.6173 43.7662 67.5887 43.87C67.4607 44.3396 67.2824 44.7943 67.0568 45.2265V45.2265L67.0194 45.2979C66.487 46.301 65.7088 47.1562 64.756 47.7853C64.2366 48.1264 63.6733 48.3971 63.0811 48.5901H63.0663L63.0219 48.6047C61.7887 48.9951 60.4694 49.0352 59.2143 48.7205C57.9592 48.4057 56.8187 47.7489 55.9227 46.8246C55.0267 45.9004 54.4112 44.7459 54.1463 43.4927C53.8815 42.2395 53.9779 40.938 54.4246 39.7363C54.8713 38.5347 55.6504 37.4812 56.673 36.6959C57.6957 35.9106 58.9208 35.425 60.2089 35.2945C61.497 35.1639 62.7963 35.3937 63.9588 35.9575C65.1214 36.5214 66.1004 37.3967 66.7843 38.4837C66.8159 38.5347 66.8588 38.578 66.9097 38.6103C66.9879 38.6608 67.0812 38.6834 67.1742 38.6743C67.2672 38.6653 67.3543 38.6251 67.421 38.5604C67.4877 38.4957 67.5301 38.4105 67.5411 38.3187C67.5522 38.227 67.5312 38.1343 67.4816 38.056C66.8703 37.0832 66.0458 36.2586 65.0691 35.6431C64.0923 35.0275 62.9882 34.6367 61.8383 34.4995C60.6883 34.3622 59.5219 34.4821 58.425 34.8501C57.3282 35.2182 56.3289 35.8252 55.5011 36.6261C54.6732 37.4271 54.0378 38.4017 53.6418 39.4779C53.2459 40.5541 53.0994 41.7046 53.2132 42.8442C53.3271 43.9839 53.6983 45.0838 54.2996 46.0626C54.9009 47.0415 55.7168 47.8743 56.6871 48.4997C56.9082 48.6415 57.1378 48.7731 57.3757 48.8948C59.0785 49.758 61.0443 49.9677 62.8941 49.4833C64.744 48.9989 66.3471 47.8548 67.3946 46.2714Z" fill="#BDD0FB"/>
<path d="M157.752 73.833L145.811 85.9095L160.134 82.1267L157.752 73.833Z" fill="#91B3FA"/>
<path d="M228.804 78.832L160.954 82.0872C160.541 82.1071 160.128 82.044 159.741 81.9016C159.354 81.7592 159 81.5406 158.7 81.2589C158.401 80.9773 158.163 80.6385 158 80.263C157.837 79.8876 157.752 79.4833 157.752 79.0747V51.4737C157.752 50.0308 158.32 48.6447 159.336 47.6088C160.352 46.5729 161.736 45.9686 163.194 45.9239L224.345 44.0527C226.532 44.0527 228.63 44.9117 230.176 46.4406C231.722 47.9695 232.591 50.0431 232.591 52.2053V74.902C232.591 75.9125 232.198 76.8842 231.493 77.6159C230.788 78.3475 229.825 78.7829 228.804 78.832V78.832Z" fill="#91B3FA"/>
<path opacity="0.85" d="M162.983 80.9793C161.871 80.9777 160.806 80.5399 160.021 79.762C159.235 78.9841 158.794 77.9298 158.795 76.8307V51.9564C158.795 49.0249 161.171 46.6579 164.206 46.5667L223.414 44.7988C227.902 44.7988 231.549 48.32 231.549 52.6476V74.0928C231.549 76.1585 229.877 77.8515 227.742 77.9514L163.188 80.9742C163.12 80.9776 163.051 80.9793 162.983 80.9793ZM223.418 45.088L164.215 46.8559C161.342 46.942 159.088 49.1798 159.088 51.9547V76.829C159.088 77.3509 159.196 77.8673 159.403 78.3471C159.611 78.8268 159.915 79.2598 160.297 79.62C160.679 79.9802 161.131 80.2599 161.626 80.4424C162.12 80.6248 162.647 80.7062 163.175 80.6815L227.728 77.6587C229.706 77.5666 231.255 75.9993 231.255 74.0911V52.6476C231.255 48.4801 227.74 45.0897 223.42 45.0897L223.418 45.088Z" fill="white"/>
<path d="M223.222 50.122L168.968 52.1291C168.435 52.1489 168.015 52.4984 168.034 52.9038L168.054 53.3754C168.071 53.78 168.511 54.0907 169.037 54.0717L223.294 52.1128C223.827 52.0939 224.247 51.7444 224.23 51.3382L224.207 50.8217C224.19 50.4129 223.75 50.1022 223.222 50.122Z" fill="url(#paint5_linear_307_2059)"/>
<path d="M218.366 63.703L164.112 65.6998C163.579 65.7196 163.16 66.0811 163.178 66.5046L163.2 66.9926C163.217 67.4118 163.658 67.7345 164.185 67.7156L218.442 65.7687C218.975 65.7498 219.394 65.3891 219.376 64.9648L219.352 64.426C219.334 64.006 218.894 63.6832 218.366 63.703Z" fill="url(#paint6_linear_307_2059)"/>
<path d="M224.705 69.3819L164.225 71.6395C163.631 71.6619 163.162 72.0285 163.18 72.4563L163.201 72.9495C163.219 73.373 163.709 73.6966 164.296 73.6751L224.78 71.4682C225.375 71.4467 225.844 71.08 225.825 70.6523L225.801 70.1083C225.782 69.684 225.292 69.3604 224.705 69.3819Z" fill="url(#paint7_linear_307_2059)"/>
<path d="M193.474 58.1281L163.903 58.9802C163.613 58.9888 163.395 59.383 163.42 59.8581L163.447 60.4064C163.47 60.8772 163.721 61.2498 164.008 61.2421L193.582 60.4468C193.873 60.4391 194.09 60.0449 194.067 59.5689L194.036 58.9664C194.013 58.493 193.762 58.1195 193.474 58.1281Z" fill="url(#paint8_linear_307_2059)"/>
<path d="M226.059 57.1173L198.109 57.9092C197.834 57.9169 197.631 58.3111 197.654 58.7862L197.682 59.3345C197.706 59.8053 197.943 60.1788 198.216 60.1711L226.168 59.436C226.443 59.4292 226.647 59.035 226.624 58.559L226.593 57.9565C226.57 57.4831 226.331 57.1096 226.059 57.1173Z" fill="url(#paint9_linear_307_2059)"/>
<path d="M54.7275 231.055C54.7275 231.055 54.1686 234.185 53.8944 237.284C53.8698 237.571 53.9044 237.86 53.996 238.134C54.0876 238.408 54.2343 238.661 54.4274 238.877C54.6204 239.093 54.8558 239.268 55.1192 239.392C55.3826 239.516 55.6687 239.586 55.9601 239.597C60.1334 239.769 69.0615 240.103 72.2651 239.962C72.3769 239.957 72.4858 239.925 72.5827 239.87C72.6796 239.814 72.7617 239.737 72.8221 239.644C72.8826 239.55 72.9197 239.444 72.9303 239.334C72.9409 239.224 72.9248 239.113 72.8831 239.01V239.01C72.7337 238.639 72.4457 238.339 72.0788 238.173L57.3312 231.471L54.7275 231.055Z" fill="url(#paint10_linear_307_2059)"/>
<path d="M54.2715 229.215L54.7207 232.959C54.7207 232.959 57.3035 234.149 59.0681 232.809L57.9982 228.637L54.2715 229.215Z" fill="url(#paint11_linear_307_2059)"/>
<path d="M54.6082 158.82C54.4141 159.797 53.5636 207.615 58.7362 229.043C58.7778 229.213 58.7568 229.391 58.6769 229.546C58.5971 229.701 58.4637 229.823 58.301 229.89C56.9555 230.404 55.532 230.69 54.0902 230.736C53.8096 230.745 53.534 230.661 53.3065 230.499C53.0789 230.336 52.9125 230.103 52.8332 229.837C51.3533 224.865 44.2751 199.954 43.3514 176.158C42.319 149.569 43.3514 175.254 43.3514 175.254L43.9608 158.814L54.6082 158.82Z" fill="url(#paint12_linear_307_2059)"/>
<path d="M37.766 232.688C37.766 232.688 36.8754 234.269 36.0136 238.468C35.9762 238.647 35.9773 238.831 36.0166 239.01C36.056 239.188 36.1329 239.356 36.2422 239.503C36.3515 239.65 36.4909 239.773 36.6513 239.863C36.8117 239.953 36.9895 240.01 37.1732 240.028C38.5512 240.162 40.6727 240.334 42.3719 240.322C42.5569 240.321 42.7397 240.282 42.9083 240.207C43.0769 240.132 43.2276 240.022 43.3504 239.886C43.4732 239.749 43.5653 239.588 43.6208 239.414C43.6764 239.239 43.694 239.055 43.6725 238.873C43.4845 237.34 42.8977 234.828 41.0862 232.866L37.766 232.688Z" fill="url(#paint13_linear_307_2059)"/>
<path d="M36.9844 227.872L38.0342 233.534C38.0342 233.534 39.0719 234.298 41.1255 233.744L40.6249 227.651L36.9844 227.872Z" fill="url(#paint14_linear_307_2059)"/>
<path d="M34.1473 160.287C29.9191 185.516 35.0639 222.643 36.7998 229.91C36.8507 230.127 36.9658 230.325 37.1305 230.479C37.2952 230.632 37.5021 230.733 37.7251 230.77C38.499 230.898 39.7744 231.001 41.0331 230.64C41.2443 230.579 41.4308 230.454 41.5662 230.282C41.7016 230.111 41.7791 229.902 41.7879 229.684C42.0203 223.809 41.6016 187.743 45.5416 173.49C45.7412 172.768 46.1876 172.137 46.8047 171.704L54.4505 166.33L55.0373 157.642L34.1473 160.287Z" fill="url(#paint15_linear_307_2059)"/>
<path d="M61.0865 112.482C48.416 112.275 34.4354 115.771 34.4354 115.771C30.6582 137.561 33.7747 162.694 33.7747 162.694C43.5838 165.237 54.6499 161.139 54.6499 161.139C56.2804 152.031 63.887 126.4 63.887 126.4C70.0782 125.64 75.1777 123.874 79.378 121.539C76.1745 117.868 74.6641 113.196 74.0077 110.436C69.528 111.808 64.9952 112.546 61.0865 112.482Z" fill="url(#paint16_linear_307_2059)"/>
<path d="M98.5159 94.0295C97.2719 92.5431 95.6963 93.2463 95.6963 93.2463C93.8316 101.034 84.0548 107.348 74.0098 110.435C74.6661 113.197 76.1765 117.868 79.38 121.538C96.0497 112.273 98.5159 94.0295 98.5159 94.0295Z" fill="url(#paint17_linear_307_2059)"/>
<path d="M98.2132 94.4077C98.3438 94.8174 96.836 95.4406 95.9498 93.7665C95.9193 92.9643 95.4275 89.5267 95.9106 88.8725C98.4935 85.391 103.501 81.0264 103.501 81.0264C104.348 81.8526 103.65 82.6617 103.65 82.6617L101.221 85.1638C101.729 86.0718 102.353 86.8378 102.639 87.9361C102.853 88.7742 102.731 89.6615 102.299 90.4132C101.874 91.1732 101.291 92.1604 100.741 92.9333C99.6983 94.3974 98.2132 94.4077 98.2132 94.4077Z" fill="url(#paint18_linear_307_2059)"/>
<path d="M100.154 86.7881L97.9406 88.6438L97.2441 90.4908L99.2176 92.6564C99.2176 92.6564 99.8818 88.9906 100.375 88.1971C100.867 87.4035 100.616 87.0196 100.154 86.7881Z" fill="url(#paint19_linear_307_2059)"/>
<path d="M39.2966 127.904L34.4364 115.773C34.4364 115.773 22.5973 123.725 20.6543 133.805C22.8907 133.968 26.9604 134.544 30.943 136.532C31.817 131.771 39.2966 127.904 39.2966 127.904Z" fill="url(#paint20_linear_307_2059)"/>
<path d="M49.6395 139.317C49.6395 139.317 36.351 146.743 31.8678 140.403C30.9363 139.086 30.7143 137.777 30.9433 136.529C26.9606 134.541 22.8909 133.965 20.6546 133.803C20.0678 136.842 20.3777 140.075 22.1841 143.341C30.0379 157.543 51.398 142.556 51.398 142.556L49.6395 139.317Z" fill="url(#paint21_linear_307_2059)"/>
<path d="M48.0415 148.711L55.2938 123.671C55.3338 123.532 55.4145 123.408 55.5257 123.314C55.6369 123.221 55.7737 123.162 55.9188 123.145C57.2325 122.994 61.0401 122.568 65.4354 122.198C70.7308 121.755 76.8802 121.396 80.5547 121.702C80.6756 121.711 80.7925 121.749 80.895 121.813C80.9976 121.877 81.0827 121.965 81.1428 122.069C81.203 122.173 81.2364 122.29 81.2401 122.41C81.2438 122.53 81.2177 122.648 81.164 122.756C79.0748 126.936 70.4792 143.938 66.1753 149.508C66.1054 149.599 66.015 149.672 65.9111 149.723C65.8073 149.773 65.693 149.799 65.5773 149.798L48.7509 149.644C48.6367 149.643 48.5243 149.616 48.4222 149.565C48.3202 149.515 48.2314 149.441 48.1627 149.351C48.0941 149.261 48.0474 149.156 48.0264 149.045C48.0053 148.934 48.0105 148.82 48.0415 148.711V148.711Z" fill="#91B3FA"/>
<path d="M66.1901 120.029L71.448 119.163C71.5122 119.153 71.5779 119.159 71.639 119.181C71.7001 119.203 71.7544 119.24 71.7966 119.289C71.8389 119.338 71.8677 119.396 71.8803 119.459C71.8929 119.522 71.8888 119.588 71.8685 119.649L71.3462 121.207C71.3239 121.274 71.2831 121.333 71.2284 121.378C71.1738 121.423 71.1075 121.451 71.0371 121.46L65.9777 122.129C65.9171 122.137 65.8555 122.13 65.7982 122.109C65.7409 122.089 65.6895 122.054 65.6485 122.01C65.6075 121.965 65.5781 121.911 65.5628 121.852C65.5475 121.794 65.5468 121.733 65.5607 121.674L65.8828 120.312C65.8999 120.24 65.9382 120.175 65.9929 120.125C66.0476 120.074 66.1162 120.041 66.1901 120.029Z" fill="#BDD0FB"/>
<path d="M62.2533 124.43L62.6886 122.199C62.7098 122.09 62.7659 121.991 62.8485 121.916C62.9311 121.841 63.0359 121.794 63.1473 121.783L73.7677 120.717C73.8506 120.709 73.9342 120.721 74.0116 120.751C74.089 120.781 74.1579 120.83 74.2127 120.891C74.2675 120.953 74.3065 121.028 74.3264 121.107C74.3464 121.187 74.3467 121.271 74.3275 121.351L73.6519 124.13C73.6256 124.238 73.5646 124.335 73.478 124.406C73.3914 124.478 73.2839 124.519 73.1714 124.525L62.7939 125.042C62.7148 125.046 62.6359 125.032 62.563 125.001C62.4901 124.971 62.4251 124.924 62.3731 124.866C62.321 124.807 62.2832 124.737 62.2624 124.661C62.2417 124.586 62.2385 124.506 62.2533 124.43V124.43Z" fill="#BDD0FB"/>
<path d="M49.795 142.662C49.795 142.662 48.7851 138.554 49.1925 137.097C49.6 135.64 50.3895 133.767 53.0229 134.183C55.6562 134.599 58.7587 135.696 58.7587 135.696C58.7587 135.696 58.602 137.59 56.6024 136.981L57.8421 137.928C57.8421 137.928 57.668 139.447 55.9757 138.635L57.1291 139.894C57.1291 139.894 56.404 141.142 55.1609 140.341C53.9178 139.541 53.3197 143.157 49.795 142.662Z" fill="url(#paint22_linear_307_2059)"/>
<path d="M48.2527 102.312L44.2213 113.84C44.1883 113.932 44.1893 114.033 44.2242 114.125C44.2591 114.216 44.3256 114.293 44.4119 114.341C45.5114 114.943 49.4705 116.678 54.2419 113.687C54.4882 113.534 54.6976 113.33 54.8551 113.089C55.0126 112.847 55.1144 112.574 55.1533 112.29L56.4591 102.312H48.2527Z" fill="url(#paint23_linear_307_2059)"/>
<path d="M57.0274 91.6367C57.0274 91.6367 61.4549 99.8762 60.8873 103.205C60.3197 106.535 54.8328 106.294 50.0414 103.591L46.6934 94.6939L57.0274 91.6367Z" fill="url(#paint24_linear_307_2059)"/>
<path d="M50.2532 99.222C50.2986 99.2017 50.339 99.172 50.3717 99.135C50.4045 99.0979 50.4288 99.0543 50.4431 99.0072C50.4573 98.9601 50.4612 98.9104 50.4545 98.8617C50.4477 98.8129 50.4304 98.7662 50.4038 98.7246C50.0487 98.1892 49.3836 97.0961 49.1721 96.1425C49.1721 96.1425 48.3755 95.6389 51.1978 94.971C54.02 94.3031 58.2264 93.2668 59.1108 90.8922C59.9735 88.5769 57.7075 82.7551 54.0931 87.3943C54.0611 87.4355 54.0199 87.4689 53.9727 87.4919C53.9256 87.5149 53.8737 87.5269 53.8211 87.5269C53.7685 87.5269 53.7166 87.5149 53.6694 87.4919C53.6223 87.4689 53.5811 87.4355 53.5491 87.3943C52.9562 86.6317 51.3989 85.0489 49.2356 86.0085C47.2116 86.9063 46.9836 88.3729 47.0114 89.1122C47.0135 89.163 47.004 89.2135 46.9836 89.2601C46.9631 89.3067 46.9322 89.3481 46.8933 89.3812C46.8544 89.4144 46.8083 89.4383 46.7587 89.4514C46.709 89.4644 46.6571 89.4662 46.6066 89.4565C45.5838 89.2637 43.1245 89.0985 41.9815 91.5885C41.0379 93.6404 41.6516 94.8015 42.2105 95.3695C42.252 95.4112 42.2819 95.4628 42.2973 95.5193C42.3126 95.5757 42.3129 95.6352 42.2981 95.6918C42.2833 95.7484 42.2538 95.8003 42.2127 95.8423C42.1716 95.8843 42.1201 95.9151 42.0634 95.9316C41.3913 96.1356 40.5225 96.6993 40.6096 98.2555C40.7297 100.407 43.1654 100.22 43.8584 100.121C43.9142 100.113 43.9711 100.119 44.0244 100.137C44.0776 100.156 44.1255 100.187 44.1639 100.227C44.7585 100.878 47.4371 103.64 50.3359 103.973C50.3938 103.979 50.4522 103.97 50.5058 103.947C50.5593 103.925 50.6063 103.89 50.6425 103.845C50.6787 103.8 50.7029 103.746 50.7129 103.69C50.7229 103.633 50.7184 103.575 50.6998 103.52L49.4445 99.9149C49.417 99.8339 49.421 99.7458 49.4556 99.6675C49.4902 99.5893 49.5529 99.5265 49.6317 99.4914L50.2532 99.222Z" fill="url(#paint25_linear_307_2059)"/>
<path d="M50.7565 99.7335C50.7565 99.7335 47.6043 97.5955 47.3736 99.3961C47.1429 101.197 50.2124 102.005 51.7324 101.334L50.7565 99.7335Z" fill="url(#paint26_linear_307_2059)"/>
<defs>
<linearGradient id="paint0_linear_307_2059" x1="271.206" y1="311.365" x2="59.5977" y2="45.5611" gradientUnits="userSpaceOnUse">
<stop stop-color="#DAE3FE"/>
<stop offset="1" stop-color="#E9EFFD"/>
</linearGradient>
<linearGradient id="paint1_linear_307_2059" x1="425.937" y1="-163.382" x2="-18.1474" y2="219.458" gradientUnits="userSpaceOnUse">
<stop stop-color="#E1473D"/>
<stop offset="1" stop-color="#E9605A"/>
</linearGradient>
<linearGradient id="paint2_linear_307_2059" x1="491.335" y1="-87.5243" x2="47.249" y2="295.317" gradientUnits="userSpaceOnUse">
<stop stop-color="#E1473D"/>
<stop offset="1" stop-color="#E9605A"/>
</linearGradient>
<linearGradient id="paint3_linear_307_2059" x1="7.36087" y1="196.3" x2="391.933" y2="-215.592" gradientUnits="userSpaceOnUse">
<stop stop-color="#FF928E"/>
<stop offset="1" stop-color="#FE7062"/>
</linearGradient>
<linearGradient id="paint4_linear_307_2059" x1="165.646" y1="167.964" x2="78.4961" y2="265.363" gradientUnits="userSpaceOnUse">
<stop stop-color="#FF928E"/>
<stop offset="1" stop-color="#FE7062"/>
</linearGradient>
<linearGradient id="paint5_linear_307_2059" x1="168.033" y1="52.0982" x2="224.231" y2="52.0982" gradientUnits="userSpaceOnUse">
<stop stop-color="#DAE3FE"/>
<stop offset="1" stop-color="#E9EFFD"/>
</linearGradient>
<linearGradient id="paint6_linear_307_2059" x1="163.178" y1="65.7093" x2="219.377" y2="65.7093" gradientUnits="userSpaceOnUse">
<stop stop-color="#DAE3FE"/>
<stop offset="1" stop-color="#E9EFFD"/>
</linearGradient>
<linearGradient id="paint7_linear_307_2059" x1="163.178" y1="71.5285" x2="225.824" y2="71.5285" gradientUnits="userSpaceOnUse">
<stop stop-color="#DAE3FE"/>
<stop offset="1" stop-color="#E9EFFD"/>
</linearGradient>
<linearGradient id="paint8_linear_307_2059" x1="163.418" y1="59.6851" x2="194.068" y2="59.6851" gradientUnits="userSpaceOnUse">
<stop stop-color="#DAE3FE"/>
<stop offset="1" stop-color="#E9EFFD"/>
</linearGradient>
<linearGradient id="paint9_linear_307_2059" x1="197.652" y1="58.6442" x2="226.625" y2="58.6442" gradientUnits="userSpaceOnUse">
<stop stop-color="#DAE3FE"/>
<stop offset="1" stop-color="#E9EFFD"/>
</linearGradient>
<linearGradient id="paint10_linear_307_2059" x1="71.7985" y1="226.728" x2="18.4581" y2="285.409" gradientUnits="userSpaceOnUse">
<stop stop-color="#09005D"/>
<stop offset="1" stop-color="#1A0F91"/>
</linearGradient>
<linearGradient id="paint11_linear_307_2059" x1="54.2715" y1="231.042" x2="59.0681" y2="231.042" gradientUnits="userSpaceOnUse">
<stop stop-color="#FEBBBA"/>
<stop offset="1" stop-color="#FF928E"/>
</linearGradient>
<linearGradient id="paint12_linear_307_2059" x1="76.051" y1="161.048" x2="30.7724" y2="223.118" gradientUnits="userSpaceOnUse">
<stop stop-color="#09005D"/>
<stop offset="1" stop-color="#1A0F91"/>
</linearGradient>
<linearGradient id="paint13_linear_307_2059" x1="59.6858" y1="215.716" x2="6.3462" y2="274.397" gradientUnits="userSpaceOnUse">
<stop stop-color="#09005D"/>
<stop offset="1" stop-color="#1A0F91"/>
</linearGradient>
<linearGradient id="paint14_linear_307_2059" x1="36.9844" y1="230.798" x2="41.1255" y2="230.798" gradientUnits="userSpaceOnUse">
<stop stop-color="#FEBBBA"/>
<stop offset="1" stop-color="#FF928E"/>
</linearGradient>
<linearGradient id="paint15_linear_307_2059" x1="67.8618" y1="155.074" x2="22.5833" y2="217.144" gradientUnits="userSpaceOnUse">
<stop stop-color="#09005D"/>
<stop offset="1" stop-color="#1A0F91"/>
</linearGradient>
<linearGradient id="paint16_linear_307_2059" x1="51.6126" y1="127.674" x2="123.633" y2="2.17256" gradientUnits="userSpaceOnUse">
<stop stop-color="#4F52FF"/>
<stop offset="1" stop-color="#4042E2"/>
</linearGradient>
<linearGradient id="paint17_linear_307_2059" x1="94.737" y1="79.08" x2="86.4433" y2="103.047" gradientUnits="userSpaceOnUse">
<stop stop-color="#FEBBBA"/>
<stop offset="1" stop-color="#FF928E"/>
</linearGradient>
<linearGradient id="paint18_linear_307_2059" x1="101.97" y1="81.5832" x2="93.6767" y2="105.551" gradientUnits="userSpaceOnUse">
<stop stop-color="#FEBBBA"/>
<stop offset="1" stop-color="#FF928E"/>
</linearGradient>
<linearGradient id="paint19_linear_307_2059" x1="95.4691" y1="96.8574" x2="101.729" y2="84.0866" gradientUnits="userSpaceOnUse">
<stop stop-color="#FEBBBA"/>
<stop offset="1" stop-color="#FF928E"/>
</linearGradient>
<linearGradient id="paint20_linear_307_2059" x1="36.3751" y1="118.93" x2="108.397" y2="-6.57064" gradientUnits="userSpaceOnUse">
<stop stop-color="#4F52FF"/>
<stop offset="1" stop-color="#4042E2"/>
</linearGradient>
<linearGradient id="paint21_linear_307_2059" x1="20.3847" y1="141.631" x2="51.398" y2="141.631" gradientUnits="userSpaceOnUse">
<stop stop-color="#FEBBBA"/>
<stop offset="1" stop-color="#FF928E"/>
</linearGradient>
<linearGradient id="paint22_linear_307_2059" x1="49.0959" y1="138.417" x2="58.757" y2="138.417" gradientUnits="userSpaceOnUse">
<stop stop-color="#FEBBBA"/>
<stop offset="1" stop-color="#FF928E"/>
</linearGradient>
<linearGradient id="paint23_linear_307_2059" x1="44.1978" y1="108.85" x2="56.4591" y2="108.85" gradientUnits="userSpaceOnUse">
<stop stop-color="#FEBBBA"/>
<stop offset="1" stop-color="#FF928E"/>
</linearGradient>
<linearGradient id="paint24_linear_307_2059" x1="60.7095" y1="102.249" x2="47.2319" y2="93.9419" gradientUnits="userSpaceOnUse">
<stop stop-color="#FEBBBA"/>
<stop offset="1" stop-color="#FF928E"/>
</linearGradient>
<linearGradient id="paint25_linear_307_2059" x1="39.9676" y1="85.4624" x2="57.3359" y2="99.3255" gradientUnits="userSpaceOnUse">
<stop stop-color="#09005D"/>
<stop offset="1" stop-color="#1A0F91"/>
</linearGradient>
<linearGradient id="paint26_linear_307_2059" x1="57.1477" y1="105.3" x2="45.0218" y2="97.8258" gradientUnits="userSpaceOnUse">
<stop stop-color="#FEBBBA"/>
<stop offset="1" stop-color="#FF928E"/>
</linearGradient>
</defs>
</svg>
