<svg width="271" height="241" viewBox="0 0 271 241" fill="none" xmlns="http://www.w3.org/2000/svg">
<g clip-path="url(#clip0_214_1297)">
<path d="M83.3088 240.321C81.1463 240.321 79.563 239.766 78.5976 238.639C74.8983 234.333 81.2467 223.639 87.2244 215.421C95.4495 204.116 108.417 190.003 123.747 175.689C123.782 175.653 123.824 175.625 123.871 175.605C123.917 175.586 123.967 175.576 124.017 175.576C124.068 175.576 124.118 175.586 124.164 175.605C124.21 175.625 124.253 175.653 124.288 175.689C124.358 175.761 124.398 175.858 124.398 175.959C124.398 176.06 124.358 176.157 124.288 176.229C109.004 190.512 96.0674 204.587 87.8654 215.86C79.6634 227.134 76.5742 235.059 79.2 238.122C82.243 241.672 92.9627 238.593 108.61 229.68C124.643 220.552 144.19 206.346 163.66 189.679C183.13 173.012 200.175 155.881 211.66 141.452C222.866 127.362 227.546 117.253 224.503 113.673C221.46 110.092 210.563 113.256 194.676 122.354C194.588 122.397 194.486 122.405 194.392 122.376C194.297 122.347 194.218 122.283 194.169 122.197C194.121 122.111 194.107 122.01 194.131 121.914C194.155 121.818 194.215 121.735 194.298 121.682C210.771 112.253 221.707 109.228 225.09 113.194C228.473 117.161 223.885 127.3 212.254 141.907C200.739 156.383 183.679 173.544 164.155 190.242C144.63 206.94 125.06 221.177 108.988 230.367C97.4189 236.949 88.63 240.321 83.3088 240.321Z" fill="black"/>
<path d="M132.892 68.1C133.715 72.2242 134.072 76.4276 133.957 80.6314L128.875 82.6222C128.875 82.6222 125.786 95.4236 145.403 91.5037C149.226 90.7321 160.27 82.3521 160.27 82.3521L151.535 79.8598C151.535 79.8598 150.693 67.1895 150.361 60.8467C145.774 62.9841 138.406 66.4179 132.892 68.1Z" fill="white"/>
<path d="M138.707 92.6534C134.899 92.6534 132.096 91.7351 130.335 89.8909C127.477 86.9278 128.458 82.7302 128.505 82.5527C128.519 82.4924 128.547 82.4364 128.587 82.3894C128.628 82.3424 128.679 82.3057 128.736 82.2826L133.586 80.4075C133.677 76.3195 133.32 72.2338 132.521 68.2234C132.5 68.1295 132.515 68.0314 132.562 67.9475C132.609 67.8637 132.685 67.7999 132.775 67.7682C138.475 65.9934 146.399 62.305 150.199 60.5379C150.256 60.5094 150.318 60.4956 150.382 60.4978C150.445 60.4999 150.507 60.518 150.562 60.5502C150.616 60.5825 150.662 60.628 150.694 60.6824C150.727 60.7369 150.745 60.7987 150.747 60.862C151.048 66.5876 151.774 77.7145 151.898 79.5896L160.393 82.0048C160.462 82.0258 160.523 82.065 160.57 82.1179C160.618 82.1709 160.65 82.2358 160.664 82.3058C160.677 82.3762 160.67 82.4488 160.644 82.5156C160.618 82.5824 160.574 82.6407 160.517 82.6839C160.069 83.0234 149.357 91.1255 145.495 91.8972C143.263 92.3723 140.989 92.6256 138.707 92.6534ZM129.215 82.9231C129.068 83.7487 128.651 87.0436 130.891 89.3662C133.386 91.9666 138.243 92.5608 145.333 91.1487C148.508 90.516 157.057 84.2889 159.42 82.5295L151.427 80.2146C151.351 80.1939 151.283 80.1501 151.234 80.0893C151.184 80.0284 151.154 79.9536 151.149 79.8751C151.149 79.7516 150.376 67.8376 150.014 61.4407C146.106 63.2541 138.815 66.6184 133.347 68.3855C134.109 72.4366 134.443 76.5567 134.343 80.6776C134.339 80.752 134.314 80.8236 134.27 80.8839C134.226 80.9441 134.166 80.9904 134.096 81.0171L129.215 82.9231Z" fill="black"/>
<path d="M120.859 32.7821C119.067 33.2142 117.275 31.4009 117.237 29.4795C117.277 28.5265 117.578 27.6028 118.108 26.8093C118.638 26.0159 119.376 25.3834 120.241 24.9809C121.902 24.1398 123.809 24.0395 125.647 23.7771C125.358 22.8233 125.369 21.8036 125.68 20.8565C125.991 19.9095 126.586 19.081 127.385 18.4837C128.982 17.3682 130.954 16.9222 132.876 17.2414C134.138 17.3487 135.343 17.8116 136.352 18.5763C136.87 19.0021 137.283 19.5404 137.562 20.1501C137.84 20.7598 137.976 21.425 137.958 22.0949C139.618 20.0038 142.306 18.5917 144.839 19.2013C147.373 19.8109 149.288 22.8974 149.473 25.0272C150.709 23.4839 152.323 22.2724 154.215 22.3727C157.984 22.5811 158.849 25.7756 157.142 29.8962C157.712 29.6438 158.328 29.5165 158.951 29.523C159.574 29.5294 160.188 29.6695 160.752 29.9336C161.316 30.1977 161.816 30.5798 162.219 31.0539C162.623 31.528 162.919 32.0832 163.089 32.6818C163.388 33.9428 163.4 35.2549 163.123 36.5211C162.846 37.7873 162.288 38.9751 161.49 39.9969C161.174 40.3354 160.807 40.6219 160.401 40.8457C159.814 44.0634 159.081 47.4354 157.969 51.6486C157.105 54.8877 155.823 58.0006 154.153 60.9082C153.544 62.122 152.511 63.0715 151.25 63.578C151.165 62.2431 149.774 61.5872 149.558 60.26C149.288 58.6318 150.33 57.1735 149.357 55.7459C147.516 53.0802 146.241 50.0652 145.612 46.8876C144.987 44.3611 145.229 41.6982 146.299 39.3255C146.746 38.4526 147.348 37.6682 148.075 37.0106C147.768 36.3646 147.51 35.6966 147.303 35.0121C146.199 36.9103 145.395 38.2144 142.631 39.1172C140.615 39.7731 138.213 38.9783 137.541 37.0569C137.108 38.9937 134.089 41.733 132.197 41.9182C130.304 42.1034 129.586 41.2392 128.822 39.4259C127.138 40.9151 125.879 42.4352 124.188 43.0834C122.841 43.5075 121.381 43.388 120.121 42.7506C118.861 42.1133 117.901 41.0085 117.445 39.6728C117.07 38.3058 117.21 36.8485 117.839 35.578C118.468 34.3076 119.543 33.3125 120.859 32.7821V32.7821Z" fill="#333333"/>
<path d="M151.234 64.0104C151.164 64.0081 151.095 63.9896 151.033 63.9564C150.979 63.9238 150.934 63.8787 150.902 63.825C150.87 63.7712 150.851 63.7103 150.848 63.6477C150.755 63.0662 150.485 62.5273 150.075 62.1044C149.619 61.6059 149.303 60.9966 149.156 60.3374C149.077 59.6706 149.108 58.9954 149.249 58.3389C149.374 57.9504 149.418 57.5404 149.379 57.1342C149.339 56.728 149.216 56.3344 149.017 55.9777C147.144 53.2684 145.848 50.2033 145.21 46.9727C144.607 43.8861 144.839 41.3012 145.936 39.1637C146.364 38.3441 146.922 37.5989 147.588 36.9569C147.434 36.6405 147.295 36.3087 147.164 35.9614C146.703 36.8284 146.069 37.5915 145.302 38.2034C144.534 38.8153 143.648 39.263 142.7 39.5187C141.795 39.8498 140.808 39.8847 139.882 39.6183C138.956 39.352 138.139 38.7982 137.548 38.0371C136.591 39.9894 133.988 42.1577 132.189 42.3429C130.265 42.5358 129.393 41.7178 128.636 40.0974L127.864 40.869C126.848 41.9734 125.625 42.8675 124.265 43.5003C123.576 43.746 122.844 43.8494 122.114 43.8043C121.384 43.7592 120.67 43.5665 120.017 43.238C119.314 42.9054 118.686 42.4336 118.171 41.8513C117.656 41.2691 117.264 40.5884 117.02 39.8505C116.671 38.612 116.713 37.2959 117.14 36.082C117.567 34.8681 118.359 33.8154 119.407 33.0678C119.053 32.9457 118.721 32.7658 118.426 32.5354C117.958 32.1652 117.577 31.6969 117.31 31.1636C117.043 30.6303 116.897 30.0449 116.881 29.4488C116.917 28.4276 117.233 27.4358 117.794 26.5814C118.355 25.727 119.14 25.0427 120.063 24.603C121.491 23.9738 123.017 23.5978 124.573 23.4918L125.16 23.4147C124.968 22.4379 125.052 21.4269 125.404 20.4956C125.757 19.5643 126.362 18.75 127.153 18.1444C128.83 16.9617 130.906 16.4875 132.93 16.8249C134.275 16.9365 135.559 17.432 136.629 18.2524C137.51 18.9811 138.104 19.9982 138.305 21.1229C140.197 19.1707 142.731 18.2601 144.963 18.808C147.195 19.3559 149.203 21.8945 149.751 24.1477C151.18 22.6044 152.701 21.8868 154.269 21.9717C154.951 21.9593 155.625 22.1147 156.233 22.4242C156.84 22.7337 157.362 23.1878 157.752 23.7465C158.578 25.0505 158.594 26.9796 157.822 29.2328C158.792 28.9943 159.813 29.0755 160.733 29.4643C161.388 29.7494 161.972 30.173 162.447 30.7059C162.922 31.2388 163.275 31.8683 163.483 32.5508C163.808 33.8797 163.826 35.2652 163.535 36.6021C163.245 37.9391 162.654 39.1924 161.807 40.2672C161.5 40.5932 161.146 40.8715 160.756 41.0928C160.131 44.5112 159.366 47.9141 158.355 51.7877C157.481 55.0624 156.183 58.209 154.493 61.1476C153.844 62.4367 152.745 63.444 151.404 63.9795C151.35 64.0015 151.292 64.012 151.234 64.0104ZM147.272 34.7037H147.318C147.391 34.7113 147.46 34.7403 147.516 34.787C147.573 34.8336 147.614 34.896 147.635 34.966C147.84 35.6313 148.098 36.279 148.407 36.9028C148.444 36.9777 148.456 37.0625 148.441 37.1446C148.425 37.2267 148.384 37.3016 148.322 37.3581C147.627 37.9788 147.051 38.7216 146.623 39.5495C145.611 41.5249 145.395 43.917 145.967 46.8569C146.585 49.9977 147.842 52.9784 149.658 55.615C149.918 56.0493 150.084 56.5333 150.145 57.0357C150.207 57.5381 150.162 58.0478 150.014 58.5318C149.886 59.1039 149.855 59.6933 149.921 60.2757C150.052 60.8097 150.318 61.3013 150.693 61.7032C151.051 62.1108 151.329 62.5819 151.512 63.0921C152.518 62.5968 153.333 61.7829 153.829 60.7772C155.482 57.8964 156.752 54.812 157.605 51.6025C158.633 47.6826 159.397 44.2488 160.03 40.7996C160.041 40.7432 160.064 40.6899 160.097 40.6432C160.13 40.5966 160.174 40.5578 160.224 40.5295C160.596 40.3259 160.935 40.0656 161.228 39.7579C161.985 38.7878 162.517 37.6611 162.784 36.4597C163.052 35.2584 163.047 34.0127 162.772 32.8132C162.596 32.2387 162.298 31.7089 161.898 31.2601C161.498 30.8113 161.006 30.4541 160.455 30.2128C159.969 29.9971 159.443 29.8857 158.911 29.8857C158.378 29.8857 157.852 29.9971 157.366 30.2128C157.296 30.2473 157.217 30.2599 157.14 30.2489C157.063 30.2379 156.991 30.2038 156.933 30.151C156.876 30.0984 156.837 30.0294 156.82 29.9535C156.803 29.8775 156.811 29.7983 156.841 29.7266C157.806 27.3732 157.907 25.3978 157.127 24.1554C156.797 23.7001 156.359 23.3344 155.851 23.0917C155.344 22.8491 154.784 22.7373 154.223 22.7665C152.678 22.6816 151.218 23.5381 149.797 25.2743C149.749 25.3337 149.685 25.3773 149.612 25.3993C149.539 25.4214 149.461 25.4208 149.388 25.3978C149.314 25.3772 149.248 25.3342 149.2 25.2748C149.152 25.2154 149.123 25.1424 149.118 25.066C148.948 23.1677 147.21 20.1661 144.777 19.5796C142.584 19.0549 140.027 20.1429 138.282 22.3421C138.232 22.4052 138.163 22.4511 138.086 22.4732C138.008 22.4954 137.926 22.4927 137.85 22.4656C137.774 22.4372 137.71 22.3865 137.664 22.3203C137.618 22.2541 137.594 22.1755 137.595 22.0952C137.608 21.4838 137.484 20.8773 137.231 20.3204C136.979 19.7634 136.604 19.2703 136.135 18.8775C135.174 18.1542 134.028 17.718 132.83 17.6197C131.006 17.3108 129.134 17.7292 127.616 18.7849C126.882 19.331 126.334 20.0899 126.047 20.9583C125.759 21.8268 125.746 22.7625 126.01 23.6384C126.03 23.6926 126.038 23.7506 126.033 23.8082C126.028 23.8657 126.009 23.9214 125.98 23.971C125.95 24.0207 125.91 24.063 125.861 24.0949C125.813 24.1268 125.758 24.1475 125.701 24.1554L124.658 24.2943C123.191 24.3886 121.752 24.7358 120.403 25.3206C119.609 25.697 118.933 26.2823 118.447 27.0137C117.962 27.7452 117.684 28.595 117.646 29.472C117.664 29.9491 117.786 30.4166 118.003 30.8418C118.22 31.2669 118.528 31.6395 118.905 31.9335C119.163 32.1496 119.466 32.3049 119.792 32.3877C120.119 32.4705 120.459 32.4788 120.789 32.4119C120.892 32.3843 121.001 32.3985 121.093 32.4513C121.185 32.5041 121.252 32.5912 121.28 32.6936C121.307 32.7959 121.293 32.905 121.24 32.9969C121.187 33.0888 121.1 33.1559 120.998 33.1836C118.534 33.9552 116.966 37.1035 117.769 39.6576C117.982 40.296 118.321 40.8849 118.767 41.3888C119.213 41.8927 119.756 42.3013 120.364 42.5898C120.925 42.8718 121.536 43.0383 122.163 43.0794C122.789 43.1205 123.417 43.0354 124.01 42.829C125.276 42.2296 126.412 41.3881 127.354 40.3521C127.732 39.9894 128.126 39.5804 128.551 39.2332C128.598 39.1953 128.653 39.168 128.711 39.1534C128.77 39.1387 128.831 39.137 128.891 39.1483C128.95 39.1627 129.005 39.1904 129.052 39.2291C129.098 39.2679 129.136 39.3168 129.161 39.3721C129.887 41.116 130.466 41.8104 132.142 41.6407C133.818 41.4709 136.776 38.8551 137.147 37.0726C137.162 36.9893 137.204 36.9134 137.267 36.857C137.331 36.8007 137.411 36.7672 137.495 36.7618C137.58 36.7565 137.664 36.7797 137.734 36.8276C137.803 36.8756 137.855 36.9455 137.88 37.0263C138.514 38.8165 140.777 39.4184 142.514 38.8551C145.202 37.9754 145.951 36.6945 146.978 34.9197C147.006 34.8628 147.047 34.8134 147.099 34.7757C147.15 34.7381 147.209 34.7134 147.272 34.7037V34.7037Z" fill="black"/>
<path d="M123.77 43.5618C123.77 43.4692 123.77 43.3689 123.77 43.2686C123.77 43.1683 124.002 43.1991 124.11 43.1528C125.832 42.5047 127.091 40.9846 128.744 39.4953C129.516 41.3086 130.219 42.1806 132.119 41.9877C134.019 41.7948 137.031 39.0632 137.463 37.1264C138.135 39.0477 140.553 39.8425 142.553 39.1866C145.318 38.2838 146.121 36.9798 147.225 35.0815C147.809 37.2392 149.098 39.1403 150.886 40.483C151.621 41.0034 152.442 41.39 153.311 41.625C153.311 41.9954 153.373 42.3966 153.412 42.7053C153.721 44.9734 153.783 47.2682 153.597 49.5497C155.744 47.7672 157.528 48.0682 158.864 49.4185C159.489 50.0699 159.83 50.9416 159.814 51.8435C159.798 52.7454 159.426 53.6045 158.779 54.2335C158.025 54.8882 157.127 55.3548 156.158 55.595C155.188 55.8351 154.176 55.8419 153.203 55.6147C152.678 59.0099 151.898 65.808 149.535 68.8097C147.032 72.0043 142.584 74.0491 137.996 74.1263C135.762 74.1794 133.541 73.7686 131.474 72.9199C129.406 72.0712 127.538 70.803 125.987 69.1955C122.805 65.6691 122.125 61.0008 122.365 56.6179C122.604 52.235 123.755 47.9524 123.77 43.5618Z" fill="white"/>
<path d="M137.734 74.5354C135.491 74.5576 133.268 74.1229 131.199 73.2579C129.13 72.3929 127.26 71.1158 125.701 69.5044C122.905 66.4178 121.654 62.0658 121.986 56.6412C122.102 54.7198 122.388 52.783 122.666 50.9157C123.079 48.4921 123.321 46.0426 123.392 43.5852V43.2688C123.392 43.1863 123.42 43.1062 123.47 43.0407C123.52 42.9753 123.59 42.928 123.67 42.9061L123.987 42.8058C125.253 42.2064 126.389 41.3649 127.331 40.3288C127.709 39.9662 128.103 39.5572 128.528 39.21C128.575 39.1721 128.63 39.1448 128.688 39.1302C128.747 39.1155 128.808 39.1138 128.868 39.1251C128.927 39.1395 128.982 39.1672 129.029 39.2059C129.075 39.2447 129.113 39.2936 129.138 39.3489C129.864 41.0928 130.443 41.7872 132.119 41.6175C133.795 41.4477 136.753 38.8319 137.124 37.0494C137.141 36.9681 137.184 36.8945 137.247 36.8401C137.309 36.7857 137.388 36.7535 137.471 36.7485C137.555 36.7436 137.637 36.7657 137.707 36.8116C137.776 36.8575 137.829 36.9247 137.857 37.0031C138.491 38.7933 140.754 39.3952 142.491 38.8319C145.179 37.9522 145.928 36.6713 146.955 34.8965C146.994 34.8324 147.05 34.7807 147.117 34.7478C147.184 34.7149 147.259 34.7023 147.334 34.7113C147.407 34.719 147.475 34.7479 147.532 34.7946C147.588 34.8413 147.629 34.9036 147.65 34.9737C148.208 37.0448 149.432 38.8751 151.134 40.1822C151.836 40.6783 152.62 41.0466 153.45 41.2702C153.527 41.2916 153.595 41.3354 153.646 41.3959C153.697 41.4565 153.728 41.531 153.736 41.6098C153.736 42.0264 153.798 42.3814 153.837 42.6746V42.7595C154.096 44.7468 154.179 46.7532 154.084 48.7551C155.922 47.5514 157.706 47.6902 159.166 49.1641C159.512 49.5202 159.785 49.9411 159.968 50.4026C160.152 50.8641 160.243 51.3572 160.236 51.8538C160.228 52.3503 160.123 52.8406 159.927 53.2967C159.73 53.7527 159.445 54.1655 159.088 54.5115C158.341 55.1824 157.45 55.6743 156.484 55.9497C155.518 56.2251 154.501 56.2769 153.512 56.1011C153.512 56.3403 153.443 56.5949 153.404 56.8727C152.848 60.6383 152.014 66.3252 149.828 69.1031C147.249 72.3903 142.715 74.5046 137.996 74.5663L137.734 74.5354ZM124.157 43.5466C124.088 46.0377 123.843 48.5209 123.423 50.9774C123.145 52.8371 122.867 54.7507 122.751 56.6412C122.434 61.8575 123.616 65.9934 126.273 68.9411C127.785 70.516 129.609 71.7585 131.629 72.5889C133.649 73.4193 135.821 73.8195 138.004 73.7638C142.499 73.6943 146.809 71.7112 149.249 68.5938C151.303 65.978 152.161 60.1907 152.67 56.7261C152.724 56.3171 152.786 55.9545 152.84 55.5764C152.848 55.5249 152.866 55.4757 152.894 55.4318C152.922 55.3879 152.959 55.3504 153.003 55.3217C153.044 55.2911 153.092 55.2698 153.143 55.2592C153.193 55.2485 153.245 55.2488 153.296 55.26C154.214 55.4812 155.171 55.479 156.088 55.2534C157.004 55.0278 157.853 54.5855 158.563 53.9636C159.141 53.4078 159.475 52.6454 159.491 51.8438C159.507 51.0422 159.204 50.2671 158.648 49.6888C157.281 48.3076 155.682 48.3616 153.891 49.8508C153.828 49.8923 153.754 49.9144 153.678 49.9144C153.603 49.9144 153.529 49.8923 153.466 49.8508C153.399 49.8139 153.345 49.7585 153.31 49.6914C153.274 49.6243 153.258 49.5484 153.265 49.4727C153.452 47.2457 153.395 45.005 153.095 42.7904V42.7055C153.095 42.4586 153.041 42.1885 153.018 41.8798C152.19 41.6312 151.408 41.2508 150.701 40.7533C149.065 39.5473 147.835 37.8736 147.172 35.9537C146.711 36.8206 146.077 37.5837 145.309 38.1956C144.542 38.8076 143.656 39.2553 142.708 39.5109C141.803 39.842 140.816 39.8769 139.89 39.6106C138.964 39.3442 138.146 38.7905 137.556 38.0294C136.599 39.9816 133.996 42.1499 132.196 42.3351C130.273 42.528 129.401 41.7101 128.644 40.0896L127.871 40.8613C126.856 41.9657 125.633 42.8597 124.272 43.4926L124.157 43.5466Z" fill="black"/>
<path d="M127.848 49.9202C127.812 49.7145 127.839 49.5028 127.925 49.3126C128.011 49.1224 128.152 48.9623 128.33 48.8533C128.508 48.7442 128.715 48.6911 128.924 48.7008C129.133 48.7106 129.334 48.7828 129.501 48.908C129.668 49.0333 129.793 49.2058 129.861 49.4033C129.929 49.6007 129.936 49.8139 129.881 50.0153C129.826 50.2167 129.712 50.397 129.553 50.5327C129.395 50.6685 129.199 50.7535 128.991 50.7767C128.726 50.8141 128.457 50.745 128.242 50.5845C128.028 50.4239 127.886 50.185 127.848 49.9202V49.9202Z" fill="black"/>
<path d="M142.321 50.6994C142.285 50.4938 142.312 50.2821 142.398 50.0919C142.484 49.9017 142.625 49.7416 142.803 49.6326C142.982 49.5235 143.188 49.4704 143.397 49.4801C143.606 49.4899 143.807 49.5621 143.974 49.6873C144.141 49.8126 144.267 49.9851 144.334 50.1825C144.402 50.38 144.409 50.5932 144.354 50.7946C144.299 50.996 144.185 51.1763 144.026 51.312C143.868 51.4478 143.672 51.5328 143.464 51.556C143.199 51.5934 142.93 51.5243 142.715 51.3638C142.501 51.2032 142.359 50.9643 142.321 50.6994V50.6994Z" fill="black"/>
<path d="M138.004 67.6908C137.551 67.6924 137.099 67.6354 136.66 67.5211C136.61 67.5079 136.562 67.4849 136.52 67.4533C136.478 67.4217 136.443 67.3823 136.417 67.3371C136.39 67.292 136.373 67.2421 136.366 67.1902C136.358 67.1384 136.361 67.0856 136.375 67.0349C136.388 66.9843 136.411 66.9367 136.442 66.8949C136.474 66.8531 136.514 66.818 136.559 66.7915C136.604 66.765 136.654 66.7476 136.706 66.7404C136.758 66.7332 136.811 66.7362 136.861 66.7494C137.708 66.9627 138.598 66.9379 139.432 66.6778C140.266 66.4177 141.012 65.9325 141.588 65.2756C141.623 65.2397 141.665 65.2111 141.711 65.1916C141.758 65.1722 141.808 65.1621 141.858 65.1621C141.908 65.1621 141.958 65.1722 142.005 65.1916C142.051 65.2111 142.093 65.2397 142.128 65.2756C142.206 65.3415 142.254 65.4351 142.263 65.5362C142.271 65.6373 142.24 65.7377 142.175 65.8157C141.652 66.4051 141.01 66.8769 140.291 67.2001C139.572 67.5233 138.793 67.6906 138.004 67.6908V67.6908Z" fill="black"/>
<path d="M135.556 62.2588C134.804 62.2481 134.059 62.1072 133.355 61.8421C132.898 61.7028 132.483 61.4507 132.15 61.109C131.931 60.829 131.779 60.5024 131.707 60.1545C131.635 59.8066 131.644 59.4467 131.733 59.1028C131.862 58.5645 132.062 58.0456 132.328 57.5595L132.428 57.3435C133.678 54.7791 134.323 51.9624 134.312 49.1101C134.312 49.0098 134.352 48.9137 134.423 48.8428C134.494 48.7718 134.59 48.732 134.691 48.732V48.732C134.741 48.731 134.791 48.74 134.838 48.7585C134.885 48.7771 134.927 48.8048 134.963 48.84C134.999 48.8752 135.028 48.9172 135.047 48.9636C135.067 49.01 135.077 49.0598 135.077 49.1101C135.088 52.0801 134.417 55.013 133.115 57.683L133.007 57.899C132.781 58.3193 132.604 58.7648 132.482 59.2262C132.416 59.4551 132.404 59.6961 132.447 59.9304C132.49 60.1647 132.586 60.3858 132.729 60.5766C132.979 60.8185 133.284 60.9959 133.617 61.0936C134.429 61.413 135.308 61.5218 136.174 61.41C136.579 61.3648 136.972 61.2383 137.327 61.0381C137.683 60.8379 137.995 60.5681 138.243 60.2448C138.3 60.1602 138.388 60.1014 138.488 60.0812C138.587 60.061 138.691 60.0809 138.776 60.1368C138.858 60.1958 138.914 60.2839 138.933 60.383C138.952 60.482 138.931 60.5845 138.877 60.6692C138.576 61.0914 138.191 61.4466 137.745 61.7122C137.3 61.9779 136.804 62.1482 136.29 62.2125C136.047 62.2473 135.801 62.2628 135.556 62.2588V62.2588Z" fill="black"/>
<path d="M153.404 52.1655H153.35C153.25 52.1502 153.16 52.0964 153.1 52.0156C153.039 51.9348 153.013 51.8334 153.026 51.7333C153.18 50.545 153.242 49.9046 153.342 48.7471C153.353 48.6448 153.403 48.5507 153.483 48.4856C153.563 48.4205 153.665 48.3896 153.767 48.3999C153.87 48.4101 153.964 48.4606 154.029 48.5402C154.094 48.6197 154.125 48.7219 154.115 48.8243C154.007 49.9817 153.953 50.6299 153.79 51.8336C153.777 51.9264 153.731 52.0111 153.66 52.0722C153.589 52.1332 153.498 52.1664 153.404 52.1655V52.1655Z" fill="black"/>
<path d="M120.055 40.6604C120.025 40.671 119.993 40.671 119.963 40.6604C119.476 40.1453 119.136 39.5094 118.979 38.8187C118.821 38.128 118.852 37.4077 119.067 36.7328C119.079 36.7017 119.103 36.6765 119.133 36.6622C119.163 36.6478 119.197 36.6455 119.229 36.6556C119.245 36.6608 119.26 36.6692 119.273 36.6802C119.285 36.6913 119.295 36.7049 119.303 36.72C119.31 36.7352 119.314 36.7517 119.315 36.7685C119.315 36.7853 119.312 36.802 119.306 36.8177C119.106 37.4481 119.079 38.1204 119.227 38.765C119.375 39.4095 119.693 40.0027 120.148 40.4829C120.17 40.5071 120.183 40.5388 120.183 40.5717C120.183 40.6045 120.17 40.6362 120.148 40.6604C120.118 40.6694 120.086 40.6694 120.055 40.6604V40.6604Z" fill="black"/>
<path d="M158.362 39.3023C158.332 39.3129 158.3 39.3129 158.27 39.3023C158.245 39.2777 158.231 39.2444 158.231 39.2097C158.231 39.175 158.245 39.1417 158.27 39.1171C159.079 38.3736 159.656 37.4117 159.93 36.3477C160.204 35.2837 160.164 34.1631 159.814 33.1215C159.809 33.1058 159.806 33.0891 159.807 33.0725C159.808 33.0559 159.812 33.0395 159.819 33.0245C159.827 33.0094 159.837 32.996 159.849 32.9848C159.861 32.9736 159.876 32.965 159.892 32.9595C159.907 32.9539 159.924 32.9515 159.941 32.9523C159.957 32.9532 159.974 32.9573 159.989 32.9645C160.004 32.9716 160.017 32.9817 160.028 32.9941C160.04 33.0065 160.048 33.0209 160.054 33.0366C160.417 34.1291 160.456 35.3036 160.163 36.4173C159.871 37.531 159.262 38.536 158.409 39.31C158.393 39.3106 158.377 39.308 158.362 39.3023V39.3023Z" fill="black"/>
<path d="M64.9277 110.879C60.5873 100.902 55.4977 82.545 50.3464 72.7916C46.6189 70.3755 43.5192 67.1092 41.3026 63.2619C40.5303 61.7186 40.3835 61.1013 41.2253 59.7972C41.8355 58.8404 43.2643 58.8095 44.2451 59.1568C43.635 58.2385 42.4842 57.5209 43.4728 56.24C43.67 55.9263 43.9614 55.6827 44.3053 55.5442C44.6493 55.4056 45.0282 55.3791 45.3881 55.4684C44.6158 53.5007 46.6547 51.8185 48.3461 53.5084C46.8015 51.1935 45.4654 49.1332 43.9671 47.0267C43.0403 45.7149 42.0749 44.1253 42.8472 43.346C43.8435 42.3506 45.3572 43.7086 47.1567 45.8615C49.4408 48.697 51.8826 51.402 54.4705 53.9637C57.498 56.9885 60.734 63.0535 59.4674 65.8083C60.4791 69.9982 75.8018 94.297 80.8219 99.3204C82.66 101.149 81.1617 102.916 80.7292 105.493C80.2118 108.58 77.9566 119.452 70.1099 115.918C67.9242 114.931 65.1902 111.474 64.9277 110.879Z" fill="white"/>
<path d="M73.0759 117.014C72.0057 116.992 70.9525 116.742 69.9867 116.281C67.6697 115.224 64.8662 111.705 64.5805 111.034C62.7732 106.882 60.8579 101.342 58.8267 95.4699C55.9846 87.252 53.0498 78.764 50.0532 73.0616C46.3145 70.6052 43.2018 67.3103 40.9631 63.4393C40.1058 61.8112 39.9745 61.0241 40.9013 59.5812C41.177 59.2142 41.5455 58.9271 41.969 58.7494C42.3925 58.5718 42.8556 58.51 43.3109 58.5703C43.1352 58.4074 42.9933 58.2114 42.8935 57.9935C42.7937 57.7757 42.7379 57.5403 42.7293 57.3009C42.7207 57.0615 42.7595 56.8227 42.8434 56.5983C42.9273 56.3739 43.0547 56.1682 43.2183 55.9931C43.414 55.7207 43.6666 55.4941 43.9587 55.3289C44.2507 55.1637 44.5752 55.0638 44.9096 55.0362C44.8298 54.6087 44.8764 54.1671 45.0437 53.7656C45.211 53.364 45.4919 53.0199 45.8518 52.7754C46.2658 52.524 46.7588 52.436 47.2343 52.5284C46.099 50.8154 44.956 49.0561 43.6971 47.2813C42.6158 45.738 41.6505 44.0867 42.6158 43.1145C42.7584 42.9675 42.9306 42.8523 43.1209 42.7764C43.3113 42.7006 43.5155 42.6659 43.7203 42.6747C44.6625 42.7132 45.7514 43.5775 47.4891 45.6532L47.5664 45.738C49.8185 48.5361 52.2268 51.2051 54.7798 53.7322C57.73 56.6798 61.1437 62.8143 59.9157 65.8777C61.1128 70.1217 76.0262 93.9807 81.1389 99.058C82.614 100.54 82.1506 102.029 81.6563 103.603C81.44 104.235 81.2696 104.883 81.1466 105.54C80.606 108.765 79.1617 114.452 75.6091 116.343C74.8333 116.772 73.9629 117.003 73.0759 117.014V117.014ZM43.0638 59.3342C42.7705 59.3069 42.4751 59.354 42.2051 59.4714C41.935 59.5888 41.699 59.7726 41.5192 60.0056C40.7468 61.1553 40.8704 61.6646 41.6196 63.0921C43.8175 66.8768 46.8792 70.0891 50.5552 72.4675C50.6105 72.5047 50.6556 72.5551 50.6865 72.6141C53.714 78.3473 56.6797 86.9279 59.5527 95.223C61.5762 101.072 63.4838 106.605 65.2833 110.725C65.515 111.265 68.1872 114.622 70.3033 115.579C72.1646 116.42 73.8328 116.458 75.2461 115.702C78.513 113.966 79.88 108.534 80.3897 105.447C80.5248 104.755 80.7028 104.072 80.9226 103.402C81.4015 101.859 81.749 100.779 80.5905 99.629C75.6709 94.706 60.2323 70.4612 59.1356 65.9317C59.1129 65.851 59.1129 65.7655 59.1356 65.6848C60.2709 63.2156 57.367 57.4206 54.216 54.2723C51.6474 51.73 49.2237 49.0456 46.9563 46.2319L46.879 46.147C45.9213 44.9973 44.5621 43.4772 43.6662 43.4386C43.5682 43.4341 43.4704 43.4511 43.3796 43.4884C43.2889 43.5258 43.2075 43.5825 43.141 43.6546C42.4923 44.3028 43.8515 46.2165 44.2995 46.8415C45.8441 49.0792 47.3424 51.2861 48.6785 53.3386C48.732 53.4164 48.7537 53.5115 48.7394 53.6047C48.725 53.6979 48.6756 53.7821 48.6013 53.8402C48.5303 53.9042 48.4381 53.9396 48.3426 53.9396C48.247 53.9396 48.1548 53.9042 48.0838 53.8402C47.8759 53.5649 47.5757 53.3736 47.2381 53.3013C46.9006 53.2291 46.5483 53.2807 46.2457 53.4467C45.9462 53.6599 45.7327 53.9728 45.6435 54.3293C45.5543 54.6857 45.5953 55.0623 45.7592 55.3912C45.7858 55.4603 45.7919 55.5356 45.7769 55.6082C45.7618 55.6807 45.7262 55.7473 45.6742 55.8002C45.6208 55.8513 45.5541 55.8863 45.4817 55.9013C45.4094 55.9163 45.3342 55.9107 45.2649 55.885C44.9854 55.8281 44.6952 55.8566 44.4322 55.9667C44.1691 56.0768 43.9452 56.2634 43.7898 56.5023C43.1951 57.2354 43.4654 57.6289 44.0832 58.3697C44.2481 58.5622 44.4027 58.7631 44.5466 58.9716C44.5932 59.0369 44.6182 59.1151 44.6182 59.1954C44.6182 59.2756 44.5932 59.3538 44.5466 59.4191C44.4951 59.4805 44.4264 59.525 44.3493 59.547C44.2722 59.569 44.1903 59.5675 44.1141 59.5426C43.7782 59.4148 43.4231 59.3444 43.0638 59.3342V59.3342Z" fill="black"/>
<path d="M46.8711 64.9594C46.644 64.9589 46.419 64.9171 46.2069 64.8359C45.7762 64.6485 45.3816 64.3873 45.0407 64.0643L43.4961 62.7371C43.4575 62.7045 43.4258 62.6646 43.4029 62.6196C43.38 62.5746 43.3664 62.5255 43.3628 62.4752C43.3592 62.4248 43.3657 62.3743 43.382 62.3265C43.3982 62.2787 43.4239 62.2347 43.4575 62.197C43.5297 62.1263 43.6267 62.0867 43.7278 62.0867C43.8289 62.0867 43.9259 62.1263 43.9981 62.197L45.5427 63.5165C45.8133 63.7882 46.1296 64.0102 46.4772 64.1723C46.6085 64.2554 46.7632 64.2938 46.9181 64.2816C47.073 64.2694 47.2197 64.2073 47.3363 64.1047C47.453 64.0021 47.5331 63.8645 47.5648 63.7125C47.5965 63.5606 47.578 63.4024 47.5121 63.2618C47.3814 62.8838 47.1736 62.537 46.902 62.2433C46.3659 61.5255 45.7315 60.8865 45.0175 60.345C44.755 60.1367 44.4229 59.8821 43.9826 59.504C43.9042 59.4392 43.8546 59.3461 43.8445 59.245C43.8343 59.1438 43.8646 59.0428 43.9286 58.9638C43.9606 58.9247 44.0002 58.8924 44.0449 58.8688C44.0897 58.8453 44.1387 58.8309 44.1891 58.8266C44.2395 58.8223 44.2903 58.8281 44.3384 58.8437C44.3865 58.8593 44.431 58.8844 44.4692 58.9175C44.9094 59.2879 45.2415 59.5425 45.4887 59.7432C46.2498 60.3164 46.9259 60.9944 47.4967 61.7571C47.8431 62.1326 48.1063 62.577 48.269 63.0612C48.3565 63.3483 48.3609 63.6543 48.2816 63.9438C48.2023 64.2333 48.0427 64.4944 47.821 64.6971C47.5453 64.8937 47.2088 64.9866 46.8711 64.9594V64.9594Z" fill="black"/>
<path d="M49.6514 63.6399C49.3043 63.6265 48.9632 63.5452 48.6474 63.4006C48.2766 63.254 47.875 63.0843 47.5198 62.9145C47.4281 62.871 47.3572 62.7932 47.3225 62.6979C47.2879 62.6026 47.2921 62.4974 47.3344 62.4052C47.378 62.3136 47.4559 62.2428 47.5513 62.2082C47.6467 62.1735 47.7519 62.1778 47.8441 62.22C48.2071 62.3821 48.5701 62.5441 48.9408 62.6907C49.228 62.8572 49.5692 62.9043 49.8908 62.8219C50.2074 62.6676 50.2692 62.1506 50.1843 61.7339C50.0375 61.0626 49.0644 59.5039 45.2646 55.8849L45.1565 55.7846C45.0853 55.7112 45.0454 55.6129 45.0454 55.5107C45.0454 55.4084 45.0853 55.3102 45.1565 55.2368C45.2287 55.1661 45.3257 55.1265 45.4268 55.1265C45.5279 55.1265 45.6249 55.1661 45.6971 55.2368L45.8052 55.3371C49.0103 58.4236 50.6863 60.4376 50.9334 61.5796C51.0454 61.9312 51.0396 62.3098 50.917 62.6579C50.7943 63.0059 50.5615 63.3046 50.2538 63.5087C50.0668 63.6013 49.8599 63.6464 49.6514 63.6399V63.6399Z" fill="black"/>
<path d="M52.3933 66.2246C52.3236 66.2256 52.2551 66.2075 52.1951 66.1721C52.1351 66.1367 52.0861 66.0854 52.0535 66.024C51.1344 64.2878 51.9067 62.5208 52.4705 61.2321C52.6636 60.7769 52.9879 60.0284 52.8721 59.9049C52.4628 59.4651 50.671 59.3185 49.7828 59.249C49.497 59.2383 49.2127 59.2022 48.9333 59.141C48.603 59.0588 48.2941 58.9068 48.0276 58.6951C47.7612 58.4835 47.5433 58.2171 47.3887 57.9141C47.3154 57.7636 47.2735 57.5999 47.2656 57.4327C47.2576 57.2656 47.2837 57.0986 47.3423 56.9418C47.6263 56.3781 48.0765 55.9149 48.6321 55.6146C49.5434 55.3137 51.7214 55.3754 53.6599 55.4603H54.3086C55.0809 55.4603 57.2125 56.2319 57.4751 57.1425C57.5017 57.2407 57.4892 57.3453 57.4403 57.4345C57.3913 57.5237 57.3097 57.5905 57.2125 57.6209C57.1142 57.6495 57.0085 57.638 56.9187 57.5888C56.8289 57.5396 56.7623 57.4568 56.7337 57.3585C56.6333 57.0113 54.9805 56.2474 54.2777 56.2242H53.629C52.262 56.1702 49.7674 56.0545 48.8792 56.34C48.5329 56.5708 48.249 56.8836 48.0529 57.2505C48.0233 57.3704 48.0399 57.4971 48.0992 57.6055C48.2179 57.8035 48.3768 57.9745 48.5657 58.1074C48.7546 58.2403 48.9693 58.3322 49.1959 58.3771C49.2654 58.3771 49.5898 58.4234 49.8678 58.4465C51.3661 58.57 52.8721 58.7398 53.4359 59.3493C53.8916 59.8355 53.5749 60.5685 53.1733 61.4945C52.6404 62.706 51.9839 64.2184 52.7331 65.6305C52.7775 65.721 52.7854 65.8251 52.7552 65.9213C52.725 66.0175 52.6591 66.0984 52.5709 66.1474C52.5196 66.1884 52.4583 66.2151 52.3933 66.2246Z" fill="black"/>
<path d="M50.3466 56.155C50.2794 56.1539 50.2135 56.1355 50.1554 56.1018C50.0973 56.068 50.0488 56.0199 50.0145 55.9621C49.6046 55.4158 49.1555 54.9 48.6707 54.4188C48.4004 54.1333 48.1455 53.8555 47.9679 53.6472C47.9154 53.5683 47.8938 53.4728 47.9072 53.379C47.9207 53.2852 47.9682 53.1996 48.0407 53.1386C48.1133 53.0775 48.2058 53.0453 48.3006 53.048C48.3954 53.0507 48.4859 53.0882 48.5548 53.1534C48.717 53.3463 48.9719 53.6163 49.2345 53.925C49.7638 54.4456 50.247 55.011 50.6787 55.6149C50.7046 55.6576 50.7217 55.7052 50.7287 55.7548C50.7358 55.8043 50.7327 55.8547 50.7197 55.903C50.7067 55.9514 50.6841 55.9965 50.6531 56.0359C50.6222 56.0752 50.5836 56.1079 50.5397 56.1319C50.4788 56.1578 50.4118 56.1658 50.3466 56.155V56.155Z" fill="black"/>
<path d="M51.0418 62.413C50.9495 62.4243 50.8561 62.4243 50.7638 62.413C50.7143 62.4023 50.6675 62.3816 50.6264 62.3521C50.5852 62.3226 50.5506 62.285 50.5245 62.2416C50.4985 62.1983 50.4816 62.15 50.4749 62.0999C50.4682 62.0497 50.4719 61.9987 50.4857 61.9501C50.5113 61.8524 50.5741 61.7686 50.6607 61.7167C50.7473 61.6648 50.8509 61.6488 50.9491 61.6723C51.0794 61.6866 51.2112 61.6646 51.3298 61.6088C51.4483 61.553 51.5492 61.4654 51.621 61.3559C51.7671 61.0802 51.8262 60.7666 51.7903 60.4567C51.7545 60.1467 51.6254 59.8549 51.4202 59.6197C51.3682 59.5335 51.352 59.4303 51.3751 59.3322C51.3982 59.2342 51.4587 59.1491 51.5438 59.095C51.6313 59.0426 51.7358 59.0262 51.8352 59.0492C51.9346 59.0723 52.0212 59.1329 52.0767 59.2185C52.9262 60.592 52.4783 61.4871 52.2466 61.8034C52.1051 61.9896 51.9231 62.1412 51.7144 62.2468C51.5057 62.3524 51.2757 62.4092 51.0418 62.413Z" fill="black"/>
<path d="M195.086 126.775C192.352 112.43 192.337 97.0438 180.775 87.4215C175.222 82.7917 162.07 80.7932 154.354 80.2993C153.883 87.761 146.585 89.5589 141.912 89.2348C134.112 88.7333 132.722 87.2054 130.737 81.287C128.991 81.9815 118.449 82.5139 111.607 88.6175C98.9021 99.9606 82.2587 98.1935 81.3628 99.1041C80.0808 100.37 83.17 111.342 71.9947 116.528C67.2835 118.704 95.5271 123.194 114.974 118.071C114.248 128.241 120.202 156.406 122.311 167.826C142.6 181.962 182.026 167.479 182.026 167.479C182.026 167.479 178.837 158.096 178.837 151.02C178.837 147.509 191.124 154.77 192.738 155.063C193.114 155.085 193.49 155.018 193.836 154.87C194.182 154.721 194.488 154.494 194.731 154.207C196.113 150.981 197.596 139.962 195.086 126.775Z" fill="#2046DC"/>
<path d="M146.5 174.362C137.919 174.362 128.93 172.872 122.102 168.111C122.019 168.056 121.96 167.97 121.94 167.872C121.608 166.051 121.168 163.837 120.681 161.275C118.071 147.748 114.147 127.446 114.572 118.549C104.285 121.165 92.847 120.957 86.8925 120.594C79.4937 120.147 71.7088 118.866 71.145 117.292C71.0523 117.037 71.0215 116.52 71.8478 116.18C80.0498 112.384 80.3433 105.378 80.5673 101.566C80.6368 100.107 80.6754 99.2507 81.1002 98.8109C81.3859 98.5177 82.0347 98.4637 84.0349 98.317C89.279 97.9389 101.559 97.0593 111.359 88.2858C116.766 83.4399 124.342 82.1127 128.404 81.3411C129.148 81.2351 129.884 81.0779 130.605 80.8704C130.653 80.8493 130.704 80.8384 130.756 80.8384C130.808 80.8384 130.859 80.8493 130.907 80.8704C130.955 80.8919 130.998 80.9228 131.034 80.9612C131.069 80.9996 131.097 81.0448 131.115 81.0942C133.054 86.8891 134.282 88.2935 141.928 88.8105C144.551 88.9822 147.172 88.4494 149.519 87.2672C150.83 86.5995 151.936 85.59 152.719 84.3457C153.502 83.1014 153.933 81.6685 153.968 80.1991C153.976 80.098 154.023 80.004 154.099 79.9367C154.135 79.9026 154.178 79.8766 154.224 79.8606C154.271 79.8446 154.321 79.839 154.37 79.8441C163.367 80.4228 175.74 82.6529 181.014 87.0512C190.514 94.9759 192.344 106.944 194.144 118.511C194.553 121.188 194.978 123.958 195.488 126.644C197.889 139.283 196.692 150.611 195.117 154.284C194.816 154.986 193.371 155.48 192.707 155.356C191.546 154.966 190.421 154.473 189.348 153.882C186.32 152.424 180.698 149.708 179.439 150.495C179.367 150.543 179.31 150.611 179.274 150.69C179.239 150.769 179.226 150.857 179.238 150.943C179.238 157.887 182.381 167.147 182.412 167.278C182.445 167.373 182.439 167.477 182.395 167.568C182.352 167.659 182.275 167.729 182.181 167.764C174.918 170.258 167.445 172.094 159.853 173.251C155.436 173.952 150.972 174.323 146.5 174.362V174.362ZM122.666 167.579C133.038 174.709 148.531 174.223 159.737 172.556C167.159 171.418 174.467 169.634 181.578 167.224C180.999 165.426 178.489 157.27 178.489 151.02C178.475 150.804 178.52 150.589 178.618 150.396C178.715 150.204 178.863 150.041 179.045 149.924C180.543 148.983 184.752 150.889 189.695 153.273C190.718 153.814 191.776 154.286 192.862 154.685C193.438 154.683 193.991 154.459 194.406 154.06C195.596 151.274 197.333 140.556 194.723 126.868C194.213 124.167 193.788 121.389 193.379 118.704C191.549 106.751 189.819 95.4543 180.543 87.7148C175.485 83.4939 163.552 81.3179 154.725 80.7083C154.615 82.2366 154.114 83.7111 153.27 84.9906C152.426 86.27 151.268 87.3117 149.906 88.0157C147.413 89.2437 144.636 89.7795 141.866 89.5667C134.143 89.0729 132.459 87.5219 130.474 81.7115C130.019 81.8272 129.347 81.9507 128.505 82.105C124.52 82.8149 117.105 84.1498 111.838 88.8491C101.845 97.7692 89.3794 98.6643 84.0349 99.0501C83.2072 99.0707 82.3828 99.1636 81.5713 99.3279C81.3426 100.053 81.2433 100.813 81.2778 101.573C81.0924 105.516 80.7372 112.847 72.1104 116.844C72.0026 116.884 71.9049 116.947 71.8247 117.029C72.1722 117.724 77.3853 119.221 86.8616 119.799C92.8779 120.17 104.509 120.378 114.835 117.646C114.894 117.632 114.955 117.631 115.014 117.645C115.073 117.658 115.128 117.685 115.175 117.724C115.221 117.763 115.258 117.813 115.283 117.869C115.307 117.926 115.317 117.987 115.314 118.048C114.704 126.536 118.882 148.142 121.384 161.097C121.909 163.644 122.326 165.781 122.658 167.579H122.666Z" fill="#365DE0"/>
<path d="M174.148 139.723C174.068 139.724 173.989 139.699 173.924 139.651C173.859 139.604 173.81 139.537 173.785 139.461C169.646 126.929 167.306 119.005 167.306 101.828C167.306 101.726 167.346 101.628 167.419 101.555C167.491 101.483 167.589 101.442 167.692 101.442C167.794 101.442 167.892 101.483 167.965 101.555C168.037 101.628 168.078 101.726 168.078 101.828C168.078 118.889 170.395 126.767 174.519 139.222C174.536 139.269 174.543 139.319 174.54 139.369C174.537 139.418 174.524 139.467 174.502 139.512C174.479 139.557 174.448 139.596 174.41 139.629C174.372 139.661 174.327 139.685 174.28 139.7C174.238 139.716 174.193 139.724 174.148 139.723V139.723Z" fill="#20A4DC"/>
<path d="M114.974 118.433C114.88 118.43 114.79 118.395 114.719 118.333C114.503 118.14 114.495 117.932 114.464 115.393C114.464 113.51 114.387 110.37 114.209 105.586C114.207 105.485 114.245 105.387 114.314 105.313C114.383 105.24 114.479 105.196 114.58 105.192C114.63 105.19 114.68 105.198 114.728 105.216C114.775 105.233 114.818 105.26 114.855 105.295C114.891 105.329 114.921 105.371 114.941 105.417C114.962 105.463 114.973 105.512 114.974 105.563C115.151 110.347 115.198 113.495 115.229 115.378C115.229 116.728 115.229 117.631 115.306 117.855C115.348 117.924 115.367 118.005 115.358 118.086C115.35 118.167 115.315 118.243 115.259 118.302C115.224 118.343 115.18 118.376 115.131 118.398C115.081 118.421 115.028 118.433 114.974 118.433Z" fill="#20A4DC"/>
<path d="M136.838 111.412C129.045 111.412 121.971 110.725 118.233 108.827C118.204 108.809 118.182 108.781 118.172 108.748C118.162 108.715 118.165 108.68 118.179 108.649C118.186 108.634 118.197 108.621 118.209 108.61C118.222 108.599 118.237 108.591 118.252 108.586C118.268 108.581 118.285 108.579 118.302 108.581C118.318 108.582 118.334 108.587 118.349 108.595C126.072 112.515 148.176 111.234 161.158 109.413C161.189 109.414 161.218 109.426 161.24 109.446C161.263 109.467 161.278 109.494 161.283 109.524C161.287 109.555 161.281 109.585 161.266 109.611C161.25 109.638 161.226 109.657 161.197 109.668C153.124 110.776 144.987 111.359 136.838 111.412V111.412Z" fill="black"/>
<path d="M145.148 122.338C136.085 122.277 127.061 121.145 118.264 118.966C118.231 118.957 118.204 118.936 118.187 118.907C118.169 118.879 118.164 118.845 118.171 118.812C118.178 118.778 118.199 118.749 118.228 118.73C118.257 118.711 118.292 118.705 118.325 118.712C129.2 121.374 145.665 123.82 162.347 120.417C162.364 120.414 162.38 120.414 162.397 120.417C162.413 120.42 162.428 120.427 162.442 120.436C162.456 120.445 162.467 120.457 162.476 120.471C162.485 120.485 162.491 120.501 162.494 120.517C162.499 120.533 162.5 120.55 162.498 120.567C162.495 120.584 162.49 120.6 162.481 120.614C162.473 120.629 162.461 120.641 162.447 120.651C162.434 120.661 162.418 120.668 162.401 120.672C156.721 121.803 150.94 122.361 145.148 122.338V122.338Z" fill="black"/>
<path d="M195.997 143.103C195.964 143.114 195.929 143.114 195.897 143.103C193.374 140.191 190.148 137.972 186.526 136.655C182.903 135.339 179.004 134.968 175.199 135.579C175.165 135.582 175.132 135.573 175.105 135.553C175.078 135.533 175.059 135.504 175.052 135.471C175.049 135.455 175.048 135.438 175.052 135.422C175.055 135.406 175.062 135.391 175.071 135.377C175.08 135.363 175.092 135.351 175.106 135.343C175.12 135.334 175.136 135.328 175.152 135.325C179.002 134.709 182.945 135.084 186.609 136.415C190.273 137.747 193.536 139.99 196.09 142.933C196.102 142.945 196.111 142.958 196.118 142.974C196.124 142.989 196.127 143.005 196.127 143.022C196.127 143.038 196.124 143.055 196.118 143.07C196.111 143.085 196.102 143.099 196.09 143.111C196.059 143.119 196.026 143.117 195.997 143.103V143.103Z" fill="black"/>
<path d="M195.086 137.694H195.039C194.26 137.326 193.549 136.827 192.939 136.22C192.722 136.019 192.491 135.811 192.259 135.626C190.846 134.465 189.142 133.713 187.332 133.45C187.299 133.442 187.27 133.423 187.25 133.397C187.23 133.37 187.221 133.336 187.224 133.303C187.229 133.27 187.248 133.24 187.275 133.219C187.303 133.199 187.337 133.191 187.37 133.195C189.224 133.47 190.97 134.24 192.421 135.425C192.653 135.618 192.885 135.826 193.109 136.027C193.695 136.618 194.38 137.104 195.132 137.462C195.16 137.472 195.183 137.492 195.197 137.517C195.211 137.543 195.216 137.573 195.211 137.601C195.205 137.63 195.189 137.656 195.167 137.674C195.144 137.693 195.115 137.702 195.086 137.701V137.694Z" fill="black"/>
<path d="M83.1235 110.054H83.0772C83.0612 110.049 83.0464 110.04 83.0339 110.029C83.0215 110.018 83.0116 110.004 83.005 109.989C82.9984 109.973 82.9952 109.957 82.9957 109.94C82.9961 109.923 83.0002 109.907 83.0077 109.892C84.2894 106.741 84.9073 103.361 84.8226 99.9608C84.8216 99.9439 84.824 99.927 84.8297 99.9112C84.8355 99.8953 84.8444 99.8807 84.856 99.8684C84.8676 99.8561 84.8815 99.8464 84.8971 99.8397C84.9126 99.833 84.9293 99.8296 84.9462 99.8296V99.8296C84.979 99.8296 85.0104 99.8426 85.0336 99.8657C85.0568 99.8889 85.0698 99.9203 85.0698 99.9531C85.1587 103.388 84.5328 106.804 83.2317 109.984C83.2225 110.005 83.2074 110.023 83.1881 110.035C83.1689 110.048 83.1464 110.054 83.1235 110.054V110.054Z" fill="black"/>
<path d="M87.8039 103.765C87.7874 103.761 87.7718 103.754 87.7581 103.744C87.7444 103.735 87.7328 103.722 87.7242 103.708C87.7155 103.693 87.7098 103.677 87.7076 103.66C87.7054 103.644 87.7066 103.627 87.7112 103.61C87.9826 102.414 88.0582 101.181 87.9352 99.9606C87.933 99.927 87.9438 99.8939 87.9653 99.868C87.9869 99.8422 88.0176 99.8256 88.051 99.8217C88.0674 99.8183 88.0844 99.8186 88.1007 99.8224C88.117 99.8262 88.1323 99.8334 88.1455 99.8437C88.1587 99.854 88.1695 99.867 88.1772 99.8818C88.1849 99.8967 88.1893 99.913 88.1901 99.9297C88.3143 101.182 88.2361 102.445 87.9584 103.672C87.9478 103.703 87.9265 103.73 87.8982 103.747C87.8699 103.764 87.8365 103.77 87.8039 103.765V103.765Z" fill="black"/>
<path d="M175.175 140.425C175.092 140.427 175.01 140.4 174.943 140.35C174.875 140.299 174.827 140.228 174.805 140.147C172.003 129.842 170.101 119.314 169.12 108.68C169.114 108.579 169.146 108.48 169.211 108.403C169.276 108.325 169.368 108.275 169.468 108.264C169.569 108.257 169.668 108.289 169.746 108.354C169.824 108.419 169.873 108.51 169.885 108.611C170.861 119.2 172.755 129.685 175.546 139.947C175.572 140.045 175.558 140.15 175.508 140.238C175.457 140.326 175.374 140.39 175.276 140.418L175.175 140.425Z" fill="black"/>
<path d="M114.14 120.355C114.039 120.351 113.944 120.309 113.874 120.237C113.803 120.165 113.763 120.07 113.761 119.969L113.939 108.271C113.941 108.17 113.982 108.074 114.055 108.003C114.127 107.933 114.224 107.893 114.325 107.893C114.426 107.895 114.522 107.937 114.593 108.009C114.664 108.081 114.703 108.178 114.703 108.279L114.526 119.977C114.522 120.077 114.48 120.172 114.408 120.243C114.336 120.313 114.24 120.353 114.14 120.355V120.355Z" fill="white"/>
<path d="M138.697 98.6725L98.2666 106.568L108.567 159.216L148.997 151.32L138.697 98.6725Z" fill="white"/>
<path d="M108.571 159.593C108.482 159.593 108.396 159.562 108.327 159.506C108.258 159.449 108.211 159.371 108.193 159.284L97.8902 106.635C97.881 106.586 97.8817 106.535 97.8923 106.486C97.9029 106.437 97.9232 106.391 97.9519 106.35C97.9786 106.308 98.0136 106.272 98.0548 106.244C98.096 106.216 98.1425 106.197 98.1914 106.188L138.622 98.2862C138.721 98.2679 138.824 98.2892 138.907 98.3454C138.991 98.4017 139.049 98.4884 139.07 98.5871L149.373 151.243C149.383 151.292 149.384 151.343 149.375 151.392C149.365 151.441 149.346 151.487 149.319 151.529C149.259 151.611 149.171 151.669 149.071 151.691L108.656 159.585L108.571 159.593ZM98.7165 106.859L108.872 158.759L148.546 151.043L138.39 99.1118L98.7165 106.859Z" fill="black"/>
<path d="M127.547 218.515C127.457 218.516 127.37 218.484 127.302 218.426C127.234 218.368 127.189 218.287 127.176 218.198C124.937 204.209 124.319 189.825 123.724 175.913L123.4 168.582C123.397 168.532 123.404 168.482 123.42 168.435C123.437 168.388 123.463 168.345 123.497 168.308C123.531 168.271 123.572 168.242 123.618 168.221C123.663 168.201 123.713 168.19 123.763 168.189C123.864 168.185 123.963 168.22 124.038 168.288C124.113 168.356 124.158 168.45 124.164 168.551C124.28 170.99 124.38 173.436 124.489 175.882C125.083 189.771 125.701 204.132 127.933 218.075C127.947 218.176 127.92 218.278 127.86 218.36C127.799 218.442 127.709 218.498 127.609 218.515H127.547Z" fill="black"/>
<path d="M158.169 195.188C158.094 195.186 158.022 195.163 157.96 195.12C157.898 195.078 157.85 195.018 157.822 194.949C156.794 192.511 156.2 190.813 155.675 189.316C155.22 187.93 154.683 186.572 154.068 185.249C151.963 185.393 149.851 185.416 147.743 185.319H147.334C147.283 185.319 147.233 185.309 147.187 185.289C147.141 185.27 147.098 185.241 147.063 185.205C147.028 185.17 147 185.127 146.982 185.08C146.963 185.033 146.954 184.983 146.955 184.933C146.956 184.882 146.967 184.832 146.987 184.786C147.008 184.74 147.037 184.698 147.074 184.663C147.11 184.627 147.153 184.6 147.201 184.581C147.248 184.563 147.298 184.554 147.349 184.555H147.766C149.916 184.669 152.07 184.633 154.215 184.447C154.298 184.432 154.383 184.444 154.458 184.481C154.534 184.519 154.595 184.58 154.632 184.655C155.314 186.098 155.905 187.583 156.401 189.1C156.918 190.589 157.513 192.271 158.524 194.694C158.563 194.788 158.564 194.892 158.527 194.986C158.489 195.08 158.416 195.155 158.324 195.196C158.272 195.201 158.22 195.198 158.169 195.188V195.188Z" fill="black"/>
<path d="M182.258 173.528C182.177 173.527 182.098 173.5 182.033 173.452C181.967 173.403 181.919 173.336 181.895 173.258C181.787 172.911 181.617 172.448 181.439 171.962C180.891 170.673 180.509 169.319 180.304 167.934C180.301 167.884 180.308 167.834 180.325 167.787C180.341 167.74 180.367 167.696 180.401 167.66C180.435 167.623 180.476 167.593 180.522 167.573C180.568 167.552 180.617 167.541 180.667 167.54C180.717 167.537 180.768 167.544 180.815 167.561C180.863 167.577 180.907 167.603 180.944 167.637C180.982 167.671 181.012 167.712 181.033 167.758C181.055 167.803 181.067 167.853 181.069 167.903C181.272 169.206 181.638 170.479 182.158 171.692C182.343 172.193 182.513 172.664 182.629 173.027C182.658 173.125 182.648 173.231 182.6 173.321C182.552 173.412 182.471 173.481 182.374 173.513L182.258 173.528Z" fill="black"/>
<path d="M188.506 141.166C185.679 140.078 158.679 130.787 154.91 126.551C152.5 123.85 145.642 118.41 143.665 118.117C140.367 117.631 138.259 116.906 135.463 117.423C133.146 117.855 128.976 119.869 129.107 120.687C129.516 123.218 134.799 119.776 135.34 119.792C137.455 119.68 139.552 120.236 141.333 121.381C139.016 122.253 135.031 124.159 134.197 125.162C133.362 126.165 131.617 130.741 131.501 131.482C131.293 132.771 132.274 133.658 133.239 132.061C134.307 130.631 135.243 129.107 136.035 127.508C136.274 126.875 140.306 125.108 142.337 124.854C140.159 124.854 136.591 126.513 136.012 127.523C135.88 127.77 133.911 132.153 133.834 132.539C133.494 134.221 135.046 134.298 135.865 133.125C136.792 131.791 137.595 129.854 137.857 129.584C139.317 128.11 141.286 128.04 142.847 127.709C141.066 127.803 139.352 128.411 137.911 129.46C137.626 129.692 135.208 133.411 136.367 134.453C137.008 135.016 138.452 134.129 139.649 131.366C140.625 131.227 141.607 131.142 142.592 131.111C143.31 131.05 147.226 135.286 150.222 135.888C150.832 136.011 161.645 148.373 176.72 155.873C178.072 156.537 189.85 161.198 194.754 153.636C195.982 151.776 197.009 144.438 188.506 141.166Z" fill="white"/>
<path d="M185.841 158.242C182.643 158.193 179.489 157.489 176.574 156.174C164.51 150.179 155.111 141.027 151.566 137.578C150.886 136.914 150.3 136.343 150.122 136.22C148.137 135.796 145.905 133.99 144.268 132.67C143.759 132.216 143.208 131.81 142.623 131.459C142.275 131.459 141.966 131.459 141.657 131.513C141.083 131.527 140.51 131.579 139.943 131.667C139.109 133.504 138.066 134.754 137.116 134.931C136.947 134.976 136.77 134.98 136.599 134.942C136.429 134.905 136.27 134.827 136.135 134.715C135.885 134.483 135.728 134.167 135.695 133.828C135.485 134.025 135.225 134.161 134.944 134.223C134.662 134.284 134.369 134.267 134.096 134.175C133.88 134.083 133.193 133.689 133.448 132.439C133.444 132.421 133.444 132.403 133.448 132.385C132.753 133.411 132.096 133.311 131.833 133.211C131.519 133.039 131.273 132.764 131.139 132.432C131.006 132.099 130.992 131.731 131.1 131.39C131.231 130.572 132.953 125.988 133.88 124.885C134.807 123.781 138.213 122.184 140.453 121.273C138.874 120.457 137.109 120.066 135.332 120.139C135.013 120.264 134.701 120.405 134.398 120.563C132.853 121.297 130.621 122.408 129.424 121.783C129.225 121.676 129.056 121.523 128.931 121.336C128.806 121.149 128.728 120.934 128.706 120.71C128.497 119.414 133.44 117.377 135.371 117.014C137.401 116.725 139.468 116.832 141.457 117.33C142.159 117.462 142.885 117.593 143.696 117.708C145.789 118.025 152.732 123.527 155.173 126.266C158.378 129.862 179.385 137.439 186.289 139.924C187.417 140.333 188.236 140.626 188.606 140.78C193.086 142.501 194.785 145.279 195.48 147.308C195.85 148.363 196.005 149.482 195.936 150.597C195.867 151.713 195.575 152.804 195.078 153.806C192.916 157.239 189.325 158.242 185.841 158.242ZM142.638 130.726C143.032 130.726 143.565 131.135 144.762 132.107C146.253 133.319 148.515 135.147 150.33 135.51C150.547 135.549 150.755 135.742 152.114 137.053C155.628 140.479 164.966 149.569 176.921 155.511C177.045 155.573 189.494 161.128 194.46 153.412C195.335 151.583 195.449 149.483 194.777 147.571C193.904 144.885 191.688 142.794 188.367 141.513C187.988 141.367 187.178 141.074 186.05 140.672C173.986 136.32 157.613 130.155 154.624 126.783C152.145 124.005 145.357 118.742 143.604 118.48C142.785 118.357 142.059 118.218 141.341 118.087C139.225 117.701 137.549 117.4 135.533 117.778C133.177 118.218 129.71 120.039 129.493 120.625C129.498 120.726 129.529 120.824 129.583 120.909C129.637 120.995 129.713 121.064 129.802 121.111C130.652 121.559 132.892 120.471 134.089 119.884C134.474 119.642 134.901 119.472 135.348 119.383C137.528 119.283 139.687 119.86 141.526 121.034C141.585 121.073 141.632 121.128 141.662 121.192C141.692 121.256 141.704 121.327 141.696 121.397C141.69 121.468 141.663 121.535 141.619 121.591C141.575 121.647 141.516 121.69 141.449 121.713C138.869 122.678 135.185 124.53 134.498 125.378C133.726 126.351 132.003 130.78 131.888 131.552C131.803 132.099 131.972 132.478 132.135 132.532C132.297 132.586 132.59 132.4 132.907 131.86L133.015 131.714C133.81 130.632 134.543 129.507 135.209 128.342C135.456 127.801 135.641 127.408 135.672 127.346C136.375 126.112 140.167 124.476 142.329 124.476C142.432 124.469 142.533 124.502 142.61 124.57C142.688 124.637 142.735 124.732 142.742 124.834C142.75 124.937 142.716 125.038 142.648 125.115C142.581 125.193 142.486 125.24 142.383 125.247C140.313 125.51 136.668 127.207 136.375 127.678C136.237 128.034 136.074 128.379 135.888 128.712C135.27 130.062 134.266 132.346 134.197 132.632C134.104 133.095 134.197 133.403 134.398 133.519C134.598 133.635 135.17 133.434 135.541 132.917C135.672 132.732 135.795 132.539 135.927 132.331C136.316 131.189 136.901 130.124 137.657 129.183C137.903 128.987 138.161 128.807 138.429 128.643C138.869 128.359 139.344 128.133 139.842 127.971C140.802 127.655 141.794 127.445 142.8 127.346C142.899 127.333 142.998 127.359 143.077 127.418C143.157 127.477 143.21 127.565 143.225 127.663C143.239 127.76 143.216 127.86 143.16 127.941C143.105 128.023 143.02 128.08 142.924 128.102L142.098 128.249C141.308 128.353 140.531 128.539 139.781 128.805C139.502 128.916 139.231 129.045 138.97 129.19C138.658 129.382 138.37 129.61 138.112 129.869C137.923 130.172 137.753 130.487 137.603 130.811C137.325 131.351 136.977 132.03 136.599 132.67C136.492 132.984 136.435 133.312 136.429 133.643C136.423 133.742 136.437 133.841 136.472 133.934C136.506 134.027 136.56 134.112 136.63 134.183C136.672 134.217 136.723 134.24 136.777 134.25C136.831 134.259 136.887 134.255 136.938 134.237C137.479 134.113 138.429 133.249 139.309 131.22C139.335 131.162 139.375 131.111 139.424 131.072C139.474 131.033 139.533 131.007 139.595 130.996C140.261 130.878 140.935 130.811 141.611 130.795C141.912 130.795 142.229 130.795 142.569 130.741L142.638 130.726Z" fill="black"/>
<path d="M119.724 130.24C119.446 128.496 120.975 126.806 123.129 126.466C125.284 126.127 127.269 127.238 127.547 128.997C127.825 130.757 126.296 132.423 124.141 132.77C121.986 133.118 120.002 132.007 119.724 130.24Z" fill="black"/>
<path d="M123.369 133.21C121.345 133.21 119.623 132.014 119.345 130.301C119.036 128.357 120.704 126.443 123.075 126.088C124.157 125.902 125.27 126.087 126.234 126.613C126.672 126.847 127.051 127.177 127.344 127.577C127.637 127.978 127.836 128.44 127.925 128.928C128.234 130.872 126.566 132.786 124.195 133.141C123.922 133.183 123.645 133.206 123.369 133.21V133.21ZM123.909 126.79C123.669 126.789 123.429 126.807 123.191 126.844C121.245 127.153 119.862 128.65 120.102 130.178C120.349 131.721 122.133 132.701 124.079 132.392C126.025 132.084 127.408 130.587 127.168 129.051C127.099 128.676 126.945 128.322 126.717 128.016C126.49 127.709 126.195 127.459 125.856 127.284C125.262 126.951 124.59 126.781 123.909 126.79V126.79Z" fill="black"/>
<path d="M151.388 200.543C151.288 200.541 151.192 200.501 151.12 200.431C151.048 200.36 151.006 200.265 151.002 200.165C150.925 196.253 150.902 194.37 150.879 192.557C150.855 190.743 150.832 188.861 150.755 184.964C150.753 184.863 150.791 184.765 150.86 184.691C150.929 184.618 151.025 184.574 151.126 184.57C151.226 184.572 151.322 184.612 151.394 184.683C151.466 184.753 151.508 184.848 151.512 184.948C151.589 188.853 151.612 190.728 151.635 192.549C151.659 194.37 151.682 196.245 151.767 200.15C151.767 200.251 151.727 200.349 151.657 200.423C151.586 200.496 151.49 200.539 151.388 200.543V200.543Z" fill="black"/>
<path d="M199.982 75.6078C199.89 75.6061 199.8 75.5735 199.728 75.5152C199.657 75.4431 199.617 75.3461 199.617 75.2451C199.617 75.1441 199.657 75.0471 199.728 74.975L210.061 63.3311C210.113 63.2684 210.185 63.2252 210.265 63.2084C210.345 63.1916 210.428 63.2022 210.501 63.2385L221.615 68.3467L228.906 53.9943C228.947 53.9122 229.017 53.8477 229.102 53.8123C229.187 53.777 229.281 53.7731 229.369 53.8014L236.528 56.2475L244.584 42.8905C244.609 42.8469 244.643 42.809 244.683 42.7787C244.724 42.7485 244.77 42.7266 244.819 42.7144C244.867 42.7022 244.918 42.6999 244.968 42.7076C245.018 42.7153 245.066 42.7329 245.109 42.7593C245.153 42.7839 245.192 42.8174 245.223 42.8576C245.254 42.8979 245.276 42.944 245.288 42.9932C245.301 43.0424 245.303 43.0936 245.294 43.1436C245.286 43.1936 245.268 43.2414 245.24 43.284L237.023 56.9033C236.979 56.9786 236.91 57.0361 236.828 57.0658C236.746 57.0954 236.657 57.0953 236.575 57.0654L229.439 54.6347L222.132 69.0489C222.086 69.1358 222.008 69.2018 221.915 69.2334C221.822 69.2649 221.72 69.2597 221.63 69.2186L210.44 64.1027L200.268 75.4843C200.233 75.5248 200.189 75.5568 200.139 75.5782C200.09 75.5996 200.036 75.6097 199.982 75.6078V75.6078Z" fill="black"/>
<path d="M81.5788 239.812C81.5788 239.812 76.1726 237.497 102.833 206.986C123.33 183.498 124.326 183.575 124.326 183.575L123.956 175.982C123.956 175.982 98.4075 200.674 87.6569 215.49C71.4769 237.72 81.5788 239.812 81.5788 239.812Z" fill="black"/>
<path d="M81.6252 240.19H81.5403C80.8532 240 80.2228 239.645 79.7035 239.157C79.1841 238.669 78.7914 238.063 78.5591 237.389C77.4007 234.426 77.9954 228.176 87.379 215.266C98.0369 200.605 123.469 175.967 123.724 175.72C123.777 175.668 123.844 175.632 123.916 175.617C123.989 175.602 124.064 175.609 124.133 175.635C124.203 175.661 124.263 175.708 124.305 175.768C124.348 175.829 124.371 175.901 124.373 175.975L124.751 183.56C124.754 183.614 124.745 183.668 124.725 183.719C124.705 183.769 124.674 183.815 124.635 183.853C124.597 183.893 124.549 183.922 124.496 183.938C124.226 184.1 121.716 185.983 103.157 207.241C82.8996 230.452 81.3163 237.158 81.5325 238.955C81.543 239.146 81.6163 239.328 81.7411 239.472C81.7862 239.485 81.8284 239.506 81.8651 239.535C81.9017 239.564 81.9322 239.6 81.9545 239.641C81.9769 239.683 81.9907 239.728 81.9952 239.774C81.9996 239.821 81.9946 239.868 81.9805 239.912C81.9569 239.989 81.9101 240.057 81.8466 240.107C81.7831 240.157 81.7058 240.186 81.6252 240.19ZM123.655 176.847C119.716 180.705 97.6971 202.372 87.9968 215.714C78.8372 228.315 78.1962 234.287 79.262 237.088C79.5469 237.891 80.09 238.578 80.8066 239.04C80.4668 236.556 83.054 229.094 102.57 206.732C113.167 194.594 118.457 188.869 121.021 186.207C121.934 185.195 122.918 184.249 123.963 183.375L123.655 176.847Z" fill="black"/>
<path d="M193.611 122.608C193.611 122.608 222.673 104.259 225.469 114.591C222.472 110.162 194.7 129.885 194.7 129.885L193.611 122.608Z" fill="black"/>
<path d="M194.669 130.27C194.618 130.278 194.566 130.278 194.514 130.27C194.454 130.244 194.402 130.202 194.362 130.15C194.323 130.097 194.298 130.035 194.29 129.969L193.201 122.701C193.19 122.628 193.2 122.553 193.23 122.486C193.26 122.419 193.309 122.362 193.371 122.322C194.267 121.751 215.382 108.51 223.152 111.52C223.806 111.761 224.391 112.16 224.854 112.681C225.317 113.202 225.645 113.828 225.809 114.506C225.831 114.594 225.822 114.687 225.782 114.769C225.743 114.851 225.675 114.916 225.592 114.953C225.511 114.991 225.419 114.998 225.333 114.974C225.246 114.95 225.172 114.896 225.121 114.822C225.029 114.7 224.913 114.598 224.781 114.522C224.648 114.447 224.501 114.399 224.349 114.382C224.168 114.351 223.984 114.335 223.801 114.336C217.329 114.336 195.125 130.046 194.893 130.209C194.827 130.253 194.748 130.274 194.669 130.27V130.27ZM193.997 122.801L194.955 129.213C198.546 126.698 218.943 112.615 224.48 113.618H224.627C224.222 112.955 223.604 112.449 222.874 112.183C215.861 109.482 196.252 121.404 193.997 122.801Z" fill="black"/>
</g>
<defs>
<clipPath id="clip0_214_1297">
<rect width="269.754" height="240.326" fill="white" transform="translate(0.532227 0.0571289)"/>
</clipPath>
</defs>
</svg>
