<svg width="648" height="453" viewBox="0 0 648 453" fill="none" xmlns="http://www.w3.org/2000/svg">
<path d="M118.036 400.575C118.036 400.575 9.68826 267.91 76.9735 188.589C144.259 109.269 197.438 212.241 234.216 204.65C280.764 195.057 300.903 50.5656 370.503 50.4271C449.686 50.2725 507.805 107.537 476.847 243.917C454.014 344.504 610.963 262.133 587.911 402.531L118.036 400.575Z" fill="#EBF2F9"/>
<path d="M354.35 383.337C339.622 380.435 328.502 386.748 317.81 384.936C309.282 383.489 304.839 372.944 293.379 369.947C296.104 367.98 299.28 365.52 300.798 363.732C303.747 360.268 307.986 353.308 300.798 353.034C295.63 352.836 291.602 363.37 289.751 369.288C287.909 369.111 286.058 369.111 284.216 369.288C286.581 359.962 291.186 341.911 292.323 338.444C293.848 333.725 287.409 317.993 279.81 335.649C274.477 348.032 278.098 362.344 280.735 369.787C278.729 370.185 276.749 370.761 274.811 371.508C268.531 353.977 248.551 304 226.891 310.22C203.28 316.988 253.866 350.587 266.623 375.505C256.201 381.415 247.044 388.594 231.213 383.353C189.144 369.419 185.807 400.769 185.807 400.769L373.806 400.846C373.806 400.846 369.079 386.236 354.35 383.337Z" fill="#ACD29A"/>
<path d="M303.21 270.529C303.401 272.74 305.963 272.661 308.855 272.128C311.748 271.595 311.001 272.527 315.07 272.431C319.138 272.335 320.495 270.635 320.672 269.916C320.831 269.279 318.857 268.826 316.751 268.288L315.952 268.08C313.571 267.44 311.946 265.341 309.875 263.534C307.914 261.823 306.588 253.981 306.588 253.981L300.803 253.946C300.803 253.946 302.619 261.04 303.567 263.507C304.122 264.957 303.53 266.819 303.349 268.216C303.218 268.976 303.171 269.754 303.21 270.529Z" fill="#FFB07B"/>
<path d="M308.862 272.131C311.755 271.598 311.008 272.53 315.076 272.434C319.145 272.339 320.502 270.638 320.679 269.919C320.838 269.282 318.864 268.829 316.758 268.291L316.734 268.339C314.908 269.501 312.858 270.037 310.803 269.89C308.065 269.666 305.242 268.384 303.351 268.211C303.224 268.973 303.18 269.753 303.223 270.529C303.401 272.741 305.963 272.661 308.862 272.131Z" fill="#365DA4"/>
<path d="M257.993 270.177C258.12 272.396 260.679 272.436 263.587 272.042C266.495 271.648 265.719 272.54 269.788 272.631C273.857 272.722 275.264 271.085 275.464 270.377C275.641 269.745 273.685 269.204 271.589 268.567C271.326 268.49 271.062 268.405 270.799 268.322C268.437 267.573 266.878 265.391 264.863 263.502C262.955 261.7 264.525 254.231 264.525 254.231L260.137 251.694C260.137 251.694 259.533 259.393 259.206 263.286C259.074 264.885 258.424 266.483 258.196 267.872C258.045 268.626 257.976 269.401 257.993 270.177Z" fill="#FFB07B"/>
<path d="M263.587 272.039C266.495 271.642 265.719 272.538 269.788 272.628C273.857 272.719 275.264 271.083 275.464 270.374C275.641 269.742 273.685 269.201 271.589 268.565L271.565 268.613C269.704 269.69 267.638 270.13 265.588 269.886C262.859 269.537 260.078 268.128 258.196 267.869C258.044 268.624 257.976 269.4 257.993 270.177C258.111 272.396 260.679 272.436 263.587 272.039Z" fill="#365DA4"/>
<path d="M267.852 159.326C267.852 159.326 266.636 166.521 265.419 203.043C263.847 207.941 262.545 212.961 261.522 218.072C259.884 226.333 258.729 260.835 258.729 260.835C258.729 260.835 259.383 261.986 261.365 262.133C262.362 262.194 263.354 261.936 264.245 261.384C264.245 261.384 275.63 216.201 281.171 198.66C286.712 181.118 289.962 156.072 289.962 156.072L267.852 159.326Z" fill="#2B478B"/>
<path d="M281.546 162.408C281.546 162.408 282.443 169.677 291.635 204.452C291.547 209.712 291.747 214.973 292.234 220.2C293.038 228.65 302.343 261.919 302.343 261.919C302.343 261.919 303.578 262.452 305.432 261.844C306.536 261.463 307.578 260.846 308.507 260.022C308.507 260.022 304.939 212.47 305.174 193.67C305.41 174.871 301.367 149.993 301.367 149.993L281.546 162.408Z" fill="#2B478B"/>
<path d="M297.825 61.699C296.383 60.5772 294.612 60.3667 293.364 60.3667C293.65 60.1048 293.985 59.9352 294.338 59.8737C293.571 59.6872 291.813 60.5159 291.813 60.5159C281.299 54.8054 278.823 74.0153 278.866 78.516C278.91 83.0167 278.723 88.1835 273.203 91.8795C262.35 99.1541 270.67 113.52 270.67 113.52C268.71 120.379 275.95 128.78 275.95 128.78C275.826 125.138 289.494 101.933 296.86 96.6387C298.725 93.6169 299.568 88.1302 299.631 87.6959C299.152 92.0607 298.439 94.4802 297.836 95.8312C304.159 89.4013 301.643 64.6702 297.825 61.699Z" fill="#C65447"/>
<path d="M295.534 94.1549C295.571 94.1762 292.088 96.3906 289.466 95.5139C287 94.6905 285.388 90.7787 285.423 90.7707C286.466 90.5176 286.769 88.7616 286.745 81.2178L287.218 81.3324L294.87 83.1976L295.155 83.2643C295.155 83.2643 294.974 86.3207 294.968 89.1986C294.968 89.8088 294.968 90.4083 294.992 90.9706C295.044 92.6307 295.196 93.9604 295.534 94.1549Z" fill="#FFB07B"/>
<path d="M294.967 89.1874C294.967 89.7977 294.967 90.3972 294.991 90.9595C290.541 90.741 287.976 84.5136 287.006 81.7822L294.869 83.1865L295.155 83.2531C295.155 83.2531 294.974 86.3096 294.967 89.1874Z" fill="#EA8E50"/>
<path d="M286.399 80.2743C286.399 80.2743 284.07 75.7762 283.513 71.9284C283.112 69.1811 284.255 59.0019 292.619 60.4702C294.303 60.7563 295.913 61.5012 297.331 62.6499C299.147 64.1501 301.768 67.3878 298.836 76.2719L298.076 79.2723L286.399 80.2743Z" fill="#C65447"/>
<path d="M295.623 87.7782C295.623 87.7782 285.203 86.0941 286.161 78.1719C287.119 70.2498 286.418 64.6965 293.111 65.4373C299.805 66.1781 300.735 69.4344 300.935 72.1737C301.136 74.913 298.356 88.0127 295.623 87.7782Z" fill="#FFB07B"/>
<path d="M297.869 66.1059C297.869 66.1059 293.891 74.8808 289.356 75.459C284.822 76.0373 283.103 74.2599 283.103 74.2599C285.54 72.3365 287.354 69.4373 288.237 66.0579C288.237 66.0579 296.261 61.2881 297.869 66.1059Z" fill="#C65447"/>
<path d="M297.071 66.7324C297.071 66.7324 298.944 69.1946 299.217 71.3051C299.489 73.4155 299.217 77.6124 300.223 77.6497C300.223 77.6497 303.135 71.7261 301.162 67.7131C299.06 63.4602 297.071 66.7324 297.071 66.7324Z" fill="#C65447"/>
<path d="M366.265 174.362C364.087 168.697 358.001 164.01 352.882 164.007C349.354 163.973 345.926 165.439 343.185 168.156C342.846 168.492 342.442 168.715 342.012 168.806C341.582 168.896 341.14 168.85 340.729 168.672C340.317 168.494 339.95 168.19 339.662 167.789C339.374 167.388 339.175 166.903 339.084 166.381L334.601 140.91C334.287 139.126 333.406 137.569 332.154 136.579C330.901 135.59 329.378 135.25 327.921 135.633L255.408 154.726C254.702 154.912 254.033 155.266 253.439 155.769C252.845 156.271 252.338 156.912 251.946 157.654C251.555 158.397 251.287 159.226 251.158 160.096C251.028 160.965 251.04 161.857 251.193 162.72L266.782 251.335C266.994 252.537 267.461 253.648 268.137 254.558C268.813 255.468 269.673 256.143 270.631 256.515L269.679 256.846H272.487H272.508C272.859 256.834 273.209 256.783 273.552 256.694L275.129 256.278L293.741 251.378C294.338 251.221 294.891 250.876 295.347 250.378C295.802 249.88 296.143 249.246 296.336 248.537C296.53 247.829 296.569 247.071 296.45 246.338C296.331 245.605 296.058 244.923 295.658 244.359C293.893 241.873 292.705 238.855 292.215 235.617C291.726 232.38 291.954 229.041 292.875 225.947C293.796 222.854 295.378 220.118 297.455 218.025C299.532 215.931 302.029 214.556 304.687 214.041C307.345 213.527 310.068 213.892 312.571 215.099C315.075 216.306 317.27 218.311 318.926 220.906C320.583 223.5 321.642 226.59 321.994 229.854C322.345 233.118 321.976 236.438 320.924 239.469C320.714 240.061 320.669 240.721 320.796 241.348C320.924 241.974 321.217 242.531 321.63 242.933L320.541 243.581H323.057C323.251 243.587 323.446 243.565 323.636 243.514L345.853 237.652C346.576 237.462 347.26 237.1 347.868 236.586C348.476 236.073 348.996 235.417 349.396 234.658C349.797 233.899 350.072 233.051 350.205 232.161C350.338 231.272 350.326 230.36 350.171 229.476L345.716 204.162C345.622 203.624 345.641 203.067 345.773 202.541C345.904 202.016 346.143 201.54 346.467 201.16C346.791 200.779 347.189 200.506 347.623 200.366C348.057 200.227 348.514 200.225 348.949 200.362C351.211 201.073 353.577 201.128 355.86 200.522C365.169 198.062 370.606 185.61 366.265 174.362Z" fill="#D86713"/>
<path d="M350.321 164.007C346.793 163.973 343.365 165.439 340.624 168.156C340.285 168.492 339.881 168.715 339.451 168.806C339.021 168.896 338.579 168.85 338.167 168.672C337.756 168.494 337.389 168.19 337.101 167.789C336.813 167.388 336.614 166.903 336.522 166.381L332.042 140.91C331.728 139.126 330.847 137.569 329.595 136.579C328.342 135.59 326.819 135.25 325.362 135.633L252.849 154.726C252.143 154.912 251.473 155.266 250.879 155.768C250.285 156.271 249.778 156.911 249.386 157.654C248.995 158.396 248.727 159.226 248.598 160.095C248.469 160.965 248.481 161.857 248.634 162.72L264.223 251.335C264.541 253.144 265.434 254.724 266.705 255.728C267.976 256.732 269.52 257.077 270.999 256.688L291.188 251.359C291.786 251.202 292.339 250.858 292.794 250.36C293.249 249.862 293.59 249.227 293.784 248.518C293.977 247.81 294.016 247.052 293.897 246.319C293.778 245.587 293.505 244.904 293.105 244.34C291.341 241.854 290.152 238.836 289.663 235.598C289.173 232.361 289.401 229.022 290.322 225.929C291.244 222.835 292.825 220.1 294.902 218.006C296.979 215.913 299.476 214.537 302.134 214.023C304.793 213.508 307.515 213.874 310.019 215.081C312.523 216.288 314.717 218.293 316.374 220.887C318.03 223.482 319.089 226.571 319.441 229.836C319.792 233.1 319.423 236.42 318.372 239.45C318.198 239.947 318.14 240.492 318.202 241.026C318.265 241.561 318.446 242.064 318.727 242.481C319.008 242.897 319.376 243.212 319.793 243.389C320.21 243.567 320.659 243.601 321.09 243.487L343.307 237.625C344.029 237.435 344.714 237.073 345.322 236.559C345.929 236.045 346.448 235.39 346.849 234.631C347.25 233.872 347.524 233.023 347.657 232.134C347.79 231.245 347.778 230.333 347.622 229.45L343.17 204.135C343.075 203.598 343.094 203.04 343.225 202.515C343.356 201.989 343.595 201.514 343.919 201.133C344.243 200.752 344.641 200.479 345.075 200.339C345.509 200.2 345.965 200.198 346.4 200.335C348.663 201.046 351.03 201.101 353.314 200.495C362.612 198.049 368.047 185.597 363.706 174.349C361.517 168.697 355.442 164.01 350.321 164.007Z" fill="#F1A34F"/>
<path d="M323.789 130.32C323.789 130.32 328.313 131.226 329.498 134.824C330.682 138.421 329.027 140.859 328.391 140.851C327.755 140.843 326.533 140.268 325.962 138.4C325.392 136.532 323.789 130.32 323.789 130.32Z" fill="#FFB07B"/>
<path d="M261.522 146.375C261.522 146.375 266.599 146.375 268.427 150.039C270.254 153.703 268.804 156.741 268.107 156.871C267.41 157.002 265.989 156.642 265.09 154.74C264.19 152.837 261.522 146.375 261.522 146.375Z" fill="#FFB07B"/>
<path d="M323.915 134.496C323.467 134.379 321.498 134.096 318.995 133.614C314.384 132.729 307.958 131.17 305.802 128.737C305.218 128.077 303.857 124.442 302.443 120.274C301.014 129.5 300.934 136.577 301.313 141.962L270.165 150.167C272.835 143.561 276.972 135.367 276.196 128.737C275.909 126.281 274.807 122.907 274.395 119.118C274.362 118.793 274.332 118.465 274.308 118.135C269.938 122.537 264.892 127.392 264.77 128.362C264.569 129.99 267.972 148.009 267.972 148.009C267.126 150.388 263.456 149.874 263.456 149.874C260.019 146.871 254.962 129.849 255.367 126.078C255.772 122.307 268.309 100.817 271.343 95.6817C274.341 90.6055 285.284 90.7334 285.547 90.736C294.26 97.1313 295.033 91.8152 295.033 91.8152C295.033 91.8152 302.874 93.6406 304.233 96.4785C305.593 99.3164 311.502 120.834 311.92 121.591C312.791 123.176 327.1 129.516 327.357 131.351C327.614 133.187 325.198 134.834 323.915 134.496Z" fill="#80BDCC"/>
<path d="M281.019 147.321L270.156 150.167C272.862 143.58 276.416 135.373 275.639 128.783C275.349 126.323 274.695 123.414 274.382 119.606C274.351 119.241 274.299 118.135 274.299 118.135C274.299 118.135 281.992 125.543 282.127 133.558C282.199 137.718 281.605 143.156 281.019 147.321Z" fill="#5F9AA8"/>
<path d="M319.282 133.661C314.616 132.777 308.11 131.218 305.928 128.785C305.338 128.121 303.967 124.484 302.528 120.311C302.528 120.311 302.027 113.604 303.46 113.855C304.893 114.105 307.002 126 308.507 126.752C309.853 127.426 317.298 130.922 319.282 133.661Z" fill="#5F9AA8"/>
<path d="M549.134 389.185C548.48 391.898 545.431 393.715 545.03 397.02C544.892 398.392 544.434 399.688 543.71 400.75H534.257C534.353 400.113 534.767 399.418 535.999 399.101C538.626 398.397 539.615 394.504 539.454 390.888C539.396 389.309 539.404 387.728 539.478 386.15C539.561 384.08 539.696 382.454 539.696 382.454L545.276 380.855L545.862 381.777L546.424 382.665C546.424 382.665 549.789 386.475 549.134 389.185Z" fill="#2C3A64"/>
<path d="M505.113 400.755H485.987C486.422 400.135 487.154 399.535 488.398 399.287C491.341 398.704 496.438 396.622 497.575 392.01C497.612 391.863 497.644 391.711 497.673 391.557C498.574 386.638 505.141 393.065 505.141 393.065C505.141 393.065 505.161 393.262 505.192 393.598C505.307 394.981 505.562 398.738 505.113 400.755Z" fill="#2C3A64"/>
<path d="M489.18 270.406C489.18 270.406 490.176 285.627 491.358 303.923C492.951 328.777 494.865 359.306 495.061 365.089C495.39 375.132 496.703 391.203 496.703 391.203C496.703 391.203 499.82 395.019 506.07 393.412C506.07 393.412 511.628 370.479 513.218 346.217C513.242 345.818 513.266 345.418 513.292 345.018C514.769 320.316 517.065 268.307 517.065 268.307L489.18 270.406Z" fill="#35488B"/>
<path d="M489.18 270.406C489.18 270.406 490.176 285.626 491.358 303.922L513.203 346.209C513.227 345.809 513.251 345.409 513.277 345.009C514.754 320.308 517.05 268.298 517.05 268.298L489.18 270.406Z" fill="#2C3A64"/>
<path d="M493.732 272.212C493.732 272.212 511.707 327.337 523.525 353.241C535.344 379.144 539.038 386.382 539.038 386.382C539.038 386.382 545.81 383.067 546.424 380.807C546.424 380.807 541.904 330.796 533.991 318.605C529.517 311.717 524.264 291.044 524.017 283.814C523.771 276.585 522.419 262.278 522.419 262.278L493.732 272.212Z" fill="#35488B"/>
<path d="M502.953 187.124C502.153 181.352 502.127 177.93 502.127 177.93L511.247 168.942C510.909 181.304 517.385 187.252 517.385 187.252C517.385 187.252 505.231 194.569 498.207 191.859C499.539 189.939 501.147 188.334 502.953 187.124Z" fill="#935C2F"/>
<path d="M499.979 177.736C499.979 177.736 511.582 180.094 512.672 171.234C513.761 162.374 515.991 156.709 508.629 154.828C501.267 152.946 499.411 156.064 498.459 158.915C497.507 161.766 496.991 176.886 499.979 177.736Z" fill="#A16D3C"/>
<path d="M459.233 195.994L456.762 194.129C456.762 194.129 453.683 188.568 448.422 192.021C448.422 192.021 446.34 193.647 447.736 195.008C449.132 196.37 448.76 195.6 450.696 197.572C452.633 199.543 455.14 200.236 456.758 199.17L458.832 198.931L459.233 195.994Z" fill="#A16D3C"/>
<path d="M456.301 196.577C456.937 194.142 457.24 193.913 457.24 193.913C457.24 193.913 477.213 196.801 479.097 196.972C480.982 197.142 507.132 190.55 507.132 190.55L519.489 208.912C519.489 208.912 483.081 210.591 478.322 210.045C470.448 209.144 456.168 200.185 456.168 200.185C455.958 198.989 456.003 197.746 456.301 196.577Z" fill="#D3782F"/>
<path d="M523.789 265.091C523.824 266.036 522.229 267.076 521.536 267.457C516.322 270.316 511.467 272.304 505.98 272.949C499.472 273.767 491.781 271.976 489.143 272.019C488.871 272.017 488.609 271.895 488.405 271.675C488.228 271.502 488.087 261.776 488.228 249.515C488.228 249.041 488.228 248.521 488.263 248.05V247.879C488.274 246.603 488.289 245.305 488.313 243.994C488.379 240.41 488.487 236.73 488.616 233.069C488.805 227.681 489.067 222.383 489.431 217.688C489.81 212.788 490.289 208.543 490.901 205.532C492.308 198.603 495.545 194.041 498.498 190.684L500.925 188.062C503.476 188.75 506.143 188.356 508.487 186.943C511.267 185.264 514.292 183.457 514.782 183.886C518.533 187.316 521.057 195.099 522.351 204.993C523.072 210.769 523.412 216.605 523.368 222.447C523.368 224.824 523.309 227.232 523.19 229.671C522.562 242.728 523.205 254.064 523.573 260.648C523.68 262.548 523.765 264.054 523.789 265.091Z" fill="#E69D43"/>
<path d="M462.112 144.301L388.743 130.037C388.001 129.893 387.244 129.929 386.513 130.142C385.782 130.356 385.094 130.744 384.486 131.284C383.878 131.824 383.362 132.505 382.969 133.288C382.577 134.071 382.314 134.941 382.196 135.849L378.948 160.868C378.798 162.027 379.04 165.283 379.04 165.283L381.684 165.765C381.835 165.805 381.987 165.833 382.141 165.848C382.642 165.897 383.146 165.813 383.618 165.603C386.157 164.482 388.895 164.214 391.548 164.825C394.2 165.436 396.671 166.905 398.703 169.079C400.735 171.253 402.254 174.052 403.103 177.187C403.951 180.322 404.099 183.677 403.529 186.905C402.96 190.133 401.695 193.116 399.865 195.544C398.035 197.971 395.708 199.755 393.124 200.711C390.54 201.666 387.794 201.758 385.172 200.977C382.549 200.196 380.145 198.57 378.21 196.268C377.824 195.8 377.319 195.508 376.779 195.44L374.01 194.933L370.564 225.45C370.448 226.345 370.477 227.259 370.65 228.14C370.823 229.022 371.136 229.853 371.571 230.586C372.006 231.32 372.555 231.941 373.187 232.415C373.818 232.889 374.52 233.206 375.252 233.348L396.206 237.425C396.65 237.511 397.069 237.734 397.422 238.073C397.776 238.412 398.054 238.856 398.228 239.363C398.403 239.87 398.469 240.423 398.42 240.97C398.371 241.517 398.208 242.039 397.948 242.488C396.591 244.82 395.696 247.507 395.334 250.335C393.838 261.857 401.385 272.583 411.555 271.69C416.676 271.243 422.459 265.988 424.315 260.133C425.618 256.111 425.739 251.659 424.654 247.54C424.521 247.031 424.496 246.489 424.582 245.966C424.668 245.442 424.863 244.954 425.146 244.548C425.43 244.142 425.794 243.832 426.204 243.647C426.613 243.461 427.055 243.407 427.486 243.49L448.575 247.588C450.052 247.875 451.561 247.433 452.771 246.358C453.982 245.284 454.794 243.665 455.029 241.859L466.693 152C466.919 150.236 466.564 148.434 465.705 146.991C464.846 145.547 463.554 144.58 462.112 144.301Z" fill="#4A75CB"/>
<path d="M515.052 204.731C515.052 204.731 509.428 236.841 488.313 243.993C488.378 240.409 488.487 236.729 488.616 233.068C488.805 227.68 489.067 222.382 489.43 217.687C489.769 217.469 490.122 217.284 490.485 217.136C497.649 214.242 515.052 204.731 515.052 204.731Z" fill="#D3782F"/>
<path d="M421.586 259.646C422.89 255.624 423.011 251.172 421.927 247.053C421.793 246.543 421.768 245.999 421.855 245.474C421.942 244.949 422.137 244.46 422.422 244.054C422.707 243.648 423.073 243.338 423.484 243.154C423.895 242.969 424.338 242.917 424.77 243.002L445.868 247.101C446.599 247.243 447.346 247.207 448.065 246.996C448.785 246.785 449.464 246.403 450.063 245.871C450.662 245.339 451.17 244.668 451.557 243.896C451.944 243.124 452.203 242.266 452.319 241.371L463.985 151.512C464.214 149.748 463.861 147.944 463.003 146.498C462.146 145.052 460.854 144.082 459.411 143.801L386.04 129.544C384.544 129.257 383.016 129.708 381.791 130.798C380.566 131.887 379.744 133.526 379.506 135.356L376.258 160.375C376.161 161.115 376.224 161.873 376.44 162.574C376.656 163.275 377.017 163.895 377.489 164.373C377.96 164.851 378.525 165.171 379.128 165.3C379.732 165.429 380.352 165.364 380.928 165.11C383.467 163.991 386.204 163.724 388.856 164.336C391.508 164.948 393.977 166.417 396.008 168.59C398.039 170.764 399.558 173.563 400.406 176.697C401.254 179.832 401.401 183.186 400.832 186.413C400.262 189.64 398.997 192.622 397.168 195.049C395.339 197.476 393.012 199.26 390.429 200.215C387.845 201.17 385.1 201.263 382.478 200.482C379.856 199.701 377.453 198.076 375.518 195.776C375.202 195.397 374.806 195.132 374.375 195.009C373.944 194.887 373.494 194.912 373.074 195.082C372.654 195.252 372.28 195.56 371.993 195.972C371.707 196.384 371.518 196.885 371.449 197.42L367.875 224.957C367.64 226.764 368.002 228.612 368.88 230.093C369.759 231.574 371.082 232.568 372.56 232.855L393.52 236.927C393.964 237.013 394.383 237.236 394.737 237.575C395.091 237.914 395.368 238.358 395.543 238.865C395.717 239.372 395.783 239.925 395.734 240.472C395.685 241.019 395.523 241.541 395.263 241.99C393.904 244.321 393.009 247.008 392.649 249.837C391.152 261.359 398.7 272.085 408.869 271.192C413.949 270.755 419.73 265.5 421.586 259.646Z" fill="#699DEE"/>
<path d="M459.318 216.694L456.301 216.083C456.301 216.083 452.862 209.997 446.868 213.419C446.868 213.419 444.491 215.047 446.064 216.568C447.636 218.09 447.216 217.253 449.394 219.454C451.572 221.655 454.404 222.535 456.247 221.458L458.599 221.309L459.318 216.694Z" fill="#A16D3C"/>
<path d="M457.011 218.57C457.109 215.854 458.292 215.564 458.292 215.564C458.292 215.564 481.154 213.709 483.114 213.248C485.074 212.787 503.286 194.329 503.286 194.329C503.286 194.329 510.324 186.601 515.255 189.202C519.541 191.472 520.883 195.949 521.099 200.066C521.217 202.466 520.741 204.854 519.734 206.918C518.726 208.982 517.234 210.627 515.451 211.639C507.278 216.31 490.931 225.479 487.209 226.268C478.932 228.029 457.625 222.388 457.625 222.388C457.184 221.19 456.974 219.883 457.011 218.57Z" fill="#E69D43"/>
<path d="M498.459 158.904C498.459 158.904 493.75 154.64 496.821 147.995C496.821 147.995 500.524 149.497 505.787 147.995C511.049 146.492 515.758 148.621 516.372 150.872C516.372 150.872 518.42 151.877 518.625 155.632C518.829 159.386 512.672 171.223 512.672 171.223C512.672 171.223 511.365 169.219 511.713 167.841C512.062 166.464 513.199 163.397 511.816 163.397C510.432 163.397 509.975 165.901 509.42 164.899C508.864 163.898 509.881 159.703 508.243 159.013C506.606 158.323 500.302 160.17 498.459 158.904Z" fill="#2C3A64"/>
<path d="M338.413 397.559L317.672 282.355H323.381C324.034 282.353 324.659 282.035 325.12 281.471C325.581 280.907 325.841 280.142 325.843 279.344V275.454C325.841 274.656 325.581 273.892 325.12 273.328C324.658 272.764 324.033 272.447 323.381 272.445H250.96C250.308 272.447 249.684 272.765 249.223 273.329C248.762 273.893 248.503 274.657 248.501 275.454V279.344C248.502 280.142 248.761 280.907 249.222 281.471C249.683 282.035 250.308 282.353 250.96 282.355H258.311L237.571 397.559C237.504 397.927 237.497 398.308 237.551 398.68C237.604 399.052 237.717 399.407 237.883 399.726C238.049 400.044 238.265 400.32 238.517 400.536C238.77 400.753 239.056 400.906 239.357 400.988C239.658 401.07 239.97 401.078 240.274 401.012C240.578 400.947 240.868 400.809 241.128 400.606C241.389 400.403 241.614 400.139 241.791 399.83C241.968 399.521 242.093 399.172 242.16 398.803L263.125 282.355H312.859L333.823 398.803C333.958 399.547 334.329 400.196 334.854 400.607C335.379 401.018 336.015 401.158 336.624 400.996C337.233 400.828 337.763 400.372 338.098 399.728C338.433 399.084 338.546 398.304 338.413 397.559Z" fill="#C3E0F4"/>
<path d="M475.95 327.008C468.272 317.993 440.638 374.879 440.638 374.879C440.638 374.879 483.626 336.02 475.95 327.008Z" fill="#ACD29A"/>
<path d="M475.029 353.305C468.233 349.98 446.514 377.991 441.622 384.458C437.527 383.805 433.404 383.437 429.274 383.358C394.884 382.607 379.284 401.662 379.284 401.662L475.22 402.062C475.22 402.062 466.726 388.861 442.613 384.626C448.505 381.224 465.92 371.303 472.265 369.403C479.943 367.093 482.704 357.071 475.029 353.305Z" fill="#ACD29A"/>
<path d="M447.969 296.211H427.262C426.648 296.209 426.045 296.403 425.511 296.774C424.978 297.145 424.533 297.68 424.221 298.327C423.908 298.973 423.74 299.708 423.732 300.459C423.723 301.209 423.875 301.95 424.173 302.606C425.423 305.378 421.021 329.384 411.747 330.01C408.912 330.197 406.091 329.404 403.607 327.721C401.123 326.038 399.076 323.534 397.701 320.495C396.327 317.456 395.679 314.005 395.832 310.536C395.986 307.068 396.934 303.722 398.569 300.882C398.825 300.441 398.977 299.923 399.008 299.383C399.04 298.844 398.949 298.305 398.747 297.824C398.545 297.343 398.238 296.94 397.861 296.657C397.484 296.375 397.051 296.226 396.609 296.224H373.81C372.314 296.224 370.88 296.951 369.822 298.245C368.765 299.539 368.171 301.294 368.171 303.123C368.171 303.123 366.104 333.051 364.348 331.977C362.49 330.842 360.46 330.19 358.386 330.063H358.367C358.112 330.047 357.857 330.039 357.598 330.039C357.339 330.039 353.588 329.959 353.588 329.959L353.02 366.93L356.287 366.972C359.384 366.858 362.074 366.503 364.466 365.014C364.856 364.775 365.289 364.663 365.725 364.687C366.16 364.711 366.583 364.871 366.954 365.151C367.325 365.431 367.631 365.823 367.844 366.288C368.056 366.754 368.168 367.278 368.169 367.812V393.926C368.169 395.755 368.762 397.509 369.82 398.802C370.877 400.095 372.311 400.822 373.806 400.822H448.176C449.637 400.822 451.038 400.112 452.072 398.848C453.105 397.584 453.685 395.87 453.685 394.083V303.206C453.685 301.351 453.083 299.572 452.011 298.261C450.939 296.949 449.486 296.212 447.969 296.211Z" fill="#D86713"/>
<path d="M350.225 366.496C353.677 367.441 357.289 366.888 360.445 364.932C360.835 364.691 361.27 364.576 361.707 364.598C362.145 364.621 362.57 364.78 362.943 365.061C363.315 365.342 363.623 365.735 363.836 366.203C364.049 366.67 364.161 367.197 364.161 367.732V393.847C364.161 395.676 364.754 397.43 365.811 398.724C366.869 400.018 368.302 400.745 369.798 400.746H444.168C444.892 400.746 445.608 400.571 446.276 400.233C446.945 399.894 447.552 399.397 448.064 398.772C448.575 398.146 448.981 397.403 449.258 396.585C449.534 395.768 449.677 394.891 449.677 394.006V303.129C449.677 301.274 449.075 299.495 448.002 298.182C446.93 296.87 445.476 296.133 443.959 296.132H423.252C422.638 296.13 422.035 296.325 421.502 296.696C420.969 297.067 420.524 297.603 420.212 298.249C419.9 298.895 419.732 299.63 419.723 300.38C419.714 301.13 419.866 301.871 420.163 302.527C421.466 305.419 422.112 308.685 422.035 311.986C421.958 315.287 421.159 318.502 419.723 321.298C418.287 324.094 416.265 326.369 413.868 327.886C411.47 329.404 408.785 330.108 406.089 329.927C403.394 329.745 400.788 328.684 398.541 326.854C396.294 325.024 394.489 322.492 393.312 319.52C392.135 316.548 391.63 313.245 391.85 309.954C392.069 306.662 393.004 303.503 394.559 300.803C394.815 300.362 394.966 299.843 394.998 299.304C395.029 298.764 394.938 298.225 394.736 297.744C394.534 297.263 394.228 296.86 393.851 296.577C393.474 296.295 393.041 296.144 392.598 296.142H369.8C368.304 296.143 366.87 296.871 365.812 298.165C364.755 299.459 364.161 301.214 364.161 303.044V329.006C364.16 329.557 364.045 330.099 363.826 330.58C363.607 331.061 363.291 331.465 362.908 331.755C362.525 332.045 362.088 332.21 361.638 332.235C361.188 332.26 360.741 332.144 360.338 331.898C358.241 330.616 355.929 329.951 353.586 329.955C344.05 329.955 336.576 340.758 338.892 352.906C340.059 359.011 345.206 365.174 350.225 366.496Z" fill="#F1A34F"/>
<path d="M134.89 401.262L148.258 401.382C148.258 401.382 147.792 397.425 138.794 396.404C135.309 384.552 125.058 352.663 116.161 354.169C107.374 355.658 128.182 384.914 136.648 396.29C135.528 396.29 134.409 396.397 133.303 396.612C131.264 391.645 127.221 384.621 120.73 384.943C113.826 385.284 123.233 393.001 129.711 397.734C126.431 399.173 124.658 401.166 124.658 401.166L134.74 401.257L134.923 401.377L134.89 401.262Z" fill="#ACD29A"/>
<path d="M182.649 269.136L184.627 271.1C184.627 271.1 190.035 268.725 191.257 276.592C191.257 276.592 191.582 279.944 189.846 279.949C188.11 279.954 188.826 279.584 186.361 279.683C183.895 279.781 181.867 278.185 181.505 275.744L180.351 273.666L182.649 269.136Z" fill="#EA8E50"/>
<path d="M182.425 273.34C184.002 271.326 183.875 269.836 183.875 269.836C183.875 269.836 165.605 251.549 163.751 250.046C162.488 249.028 149.034 234.436 142.743 225.53C139.62 221.126 135.758 222.836 131.343 224.39L127.703 225.666C123.305 227.212 122.162 234.726 125.769 238.39C135.93 248.684 152.832 260.265 155.993 262.698C163.845 268.741 179.212 275.92 179.212 275.92C180.412 275.33 181.505 274.453 182.425 273.34Z" fill="#1E3D70"/>
<path d="M203.807 385.583C203.807 385.583 208.242 389.647 215.036 387.502C215.036 387.502 220.514 385.972 221.714 389.316C221.714 389.316 213.313 394.536 211.187 395.978C209.586 397.044 207.92 398.752 206.731 400.066C206.509 400.311 206.248 400.499 205.965 400.618C205.682 400.736 205.382 400.783 205.083 400.755C204.785 400.726 204.494 400.624 204.229 400.454C203.964 400.284 203.73 400.049 203.542 399.765C203.171 399.21 202.749 398.547 202.285 397.779C200.978 395.632 197.972 388.695 197.972 388.695L203.807 385.583Z" fill="#233862"/>
<path d="M205.879 383.718C205.879 383.718 203.178 391.333 196.948 389.934C196.948 389.934 184.23 377.085 175.507 363.738C172.675 359.402 170.262 355.013 168.844 350.998C163.059 334.612 147.446 310.174 137.518 297.789L162.349 286.797C162.349 286.797 170.303 306.374 180.889 330.423C188.521 347.744 197.513 367.391 205.879 383.718Z" fill="#2B478B"/>
<path d="M180.893 330.424L175.505 363.733C172.673 359.397 170.26 355.008 168.842 350.993C163.057 334.607 147.444 310.169 137.516 297.784L162.347 286.792C162.347 286.792 170.308 306.367 180.893 330.424Z" fill="#233862"/>
<path d="M160.53 389.908C160.53 389.908 160.26 395.983 166.282 396.796C166.282 396.796 169.724 396.817 169.732 400.684L152.231 400.753C152.231 400.753 151.721 399.192 151.599 395.85C151.503 393.284 153.632 386.574 153.632 386.574L160.53 389.908Z" fill="#233862"/>
<path d="M154.213 286.788C154.213 286.788 165.278 301.663 172.292 328.459C176.114 343.038 165.289 379.696 163.178 392.431C163.178 392.431 155.916 393.185 150.95 390.832C150.95 390.832 150.573 364.526 153.477 344.25C155.102 332.904 138.907 319.983 131.833 299.483C127.019 285.536 132.874 285.773 140.073 285.438L154.213 286.788Z" fill="#2B478B"/>
<path d="M141.434 220.43C135.276 224.693 122.676 220.76 122.676 220.76C122.676 220.76 127.792 213.603 125.462 202.075L130.295 205.078L135.485 208.303C135.759 210.187 135.949 212.088 136.054 213.997C136.115 214.938 136.167 215.99 136.204 217.139C138.097 217.835 139.87 218.951 141.434 220.43Z" fill="#FFB07B"/>
<path d="M164.015 286.021C164.015 287.354 162.769 287.977 162.503 288.041C160.022 288.598 153.089 291.897 146.842 292.654C141.584 293.328 136.703 292.686 131.338 291.37C130.628 291.194 128.96 290.645 128.842 289.813C128.694 288.902 108.149 238.582 124.122 216.966C124.497 216.459 127.648 217.373 130.53 218.21C132.961 218.913 135.511 218.659 137.816 217.483L140.519 219.223C143.838 221.485 150.12 229.524 150.854 235.834C151.229 239.032 152.728 241.43 153.163 244.242C153.324 245.286 153.488 246.305 153.655 247.298C153.982 249.252 154.319 251.109 154.666 252.867C155.607 257.64 156.598 261.746 157.572 265.295C158.606 269.063 159.624 272.197 160.53 274.819C161.708 278.219 162.708 280.761 163.324 282.707C163.756 284.076 164.015 285.15 164.015 286.021Z" fill="#2A4E96"/>
<path d="M163.315 282.707C134.318 265.991 124.276 233.9 124.276 233.9C124.276 233.9 147.835 244.533 153.647 247.299C153.973 249.253 154.31 251.109 154.657 252.868C155.598 257.64 156.589 261.747 157.563 265.296C158.597 269.064 159.615 272.198 160.521 274.82C161.699 278.22 162.695 280.762 163.315 282.707Z" fill="#1E3D70"/>
<path d="M245.223 247.159L239.011 223.065C238.736 221.998 238.132 221.103 237.328 220.571C236.523 220.039 235.581 219.911 234.7 220.214C234.609 220.246 234.517 220.286 234.428 220.326L232.25 221.216C232.25 221.216 228.839 225.511 226.393 226.377C218.869 229.042 211.729 224.136 208.985 215.164C205.936 205.182 209.473 194.222 217.674 191.059C220.479 189.977 226.001 191.995 226.001 191.995L228.218 191.094C228.524 190.983 228.809 190.798 229.056 190.551C229.303 190.303 229.507 189.998 229.656 189.653C229.805 189.307 229.896 188.929 229.924 188.54C229.952 188.151 229.917 187.759 229.819 187.387L222.977 160.868C222.756 160.006 222.397 159.206 221.922 158.513C221.447 157.82 220.866 157.249 220.21 156.831C219.555 156.414 218.839 156.159 218.102 156.08C217.366 156.001 216.625 156.101 215.92 156.373L195.735 164.162C195.307 164.327 194.851 164.356 194.411 164.245C193.971 164.135 193.562 163.888 193.222 163.529C192.882 163.17 192.622 162.711 192.468 162.195C192.314 161.679 192.271 161.123 192.342 160.58C192.707 157.761 192.53 154.876 191.825 152.155C188.966 141.056 178.321 135.599 169.576 141.938C165.169 145.136 161.922 152.967 162.399 159.203C162.699 163.503 164.213 167.542 166.681 170.626C166.986 171.008 167.205 171.48 167.319 171.995C167.433 172.511 167.436 173.053 167.33 173.571C167.223 174.089 167.01 174.564 166.71 174.952C166.41 175.34 166.034 175.628 165.618 175.788L145.307 183.625C143.884 184.174 142.699 185.392 142.01 187.01C141.322 188.629 141.186 190.515 141.634 192.256L163.945 278.797C164.384 280.497 165.356 281.914 166.648 282.737C167.941 283.559 169.447 283.72 170.837 283.183L241.498 255.921C242.213 255.646 242.877 255.2 243.452 254.611C244.026 254.021 244.5 253.299 244.846 252.485C245.192 251.671 245.403 250.782 245.468 249.868C245.533 248.954 245.449 248.034 245.223 247.159Z" fill="#4A75CB"/>
<path d="M160.249 160.071C160.549 164.372 162.063 168.411 164.531 171.495C164.839 171.877 165.061 172.349 165.176 172.866C165.291 173.383 165.295 173.928 165.188 174.448C165.082 174.968 164.867 175.445 164.566 175.834C164.265 176.224 163.887 176.511 163.468 176.67L143.157 184.507C142.453 184.778 141.799 185.217 141.233 185.798C140.668 186.379 140.201 187.09 139.86 187.892C139.519 188.694 139.311 189.569 139.247 190.469C139.183 191.37 139.264 192.276 139.487 193.138L161.795 279.679C162.235 281.378 163.208 282.793 164.5 283.614C165.793 284.435 167.299 284.594 168.687 284.058L239.348 256.795C240.063 256.52 240.726 256.075 241.3 255.486C241.874 254.897 242.347 254.175 242.693 253.362C243.039 252.549 243.251 251.661 243.316 250.748C243.381 249.835 243.299 248.915 243.073 248.041L236.861 223.947C236.677 223.237 236.346 222.597 235.898 222.09C235.451 221.584 234.904 221.229 234.311 221.059C233.718 220.89 233.099 220.913 232.515 221.124C231.931 221.336 231.402 221.731 230.98 222.268C229.122 224.652 226.777 226.385 224.187 227.285C221.597 228.185 218.857 228.221 216.252 227.389C213.647 226.556 211.272 224.886 209.373 222.551C207.474 220.216 206.12 217.301 205.453 214.11C204.786 210.919 204.829 207.568 205.578 204.404C206.327 201.24 207.755 198.379 209.713 196.119C211.671 193.858 214.088 192.28 216.714 191.548C219.339 190.816 222.076 190.958 224.642 191.957C225.062 192.123 225.511 192.143 225.94 192.017C226.369 191.891 226.762 191.623 227.075 191.242C227.388 190.861 227.609 190.383 227.715 189.858C227.82 189.334 227.806 188.784 227.674 188.269L220.828 161.748C220.379 160.007 219.383 158.556 218.059 157.713C216.736 156.871 215.193 156.706 213.77 157.255L193.585 165.044C193.157 165.209 192.701 165.238 192.262 165.127C191.822 165.017 191.412 164.77 191.072 164.411C190.732 164.052 190.473 163.593 190.319 163.077C190.164 162.561 190.121 162.005 190.192 161.462C190.558 158.639 190.381 155.751 189.676 153.026C186.816 141.93 176.171 136.473 167.426 142.809C163.019 145.996 159.772 153.836 160.249 160.071Z" fill="#699DEE"/>
<path d="M180.281 273.02L182.786 274.145C182.786 274.145 187.796 269.804 190.928 276.863C190.928 276.863 192.058 279.946 190.274 280.615C188.49 281.283 189.135 280.655 186.622 281.68C184.108 282.706 181.632 281.966 180.682 279.77L178.979 278.24L180.281 273.02Z" fill="#FFB07B"/>
<path d="M182.344 277.356C183.27 274.398 183.692 273.058 183.692 273.058C183.692 273.058 164.76 254.178 162.83 252.558C161.523 251.455 148.428 239.501 142.046 230.159C140.493 227.888 138.465 226.177 136.178 225.208C133.891 224.239 131.433 224.048 129.064 224.656L125.089 225.676C120.297 226.908 118.731 234.339 122.453 238.243C132.939 249.24 150.624 261.994 153.921 264.648C162.107 271.232 180.214 280.46 180.214 280.46C180.214 280.46 181.616 279.677 182.344 277.356Z" fill="#2A4E96"/>
<path d="M136.06 213.997C130.007 214.413 126.071 208.297 126.071 208.297C126.071 208.297 128.807 206.432 130.301 205.078L135.492 208.302C135.766 210.187 135.955 212.088 136.06 213.997Z" fill="#EA8E50"/>
<path d="M138.641 206.393C138.641 206.393 129.467 214.445 125.457 207.381C121.447 200.317 117.559 196.597 123.246 191.156C128.933 185.714 131.615 187.425 133.422 189.394C135.23 191.364 140.926 204.117 138.641 206.393Z" fill="#FFB07B"/>
<path d="M134.392 183.012C134.206 181.418 133.846 179.862 133.322 178.386C133.322 178.386 132.747 181.304 128.389 180.901C124.03 180.499 117.126 181.434 114.823 187.499C114.677 187.885 114.547 188.298 114.429 188.69C114.013 187.344 113.913 185.327 113.913 185.327C113.085 187.941 113.913 191.214 113.913 191.214C113.9 191.307 113.891 191.403 113.878 191.499C112.917 192.493 112.109 195.586 112.109 195.586C112.399 194.723 113.107 194.161 113.739 193.814C113.719 198.542 115.285 203.162 118.036 204.537C122.059 206.549 122.026 205.014 126.071 208.297C126.071 208.297 127.16 206.65 126.415 205.544C125.671 204.439 122.88 202.829 124.442 201.22C126.004 199.61 126.581 201.419 127.156 200.314C127.731 199.208 124.854 195.989 128.554 192.97C132.255 189.951 134.721 185.73 134.392 183.012Z" fill="#233862"/>
<path d="M370.517 400.795C370.517 400.795 365.877 392.407 358.62 393.084C356.413 393.289 352.828 393.947 348.663 394.648C345.522 381.239 336.866 349.369 325.189 347.573C313.266 345.743 336.601 381.186 346.143 395.064C344.401 395.343 342.595 395.618 340.772 395.863C335.719 389.263 326.914 379.486 319.563 380.237C312.212 380.989 325.991 390.312 335.952 396.409C329.84 396.969 324.046 396.908 320.506 395.234C311.835 391.133 303.865 400.798 303.865 400.798L370.517 400.795Z" fill="#82B378"/>
<path d="M603.799 400.753H44.199C43.8477 400.753 43.563 401.101 43.563 401.531V401.795C43.563 402.225 43.8477 402.573 44.199 402.573H603.799C604.15 402.573 604.435 402.225 604.435 401.795V401.531C604.435 401.101 604.15 400.753 603.799 400.753Z" fill="#2E3552"/>
</svg>
