<svg width="136" height="308" viewBox="0 0 136 308" fill="none" xmlns="http://www.w3.org/2000/svg">
<path d="M96.9679 125.665H0V191.727H96.9679V125.665Z" fill="#20DCB6"/>
<path d="M102.376 117.938H6.95393C6.64656 117.938 6.3519 118.06 6.13456 118.278C5.91721 118.495 5.7949 118.79 5.79443 119.097V183.613C5.79443 183.766 5.82441 183.916 5.88268 184.057C5.94095 184.198 6.02636 184.326 6.13403 184.433C6.2417 184.541 6.36952 184.626 6.5102 184.685C6.65088 184.743 6.80166 184.773 6.95393 184.773H102.376C102.528 184.773 102.679 184.743 102.82 184.685C102.96 184.626 103.088 184.541 103.196 184.433C103.303 184.326 103.389 184.198 103.447 184.057C103.505 183.916 103.535 183.766 103.535 183.613V119.097C103.535 118.79 103.413 118.495 103.195 118.278C102.978 118.06 102.683 117.938 102.376 117.938ZM102.762 183.613C102.763 183.664 102.753 183.715 102.733 183.762C102.714 183.808 102.685 183.851 102.65 183.887C102.614 183.923 102.571 183.951 102.524 183.971C102.477 183.99 102.427 184 102.376 184H6.95393C6.90313 184 6.8528 183.99 6.80583 183.971C6.75887 183.951 6.7162 183.923 6.68028 183.887C6.64436 183.851 6.6159 183.808 6.59653 183.762C6.57716 183.715 6.56728 183.664 6.56744 183.613V119.097C6.56759 118.995 6.60836 118.896 6.68081 118.824C6.75326 118.751 6.85147 118.711 6.95393 118.71H102.376C102.478 118.711 102.577 118.751 102.649 118.824C102.721 118.896 102.762 118.995 102.762 119.097V183.613Z" fill="#3F3D56"/>
<path d="M53.9081 163.524H11.3816C11.07 163.524 10.8174 163.777 10.8174 164.089V167.982C10.8174 168.294 11.07 168.547 11.3816 168.547H53.9081C54.2197 168.547 54.4723 168.294 54.4723 167.982V164.089C54.4723 163.777 54.2197 163.524 53.9081 163.524Z" fill="#3F3D56"/>
<path d="M94.2626 159.275H80.3573C80.205 159.275 80.0542 159.305 79.9135 159.364C79.7728 159.422 79.645 159.507 79.5374 159.615C79.4297 159.723 79.3443 159.85 79.286 159.991C79.2277 160.132 79.1978 160.283 79.1978 160.435V171.251C79.1977 171.403 79.2277 171.554 79.286 171.695C79.3443 171.836 79.4297 171.963 79.5373 172.071C79.645 172.179 79.7728 172.264 79.9135 172.322C80.0542 172.381 80.205 172.411 80.3573 172.411H94.2626C94.4149 172.411 94.5657 172.381 94.7063 172.322C94.847 172.264 94.9748 172.179 95.0825 172.071C95.1902 171.963 95.2756 171.836 95.3339 171.695C95.3921 171.554 95.4221 171.403 95.4221 171.251V160.435C95.4221 160.283 95.3921 160.132 95.3338 159.991C95.2756 159.85 95.1902 159.723 95.0825 159.615C94.9748 159.507 94.847 159.422 94.7063 159.364C94.5657 159.305 94.4149 159.275 94.2626 159.275ZM94.6491 171.251C94.6489 171.354 94.6082 171.452 94.5357 171.524C94.4633 171.597 94.3651 171.637 94.2626 171.638H80.3573C80.2548 171.637 80.1566 171.597 80.0841 171.524C80.0117 171.452 79.9709 171.354 79.9707 171.251V160.435C79.9706 160.384 79.9805 160.334 79.9998 160.287C80.0192 160.24 80.0477 160.197 80.0836 160.161C80.1195 160.125 80.1622 160.097 80.2092 160.077C80.2561 160.058 80.3065 160.048 80.3573 160.048H94.2626C94.3134 160.048 94.3637 160.058 94.4107 160.077C94.4577 160.097 94.5003 160.125 94.5363 160.161C94.5722 160.197 94.6006 160.24 94.62 160.287C94.6394 160.334 94.6493 160.384 94.6491 160.435V171.251Z" fill="#3F3D56"/>
<path d="M91.4855 161.771H83.1341C82.8224 161.771 82.5698 162.024 82.5698 162.335V163.168C82.5698 163.48 82.8224 163.732 83.1341 163.732H91.4855C91.7971 163.732 92.0497 163.48 92.0497 163.168V162.335C92.0497 162.024 91.7971 161.771 91.4855 161.771Z" fill="#3F3D56"/>
<path d="M91.4855 164.862H83.1341C82.8224 164.862 82.5698 165.114 82.5698 165.426V166.259C82.5698 166.571 82.8224 166.823 83.1341 166.823H91.4855C91.7971 166.823 92.0497 166.571 92.0497 166.259V165.426C92.0497 165.114 91.7971 164.862 91.4855 164.862Z" fill="#3F3D56"/>
<path d="M91.4855 167.952H83.1341C82.8224 167.952 82.5698 168.205 82.5698 168.516V169.349C82.5698 169.661 82.8224 169.914 83.1341 169.914H91.4855C91.7971 169.914 92.0497 169.661 92.0497 169.349V168.516C92.0497 168.205 91.7971 167.952 91.4855 167.952Z" fill="#3F3D56"/>
<path d="M31.5008 122.574H12.5403C12.2287 122.574 11.9761 122.827 11.9761 123.138V130.509C11.9761 130.821 12.2287 131.073 12.5403 131.073H31.5008C31.8124 131.073 32.0651 130.821 32.0651 130.509V123.138C32.0651 122.827 31.8124 122.574 31.5008 122.574Z" fill="#3F3D56"/>
<path d="M23.5662 126.823C23.5662 128.317 22.8743 129.528 22.0209 129.528C21.1674 129.528 20.4756 128.317 20.4756 126.823C20.4756 125.33 22.0209 124.119 22.0209 124.119C22.0209 124.119 23.5662 125.33 23.5662 126.823Z" fill="#20DCB6"/>
<path d="M103.283 257.944V257.38H40.1988L40.1988 193.34H39.6345L39.6345 257.944H103.283Z" fill="#3F3D56"/>
<path d="M39.6345 117.772L39.6345 53.1685L103.283 53.1685V53.7327L40.1988 53.7327L40.1988 117.772H39.6345Z" fill="#3F3D56"/>
<path d="M135.819 226.241H135.458V225.608H135.729C135.777 225.608 135.823 225.589 135.857 225.555C135.891 225.521 135.91 225.475 135.91 225.427V222.173C135.91 222.125 135.891 222.079 135.857 222.045C135.823 222.011 135.777 221.992 135.729 221.992H135.458V220.144C135.458 219.627 135.356 219.115 135.158 218.637C134.96 218.16 134.67 217.726 134.305 217.36C133.939 216.995 133.505 216.705 133.027 216.507C132.55 216.309 132.038 216.207 131.521 216.207H131.119V215.755C131.119 215.707 131.1 215.661 131.066 215.627C131.032 215.593 130.986 215.574 130.938 215.574H127.684C127.636 215.574 127.59 215.593 127.556 215.627C127.522 215.661 127.503 215.707 127.503 215.755V216.207H68.7062C68.1892 216.207 67.6772 216.309 67.1995 216.507C66.7219 216.705 66.2878 216.995 65.9222 217.36C65.5566 217.726 65.2666 218.16 65.0687 218.637C64.8709 219.115 64.769 219.627 64.769 220.144V303.93C64.769 304.447 64.8709 304.959 65.0687 305.437C65.2666 305.914 65.5566 306.348 65.9222 306.714C66.2878 307.08 66.7218 307.37 67.1995 307.568C67.6772 307.765 68.1892 307.867 68.7062 307.867H131.521C132.038 307.867 132.55 307.765 133.027 307.568C133.505 307.37 133.939 307.08 134.305 306.714C134.67 306.348 134.96 305.914 135.158 305.437C135.356 304.959 135.458 304.447 135.458 303.93V229.857H135.819C135.867 229.857 135.913 229.838 135.947 229.804C135.981 229.77 136 229.724 136 229.676V226.422C136 226.398 135.995 226.374 135.986 226.352C135.977 226.33 135.964 226.311 135.947 226.294C135.93 226.277 135.91 226.264 135.889 226.255C135.867 226.245 135.843 226.241 135.819 226.241Z" fill="#3F3D56"/>
<path d="M132.209 218.782H68.5603C68.2636 218.782 68.0229 219.023 68.0229 219.32V304.122C68.0229 304.418 68.2636 304.659 68.5603 304.659H132.209C132.506 304.659 132.746 304.418 132.746 304.122V219.32C132.746 219.023 132.506 218.782 132.209 218.782Z" fill="#D0CDE1"/>
<path d="M103.491 260.87H93.5164C93.2048 260.87 92.9521 261.122 92.9521 261.434V263.596C92.9521 263.907 93.2048 264.16 93.5164 264.16H103.491C103.803 264.16 104.055 263.907 104.055 263.596V261.434C104.055 261.122 103.803 260.87 103.491 260.87Z" fill="#3F3D56"/>
<path d="M116.914 235.253H80.093C79.7814 235.253 79.5288 235.506 79.5288 235.817V236.099C79.5288 236.41 79.7814 236.663 80.093 236.663H116.914C117.225 236.663 117.478 236.41 117.478 236.099V235.817C117.478 235.506 117.225 235.253 116.914 235.253Z" fill="#3F3D56"/>
<path d="M116.914 239.718H80.093C79.7814 239.718 79.5288 239.971 79.5288 240.282V240.564C79.5288 240.876 79.7814 241.128 80.093 241.128H116.914C117.225 241.128 117.478 240.876 117.478 240.564V240.282C117.478 239.971 117.225 239.718 116.914 239.718Z" fill="#3F3D56"/>
<path d="M116.914 244.184H80.093C79.7814 244.184 79.5288 244.436 79.5288 244.748V245.029C79.5288 245.341 79.7814 245.594 80.093 245.594H116.914C117.225 245.594 117.478 245.341 117.478 245.029V244.748C117.478 244.436 117.225 244.184 116.914 244.184Z" fill="#3F3D56"/>
<path d="M116.914 248.648H80.093C79.7814 248.648 79.5288 248.901 79.5288 249.213V249.494C79.5288 249.806 79.7814 250.059 80.093 250.059H116.914C117.225 250.059 117.478 249.806 117.478 249.494V249.213C117.478 248.901 117.225 248.648 116.914 248.648Z" fill="#3F3D56"/>
<path d="M116.914 253.114H80.093C79.7814 253.114 79.5288 253.366 79.5288 253.678V253.96C79.5288 254.271 79.7814 254.524 80.093 254.524H116.914C117.225 254.524 117.478 254.271 117.478 253.96V253.678C117.478 253.366 117.225 253.114 116.914 253.114Z" fill="#3F3D56"/>
<path d="M97.1601 301.268C103.67 301.268 108.947 295.991 108.947 289.481C108.947 282.972 103.67 277.695 97.1601 277.695C90.6506 277.695 85.3735 282.972 85.3735 289.481C85.3735 295.991 90.6506 301.268 97.1601 301.268Z" fill="#20DCB6"/>
<path d="M100.634 298.573C97.7114 298.573 94.8542 297.706 92.4241 296.082C89.9939 294.459 88.0998 292.151 86.9813 289.45C85.8628 286.75 85.5702 283.779 86.1404 280.912C86.7106 278.046 88.118 275.413 90.1847 273.346C92.2514 271.279 94.8845 269.872 97.7511 269.302C100.618 268.731 103.589 269.024 106.289 270.142C108.99 271.261 111.297 273.155 112.921 275.585C114.545 278.015 115.412 280.872 115.412 283.795C115.407 287.713 113.849 291.469 111.079 294.24C108.308 297.01 104.552 298.568 100.634 298.573ZM100.634 269.555C97.8176 269.555 95.0644 270.39 92.7226 271.955C90.3808 273.52 88.5556 275.744 87.4778 278.346C86.4 280.948 86.118 283.811 86.6675 286.573C87.2169 289.336 88.5732 291.873 90.5647 293.865C92.5562 295.856 95.0936 297.212 97.856 297.762C100.618 298.311 103.482 298.029 106.084 296.952C108.686 295.874 110.91 294.048 112.474 291.707C114.039 289.365 114.874 286.612 114.874 283.795C114.87 280.02 113.368 276.4 110.699 273.731C108.029 271.061 104.41 269.559 100.634 269.555Z" fill="#3F3D56"/>
<path d="M108.635 20.906H108.152V7.66407C108.152 6.65761 107.954 5.661 107.569 4.73115C107.183 3.8013 106.619 2.95642 105.907 2.24475C105.196 1.53307 104.351 0.968541 103.421 0.583387C102.491 0.198232 101.494 -2.96378e-06 100.488 0H72.4331C71.4267 -2.22283e-06 70.4301 0.198232 69.5002 0.583387C68.5704 0.968541 67.7255 1.53307 67.0138 2.24475C66.3021 2.95642 65.7376 3.80131 65.3524 4.73116C64.9673 5.66101 64.769 6.65761 64.769 7.66407V80.3103C64.769 81.3168 64.9673 82.3134 65.3524 83.2432C65.7376 84.1731 66.3021 85.018 67.0138 85.7297C67.7255 86.4413 68.5704 87.0059 69.5002 87.391C70.4301 87.7762 71.4267 87.9744 72.4331 87.9744H100.488C101.494 87.9744 102.491 87.7762 103.421 87.391C104.351 87.0059 105.196 86.4413 105.907 85.7296C106.619 85.018 107.183 84.1731 107.569 83.2432C107.954 82.3134 108.152 81.3168 108.152 80.3103V30.3318H108.635V20.906Z" fill="#3F3D56"/>
<path d="M106.52 8.11418V80.6545C106.52 82.1725 105.917 83.6284 104.844 84.702C103.771 85.7755 102.315 86.3788 100.797 86.3791H72.6069C71.0889 86.3788 69.6332 85.7755 68.56 84.702C67.4868 83.6284 66.884 82.1725 66.8843 80.6545V8.11418C66.8844 6.59651 67.4874 5.14104 68.5606 4.06788C69.6337 2.99472 71.0892 2.39176 72.6069 2.3916H76.027C75.8587 2.80446 75.7945 3.25237 75.8401 3.69589C75.8856 4.1394 76.0396 4.56491 76.2883 4.93492C76.5371 5.30492 76.873 5.60809 77.2665 5.81769C77.66 6.0273 78.099 6.13691 78.5449 6.13688H94.6173C95.0631 6.13692 95.5022 6.02731 95.8957 5.8177C96.2892 5.6081 96.6251 5.30494 96.8739 4.93493C97.1226 4.56492 97.2765 4.13941 97.3221 3.69589C97.3677 3.25238 97.3035 2.80446 97.1351 2.3916H100.797C102.315 2.39177 103.77 2.99473 104.843 4.06789C105.917 5.14104 106.52 6.59651 106.52 8.11418Z" fill="#D0CDE1"/>
<path d="M89.9138 45.1284H83.4905C83.1789 45.1284 82.9263 45.381 82.9263 45.6926V46.8021C82.9263 47.1137 83.1789 47.3663 83.4905 47.3663H89.9138C90.2254 47.3663 90.478 47.1137 90.478 46.8021V45.6926C90.478 45.381 90.2254 45.1284 89.9138 45.1284Z" fill="#3F3D56"/>
<path d="M99.1279 27.7046H74.2759C74.0111 27.7046 73.7964 27.9193 73.7964 28.1841C73.7964 28.449 74.0111 28.6637 74.2759 28.6637H99.1279C99.3928 28.6637 99.6075 28.449 99.6075 28.1841C99.6075 27.9193 99.3928 27.7046 99.1279 27.7046Z" fill="#3F3D56"/>
<path d="M99.1279 30.7422H74.2759C74.0111 30.7422 73.7964 30.9569 73.7964 31.2217C73.7964 31.4866 74.0111 31.7013 74.2759 31.7013H99.1279C99.3928 31.7013 99.6075 31.4866 99.6075 31.2217C99.6075 30.9569 99.3928 30.7422 99.1279 30.7422Z" fill="#3F3D56"/>
<path d="M99.1279 33.7793H74.2759C74.0111 33.7793 73.7964 33.994 73.7964 34.2588C73.7964 34.5237 74.0111 34.7384 74.2759 34.7384H99.1279C99.3928 34.7384 99.6075 34.5237 99.6075 34.2588C99.6075 33.994 99.3928 33.7793 99.1279 33.7793Z" fill="#3F3D56"/>
<path d="M99.1279 36.8164H74.2759C74.0111 36.8164 73.7964 37.0311 73.7964 37.296C73.7964 37.5608 74.0111 37.7755 74.2759 37.7755H99.1279C99.3928 37.7755 99.6075 37.5608 99.6075 37.296C99.6075 37.0311 99.3928 36.8164 99.1279 36.8164Z" fill="#3F3D56"/>
<path d="M99.1279 39.8535H74.2759C74.0111 39.8535 73.7964 40.0682 73.7964 40.3331C73.7964 40.5979 74.0111 40.8126 74.2759 40.8126H99.1279C99.3928 40.8126 99.6075 40.5979 99.6075 40.3331C99.6075 40.0682 99.3928 39.8535 99.1279 39.8535Z" fill="#3F3D56"/>
<path d="M84.4815 76.5543C88.9708 76.5543 92.61 72.9151 92.61 68.4259C92.61 63.9366 88.9708 60.2974 84.4815 60.2974C79.9923 60.2974 76.353 63.9366 76.353 68.4259C76.353 72.9151 79.9923 76.5543 84.4815 76.5543Z" fill="#20DCB6"/>
<path d="M86.8773 74.6955C84.8616 74.6955 82.8913 74.0978 81.2153 72.9779C79.5394 71.8581 78.2332 70.2664 77.4618 68.4042C76.6905 66.542 76.4886 64.4929 76.8819 62.516C77.2751 60.5391 78.2457 58.7232 79.671 57.2979C81.0962 55.8727 82.9121 54.902 84.8891 54.5088C86.866 54.1156 88.9151 54.3174 90.7773 55.0888C92.6395 55.8601 94.2311 57.1663 95.351 58.8423C96.4708 60.5182 97.0685 62.4886 97.0685 64.5042C97.0654 67.2062 95.9907 69.7966 94.0802 71.7071C92.1696 73.6177 89.5792 74.6924 86.8773 74.6955ZM86.8773 54.6836C84.9349 54.6836 83.0362 55.2596 81.4212 56.3387C79.8062 57.4178 78.5475 58.9515 77.8042 60.746C77.0609 62.5405 76.8664 64.5151 77.2453 66.4201C77.6243 68.3252 78.5596 70.075 79.933 71.4485C81.3065 72.8219 83.0563 73.7572 84.9614 74.1362C86.8664 74.5151 88.841 74.3206 90.6355 73.5773C92.43 72.834 93.9637 71.5753 95.0428 69.9603C96.1219 68.3453 96.6979 66.4466 96.6979 64.5042C96.695 61.9005 95.6594 59.4043 93.8183 57.5632C91.9772 55.7221 89.481 54.6865 86.8773 54.6836Z" fill="#3F3D56"/>
<path d="M43.6672 86.4429H35.7681V94.342H43.6672V86.4429Z" fill="#D0CDE1"/>
<path d="M48.4629 89.8282H38.8711V80.2363H48.4629V89.8282ZM39.2881 89.4111H48.0459V80.6534H39.2881V89.4111Z" fill="#3F3D56"/>
<path d="M40.7668 227.582H32.8677V235.481H40.7668V227.582Z" fill="#D0CDE1"/>
<path d="M45.5635 230.966H35.9717V221.375H45.5635V230.966ZM36.3887 230.549H45.1465V221.792H36.3887V230.549Z" fill="#3F3D56"/>
</svg>
