<svg width="312" height="610" viewBox="0 0 312 610" fill="none" xmlns="http://www.w3.org/2000/svg">
<path d="M292.905 262.436H134.204V400.011H292.905V262.436Z" fill="#20A4DC"/>
<path d="M301.756 246.345H145.585C145.082 246.346 144.6 246.6 144.244 247.053C143.888 247.506 143.688 248.119 143.687 248.759V383.116C143.687 383.433 143.736 383.747 143.832 384.04C143.927 384.333 144.067 384.599 144.243 384.823C144.419 385.047 144.628 385.225 144.859 385.346C145.089 385.468 145.336 385.53 145.585 385.53H301.756C302.005 385.53 302.252 385.468 302.482 385.346C302.712 385.225 302.921 385.047 303.097 384.823C303.274 384.599 303.413 384.333 303.509 384.04C303.604 383.747 303.653 383.433 303.653 383.116V248.759C303.652 248.119 303.452 247.506 303.097 247.053C302.741 246.6 302.259 246.346 301.756 246.345V246.345ZM302.388 383.116C302.388 383.221 302.372 383.326 302.341 383.424C302.309 383.522 302.262 383.611 302.203 383.685C302.145 383.76 302.075 383.82 301.998 383.86C301.921 383.9 301.839 383.921 301.756 383.92H145.585C145.502 383.921 145.419 383.9 145.343 383.86C145.266 383.82 145.196 383.76 145.137 383.685C145.078 383.611 145.032 383.522 145 383.424C144.968 383.326 144.952 383.221 144.952 383.116V248.759C144.953 248.546 145.019 248.341 145.138 248.191C145.256 248.04 145.417 247.955 145.585 247.954H301.756C301.923 247.955 302.084 248.04 302.203 248.191C302.321 248.341 302.388 248.546 302.388 248.759V383.116Z" fill="#3F3D56"/>
<path d="M222.432 341.279H152.832C152.322 341.279 151.908 341.805 151.908 342.454V350.563C151.908 351.212 152.322 351.738 152.832 351.738H222.432C222.942 351.738 223.355 351.212 223.355 350.563V342.454C223.355 341.805 222.942 341.279 222.432 341.279Z" fill="#3F3D56"/>
<path d="M288.477 332.43H265.719C265.47 332.43 265.223 332.492 264.993 332.613C264.763 332.735 264.554 332.913 264.377 333.137C264.201 333.361 264.061 333.627 263.966 333.92C263.871 334.213 263.822 334.527 263.822 334.844V357.369C263.822 357.686 263.871 358 263.966 358.293C264.061 358.586 264.201 358.852 264.377 359.077C264.554 359.301 264.763 359.479 264.993 359.6C265.223 359.721 265.47 359.784 265.719 359.784H288.477C288.726 359.784 288.973 359.721 289.203 359.6C289.434 359.479 289.643 359.301 289.819 359.077C289.995 358.852 290.135 358.586 290.23 358.293C290.326 358 290.375 357.686 290.375 357.369V334.844C290.375 334.527 290.326 334.213 290.23 333.92C290.135 333.627 289.995 333.361 289.819 333.137C289.643 332.913 289.434 332.735 289.203 332.613C288.973 332.492 288.726 332.43 288.477 332.43V332.43ZM289.11 357.369C289.109 357.583 289.043 357.787 288.924 357.938C288.806 358.089 288.645 358.174 288.477 358.174H265.719C265.552 358.174 265.391 358.089 265.272 357.938C265.154 357.787 265.087 357.583 265.087 357.369V334.844C265.086 334.739 265.103 334.634 265.134 334.536C265.166 334.438 265.213 334.349 265.271 334.274C265.33 334.2 265.4 334.14 265.477 334.1C265.554 334.06 265.636 334.039 265.719 334.039H288.477C288.56 334.039 288.643 334.06 288.72 334.1C288.796 334.14 288.866 334.2 288.925 334.274C288.984 334.349 289.03 334.438 289.062 334.536C289.094 334.634 289.11 334.739 289.11 334.844V357.369Z" fill="#3F3D56"/>
<path d="M283.932 337.627H270.264C269.754 337.627 269.341 338.153 269.341 338.802V340.536C269.341 341.185 269.754 341.711 270.264 341.711H283.932C284.442 341.711 284.856 341.185 284.856 340.536V338.802C284.856 338.153 284.442 337.627 283.932 337.627Z" fill="#3F3D56"/>
<path d="M283.932 344.063H270.264C269.754 344.063 269.341 344.59 269.341 345.238V346.973C269.341 347.622 269.754 348.148 270.264 348.148H283.932C284.442 348.148 284.856 347.622 284.856 346.973V345.238C284.856 344.59 284.442 344.063 283.932 344.063Z" fill="#3F3D56"/>
<path d="M283.932 350.498H270.264C269.754 350.498 269.341 351.024 269.341 351.673V353.408C269.341 354.057 269.754 354.583 270.264 354.583H283.932C284.442 354.583 284.856 354.057 284.856 353.408V351.673C284.856 351.024 284.442 350.498 283.932 350.498Z" fill="#3F3D56"/>
<path d="M185.759 255.999H154.728C154.218 255.999 153.804 256.525 153.804 257.174V272.524C153.804 273.173 154.218 273.699 154.728 273.699H185.759C186.269 273.699 186.683 273.173 186.683 272.524V257.174C186.683 256.525 186.269 255.999 185.759 255.999Z" fill="#3F3D56"/>
<path d="M172.773 264.848C172.773 267.958 171.641 270.479 170.244 270.479C168.847 270.479 167.715 267.958 167.715 264.848C167.715 261.737 170.244 259.216 170.244 259.216C170.244 259.216 172.773 261.737 172.773 264.848Z" fill="#20DCB6"/>
<path d="M199.021 396.413H198.098V527.787H93.2881V528.962H199.021V396.413Z" fill="#3F3D56"/>
<path d="M199.071 245.999V111.461L303.241 111.461V112.636L199.995 112.636V245.999H199.071Z" fill="#3F3D56"/>
<path d="M116.283 439.452H115.691V438.134H116.135C116.214 438.134 116.289 438.094 116.344 438.024C116.4 437.953 116.431 437.857 116.431 437.757V430.98C116.431 430.881 116.4 430.785 116.344 430.714C116.289 430.644 116.214 430.604 116.135 430.604H115.691V426.755C115.691 425.678 115.525 424.612 115.201 423.617C114.877 422.623 114.403 421.719 113.804 420.957C113.206 420.196 112.495 419.592 111.714 419.18C110.932 418.768 110.094 418.556 109.248 418.556H108.59V417.615C108.59 417.515 108.559 417.419 108.504 417.349C108.448 417.278 108.373 417.238 108.294 417.238H102.968C102.89 417.238 102.815 417.278 102.759 417.349C102.704 417.419 102.672 417.515 102.672 417.615V418.556H6.4437C5.5975 418.556 4.7596 418.768 3.97782 419.18C3.19603 419.592 2.48566 420.196 1.8873 420.957C1.28895 421.719 0.814314 422.623 0.490488 423.617C0.166662 424.612 -3.03157e-06 425.678 1.65399e-10 426.755V601.24C-6.06325e-06 602.317 0.166664 603.383 0.490488 604.378C0.814313 605.373 1.28895 606.277 1.8873 607.038C2.48566 607.799 3.196 608.403 3.97779 608.815C4.75958 609.227 5.5975 609.439 6.4437 609.439H109.248C110.094 609.439 110.932 609.227 111.714 608.815C112.495 608.403 113.206 607.799 113.804 607.038C114.403 606.277 114.877 605.373 115.201 604.378C115.525 603.383 115.691 602.317 115.691 601.24V446.981H116.283C116.362 446.981 116.437 446.942 116.492 446.871C116.548 446.801 116.579 446.705 116.579 446.605V439.828C116.579 439.779 116.571 439.73 116.557 439.684C116.542 439.638 116.52 439.597 116.492 439.562C116.465 439.527 116.432 439.499 116.396 439.48C116.361 439.461 116.322 439.452 116.283 439.452V439.452Z" fill="#3F3D56"/>
<path d="M110.374 423.921H6.20481C5.71909 423.921 5.32532 424.422 5.32532 425.04V601.641C5.32532 602.259 5.71909 602.76 6.20481 602.76H110.374C110.86 602.76 111.254 602.259 111.254 601.641V425.04C111.254 424.422 110.86 423.921 110.374 423.921Z" fill="#D0CDE1"/>
<path d="M63.3734 511.566H47.0488C46.5388 511.566 46.1254 512.092 46.1254 512.741V517.243C46.1254 517.892 46.5388 518.418 47.0488 518.418H63.3734C63.8834 518.418 64.2969 517.892 64.2969 517.243V512.741C64.2969 512.092 63.8834 511.566 63.3734 511.566Z" fill="#3F3D56"/>
<path d="M85.3417 458.219H25.0799C24.5699 458.219 24.1565 458.745 24.1565 459.394V459.98C24.1565 460.629 24.5699 461.155 25.0799 461.155H85.3417C85.8517 461.155 86.2651 460.629 86.2651 459.98V459.394C86.2651 458.745 85.8517 458.219 85.3417 458.219Z" fill="#3F3D56"/>
<path d="M85.3417 467.519H25.0799C24.5699 467.519 24.1565 468.045 24.1565 468.694V469.28C24.1565 469.929 24.5699 470.455 25.0799 470.455H85.3417C85.8517 470.455 86.2651 469.929 86.2651 469.28V468.694C86.2651 468.045 85.8517 467.519 85.3417 467.519Z" fill="#3F3D56"/>
<path d="M85.3417 476.819H25.0799C24.5699 476.819 24.1565 477.345 24.1565 477.994V478.581C24.1565 479.23 24.5699 479.756 25.0799 479.756H85.3417C85.8517 479.756 86.2651 479.23 86.2651 478.581V477.994C86.2651 477.345 85.8517 476.819 85.3417 476.819Z" fill="#3F3D56"/>
<path d="M85.3417 486.116H25.0799C24.5699 486.116 24.1565 486.642 24.1565 487.291V487.878C24.1565 488.527 24.5699 489.053 25.0799 489.053H85.3417C85.8517 489.053 86.2651 488.527 86.2651 487.878V487.291C86.2651 486.642 85.8517 486.116 85.3417 486.116Z" fill="#3F3D56"/>
<path d="M85.3417 495.415H25.0799C24.5699 495.415 24.1565 495.941 24.1565 496.59V497.177C24.1565 497.826 24.5699 498.352 25.0799 498.352H85.3417C85.8517 498.352 86.2651 497.826 86.2651 497.177V496.59C86.2651 495.941 85.8517 495.415 85.3417 495.415Z" fill="#3F3D56"/>
<path d="M53.0124 595.699C63.6661 595.699 72.3027 584.709 72.3027 571.153C72.3027 557.597 63.6661 546.607 53.0124 546.607C42.3586 546.607 33.722 557.597 33.722 571.153C33.722 584.709 42.3586 595.699 53.0124 595.699Z" fill="#20A4DC"/>
<path d="M58.6979 590.085C53.9145 590.085 49.2384 588.28 45.2611 584.899C41.2838 581.517 38.1839 576.711 36.3534 571.088C34.5228 565.464 34.0439 559.277 34.9771 553.307C35.9103 547.337 38.2137 541.854 41.5961 537.55C44.9785 533.246 49.288 530.315 53.9795 529.127C58.6711 527.94 63.534 528.549 67.9533 530.879C72.3726 533.208 76.1499 537.152 78.8075 542.213C81.465 547.274 82.8835 553.224 82.8835 559.311C82.8762 567.47 80.3258 575.292 75.7917 581.061C71.2576 586.831 65.1101 590.076 58.6979 590.085V590.085ZM58.6979 529.655C54.0884 529.655 49.5824 531.394 45.7497 534.653C41.9171 537.912 38.9299 542.543 37.1659 547.962C35.4019 553.381 34.9404 559.344 35.8396 565.096C36.7389 570.849 38.9586 576.133 42.218 580.28C45.4774 584.428 49.6302 587.252 54.1511 588.396C58.6721 589.541 63.3581 588.953 67.6168 586.709C71.8754 584.464 75.5153 580.663 78.0762 575.786C80.6371 570.91 82.004 565.176 82.004 559.311C81.9971 551.448 79.5394 543.91 75.1701 538.351C70.8009 532.791 64.8769 529.664 58.6979 529.655V529.655Z" fill="#3F3D56"/>
<path d="M312 44.2743H311.209V16.6978C311.209 14.6019 310.885 12.5264 310.254 10.59C309.624 8.65356 308.7 6.89409 307.535 5.41202C306.37 3.92995 304.988 2.7543 303.466 1.95221C301.944 1.15012 300.313 0.737299 298.666 0.737305H252.75C251.103 0.7373 249.472 1.15012 247.95 1.95221C246.428 2.7543 245.046 3.92995 243.881 5.41202C242.716 6.89409 241.792 8.65357 241.162 10.59C240.531 12.5264 240.207 14.6019 240.207 16.6978V167.984C240.207 170.08 240.531 172.156 241.162 174.092C241.792 176.029 242.716 177.788 243.881 179.27C245.046 180.752 246.428 181.928 247.95 182.73C249.472 183.532 251.103 183.945 252.75 183.945H298.666C300.313 183.945 301.944 183.532 303.466 182.73C304.988 181.928 306.37 180.752 307.535 179.27C308.7 177.788 309.624 176.029 310.254 174.092C310.885 172.156 311.209 170.08 311.209 167.984V63.9037H312V44.2743Z" fill="#3F3D56"/>
<path d="M308.538 17.6351V168.701C308.538 171.862 307.552 174.894 305.795 177.13C304.039 179.366 301.656 180.622 299.172 180.623H253.035C250.55 180.622 248.168 179.366 246.411 177.13C244.655 174.894 243.669 171.862 243.669 168.701V17.6351C243.669 14.4745 244.656 11.4435 246.412 9.20864C248.169 6.97378 250.551 5.71811 253.035 5.71777H258.632C258.357 6.57756 258.252 7.51034 258.326 8.43396C258.401 9.35759 258.653 10.2437 259.06 11.0143C259.467 11.7848 260.017 12.4161 260.661 12.8526C261.305 13.2891 262.023 13.5174 262.753 13.5174H289.058C289.787 13.5174 290.506 13.2892 291.15 12.8527C291.794 12.4162 292.344 11.7848 292.751 11.0143C293.158 10.2437 293.41 9.3576 293.484 8.43397C293.559 7.51034 293.454 6.57756 293.179 5.71777H299.172C301.656 5.71812 304.038 6.9738 305.794 9.20866C307.55 11.4435 308.537 14.4745 308.538 17.6351Z" fill="#D0CDE1"/>
<path d="M281.36 94.7178H270.847C270.337 94.7178 269.924 95.2438 269.924 95.8928V98.2032C269.924 98.8521 270.337 99.3782 270.847 99.3782H281.36C281.87 99.3782 282.283 98.8521 282.283 98.2032V95.8928C282.283 95.2438 281.87 94.7178 281.36 94.7178Z" fill="#3F3D56"/>
<path d="M296.44 58.4316H255.766C255.333 58.4316 254.981 58.8788 254.981 59.4303C254.981 59.9818 255.333 60.429 255.766 60.429H296.44C296.873 60.429 297.225 59.9818 297.225 59.4303C297.225 58.8788 296.873 58.4316 296.44 58.4316Z" fill="#3F3D56"/>
<path d="M296.44 64.7578H255.766C255.333 64.7578 254.981 65.2049 254.981 65.7565C254.981 66.308 255.333 66.7551 255.766 66.7551H296.44C296.873 66.7551 297.225 66.308 297.225 65.7565C297.225 65.2049 296.873 64.7578 296.44 64.7578Z" fill="#3F3D56"/>
<path d="M296.44 71.082H255.766C255.333 71.082 254.981 71.5292 254.981 72.0807C254.981 72.6322 255.333 73.0794 255.766 73.0794H296.44C296.873 73.0794 297.225 72.6322 297.225 72.0807C297.225 71.5292 296.873 71.082 296.44 71.082Z" fill="#3F3D56"/>
<path d="M296.44 77.4082H255.766C255.333 77.4082 254.981 77.8553 254.981 78.4069C254.981 78.9584 255.333 79.4055 255.766 79.4055H296.44C296.873 79.4055 297.225 78.9584 297.225 78.4069C297.225 77.8553 296.873 77.4082 296.44 77.4082Z" fill="#3F3D56"/>
<path d="M296.44 83.7334H255.766C255.333 83.7334 254.981 84.1805 254.981 84.7321C254.981 85.2836 255.333 85.7307 255.766 85.7307H296.44C296.873 85.7307 297.225 85.2836 297.225 84.7321C297.225 84.1805 296.873 83.7334 296.44 83.7334Z" fill="#3F3D56"/>
<path d="M272.469 160.163C279.816 160.163 285.772 152.584 285.772 143.235C285.772 133.886 279.816 126.308 272.469 126.308C265.122 126.308 259.166 133.886 259.166 143.235C259.166 152.584 265.122 160.163 272.469 160.163Z" fill="#20A4DC"/>
<path d="M276.39 156.292C273.091 156.292 269.866 155.048 267.123 152.716C264.381 150.384 262.243 147.069 260.98 143.191C259.718 139.313 259.388 135.046 260.031 130.929C260.675 126.812 262.263 123.03 264.596 120.062C266.929 117.094 269.901 115.072 273.136 114.254C276.371 113.435 279.725 113.855 282.773 115.461C285.821 117.068 288.426 119.788 290.258 123.278C292.091 126.768 293.069 130.871 293.069 135.069C293.064 140.696 291.305 146.09 288.179 150.069C285.052 154.048 280.812 156.286 276.39 156.292V156.292ZM276.39 114.617C273.211 114.617 270.104 115.817 267.46 118.064C264.817 120.311 262.757 123.506 261.541 127.243C260.324 130.98 260.006 135.092 260.626 139.059C261.246 143.026 262.777 146.67 265.025 149.531C267.273 152.391 270.137 154.339 273.254 155.128C276.372 155.917 279.604 155.512 282.541 153.964C285.478 152.416 287.988 149.795 289.754 146.431C291.52 143.068 292.463 139.114 292.463 135.069C292.458 129.647 290.763 124.448 287.75 120.614C284.737 116.78 280.651 114.624 276.39 114.617Z" fill="#3F3D56"/>
<path d="M205.671 180.756H192.743V197.206H205.671V180.756Z" fill="#D0CDE1"/>
<path d="M213.52 187.805H197.822V167.83H213.52V187.805ZM198.504 186.937H212.838V168.699H198.504V186.937Z" fill="#3F3D56"/>
<path d="M204.414 446.827H191.486V463.277H204.414V446.827Z" fill="#D0CDE1"/>
<path d="M212.264 453.875H196.566V433.899H212.264V453.875ZM197.249 453.006H211.582V434.768H197.249V453.006Z" fill="#3F3D56"/>
</svg>
