<svg width="412" height="275" viewBox="0 0 412 275" fill="none" xmlns="http://www.w3.org/2000/svg">
<g clip-path="url(#clip0_198_7396)">
<path d="M38.8553 266.263C40.6784 268.895 42.9385 271.144 45.5224 272.899C46.072 273.272 46.6361 273.624 47.21 273.949H60.716C60.5543 273.603 60.3972 273.251 60.245 272.899C56.0574 263.436 54.7443 252.805 56.4902 242.502C58.2361 232.198 62.9532 222.739 69.9786 215.455C61.8151 218.155 54.2698 223.42 49.3343 230.885C46.9362 234.521 45.2308 238.627 44.3156 242.969C43.4999 234.285 44.7962 225.524 48.0784 217.536C41.4506 223.309 36.2893 231.216 34.3221 240.116C32.3549 249.021 33.7824 258.903 38.8553 266.263Z" fill="#F0F0F0"/>
<path d="M409.865 147.622H318.041C317.475 147.621 316.932 147.38 316.531 146.951C316.131 146.523 315.906 145.942 315.905 145.335V84.5065C315.906 83.9002 316.131 83.319 316.531 82.8903C316.932 82.4616 317.475 82.2204 318.041 82.2197H409.865C410.431 82.2204 410.974 82.4616 411.374 82.8903C411.774 83.319 411.999 83.9002 412 84.5065V145.335C411.999 145.942 411.774 146.523 411.374 146.951C410.974 147.38 410.431 147.621 409.865 147.622Z" fill="white"/>
<path d="M409.865 147.622H318.041C317.475 147.621 316.932 147.38 316.531 146.951C316.131 146.523 315.906 145.942 315.905 145.335V84.5065C315.906 83.9002 316.131 83.319 316.531 82.8903C316.932 82.4616 317.475 82.2204 318.041 82.2197H409.865C410.431 82.2204 410.974 82.4616 411.374 82.8903C411.774 83.319 411.999 83.9002 412 84.5065V145.335C411.999 145.942 411.774 146.523 411.374 146.951C410.974 147.38 410.431 147.621 409.865 147.622ZM318.041 83.1345C317.701 83.1349 317.375 83.2795 317.135 83.5368C316.895 83.794 316.76 84.1427 316.759 84.5065V145.335C316.76 145.699 316.895 146.048 317.135 146.305C317.375 146.562 317.701 146.707 318.041 146.707H409.865C410.204 146.707 410.53 146.562 410.77 146.305C411.01 146.048 411.146 145.699 411.146 145.335V84.5065C411.146 84.1427 411.01 83.794 410.77 83.5368C410.53 83.2795 410.204 83.1349 409.865 83.1345H318.041Z" fill="#3F3D56"/>
<path d="M391.713 102.535H336.192C335.682 102.535 335.193 102.318 334.833 101.932C334.473 101.546 334.27 101.023 334.27 100.477C334.27 99.9312 334.473 99.4077 334.833 99.0218C335.193 98.6358 335.682 98.4189 336.192 98.4189H391.713C392.223 98.4189 392.712 98.6358 393.072 99.0218C393.433 99.4077 393.635 99.9312 393.635 100.477C393.635 101.023 393.433 101.546 393.072 101.932C392.712 102.318 392.223 102.535 391.713 102.535V102.535Z" fill="#CCCCCC"/>
<path d="M391.713 116.713H336.192C335.682 116.713 335.193 116.496 334.833 116.11C334.473 115.724 334.27 115.201 334.27 114.655C334.27 114.109 334.473 113.585 334.833 113.2C335.193 112.814 335.682 112.597 336.192 112.597H391.713C392.223 112.597 392.712 112.814 393.072 113.2C393.433 113.585 393.635 114.109 393.635 114.655C393.635 115.201 393.433 115.724 393.072 116.11C392.712 116.496 392.223 116.713 391.713 116.713V116.713Z" fill="#CCCCCC"/>
<path d="M386.767 139.193C390.56 139.193 393.635 135.9 393.635 131.838C393.635 127.775 390.56 124.482 386.767 124.482C382.973 124.482 379.898 127.775 379.898 131.838C379.898 135.9 382.973 139.193 386.767 139.193Z" fill="#215CDD"/>
<path d="M386.955 128.373V127.672H387.149V128.373C387.423 128.385 387.693 128.456 387.941 128.58C388.122 128.671 388.277 128.81 388.393 128.984C388.5 129.144 388.558 129.337 388.557 129.534C388.561 129.679 388.516 129.82 388.43 129.931C388.393 129.982 388.345 130.022 388.291 130.05C388.237 130.078 388.178 130.093 388.118 130.092C388.073 130.093 388.028 130.084 387.987 130.066C387.946 130.048 387.908 130.021 387.877 129.986C387.844 129.952 387.819 129.911 387.802 129.866C387.785 129.821 387.777 129.772 387.778 129.723C387.778 129.655 387.791 129.588 387.816 129.525L387.894 129.35C387.921 129.277 387.935 129.198 387.933 129.119C387.935 128.997 387.898 128.878 387.829 128.781C387.754 128.679 387.652 128.603 387.537 128.562C387.411 128.518 387.281 128.49 387.149 128.479V131L387.192 131.028C387.597 131.257 387.965 131.555 388.281 131.909C388.422 132.086 388.533 132.288 388.611 132.506C388.688 132.716 388.728 132.941 388.729 133.167C388.733 133.46 388.661 133.749 388.523 134.002C388.387 134.248 388.188 134.448 387.95 134.578C387.699 134.71 387.428 134.794 387.149 134.827V135.578H386.956V134.841C386.675 134.838 386.397 134.777 386.138 134.661C385.879 134.558 385.651 134.383 385.477 134.154C385.323 133.948 385.241 133.693 385.242 133.43C385.237 133.245 385.29 133.064 385.393 132.916C385.433 132.852 385.488 132.799 385.552 132.763C385.615 132.726 385.686 132.707 385.759 132.706C385.802 132.705 385.845 132.712 385.886 132.729C385.926 132.746 385.962 132.772 385.993 132.805C386.024 132.838 386.048 132.877 386.064 132.92C386.08 132.963 386.087 133.009 386.086 133.056C386.071 133.198 386.016 133.331 385.927 133.438C385.88 133.503 385.84 133.574 385.808 133.649C385.786 133.708 385.775 133.77 385.776 133.833C385.777 134.001 385.831 134.164 385.929 134.295C386.036 134.442 386.178 134.556 386.34 134.624C386.525 134.701 386.722 134.739 386.921 134.735H386.955V131.724L386.71 131.572C386.478 131.428 386.3 131.308 386.178 131.212C386.059 131.12 385.949 131.015 385.849 130.899C385.602 130.617 385.465 130.244 385.466 129.857C385.465 129.616 385.521 129.379 385.63 129.168C385.736 128.957 385.892 128.78 386.082 128.654C386.346 128.483 386.647 128.386 386.955 128.373V128.373ZM386.955 128.474C386.789 128.48 386.624 128.519 386.471 128.589C386.318 128.67 386.192 128.801 386.111 128.962C386.019 129.137 385.971 129.336 385.974 129.537C385.972 129.782 386.043 130.022 386.175 130.223C386.246 130.331 386.33 130.429 386.426 130.513C386.581 130.637 386.744 130.75 386.913 130.853L386.955 130.881V128.474ZM387.149 134.725C387.26 134.716 387.37 134.691 387.475 134.652C387.56 134.616 387.64 134.566 387.711 134.504C387.844 134.383 387.947 134.229 388.011 134.055C388.085 133.863 388.123 133.656 388.122 133.448C388.105 133.114 388.006 132.791 387.835 132.511C387.665 132.231 387.428 132.004 387.149 131.853V134.725Z" fill="white"/>
<path d="M347.314 106.906H255.49C254.924 106.906 254.381 106.664 253.98 106.236C253.58 105.807 253.355 105.226 253.354 104.619V43.7907C253.355 43.1844 253.58 42.6032 253.98 42.1745C254.381 41.7458 254.924 41.5046 255.49 41.5039H347.314C347.88 41.5046 348.423 41.7458 348.823 42.1745C349.223 42.6032 349.448 43.1844 349.449 43.7907V104.619C349.448 105.226 349.223 105.807 348.823 106.236C348.423 106.664 347.88 106.906 347.314 106.906V106.906Z" fill="white"/>
<path d="M347.314 106.906H255.49C254.924 106.906 254.381 106.664 253.98 106.236C253.58 105.807 253.355 105.226 253.354 104.619V43.7907C253.355 43.1844 253.58 42.6032 253.98 42.1745C254.381 41.7458 254.924 41.5046 255.49 41.5039H347.314C347.88 41.5046 348.423 41.7458 348.823 42.1745C349.223 42.6032 349.448 43.1844 349.449 43.7907V104.619C349.448 105.226 349.223 105.807 348.823 106.236C348.423 106.664 347.88 106.906 347.314 106.906V106.906ZM255.49 42.4186C255.15 42.419 254.824 42.5637 254.584 42.8209C254.344 43.0782 254.209 43.4269 254.208 43.7907V104.619C254.209 104.983 254.344 105.332 254.584 105.589C254.824 105.846 255.15 105.991 255.49 105.991H347.314C347.653 105.991 347.979 105.846 348.219 105.589C348.459 105.332 348.595 104.983 348.595 104.619V43.7907C348.595 43.4269 348.459 43.0782 348.219 42.8209C347.979 42.5637 347.653 42.419 347.314 42.4186H255.49Z" fill="#3F3D56"/>
<path d="M329.163 61.8194H273.641C273.131 61.8194 272.643 61.6025 272.282 61.2166C271.922 60.8306 271.719 60.3071 271.719 59.7613C271.719 59.2154 271.922 58.6919 272.282 58.3059C272.643 57.92 273.131 57.7031 273.641 57.7031H329.163C329.672 57.7031 330.161 57.92 330.522 58.3059C330.882 58.6919 331.084 59.2154 331.084 59.7613C331.084 60.3071 330.882 60.8306 330.522 61.2166C330.161 61.6025 329.672 61.8194 329.163 61.8194V61.8194Z" fill="#CCCCCC"/>
<path d="M329.163 75.9971H273.641C273.131 75.9971 272.643 75.7803 272.282 75.3943C271.922 75.0083 271.719 74.4848 271.719 73.939C271.719 73.3931 271.922 72.8697 272.282 72.4837C272.643 72.0977 273.131 71.8809 273.641 71.8809H329.163C329.672 71.8809 330.161 72.0977 330.522 72.4837C330.882 72.8697 331.084 73.3931 331.084 73.939C331.084 74.4848 330.882 75.0083 330.522 75.3943C330.161 75.7803 329.672 75.9971 329.163 75.9971V75.9971Z" fill="#CCCCCC"/>
<path d="M324.216 98.4769C328.009 98.4769 331.084 95.1839 331.084 91.1217C331.084 87.0596 328.009 83.7666 324.216 83.7666C320.423 83.7666 317.348 87.0596 317.348 91.1217C317.348 95.1839 320.423 98.4769 324.216 98.4769Z" fill="#215CDD"/>
<path d="M324.405 87.6568V86.9561H324.598V87.6568C324.873 87.6696 325.142 87.7401 325.391 87.8643C325.571 87.9551 325.727 88.094 325.843 88.2677C325.95 88.4285 326.007 88.6212 326.006 88.8186C326.01 88.9629 325.965 89.1038 325.879 89.2151C325.842 89.2657 325.795 89.3066 325.741 89.3346C325.686 89.3626 325.627 89.3769 325.567 89.3764C325.522 89.3773 325.478 89.3684 325.436 89.3502C325.395 89.3319 325.357 89.3048 325.326 89.2704C325.294 89.2362 325.268 89.1952 325.251 89.15C325.234 89.1048 325.226 89.0563 325.227 89.0076C325.227 88.9394 325.24 88.8719 325.266 88.8094L325.343 88.6342C325.371 88.561 325.384 88.4825 325.382 88.4037C325.384 88.2815 325.348 88.1621 325.279 88.0649C325.203 87.9629 325.101 87.8868 324.986 87.8458C324.86 87.8017 324.73 87.7738 324.598 87.7628V90.2846L324.641 90.3122C325.046 90.5416 325.414 90.8389 325.731 91.1928C325.871 91.3706 325.982 91.5724 326.06 91.7899C326.137 92.0006 326.177 92.2249 326.178 92.4514C326.182 92.7445 326.11 93.0331 325.972 93.2858C325.836 93.5325 325.638 93.7325 325.399 93.8621C325.148 93.9941 324.877 94.0783 324.598 94.111V94.8625H324.405V94.1249C324.124 94.1225 323.846 94.0614 323.587 93.9451C323.328 93.8421 323.1 93.667 322.926 93.438C322.773 93.2326 322.69 92.9771 322.691 92.7142C322.686 92.5295 322.739 92.3483 322.842 92.2001C322.883 92.1361 322.937 92.0837 323.001 92.0472C323.065 92.0107 323.136 91.9912 323.208 91.9904C323.251 91.9887 323.294 91.9967 323.335 92.0136C323.375 92.0306 323.412 92.0563 323.442 92.0891C323.473 92.1219 323.497 92.1611 323.513 92.2042C323.529 92.2474 323.537 92.2936 323.535 92.34C323.52 92.4819 323.465 92.6154 323.376 92.7217C323.329 92.7876 323.29 92.8585 323.257 92.9334C323.235 92.9918 323.224 93.0543 323.225 93.1173C323.226 93.2855 323.28 93.4483 323.378 93.5795C323.485 93.7264 323.627 93.84 323.789 93.9083C323.974 93.9856 324.172 94.0232 324.37 94.0188H324.405V91.0084L324.159 90.8563C323.927 90.7119 323.75 90.592 323.628 90.4967C323.508 90.4041 323.398 90.2991 323.298 90.1832C323.051 89.901 322.914 89.5282 322.915 89.1413C322.914 88.9004 322.97 88.6632 323.079 88.4521C323.185 88.2415 323.341 88.0643 323.531 87.938C323.795 87.7672 324.096 87.6705 324.405 87.6568V87.6568ZM324.405 87.7582C324.238 87.7638 324.074 87.8028 323.92 87.8733C323.767 87.9546 323.641 88.0848 323.56 88.246C323.468 88.4214 323.421 88.6198 323.423 88.8211C323.421 89.0666 323.492 89.3065 323.625 89.5067C323.695 89.6156 323.779 89.7133 323.875 89.7967C324.031 89.9209 324.193 90.0346 324.362 90.1371L324.405 90.1648V87.7582ZM324.598 94.0096C324.709 93.9997 324.819 93.9749 324.924 93.9359C325.01 93.9005 325.089 93.8507 325.16 93.7883C325.293 93.6671 325.396 93.5128 325.46 93.3389C325.535 93.1469 325.573 92.9407 325.571 92.7326C325.554 92.3986 325.455 92.0754 325.285 91.7954C325.114 91.5153 324.877 91.2885 324.598 91.1375V94.0096Z" fill="white"/>
<path d="M156.963 97.8297C156.164 97.7678 155.361 97.8945 154.611 98.2008C153.862 98.5072 153.184 98.9857 152.627 99.6028C152.069 100.22 151.644 100.96 151.382 101.772C151.12 102.584 151.028 103.448 151.112 104.302L133.459 113.164L142.099 118.83L157.538 109.545C158.869 109.3 160.069 108.54 160.912 107.41C161.754 106.28 162.181 104.858 162.11 103.414C162.039 101.97 161.476 100.604 160.528 99.5748C159.579 98.5456 158.311 97.9246 156.963 97.8297V97.8297Z" fill="#FFB6B6"/>
<path d="M83.9158 268.342L90.0124 268.341L92.9128 243.159L83.9148 243.16L83.9158 268.342Z" fill="#FFB6B6"/>
<path d="M82.3608 266.209L94.3671 266.209H94.3676C96.3968 266.209 98.3428 267.072 99.7777 268.609C101.213 270.145 102.019 272.229 102.019 274.402V274.669L82.3612 274.67L82.3608 266.209Z" fill="#2F2E41"/>
<path d="M115.024 268.342L121.121 268.341L124.021 243.159L115.023 243.16L115.024 268.342Z" fill="#FFB6B6"/>
<path d="M113.469 266.209L125.476 266.209H125.476C127.505 266.209 129.451 267.072 130.886 268.609C132.321 270.145 133.127 272.229 133.128 274.402V274.669L113.47 274.67L113.469 266.209Z" fill="#2F2E41"/>
<path d="M119.097 137.729L122.191 144.863L127.769 208.663L123.433 263.5H113.291L101.323 177.064L95.7022 261.508L82.0175 260.917L79.3904 146.429L119.097 137.729Z" fill="#2F2E41"/>
<path d="M69.7865 78.8549L82.6153 73.2656L100.723 74.3531L116.82 80.6353L122.191 144.864C108.187 153.053 94.0003 155.289 79.5673 149.433L66.1721 107.599L69.7865 78.8549Z" fill="#E4E4E4"/>
<path d="M111.812 82.3334L117.505 80.6354C117.505 80.6354 121.811 77.6372 123.228 86.5497C124.644 95.4623 131.934 109.325 131.934 109.325L144.413 102.203L150.191 115.715L130.483 128.499L109.729 106.106L111.812 82.3334Z" fill="#E4E4E4"/>
<path d="M80.5849 61.3652C79.8936 59.6853 79.518 57.876 79.4796 56.0406C79.4412 54.2053 79.7408 52.3798 80.3612 50.6684C80.9816 48.957 81.9107 47.3933 83.0954 46.0664C84.2802 44.7395 85.6974 43.6756 87.2661 42.9352C88.8349 42.1949 90.5244 41.7927 92.2383 41.7516C93.9522 41.7104 95.6568 42.0312 97.255 42.6956C98.8531 43.36 100.313 44.355 101.552 45.6237C102.791 46.8924 103.785 48.4101 104.476 50.09L104.551 50.2749C105.925 53.679 105.979 57.5279 104.703 60.9751C104.071 62.6819 103.131 64.2388 101.937 65.5567C100.743 66.8746 99.3186 67.9278 97.7446 68.6562C94.5659 70.1271 90.9717 70.1856 87.7527 68.8187C84.5337 67.4518 81.9536 64.7715 80.58 61.3675L80.5849 61.3652Z" fill="#FFB6B6"/>
<path d="M98.3079 48.5714C101.022 49.0988 105.223 50.9288 107.554 48.7819C106.403 47.3412 104.955 46.2069 103.324 45.4682C103.003 45.3541 102.705 45.1741 102.448 44.9383C101.653 44.0781 102.267 42.596 101.904 41.433C101.727 41.0081 101.461 40.6328 101.126 40.3369C100.79 40.041 100.396 39.8324 99.9725 39.7277C99.1634 39.4685 98.3155 39.4264 97.5206 39.112C95.6396 38.355 94.3024 36.1884 92.3743 35.5997C90.6944 35.0794 89.004 35.8881 87.5542 36.8319C86.1044 37.7756 84.6702 38.8954 82.974 39.0745C81.7066 39.1983 80.9042 41.4309 79.6318 41.4963C76.9653 41.6352 77.1134 39.7532 76.9162 42.753C76.8023 44.5431 74.4138 48.1042 74.4526 49.9099C74.4921 51.0931 74.2966 52.2649 74.3282 53.4518C74.3999 55.7121 75.2465 57.8651 76.7063 59.4995C77.9203 60.8364 79.4993 61.7381 80.5211 63.2619C81.0526 64.0709 81.4212 65.0152 82.0398 65.7472C82.6584 66.4791 83.7062 66.9197 84.3967 66.3971C85.0871 65.8745 85.1 64.7435 85.4425 63.8829C85.6526 63.3553 86.0116 62.9113 86.4691 62.613C86.9267 62.3147 87.4599 62.1772 87.994 62.2196C88.5488 62.2973 89.0724 62.5392 89.5058 62.9181C89.9392 63.297 90.2653 63.7979 90.4474 64.3644C90.1241 62.4626 89.2718 60.6806 88.9479 58.7773C88.624 56.8739 89.0461 54.6003 90.5766 53.8571C91.2336 53.5297 92.1213 53.4417 92.3854 52.6872C92.5471 52.2327 92.3992 51.6957 92.4615 51.2042C92.7978 48.7954 96.538 48.1994 98.3079 48.5714Z" fill="#2F2E41"/>
<path d="M81.1052 148.69C80.9882 147.84 80.6987 147.028 80.257 146.311C79.8153 145.594 79.2322 144.99 78.5487 144.54C77.8652 144.091 77.0981 143.807 76.3012 143.71C75.5043 143.612 74.6972 143.703 73.9366 143.975L62.0305 127.442L58.739 137.703L70.5498 151.83C71.0621 153.168 72.0149 154.259 73.2277 154.894C74.4405 155.53 75.8289 155.668 77.13 155.281C78.4311 154.894 79.5544 154.009 80.2871 152.794C81.0197 151.58 81.3108 150.119 81.1052 148.69V148.69Z" fill="#FFB6B6"/>
<path d="M73.8988 81.9727L69.7864 78.8544C69.7864 78.8544 60.3784 78.2772 59.0097 86.5491L41.7588 116.939L63.1478 148.539L73.5177 136.849L60.4331 120.474L71.4191 98.8735L73.8988 81.9727Z" fill="#E4E4E4"/>
<path d="M174.09 86.7881H173.874V80.459C173.874 79.978 173.785 79.5016 173.614 79.0572C173.442 78.6128 173.19 78.2089 172.872 77.8688C172.554 77.5286 172.177 77.2588 171.762 77.0747C171.347 76.8906 170.902 76.7959 170.453 76.7959H157.932C157.482 76.7959 157.038 76.8906 156.623 77.0747C156.208 77.2588 155.831 77.5286 155.513 77.8688C155.195 78.2089 154.943 78.6128 154.771 79.0572C154.599 79.5016 154.511 79.978 154.511 80.459V115.181C154.511 115.662 154.599 116.138 154.771 116.583C154.943 117.027 155.195 117.431 155.513 117.771C155.831 118.111 156.208 118.381 156.623 118.565C157.038 118.749 157.482 118.844 157.932 118.844H170.453C170.902 118.844 171.347 118.749 171.762 118.565C172.177 118.381 172.554 118.111 172.872 117.771C173.19 117.431 173.442 117.027 173.614 116.583C173.785 116.138 173.874 115.662 173.874 115.181V91.2933H174.09V86.7881Z" fill="#3F3D56"/>
<path d="M170.591 77.749H168.957C169.032 77.9464 169.061 78.1605 169.04 78.3725C169.02 78.5845 168.951 78.7879 168.84 78.9648C168.729 79.1417 168.579 79.2866 168.404 79.3869C168.228 79.4871 168.032 79.5395 167.833 79.5395H160.66C160.461 79.5395 160.265 79.4871 160.089 79.3869C159.913 79.2866 159.763 79.1417 159.652 78.9648C159.541 78.7879 159.473 78.5845 159.452 78.3725C159.432 78.1605 159.461 77.9464 159.536 77.749H158.009C157.332 77.749 156.682 78.0372 156.203 78.5503C155.724 79.0633 155.455 79.7591 155.455 80.4846V115.156C155.455 115.881 155.724 116.577 156.203 117.09C156.682 117.603 157.332 117.891 158.009 117.891H170.591C171.269 117.891 171.919 117.603 172.398 117.09C172.877 116.577 173.146 115.881 173.146 115.156V80.4846C173.146 79.7591 172.877 79.0633 172.398 78.5503C171.919 78.0372 171.269 77.749 170.591 77.749Z" fill="#215CDD"/>
<path d="M283.536 65.4023H191.712C191.146 65.4016 190.603 65.1604 190.203 64.7317C189.803 64.303 189.578 63.7218 189.577 63.1155V2.2868C189.578 1.68052 189.803 1.09926 190.203 0.670553C190.603 0.241846 191.146 0.000693849 191.712 0H283.536C284.102 0.000693852 284.645 0.241846 285.046 0.670553C285.446 1.09926 285.671 1.68052 285.672 2.2868V63.1155C285.671 63.7218 285.446 64.303 285.046 64.7317C284.645 65.1604 284.102 65.4016 283.536 65.4023V65.4023Z" fill="white"/>
<path d="M283.536 65.4023H191.712C191.146 65.4016 190.603 65.1604 190.203 64.7317C189.803 64.303 189.578 63.7218 189.577 63.1155V2.2868C189.578 1.68052 189.803 1.09926 190.203 0.670553C190.603 0.241846 191.146 0.000693849 191.712 0H283.536C284.102 0.000693852 284.645 0.241846 285.046 0.670553C285.446 1.09926 285.671 1.68052 285.672 2.2868V63.1155C285.671 63.7218 285.446 64.303 285.046 64.7317C284.645 65.1604 284.102 65.4016 283.536 65.4023V65.4023ZM191.712 0.914718C191.373 0.915115 191.047 1.0598 190.807 1.31703C190.567 1.57426 190.431 1.92302 190.431 2.2868V63.1155C190.431 63.4793 190.567 63.828 190.807 64.0853C191.047 64.3425 191.373 64.4872 191.712 64.4876H283.536C283.876 64.4872 284.202 64.3425 284.442 64.0853C284.682 63.828 284.817 63.4793 284.818 63.1155V2.2868C284.817 1.92302 284.682 1.57426 284.442 1.31703C284.202 1.0598 283.876 0.915115 283.536 0.914718H191.712Z" fill="#3F3D56"/>
<path d="M265.385 20.3155H209.864C209.354 20.3155 208.865 20.0986 208.505 19.7127C208.144 19.3267 207.942 18.8032 207.942 18.2573C207.942 17.7115 208.144 17.188 208.505 16.802C208.865 16.4161 209.354 16.1992 209.864 16.1992H265.385C265.895 16.1992 266.384 16.4161 266.744 16.802C267.105 17.188 267.307 17.7115 267.307 18.2573C267.307 18.8032 267.105 19.3267 266.744 19.7127C266.384 20.0986 265.895 20.3155 265.385 20.3155V20.3155Z" fill="#CCCCCC"/>
<path d="M265.385 34.4932H209.864C209.354 34.4932 208.865 34.2764 208.505 33.8904C208.144 33.5044 207.942 32.9809 207.942 32.4351C207.942 31.8892 208.144 31.3657 208.505 30.9798C208.865 30.5938 209.354 30.377 209.864 30.377H265.385C265.895 30.377 266.384 30.5938 266.744 30.9798C267.105 31.3657 267.307 31.8892 267.307 32.4351C267.307 32.9809 267.105 33.5044 266.744 33.8904C266.384 34.2764 265.895 34.4932 265.385 34.4932Z" fill="#CCCCCC"/>
<path d="M260.439 56.973C264.232 56.973 267.307 53.68 267.307 49.6178C267.307 45.5557 264.232 42.2627 260.439 42.2627C256.645 42.2627 253.57 45.5557 253.57 49.6178C253.57 53.68 256.645 56.973 260.439 56.973Z" fill="#215CDD"/>
<path d="M260.627 46.1529V45.4521H260.821V46.1529C261.095 46.1657 261.364 46.2361 261.613 46.3603C261.794 46.4511 261.949 46.5901 262.065 46.7638C262.172 46.9246 262.229 47.1172 262.229 47.3147C262.233 47.459 262.188 47.5999 262.102 47.7112C262.065 47.7618 262.017 47.8027 261.963 47.8307C261.909 47.8587 261.85 47.873 261.79 47.8725C261.745 47.8734 261.7 47.8645 261.659 47.8463C261.617 47.828 261.58 47.8009 261.549 47.7665C261.516 47.7323 261.491 47.6913 261.474 47.6461C261.457 47.6009 261.448 47.5524 261.45 47.5037C261.45 47.4355 261.463 47.368 261.488 47.3055L261.566 47.1303C261.593 47.057 261.606 46.9786 261.605 46.8998C261.607 46.7776 261.57 46.6582 261.501 46.561C261.426 46.459 261.324 46.3829 261.209 46.3419C261.083 46.2978 260.953 46.2699 260.821 46.2589V48.7807L260.864 48.8083C261.269 49.0377 261.637 49.335 261.953 49.6889C262.094 49.8667 262.205 50.0685 262.283 50.286C262.36 50.4967 262.4 50.721 262.401 50.9474C262.405 51.2406 262.333 51.5292 262.194 51.7819C262.059 52.0286 261.86 52.2286 261.622 52.3582C261.37 52.4902 261.099 52.5744 260.821 52.6071V53.3586H260.627V52.621C260.346 52.6185 260.069 52.5575 259.809 52.4412C259.551 52.3382 259.323 52.1631 259.149 51.934C258.995 51.7287 258.912 51.4732 258.914 51.2103C258.909 51.0256 258.962 50.8444 259.065 50.6961C259.105 50.6322 259.16 50.5798 259.224 50.5433C259.287 50.5067 259.358 50.4873 259.431 50.4865C259.474 50.4848 259.517 50.4927 259.557 50.5097C259.598 50.5267 259.634 50.5524 259.665 50.5852C259.696 50.618 259.72 50.6572 259.736 50.7003C259.752 50.7435 259.759 50.7897 259.758 50.8361C259.743 50.978 259.687 51.1115 259.598 51.2178C259.552 51.2837 259.512 51.3546 259.48 51.4295C259.458 51.4879 259.447 51.5504 259.448 51.6134C259.449 51.7815 259.502 51.9444 259.601 52.0756C259.708 52.2225 259.85 52.3361 260.012 52.4044C260.197 52.4817 260.394 52.5193 260.593 52.5149H260.627V49.5045L260.382 49.3523C260.149 49.2079 259.972 49.0881 259.85 48.9927C259.731 48.9002 259.621 48.7952 259.521 48.6793C259.274 48.3971 259.137 48.0243 259.138 47.6374C259.137 47.3965 259.193 47.1593 259.301 46.9482C259.408 46.7376 259.564 46.5604 259.753 46.4341C260.018 46.2633 260.319 46.1665 260.627 46.1529ZM260.627 46.2543C260.461 46.2599 260.296 46.2989 260.143 46.3694C259.99 46.4507 259.864 46.5809 259.783 46.7421C259.691 46.9175 259.643 47.1159 259.646 47.3172C259.644 47.5627 259.714 47.8026 259.847 48.0028C259.917 48.1117 260.002 48.2094 260.098 48.2928C260.253 48.417 260.416 48.5306 260.585 48.6332L260.627 48.6609V46.2543ZM260.821 52.5057C260.932 52.4958 261.042 52.471 261.147 52.4319C261.232 52.3966 261.312 52.3468 261.383 52.2844C261.515 52.1632 261.618 52.0089 261.683 51.835C261.757 51.643 261.795 51.4368 261.794 51.2287C261.777 50.8947 261.678 50.5715 261.507 50.2915C261.336 50.0114 261.1 49.7845 260.821 49.6336V52.5057Z" fill="white"/>
<path d="M187.407 275H0.490595C0.360481 275 0.235696 274.945 0.143692 274.846C0.0516871 274.748 0 274.614 0 274.475C0 274.335 0.0516871 274.202 0.143692 274.103C0.235696 274.005 0.360481 273.949 0.490595 273.949H187.407C187.537 273.949 187.662 274.005 187.754 274.103C187.846 274.202 187.898 274.335 187.898 274.475C187.898 274.614 187.846 274.748 187.754 274.846C187.662 274.945 187.537 275 187.407 275Z" fill="#CACACA"/>
</g>
<defs>
<clipPath id="clip0_198_7396">
<rect width="412" height="275" fill="white"/>
</clipPath>
</defs>
</svg>
