<svg width="500" height="349" viewBox="0 0 500 349" fill="none" xmlns="http://www.w3.org/2000/svg">
<g clip-path="url(#clip0_266_1681)">
<path d="M62.2933 309.983L70.0274 310.166L67.106 333.711L61.8652 333.588L62.2933 309.983Z" fill="#FFB6B6"/>
<path d="M79.8462 344.521L79.8461 344.521C79.8461 343.882 79.5136 343.304 78.9998 343.05L73.2277 340.199L69.2924 331.072L69.2328 321.876L61.1237 320.923L59.951 326.781C59.951 326.781 62.3657 326.42 59.3844 329.008C56.4031 331.597 57.8387 336.66 57.8387 336.66L57.1885 346.124H62.5548L62.8428 340.238C67.0166 342.009 68.0403 346.124 68.0403 346.124H78.4428C79.2179 346.124 79.8462 345.407 79.8462 344.521H79.8462H79.8462Z" fill="#2F2E41"/>
<path d="M73.6223 310.242L81.3564 310.425L78.4351 333.97L73.1943 333.846L73.6223 310.242Z" fill="#FFB6B6"/>
<path d="M91.1753 344.78H91.1752C91.1752 344.141 90.8427 343.562 90.3289 343.309L84.5568 340.457L80.6215 331.33L80.5619 322.135L72.4528 321.182L71.2801 327.039C71.2801 327.039 73.6948 326.679 70.7135 329.267C67.7322 331.856 69.1678 336.919 69.1678 336.919L68.5176 346.383H73.8839L74.1719 340.497C78.3457 342.268 79.3694 346.383 79.3694 346.383H89.7719C90.547 346.383 91.1753 345.665 91.1753 344.78L91.1753 344.78H91.1753Z" fill="#2F2E41"/>
<path d="M64.7537 172.138L55.9859 193.073C53.0632 200.052 52.137 207.705 53.3106 215.179L57.572 318.027H74.4201L81.7741 226.441L83.2253 262.618L66.359 314.163H82.9476L104.24 262.618L105.819 222.929L98.2542 192.13L64.7537 172.138L64.7537 172.138Z" fill="#2F2E41"/>
<path d="M302.285 82.5579V30.2653C302.285 13.5502 288.735 4.22041e-09 272.02 4.22041e-09H161.229C144.514 -0.00027613 130.963 13.5498 130.963 30.2648V317.146C130.963 333.861 144.513 347.411 161.228 347.411H272.018C288.734 347.411 302.284 333.861 302.284 317.146V119.781H302.284C303.337 119.781 304.19 118.927 304.19 117.874L304.192 84.4643C304.192 83.4114 303.338 82.5579 302.285 82.5579L302.285 82.5579V82.5579Z" fill="#3F3D56"/>
<path d="M296.602 27.7485V318.682C278.914 317.596 287.911 340.901 273.655 341.633H160.591C147.913 341.635 137.634 331.36 137.63 318.682V27.7485C137.634 15.0709 147.913 4.79623 160.59 4.79785H168.929C166.658 10.3819 184.984 12.1987 186.389 12.2005H244.294C250.323 12.1929 264.866 6.09927 264.337 4.79785H273.651C286.324 4.80002 296.597 15.0714 296.602 27.7441L296.602 27.7485H296.602Z" fill="white"/>
<path d="M130.071 88.9629C129.265 88.9629 128.609 89.6186 128.609 90.4249V102.121C128.609 102.927 129.265 103.583 130.071 103.583C130.878 103.583 131.533 102.927 131.533 102.121V90.4249C131.533 89.6186 130.878 88.9629 130.071 88.9629Z" fill="#3F3D56"/>
<path d="M130.071 124.051C129.265 124.051 128.609 124.706 128.609 125.513V148.174C128.609 148.98 129.265 149.636 130.071 149.636C130.878 149.636 131.533 148.98 131.533 148.174V125.513C131.533 124.706 130.878 124.051 130.071 124.051Z" fill="#3F3D56"/>
<path d="M130.071 156.215C129.265 156.215 128.609 156.871 128.609 157.677V180.338C128.609 181.144 129.265 181.8 130.071 181.8C130.878 181.8 131.533 181.144 131.533 180.338V157.677C131.533 156.871 130.878 156.215 130.071 156.215Z" fill="#3F3D56"/>
<path d="M474.91 328.919L467.973 333.671L446.34 309.173L456.579 302.159L474.91 328.919Z" fill="#FFB6B6"/>
<path d="M451.034 345.045C451.067 345.557 451.758 346.809 452.047 347.233C452.938 348.533 454.715 348.865 456.015 347.974L477.5 333.255C478.387 332.647 478.613 331.435 478.005 330.548L477.393 329.654C477.393 329.654 476.614 326.237 472.155 324.423C472.155 324.423 471.213 328.881 464.366 327.601L461.68 326.251L457.352 338.538L452.949 342.424C451.986 343.274 450.951 343.763 451.034 345.045L451.034 345.045L451.034 345.045Z" fill="#2F2E41"/>
<path d="M423.76 341.535L415.351 341.534L411.351 309.098L421.644 310.379L423.76 341.535Z" fill="#FFB6B6"/>
<path d="M394.949 341.344C394.687 341.785 394.549 343.209 394.549 343.721C394.549 345.298 395.827 346.576 397.403 346.576H423.446C424.521 346.576 425.393 345.704 425.393 344.628V343.544C425.393 343.544 426.681 340.285 424.029 336.269C424.029 336.269 420.732 339.414 415.806 334.488L414.354 331.856L403.839 339.547L398.01 340.264C396.735 340.421 395.605 340.24 394.949 341.344H394.949V341.344Z" fill="#2F2E41"/>
<path d="M394.276 218.267L394.909 225.916L393.649 231.998L395.943 238.411L398.748 272.317L413.367 330.774L424.53 333.124L419.171 274.732L423.328 226.568L394.276 218.267Z" fill="#2F2E41"/>
<path d="M441.713 185.06L399.02 185.652L394.276 218.264L423.329 231.903L422.402 278.479L454.758 325.316L471.99 315.47L443.114 275.695L451.2 209.37L441.713 185.06H441.713Z" fill="#2F2E41"/>
<path d="M410.109 108.39L402.577 118.056L406.135 192.175L434.004 191.582L438.747 126.951L432.818 110.348L430.672 106.627L428.107 101.81L411.656 102.985L410.109 108.39H410.109V108.39Z" fill="#E6E6E6"/>
<path d="M398.987 154.226L400.493 169.375L398.642 186.806L396.329 191.532L391.041 210.332C391.041 210.332 385.645 218.554 397.504 219.145C409.363 219.736 448.234 215.89 448.234 215.89C448.234 215.89 453.081 215.77 450.969 205.632C447.557 199.769 449.757 191.506 449.757 191.506L445.27 174.976L446.455 159.559L454.757 119.238C447.384 113.445 439.126 109.298 430.149 106.489L422.287 127.164L410.58 108.268L406.133 111.53C400.135 113.102 394.856 115.521 390.681 119.238L398.987 154.226Z" fill="#2F2E41"/>
<path d="M258.242 118.262H174.559C168.823 118.256 164.174 113.607 164.168 107.871V71.9004C164.174 66.1644 168.823 61.516 174.559 61.5095C201.262 54.1115 229.268 54.8047 258.242 61.5095C263.978 61.5163 268.626 66.1646 268.633 71.9004V107.871C268.626 113.607 263.978 118.255 258.242 118.262H258.242Z" fill="#F2F2F2"/>
<path d="M266.768 155.961H166.034C165.005 155.96 164.17 155.126 164.169 154.096V129.109C164.17 128.079 165.005 127.244 166.034 127.243H266.768C267.798 127.244 268.632 128.079 268.634 129.109V154.096C268.632 155.126 267.798 155.96 266.768 155.962V155.961ZM166.034 127.989C165.416 127.99 164.916 128.491 164.915 129.109V154.096C164.916 154.714 165.416 155.215 166.034 155.216H266.768C267.386 155.215 267.887 154.714 267.887 154.096V129.109C267.887 128.491 267.386 127.99 266.768 127.989H166.034Z" fill="#E6E6E6"/>
<path d="M197.187 136.377C196.466 136.392 195.893 136.989 195.909 137.71C195.923 138.41 196.487 138.974 197.187 138.988H258.746C259.467 139.016 260.073 138.454 260.101 137.733C260.129 137.012 259.567 136.406 258.846 136.378H197.187V136.377Z" fill="#E6E6E6"/>
<path d="M197.187 144.214C196.466 144.229 195.893 144.826 195.909 145.547C195.923 146.247 196.487 146.811 197.187 146.825H258.746C259.467 146.853 260.073 146.291 260.101 145.57C260.129 144.849 259.567 144.243 258.846 144.215H197.187V144.214Z" fill="#E6E6E6"/>
<path d="M179.895 146.826C182.779 146.826 185.118 144.487 185.118 141.603C185.118 138.718 182.779 136.379 179.895 136.379C177.01 136.379 174.671 138.718 174.671 141.603C174.671 144.487 177.01 146.826 179.895 146.826Z" fill="#E6E6E6"/>
<path d="M266.768 278.61H166.034C165.005 278.609 164.17 277.774 164.169 276.744V251.757C164.17 250.727 165.005 249.893 166.034 249.892H266.768C267.798 249.893 268.632 250.727 268.634 251.757V276.745C268.632 277.774 267.798 278.609 266.768 278.61V278.61ZM166.034 250.638C165.416 250.638 164.916 251.139 164.915 251.757V276.745C164.916 277.363 165.416 277.863 166.034 277.864L255.325 276.984C255.943 276.983 265.312 273.489 265.313 272.871L267.887 251.757C267.887 251.139 267.386 250.638 266.768 250.638H166.034Z" fill="#E6E6E6"/>
<path d="M197.187 262.75C196.466 262.735 195.869 263.307 195.854 264.028C195.839 264.75 196.411 265.347 197.132 265.362C197.15 265.362 197.169 265.362 197.187 265.362H258.746C259.467 265.389 260.074 264.827 260.102 264.107C260.129 263.386 259.567 262.779 258.846 262.751H197.187V262.75V262.75Z" fill="#E6E6E6"/>
<path d="M179.895 269.475C182.779 269.475 185.118 267.136 185.118 264.251C185.118 261.366 182.779 259.027 179.895 259.027C177.01 259.027 174.671 261.366 174.671 264.251C174.671 267.136 177.01 269.475 179.895 269.475Z" fill="#E6E6E6"/>
<path d="M266.768 226.908H166.034C165.005 226.907 164.17 226.073 164.169 225.043V200.056C164.17 199.026 165.005 198.192 166.034 198.19H266.768C267.798 198.192 268.632 199.026 268.634 200.056V225.044C268.632 226.073 267.798 226.908 266.768 226.909V226.908ZM166.034 198.937C165.416 198.937 164.916 199.438 164.915 200.056V225.044C164.916 225.662 165.416 226.162 166.034 226.163L255.325 225.283C255.943 225.282 265.312 221.788 265.313 221.17L267.887 200.056C267.887 199.438 267.386 198.937 266.768 198.937H166.034Z" fill="#E6E6E6"/>
<path d="M197.187 211.049C196.466 211.034 195.869 211.606 195.854 212.327C195.839 213.048 196.411 213.645 197.132 213.661C197.15 213.661 197.169 213.661 197.187 213.661H258.746C259.467 213.688 260.074 213.126 260.102 212.405C260.129 211.685 259.567 211.078 258.846 211.05H197.187V211.049V211.049Z" fill="#E6E6E6"/>
<path d="M179.895 217.773C182.779 217.773 185.118 215.435 185.118 212.55C185.118 209.665 182.779 207.326 179.895 207.326C177.01 207.326 174.671 209.665 174.671 212.55C174.671 215.435 177.01 217.773 179.895 217.773Z" fill="#E6E6E6"/>
<path d="M418.414 101.124C426.542 101.124 433.131 94.5354 433.131 86.4074C433.131 78.2795 426.542 71.6904 418.414 71.6904C410.286 71.6904 403.697 78.2795 403.697 86.4074C403.697 94.5354 410.286 101.124 418.414 101.124Z" fill="#FFB6B6"/>
<path d="M429.224 98.4991C430.034 98.6373 430.986 96.6724 431.895 94.7587C433.799 90.7526 435.009 88.206 435.101 84.6062C435.18 81.5382 434.327 82.3434 433.498 75.5224C433.225 73.2726 429.381 73.277 428.599 72.2087C427.278 70.4042 429.305 69.66 426.017 68.576C419.86 66.5456 417.075 69.6997 413.164 69.9714C413.066 69.9783 411.127 71.8742 410.044 71.9723C408.147 72.144 405.411 71.8486 404.184 68.9583C403.037 66.2559 402.277 74.1529 403.302 75.1302C404.173 75.96 405.674 78.0426 405.713 78.1941C405.756 78.3655 402.142 74.3621 401.539 76.0119C401.104 77.1992 402.471 83.3079 403.575 83.5375C404.498 83.7295 406.756 80.6864 406.247 81.9345C405.065 84.8289 412.169 86.6757 420.674 80.8658C420.976 80.6598 420.691 80.9884 421.743 83.5375C423.07 86.7526 423.369 86.9267 423.346 87.8122C423.296 89.7291 421.856 90.2936 422.277 91.5526C422.618 92.5724 423.949 93.3618 424.949 93.1556C426.076 92.9229 426.27 91.5278 427.086 91.5526C427.785 91.5739 428.615 92.6271 428.689 93.69C428.845 95.9293 425.53 96.5452 424.949 99.5677C424.621 101.274 428.479 98.3721 429.224 98.4991Z" fill="#2F2E41"/>
<path d="M462.529 216.136C462.593 214.488 462.261 212.848 461.561 211.355L463.077 194.18L454.881 193.698L454.226 211.175C453.453 212.632 453.04 214.253 453.021 215.902C452.919 220.028 454.964 223.425 457.588 223.491C460.213 223.556 462.425 220.265 462.528 216.14L462.529 216.136Z" fill="#FFB6B6"/>
<path d="M445.094 146.88L451.557 166.855L453.412 207.653L464.231 207.432L465.07 162.743C465.07 162.743 459.678 129.721 457.873 122.299C456.068 114.877 439.421 117.627 439.421 117.627L445.094 146.88V146.88V146.88Z" fill="#2F2E41"/>
<path d="M177.032 94.8004C180.088 95.8151 183.293 96.8424 186.555 96.669C188.04 96.5901 189.468 96.2361 190.815 95.6064C192.196 94.9604 193.458 94.0834 194.856 93.4714C199.994 91.2226 205.09 95.0644 209.882 96.5063C212.273 97.2257 214.787 97.3979 217.125 96.3959C219.709 95.2888 221.658 93.1761 223.785 91.4122C228.555 87.4574 234.778 85.3252 240.969 85.4864C247.76 85.6632 254.333 88.6627 259.01 93.5691C259.402 93.9804 260.024 93.3566 259.633 92.9459C255.546 88.6581 250.039 85.7673 244.174 84.8913C238.297 84.0134 232.196 85.1864 227.029 88.1131C224.414 89.5941 222.317 91.6214 220.013 93.5133C217.77 95.3557 215.276 96.543 212.319 96.1514C207.224 95.4768 202.841 91.5508 197.557 91.9068C194.182 92.1341 191.772 94.6733 188.596 95.4827C184.807 96.4485 180.848 95.1395 177.267 93.9506C176.727 93.7715 176.496 94.6222 177.032 94.8004L177.032 94.8004V94.8004Z" fill="#3F3D56"/>
<path d="M186.597 99.4963C188.4 99.4963 189.862 98.0348 189.862 96.232C189.862 94.4292 188.4 92.9678 186.597 92.9678C184.794 92.9678 183.333 94.4292 183.333 96.232C183.333 98.0348 184.794 99.4963 186.597 99.4963Z" fill="#EA8A54"/>
<path d="M214.778 99.6408C216.581 99.6408 218.042 98.1794 218.042 96.3766C218.042 94.5738 216.581 93.1123 214.778 93.1123C212.975 93.1123 211.514 94.5738 211.514 96.3766C211.514 98.1794 212.975 99.6408 214.778 99.6408Z" fill="#EA8A54"/>
<path d="M243.396 88.5676C245.199 88.5676 246.66 87.1061 246.66 85.3033C246.66 83.5005 245.199 82.0391 243.396 82.0391C241.593 82.0391 240.132 83.5005 240.132 85.3033C240.132 87.1061 241.593 88.5676 243.396 88.5676Z" fill="#EA8A54"/>
<path d="M53.9853 198.552C44.3341 226.032 56.6307 247.681 54.0789 233.716C51.9463 222.044 88.2859 186.529 99.2243 193.852C98.9952 192.667 92.0425 171.299 91.361 171.2C92.3145 168.799 90.9855 168.776 90.9315 167.546C90.7247 162.794 91.8292 157.861 93.9807 152.784C95.3908 148.862 95.4154 145.492 94.0489 142.775C92.873 140.541 90.8976 138.834 88.5174 137.994L81.3496 129.338C79.4825 127.085 76.7288 122.223 73.8029 122.241L58.0968 121.68C57.6479 121.41 52.1329 126.153 46.7629 128.48C40.9388 131.006 42.1403 137.901 42.155 137.99L42.1685 138.072L42.2325 138.131L50.7933 163.328L58.528 170.577C58.1362 171.713 58.2343 172.566 58.9681 173.056C57.9146 173.835 53.2285 197.148 53.9853 197.965V198.552L53.9853 198.552Z" fill="#EA8A54"/>
<path d="M134.69 148.684C133.522 149.15 132.482 149.889 131.659 150.839L119.221 155.102L121.423 160.961L133.802 156.005C135.057 156.093 136.314 155.879 137.469 155.382C140.376 154.175 142.11 151.698 141.342 149.849C140.574 147.999 137.596 147.478 134.69 148.684V148.684Z" fill="#FFB6B6"/>
<path d="M68.3408 129.881L96.7151 168.182L129.975 159.022L128.529 150.346L103.203 155.143L89.0732 133.421C84.4594 124.502 75.3658 122.706 68.3408 129.881V129.881Z" fill="#EA8A54"/>
<path d="M272.131 323.011H259.183C256.922 323.011 255.082 321.171 255.082 318.91C252.627 312.241 252.318 306.259 255.082 301.262C255.082 299.001 256.922 297.161 259.183 297.161C263.012 294.383 267.476 295.227 272.131 297.161C274.393 297.161 276.233 299.001 276.233 301.262C274.661 306.916 274.775 312.816 276.233 318.91C276.233 321.171 274.393 323.011 272.131 323.011Z" fill="#EA8A54"/>
<path d="M270.879 305.015H260.421C260.06 305.015 259.768 304.723 259.768 304.362C259.768 304.001 260.06 303.708 260.421 303.708H270.879C271.24 303.708 271.533 304.001 271.533 304.362C271.533 304.723 271.24 305.015 270.879 305.015Z" fill="white"/>
<path d="M270.879 310.243H260.421C260.06 310.243 259.768 309.95 259.768 309.589C259.768 309.228 260.06 308.936 260.421 308.936H270.879C271.24 308.936 271.533 309.228 271.533 309.589C271.533 309.95 271.24 310.243 270.879 310.243Z" fill="white"/>
<path d="M270.879 315.471H260.421C260.06 315.471 259.768 315.179 259.768 314.818C259.768 314.457 260.06 314.164 260.421 314.164H270.879C271.24 314.164 271.533 314.457 271.533 314.818C271.533 315.179 271.24 315.471 270.879 315.471Z" fill="white"/>
<path d="M500 346.772H0V347.761H500V346.772Z" fill="#E6E6E6"/>
<path d="M390.233 214.766C390.658 218.871 393.121 221.979 395.732 221.709C398.344 221.438 400.117 217.892 399.692 213.787C399.545 212.144 399.006 210.56 398.121 209.168L396.103 191.796L387.97 192.916L390.823 209.921C390.242 211.464 390.039 213.124 390.232 214.762L390.233 214.766Z" fill="#FFB6B6"/>
<path d="M402.201 144.355L405.572 114.749C405.572 114.749 388.761 113.308 387.541 120.848C386.321 128.388 383.526 161.731 383.526 161.731L387.855 206.218L398.658 205.593L397.319 164.775L402.201 144.355V144.355Z" fill="#2F2E41"/>
<path d="M77.4614 118.419L54.7484 120.487L54.0781 96.8803L78.8225 96.1777L77.4614 118.419Z" fill="#2F2E41"/>
<path d="M65.9765 115.25C72.5596 115.25 77.8963 109.913 77.8963 103.33C77.8963 96.7468 72.5596 91.4102 65.9765 91.4102C59.3933 91.4102 54.0566 96.7468 54.0566 103.33C54.0566 109.913 59.3933 115.25 65.9765 115.25Z" fill="#FFB6B6"/>
<path d="M75.5653 91.7156C75.4813 88.7579 71.8011 88.4377 68.9337 87.7077L66.3335 86.3583C63.7813 85.7086 61.0735 86.1656 58.8758 87.6168L51.9425 91.817C48.8293 93.8728 48.3348 97.1956 47.0688 100.705L44.7775 105.842C43.5312 109.297 45.1781 113.874 46.4378 117.324L46.9657 118.769L46.1403 123.5L60.589 122.825L61.8733 115.522L59.4069 112.75C58.5318 111.766 58.4609 110.305 59.2364 109.241H59.2365C62.0264 105.414 61.5093 100.051 61.5093 100.051L65.0401 101.977C67.36 102.294 69.4274 102.259 71.2464 101.879C73.2469 101.461 74.947 100.625 76.3522 99.3787L77.611 103.613C77.9353 108.882 76.9506 110.281 72.2537 115.435L80.4902 120.606L80.1856 117.808C79.461 111.151 81.6702 105.902 81.3605 100.484C81.1463 96.7378 78.9183 93.4001 75.5653 91.7156H75.5653H75.5653Z" fill="#2F2E41"/>
<path d="M77.5377 192.225C76.3739 191.749 75.1131 191.558 73.8605 191.668L61.9534 186.092L59.4658 191.835L71.812 196.874C72.6532 197.808 73.706 198.528 74.8824 198.973C77.8107 200.125 80.7795 199.549 81.5121 197.685C82.2446 195.821 80.4659 193.377 77.5377 192.225H77.5377Z" fill="#FFB6B6"/>
<path d="M42.8901 132.6L36.6807 179.859L66.9636 196.384L71.953 189.14L50.4063 174.991L55.3396 149.552C58.219 139.932 52.9276 132.321 42.8905 132.599L42.8901 132.6Z" fill="#EA8A54"/>
</g>
<defs>
<clipPath id="clip0_266_1681">
<rect width="500" height="348.474" fill="white"/>
</clipPath>
</defs>
</svg>
