<svg width="556" height="380" viewBox="0 0 556 380" fill="none" xmlns="http://www.w3.org/2000/svg">
<g clip-path="url(#clip0_242_1533)">
<path d="M496.01 363.771L505.153 364.026C507.711 359.717 509.238 354.812 509.602 349.735C503.743 356.319 493.409 354.665 485.843 358.859C483.492 360.186 481.453 362.057 479.878 364.332C478.302 366.608 477.23 369.23 476.74 372.005L472.971 377.599C477.138 378.719 481.485 378.868 485.712 378.035C489.939 377.203 493.946 375.409 497.456 372.778C499.411 371.281 501.18 369.529 502.723 367.563C499.331 365.901 496.01 363.771 496.01 363.771Z" fill="#F2F2F2"/>
<path d="M490.974 349.017L499.265 344.923C499.741 339.858 499.044 334.745 497.233 330.03C494.76 338.692 484.815 342.096 479.807 349.426C478.261 351.725 477.224 354.363 476.771 357.145C476.319 359.926 476.462 362.78 477.192 365.495L476.172 372.284C480.373 371.316 484.326 369.395 487.759 366.652C491.193 363.909 494.024 360.41 496.058 356.395C497.178 354.131 498.025 351.727 498.578 349.239C494.843 349.353 490.974 349.017 490.974 349.017Z" fill="#F2F2F2"/>
<path d="M477.367 372.569H471.759L469.092 349.645H477.368L477.367 372.569Z" fill="#A0616A"/>
<path d="M477.218 370.627L471.234 368.051L471.058 367.975L467.754 370.627C465.941 370.627 464.197 371.369 462.888 372.698C461.578 374.027 460.803 375.841 460.725 377.76C460.716 377.866 460.716 377.976 460.716 378.087V378.331H478.797V370.627L477.218 370.627Z" fill="#2F2E41"/>
<path d="M466.688 360.714L461.855 363.728L448.586 345.404L455.719 340.956L466.688 360.714Z" fill="#A0616A"/>
<path d="M470.026 363.734L469.369 362.549L466.993 358.271L465.758 359.043L465.631 359.12L459.24 360.117L459.05 360.146L457.475 364.209C456.678 364.706 455.981 365.364 455.425 366.146C454.868 366.928 454.462 367.819 454.23 368.767C453.998 369.715 453.944 370.703 454.072 371.673C454.201 372.643 454.508 373.577 454.977 374.422L455.094 374.628L470.678 364.91L470.026 363.734Z" fill="#2F2E41"/>
<path d="M484.469 232.422C487.099 240.826 486.821 249.949 483.837 259.739L483.059 293.397L480.558 314.628C482.066 318.788 482.84 323.206 482.84 327.663C482.83 339.344 482.089 355.94 478.331 363.736H469.44L467.432 329.019L465.037 311.563L464.742 292.859L464.484 276.545L454.816 291.529L445.422 306.089L454.759 322.783L462.906 349.645L454.307 357.321L444.551 337.719L439.823 331.897L426.917 302.285L428.077 298.162C430.466 289.671 433.935 281.565 438.388 274.067V274.067L451.226 242.488L484.469 232.422Z" fill="#2F2E41"/>
<path d="M336.372 238.701H159.924C158.516 238.7 157.167 238.106 156.171 237.051C155.175 235.996 154.615 234.565 154.614 233.073V90.1233C154.615 88.6311 155.175 87.2005 156.171 86.1454C157.167 85.0903 158.516 84.4968 159.924 84.4951H336.372C337.78 84.4968 339.13 85.0903 340.125 86.1454C341.121 87.2005 341.681 88.6311 341.682 90.1233V233.073C341.681 234.565 341.121 235.996 340.125 237.051C339.13 238.106 337.78 238.7 336.372 238.701Z" fill="white"/>
<path d="M336.372 239.4H159.925C158.342 239.398 156.825 238.731 155.706 237.545C154.587 236.359 153.957 234.751 153.956 233.073V90.1237C153.957 88.4466 154.587 86.8386 155.706 85.6527C156.825 84.4668 158.342 83.7997 159.925 83.7979H336.372C337.954 83.7997 339.471 84.4668 340.59 85.6527C341.709 86.8386 342.339 88.4466 342.341 90.1237V233.073C342.339 234.751 341.709 236.359 340.59 237.545C339.471 238.731 337.954 239.398 336.372 239.4ZM159.925 85.1934C158.691 85.1948 157.509 85.7147 156.637 86.639C155.764 87.5633 155.274 88.8165 155.272 90.1237V233.073C155.274 234.381 155.764 235.634 156.636 236.558C157.509 237.483 158.691 238.003 159.925 238.004H336.372C337.605 238.003 338.788 237.483 339.66 236.558C340.532 235.634 341.023 234.381 341.024 233.073V90.1237C341.023 88.8165 340.532 87.5633 339.66 86.639C338.788 85.7147 337.605 85.1948 336.372 85.1934H159.925Z" fill="#F0F0F0"/>
<path d="M155.021 211.489V233.074C155.023 234.451 155.541 235.772 156.46 236.746C157.379 237.72 158.625 238.268 159.924 238.27H336.372C337.672 238.268 338.918 237.72 339.837 236.746C340.756 235.772 341.273 234.451 341.275 233.074V211.489H155.021Z" fill="#F0F0F0"/>
<path d="M156.684 85.406L155.974 86.5811L340.92 212.076L341.63 210.901L156.684 85.406Z" fill="#F0F0F0"/>
<path d="M459.445 25.5048H43.1481C42.9733 25.5008 42.807 25.4243 42.6848 25.2919C42.5626 25.1595 42.4941 24.9816 42.4941 24.7964C42.4941 24.6111 42.5626 24.4332 42.6848 24.3008C42.807 24.1684 42.9733 24.092 43.1481 24.0879H459.445C459.62 24.092 459.786 24.1684 459.909 24.3008C460.031 24.4332 460.099 24.6111 460.099 24.7964C460.099 24.9816 460.031 25.1595 459.909 25.2919C459.786 25.4243 459.62 25.5008 459.445 25.5048V25.5048Z" fill="#CACACA"/>
<path d="M57.8657 15.5864C61.8382 15.5864 65.0585 12.0973 65.0585 7.79322C65.0585 3.48914 61.8382 0 57.8657 0C53.8932 0 50.6729 3.48914 50.6729 7.79322C50.6729 12.0973 53.8932 15.5864 57.8657 15.5864Z" fill="#3F3D56"/>
<path d="M82.7138 15.5864C86.6863 15.5864 89.9066 12.0973 89.9066 7.79322C89.9066 3.48914 86.6863 0 82.7138 0C78.7413 0 75.521 3.48914 75.521 7.79322C75.521 12.0973 78.7413 15.5864 82.7138 15.5864Z" fill="#3F3D56"/>
<path d="M107.561 15.5864C111.534 15.5864 114.754 12.0973 114.754 7.79322C114.754 3.48914 111.534 0 107.561 0C103.589 0 100.369 3.48914 100.369 7.79322C100.369 12.0973 103.589 15.5864 107.561 15.5864Z" fill="#3F3D56"/>
<path d="M444.555 1.93164H426.904C426.555 1.939 426.221 2.09147 425.976 2.35631C425.731 2.62115 425.594 2.97723 425.594 3.34811C425.594 3.71898 425.731 4.07506 425.976 4.3399C426.221 4.60474 426.555 4.75721 426.904 4.76457H444.555C444.905 4.75721 445.238 4.60474 445.483 4.3399C445.728 4.07506 445.865 3.71898 445.865 3.34811C445.865 2.97723 445.728 2.62115 445.483 2.35631C445.238 2.09147 444.905 1.939 444.555 1.93164V1.93164Z" fill="#3F3D56"/>
<path d="M444.555 7.24902H426.904C426.555 7.25638 426.221 7.40886 425.976 7.67369C425.731 7.93853 425.594 8.29461 425.594 8.66549C425.594 9.03636 425.731 9.39245 425.976 9.65728C426.221 9.92212 426.555 10.0746 426.904 10.082H444.555C444.905 10.0746 445.238 9.92212 445.483 9.65728C445.728 9.39245 445.865 9.03636 445.865 8.66549C445.865 8.29461 445.728 7.93853 445.483 7.67369C445.238 7.40886 444.905 7.25638 444.555 7.24902Z" fill="#3F3D56"/>
<path d="M444.555 12.5586H426.904C426.555 12.566 426.221 12.7184 425.976 12.9833C425.731 13.2481 425.594 13.6042 425.594 13.9751C425.594 14.3459 425.731 14.702 425.976 14.9669C426.221 15.2317 426.555 15.3842 426.904 15.3915H444.555C444.905 15.3842 445.238 15.2317 445.483 14.9669C445.728 14.702 445.865 14.3459 445.865 13.9751C445.865 13.6042 445.728 13.2481 445.483 12.9833C445.238 12.7184 444.905 12.566 444.555 12.5586V12.5586Z" fill="#3F3D56"/>
<path d="M396.178 192.085C396.564 192.623 397.056 193.064 397.619 193.378C398.183 193.692 398.805 193.872 399.441 193.903C400.078 193.935 400.713 193.819 401.302 193.562C401.891 193.306 402.42 192.915 402.851 192.419L417.049 198.963L415.666 190.563L402.396 185.636C401.561 184.923 400.508 184.56 399.437 184.615C398.365 184.67 397.351 185.139 396.584 185.934C395.818 186.729 395.353 187.794 395.278 188.928C395.203 190.062 395.524 191.185 396.178 192.086V192.085Z" fill="#A0616A"/>
<path d="M409.096 187.341L436.219 191.066L464.189 173.209C465.685 172.254 467.355 171.645 469.089 171.423C470.822 171.202 472.581 171.372 474.248 171.922C475.915 172.473 477.454 173.391 478.762 174.617C480.07 175.843 481.118 177.349 481.838 179.035V179.035C483.136 182.087 483.284 185.55 482.252 188.714C481.22 191.878 479.085 194.505 476.286 196.055L438.701 210.251L438.63 210.277L405.653 194.709L409.096 187.341Z" fill="#3F3D56"/>
<path d="M448.705 237.503L450.959 231.53L449.468 226.394L453.886 175.205L454.539 167.447L454.583 161.664L469.689 161.273L471.328 165.683L474.569 167.737C478.104 169.984 481.018 173.178 483.018 176.997C485.018 180.816 486.034 185.126 485.964 189.494L485.378 223.071L486.886 226.267C487.295 227.135 487.523 228.086 487.553 229.056C487.583 230.026 487.414 230.991 487.059 231.885C486.704 232.779 486.17 233.581 485.495 234.236C484.819 234.892 484.018 235.384 483.146 235.68L449.936 246.377L448.705 237.503Z" fill="#3F3D56"/>
<path d="M460.753 155.79C468.334 155.79 474.479 149.277 474.479 141.243C474.479 133.208 468.334 126.695 460.753 126.695C453.172 126.695 447.027 133.208 447.027 141.243C447.027 149.277 453.172 155.79 460.753 155.79Z" fill="#A0616A"/>
<path d="M475.046 144.414C475.455 142.586 475.267 140.014 475.036 138.173C474.739 135.746 473.965 133.412 472.763 131.323C471.562 129.233 469.959 127.435 468.059 126.043C467.331 125.457 466.466 125.093 465.556 124.989C465.102 124.948 464.647 125.061 464.256 125.312C463.866 125.562 463.561 125.936 463.383 126.382C463.155 125.776 462.811 125.227 462.374 124.768C461.937 124.308 461.416 123.949 460.842 123.711C459.691 123.244 458.452 123.067 457.225 123.195C454.846 123.403 452.565 124.289 450.623 125.76C448.681 127.231 447.152 129.232 446.196 131.55C445.83 132.473 444.806 129.064 444.341 129.936C443.914 130.843 443.169 131.536 442.266 131.868C441.356 132.137 440.986 136.112 440.628 135.185C440.35 135.87 440.24 136.618 440.309 137.36C440.377 138.102 440.622 138.814 441.02 139.429C441.417 140.044 441.956 140.542 442.584 140.877C443.212 141.212 443.911 141.373 444.614 141.345C445.532 141.219 446.443 141.035 447.341 140.792C448.99 140.572 450.657 140.999 452.029 141.993C453.401 142.987 454.382 144.478 454.787 146.186C455.037 145.193 455.437 144.249 455.972 143.391C456.243 142.965 456.607 142.613 457.032 142.365C457.458 142.117 457.933 141.981 458.418 141.967C458.882 142.023 459.33 142.179 459.735 142.426C460.14 142.673 460.493 143.004 460.773 143.401C461.377 144.153 461.831 145.03 462.439 145.778C464.226 147.973 466.641 153.091 469.187 152.718C471.196 152.423 474.487 146.91 475.046 144.414Z" fill="#2F2E41"/>
<path d="M501.07 263.89C501.424 263.329 501.659 262.692 501.756 262.025C501.853 261.358 501.812 260.676 501.633 260.028C501.455 259.38 501.145 258.781 500.725 258.274C500.305 257.766 499.785 257.363 499.202 257.091L500.436 240.734L493.388 244.846L493.297 259.749C492.931 260.817 492.949 261.991 493.345 263.047C493.742 264.103 494.49 264.968 495.448 265.478C496.406 265.989 497.508 266.109 498.544 265.816C499.58 265.523 500.479 264.838 501.07 263.89V263.89Z" fill="#A0616A"/>
<path d="M492.643 252.479L487.167 224.079L462.154 201.832C460.816 200.643 459.732 199.166 458.971 197.5C458.211 195.834 457.792 194.016 457.742 192.166C457.693 190.316 458.013 188.476 458.683 186.767C459.352 185.057 460.356 183.518 461.628 182.249V182.249C463.931 179.957 466.973 178.685 470.132 178.693C473.291 178.701 476.327 179.989 478.619 182.293L503.484 215.366L503.531 215.429L500.336 253.54L492.643 252.479Z" fill="#3F3D56"/>
<path d="M555.216 380H326.114C326.011 380 325.909 379.979 325.814 379.937C325.718 379.895 325.632 379.834 325.559 379.757C325.486 379.68 325.428 379.588 325.388 379.487C325.349 379.386 325.328 379.278 325.328 379.169C325.328 379.059 325.349 378.951 325.388 378.85C325.428 378.749 325.486 378.658 325.559 378.58C325.632 378.503 325.718 378.442 325.814 378.4C325.909 378.359 326.011 378.338 326.114 378.338H555.216C555.319 378.338 555.421 378.359 555.517 378.4C555.612 378.442 555.699 378.503 555.772 378.58C555.845 378.658 555.903 378.749 555.942 378.85C555.982 378.951 556.002 379.059 556.002 379.169C556.002 379.278 555.982 379.386 555.942 379.487C555.903 379.588 555.845 379.68 555.772 379.757C555.699 379.834 555.612 379.895 555.517 379.937C555.421 379.979 555.319 380 555.216 380V380Z" fill="#CCCCCC"/>
<path d="M407.156 244.882H303.043C302.317 244.881 301.622 244.576 301.109 244.032C300.596 243.488 300.307 242.751 300.306 241.982V197.209C300.307 196.44 300.596 195.703 301.109 195.159C301.622 194.615 302.317 194.309 303.043 194.309H407.156C407.881 194.309 408.577 194.615 409.09 195.159C409.603 195.703 409.892 196.44 409.892 197.209V241.982C409.892 242.751 409.603 243.488 409.09 244.032C408.577 244.576 407.881 244.881 407.156 244.882Z" fill="#EA8A54"/>
<path d="M397.242 266.361H312.956C312.524 266.361 312.097 266.272 311.698 266.097C311.299 265.923 310.936 265.666 310.631 265.343C310.326 265.02 310.083 264.636 309.918 264.213C309.753 263.791 309.667 263.338 309.667 262.88C309.667 262.423 309.753 261.97 309.918 261.547C310.083 261.125 310.326 260.741 310.631 260.417C310.936 260.094 311.299 259.838 311.698 259.663C312.097 259.489 312.524 259.399 312.956 259.4H397.242C401.477 259.337 401.519 266.424 397.242 266.361Z" fill="#E4E4E4"/>
<path d="M397.242 282.312H312.956C312.085 282.312 311.25 281.945 310.634 281.292C310.018 280.64 309.672 279.755 309.672 278.831C309.672 277.908 310.018 277.023 310.634 276.37C311.25 275.718 312.085 275.351 312.956 275.351H397.242C401.477 275.288 401.52 282.375 397.242 282.312Z" fill="#E4E4E4"/>
<path d="M397.242 298.264H312.956C312.524 298.265 312.097 298.175 311.698 298C311.299 297.826 310.936 297.57 310.631 297.246C310.326 296.923 310.083 296.539 309.918 296.117C309.753 295.694 309.667 295.241 309.667 294.784C309.667 294.326 309.753 293.873 309.918 293.451C310.083 293.028 310.326 292.644 310.631 292.321C310.936 291.998 311.299 291.741 311.698 291.567C312.097 291.392 312.524 291.302 312.956 291.303H397.242C401.477 291.24 401.519 298.327 397.242 298.264Z" fill="#E4E4E4"/>
<path d="M137.531 324.036L146.248 321.105C147.335 316.146 147.263 310.981 146.038 306.059C142.536 314.312 132.261 316.334 126.406 322.922C124.595 324.991 123.246 327.466 122.46 330.163C121.674 332.86 121.471 335.71 121.865 338.502L120.031 345.096C124.315 344.708 128.468 343.34 132.205 341.087C135.942 338.834 139.174 335.75 141.678 332.045C143.063 329.953 144.194 327.683 145.044 325.291C141.327 324.896 137.531 324.036 137.531 324.036Z" fill="#F2F2F2"/>
<path d="M128.215 311.842L134.785 305.098C133.671 300.146 131.433 295.558 128.265 291.73C128.604 300.773 120.258 307.44 117.79 316.104C117.039 318.812 116.874 321.665 117.305 324.45C117.737 327.235 118.754 329.882 120.281 332.194L121.415 338.963C125.086 336.591 128.228 333.404 130.624 329.621C133.021 325.838 134.616 321.55 135.298 317.051C135.657 314.523 135.714 311.957 135.469 309.414C131.975 310.818 128.215 311.842 128.215 311.842Z" fill="#F2F2F2"/>
<path d="M145.779 186.28C145.061 186.382 144.331 186.316 143.64 186.087C142.949 185.857 142.314 185.47 141.78 184.952C141.245 184.435 140.824 183.799 140.547 183.09C140.269 182.382 140.141 181.617 140.173 180.85L108.508 146.799L117.347 140.276L145.693 175.799C146.905 175.94 148.026 176.547 148.843 177.506C149.661 178.464 150.118 179.707 150.129 180.999C150.139 182.291 149.702 183.542 148.9 184.516C148.099 185.489 146.988 186.117 145.779 186.28Z" fill="#FFB6B6"/>
<path d="M98.7662 132.07C98.7662 132.07 96.522 133.496 100.257 137.837C103.248 141.312 116.297 158.022 121.506 161.511C120.937 163.249 135.345 179.892 136.86 180.953L144.868 170.361C144.411 167.324 128.654 152.826 127.568 153.195L122.544 146.576L111.16 126.338L100.371 131.009L98.7662 132.07Z" fill="#20DCB6"/>
<path d="M73.7595 334.964H79.7288L82.5696 310.561H73.7588L73.7595 334.964Z" fill="#FFB6B6"/>
<path d="M71.811 330.631L81.3482 330.027V334.358L90.4155 340.995C90.8634 341.323 91.2007 341.794 91.3782 342.339C91.5557 342.884 91.564 343.475 91.4021 344.026C91.2401 344.577 90.9163 345.058 90.4779 345.4C90.0395 345.742 89.5094 345.926 88.9652 345.926H77.6107L75.6536 341.643L74.8895 345.926H70.6084L71.811 330.631Z" fill="#2F2E41"/>
<path d="M107.292 334.964H113.261L116.102 310.561H107.292V334.964Z" fill="#FFB6B6"/>
<path d="M105.343 330.631L114.88 330.027V334.358L123.948 340.995C124.396 341.323 124.733 341.794 124.91 342.339C125.088 342.884 125.096 343.475 124.934 344.026C124.772 344.577 124.448 345.058 124.01 345.4C123.572 345.742 123.042 345.926 122.497 345.926H111.143L109.186 341.643L108.422 345.926H104.141L105.343 330.631Z" fill="#2F2E41"/>
<path d="M71.1838 313.919H71.2487L72.3967 274.239C71.6538 272.72 71.2767 271.03 71.2991 269.319C71.3215 267.609 71.7427 265.93 72.5252 264.434L72.6896 264.119L72.2634 262.025C71.716 259.335 71.9672 256.531 72.9825 253.998L74.0535 216.984C70.2271 190.702 88.4626 173.561 88.4626 173.561L85.1303 158.704L118.122 155.265L115.78 173.561L121.644 194.917C125.521 234.95 124.818 273.962 118.666 311.758L118.833 311.848C119.437 312.069 119.696 312.955 119.412 313.828C119.128 314.701 118.408 315.23 117.804 315.009L103.377 314.477C102.773 314.256 102.514 313.369 102.799 312.496C103.083 311.623 103.803 311.095 104.407 311.316L105.388 311.842L103.296 273.552L103.528 266.558L103.05 258.624L100.838 222.935L92.4681 266.822L83.9184 314.361C84.1542 314.587 84.3197 314.884 84.3931 315.212C84.4665 315.54 84.4442 315.884 84.3294 316.198C84.2145 316.513 84.0123 316.783 83.7496 316.973C83.4869 317.163 83.176 317.264 82.8579 317.263H71.1838C70.7659 317.262 70.3655 317.086 70.0703 316.772C69.7751 316.459 69.6094 316.034 69.6094 315.591C69.6094 315.148 69.7751 314.723 70.0703 314.41C70.3655 314.096 70.7659 313.92 71.1838 313.919L71.1838 313.919Z" fill="#2F2E41"/>
<path d="M111.696 121.327L105.208 117.201L92.2318 115.826L80.7627 122.016L80.8776 140.925L88.1536 160.537L116.499 166.729L119.806 149.494C119.806 149.494 128.241 137.487 119.158 130.611L111.696 121.327Z" fill="#20DCB6"/>
<path d="M83.9233 202.971C83.3068 202.568 82.781 202.027 82.383 201.386C81.985 200.745 81.7245 200.019 81.6198 199.26C81.5151 198.501 81.5688 197.726 81.777 196.991C81.9852 196.256 82.343 195.579 82.8251 195.006L78.6411 147.402L89.3799 148.281L90.1158 194.798C90.9697 195.72 91.4748 196.942 91.5354 198.232C91.596 199.523 91.2079 200.792 90.4446 201.799C89.6813 202.807 88.5958 203.482 87.3939 203.698C86.192 203.914 84.9571 203.655 83.9233 202.971V202.971Z" fill="#FFB6B6"/>
<path d="M81.1604 122.206C81.1604 122.206 78.5715 121.805 78.8714 127.671C79.1114 132.368 77.9704 161.317 79.9201 167.512C78.4423 168.477 78.3637 192.038 78.9029 193.876L91.428 191.047C92.8871 188.389 91.9265 164.029 90.866 163.586L90.9283 155.091L93.6964 127.089L83.0366 122.461L81.1604 122.206Z" fill="#20DCB6"/>
<path d="M145.174 207.375C144.839 206.941 144.599 206.434 144.472 205.889C144.344 205.345 144.333 204.777 144.439 204.228C145.678 197.693 145.678 190.964 144.439 184.429C144.333 183.88 144.344 183.312 144.472 182.768C144.599 182.223 144.839 181.716 145.174 181.282C145.496 180.865 145.9 180.528 146.358 180.294C146.815 180.06 147.316 179.935 147.824 179.928C153.281 177.623 158.506 177.623 163.358 179.928C164.196 179.944 165.001 180.275 165.629 180.864C166.257 181.452 166.667 182.258 166.785 183.137C167.737 190.564 167.737 198.093 166.785 205.52C166.666 206.41 166.248 207.225 165.607 207.814C164.967 208.404 164.147 208.729 163.299 208.73H147.877C147.36 208.731 146.849 208.61 146.381 208.375C145.914 208.141 145.501 207.799 145.174 207.375V207.375Z" fill="#20DCB6"/>
<path d="M149.492 188.462H162.473C162.687 188.461 162.893 188.37 163.045 188.209C163.196 188.048 163.282 187.83 163.282 187.602C163.282 187.374 163.196 187.156 163.045 186.995C162.893 186.834 162.687 186.743 162.473 186.742H149.492C149.277 186.742 149.071 186.833 148.919 186.994C148.767 187.155 148.681 187.374 148.681 187.602C148.681 187.83 148.767 188.049 148.919 188.21C149.071 188.371 149.277 188.462 149.492 188.462Z" fill="white"/>
<path d="M149.492 195.34H162.472C162.687 195.339 162.893 195.248 163.044 195.087C163.196 194.926 163.281 194.708 163.281 194.48C163.281 194.252 163.196 194.034 163.044 193.873C162.893 193.712 162.687 193.621 162.472 193.62H149.492C149.277 193.621 149.072 193.712 148.92 193.873C148.768 194.034 148.683 194.252 148.683 194.48C148.683 194.708 148.768 194.926 148.92 195.087C149.072 195.248 149.277 195.339 149.492 195.34V195.34Z" fill="white"/>
<path d="M149.492 202.219H162.473C162.688 202.219 162.894 202.128 163.046 201.967C163.198 201.806 163.284 201.587 163.284 201.359C163.284 201.131 163.198 200.912 163.046 200.751C162.894 200.59 162.688 200.499 162.473 200.499H149.492C149.277 200.499 149.071 200.59 148.919 200.751C148.767 200.912 148.681 201.131 148.681 201.359C148.681 201.587 148.767 201.806 148.919 201.967C149.071 202.128 149.277 202.219 149.492 202.219V202.219Z" fill="white"/>
<path d="M186.099 345.677C186.099 345.786 186.079 345.894 186.04 345.995C186.001 346.096 185.943 346.188 185.87 346.265C185.797 346.342 185.711 346.403 185.616 346.445C185.521 346.486 185.419 346.508 185.316 346.507H0.783452C0.575668 346.507 0.376391 346.42 0.229466 346.264C0.0825407 346.108 0 345.897 0 345.677C0 345.457 0.0825407 345.246 0.229466 345.09C0.376391 344.934 0.575668 344.847 0.783452 344.847H185.316C185.419 344.846 185.521 344.868 185.616 344.909C185.711 344.951 185.797 345.012 185.87 345.089C185.943 345.166 186.001 345.258 186.04 345.359C186.079 345.46 186.099 345.568 186.099 345.677V345.677Z" fill="#CCCCCC"/>
<path d="M110.881 108.797V95.9845C110.884 93.7291 110.468 91.4953 109.655 89.4106C108.843 87.3259 107.651 85.4312 106.148 83.8349C104.645 82.2385 102.859 80.9718 100.894 80.107C98.9286 79.2422 96.8217 78.7964 94.6937 78.7949C92.5656 78.7935 90.4581 79.2365 88.4917 80.0986C86.5252 80.9607 84.7383 82.225 83.2331 83.8193C81.7279 85.4136 80.5338 87.3066 79.7191 89.3902C78.9044 91.4738 78.485 93.7071 78.485 95.9625V95.9845C75.6301 102.29 77.4161 105.288 78.485 108.797C78.486 109.408 78.7154 109.993 79.1231 110.425C79.5307 110.857 80.0834 111.101 80.6599 111.102H108.706C109.282 111.101 109.835 110.858 110.243 110.426C110.651 109.994 110.881 109.408 110.881 108.797V108.797Z" fill="#2F2E41"/>
<path d="M99.9941 110.269C106.691 110.269 112.119 104.515 112.119 97.4181C112.119 90.3208 106.691 84.5674 99.9941 84.5674C93.2977 84.5674 87.8691 90.3208 87.8691 97.4181C87.8691 104.515 93.2977 110.269 99.9941 110.269Z" fill="#FFB7B7"/>
<path d="M87.3046 100.787C87.4145 100.769 87.5244 100.744 87.6343 100.726C89.5256 100.37 91.4169 100.021 93.3024 99.6593L93.476 95.1293L95.7606 99.1873C100.972 101.02 105.848 99.9842 110.434 97.6977C111.947 96.9365 113.415 96.0788 114.83 95.1293C114.445 92.6238 113.536 90.2414 112.17 88.1562C110.804 86.071 109.015 84.3359 106.935 83.0777C106.761 82.9734 106.594 82.8815 106.42 82.7895C106.419 82.7895 106.419 82.7894 106.418 82.789C106.417 82.7887 106.417 82.7883 106.416 82.7877C106.415 82.7872 106.415 82.7865 106.415 82.7857C106.414 82.785 106.414 82.7842 106.414 82.7834C106.119 82.6363 105.819 82.4953 105.518 82.3665C103.163 81.3913 100.596 81.1443 98.114 81.6543C95.6322 82.1643 93.3379 83.4104 91.4979 85.2476C87.7962 88.9931 86.1305 95.1783 87.3046 100.787Z" fill="#2F2E41"/>
</g>
<defs>
<clipPath id="clip0_242_1533">
<rect width="556" height="380" fill="white"/>
</clipPath>
</defs>
</svg>
