<svg width="32" height="32" viewBox="0 0 32 32" fill="none" xmlns="http://www.w3.org/2000/svg">
<path d="M21 16C21 16.9889 20.7068 17.9556 20.1573 18.7779C19.6079 19.6001 18.827 20.241 17.9134 20.6194C16.9998 20.9978 15.9945 21.0969 15.0245 20.9039C14.0546 20.711 13.1637 20.2348 12.4645 19.5355C11.7652 18.8363 11.289 17.9454 11.0961 16.9755C10.9031 16.0055 11.0022 15.0002 11.3806 14.0866C11.759 13.173 12.3999 12.3921 13.2221 11.8427C14.0444 11.2932 15.0111 11 16 11C17.3248 11.0041 18.5942 11.5322 19.531 12.469C20.4678 13.4058 20.9959 14.6752 21 16V16ZM31.625 9.125V22.875C31.625 25.1956 30.7031 27.4212 29.0622 29.0622C27.4212 30.7031 25.1956 31.625 22.875 31.625H9.125C6.80436 31.625 4.57876 30.7031 2.93782 29.0622C1.29687 27.4212 0.375 25.1956 0.375 22.875V9.125C0.375 6.80436 1.29687 4.57876 2.93782 2.93782C4.57876 1.29687 6.80436 0.375 9.125 0.375H22.875C25.1956 0.375 27.4212 1.29687 29.0622 2.93782C30.7031 4.57876 31.625 6.80436 31.625 9.125V9.125ZM23.5 16C23.5 14.5166 23.0601 13.0666 22.236 11.8332C21.4119 10.5999 20.2406 9.63856 18.8701 9.0709C17.4997 8.50325 15.9917 8.35472 14.5368 8.64411C13.082 8.9335 11.7456 9.64781 10.6967 10.6967C9.64781 11.7456 8.9335 13.082 8.64411 14.5368C8.35472 15.9917 8.50325 17.4997 9.0709 18.8701C9.63856 20.2406 10.5999 21.4119 11.8332 22.236C13.0666 23.0601 14.5166 23.5 16 23.5C17.9891 23.5 19.8968 22.7098 21.3033 21.3033C22.7098 19.8968 23.5 17.9891 23.5 16ZM26 7.875C26 7.50416 25.89 7.14165 25.684 6.83331C25.478 6.52496 25.1851 6.28464 24.8425 6.14273C24.4999 6.00081 24.1229 5.96368 23.7592 6.03603C23.3955 6.10837 23.0614 6.28695 22.7992 6.54917C22.537 6.8114 22.3584 7.14549 22.286 7.50921C22.2137 7.87292 22.2508 8.24992 22.3927 8.59253C22.5346 8.93514 22.775 9.22798 23.0833 9.43401C23.3916 9.64003 23.7542 9.75 24.125 9.75C24.6223 9.75 25.0992 9.55246 25.4508 9.20083C25.8025 8.84919 26 8.37228 26 7.875Z" fill="#D1FBFD"/>
</svg>
