<svg width="150" height="178" viewBox="0 0 150 178" fill="none" xmlns="http://www.w3.org/2000/svg">
<path d="M122.321 148.477C122.321 148.477 111.041 177.132 86.2232 173.965C61.4057 170.798 2.31641 157.84 2.31641 157.84L34.1311 10.3374L59.5011 15.9813L28.0262 146.158L90.8662 155.572L122.321 148.477Z" fill="#5D87B9"/>
<path fill-rule="evenodd" clip-rule="evenodd" d="M39.7788 97.1692L32.2563 128.282L10 122.319L16.7554 91L39.7788 97.1692Z" fill="#8BA8C8"/>
<path d="M142.619 101.079C142.554 101.253 142.492 101.422 142.43 101.603C142.403 101.665 142.372 101.727 142.341 101.789C142.245 102.104 142.145 102.42 142.046 102.736C141.948 102.806 141.88 102.909 141.854 103.026C141.828 103.143 141.846 103.266 141.905 103.37C141.785 103.662 141.665 103.95 141.541 104.242C141.243 104.41 141.25 104.66 141.353 104.928C139.898 109.282 138.168 113.529 136.291 117.712C135.299 119.921 134.253 122.103 133.23 124.299C133.192 124.304 133.157 124.318 133.126 124.34C133.096 124.362 133.071 124.392 133.054 124.426C133.038 124.46 133.03 124.497 133.031 124.535C133.032 124.573 133.043 124.609 133.062 124.642L132.561 125.582C132.526 125.582 132.461 125.603 132.461 125.617C132.458 125.68 132.458 125.745 132.461 125.809C132.307 126.073 132.149 126.337 131.991 126.601C131.888 126.665 131.81 126.763 131.771 126.878C131.731 126.993 131.733 127.118 131.775 127.232C131.754 127.277 131.734 127.322 131.717 127.366C131.673 127.369 131.631 127.383 131.594 127.405C131.556 127.427 131.524 127.458 131.501 127.494C131.477 127.531 131.462 127.572 131.457 127.616C131.453 127.659 131.458 127.703 131.473 127.744L131.421 127.805C131.391 127.809 131.362 127.819 131.336 127.836C131.311 127.854 131.29 127.877 131.275 127.904C131.261 127.931 131.253 127.961 131.253 127.992C131.252 128.022 131.26 128.053 131.274 128.08C131.243 128.176 131.216 128.272 131.185 128.368C131.157 128.368 131.099 128.368 131.099 128.392C131.096 128.446 131.096 128.5 131.099 128.553L129.898 130.698C129.867 130.698 129.809 130.718 129.809 130.732C129.809 130.792 129.815 130.852 129.826 130.91L129.534 131.446H129.445V131.538L129.328 131.689C129.294 131.751 129.26 131.813 129.222 131.875C129.184 131.936 129.177 131.971 129.157 132.022C129.061 132.075 128.987 132.159 128.947 132.261C128.907 132.362 128.903 132.474 128.937 132.578L128.827 132.695C128.089 131.864 128.395 130.883 128.597 130.018C129.417 126.519 128.813 123.136 127.911 119.774C125.437 110.692 119.366 104.286 112.125 98.8107C105.746 94.0074 98.615 90.5284 91.2267 87.5915C87.3936 86.0682 83.4781 84.7473 79.5592 83.4744C76.8963 82.6098 74.1612 81.9545 71.4468 81.2683C70.5237 81.0316 70.2286 80.5821 70.51 79.697C72.2258 74.2932 73.9416 68.8998 75.6197 63.4858C76.8345 59.5437 77.9909 55.5947 79.1165 51.6148C79.3533 50.7845 79.7754 50.5855 80.5201 50.7879C82.4418 51.33 84.3703 51.8584 86.2818 52.4417C88.8829 53.2342 91.467 54.0782 94.0647 54.8845C97.2355 55.8692 100.427 56.7921 103.584 57.8213C106.422 58.7443 109.219 59.7804 111.988 60.9092C116.765 62.8468 121.441 65.0224 125.999 67.4279C131.492 70.3713 136.694 73.828 141.534 77.7516C141.627 77.8129 141.717 77.8794 141.802 77.9506L142.609 78.8529C142.774 79.0447 142.908 79.2612 143.007 79.4945C143.285 79.9714 143.566 80.4449 143.844 80.9184C143.946 81.1128 144.015 81.3226 144.05 81.5394C144.094 81.7315 144.215 81.9511 144.259 82.1432C144.441 82.6029 144.383 82.5927 144.551 83.073C144.606 83.5224 144.657 83.9719 144.712 84.4179C144.712 86.847 144.703 89.275 144.685 91.7018C144.65 91.9488 144.619 92.1958 144.585 92.4394M143.377 97.9495L143.326 98.2926C143.288 98.3097 143.223 98.3338 143.226 98.3441C143.24 98.4129 143.26 98.4806 143.285 98.5465M102.205 64.4396C102.266 63.4103 101.556 63.2868 100.887 63.0844C98.2341 62.2816 95.5883 61.4547 92.9391 60.6416C90.537 59.9005 88.1348 59.156 85.7327 58.4252C84.7581 58.1301 84.1885 58.312 83.8865 59.4819C83.2413 62.0002 82.3972 64.4671 81.625 66.951C80.6665 70.0457 79.7056 73.1336 78.7425 76.2146C78.5366 76.8802 78.8797 77.0929 79.4837 77.2644C81.3299 77.7962 83.1521 78.4103 84.9743 78.9799C88.2378 79.9851 91.4944 81.0384 94.775 81.9614C96.7688 82.524 96.786 82.3662 97.3797 80.2802C98.368 76.8321 99.4764 73.4184 100.523 69.9874C101.11 68.1244 101.662 66.2408 102.205 64.4396Z" fill="#8BA8C8"/>
<path d="M51.915 12.237L43.1987 10L28 91.9649L51.915 12.237Z" fill="#2D66A9"/>
<path d="M10 146.433L51.3203 10.6365C51.5742 9.69302 52.5728 10.019 53.2077 10.2317C56.7628 11.4222 60.3626 12.4721 63.9521 13.5494C68.3103 14.8531 72.6513 16.2118 76.9923 17.5636C81.8206 19.0629 86.642 20.5999 91.4772 22.0855C95.5643 23.3378 99.6891 24.4563 103.732 25.7978C108.34 27.304 113.018 28.594 117.53 30.4295C121.233 31.9186 124.791 33.61 128.096 35.8195C134.747 40.2797 139.712 46.03 141.823 53.9589C143.195 59.1052 143.048 64.2516 142.433 69.4598C142.056 72.6643 140.889 75.6698 140.433 78.8399C135.593 74.9151 130.391 71.4584 124.898 68.5163C120.339 66.108 115.662 63.9323 110.883 61.9975C108.117 60.8722 105.317 59.8326 102.482 58.9097C99.3219 57.8804 96.1339 56.9575 92.9597 55.9728C90.3619 55.17 87.7779 54.3225 85.1767 53.53C83.2653 52.9502 81.3402 52.4218 79.415 51.8763C78.6738 51.667 78.2483 51.8763 78.0149 52.7031C76.8859 56.6727 75.7295 60.6354 74.5147 64.5776C72.8469 70.0019 71.1311 75.3987 69.4153 80.799C69.1373 81.6842 69.4153 82.1371 70.3521 82.3704C73.0699 83.0566 75.805 83.7119 78.4679 84.5799C82.3903 85.8528 86.3057 87.1771 90.1354 88.697C97.5237 91.6339 104.651 95.106 111.034 99.9196C118.289 105.392 124.356 111.797 126.82 120.883C127.736 124.241 128.34 127.624 127.506 131.124C127.303 131.988 126.507 132.973 127.245 133.807C127.139 135.114 126.432 135.831 126.044 137.022C125.119 140.04 124.01 142.998 122.722 145.88C122.214 146.951 121.648 147.994 121.113 149.05C120.897 149.076 120.693 149.164 120.527 149.303C120.361 149.443 120.239 149.628 120.176 149.836C119.387 152.094 117.626 153.758 116.501 155.823C115.882 156.963 115.129 158.024 114.256 158.983C113.34 159.981 111.957 160.506 111.408 161.848L111.134 162.098C110.79 161.841 110.708 162.078 110.643 162.352C109.699 163.436 108.429 164.102 107.211 164.73C104.764 166.039 102.15 167.011 99.442 167.619C96.3158 168.277 93.1621 168.957 90.0016 168.751C86.9337 168.548 83.8453 168.332 80.7842 167.684C77.6066 166.998 74.4403 166.284 71.2855 165.543C70.582 165.375 70.1462 164.826 69.4427 164.733C66.7901 164.39 64.3673 163.227 61.7867 162.596C59.6248 162.067 57.5418 161.223 55.397 160.623C53.791 160.16 52.2296 159.563 50.5928 159.144C49.8653 158.959 49.0657 158.973 48.3931 158.616C46.7425 157.741 44.91 157.381 43.1633 156.794C39.8071 155.662 36.3721 154.777 32.9748 153.765C31.0702 153.195 29.1794 152.584 27.2851 151.987C25.3325 151.37 23.3971 150.684 21.417 150.169C20.2674 149.87 19.2105 149.232 17.9854 149.232C18.0472 148.546 10 146.433 10 146.433ZM81.4431 134.376C83.4575 134.356 85.5954 133.282 87.1945 131.055C88.6508 128.952 89.7586 126.628 90.4752 124.173C91.5047 120.876 92.2596 117.589 91.8307 114.113C91.4875 111.207 89.9536 109.125 87.3387 107.866C84.4081 106.455 81.2235 105.773 78.1453 104.778C73.8935 103.405 69.6109 102.126 65.3556 100.767C64.0345 100.345 63.2967 100.592 62.8162 101.951C62.2534 103.604 61.8245 105.303 61.2892 106.963C60.3386 109.924 59.4086 112.895 58.5438 115.884C57.5933 119.109 56.581 122.313 55.5892 125.528C55.2872 126.506 55.476 126.99 56.3682 127.281C58.1046 127.851 59.8479 128.417 61.5946 128.959C65.8326 130.273 70.0604 131.632 74.3259 132.853C76.4226 133.453 78.4782 134.37 81.4431 134.376Z" fill="#004799"/>
</svg>
