<svg width="36" height="29" viewBox="0 0 36 29" fill="none" xmlns="http://www.w3.org/2000/svg">
<path d="M35.4331 3.99984C34.1497 4.58317 32.7664 4.9665 31.3331 5.14984C32.7997 4.2665 33.9331 2.8665 34.4664 1.18317C33.0831 2.0165 31.5497 2.59984 29.9331 2.93317C28.6164 1.49984 26.7664 0.666504 24.6664 0.666504C20.7497 0.666504 17.5497 3.8665 17.5497 7.8165C17.5497 8.38317 17.6164 8.93317 17.7331 9.44984C11.7997 9.14984 6.51641 6.29984 2.99974 1.98317C2.38307 3.03317 2.03307 4.2665 2.03307 5.5665C2.03307 8.04984 3.28307 10.2498 5.21641 11.4998C4.03307 11.4998 2.93307 11.1665 1.96641 10.6665V10.7165C1.96641 14.1832 4.43307 17.0832 7.69974 17.7332C6.65095 18.0202 5.5499 18.0601 4.48307 17.8498C4.93575 19.2706 5.8223 20.5139 7.0181 21.4047C8.2139 22.2956 9.65882 22.7893 11.1497 22.8165C8.62246 24.8172 5.48973 25.8987 2.26641 25.8832C1.69974 25.8832 1.13307 25.8498 0.566406 25.7832C3.73307 27.8165 7.49974 28.9998 11.5331 28.9998C24.6664 28.9998 31.8831 18.0998 31.8831 8.64984C31.8831 8.33317 31.8831 8.03317 31.8664 7.7165C33.2664 6.7165 34.4664 5.44984 35.4331 3.99984V3.99984Z" fill="#D1FBFD"/>
</svg>
