<svg width="238" height="76" viewBox="0 0 238 76" fill="none" xmlns="http://www.w3.org/2000/svg">
<path d="M83.5776 47.2539C84.7625 47.6315 86.1362 47.8203 87.6987 47.8203C90.8237 47.8203 92.3862 45.6133 92.3862 41.1992C92.3862 37.5924 91.0386 35.7891 88.3433 35.7891C86.5985 35.7891 85.0099 36.1406 83.5776 36.8438V47.2539ZM78.4019 24.0703H83.5776V33.0547C85.1271 32.013 86.8524 31.4922 88.7534 31.4922C94.5868 31.4922 97.5034 34.7734 97.5034 41.3359C97.5034 48.4453 94.1636 52 87.4839 52C84.6714 52 81.644 51.7201 78.4019 51.1602V24.0703ZM100.433 45.6133C100.433 41.5378 103.402 39.5 109.339 39.5C110.733 39.5 112.126 39.6302 113.519 39.8906V38.3477C113.519 36.5117 112.197 35.5938 109.554 35.5938C107.315 35.5938 104.828 35.9193 102.093 36.5703V32.4688C104.828 31.8177 107.315 31.4922 109.554 31.4922C115.648 31.4922 118.695 33.7448 118.695 38.25V52H115.687L113.851 50.1641C112.067 51.388 110.101 52 107.953 52C102.94 52 100.433 49.8711 100.433 45.6133ZM113.519 43.4062C112.217 43.1458 110.824 43.0156 109.339 43.0156C106.852 43.0156 105.609 43.862 105.609 45.5547C105.609 47.3776 106.651 48.2891 108.734 48.2891C110.453 48.2891 112.048 47.7552 113.519 46.6875V43.4062ZM121.156 31.4922H126.644L131.82 46.2578L136.878 31.4922H142.269L133.753 52.6055C132.243 56.3294 129.828 58.9792 126.507 60.5547L124.007 57.0195C126.299 56.0169 127.966 54.3828 129.007 52.1172L121.156 31.4922ZM143.753 45.6133C143.753 41.5378 146.722 39.5 152.66 39.5C154.053 39.5 155.446 39.6302 156.839 39.8906V38.3477C156.839 36.5117 155.518 35.5938 152.875 35.5938C150.635 35.5938 148.148 35.9193 145.414 36.5703V32.4688C148.148 31.8177 150.635 31.4922 152.875 31.4922C158.968 31.4922 162.015 33.7448 162.015 38.25V52H159.007L157.171 50.1641C155.388 51.388 153.421 52 151.273 52C146.26 52 143.753 49.8711 143.753 45.6133ZM156.839 43.4062C155.537 43.1458 154.144 43.0156 152.66 43.0156C150.173 43.0156 148.929 43.862 148.929 45.5547C148.929 47.3776 149.971 48.2891 152.054 48.2891C153.773 48.2891 155.368 47.7552 156.839 46.6875V43.4062ZM166.917 52V31.4922H170.921L171.566 34.1094C173.363 32.3646 175.264 31.4922 177.269 31.4922V35.6719C175.342 35.6719 173.617 36.4727 172.093 38.0742V52H166.917ZM185.375 24.0703V28.1719H180.199V24.0703H185.375ZM185.375 31.4922V52H180.199V31.4922H185.375ZM190.277 52V31.4922H194.281L194.925 34.5C196.891 32.4948 199.131 31.4922 201.644 31.4922C206.501 31.4922 208.929 34.0182 208.929 39.0703V52H203.753V39.0703C203.753 36.8047 202.627 35.6719 200.375 35.6719C198.695 35.6719 197.054 36.3424 195.453 37.6836V52H190.277Z" fill="#D1FBFD"/>
<path d="M52.1579 63.3945C52.1579 63.3945 47.3481 75.6292 36.7659 74.2771C26.1836 72.925 0.987793 67.3922 0.987793 67.3922L14.5536 4.41357L25.3715 6.82332L11.9505 62.4042L38.7457 66.4239L52.1579 63.3945Z" fill="#2F2F2F"/>
<path fill-rule="evenodd" clip-rule="evenodd" d="M16.9618 41.488L13.7541 54.7723L4.26416 52.2261L7.14456 38.854L16.9618 41.488Z" fill="#20A4DC"/>
<path d="M60.813 43.157C60.7852 43.2317 60.7588 43.3034 60.7325 43.3811C60.7208 43.4075 60.7076 43.4338 60.6945 43.4602C60.6535 43.595 60.6111 43.7297 60.5686 43.8645C60.5271 43.8944 60.4979 43.9385 60.4869 43.9885C60.4758 44.0385 60.4835 44.0909 60.5086 44.1355C60.4574 44.26 60.4062 44.3831 60.3535 44.5076C60.2262 44.5794 60.2292 44.6863 60.273 44.8006C59.6526 46.6595 58.9151 48.473 58.1147 50.2587C57.6919 51.2021 57.2456 52.1338 56.8095 53.0713C56.7936 53.0735 56.7784 53.0796 56.7653 53.089C56.7522 53.0984 56.7417 53.1109 56.7346 53.1254C56.7275 53.1399 56.7241 53.1559 56.7247 53.172C56.7252 53.1881 56.7297 53.2039 56.7378 53.2178L56.5242 53.6192C56.5096 53.6192 56.4818 53.628 56.4818 53.6339C56.4802 53.6612 56.4802 53.6886 56.4818 53.7159C56.4159 53.8287 56.3486 53.9415 56.2813 54.0543C56.2373 54.0817 56.2041 54.1235 56.1873 54.1726C56.1705 54.2217 56.1711 54.2751 56.1891 54.3238C56.1803 54.3429 56.1715 54.3619 56.1642 54.381C56.1457 54.3823 56.1277 54.388 56.1118 54.3974C56.0958 54.4069 56.0822 54.42 56.0722 54.4356C56.0621 54.4512 56.0558 54.469 56.0537 54.4875C56.0517 54.5059 56.0539 54.5246 56.0603 54.5421L56.0384 54.5685C56.0254 54.5698 56.0129 54.5744 56.002 54.5817C55.9911 54.589 55.9822 54.5989 55.976 54.6104C55.9698 54.622 55.9665 54.6349 55.9664 54.648C55.9663 54.6611 55.9694 54.674 55.9755 54.6856C55.9623 54.7267 55.9506 54.7677 55.9374 54.8087C55.9257 54.8087 55.9008 54.8087 55.9008 54.819C55.8995 54.8419 55.8995 54.8649 55.9008 54.8878L55.3887 55.8034C55.3755 55.8034 55.3507 55.8121 55.3507 55.818C55.351 55.8436 55.3534 55.869 55.358 55.8942L55.2336 56.1227H55.1955V56.1623L55.1458 56.2267C55.1312 56.2531 55.1165 56.2794 55.1004 56.3058C55.0843 56.3322 55.0814 56.3468 55.0726 56.3688C55.032 56.3914 55.0004 56.4274 54.9833 56.4706C54.9662 56.5139 54.9647 56.5618 54.979 56.6061L54.9322 56.6559C54.6176 56.3014 54.7478 55.8825 54.8341 55.5133C55.1838 54.0191 54.9263 52.5747 54.5415 51.1391C53.4865 47.2616 50.898 44.5266 47.8105 42.1887C45.0903 40.1378 42.0497 38.6524 38.8993 37.3985C37.2648 36.7481 35.5952 36.1841 33.9242 35.6406C32.7887 35.2714 31.6225 34.9917 30.4651 34.6987C30.0714 34.5976 29.9456 34.4057 30.0656 34.0278C30.7972 31.7206 31.5288 29.4177 32.2444 27.1061C32.7624 25.423 33.2555 23.7369 33.7354 22.0376C33.8364 21.6831 34.0164 21.5982 34.3339 21.6846C35.1533 21.916 35.9757 22.1416 36.7907 22.3907C37.8999 22.7291 39.0017 23.0894 40.1094 23.4337C41.4614 23.8541 42.8223 24.2481 44.1684 24.6876C45.3786 25.0817 46.5711 25.5241 47.752 26.006C49.7886 26.8333 51.7826 27.7622 53.7264 28.7893C56.0685 30.046 58.2864 31.5219 60.3506 33.1972C60.3902 33.2233 60.4283 33.2517 60.4647 33.2821L60.8086 33.6674C60.8791 33.7493 60.9364 33.8417 60.9783 33.9413C61.0969 34.1449 61.2168 34.3471 61.3354 34.5493C61.3788 34.6323 61.4085 34.7218 61.4232 34.8144C61.4422 34.8964 61.4934 34.9902 61.5124 35.0722C61.59 35.2685 61.5651 35.2641 61.6368 35.4692C61.6602 35.6611 61.6822 35.853 61.7056 36.0434C61.7056 37.0806 61.7017 38.1172 61.6939 39.1534C61.6792 39.2589 61.6661 39.3644 61.6514 39.4684M61.1364 41.821L61.1144 41.9675C61.0983 41.9748 61.0705 41.985 61.072 41.9894C61.0781 42.0188 61.0864 42.0477 61.0969 42.0759M43.5802 27.5134C43.6066 27.0739 43.3037 27.0212 43.0183 26.9348C41.8872 26.592 40.7591 26.2389 39.6294 25.8918C38.6051 25.5753 37.5809 25.2575 36.5566 24.9454C36.141 24.8195 35.8981 24.8971 35.7694 25.3966C35.4943 26.4718 35.1343 27.5251 34.8051 28.5857C34.3963 29.907 33.9866 31.2254 33.5759 32.5409C33.4881 32.8251 33.6345 32.9159 33.892 32.9891C34.6792 33.2162 35.4562 33.4784 36.2332 33.7216C37.6248 34.1508 39.0134 34.6005 40.4123 34.9946C41.2624 35.2348 41.2697 35.1674 41.5229 34.2768C41.9443 32.8046 42.4169 31.347 42.8632 29.8821C43.1134 29.0867 43.349 28.2825 43.5802 27.5134Z" fill="#20A4DC"/>
<path d="M22.1369 5.22464L18.4202 4.26953L11.9395 39.2658L22.1369 5.22464Z" fill="#BFC0C2"/>
<path d="M4.26416 62.5217L21.8832 4.5413C21.9915 4.13846 22.4173 4.27762 22.688 4.36845C24.204 4.87676 25.7389 5.32502 27.2695 5.785C29.1278 6.34165 30.9788 6.92175 32.8299 7.49892C34.8887 8.13908 36.9445 8.79535 39.0063 9.42964C40.749 9.96433 42.5078 10.4419 44.2315 11.0147C46.1967 11.6577 48.1911 12.2085 50.1153 12.9923C51.6941 13.628 53.2116 14.3502 54.6207 15.2936C57.4565 17.198 59.5738 19.6531 60.4737 23.0385C61.059 25.2358 60.9961 27.4332 60.7341 29.6569C60.5732 31.0251 60.0757 32.3083 59.8811 33.6619C57.8173 31.9861 55.5993 30.5102 53.2569 29.254C51.3132 28.2257 49.3186 27.2968 47.281 26.4707C46.1016 25.9902 44.9076 25.5464 43.6989 25.1523C42.3513 24.7128 40.9919 24.3188 39.6384 23.8984C38.5307 23.5556 37.4289 23.1938 36.3197 22.8554C35.5047 22.6078 34.6838 22.3822 33.8629 22.1493C33.5468 22.0599 33.3654 22.1493 33.2659 22.5023C32.7845 24.1972 32.2914 25.8892 31.7734 27.5723C31.0622 29.8883 30.3306 32.1926 29.599 34.4983C29.4805 34.8763 29.599 35.0696 29.9984 35.1692C31.1573 35.4622 32.3236 35.742 33.4591 36.1126C35.1316 36.6561 36.8011 37.2215 38.4341 37.8705C41.5845 39.1244 44.6237 40.6069 47.3454 42.6622C50.4387 44.9987 53.0257 47.7336 54.0763 51.6126C54.467 53.0468 54.7246 54.4911 54.369 55.9853C54.2826 56.3545 53.9432 56.7749 54.2578 57.1309C54.2124 57.689 53.911 57.9952 53.7456 58.5035C53.3514 59.7921 52.8783 61.0553 52.3292 62.2858C52.1126 62.7429 51.8712 63.1882 51.6429 63.6394C51.551 63.6503 51.4642 63.6878 51.3932 63.7474C51.3222 63.807 51.2702 63.8861 51.2435 63.9749C50.9069 64.9388 50.1563 65.6492 49.6763 66.5311C49.4127 67.0177 49.0914 67.4707 48.7194 67.8802C48.3287 68.3065 47.739 68.5307 47.5049 69.1034L47.3878 69.2104C47.2415 69.1005 47.2063 69.2016 47.1785 69.3188C46.7762 69.7817 46.2347 70.0659 45.7153 70.3339C44.6717 70.8929 43.5573 71.3078 42.4025 71.5674C41.0695 71.8486 39.7247 72.1387 38.3771 72.0508C37.0689 71.9644 35.752 71.8721 34.4467 71.5952C33.0918 71.3022 31.7417 70.9975 30.3965 70.6811C30.0965 70.6093 29.9107 70.375 29.6107 70.3354C28.4796 70.1889 27.4465 69.6923 26.3462 69.4228C25.4243 69.1972 24.5361 68.8368 23.6216 68.5805C22.9368 68.3827 22.271 68.1278 21.573 67.9491C21.2628 67.87 20.9219 67.8759 20.6351 67.7235C19.9312 67.35 19.1499 67.1961 18.4051 66.9456C16.974 66.4622 15.5093 66.0843 14.0607 65.6522C13.2486 65.409 12.4423 65.1482 11.6346 64.8933C10.802 64.6297 9.97671 64.3367 9.13241 64.1169C8.64222 63.9895 8.19154 63.717 7.66916 63.717C7.6955 63.4241 4.26416 62.5217 4.26416 62.5217ZM34.7277 57.3741C35.5866 57.3653 36.4982 56.9068 37.1801 55.956C37.8011 55.0581 38.2734 54.0659 38.579 53.0175C39.018 51.6097 39.3399 50.2063 39.157 48.7224C39.0106 47.4816 38.3566 46.5925 37.2416 46.0548C35.992 45.4528 34.634 45.1613 33.3215 44.7364C31.5085 44.1505 29.6824 43.6041 27.8679 43.024C27.3046 42.8438 26.99 42.9493 26.7851 43.5294C26.5452 44.2354 26.3623 44.9606 26.134 45.6696C25.7287 46.9338 25.3321 48.2024 24.9634 49.4783C24.5581 50.8553 24.1264 52.2235 23.7035 53.5961C23.5748 54.0136 23.6552 54.2201 24.0357 54.3447C24.7761 54.5878 25.5194 54.8295 26.2642 55.061C28.0713 55.622 29.8741 56.2021 31.6929 56.7236C32.587 56.98 33.4634 57.3711 34.7277 57.3741Z" fill="white"/>
</svg>
