<svg width="51" height="35" viewBox="0 0 51 35" fill="none" xmlns="http://www.w3.org/2000/svg">
<path d="M49.4555 5.43715C49.1703 4.37768 48.6119 3.41169 47.8361 2.63586C47.0602 1.86004 46.0942 1.30159 45.0348 1.01642C41.1331 -0.0395505 25.4547 -0.0395508 25.4547 -0.0395508C25.4547 -0.0395508 9.77624 -0.0395505 5.87454 1.01642C4.81506 1.30159 3.84907 1.86004 3.07325 2.63586C2.29742 3.41169 1.73897 4.37768 1.4538 5.43715C0.725262 9.4163 0.371724 13.455 0.397831 17.5002C0.371724 21.5454 0.725262 25.5841 1.4538 29.5633C1.73897 30.6228 2.29742 31.5887 3.07325 32.3646C3.84907 33.1404 4.81506 33.6988 5.87454 33.984C9.77624 35.04 25.4547 35.04 25.4547 35.04C25.4547 35.04 41.1331 35.04 45.0348 33.984C46.0942 33.6988 47.0602 33.1404 47.8361 32.3646C48.6119 31.5887 49.1703 30.6228 49.4555 29.5633C50.184 25.5841 50.5376 21.5454 50.5115 17.5002C50.5376 13.455 50.184 9.4163 49.4555 5.43715V5.43715ZM20.4433 25.0173V9.98318L33.4549 17.5002L20.4433 25.0173Z" fill="#D1FBFD"/>
</svg>
