<svg width="771" height="387" viewBox="0 0 771 387" fill="none" xmlns="http://www.w3.org/2000/svg">
<path d="M11.5723 52.9199H48.6328C62.0117 52.9199 72.1191 55.8496 78.9551 61.709C85.8398 67.5684 89.2822 76.0156 89.2822 87.0508C89.2822 99.0137 85.7422 108.242 78.6621 114.736C71.582 121.23 61.5723 124.478 48.6328 124.478H40.5029V160H11.5723V52.9199ZM40.5029 76.2842V100.894H45.7764C50.1221 100.894 53.5645 99.6729 56.1035 97.2314C58.6914 94.79 59.9854 91.4453 59.9854 87.1973C59.9854 79.9219 55.9814 76.2842 47.9736 76.2842H40.5029ZM203.687 160H172.046L166.699 139.932H131.982L126.562 160H94.7754L129.712 52.4805H168.311L203.687 160ZM160.767 116.201L156.152 98.623C152.979 87.4414 150.659 77.9443 149.194 70.1318C148.755 72.6221 147.876 76.7236 146.558 82.4365C145.386 87.9541 142.529 99.209 137.988 116.201H160.767ZM268.14 160H238.989V119.058L203.76 52.9199H235.254L253.564 92.6172L272.021 52.9199H303.369L268.14 118.179V160ZM436.89 160H410.303V113.052C410.303 109.634 410.327 106.948 410.376 104.995C410.425 102.993 410.767 95.6689 411.401 83.0225H410.742L389.136 160H361.597L339.697 82.876H339.038C340.063 96.0107 340.576 106.216 340.576 113.491V160H314.941V52.9199H353.467L375.732 128.945H376.318L398.291 52.9199H436.89V160ZM523.535 76.1377H488.892V92.9834H520.898V116.201H488.892V136.416H523.535V160H459.961V52.9199H523.535V76.1377ZM644.238 160H606.299L567.188 84.5605H566.528C567.456 96.1328 567.92 105.19 567.92 111.733V160H542.285V52.9199H580.078L619.043 127.334H619.482C618.799 116.152 618.457 107.485 618.457 101.333V52.9199H644.238V160ZM740.698 76.5771H714.624V160H685.693V76.5771H659.546V52.9199H740.698V76.5771ZM103.345 343H74.2676V299.348H40.6494V343H11.5723V235.92H40.6494V275.617H74.2676V235.92H103.345V343ZM190.137 259.138H155.493V275.983H187.5V299.201H155.493V319.416H190.137V343H126.562V235.92H190.137V259.138ZM208.887 235.92H243.97C273.071 235.92 287.622 246.467 287.622 267.561C287.622 279.963 281.543 289.558 269.385 296.345L300.659 343H267.847L245.142 304.035H237.817V343H208.887V235.92ZM237.817 257.819V282.282H243.237C253.345 282.282 258.398 277.814 258.398 268.879C258.398 261.506 253.442 257.819 243.53 257.819H237.817ZM319.775 248.371C328.711 238.947 341.675 234.235 358.667 234.235C375.708 234.235 388.623 238.898 397.412 248.225C406.201 257.551 410.596 271.247 410.596 289.313C410.596 307.331 406.177 321.027 397.339 330.402C388.501 339.777 375.61 344.465 358.667 344.465C341.772 344.465 328.833 339.753 319.849 330.329C310.913 320.905 306.445 307.258 306.445 289.387C306.445 271.467 310.889 257.795 319.775 248.371ZM358.667 257.966C344.165 257.966 336.914 268.366 336.914 289.167C336.914 309.968 344.116 320.368 358.521 320.368C365.845 320.368 371.265 317.854 374.78 312.824C378.345 307.795 380.127 299.958 380.127 289.313C380.127 278.669 378.345 270.783 374.78 265.656C371.216 260.529 365.845 257.966 358.667 257.966ZM493.506 259.138H458.862V275.983H490.869V299.201H458.862V319.416H493.506V343H429.932V235.92H493.506V259.138ZM507.275 311.945C512.598 314.729 518.286 316.926 524.341 318.537C530.444 320.148 535.767 320.954 540.308 320.954C544.849 320.954 548.145 320.246 550.195 318.83C552.295 317.365 553.345 315.412 553.345 312.971C553.345 310.285 551.636 307.893 548.218 305.793C546.265 304.572 541.65 302.326 534.375 299.055C527.1 295.783 521.729 292.658 518.262 289.68C511.377 283.82 507.935 275.91 507.935 265.949C507.935 255.939 511.548 248.176 518.774 242.658C526.001 237.141 535.864 234.382 548.364 234.382C559.448 234.382 570.752 236.945 582.275 242.072L573.34 264.411C563.428 259.821 554.81 257.526 547.485 257.526C543.872 257.526 541.162 258.161 539.355 259.431C537.598 260.7 536.719 262.36 536.719 264.411C536.719 266.462 537.793 268.366 539.941 270.124C541.846 271.589 547.534 274.494 557.007 278.84C566.528 283.137 573.12 287.702 576.782 292.536C580.444 297.321 582.275 303.303 582.275 310.48C582.275 310.676 582.275 310.871 582.275 311.066C582.275 320.832 578.491 328.84 570.923 335.09C563.403 341.34 553.491 344.465 541.187 344.465C540.894 344.465 540.601 344.465 540.308 344.465C533.325 344.465 527.368 343.977 522.437 343C517.505 341.975 512.451 340.217 507.275 337.727V311.945Z" fill="#D1FBFD"/>
</svg>
