<svg width="230" height="307" viewBox="0 0 230 307" fill="none" xmlns="http://www.w3.org/2000/svg">
<g clip-path="url(#clip0_198_7499)">
<path d="M251.863 298.183H-370.646V299.76H251.863V298.183Z" fill="#3F3D56"/>
<path d="M91.5428 -0.0525137L60.6468 17.8047L78.4846 48.7343L109.381 30.8771L91.5428 -0.0525137Z" fill="#FF6584"/>
<path d="M91.9352 55.1807L73.309 22.8843L105.57 4.23828L124.196 36.535L91.9352 55.1807ZM75.4621 23.4621L92.5123 53.0252L122.043 35.9572L104.993 6.39373L75.4621 23.4621Z" fill="#2F2E41"/>
<path d="M63.032 141.967C71.3007 141.967 78.0038 135.257 78.0038 126.979C78.0038 118.702 71.3007 111.991 63.032 111.991C54.7634 111.991 48.0603 118.702 48.0603 126.979C48.0603 135.257 54.7634 141.967 63.032 141.967Z" fill="#D0CDE1"/>
<path d="M74.0642 142.756C70.9472 142.756 67.9002 141.831 65.3085 140.097C62.7169 138.363 60.6969 135.899 59.5041 133.017C58.3113 130.134 57.9992 126.962 58.6073 123.901C59.2154 120.841 60.7164 118.03 62.9204 115.823C65.1244 113.617 67.9325 112.114 70.9896 111.505C74.0467 110.897 77.2155 111.209 80.0952 112.403C82.9749 113.597 85.4363 115.619 87.168 118.214C88.8997 120.808 89.8239 123.859 89.8239 126.979C89.8239 131.163 88.1635 135.176 85.208 138.135C82.2525 141.094 78.244 142.756 74.0642 142.756ZM74.0642 112.78C71.2589 112.78 68.5166 113.613 66.1841 115.173C63.8516 116.733 62.0336 118.951 60.9601 121.545C59.8866 124.14 59.6057 126.995 60.153 129.749C60.7003 132.503 62.0511 135.034 64.0348 137.019C66.0184 139.005 68.5457 140.357 71.2971 140.905C74.0485 141.453 76.9004 141.172 79.4921 140.097C82.0839 139.023 84.299 137.203 85.8576 134.868C87.4161 132.533 88.248 129.787 88.248 126.979C88.248 123.213 86.7536 119.602 84.0936 116.939C81.4337 114.276 77.826 112.78 74.0642 112.78Z" fill="#2F2E41"/>
<path d="M157.481 301.771H12.4919C10.7161 301.769 9.01371 301.062 7.75806 299.805C6.5024 298.548 5.79605 296.844 5.79401 295.066V160.174C5.79605 158.396 6.5024 156.692 7.75806 155.435C9.01371 154.178 10.7161 153.471 12.4919 153.469H157.481C159.257 153.471 160.96 154.178 162.215 155.435C163.471 156.692 164.177 158.396 164.179 160.174V295.066C164.177 296.844 163.471 298.548 162.215 299.805C160.96 301.062 159.257 301.769 157.481 301.771Z" fill="#20A4DC"/>
<path d="M95.23 306.508H74.7423C72.9666 306.506 71.2641 305.799 70.0085 304.542C68.7528 303.285 68.0465 301.58 68.0444 299.803V156.167C68.0465 154.389 68.7528 152.685 70.0085 151.428C71.2641 150.171 72.9666 149.464 74.7423 149.462H95.23C97.0057 149.464 98.7082 150.171 99.9638 151.428C101.22 152.685 101.926 154.389 101.928 156.167V299.803C101.926 301.58 101.22 303.285 99.9638 304.542C98.7082 305.799 97.0057 306.506 95.23 306.508Z" fill="#3F3D56"/>
<path d="M196.004 140.115C195.157 154.031 176.38 164.208 176.38 164.208C176.38 164.208 158.976 151.824 159.823 137.908C160.671 123.993 179.447 113.815 179.447 113.815C179.447 113.815 196.851 126.2 196.004 140.115Z" fill="#3F3D56"/>
<path d="M196.854 183.534C182.951 182.729 172.726 163.964 172.726 163.964C172.726 163.964 185.043 146.503 198.946 147.307C212.849 148.112 223.073 166.877 223.073 166.877C223.073 166.877 210.757 184.338 196.854 183.534Z" fill="#3F3D56"/>
<path opacity="0.1" d="M163.786 169.97V221.466L112.622 153.862H151.596L163.786 169.97Z" fill="black"/>
<path d="M207.221 258.12C206.186 258.122 205.164 257.884 204.236 257.423C203.308 256.963 202.5 256.293 201.875 255.467L95.2804 114.626C94.7492 113.924 94.3613 113.125 94.1388 112.273C93.9164 111.421 93.8637 110.533 93.9838 109.661C94.104 108.789 94.3945 107.949 94.8389 107.189C95.2833 106.429 95.8729 105.764 96.574 105.232L112.276 93.3228C112.977 92.7909 113.776 92.4026 114.627 92.1799C115.478 91.9572 116.364 91.9045 117.236 92.0248C118.107 92.1451 118.946 92.4361 119.705 92.8811C120.464 93.3262 121.128 93.9165 121.659 94.6185L228.254 235.459C228.785 236.16 229.173 236.96 229.395 237.812C229.618 238.664 229.67 239.551 229.55 240.424C229.43 241.296 229.139 242.136 228.695 242.896C228.251 243.656 227.661 244.321 226.96 244.852L211.258 256.762C210.097 257.645 208.679 258.122 207.221 258.12Z" fill="#20A4DC"/>
<path d="M164.554 148.681L137.547 169.166L158.009 196.202L185.016 175.718L164.554 148.681Z" fill="#3F3D56"/>
<path d="M25.6254 45.6539L16.3919 80.1514L50.8519 89.3949L60.0854 54.8975L25.6254 45.6539Z" fill="#D0CDE1"/>
<path d="M36.2332 94.5515L0.251343 84.8997L9.89263 48.8779L45.8745 58.5297L36.2332 94.5515ZM2.18129 83.7842L35.119 92.6194L43.9446 59.6452L11.0069 50.81L2.18129 83.7842Z" fill="#2F2E41"/>
</g>
<defs>
<clipPath id="clip0_198_7499">
<rect width="230" height="307" fill="white"/>
</clipPath>
</defs>
</svg>
