<svg width="477" height="304" viewBox="0 0 477 304" fill="none" xmlns="http://www.w3.org/2000/svg">
<path d="M47.0024 270.332C47.0024 270.332 -0.846682 217.952 38.9113 161.24C74.1824 110.928 115.306 114.364 145.478 134.782C158.327 143.479 195.376 135.846 226.909 84.6536C269.912 14.8309 418.974 57.1796 391.796 164.606C378.644 216.59 431.825 218.48 404.727 270.446L47.0024 270.332Z" fill="#EBF3FA"/>
<path d="M434.984 200.803C431.615 188.118 410.624 192.083 410.624 192.083C410.624 192.083 396.372 214.275 392.225 214.808C388.078 215.342 400.777 193.403 400.777 193.403C392.744 192.612 372.272 202.653 372.272 202.653C372.272 202.653 373.567 228.55 369.42 228.021C365.273 227.492 369.42 205.031 369.42 205.031C361.646 207.41 354.39 216.658 354.39 216.658C345.32 231.721 364.756 242.819 364.756 242.819C364.756 242.819 365.015 251.803 359.573 262.109C359.573 262.109 358.345 264.01 357.096 267.245H359.215C359.388 266.666 359.579 266.105 359.791 265.573C359.79 265.571 359.79 265.57 359.79 265.568C359.79 265.566 359.79 265.564 359.791 265.562L359.8 265.54C359.949 265.205 360.153 264.729 360.414 264.152C361.062 262.86 361.499 261.905 361.776 261.215C363.714 257.158 366.512 251.87 368.377 250.762C368.183 250.454 368.03 250.12 367.922 249.771C368.071 250.087 368.22 250.417 368.377 250.762C372.005 258.689 390.14 260.011 400.251 257.897C410.362 255.783 405.952 252.881 400.51 248.158C395.068 243.436 383.666 244.684 380.297 242.838C376.928 240.993 381.852 239.14 388.59 239.668C395.327 240.195 398.696 247.067 409.581 248.123C420.465 249.18 428.757 228.306 428.757 228.306C421.242 230.683 407.766 226.456 407.248 223.813C406.729 221.169 426.684 221.435 429.793 220.642C432.903 219.848 438.353 213.487 434.984 200.803Z" fill="#DFEBFD"/>
<path d="M148.913 204.264C148.913 204.264 149.841 211.798 148.454 211.888C147.068 211.978 148.016 203.416 148.016 203.416C148.016 203.416 141.428 199.661 138.747 199.757C138.747 199.757 142.52 207.295 141.156 207.033C139.792 206.772 135.508 199.114 135.508 199.114C135.508 199.114 128.626 197.363 127.255 201.5C125.883 205.638 127.563 207.853 128.578 208.181C129.593 208.509 136.216 208.834 135.991 209.701C135.766 210.567 131.214 211.688 128.769 210.744C128.769 210.744 131.102 217.839 134.732 217.714C138.361 217.59 139.616 215.381 141.861 215.346C144.106 215.311 145.703 216.026 144.544 216.562C143.386 217.099 139.634 216.456 137.735 217.907C135.836 219.359 134.317 220.231 137.626 221.143C140.936 222.055 146.979 221.993 148.34 219.44L148.511 219.119C148.468 219.233 148.41 219.341 148.34 219.44C148.936 219.845 149.757 221.657 150.321 223.043C150.398 223.278 150.525 223.604 150.714 224.048C150.79 224.247 150.85 224.411 150.891 224.525C151.892 227.614 150.951 232.781 150.951 232.781L151.656 233.021C153.558 227.874 151.035 223.39 151.035 223.39C149.437 219.859 149.702 216.884 149.702 216.884C149.702 216.884 156.37 213.609 153.663 208.424C153.67 208.432 151.447 205.214 148.913 204.264Z" fill="#AFCDFB"/>
<path d="M99.058 237.894C98.4618 228.6 113.429 226.342 113.429 226.342C113.429 226.342 127.985 237.894 130.884 237.273C133.784 236.653 120.329 224.922 120.329 224.922C125.546 222.51 141.527 224.449 141.527 224.449C141.527 224.449 146.49 242.118 149.15 240.794C151.811 239.47 143.975 225.378 143.975 225.378C149.723 225.151 156.671 229.655 156.671 229.655C166.145 237.631 155.611 249.623 155.611 249.623C155.611 249.623 157.461 255.703 163.429 261.346C163.429 261.346 164.68 262.334 166.246 264.211L164.824 264.706C164.578 264.359 164.324 264.029 164.061 263.717L164.049 263.703C163.876 263.513 163.63 263.247 163.325 262.917C162.6 262.201 162.092 261.663 161.751 261.267C159.537 259 156.472 256.111 154.971 255.795C155.032 255.543 155.059 255.283 155.053 255.024C155.026 255.27 155 255.527 154.971 255.795C154.324 261.961 142.458 267.094 135.204 268.043C127.951 268.991 130.251 266.011 132.839 261.574C135.426 257.137 143.35 255.299 145.193 253.27C147.035 251.241 143.318 251.154 138.919 253.086C134.52 255.018 133.807 260.414 126.748 263.671C119.688 266.929 109.412 254.866 109.412 254.866C114.987 254.702 123.072 248.711 122.828 246.81C122.583 244.908 109.263 249.766 106.994 249.962C104.725 250.159 99.6557 247.188 99.058 237.894Z" fill="#CDE0FB"/>
<path d="M379.379 71.1997C379.379 71.1997 377.784 69.9715 377.371 68.1369C377.066 66.7689 377.833 65.065 377.896 64.9875L375.758 64.5527C375.758 64.5527 375.125 67.4407 376.197 69.3696C376.524 69.9579 377.478 70.7695 378.091 71.0735C378.491 71.2728 378.949 71.3176 379.379 71.1997Z" fill="#6BB7BF"/>
<path d="M383.091 69.8743L385.036 72.1436C385.036 72.1436 379.538 73.6317 376.39 69.666C376.399 69.666 381.028 71.262 383.091 69.8743Z" fill="#86D1CD"/>
<path d="M282.848 41.3896C282.848 41.3896 284.833 38.032 288.333 40.087L290.25 37.959C290.25 37.959 288.248 36.6062 284.01 39.5474C281.239 41.4717 282.848 41.3896 282.848 41.3896Z" fill="#F99746"/>
<path d="M280.887 44.6883C280.887 44.6883 280.221 41.0267 286.131 38.3271C286.131 38.3271 284.01 39.5523 283.568 43.2748L280.887 44.6883Z" fill="#F99746"/>
<path d="M160.436 150.381C160.436 150.381 157.188 149.076 158.464 145.569L156.304 144.139C156.304 144.139 155.419 146.172 158.643 149.599C160.752 151.839 160.436 150.381 160.436 150.381Z" fill="#5685D8"/>
<path d="M163.624 151.675C163.624 151.675 160.511 152.836 157.246 147.846C157.246 147.846 158.643 149.598 161.979 149.44L163.624 151.675Z" fill="#739AF0"/>
<path d="M169.8 104.436C169.8 104.436 171.589 103.281 171.783 101.886C171.783 101.886 173.528 101.983 173.905 102.559C173.905 102.559 173.103 104.87 172.16 105.295C172.167 105.303 170.036 105.447 169.8 104.436Z" fill="#F1A34F"/>
<path d="M52.0839 187.916C52.0839 187.916 50.1715 186.685 49.9687 185.195C49.9687 185.195 48.1069 185.299 47.7045 185.914C47.7045 185.914 48.5601 188.378 49.5663 188.84C49.5663 188.84 51.832 188.995 52.0839 187.916Z" fill="#F1A34F"/>
<path d="M266.46 79.1389C266.46 79.1389 263.788 77.4167 263.507 75.3389C263.507 75.3389 260.904 75.4833 260.342 76.3436C260.342 76.3436 261.535 79.7849 262.945 80.4309C262.946 80.4294 266.108 80.6437 266.46 79.1389Z" fill="#86D1CD"/>
<path d="M430.53 71.1361L447.143 124.172C447.493 125.3 447.392 126.523 446.861 127.574C446.331 128.626 445.414 129.422 444.311 129.787L353.068 159.503C351.962 159.86 350.763 159.757 349.732 159.216C348.701 158.675 347.921 157.74 347.563 156.615L330.943 103.571C330.592 102.443 330.695 101.218 331.227 100.166C331.759 99.114 332.679 98.3196 333.784 97.9565L425.025 68.2481C426.131 67.8911 427.33 67.9943 428.361 68.5353C429.392 69.0763 430.172 70.0113 430.53 71.1361Z" fill="#CDE0FB"/>
<path d="M378.058 138.552L353.74 146.473C353.244 146.633 352.706 146.586 352.244 146.343C351.782 146.099 351.433 145.68 351.273 145.175L351.199 144.936C351.042 144.43 351.087 143.882 351.326 143.41C351.564 142.938 351.976 142.582 352.472 142.419L376.788 134.5C377.284 134.34 377.823 134.386 378.285 134.63C378.748 134.873 379.097 135.293 379.257 135.798L379.331 136.037C379.488 136.542 379.443 137.091 379.204 137.562C378.965 138.034 378.553 138.39 378.058 138.552Z" fill="#AFCDFB"/>
<path d="M410.104 128.116L385.787 136.04C385.291 136.2 384.753 136.154 384.29 135.91C383.828 135.667 383.478 135.247 383.319 134.742L383.244 134.505C383.087 133.999 383.133 133.45 383.371 132.978C383.61 132.507 384.022 132.151 384.517 131.988L408.834 124.062C409.33 123.902 409.868 123.949 410.331 124.192C410.793 124.435 411.142 124.855 411.302 125.36L411.377 125.599C411.533 126.105 411.488 126.654 411.249 127.125C411.011 127.597 410.599 127.953 410.104 128.116Z" fill="#AFCDFB"/>
<path d="M381.16 110.2C381.443 111.105 381.521 111.896 381.393 112.573C381.321 112.961 381.147 113.322 380.89 113.618C380.633 113.914 380.303 114.133 379.934 114.254C379.565 114.374 379.171 114.39 378.794 114.301C378.416 114.212 378.069 114.02 377.79 113.746C377.3 113.27 376.913 112.58 376.63 111.676C376.347 110.772 376.268 109.985 376.392 109.314C376.466 108.925 376.641 108.564 376.9 108.268C377.158 107.972 377.489 107.752 377.86 107.631C378.23 107.511 378.625 107.494 379.004 107.582C379.382 107.671 379.731 107.862 380.013 108.135C380.493 108.608 380.876 109.296 381.16 110.2ZM380.044 110.559C379.904 110.072 379.689 109.61 379.407 109.191C379.032 108.676 378.624 108.49 378.184 108.633C377.743 108.776 377.513 109.167 377.492 109.805C377.494 110.316 377.58 110.824 377.744 111.307C378.228 112.849 378.856 113.494 379.628 113.24C380.074 113.094 380.3 112.699 380.305 112.053C380.297 111.544 380.209 111.039 380.044 110.558V110.559Z" fill="#AFCDFB"/>
<path d="M386.154 108.572C386.437 109.477 386.515 110.268 386.386 110.945C386.314 111.333 386.141 111.695 385.884 111.991C385.627 112.287 385.297 112.506 384.928 112.627C384.559 112.747 384.165 112.763 383.787 112.674C383.41 112.585 383.063 112.394 382.784 112.12C382.294 111.643 381.907 110.952 381.624 110.048C381.341 109.144 381.261 108.357 381.385 107.686C381.46 107.297 381.635 106.936 381.893 106.64C382.151 106.344 382.483 106.124 382.853 106.003C383.223 105.883 383.618 105.866 383.997 105.954C384.376 106.043 384.724 106.234 385.006 106.507C385.487 106.981 385.87 107.67 386.154 108.572ZM385.036 108.931C384.896 108.444 384.682 107.982 384.401 107.563C384.025 107.048 383.617 106.862 383.177 107.005C382.73 107.157 382.494 107.543 382.484 108.177C382.487 108.689 382.573 109.196 382.737 109.679C383.22 111.222 383.848 111.868 384.62 111.615C385.067 111.463 385.292 111.074 385.298 110.43C385.29 109.919 385.202 109.413 385.036 108.931Z" fill="#AFCDFB"/>
<path d="M393.72 106.109C394.004 107.012 394.081 107.803 393.953 108.481C393.881 108.869 393.707 109.23 393.45 109.526C393.193 109.822 392.863 110.042 392.494 110.162C392.125 110.282 391.731 110.298 391.354 110.209C390.976 110.12 390.629 109.928 390.35 109.655C389.86 109.177 389.474 108.487 389.19 107.584C388.907 106.682 388.828 105.894 388.952 105.222C389.026 104.833 389.201 104.472 389.46 104.176C389.718 103.88 390.05 103.66 390.42 103.539C390.79 103.419 391.185 103.402 391.564 103.49C391.942 103.579 392.291 103.77 392.573 104.043C393.055 104.516 393.437 105.205 393.72 106.109ZM392.604 106.467C392.464 105.98 392.249 105.518 391.967 105.099C391.592 104.583 391.184 104.398 390.744 104.541C390.303 104.685 390.073 105.076 390.052 105.713C390.054 106.225 390.139 106.732 390.304 107.215C390.787 108.758 391.415 109.404 392.188 109.152C392.633 109.006 392.859 108.61 392.865 107.964C392.857 107.454 392.768 106.949 392.604 106.467Z" fill="#AFCDFB"/>
<path d="M398.714 104.482C398.997 105.387 399.075 106.178 398.946 106.855C398.874 107.243 398.701 107.604 398.444 107.9C398.187 108.196 397.856 108.416 397.487 108.536C397.118 108.657 396.724 108.673 396.346 108.583C395.968 108.494 395.621 108.302 395.342 108.028C394.853 107.553 394.467 106.863 394.184 105.958C393.901 105.053 393.821 104.265 393.945 103.596C394.019 103.207 394.195 102.845 394.453 102.549C394.711 102.253 395.042 102.033 395.412 101.912C395.782 101.792 396.177 101.775 396.556 101.864C396.935 101.952 397.283 102.143 397.565 102.416C398.052 102.889 398.435 103.578 398.714 104.482ZM397.596 104.841C397.457 104.353 397.242 103.891 396.961 103.473C396.585 102.957 396.177 102.771 395.736 102.915C395.294 103.059 395.064 103.449 395.044 104.087C395.047 104.598 395.133 105.105 395.297 105.588C395.78 107.132 396.408 107.777 397.18 107.525C397.626 107.379 397.852 106.983 397.858 106.338C397.849 105.828 397.761 105.322 397.596 104.841Z" fill="#AFCDFB"/>
<path d="M403.706 102.856C403.989 103.76 404.067 104.551 403.938 105.228C403.867 105.617 403.693 105.978 403.437 106.274C403.18 106.57 402.849 106.79 402.48 106.91C402.111 107.031 401.717 107.047 401.339 106.957C400.962 106.868 400.615 106.676 400.336 106.402C399.846 105.927 399.459 105.236 399.176 104.332C398.893 103.427 398.813 102.639 398.937 101.969C399.012 101.58 399.187 101.219 399.445 100.923C399.704 100.627 400.035 100.407 400.405 100.286C400.775 100.166 401.171 100.149 401.549 100.238C401.928 100.326 402.277 100.517 402.558 100.79C403.041 101.264 403.424 101.953 403.706 102.856ZM402.589 103.214C402.45 102.727 402.235 102.265 401.953 101.846C401.577 101.331 401.169 101.145 400.729 101.288C400.289 101.432 400.058 101.823 400.037 102.46C400.04 102.972 400.126 103.479 400.291 103.962C400.774 105.504 401.401 106.15 402.174 105.899C402.62 105.753 402.845 105.357 402.85 104.712C402.843 104.199 402.755 103.692 402.589 103.208V103.214Z" fill="#AFCDFB"/>
<path d="M408.7 101.232C408.983 102.136 409.06 102.928 408.932 103.606C408.859 103.994 408.686 104.355 408.429 104.65C408.172 104.946 407.842 105.165 407.473 105.285C407.104 105.406 406.71 105.422 406.333 105.333C405.956 105.244 405.609 105.053 405.329 104.78C404.839 104.303 404.453 103.612 404.17 102.708C403.886 101.804 403.807 101.017 403.931 100.346C404.006 99.9573 404.181 99.596 404.439 99.3001C404.698 99.0042 405.029 98.7846 405.399 98.6641C405.77 98.5437 406.165 98.527 406.543 98.6156C406.922 98.7043 407.27 98.8951 407.552 99.1681C408.034 99.6393 408.416 100.327 408.7 101.232ZM407.583 101.591C407.443 101.104 407.228 100.642 406.947 100.223C406.571 99.7082 406.163 99.5222 405.723 99.6651C405.283 99.808 405.052 100.199 405.031 100.837C405.033 101.348 405.118 101.856 405.283 102.339C405.766 103.881 406.394 104.527 407.167 104.275C407.614 104.123 407.838 103.734 407.844 103.09C407.836 102.578 407.748 102.071 407.583 101.588V101.591Z" fill="#AFCDFB"/>
<path d="M416.266 98.7648C416.549 99.6697 416.627 100.461 416.499 101.137C416.425 101.524 416.252 101.884 415.995 102.178C415.739 102.473 415.41 102.691 415.042 102.811C414.674 102.931 414.282 102.948 413.905 102.86C413.529 102.772 413.183 102.582 412.903 102.311C412.413 101.835 412.027 101.145 411.743 100.241C411.46 99.3368 411.381 98.5494 411.505 97.8786C411.579 97.4897 411.755 97.1282 412.013 96.8322C412.271 96.5361 412.603 96.3162 412.973 96.1956C413.343 96.0751 413.738 96.0582 414.117 96.1467C414.496 96.2353 414.844 96.4261 415.126 96.6991C415.603 97.1723 415.983 97.8609 416.266 98.7648ZM415.15 99.1235C415.01 98.636 414.795 98.1742 414.513 97.7555C414.137 97.2407 413.729 97.0548 413.289 97.1977C412.849 97.3405 412.618 97.7312 412.598 98.3696C412.6 98.881 412.686 99.3885 412.851 99.8713C413.334 101.415 413.961 102.06 414.734 101.808C415.179 101.662 415.404 101.266 415.41 100.621C415.403 100.111 415.315 99.605 415.15 99.1235Z" fill="#AFCDFB"/>
<path d="M421.26 97.1388C421.543 98.0427 421.62 98.8336 421.492 99.5115C421.42 99.8996 421.246 100.261 420.989 100.556C420.733 100.852 420.402 101.072 420.033 101.192C419.664 101.312 419.27 101.329 418.893 101.239C418.515 101.15 418.169 100.959 417.889 100.685C417.399 100.209 417.013 99.5186 416.73 98.6147C416.446 97.7108 416.367 96.9235 416.491 96.2526C416.565 95.8637 416.741 95.5023 416.999 95.2062C417.257 94.9101 417.589 94.6903 417.959 94.5697C418.329 94.4491 418.724 94.4322 419.103 94.5208C419.482 94.6093 419.83 94.8001 420.112 95.0731C420.594 95.5474 420.976 96.2359 421.26 97.1388ZM420.143 97.4975C420.002 97.0104 419.788 96.5488 419.507 96.1295C419.131 95.6137 418.723 95.4278 418.283 95.5717C417.843 95.7156 417.612 96.1062 417.591 96.7436C417.593 97.255 417.678 97.7624 417.843 98.2454C418.326 99.7887 418.954 100.434 419.726 100.182C420.173 100.036 420.399 99.6402 420.404 98.9947C420.396 98.4847 420.308 97.9793 420.143 97.4975Z" fill="#AFCDFB"/>
<path d="M426.252 95.5118C426.535 96.4167 426.613 97.2077 426.486 97.8846C426.413 98.2728 426.24 98.6339 425.983 98.9299C425.726 99.2258 425.396 99.4455 425.026 99.5658C424.657 99.6862 424.263 99.7026 423.886 99.6135C423.508 99.5244 423.161 99.333 422.881 99.0595C422.392 98.5822 422.006 97.8917 421.722 96.9878C421.437 96.0839 421.358 95.2965 421.483 94.6257C421.557 94.2367 421.733 93.8753 421.991 93.5792C422.249 93.2831 422.581 93.0633 422.951 92.9427C423.321 92.8221 423.716 92.8052 424.095 92.8938C424.474 92.9824 424.822 93.1732 425.104 93.4462C425.587 93.9204 425.969 94.609 426.252 95.5118ZM425.135 95.8706C424.996 95.3829 424.781 94.9211 424.499 94.5026C424.123 93.9868 423.715 93.8008 423.275 93.9447C422.835 94.0886 422.604 94.4793 422.583 95.1166C422.586 95.6281 422.671 96.1355 422.837 96.6184C423.32 98.1617 423.947 98.8072 424.719 98.5549C425.166 98.4105 425.392 98.0138 425.398 97.3693C425.389 96.8587 425.3 96.3527 425.135 95.8706Z" fill="#AFCDFB"/>
<path d="M431.245 93.8856C431.528 94.7905 431.606 95.5819 431.478 96.2598C431.405 96.6476 431.231 97.0083 430.974 97.3038C430.718 97.5992 430.387 97.8186 430.018 97.9387C429.65 98.0589 429.256 98.0753 428.879 97.9863C428.501 97.8974 428.155 97.7063 427.875 97.4332C427.385 96.956 426.998 96.2654 426.715 95.3615C426.432 94.4576 426.353 93.6702 426.477 92.9994C426.551 92.6106 426.727 92.2493 426.985 91.9534C427.243 91.6575 427.575 91.4379 427.945 91.3175C428.315 91.197 428.71 91.1803 429.089 91.2689C429.468 91.3576 429.816 91.5484 430.097 91.8214C430.579 92.2946 430.962 92.9827 431.245 93.8856ZM430.129 94.2443C429.989 93.7568 429.774 93.295 429.492 92.8763C429.117 92.3605 428.709 92.1745 428.268 92.3184C427.828 92.4623 427.598 92.853 427.577 93.4904C427.579 94.0017 427.665 94.509 427.829 94.9921C428.314 96.5344 428.942 97.1799 429.713 96.9286C430.16 96.7766 430.385 96.3875 430.39 95.743C430.383 95.2309 430.295 94.7232 430.129 94.2397V94.2443Z" fill="#AFCDFB"/>
<path d="M364.44 96.9059L340.642 104.658C340.146 104.818 339.608 104.771 339.146 104.528C338.684 104.284 338.335 103.865 338.175 103.36C338.018 102.854 338.064 102.305 338.302 101.833C338.541 101.362 338.953 101.006 339.448 100.843L363.246 93.0907C363.742 92.9305 364.28 92.9772 364.743 93.2204C365.205 93.4636 365.555 93.8837 365.714 94.3888C365.871 94.895 365.825 95.4437 365.586 95.9153C365.347 96.3869 364.935 96.743 364.44 96.9059Z" fill="#AFCDFB"/>
<path d="M422.243 82.5546C422.035 81.8882 421.609 81.3144 421.037 80.9282C421 80.9024 420.957 80.8851 420.912 80.8775C420.867 80.8699 420.821 80.8721 420.777 80.884C420.733 80.896 420.692 80.9173 420.657 80.9467C420.621 80.9761 420.593 81.0128 420.572 81.0543L420.496 81.2063C420.461 81.277 420.453 81.3583 420.472 81.435C420.492 81.5116 420.538 81.5784 420.602 81.6228C421.015 81.9059 421.321 82.3228 421.473 82.8058C421.624 83.2889 421.611 83.8098 421.435 84.2843C421.408 84.3582 421.408 84.4398 421.435 84.5138C421.463 84.5877 421.516 84.6488 421.585 84.6856L421.734 84.7662C421.774 84.7872 421.818 84.7993 421.863 84.8019C421.908 84.8044 421.953 84.7973 421.995 84.781C422.037 84.7647 422.075 84.7395 422.107 84.7071C422.139 84.6747 422.164 84.6358 422.181 84.5929C422.429 83.9406 422.451 83.2214 422.243 82.5546Z" fill="#AFCDFB"/>
<path d="M423.785 82.0523C423.442 80.9571 422.719 80.0273 421.752 79.4379C421.714 79.4158 421.672 79.4017 421.628 79.3967C421.585 79.3916 421.541 79.3956 421.499 79.4084C421.457 79.4212 421.418 79.4425 421.385 79.4711C421.351 79.4997 421.324 79.5349 421.304 79.5747L421.263 79.6613C421.226 79.7355 421.219 79.8209 421.242 79.9004C421.265 79.9799 421.316 80.0476 421.386 80.0899C422.194 80.5861 422.797 81.3647 423.084 82.2807C423.371 83.1967 423.322 84.1878 422.946 85.0695C422.913 85.146 422.91 85.2323 422.938 85.3108C422.966 85.3893 423.022 85.4541 423.095 85.492L423.178 85.5376C423.217 85.5595 423.26 85.5729 423.304 85.577C423.348 85.5811 423.392 85.5759 423.434 85.5616C423.476 85.5473 423.515 85.5243 423.548 85.494C423.581 85.4637 423.607 85.4268 423.625 85.3856C424.075 84.3316 424.132 83.146 423.785 82.0523Z" fill="#AFCDFB"/>
<path d="M425.135 81.6118C424.677 80.1458 423.697 78.9082 422.388 78.1432C422.35 78.1206 422.308 78.1062 422.265 78.1009C422.221 78.0956 422.177 78.0995 422.135 78.1124C422.093 78.1252 422.054 78.1467 422.021 78.1755C421.987 78.2044 421.96 78.2399 421.941 78.28C421.904 78.3545 421.896 78.4408 421.92 78.5209C421.943 78.601 421.996 78.6688 422.067 78.7101C423.237 79.3951 424.112 80.5011 424.523 81.811C424.933 83.1208 424.848 84.5397 424.284 85.7888C424.25 85.8656 424.247 85.9528 424.275 86.0321C424.303 86.1114 424.359 86.1767 424.433 86.2144C424.472 86.236 424.515 86.2492 424.559 86.2532C424.603 86.2572 424.647 86.2519 424.689 86.2376C424.731 86.2234 424.77 86.2005 424.803 86.1703C424.835 86.1401 424.862 86.1034 424.88 86.0624C425.508 84.6635 425.599 83.0757 425.135 81.6118Z" fill="#AFCDFB"/>
<path d="M426.599 81.136C426.016 79.2692 424.758 77.6986 423.081 76.7432C423.043 76.7211 423.001 76.7072 422.958 76.7022C422.914 76.6973 422.87 76.7014 422.828 76.7143C422.787 76.7273 422.748 76.7488 422.714 76.7775C422.681 76.8063 422.653 76.8416 422.634 76.8815L422.561 77.0335C422.523 77.1084 422.516 77.1952 422.54 77.2757C422.564 77.3562 422.617 77.4241 422.689 77.4652C424.185 78.321 425.307 79.7233 425.828 81.3893C426.35 83.0552 426.233 84.861 425.5 86.4423C425.465 86.5182 425.46 86.605 425.486 86.6846C425.512 86.7642 425.568 86.8304 425.64 86.8694L425.79 86.9485C425.828 86.9699 425.871 86.9829 425.915 86.9868C425.959 86.9906 426.003 86.9853 426.045 86.9711C426.087 86.9568 426.126 86.934 426.159 86.904C426.192 86.8739 426.218 86.8374 426.237 86.7965C427.059 85.0252 427.188 83.0012 426.599 81.136Z" fill="#AFCDFB"/>
<path d="M365.199 117.188H313.252V269.764H365.199V117.188Z" fill="#FFA412"/>
<path d="M313.25 117.188H176.013V269.764H313.25V117.188Z" fill="#FFB93E"/>
<path d="M313.252 202.504V191.824H176.014V202.504H313.252Z" fill="#FFA412"/>
<path d="M365.199 202.504V191.824H313.252V202.504H365.199Z" fill="#FA9712"/>
<path d="M270.635 118.822C270.635 118.822 301.64 98.2774 322.72 104.88L318.374 109.021L320.326 115.976C320.326 115.976 296.891 108.194 269.994 119.991L270.635 118.822Z" fill="#F99746"/>
<path d="M268.909 114.169C268.909 114.169 263.438 113.494 255.284 112.345C233.639 109.305 193.094 102.957 185.821 97.0794C174.375 87.856 201.471 48.64 213.2 43.1939C224.928 37.7477 268.909 114.169 268.909 114.169Z" fill="#F99746"/>
<path d="M354.681 65.3361C356.636 75.0519 268.095 117.016 268.095 117.016C268.095 117.016 269.706 112.576 272.327 105.616V105.605C281.9 80.2047 304.96 21.2576 312.538 22.0738C313.298 22.1544 314.189 22.431 315.184 22.8764C326.83 28.1067 352.882 56.3924 354.681 65.3361Z" fill="#F99746"/>
<path d="M314.444 31.5233C309.038 41.0993 272.899 104.623 272.334 105.614C281.907 80.2135 304.967 21.2664 312.545 22.0826C312.545 22.0826 314.046 22.0385 315.191 22.8852C316.573 23.9112 317.43 26.2352 314.444 31.5233Z" fill="#ED7D2B"/>
<path d="M255.292 112.351H255.277C233.632 109.311 193.087 102.963 185.814 97.0853C182.534 87.6476 191.055 86.8785 197.259 86.2143C203.463 85.5501 255.292 112.351 255.292 112.351Z" fill="#ED7D2B"/>
<path d="M252.387 117.176C252.387 117.176 257.35 105.662 267.12 105.023C277.322 104.357 283.117 117.176 283.117 117.176H252.387Z" fill="#ED7D2B"/>
<path d="M315.452 117.188H171.853V138.173H315.452V117.188Z" fill="#FFC261"/>
<path d="M369.577 117.188H315.452V138.173H369.577V117.188Z" fill="#FA9712"/>
<path d="M257.418 115.429C257.418 115.429 229.292 106.345 210.314 112.351C188.439 119.274 189.734 146.8 189.734 146.8L194.88 144.643L201.831 147.966C201.831 147.966 203.004 118.818 220.839 114.738C236.254 111.211 257.418 115.429 257.418 115.429Z" fill="#F99746"/>
<path d="M242.99 117.188H232.517V269.747H242.99V117.188Z" fill="#FFA412"/>
<path d="M146.846 71.3817L137.231 74.668L146.513 102.907L156.128 99.6206L146.846 71.3817Z" fill="#ED7D2B"/>
<path d="M137.231 74.6691L111.831 83.3506L121.113 111.589L146.513 102.908L137.231 74.6691Z" fill="#F99746"/>
<path d="M142.564 90.8811L141.91 88.9014L116.46 97.6429L117.113 99.6227L142.564 90.8811Z" fill="#FFB93E"/>
<path d="M152.212 87.634L151.558 85.6543L141.924 88.9633L142.578 90.943L152.212 87.634Z" fill="#F69B34"/>
<path d="M130.217 76.5833C130.217 76.5833 136.82 70.3179 142.698 69.833L141.857 70.9426L142.833 72.0613C142.833 72.0613 136.265 72.5173 130.13 76.8508L130.217 76.5833Z" fill="#FFB93E"/>
<path d="M128.839 76.9122C128.839 76.9122 127.785 77.1341 126.207 77.4381C122.015 78.2452 114.133 79.6345 112.421 79.0067C109.738 78.0203 112.372 69.0492 114.21 67.3027C116.048 65.5562 128.839 76.9122 128.839 76.9122Z" fill="#FFB93E"/>
<path d="M141.745 62.4521C142.698 64.1241 128.863 77.5001 128.863 77.5001C128.863 77.5001 128.891 76.5759 128.954 75.1228C129.181 69.8149 129.863 57.4467 131.315 57.1184C131.493 57.0847 131.674 57.078 131.853 57.0986C134.325 57.3236 140.864 60.9093 141.745 62.4521Z" fill="#FFB93E"/>
<path d="M132.241 58.7385C131.823 60.8544 128.999 74.8961 128.961 75.1165C129.188 69.8087 129.871 57.4405 131.323 57.1121C131.496 57.0522 131.683 57.0453 131.861 57.0924C132.171 57.1957 132.472 57.5712 132.241 58.7385Z" fill="#F69B34"/>
<path d="M126.21 77.4412C122.018 78.2484 114.136 79.6376 112.424 79.0099C111.241 77.4701 112.773 76.7892 113.881 76.2739C114.988 75.7586 126.21 77.4412 126.21 77.4412Z" fill="#F69B34"/>
<path d="M125.965 78.5176C125.965 78.5176 126.184 76.0734 127.954 75.3377C129.801 74.5686 131.653 76.575 131.653 76.575L125.965 78.5176Z" fill="#F69B34"/>
<path d="M137.64 74.5304L111.062 83.6143L112.339 87.4983L138.917 78.4144L137.64 74.5304Z" fill="#FFA15A"/>
<path d="M147.658 71.1044L137.64 74.5283L138.917 78.4124L148.934 74.9884L147.658 71.1044Z" fill="#F78639"/>
<path d="M126.79 77.877C126.79 77.877 121.039 77.9758 117.885 80.2862C114.256 82.9507 116.172 87.9637 116.172 87.9637L116.992 87.2386L118.482 87.415C118.482 87.415 116.926 81.943 119.973 80.0627C122.616 78.4318 126.79 77.877 126.79 77.877Z" fill="#FFBE55"/>
<path d="M124.227 79.1151L122.289 79.7773L131.651 108.26L133.589 107.597L124.227 79.1151Z" fill="#FFB93E"/>
<path d="M314.337 133.374C314.337 133.374 310.534 135.654 312.867 140.082C312.867 140.082 309.539 139.462 308.82 138.448C308.863 138.668 308.932 138.881 309.027 139.083C309.027 139.083 305.967 138.375 304.965 137.074C303.964 135.773 308.874 120.173 316.829 124.212C316.829 124.212 324.104 125.589 321.255 133.824C318.406 142.06 321.099 142.792 321.099 142.792C321.099 142.792 320.252 142.967 319.89 142.868C319.89 142.868 319.416 142.52 319.389 142.195C319.389 142.195 319.371 142.69 319.468 142.876C319.468 142.876 316.487 142.373 315.328 140.862C314.17 139.351 313.478 134.998 314.337 133.374Z" fill="#233862"/>
<path d="M318.087 143.919C318.199 144.94 318.333 145.855 318.386 146.291C318.52 147.27 309.421 146.633 308.846 146.632C309.25 146.452 310.485 142.459 310.874 140.936C311.348 139.09 311.72 137.094 311.72 137.094L318.146 137.509L318.527 137.533C318.306 138.362 318.132 139.203 318.005 140.052C317.991 140.157 317.974 140.264 317.961 140.368C317.846 141.237 317.95 142.658 318.087 143.919Z" fill="#FFB27D"/>
<path d="M310.836 136.433C310.836 136.433 309.792 133.065 310.005 130.481C310.154 128.637 312.73 122.346 318.919 125.023C320.167 125.556 321.282 126.368 322.182 127.398C323.328 128.739 324.806 131.36 321.073 136.449L319.988 138.215L310.836 136.433Z" fill="#233862"/>
<path d="M318.087 143.919C313.593 142.576 311.69 137.282 311.69 137.282C313.59 137.338 316.066 138.685 318.01 140.052C317.995 140.157 317.979 140.264 317.965 140.368C317.846 141.237 317.95 142.658 318.087 143.919Z" fill="#ED975D"/>
<path d="M318.405 142.06C318.405 142.06 310.286 140.012 311.614 134.876C312.942 129.74 312.787 126.014 318.023 127.104C323.26 128.194 323.761 130.424 323.727 132.248C323.692 134.072 320.551 142.459 318.405 142.06Z" fill="#FFB27D"/>
<path d="M321.742 127.972C321.742 127.972 317.965 133.4 314.337 133.374C310.709 133.348 309.475 132.021 309.475 132.021C309.475 132.021 312.629 130.614 314.127 127.075C314.127 127.072 320.817 124.654 321.742 127.972Z" fill="#233862"/>
<path d="M321.067 128.314C321.067 128.314 322.372 130.104 322.434 131.521C322.497 132.937 321.987 135.678 322.774 135.795C322.774 135.795 325.505 132.147 324.232 129.327C322.881 126.335 321.067 128.314 321.067 128.314Z" fill="#233862"/>
<path d="M321.321 128.6C321.321 128.6 318.105 134.484 313.295 135.347C313.295 135.347 318.588 132.628 320.033 128.562C321.477 124.496 321.321 128.6 321.321 128.6Z" fill="#233862"/>
<path d="M317.138 138.766C317.138 138.766 317.239 139.549 317.734 139.733C318.229 139.916 319.523 140.252 319.654 140.17C319.876 139.954 320.082 139.722 320.273 139.477C320.273 139.477 318.22 138.676 317.138 138.766Z" fill="white"/>
<path d="M314.106 217.342C314.007 217.783 313.904 218.218 313.799 218.647C313.186 221.242 312.617 223.648 312.258 225.661C311.791 228.28 311.681 230.228 312.293 231.048C314.816 234.419 312.293 261.175 312.293 261.175L309.424 264.19C309.424 264.19 304.435 237.774 303.081 233.638C302.466 231.756 301.568 223.72 300.777 215.516C300.737 215.111 300.698 214.7 300.659 214.283C300.522 212.849 300.391 211.42 300.263 210.027C299.553 202.265 299.022 195.618 299.022 195.618C299.022 195.618 304.314 191.818 309.123 191.401C311.955 191.149 314.619 192.069 315.935 195.618C317.85 200.775 315.91 209.692 314.106 217.342Z" fill="#FFB27D"/>
<path d="M314.106 217.342C310.174 214.446 304.642 209.286 302.628 200.847C302.245 196.647 305.492 192.656 309.117 191.396C311.949 191.143 314.613 192.063 315.929 195.612C317.85 200.775 315.91 209.692 314.106 217.342Z" fill="#ED975D"/>
<path d="M328.446 166.321L347.77 171.412V173.712C347.77 173.712 328.541 173.482 327.3 171.298C326.058 169.114 328.446 166.321 328.446 166.321Z" fill="#FFB27D"/>
<path d="M347.77 242.162L346.867 245.962C346.867 245.962 320.726 232.193 317.353 229.546C315.995 228.482 314.2 222.715 312.538 216.189C310.062 206.461 307.88 195.061 307.88 195.061C307.88 195.061 311.545 180.69 321.355 189.486C327.225 194.75 326.311 204.891 325.669 212.78C325.241 218.073 324.932 222.356 326.879 223.461C330.677 225.622 341.82 235.577 345.345 242.425L347.77 242.162Z" fill="#FFB27D"/>
<path d="M303.426 178.278C296.599 176.507 289.095 165.708 289.095 165.708L291.018 164.007C293.008 166.399 301.282 170.52 301.282 170.52C301.237 168.331 301.294 166.334 301.431 164.516C302.349 152.161 306.917 148.047 308.163 147.142C308.264 147.066 308.37 146.997 308.48 146.936C308.48 146.936 308.48 147.025 308.491 147.195C308.51 147.562 308.543 148.302 308.577 149.323C308.828 156.878 309.13 179.76 303.426 178.278Z" fill="#FFB27D"/>
<path d="M308.832 163.452C308.479 172.268 307.192 180.993 303.423 180.43C298.811 179.745 297.609 175.355 297.363 172.091C297.271 170.883 297.294 169.668 297.432 168.465C297.432 168.465 299.701 168.454 300.069 168.109C301.813 166.467 301.294 150.361 302.156 148.689C303.017 147.017 308.619 145.944 308.619 145.944C308.619 145.944 309.185 154.736 308.832 163.452Z" fill="white"/>
<path d="M308.832 163.452C308.479 172.268 307.192 180.993 303.423 180.43C298.811 179.745 297.609 175.355 297.363 172.092C298.496 172.034 300.494 171.751 301.282 170.52C302.417 168.755 305.955 157.402 305.955 157.402C305.955 157.402 307.346 159.951 308.832 163.452Z" fill="#DFEBFD"/>
<path d="M337.925 166.322C339.175 168.132 338.487 171.642 335.865 174.469C334.235 176.225 332.031 177.263 328.441 176.723C326.878 176.488 322.506 173.972 322.047 170.903C321.963 170.347 321.917 170.022 321.917 170.022C321.917 170.022 319.927 172.054 319.852 172.437C319.82 172.61 319.648 174.145 319.621 174.355C319.59 174.609 319.77 175.541 319.77 175.541C319.77 175.541 310.262 179.781 302.402 174.952C302.402 174.952 300.166 155.369 301.77 152.11C302.57 150.49 307.057 147.337 308.619 145.945C308.969 145.63 309.327 144.686 309.23 144.078C309.15 143.564 309.731 142.698 310.215 142.862C311.156 143.166 313.814 144.511 315.685 143.999C316.616 143.747 317.798 142.649 318.702 142.9C319.805 143.204 318.639 145.916 319.265 145.952C320.127 145.995 324.78 146.945 325.174 147.711C325.31 147.977 326.648 151.592 328.325 156.375C328.326 156.379 328.326 156.383 328.325 156.387C331.478 165.348 336.094 163.665 337.925 166.322Z" fill="white"/>
<path d="M321.921 170.021C321.921 170.021 321.69 162.55 321.099 162.641C320.507 162.733 311.965 171.115 313.994 174.469C316.023 177.822 321.921 170.021 321.921 170.021Z" fill="#DFEBFD"/>
<path d="M328.446 200.654C328.446 200.654 325.154 201.691 320.305 202.375C314.3 203.221 305.906 203.527 298.411 200.654C298.411 200.654 297.793 189.278 299.569 183.35C301.346 177.422 302.175 174.582 302.175 174.582C302.175 174.582 309.291 176.406 316.519 174.99C317.546 174.794 318.558 174.527 319.55 174.192C319.55 174.192 324.008 183.844 325.235 187.98C326.462 192.116 328.446 200.654 328.446 200.654Z" fill="#2B478B"/>
<path d="M328.446 200.654C328.446 200.654 325.155 201.69 320.306 202.374C311.412 197.232 315.749 175.596 315.749 175.596C316.013 175.378 316.27 175.175 316.519 174.988C317.546 174.792 318.558 174.525 319.55 174.19C319.55 174.19 324.008 183.842 325.235 187.978C326.462 192.114 328.446 200.654 328.446 200.654Z" fill="#233862"/>
<path d="M309.733 176.723C304.462 176.723 302.288 174.873 302.13 174.747L301.789 172.216C301.84 172.254 308.914 176.584 319.86 172.436L319.629 174.354C315.416 175.949 312.471 176.723 309.733 176.723Z" fill="#B64C41"/>
<path d="M347.77 171.412C347.77 171.412 351.316 169.63 352.725 169.458C354.134 169.287 356.502 169.227 356.502 169.458C356.502 169.69 353.968 171.295 353.289 171.412C352.609 171.529 351.316 172.505 351.71 172.628C352.104 172.751 354.192 172.254 354.219 172.628C354.246 173.002 352.95 173.236 352.728 173.518C352.506 173.801 351.713 174.151 350.444 173.974C349.176 173.798 347.773 173.715 347.773 173.715L347.77 171.412Z" fill="#FFB27D"/>
<path d="M291.89 164.444L289.962 166.158C289.962 166.158 286.534 163.608 286.376 162.562V162.457C286.376 161.37 288.548 159.113 290.353 159.029C290.525 159.026 290.694 159.069 290.845 159.154C291.806 159.762 291.919 162.322 291.912 163.644C291.909 164.118 291.89 164.444 291.89 164.444Z" fill="#FFB27D"/>
<path d="M347.77 242.162L346.867 245.962C346.867 245.962 320.726 232.194 317.353 229.546C315.995 228.482 314.2 222.715 312.538 216.189C314.774 216.656 319.587 216.905 325.669 212.772C325.241 218.065 324.932 222.348 326.879 223.454C330.677 225.615 341.82 235.569 345.345 242.417L347.77 242.162Z" fill="#2B478B"/>
<path d="M352.937 243.638H352.914C352.797 243.609 352.259 243.428 351.904 242.556C351.668 241.981 351.598 241.51 351.382 240.942L350.5 239.388C349.577 238.149 349.252 238.44 349.252 238.44C349.252 238.44 349.01 238.754 348.656 239.171C348.067 239.858 347.165 240.815 346.524 241.062C346.151 241.199 345.832 241.455 345.612 241.791C345.481 241.984 345.388 242.201 345.339 242.43C345.339 242.43 347.235 242.766 347.07 243.719C346.748 245.562 346.824 245.897 346.856 245.958L346.868 245.97C346.868 245.97 350.102 247.695 351.135 248.034C352.974 248.642 353.935 249.91 354.532 250.493C354.65 250.61 354.794 250.696 354.951 250.747C355.108 250.797 355.274 250.81 355.437 250.784C355.921 250.705 356.55 250.547 356.689 250.243L352.937 243.638Z" fill="#233862"/>
<path d="M312.293 231.048C314.816 234.419 312.293 261.176 312.293 261.176L309.424 264.19C309.424 264.19 304.435 237.774 303.081 233.638C302.466 231.756 301.568 223.72 300.777 215.517C303.162 216.603 309.004 218.973 313.799 218.651C313.186 221.245 312.617 223.652 312.258 225.664C311.791 228.28 311.681 230.229 312.293 231.048Z" fill="#233862"/>
<path d="M315.178 265.531L313.629 266.386C313.067 266.589 312.602 266.648 312.033 266.87C311.168 267.209 310.558 267.873 310.53 267.992C310.093 269.803 309.473 269.688 309.473 269.688L303.253 269.747C302.955 269.595 303.455 268.317 303.7 268.075C304.296 267.484 306.049 267.782 306.69 265.924C307.052 264.88 308.838 261.635 308.838 261.635L308.85 261.624C308.91 261.592 309.241 261.524 311.038 261.905C311.968 262.102 312.353 260.179 312.353 260.179C312.577 260.238 312.787 260.341 312.972 260.483C313.295 260.717 313.535 261.05 313.659 261.434C313.881 262.092 314.795 263.041 315.448 263.661C315.846 264.036 316.148 264.292 316.148 264.292C316.148 264.292 316.419 264.632 315.178 265.531Z" fill="#233862"/>
<path d="M252.645 192.362H226.226V269.957H252.645V192.362Z" fill="#4A75CB"/>
<path d="M226.226 192.362H156.432V269.957H226.226V192.362Z" fill="#739AF0"/>
<path d="M226.226 235.749V230.318H156.432V235.749H226.226Z" fill="#AFCDFB"/>
<path d="M252.643 235.75V230.319H226.225V235.75H252.643Z" fill="#88B3FF"/>
<path d="M207.346 191.168C207.346 191.168 228.744 181.265 243.659 185.028L240.678 187.061L242.179 190.648C242.179 190.648 225.585 186.24 206.914 191.754L207.346 191.168Z" fill="#4A75CB"/>
<path d="M203.679 190.787C203.679 190.787 200.897 190.445 196.751 189.863C185.742 188.319 165.124 185.089 161.423 182.099C155.609 177.404 169.387 157.46 175.353 154.692C181.318 151.924 203.679 190.787 203.679 190.787Z" fill="#72A9F7"/>
<path d="M247.304 165.954C248.298 170.894 203.271 192.239 203.271 192.239C203.271 192.239 204.089 189.98 205.422 186.443C210.29 173.523 222.017 143.547 225.871 143.962C226.336 144.029 226.788 144.166 227.213 144.37C233.134 147.021 246.388 161.403 247.304 165.954Z" fill="#72A9F7"/>
<path d="M226.842 148.758C224.092 153.622 205.714 185.934 205.426 186.437C210.294 173.517 222.021 143.541 225.876 143.956C226.352 143.956 226.819 144.098 227.217 144.364C227.924 144.887 228.364 146.072 226.842 148.758Z" fill="#4A75CB"/>
<path d="M196.763 189.863C185.754 188.319 165.136 185.089 161.435 182.099C159.764 177.3 164.1 176.908 167.248 176.571C170.396 176.233 196.763 189.863 196.763 189.863Z" fill="#4A75CB"/>
<path d="M195.281 192.316C195.281 192.316 197.806 186.461 202.774 186.136C207.963 185.798 210.91 192.316 210.91 192.316H195.281Z" fill="#4A75CB"/>
<path d="M227.344 192.362H154.315V203.034H227.344V192.362Z" fill="#88B3FF"/>
<path d="M254.872 192.362H227.346V203.034H254.872V192.362Z" fill="#3969B7"/>
<path d="M197.831 191.468C197.831 191.468 183.521 186.848 173.875 189.903C162.749 193.423 163.41 207.421 163.41 207.421L166.026 206.325L169.559 208.014C169.559 208.014 170.155 193.192 179.224 191.116C187.073 189.322 197.831 191.468 197.831 191.468Z" fill="#4A75CB"/>
<path d="M190.493 192.362H185.167V270.626H190.493V192.362Z" fill="#AFCDFB"/>
<path d="M71.9137 160.5C71.9137 160.5 91.59 175.202 96.3987 174.847C101.207 174.493 118.253 163.77 118.253 163.77L114.647 159.4C114.647 159.4 99.213 165.23 96.3868 163.622C93.5606 162.014 82.524 148.369 77.8926 149.099C73.2612 149.828 68.685 155.215 71.9137 160.5Z" fill="#233862"/>
<path d="M60.3122 270.958H54.4317C53.6864 270.55 53.032 269.61 52.8233 268.212C52.5356 266.28 50.4129 265.226 49.9538 263.652C49.4947 262.077 51.8484 259.852 51.8484 259.852L52.2419 259.333L52.6504 258.797L56.5543 259.735C56.5543 259.735 56.6512 260.682 56.7034 261.89C56.7548 262.809 56.7608 263.731 56.7213 264.65C56.605 266.757 57.2981 269.026 59.1346 269.437C60.497 269.73 60.4374 270.551 60.3122 270.958Z" fill="#233862"/>
<path d="M94.4415 270.958H80.9931C80.3462 270.154 80.5847 267.184 80.6831 266.215C80.7024 266.018 80.7159 265.911 80.7159 265.911C80.7159 265.911 85.3085 262.165 85.933 265.033C85.9509 265.123 85.9748 265.211 86.0001 265.298C86.7946 267.981 90.3602 269.2 92.4188 269.54C93.7603 269.755 94.2582 270.464 94.4415 270.958Z" fill="#233862"/>
<path d="M91.8791 194.408C91.8791 194.408 91.1815 203.28 90.3617 213.945C89.2482 228.432 87.9081 246.226 87.7769 249.598C87.5474 255.451 86.6277 264.814 86.6277 264.814C86.6277 264.814 84.4484 267.04 80.0853 266.102C80.0853 266.102 76.1963 252.735 75.0858 238.59C75.0694 238.357 75.0515 238.123 75.0351 237.891C74.0021 223.493 72.3952 193.177 72.3952 193.177L91.8791 194.408Z" fill="#F99746"/>
<path d="M91.8791 194.408C91.8791 194.408 91.1815 203.281 90.3617 213.945L75.0858 238.595C75.0694 238.362 75.0515 238.128 75.0351 237.895C74.0021 223.498 72.3952 193.182 72.3952 193.182L91.8791 194.408Z" fill="#ED7D2B"/>
<path d="M88.6922 195.463C88.6922 195.463 76.1217 227.594 67.8577 242.694C59.5937 257.793 57.0104 262.007 57.0104 262.007C57.0104 262.007 52.2747 260.075 51.8439 258.758C51.8439 258.758 55.0056 229.608 60.5402 222.502C63.6706 218.486 67.3405 206.437 67.5134 202.224C67.6863 198.01 68.6328 189.67 68.6328 189.67L88.6922 195.463Z" fill="#F99746"/>
<path d="M80.4088 149.72C75.7237 151.883 66.78 148.687 66.78 148.687C66.78 148.687 70.8703 144.692 69.7881 137.566L73.9261 140.202L76.7359 141.993C76.8351 143.14 76.8729 144.292 76.8492 145.443C76.8492 146.024 76.8253 146.673 76.7925 147.384C78.1284 147.93 79.3542 148.722 80.4088 149.72Z" fill="#FFB27D"/>
<path d="M76.7359 141.992C76.8351 143.14 76.8729 144.292 76.8492 145.443C73.9514 145.291 70.1801 141.014 70.1801 141.014C71.5738 140.406 72.8304 140.178 73.9261 140.202L76.7359 141.992Z" fill="#ED975D"/>
<path d="M78.2131 141.69C78.2131 141.69 70.3128 144.045 68.9578 139.01C67.6028 133.976 65.6591 130.887 70.6407 129.171C75.6224 127.455 77.1264 129.1 77.9821 130.668C78.8377 132.237 80.2314 140.948 78.2131 141.69Z" fill="#FFB27D"/>
<path d="M92.3696 191.246C92.6155 193.566 92.7303 195.011 92.6751 195.069C92.5482 195.213 92.3748 195.307 92.1862 195.332C90.3527 195.531 85.1341 197.224 80.5593 197.308C76.7046 197.404 73.1971 196.668 69.3796 195.457C68.8743 195.295 67.6952 194.829 67.6565 194.279C67.6013 193.671 67.5566 192.798 67.5074 191.695C67.3136 187.852 66.9857 181.243 65.6561 173.734C65.4116 172.337 65.2089 170.944 65.0389 169.569C63.7898 159.326 64.717 150.068 68.3601 146.523C68.6746 146.231 70.8941 147.02 72.9407 147.753C74.6643 148.371 76.5432 148.371 78.2668 147.753L80.1315 149.065C82.4137 150.755 84.9716 153.12 86.422 157.008C87.6562 160.317 88.8711 166.408 89.8921 172.748C90.3557 175.624 90.7984 178.524 91.1487 181.286L91.1607 181.384C91.2173 181.655 91.2531 181.956 91.2859 182.23C91.3495 182.72 91.4121 183.202 91.4737 183.677C91.8493 186.627 92.1579 189.258 92.3696 191.246Z" fill="#2B478B"/>
<path d="M68.8922 138.518C68.8922 138.518 69.7016 138.275 69.4318 137.13C69.162 135.985 68.9846 134.468 69.9431 134.637C70.9016 134.806 71.0372 135.557 71.3652 135.067C71.6931 134.578 71.4799 132.72 74.2197 132.252C76.9595 131.784 78.1937 132.623 79.4056 131.892C80.6175 131.161 80.449 129.176 80.449 129.176C80.449 129.176 80.1673 129.927 79.6441 130.219C79.6441 130.219 81.4328 126.975 78.7139 125.236C75.995 123.497 73.6339 125.145 72.2118 125.409C69.0815 125.991 67.0662 126.434 66.2851 128.674C65.504 130.915 66.6309 136.732 68.8922 138.518Z" fill="#2B478B"/>
<path d="M92.3696 191.246C91.982 191.318 85.2503 192.55 80.6741 189.477C75.9623 186.312 70.4425 167.548 70.4425 167.548C70.4425 167.548 81.0259 179.556 81.2316 180.022C81.403 180.422 89.035 182.895 91.4692 183.678C91.8493 186.627 92.1579 189.258 92.3696 191.246Z" fill="#233862"/>
<path d="M147.232 131.012L94.8778 131.776L95.6271 185.162L147.981 184.398L147.232 131.012Z" fill="#ED7D2B"/>
<path d="M136.059 131.175L83.7045 131.939L84.4538 185.326L136.808 184.561L136.059 131.175Z" fill="#F99746"/>
<path d="M90.5555 148.339C90.4854 143.3 93.8721 139.177 98.9641 139.105C104.005 139.032 107.461 143.003 107.526 148.092C107.596 153.081 104.21 157.253 99.1176 157.328C94.0763 157.401 90.63 153.429 90.5555 148.339ZM119.435 139.219L125.375 139.132L100.365 175.129L94.4251 175.215L119.435 139.219ZM102.293 148.173C102.26 145.78 100.933 143.713 98.9358 143.742C96.84 143.772 95.7697 145.824 95.8055 148.267C95.8383 150.66 97.1649 152.728 99.1623 152.699C101.249 152.664 102.319 150.561 102.285 148.168L102.293 148.173ZM112.28 166.261C112.21 161.222 115.596 157.1 120.688 157.025C125.73 156.952 129.185 160.924 129.251 166.015C129.321 171.003 125.934 175.176 120.842 175.249C115.795 175.312 112.344 171.341 112.274 166.25L112.28 166.261ZM124.01 166.091C123.977 163.698 122.65 161.631 120.653 161.66C118.557 161.69 117.487 163.741 117.522 166.185C117.555 168.577 118.883 170.645 120.879 170.616C122.968 170.575 124.038 168.472 124.004 166.08L124.01 166.091Z" fill="white"/>
<path d="M110.063 187.023C108.297 186.988 106.03 186.214 105.302 185.845C104.633 185.523 104.01 185.11 103.449 184.618L103.636 183.432L103.859 182.014C103.859 182.014 103.995 181.993 104.222 181.969C104.448 181.944 104.766 181.92 105.126 181.914C105.311 181.961 105.504 181.963 105.689 181.917C105.874 181.872 106.046 181.782 106.189 181.654C106.669 181.216 107.553 180.92 108.224 181.084C108.895 181.248 110.333 181.095 110.379 181.333C110.491 181.911 108.394 181.806 108.143 182.168C108.072 182.25 108.035 182.357 108.038 182.467C108.042 182.577 108.087 182.681 108.164 182.757C108.164 182.757 108.164 182.757 108.172 182.765C109.401 184.027 113.629 184.486 113.459 185.489C113.401 185.864 110.812 187.036 110.063 187.023Z" fill="#FFB27D"/>
<path d="M67.2182 160.36C67.2182 160.36 76.9073 183.186 81.2301 185.361C85.5529 187.536 105.304 185.846 105.304 185.846L105.435 181.95C105.435 181.95 88.4283 178.517 86.7872 175.671C85.146 172.826 82.3883 155.364 78.0312 153.605C73.6741 151.847 67.0543 154.128 67.2182 160.36Z" fill="#2B478B"/>
<path d="M409.674 221.464C409.46 221.598 409.242 221.727 409.02 221.851C408.946 221.892 408.871 221.935 408.795 221.974C408.624 222.067 408.452 222.157 408.279 222.245C404.364 224.203 399.871 224.591 395.689 223.331C391.507 222.071 387.942 219.255 385.7 215.442C383.457 211.629 382.701 207.096 383.58 202.741C384.46 198.386 386.912 194.526 390.45 191.927C391.019 191.51 391.612 191.128 392.225 190.783C392.449 190.658 392.673 190.538 392.899 190.424C393.118 190.313 393.346 190.206 393.562 190.106C395.217 189.354 396.978 188.871 398.78 188.674C402.709 188.249 406.664 189.201 409.993 191.372C413.322 193.544 415.826 196.807 417.094 200.623C418.362 204.44 418.319 208.583 416.97 212.371C415.621 216.159 413.048 219.366 409.674 221.464Z" fill="#FFB93E"/>
<path d="M400.735 222.665C396.874 222.67 393.144 221.238 390.245 218.638C387.345 216.038 385.476 212.449 384.987 208.544C384.498 204.639 385.423 200.686 387.589 197.426C389.755 194.167 393.013 191.826 396.751 190.842C400.489 189.857 404.451 190.298 407.894 192.08C411.336 193.863 414.023 196.865 415.449 200.524C416.875 204.182 416.943 208.246 415.641 211.952C414.338 215.658 411.754 218.752 408.373 220.654C406.034 221.969 403.407 222.661 400.735 222.665ZM400.708 191.301C397.44 191.303 394.263 192.401 391.667 194.425C389.07 196.449 387.198 199.287 386.338 202.502C385.478 205.717 385.678 209.131 386.908 212.219C388.137 215.307 390.328 217.897 393.143 219.591C395.957 221.285 399.24 221.989 402.485 221.594C405.73 221.199 408.758 219.728 411.103 217.406C413.448 215.084 414.979 212.041 415.462 208.745C415.944 205.449 415.351 202.083 413.774 199.164C412.486 196.781 410.594 194.794 408.295 193.411C405.997 192.028 403.377 191.299 400.708 191.301Z" fill="#FFA412"/>
<path d="M400.722 194.601L404.217 201.822L412.033 202.98L406.377 208.601L407.713 216.539L400.722 212.79L393.732 216.539L395.066 208.601L389.412 202.98L397.228 201.822L400.722 194.601Z" fill="#FFA412"/>
<path d="M420.098 178.296C419.976 178.371 419.854 178.448 419.729 178.514L419.602 178.584C419.505 178.637 419.408 178.687 419.304 178.736C417.002 179.895 414.346 180.088 411.905 179.274C409.465 178.459 407.435 176.703 406.249 174.38C405.064 172.058 404.818 169.354 405.565 166.849C406.311 164.344 407.99 162.237 410.242 160.979C410.368 160.908 410.496 160.841 410.622 160.775C410.749 160.71 410.871 160.652 410.997 160.596C411.932 160.172 412.926 159.899 413.944 159.789C416.163 159.545 418.397 160.08 420.278 161.306C422.16 162.531 423.575 164.373 424.292 166.528C425.009 168.684 424.984 171.024 424.222 173.163C423.46 175.303 422.005 177.113 420.098 178.296Z" fill="#FFB93E"/>
<path d="M415.053 178.975C412.875 178.977 410.771 178.169 409.136 176.702C407.501 175.235 406.447 173.21 406.172 171.008C405.897 168.805 406.42 166.575 407.642 164.737C408.864 162.899 410.702 161.579 412.81 161.024C414.919 160.47 417.154 160.719 419.095 161.725C421.037 162.73 422.552 164.424 423.356 166.488C424.16 168.551 424.198 170.843 423.463 172.934C422.728 175.024 421.27 176.769 419.363 177.841C418.043 178.584 416.56 178.974 415.053 178.975ZM415.038 161.275C413.193 161.276 411.4 161.896 409.935 163.038C408.469 164.18 407.412 165.782 406.927 167.596C406.441 169.411 406.554 171.338 407.248 173.081C407.942 174.824 409.178 176.286 410.767 177.242C412.355 178.198 414.208 178.595 416.04 178.372C417.871 178.15 419.58 177.319 420.904 176.009C422.227 174.699 423.092 172.981 423.364 171.121C423.637 169.261 423.302 167.361 422.412 165.713C421.684 164.369 420.616 163.247 419.319 162.466C418.022 161.685 416.544 161.273 415.038 161.272V161.275Z" fill="#FFA412"/>
<path d="M415.045 163.137L417.019 167.213L421.43 167.867L418.237 171.039L418.991 175.519L415.045 173.404L411.101 175.519L411.854 171.039L408.662 167.867L413.073 167.213L415.045 163.137Z" fill="#FFA412"/>
<path d="M251.711 48.5822C251.64 48.6719 251.562 48.76 251.489 48.8467C251.464 48.8771 251.439 48.9059 251.412 48.9348C251.352 49.0002 251.293 49.0655 251.231 49.1294C249.851 50.5658 247.993 51.4212 246.023 51.5259C244.054 51.6307 242.118 50.9772 240.599 49.6949C239.08 48.4127 238.088 46.5953 237.821 44.6029C237.554 42.6105 238.031 40.5886 239.157 38.9378C239.338 38.6724 239.534 38.4186 239.745 38.1778C239.821 38.0896 239.894 38.0045 239.979 37.9209C240.064 37.8373 240.128 37.7598 240.214 37.6838C240.456 37.4498 240.712 37.2319 240.982 37.0317C242.527 35.8799 244.43 35.3418 246.336 35.5182C248.242 35.6946 250.019 36.5734 251.335 37.99C252.651 39.4066 253.416 41.2638 253.486 43.2139C253.555 45.1639 252.926 47.0731 251.714 48.5837L251.711 48.5822Z" fill="#CDE0FB"/>
<path d="M245.677 50.8822C243.794 50.8799 241.987 50.1222 240.647 48.7726C239.307 47.4231 238.542 45.5902 238.517 43.67C238.491 41.7497 239.207 39.8964 240.511 38.5104C241.815 37.1243 243.601 36.317 245.483 36.2627C247.366 36.2084 249.194 36.9116 250.572 38.2203C251.95 39.5291 252.768 41.3382 252.849 43.2568C252.93 45.1755 252.267 47.0496 251.004 48.4741C249.741 49.8986 247.979 50.7593 246.099 50.87C245.953 50.8791 245.817 50.8822 245.677 50.8822ZM245.695 36.7036C245.564 36.7036 245.431 36.7036 245.299 36.7158C243.54 36.8228 241.893 37.6312 240.714 38.9662C239.535 40.3011 238.918 42.0555 238.997 43.8503C239.076 45.6451 239.845 47.3361 241.136 48.558C242.428 49.7798 244.139 50.4345 245.9 50.3805C247.661 50.3265 249.331 49.5682 250.548 48.2693C251.765 46.9705 252.433 45.2354 252.406 43.4391C252.379 41.6427 251.66 39.9293 250.404 38.669C249.149 37.4087 247.457 36.7027 245.695 36.7036Z" fill="#AFCDFB"/>
<path d="M228.714 264.492C228.586 264.654 228.455 264.812 228.319 264.967C228.273 265.02 228.227 265.072 228.179 265.119C228.073 265.236 227.967 265.351 227.858 265.465C225.393 268.029 222.073 269.555 218.556 269.741C215.04 269.928 211.583 268.76 208.87 266.471C206.157 264.181 204.387 260.937 203.909 257.379C203.431 253.822 204.28 250.211 206.289 247.262C206.609 246.788 206.958 246.335 207.333 245.904C207.47 245.752 207.608 245.6 207.751 245.448C207.894 245.296 208.029 245.163 208.172 245.024C209.235 243.998 210.449 243.148 211.77 242.504C214.651 241.104 217.913 240.745 221.021 241.487C224.128 242.229 226.895 244.027 228.867 246.587C230.838 249.146 231.896 252.313 231.867 255.567C231.838 258.822 230.723 261.969 228.707 264.491L228.714 264.492Z" fill="#CDE0FB"/>
<path d="M217.937 268.603C214.564 268.604 211.326 267.251 208.922 264.837C206.519 262.424 205.144 259.143 205.093 255.704C205.043 252.264 206.322 248.943 208.653 246.457C210.984 243.971 214.181 242.521 217.553 242.419C220.925 242.317 224.2 243.572 226.672 245.912C229.144 248.253 230.613 251.491 230.763 254.928C230.912 258.364 229.73 261.722 227.471 264.277C225.212 266.831 222.058 268.377 218.691 268.58C218.438 268.595 218.187 268.603 217.937 268.603ZM217.968 243.276C217.733 243.276 217.497 243.276 217.26 243.298C214.115 243.487 211.168 244.931 209.058 247.317C206.948 249.703 205.843 252.84 205.983 256.05C206.122 259.26 207.494 262.285 209.803 264.472C212.111 266.659 215.171 267.832 218.321 267.737C221.47 267.642 224.457 266.288 226.635 263.966C228.814 261.645 230.009 258.542 229.963 255.33C229.916 252.117 228.632 249.052 226.388 246.796C224.144 244.541 221.119 243.277 217.968 243.276Z" fill="#AFCDFB"/>
<path d="M214.817 246.487L219.383 251.029L225.639 249.769L222.814 255.6L225.922 261.278L219.611 260.341L215.275 265.11L214.2 258.699L208.412 255.968L214.058 252.944L214.817 246.487Z" fill="#AFCDFB"/>
<path d="M18.129 269.747H428.364C428.487 269.747 428.605 269.797 428.693 269.886C428.78 269.974 428.829 270.095 428.829 270.221V270.384C428.829 270.509 428.78 270.63 428.693 270.719C428.605 270.808 428.487 270.858 428.364 270.858H18.129C18.0677 270.858 18.007 270.845 17.9504 270.822C17.8938 270.798 17.8424 270.763 17.7991 270.718C17.7557 270.674 17.7214 270.622 17.6979 270.564C17.6745 270.506 17.6624 270.444 17.6624 270.382V270.219C17.6628 270.093 17.7121 269.973 17.7996 269.884C17.8871 269.795 18.0055 269.745 18.129 269.745V269.747Z" fill="#2E3552"/>
<path d="M272.731 172.139C272.731 172.139 270.785 173.492 268.623 173.27C267.017 173.104 265.436 171.589 265.374 171.488L264.094 173.756C264.094 173.756 267.02 175.566 269.529 175.071C270.298 174.919 271.544 174.141 272.106 173.551C272.474 173.172 272.696 172.671 272.731 172.139Z" fill="#6BB7BF"/>
<path d="M272.677 167.413L275.892 166.056C275.892 166.056 275.453 172.87 269.93 174.952C269.93 174.952 273.418 170.287 272.677 167.413Z" fill="#86D1CD"/>
<path d="M295.238 248.873C295.238 248.873 296.64 250.495 298.022 250.463C298.022 250.463 298.207 252.237 297.708 252.708C297.708 252.708 295.344 252.269 294.774 251.387C294.774 251.387 294.297 249.271 295.238 248.873Z" fill="#F99746"/>
<path d="M273.208 226.575C273.208 226.575 271.938 225.002 271.956 223.12C271.969 221.722 273.105 220.241 273.184 220.181L271.203 219.252C271.203 219.252 269.927 221.915 270.531 224.04C270.715 224.691 271.458 225.712 271.985 226.147C272.328 226.436 272.763 226.588 273.208 226.575Z" fill="#CDE0FB"/>
<path d="M277.124 226.176L278.498 228.843C278.498 228.843 272.811 228.995 270.66 224.384C270.66 224.376 274.797 227.027 277.124 226.176Z" fill="#CDE0FB"/>
</svg>
