<svg width="349" height="221" viewBox="0 0 349 221" fill="none" xmlns="http://www.w3.org/2000/svg">
<path d="M345.053 157.56C348.885 145.508 349.549 132.673 346.983 120.29C342.803 100.97 329.343 77.5799 290.503 67.4899C216.963 48.3799 191.433 -7.51012 122.653 10.2999C122.653 10.2999 85.7332 17.0099 68.2632 78.0899C50.7932 139.17 -17.6868 140.21 5.88318 193.39C9.73318 202.09 20.1032 211.57 34.9932 220.53L313.993 219.59C333.223 196.41 339.223 176.36 345.053 157.56Z" fill="#EBEBFF"/>
<path d="M279.203 113.88H268.743V102.43C268.74 99.6933 267.812 97.0382 266.109 94.896C264.406 92.7538 262.029 91.2503 259.363 90.6299V76.4199H255.513V90.3599C252.505 90.6391 249.71 92.0315 247.675 94.2642C245.641 96.4969 244.513 99.4091 244.513 102.43V114.21H234.053V127.35H233.353V151.78L214.423 151.65V122.45H192.773V143.83H177.563V164.59H159.173V219.59H309.983V150.24H279.173L279.203 113.88Z" fill="#D6D7F4"/>
<path d="M63.2434 144.09V116.76H73.4934V102.15H77.3434V116.76H86.7734V144.09H97.3634V160.46H114.243V104.69H149.473V219.56H126.513H116.623H91.7434H80.2434H50.2134V144.09H63.2434Z" fill="#D6D7F4"/>
<path d="M255.733 219.29L95.1431 219.41C92.2257 219.41 89.4278 218.251 87.3649 216.188C85.302 214.125 84.1431 211.327 84.1431 208.41L266.753 208.27C266.756 209.718 266.472 211.152 265.92 212.49C265.367 213.828 264.555 215.044 263.531 216.068C262.507 217.092 261.292 217.904 259.953 218.457C258.615 219.009 257.181 219.293 255.733 219.29V219.29Z" fill="#3D5AC4"/>
<path d="M255.723 215.5L95.143 215.62C92.8901 215.621 90.6912 214.93 88.8437 213.64C86.9963 212.351 85.5893 210.525 84.813 208.41H84.123C84.123 211.327 85.282 214.125 87.3449 216.188C89.4078 218.251 92.2057 219.41 95.123 219.41L255.713 219.29C258.63 219.29 261.428 218.131 263.491 216.068C265.554 214.005 266.713 211.207 266.713 208.29H266.053C265.277 210.405 263.87 212.231 262.022 213.52C260.175 214.81 257.976 215.501 255.723 215.5V215.5Z" fill="#5571E9"/>
<path d="M185.803 212.02H165.053C164.076 212.02 163.139 211.633 162.448 210.943C161.756 210.253 161.366 209.317 161.363 208.34V208.34H189.483C189.478 209.314 189.089 210.247 188.4 210.936C187.711 211.625 186.778 212.015 185.803 212.02V212.02Z" fill="#27429C"/>
<path d="M257.333 208.27L93.5234 208.4L93.4434 109.53C93.4421 108.18 93.7067 106.844 94.2222 105.597C94.7378 104.35 95.4941 103.216 96.4478 102.261C97.4016 101.307 98.5342 100.549 99.7809 100.033C101.028 99.5159 102.364 99.2499 103.713 99.2499L246.983 99.1399C248.332 99.1386 249.668 99.4029 250.914 99.9178C252.161 100.433 253.294 101.188 254.248 102.141C255.203 103.094 255.96 104.225 256.478 105.47C256.995 106.716 257.262 108.051 257.263 109.4L257.333 208.27Z" fill="#5571E9"/>
<path d="M248.763 107.73H102.013V199.79H248.763V107.73Z" fill="#312C76"/>
<path d="M248.793 190.99H102.043V199.79H248.793V190.99Z" fill="#151247"/>
<path d="M248.733 107.73H101.983V112.1H248.733V107.73Z" fill="#151247"/>
<path opacity="0.16" d="M150.923 107.75L102.013 156.73L102.053 199.85H102.153L194.143 107.72L150.923 107.75Z" fill="#5571E9"/>
<path opacity="0.16" d="M120.993 199.84L142.673 199.82L234.653 107.69L212.983 107.71L120.993 199.84Z" fill="#5571E9"/>
<path opacity="0.16" d="M231.533 199.75L248.783 182.48L248.763 149.79L196.983 199.77L231.533 199.75Z" fill="#5571E9"/>
<path d="M257.333 147.06H93.4434V165.15H257.333V147.06Z" fill="#F5D100"/>
<path d="M113.893 171.49H99.793L111.933 143.73H126.033L113.893 171.49Z" fill="white"/>
<path d="M143.963 171.49H129.863L142.003 143.73H156.103L143.963 171.49Z" fill="white"/>
<path d="M174.033 171.49H159.933L172.073 143.73H186.173L174.033 171.49Z" fill="white"/>
<path d="M204.113 171.49H190.003L202.143 143.73H216.243L204.113 171.49Z" fill="white"/>
<path d="M234.183 171.49H220.083L232.213 143.73H246.313L234.183 171.49Z" fill="white"/>
<path d="M80.2831 115.78L77.0831 115.9L75.2131 115.31C74.7938 115.169 74.3396 115.171 73.9216 115.316C73.5037 115.461 73.1455 115.74 72.9031 116.11L72.6631 116.46L82.0331 121.63L83.8431 117.75L80.2831 115.78Z" fill="#14103D"/>
<path d="M82.0533 121.78L72.6133 116.56L72.9433 115.96C72.9766 115.906 73.0292 115.866 73.0905 115.85C73.1518 115.833 73.2171 115.84 73.2733 115.87L82.5033 120.96L82.0533 121.78Z" fill="#14103D"/>
<path d="M83.8432 117.79L86.3232 113.51L83.8432 109.09L80.2832 115.82L83.8432 117.79Z" fill="#EB8175"/>
<path d="M103.233 93.1599C103.233 93.1599 89.8829 89.3299 88.5929 92.9299C87.3029 96.5299 79.5229 112.48 79.5229 112.48L85.3329 115.48L94.0529 100.37L105.783 99.3699L103.233 93.1599Z" fill="#14103D"/>
<path d="M92.3834 120.68L89.7634 122.34L87.8434 122.73C87.4088 122.811 87.0131 123.033 86.7182 123.362C86.4233 123.691 86.2458 124.109 86.2134 124.55V124.97H96.9134L96.6134 120.69L92.3834 120.68Z" fill="#14103D"/>
<path d="M96.9133 125.03H86.1333V124.35C86.1333 124.286 86.1586 124.225 86.2036 124.18C86.2486 124.135 86.3096 124.11 86.3733 124.11H96.9133V125.04" fill="#14103D"/>
<path d="M96.5733 120.68L96.9133 113.51L92.6533 113.03L92.3833 120.68H96.5733Z" fill="#EB8175"/>
<path d="M105.053 92.55L92.4731 93.12C92.4731 93.12 90.6631 93.2201 90.7831 97.4501C90.9031 101.68 90.8931 118.73 90.8931 118.73L96.8931 118.94L98.0531 101.09L110.643 100.93C111.949 100.931 113.228 100.553 114.324 99.8435C115.421 99.1337 116.289 98.1219 116.823 96.93C117.264 95.9664 117.383 94.8866 117.163 93.8501L105.053 92.55Z" fill="#231C61"/>
<path d="M93.0534 90.0101C93.0534 91.2001 92.2434 91.3801 91.0534 91.3901C89.8634 91.4001 88.7334 91.2101 88.7334 90.0201C88.7334 89.7364 88.7893 89.4556 88.8978 89.1935C89.0064 88.9314 89.1655 88.6933 89.3661 88.4928C89.5666 88.2922 89.8047 88.1331 90.0668 88.0245C90.3289 87.916 90.6097 87.8601 90.8934 87.8601C91.177 87.8601 91.4579 87.916 91.72 88.0245C91.9821 88.1331 92.2202 88.2922 92.4207 88.4928C92.6213 88.6933 92.7804 88.9314 92.889 89.1935C92.9975 89.4556 93.0534 89.7364 93.0534 90.0201V90.0101Z" fill="#E1AD9D"/>
<path d="M94.6133 91.2299H92.1133C91.7995 91.2299 91.4983 91.1059 91.2754 90.8849C91.0525 90.6639 90.926 90.3638 90.9233 90.0499V90.0499C90.9233 89.7343 91.0487 89.4316 91.2719 89.2084C91.495 88.9853 91.7977 88.8599 92.1133 88.8599H94.6033C94.7591 88.8586 94.9137 88.8881 95.058 88.9468C95.2023 89.0056 95.3336 89.0923 95.4442 89.202C95.5548 89.3117 95.6426 89.4422 95.7026 89.586C95.7625 89.7298 95.7933 89.8841 95.7933 90.0399V90.0399C95.7933 90.3538 95.6693 90.655 95.4483 90.8778C95.2273 91.1007 94.9272 91.2273 94.6133 91.2299Z" fill="#E1AD9D"/>
<path d="M94.5131 91.4799L93.6831 87.39L103.953 86.27L106.013 74.27C106.213 73.18 107.793 71.83 108.883 72.04L108.573 71.95C109.14 72.082 109.642 72.4127 109.987 72.8822C110.331 73.3517 110.497 73.9291 110.453 74.51L108.453 88.8699C108.383 89.2488 108.206 89.5995 107.941 89.8798C107.677 90.1601 107.337 90.3581 106.963 90.45L94.5131 91.4799Z" fill="#C8C6F2"/>
<path d="M115.053 72.3C115.265 72.3217 115.473 72.3687 115.673 72.44H115.773C116.626 72.8209 117.357 73.4293 117.886 74.1985C118.415 74.9677 118.722 75.8678 118.773 76.8L117.163 93.8C106.543 93.78 105.053 92.55 105.053 92.55L105.903 75.13C106.023 73.49 106.783 71.94 108.653 71.79L115.053 72.3Z" fill="#D8D7FD"/>
<path d="M103.313 91.3499C103.393 92.5399 102.603 92.7699 101.413 92.8499C100.223 92.9299 99.0832 92.8499 99.0032 91.6399C98.9809 91.3552 99.0153 91.0688 99.1045 90.7974C99.1936 90.5261 99.3357 90.2751 99.5225 90.059C99.7092 89.8429 99.937 89.666 100.193 89.5385C100.448 89.4111 100.727 89.3356 101.012 89.3164C101.297 89.2972 101.583 89.3348 101.853 89.4268C102.123 89.5189 102.373 89.6637 102.587 89.8528C102.801 90.0419 102.975 90.2716 103.1 90.5286C103.225 90.7856 103.297 91.0647 103.313 91.3499V91.3499Z" fill="#EB8175"/>
<path d="M104.913 92.4601L102.413 92.6301C102.258 92.6409 102.102 92.6211 101.955 92.5716C101.808 92.5222 101.672 92.4441 101.555 92.3419C101.438 92.2397 101.342 92.1153 101.273 91.976C101.204 91.8367 101.163 91.6851 101.153 91.5301V91.5301C101.134 91.2176 101.239 90.9101 101.444 90.6742C101.65 90.4384 101.941 90.2931 102.253 90.2701L104.743 90.1001C104.899 90.0878 105.056 90.1067 105.204 90.1555C105.353 90.2043 105.49 90.2821 105.608 90.3845C105.726 90.4868 105.823 90.6116 105.892 90.7516C105.962 90.8916 106.003 91.0441 106.013 91.2001V91.2001C106.032 91.5126 105.928 91.8201 105.722 92.0559C105.516 92.2918 105.225 92.437 104.913 92.4601V92.4601Z" fill="#EB8175"/>
<path d="M104.833 92.7201L103.723 88.7201L114.923 86.9201L114.283 76.5101C114.375 75.9159 114.668 75.3715 115.115 74.9688C115.561 74.5661 116.133 74.3299 116.733 74.3C117.3 74.4079 117.81 74.7112 118.176 75.1572C118.541 75.6032 118.739 76.1634 118.733 76.7401L119.533 89.2101C119.487 89.5928 119.331 89.954 119.085 90.2503C118.838 90.5466 118.511 90.7652 118.143 90.8801L104.833 92.7201Z" fill="#D8D7FD"/>
<path d="M85.4634 78.89L97.6734 80.05C97.8699 80.0633 98.0552 80.1461 98.1962 80.2835C98.3373 80.4209 98.4249 80.6039 98.4434 80.8L99.7234 91.8C99.7473 91.9296 99.7407 92.063 99.7042 92.1896C99.6677 92.3162 99.6023 92.4327 99.513 92.5296C99.4238 92.6266 99.3132 92.7016 99.1901 92.7485C99.0669 92.7954 98.9345 92.813 98.8034 92.8L86.3834 91.63C86.1852 91.6121 85.9996 91.5252 85.8589 91.3845C85.7182 91.2438 85.6313 91.0582 85.6134 90.86L84.5334 79.86C84.5164 79.732 84.5283 79.6019 84.5685 79.4792C84.6086 79.3565 84.6758 79.2445 84.7651 79.1513C84.8544 79.0581 84.9636 78.9863 85.0845 78.941C85.2053 78.8958 85.3349 78.8783 85.4634 78.89V78.89Z" fill="#091218"/>
<path d="M84.7633 78.8299L96.9733 79.9799C97.1678 79.9989 97.35 80.0835 97.49 80.2198C97.6299 80.3561 97.7193 80.536 97.7433 80.7299L99.0533 91.7799C99.0754 91.9101 99.0673 92.0437 99.0294 92.1702C98.9916 92.2967 98.9252 92.4128 98.8352 92.5095C98.7453 92.6062 98.6343 92.6809 98.5108 92.7278C98.3874 92.7747 98.2548 92.7925 98.1233 92.7799L85.7133 91.6099C85.5152 91.592 85.3296 91.5051 85.1889 91.3644C85.0481 91.2237 84.9613 91.0381 84.9433 90.8399L83.8633 79.8399C83.8383 79.7114 83.8433 79.5788 83.8779 79.4525C83.9126 79.3262 83.9759 79.2097 84.0631 79.1119C84.1502 79.0141 84.2587 78.9378 84.3802 78.8889C84.5017 78.84 84.6328 78.8198 84.7633 78.8299V78.8299Z" fill="#1B2934"/>
<path d="M99.3932 91.8799L107.733 92.6699C107.854 92.6826 107.966 92.7418 108.044 92.835C108.123 92.9283 108.162 93.0484 108.153 93.1699V93.1699C108.138 93.2919 108.077 93.4034 107.982 93.4816C107.887 93.5597 107.766 93.5985 107.643 93.5899L98.8032 92.7899L99.3932 91.8799Z" fill="#091218"/>
<path d="M91.7634 85.5C91.7404 85.7645 91.6395 86.0161 91.4733 86.2231C91.3071 86.4301 91.0833 86.583 90.83 86.6626C90.5768 86.7421 90.3057 86.7447 90.051 86.67C89.7963 86.5952 89.5696 86.4465 89.3996 86.2427C89.2295 86.039 89.1238 85.7893 89.0958 85.5253C89.0679 85.2614 89.1189 84.9951 89.2425 84.7602C89.3661 84.5253 89.5567 84.3324 89.7901 84.206C90.0234 84.0796 90.2891 84.0253 90.5534 84.05C90.9056 84.083 91.2305 84.254 91.4572 84.5256C91.6839 84.7973 91.794 85.1476 91.7634 85.5V85.5Z" fill="white"/>
<path d="M113.893 78.8899L114.173 86.7199L103.723 88.6999L112.933 85.8199L113.893 78.8899Z" fill="#C8C6F2"/>
<path d="M108.353 71.2599L109.053 73.1399C109.178 73.4703 109.395 73.758 109.679 73.9689C109.963 74.1798 110.301 74.3051 110.653 74.3299V74.3299C110.966 74.3493 111.278 74.2886 111.56 74.1536C111.843 74.0186 112.086 73.8138 112.267 73.5585C112.449 73.3031 112.562 73.0058 112.596 72.6945C112.63 72.3833 112.584 72.0685 112.463 71.7799L111.243 68.8999L108.353 71.2599Z" fill="#EB8175"/>
<path d="M108.983 72.9301C108.983 72.9301 112.413 72.2801 111.913 69.2701C111.413 66.2601 108.173 68.6101 108.173 68.6101L108.483 71.6101L108.983 72.9301Z" fill="#E16C5F"/>
<path d="M103.673 63.9301C103.222 64.8957 103.067 65.9734 103.229 67.0269C103.39 68.0804 103.86 69.0624 104.579 69.8489C105.299 70.6353 106.235 71.1909 107.27 71.4453C108.305 71.6997 109.392 71.6415 110.394 71.2782C111.396 70.9149 112.268 70.2627 112.899 69.404C113.53 68.5454 113.893 67.5188 113.941 66.4541C113.989 65.3894 113.72 64.3343 113.169 63.4223C112.618 62.5103 111.808 61.7822 110.843 61.3301C109.547 60.7287 108.065 60.6646 106.722 61.1517C105.379 61.6388 104.282 62.6376 103.673 63.9301V63.9301Z" fill="#EB8175"/>
<path d="M110.563 67.28C110.563 67.28 109.713 71.6 112.883 71.7C116.053 71.8 114.333 63.59 114.333 63.59L109.333 58.53L101.643 60.43L102.413 65.43C102.413 65.43 103.633 66.08 110.243 64.99L110.563 67.28Z" fill="#231C61"/>
<path d="M107.423 63.9001L109.953 67.6001L112.123 65.1901L107.423 63.9001Z" fill="#231C61"/>
<path d="M109.713 66.2801C109.585 66.5531 109.541 66.8582 109.586 67.1563C109.632 67.4545 109.765 67.7324 109.97 67.9545C110.174 68.1766 110.439 68.333 110.732 68.4037C111.026 68.4744 111.333 68.4563 111.616 68.3516C111.899 68.2469 112.145 68.0604 112.321 67.8159C112.498 67.5713 112.598 67.2797 112.608 66.9783C112.618 66.6768 112.539 66.3791 112.379 66.1229C112.22 65.8668 111.988 65.6639 111.713 65.5401C111.349 65.3789 110.936 65.3661 110.563 65.5043C110.189 65.6424 109.884 65.9207 109.713 66.2801Z" fill="#EB8175"/>
<path d="M102.623 65.3199C102.623 65.3199 101.453 61.0699 104.213 58.4299C104.755 57.9127 105.396 57.5109 106.098 57.2489C106.799 56.9869 107.547 56.8701 108.295 56.9056C109.043 56.9412 109.776 57.1283 110.449 57.4556C111.123 57.783 111.723 58.2437 112.213 58.8099C113.409 60.3522 114.037 62.259 113.993 64.2099L102.623 65.3199Z" fill="#F5D100"/>
<path d="M103.213 65.2499V62.5899C103.21 62.2668 103.332 61.9551 103.554 61.7202C103.776 61.4853 104.08 61.3454 104.403 61.3299V61.3299C104.723 61.3128 105.038 61.4195 105.282 61.628C105.526 61.8365 105.68 62.1308 105.713 62.4499L105.973 65.0999" stroke="#F1AB00" stroke-width="0.28" stroke-miterlimit="10"/>
<path d="M114.003 64.21L101.623 65.4" stroke="white" stroke-width="1.12" stroke-linecap="round" stroke-linejoin="round"/>
<path d="M226.723 207.67L229.493 210.35L226.333 212.06L223.623 209.4L226.723 207.67Z" fill="#EB8175"/>
<path d="M207.183 187.58L209.053 195.78C209.44 197.461 210.157 199.049 211.163 200.45L223.373 211.45L228.203 207.51L217.773 196.51L213.953 181.95L207.183 187.58Z" fill="#14103D"/>
<path d="M226.243 211.98L225.243 215.17L224.103 216.78C223.836 217.129 223.692 217.556 223.692 217.995C223.692 218.434 223.836 218.861 224.103 219.21L224.363 219.54L232.153 212.28L229.053 209.35L226.243 211.98Z" fill="#14103D"/>
<path d="M232.273 212.28L224.423 219.6L223.793 218.93L231.643 211.61L232.273 212.28Z" fill="#14103D"/>
<path d="M200.033 212.66L198.983 216.13L195.413 215.18L196.463 211.76L200.033 212.66Z" fill="#EB8175"/>
<path d="M204.823 178.43L194.823 212.28L201.143 213.85L206.783 196.85L213.703 185.75C214.072 185.257 214.407 184.739 214.703 184.2C215.246 183.211 215.521 182.098 215.503 180.97V178.77L204.823 178.43Z" fill="#231C61"/>
<path d="M195.623 214.84L192.463 216.01L190.463 216.08C190.021 216.088 189.593 216.242 189.247 216.519C188.901 216.796 188.657 217.18 188.553 217.61L188.443 218.02L199.053 219.78L199.453 215.5L195.623 214.84Z" fill="#14103D"/>
<path d="M199.093 219.84L188.423 218.08L188.573 217.17L199.243 218.92L199.093 219.84Z" fill="#14103D"/>
<path d="M190.843 144.05L186.803 150.36L188.743 151.75L192.923 145.07L190.843 144.05Z" fill="#334FBE"/>
<path d="M185.593 133.58C185.593 133.58 187.463 141.41 196.933 144.49C197.068 144.53 197.188 144.608 197.281 144.714C197.373 144.821 197.433 144.951 197.453 145.09C197.632 145.812 197.523 146.576 197.15 147.219C196.777 147.863 196.169 148.336 195.453 148.54C195.353 148.564 195.249 148.568 195.148 148.551C195.047 148.533 194.95 148.496 194.863 148.44C193.413 147.54 186.283 143.37 179.363 144.57L185.593 133.58Z" fill="#4265D1"/>
<path d="M185.593 133.58C185.593 133.58 183.853 141.39 179.393 144.58C179.393 144.57 180.053 137.78 185.593 133.58Z" fill="#334FBE"/>
<path d="M185.483 149.95C185.388 150.712 185.57 151.483 185.996 152.121C186.422 152.76 187.063 153.225 187.803 153.43C188.494 153.572 189.213 153.433 189.802 153.045C190.391 152.657 190.801 152.051 190.943 151.36C191.036 150.597 190.851 149.826 190.424 149.188C189.996 148.549 189.354 148.085 188.613 147.88C188.272 147.81 187.92 147.808 187.577 147.874C187.235 147.94 186.909 148.073 186.619 148.266C186.328 148.458 186.078 148.706 185.883 148.995C185.688 149.284 185.552 149.608 185.483 149.95V149.95Z" fill="#EB8175"/>
<path d="M193.083 154.17L190.273 151.24L188.443 153.49L193.083 156.89" fill="#EB8175"/>
<path d="M192.633 151.46L189.633 155.87L197.743 163.29C198.237 163.43 198.752 163.48 199.263 163.44L210.053 162.05C210.455 162.032 210.849 161.935 211.213 161.764C211.577 161.593 211.903 161.352 212.174 161.055C212.444 160.758 212.653 160.41 212.789 160.031C212.924 159.653 212.983 159.251 212.963 158.85C212.883 157.16 213.203 154.72 211.523 154.85L199.053 157.35L192.633 151.46Z" fill="#C8C6F2"/>
<path d="M216.653 161.58C216.795 160.432 216.612 159.268 216.124 158.219C215.636 157.171 214.863 156.28 213.893 155.65C213.205 155.111 212.358 154.812 211.483 154.8C210.287 154.901 209.147 155.354 208.208 156.104C207.27 156.854 206.576 157.865 206.213 159.01C204.613 163.91 204.153 178.4 204.153 178.4L215.633 178.8L216.653 161.58Z" fill="#D8D7FD"/>
<path d="M212.413 161.94L215.863 174.62L216.563 163.86L212.413 161.94Z" fill="#C8C6F2"/>
<path d="M226.483 186.97C227.007 186.407 227.313 185.676 227.346 184.908C227.379 184.14 227.137 183.386 226.663 182.78C226.188 182.262 225.527 181.953 224.825 181.92C224.123 181.886 223.436 182.13 222.913 182.6C222.386 183.161 222.078 183.892 222.044 184.662C222.011 185.431 222.256 186.186 222.733 186.79C223.207 187.31 223.868 187.621 224.571 187.654C225.274 187.688 225.962 187.442 226.483 186.97V186.97Z" fill="#EB8175"/>
<path d="M221.273 177.93L223.363 183.1L226.173 182.36L224.443 176.87" fill="#EB8175"/>
<path d="M221.403 181.92L227.153 180.65L223.253 167.32C223.113 166.826 222.882 166.361 222.573 165.95L215.413 157.05C214.413 155.66 212.813 155.91 211.413 156.87C211.083 157.099 210.801 157.391 210.583 157.73C210.366 158.068 210.218 158.446 210.147 158.842C210.076 159.238 210.085 159.644 210.172 160.037C210.259 160.429 210.422 160.801 210.653 161.13L217.543 169.42L221.403 181.92Z" fill="#D8D7FD"/>
<path d="M208.793 153.06L209.013 155.06C209.05 155.414 209.188 155.75 209.412 156.027C209.635 156.304 209.935 156.51 210.273 156.62V156.62C210.571 156.717 210.888 156.737 211.196 156.678C211.503 156.619 211.791 156.484 212.032 156.285C212.274 156.085 212.461 155.828 212.576 155.537C212.692 155.246 212.732 154.931 212.693 154.62L212.203 151.5L208.793 153.06Z" fill="#EB8175"/>
<path d="M208.983 154.85C208.983 154.85 212.533 154.73 212.783 151.66C213.033 148.59 209.273 150.41 209.273 150.41L208.833 153.41L208.983 154.85Z" fill="#E16C5F"/>
<path d="M206.053 144.7C205.368 145.535 204.946 146.554 204.84 147.629C204.734 148.704 204.949 149.786 205.459 150.739C205.968 151.691 206.748 152.471 207.701 152.98C208.654 153.489 209.736 153.704 210.811 153.598C211.886 153.491 212.905 153.068 213.74 152.383C214.574 151.697 215.187 150.779 215.5 149.745C215.812 148.711 215.811 147.608 215.497 146.575C215.183 145.541 214.569 144.624 213.733 143.94C212.614 143.023 211.176 142.588 209.736 142.731C208.296 142.873 206.971 143.582 206.053 144.7V144.7Z" fill="#EB8175"/>
<path d="M211.943 149.7C211.943 149.7 210.033 153.7 213.123 154.61C216.213 155.52 216.563 147.02 216.563 147.02L212.893 140.78L204.893 140.72L204.403 145.79C204.403 145.79 205.403 146.73 212.193 147.31L211.943 149.7Z" fill="#231C61"/>
<path d="M209.713 145.6L211.263 149.86L214.003 148.04L209.713 145.6Z" fill="#231C61"/>
<path d="M211.363 148.51C211.171 148.746 211.054 149.034 211.025 149.337C210.996 149.64 211.058 149.945 211.203 150.213C211.347 150.481 211.568 150.7 211.837 150.842C212.105 150.985 212.411 151.045 212.713 151.014C213.016 150.983 213.303 150.863 213.538 150.67C213.773 150.476 213.945 150.217 214.033 149.926C214.12 149.634 214.12 149.323 214.031 149.032C213.942 148.741 213.769 148.483 213.533 148.29C213.216 148.033 212.809 147.913 212.403 147.954C211.997 147.995 211.623 148.195 211.363 148.51V148.51Z" fill="#EB8175"/>
<path d="M204.623 146.27C204.623 146.27 204.353 141.82 207.623 139.79C208.264 139.387 208.98 139.119 209.728 139.001C210.475 138.884 211.239 138.92 211.972 139.107C212.706 139.294 213.393 139.628 213.994 140.09C214.594 140.551 215.094 141.129 215.463 141.79C216.329 143.566 216.555 145.586 216.103 147.51L204.623 146.27Z" fill="#F5D100"/>
<path d="M205.213 146.32L205.733 143.69C205.797 143.369 205.982 143.085 206.251 142.898C206.52 142.712 206.85 142.637 207.173 142.69V142.69C207.494 142.742 207.783 142.915 207.981 143.174C208.178 143.432 208.268 143.757 208.233 144.08L207.943 146.75" stroke="#F1AB00" stroke-width="0.28" stroke-miterlimit="10"/>
<path d="M216.113 147.55L203.613 146.14" stroke="white" stroke-width="1.13" stroke-linecap="round" stroke-linejoin="round"/>
<path d="M292.413 179.9L279.483 192.65" stroke="#3D5AC4" stroke-width="2.65" stroke-miterlimit="10"/>
<path d="M292.413 166.27L279.483 179.02" stroke="#3D5AC4" stroke-width="2.65" stroke-miterlimit="10"/>
<path d="M292.413 152.65L279.483 165.4" stroke="#3D5AC4" stroke-width="2.65" stroke-miterlimit="10"/>
<path d="M292.413 139.02L279.483 151.77" stroke="#3D5AC4" stroke-width="2.65" stroke-miterlimit="10"/>
<path d="M292.413 125.4L279.483 138.15" stroke="#3D5AC4" stroke-width="2.65" stroke-miterlimit="10"/>
<path d="M292.413 111.77L279.483 124.52" stroke="#3D5AC4" stroke-width="2.65" stroke-miterlimit="10"/>
<path d="M292.413 98.1399L279.483 110.89" stroke="#3D5AC4" stroke-width="2.65" stroke-miterlimit="10"/>
<path d="M292.413 84.52L279.483 97.27" stroke="#3D5AC4" stroke-width="2.65" stroke-miterlimit="10"/>
<path d="M292.413 70.8899L279.483 83.6399" stroke="#3D5AC4" stroke-width="2.65" stroke-miterlimit="10"/>
<path d="M292.413 57.27L279.483 70.02" stroke="#3D5AC4" stroke-width="2.65" stroke-miterlimit="10"/>
<path d="M292.413 43.6399L279.483 56.3899" stroke="#3D5AC4" stroke-width="2.65" stroke-miterlimit="10"/>
<path d="M279.483 179.02H292.413" stroke="#3D5AC4" stroke-width="2.65" stroke-miterlimit="10"/>
<path d="M279.483 165.4H292.413" stroke="#3D5AC4" stroke-width="2.65" stroke-miterlimit="10"/>
<path d="M279.483 151.77H292.413" stroke="#3D5AC4" stroke-width="2.65" stroke-miterlimit="10"/>
<path d="M279.483 138.15H292.413" stroke="#3D5AC4" stroke-width="2.65" stroke-miterlimit="10"/>
<path d="M279.483 124.52H292.413" stroke="#3D5AC4" stroke-width="2.65" stroke-miterlimit="10"/>
<path d="M279.483 110.89H292.413" stroke="#3D5AC4" stroke-width="2.65" stroke-miterlimit="10"/>
<path d="M279.483 97.27H292.413" stroke="#3D5AC4" stroke-width="2.65" stroke-miterlimit="10"/>
<path d="M279.483 83.6399H292.413" stroke="#3D5AC4" stroke-width="2.65" stroke-miterlimit="10"/>
<path d="M279.483 70.02H292.413" stroke="#3D5AC4" stroke-width="2.65" stroke-miterlimit="10"/>
<path d="M279.483 56.3899H292.413" stroke="#3D5AC4" stroke-width="2.65" stroke-miterlimit="10"/>
<path d="M279.483 196.34V45.8201" stroke="#5571E9" stroke-width="2.65" stroke-miterlimit="10"/>
<path d="M292.413 196.34V45.8201" stroke="#5571E9" stroke-width="2.65" stroke-miterlimit="10"/>
<path d="M298.573 192.65H272.813V219.41H298.573V192.65Z" fill="#231C61"/>
<path d="M292.443 20.3301H278.983C276.608 20.3301 274.683 22.2553 274.683 24.6301V41.5201C274.683 43.8949 276.608 45.8201 278.983 45.8201H292.443C294.818 45.8201 296.743 43.8949 296.743 41.5201V24.6301C296.743 22.2553 294.818 20.3301 292.443 20.3301Z" fill="#3D5AC4"/>
<path d="M276.693 26.48H285.363C285.795 26.4799 286.222 26.5656 286.62 26.7319C287.018 26.8982 287.38 27.1419 287.683 27.4489C287.986 27.7559 288.225 28.12 288.387 28.5201C288.548 28.9203 288.629 29.3485 288.623 29.78V35.19C288.623 36.0546 288.28 36.8838 287.669 37.4952C287.057 38.1065 286.228 38.45 285.363 38.45H276.693V26.48Z" fill="#2F4DAB"/>
<path d="M194.143 47.21L204.493 77.27" stroke="#231C61" stroke-width="2.16" stroke-miterlimit="10"/>
<path d="M186.943 43.6399L166.773 70.8899" stroke="#231C61" stroke-width="2.16" stroke-miterlimit="10"/>
<path d="M154.823 86.171L175.673 113.432C177.968 116.432 182.261 117.004 185.262 114.709L212.522 93.8594C215.523 91.5645 216.095 87.2716 213.8 84.271L192.95 57.0103C190.655 54.0097 186.362 53.4377 183.362 55.7326L156.101 76.5825C153.1 78.8775 152.528 83.1704 154.823 86.171Z" fill="#F5D100"/>
<path d="M160.19 85.9943L177.255 108.306C179.13 110.759 182.639 111.226 185.091 109.351L207.403 92.2855C209.855 90.4099 210.323 86.9015 208.447 84.4493L191.382 62.1372C189.507 59.6849 185.998 59.2174 183.546 61.093L161.234 78.1581C158.782 80.0336 158.314 83.542 160.19 85.9943Z" stroke="#231C61" stroke-width="1.11" stroke-miterlimit="10"/>
<path d="M186.103 95.4001C185.563 99.4001 179.423 98.6301 179.963 94.5801C180.503 90.5301 186.643 91.3101 186.103 95.4001ZM188.743 72.7801L186.333 89.7801L181.173 89.0901C181.933 83.3601 182.563 77.8001 183.333 72.0901L188.743 72.7801Z" fill="#231C61"/>
<path d="M191.193 49.7399C195.97 49.7399 199.843 45.8672 199.843 41.0899C199.843 36.3127 195.97 32.4399 191.193 32.4399C186.416 32.4399 182.543 36.3127 182.543 41.0899C182.543 45.8672 186.416 49.7399 191.193 49.7399Z" fill="#231C61"/>
<path d="M197.313 41.09C197.315 42.3008 196.958 43.485 196.287 44.4928C195.615 45.5005 194.66 46.2865 193.542 46.7513C192.424 47.216 191.193 47.3386 190.005 47.1036C188.818 46.8686 187.726 46.2865 186.869 45.431C186.012 44.5755 185.429 43.4851 185.192 42.2976C184.955 41.1102 185.075 39.8791 185.538 38.7603C186.001 37.6414 186.785 36.685 187.792 36.0121C188.799 35.3392 189.982 34.98 191.193 34.98C192.815 34.98 194.37 35.6234 195.517 36.769C196.665 37.9145 197.311 39.4686 197.313 41.09Z" fill="#373482"/>
<path d="M225.113 2V20.33" stroke="#3D5AC4" stroke-width="2.65" stroke-miterlimit="10"/>
<path d="M208.673 2V20.33" stroke="#3D5AC4" stroke-width="2.65" stroke-miterlimit="10"/>
<path d="M241.503 2V20.33" stroke="#3D5AC4" stroke-width="2.65" stroke-miterlimit="10"/>
<path d="M259.713 2V20.33" stroke="#3D5AC4" stroke-width="2.65" stroke-miterlimit="10"/>
<path d="M276.693 2V20.33" stroke="#3D5AC4" stroke-width="2.65" stroke-miterlimit="10"/>
<path d="M294.303 2V20.33" stroke="#3D5AC4" stroke-width="2.65" stroke-miterlimit="10"/>
<path d="M311.603 2V20.33" stroke="#3D5AC4" stroke-width="2.65" stroke-miterlimit="10"/>
<path d="M207.813 20.33L225.113 2" stroke="#3D5AC4" stroke-width="2.65" stroke-miterlimit="10"/>
<path d="M225.113 20.33L242.413 2" stroke="#3D5AC4" stroke-width="2.65" stroke-miterlimit="10"/>
<path d="M242.413 20.33L259.713 2" stroke="#3D5AC4" stroke-width="2.65" stroke-miterlimit="10"/>
<path d="M259.713 20.33L277.003 2" stroke="#3D5AC4" stroke-width="2.65" stroke-miterlimit="10"/>
<path d="M277.003 20.33L294.303 2" stroke="#3D5AC4" stroke-width="2.65" stroke-miterlimit="10"/>
<path d="M294.303 20.33L311.603 2" stroke="#3D5AC4" stroke-width="2.65" stroke-miterlimit="10"/>
<path d="M191.193 20.33H332.233L313.243 2H205.783L191.193 20.33Z" stroke="#5571E9" stroke-width="2.65" stroke-linecap="round" stroke-linejoin="round"/>
<path d="M191.193 20.3301V41.0901" stroke="#5571E9" stroke-width="2.65" stroke-linecap="round" stroke-linejoin="round"/>
<path d="M83.2871 177.305C84.9547 166.107 77.2286 155.677 66.0302 154.009C54.8319 152.342 44.4019 160.068 42.7343 171.266C41.0667 182.464 48.7929 192.894 59.9913 194.562C71.1896 196.23 81.6195 188.503 83.2871 177.305Z" fill="#5571E9"/>
<path d="M63.0029 166.98V219.09" stroke="#3D5AC4" stroke-width="1.14" stroke-linecap="round" stroke-linejoin="round"/>
<path d="M55.0332 168.04L63.0032 176.98" stroke="#3D5AC4" stroke-width="1.14" stroke-linecap="round" stroke-linejoin="round"/>
<path d="M70.0534 176.49C69.4834 177.06 62.9834 183.83 62.9834 183.83" stroke="#3D5AC4" stroke-width="1.14" stroke-linecap="round" stroke-linejoin="round"/>
<path d="M1.29297 219.59H345.193" stroke="#3D5AC4" stroke-width="1.14" stroke-linecap="round" stroke-linejoin="round"/>
</svg>
