<svg width="238" height="180" viewBox="0 0 238 180" fill="none" xmlns="http://www.w3.org/2000/svg">
<path d="M23.0348 178.234C35.6519 178.234 45.8801 176.868 45.8801 175.184C45.8801 173.499 35.6519 172.133 23.0348 172.133C10.4177 172.133 0.189453 173.499 0.189453 175.184C0.189453 176.868 10.4177 178.234 23.0348 178.234Z" fill="#E6E6E6"/>
<path d="M203.142 173.91C203.142 176.995 175.895 179.494 141.805 179.494C107.716 179.494 80.0776 176.995 80.0776 173.91C80.0776 170.826 107.713 168.322 141.805 168.322C175.898 168.322 203.142 170.834 203.142 173.91Z" fill="#E6E6E6"/>
<path d="M211.171 58.8783C212.415 62.6376 213.983 67.3346 212.054 71.1363C210.05 75.0951 205.317 76.8729 202.14 79.3169C202.095 79.3508 201.972 79.4272 201.924 79.4739C199.853 70.2015 197.483 61.0182 194.814 51.924C197.793 51.61 200.806 51.1432 203.82 51.0966C205.309 51.0711 206.609 50.999 207.734 52.1913C209.436 53.9946 210.367 56.447 211.171 58.8783Z" fill="white"/>
<path d="M201.056 75.6722C201.349 76.9366 201.638 78.2095 201.923 79.4909C201.972 79.4443 202.095 79.3679 202.139 79.3339C205.316 76.89 210.05 75.1121 212.054 71.1534C213.689 67.933 212.799 64.0718 211.752 60.6816C210.918 68.4973 205.476 73.1476 201.056 75.6722Z" fill="#E6E6E6"/>
<path d="M112.342 164.636C109.362 166.668 106.424 169.015 103.333 170.801C101.564 171.824 99.18 172.867 97.4221 171.225C96.4351 170.309 95.7051 168.879 94.9901 167.704C91.4854 161.925 89.0124 155.594 86.3085 149.285C83.1093 141.825 80.6847 134.15 78.5581 126.224C85.9423 124.756 93.2793 123.008 100.569 120.979C103.374 129.287 106.528 137.353 110.923 144.74C111.958 146.48 113.027 148.198 114.148 149.866C115.426 151.758 117.403 153.506 118.141 155.806C119.549 160.147 115.005 162.828 112.342 164.636Z" fill="white"/>
<path d="M199.649 132.648C199.098 132.483 198.561 132.313 198.044 132.16C192.006 130.412 186.006 128.494 180.018 126.53C170.141 123.292 160.278 119.906 150.111 117.95C138.938 115.803 127.653 115.591 116.398 116.758C113.608 117.047 110.811 117.424 108.052 117.849C103.839 101.725 99.7536 85.5253 96.208 69.177C116.837 58.7391 133.992 40.6172 149.586 22.4189C152.394 19.1391 155.172 15.8168 157.962 12.5327C159.678 10.4479 161.505 8.48537 163.433 6.65611C164.148 5.9942 164.923 5.31531 165.742 4.68311C169.094 10.6233 171.306 17.5776 173.597 24.1076C176.707 32.9374 179.593 41.8901 182.36 50.8683C184.222 56.834 186.107 62.8167 187.66 68.8927C190.155 78.6728 192.204 88.627 194.163 98.5641C196.39 109.791 198.662 121.192 199.649 132.648Z" fill="white"/>
<path d="M228.003 61.4033C230.982 61.7129 233.962 61.891 236.941 62.3066C237.567 62.3956 237.574 63.5236 236.941 63.4346C233.962 63.0105 230.982 62.8409 228.003 62.5313C227.373 62.4635 227.37 61.3355 228.003 61.4033Z" fill="#333333"/>
<path d="M222.404 42.5769L229.082 35.1729C229.54 34.668 230.24 35.4656 229.782 35.9706L223.104 43.3746C222.646 43.8838 221.946 43.0861 222.404 42.5769Z" fill="#333333"/>
<path d="M220.088 81.8672C222.646 84.29 225.08 86.8783 227.377 89.6192C227.82 90.1411 227.12 90.9388 226.677 90.4169C224.38 87.676 221.946 85.0877 219.388 82.6649C218.896 82.2024 219.604 81.409 220.088 81.8672Z" fill="#333333"/>
<path d="M207.414 21.6207C207.153 25.9613 206.971 30.3062 206.706 34.6425C206.665 35.3681 205.675 35.3681 205.719 34.6425C205.98 30.3062 206.162 25.9613 206.423 21.6207C206.464 20.8994 207.455 20.8951 207.414 21.6207Z" fill="#333333"/>
<path d="M82.9531 95.0366C83.5154 94.7099 84.8153 93.9802 83.5043 92.8899C83.1318 92.5844 81.5974 93.0808 81.0871 93.2293C79.9698 93.5602 78.8525 94.0311 77.7352 94.4638C75.9363 95.1384 73.8358 95.5244 72.1486 96.5341C70.8637 97.302 70.5062 98.6044 72.1747 98.7656C72.6552 98.8123 73.292 98.5111 73.7539 98.3881C74.8041 98.1052 75.8432 97.7871 76.8712 97.4335C78.8786 96.7378 81.102 96.1184 82.9531 95.0366ZM77.482 93.3778C78.6589 92.9154 85.8916 89.7123 85.1504 93.9123C84.9046 95.2953 83.6607 95.9699 82.6179 96.4578C80.7557 97.3062 78.8116 97.9723 76.9047 98.6256C75.3665 99.1559 69.739 101.752 70.022 97.7772C70.1189 96.4408 70.901 95.9444 71.9028 95.4693C73.7092 94.5954 75.6309 94.0735 77.482 93.3778Z" fill="#333333"/>
<path d="M81.8948 84.8028C81.7383 84.6119 81.1499 84.5949 80.9525 84.5779C78.9115 84.387 76.4832 85.7107 74.5913 86.4276C73.1015 86.9113 70.5987 87.4161 69.5 88.7737C69.3855 88.8887 69.3007 89.0372 69.2549 89.2031C69.209 89.369 69.2039 89.546 69.2399 89.715C69.2759 89.884 69.3518 90.0386 69.4594 90.162C69.5669 90.2855 69.702 90.3731 69.8501 90.4155C70.1426 90.4099 70.4322 90.3482 70.7067 90.2331C72.7924 89.7579 74.8631 89.1555 76.8966 88.4597C78.0457 88.0904 79.1738 87.6413 80.2747 87.1149C80.6512 86.9672 81.0083 86.7617 81.3361 86.504C81.608 86.2367 82.338 85.3373 81.8948 84.8028ZM74.3268 85.3416C76.2076 84.6331 81.284 81.8586 83.0232 84.3064C85.0009 87.0937 78.379 89.1301 77.1611 89.5458C75.4739 90.1228 73.7607 90.6234 72.0401 91.0603C71.2617 91.2597 70.2673 91.6797 69.433 91.5482C67.9432 91.3064 67.6341 89.427 68.5205 88.2688C69.8352 86.5422 72.5317 85.9228 74.3268 85.3416Z" fill="#333333"/>
<path d="M106.535 118.098C106.577 118.092 106.62 118.092 106.662 118.098L107.056 118.039C102.863 101.966 98.7958 85.8554 95.2651 69.5792C86.6097 71.9213 77.9877 74.4162 69.3993 77.0639C66.2597 78.0398 61.85 78.6338 59.5148 81.4681C57.1126 84.3788 57.9171 89.8099 58.2746 93.4334C59.0838 101.422 61.3685 109.125 64.9785 116.036C66.6321 119.197 68.5651 122.748 71.0008 125.209C72.7028 126.932 75.8127 125.608 77.8239 125.209C79.7134 124.836 81.5991 124.446 83.4812 124.038C91.1782 122.372 98.8207 120.392 106.408 118.098C106.45 118.091 106.493 118.091 106.535 118.098ZM112.341 164.635C114.989 162.828 119.533 160.146 118.125 155.793C117.38 153.51 115.41 151.762 114.133 149.853C113.015 148.185 111.943 146.458 110.907 144.727C106.513 137.336 103.358 129.27 100.554 120.966C93.2688 122.989 85.9318 124.737 78.5427 126.211C80.6693 134.137 83.0938 141.812 86.2931 149.272C88.997 155.581 91.4588 161.916 94.9895 167.699C95.7046 168.874 96.4346 170.304 97.4215 171.221C99.1794 172.854 101.563 171.81 103.332 170.796C106.438 169.014 109.362 166.668 112.341 164.635ZM198.028 132.176C198.546 132.329 199.082 132.499 199.633 132.664C198.646 121.187 196.374 109.79 194.162 98.5632C192.203 88.6261 190.155 78.672 187.659 68.8918C186.121 62.8158 184.222 56.8332 182.36 50.8675C179.578 41.8893 176.691 32.945 173.585 24.1068C171.295 17.5768 169.082 10.631 165.73 4.68225C164.911 5.31446 164.136 5.99334 163.421 6.65525C161.494 8.48451 159.666 10.4471 157.95 12.5318C155.149 15.8159 152.382 19.1382 149.574 22.4181C133.976 40.6164 116.822 58.7383 96.1925 69.1931C99.7381 85.5414 103.824 101.724 108.036 117.865C110.811 117.44 113.593 117.063 116.382 116.774C127.637 115.607 138.941 115.82 150.095 117.967C160.248 119.923 170.125 123.309 180.002 126.546C186.006 128.51 192.006 130.428 198.043 132.176H198.028ZM202.125 79.3169C205.302 76.8729 210.035 75.0951 212.039 71.1364C213.968 67.3177 212.412 62.6503 211.157 58.8783C210.352 56.447 209.421 53.9946 207.719 52.1913C206.602 50.999 205.276 51.0711 203.805 51.0966C200.792 51.1433 197.797 51.61 194.799 51.924C197.461 61.0097 199.831 70.193 201.909 79.4739C201.972 79.4272 202.099 79.3508 202.14 79.3169H202.125ZM213.078 71.3358C211.063 75.757 206.047 77.6621 202.624 80.2928C202.479 80.4219 202.324 80.5368 202.162 80.6365C203.51 86.7493 204.722 92.8875 205.797 99.0512C206.955 105.708 207.819 112.4 208.594 119.129C209.075 123.338 209.86 129.423 206.78 132.707C205.637 133.933 204.08 134.379 202.538 134.328C199.726 134.243 196.847 133.004 194.151 132.206C188.162 130.411 182.211 128.455 176.274 126.499C165.917 123.105 155.503 119.74 144.777 118.213C132.136 116.409 119.384 117.186 106.788 119.193C105.034 119.719 103.28 120.224 101.522 120.72C105.105 131.328 109.384 142.012 115.984 150.672C118.04 153.37 120.647 156.527 118.699 160.303C117.135 163.329 113.485 165.217 110.919 166.897C107.649 169.019 104.356 172.46 100.539 173.134C97.5072 173.665 96.01 171.31 94.4569 168.811C90.5761 162.573 87.8983 155.657 84.9858 148.792C81.9169 141.579 79.6153 134.09 77.5632 126.427L77.4551 126.448C75.8164 126.767 73.7606 127.539 72.0846 127.148C70.714 126.83 69.8239 125.506 68.9673 124.357C66.5796 121.141 64.5135 117.633 62.8072 113.897C59.4478 106.599 57.4889 98.5708 57.0605 90.3445C56.8817 86.7719 56.7104 82.6859 59.3249 80.1613C61.9394 77.6367 65.9506 77.0002 69.1423 76.0116C77.8872 73.2961 86.668 70.7432 95.4848 68.353C98.2434 66.9641 100.944 65.4352 103.585 63.7663C123.403 51.2494 139.604 32.6777 155.175 14.229C158.55 10.2279 161.905 6.01031 166.121 3.13779C169.622 0.753211 174.036 -0.477261 176.803 3.78697C180.55 9.55747 182.956 16.7579 185.369 23.3048C188.691 32.3227 191.734 41.4989 194.497 50.8335C198.125 50.4644 201.827 49.7049 205.469 50.0104C209.268 50.3244 210.948 55.0087 212.132 58.5813C213.428 62.4976 214.926 67.3049 213.093 71.3358H213.078ZM207.864 127.475C208.274 124.53 207.864 121.565 207.555 118.637C207.183 115.149 206.765 111.666 206.263 108.199C205.306 101.55 204.117 94.9439 202.769 88.3842C197.864 64.5045 191.201 40.7309 182.401 18.3278C181.067 14.9334 179.674 11.539 178.095 8.30578C176.654 5.33567 175.038 1.69516 171.559 1.99642C169.812 2.14917 168.125 2.98928 166.572 4.07125C170.457 10.9407 172.933 19.0788 175.54 26.6441C178.591 35.4993 181.455 44.4393 184.203 53.4218C186.002 59.2984 187.816 65.1834 189.261 71.1873C191.823 81.8373 194.069 92.5933 196.117 103.383C197.98 113.142 199.82 122.995 200.661 132.94C202.173 133.305 203.73 133.441 205.13 132.669C206.87 131.705 207.585 129.525 207.868 127.475H207.864Z" fill="#333333"/>
<path d="M81.8953 84.8029C82.3385 85.3374 81.6086 86.2368 81.3367 86.4998C81.0089 86.7575 80.6518 86.9631 80.2752 87.1107C79.1744 87.6371 78.0463 88.0863 76.8972 88.4556C74.8637 89.1513 72.8004 89.7538 70.7073 90.2289C70.4328 90.344 70.1432 90.4057 69.8507 90.4113C69.7026 90.369 69.5675 90.2813 69.4599 90.1579C69.3524 90.0344 69.2765 89.8798 69.2405 89.7108C69.2044 89.5418 69.2096 89.3648 69.2555 89.1989C69.3013 89.033 69.3861 88.8845 69.5006 88.7695C70.5993 87.412 73.0946 86.9071 74.5918 86.4235C76.5024 85.7065 78.9121 84.3829 80.9531 84.5738C81.1579 84.595 81.7389 84.612 81.8953 84.8029Z" fill="#333333"/>
<path d="M83.5043 92.8905C84.8265 93.9808 83.5043 94.7105 82.9531 95.0371C81.0909 96.1189 78.8786 96.7341 76.8898 97.4341C75.8619 97.7961 74.8228 98.1143 73.7725 98.3886C73.2958 98.5117 72.6738 98.8129 72.1934 98.7662C70.5249 98.605 70.8824 97.3026 72.1673 96.5347C73.847 95.525 75.9475 95.139 77.7539 94.4644C78.8712 94.0402 79.9624 93.5608 81.1058 93.2299C81.5974 93.0814 83.1319 92.585 83.5043 92.8905Z" fill="#333333"/>
<path d="M207.559 118.646C207.879 121.573 208.278 124.539 207.868 127.484C207.585 129.533 206.87 131.727 205.131 132.677C203.734 133.449 202.177 133.314 200.662 132.949C199.824 122.995 197.973 113.13 196.14 103.371C194.092 92.5807 191.846 81.8247 189.284 71.1747C187.839 65.1708 186.025 59.2943 184.226 53.4092C181.477 44.4267 178.613 35.4867 175.563 26.6315C172.956 19.0662 170.479 10.9323 166.595 4.05866C168.148 2.97669 169.835 2.13657 171.582 1.98382C175.06 1.68257 176.677 5.32732 178.118 8.29319C179.697 11.5433 181.097 14.9208 182.423 18.3152C191.224 40.7183 197.887 64.492 202.792 88.3717C204.14 94.9314 205.328 101.525 206.285 108.187C206.77 111.666 207.179 115.149 207.559 118.646Z" fill="#2046DC"/>
<path d="M107.057 118.017L106.662 118.077C106.62 118.071 106.577 118.071 106.535 118.077C106.495 118.082 106.457 118.093 106.42 118.111C98.8394 120.374 91.197 122.354 83.4925 124.051C81.608 124.458 79.7222 124.849 77.8352 125.222C75.824 125.617 72.7141 126.941 71.0121 125.222C68.5764 122.761 66.6434 119.21 64.9898 116.049C61.3798 109.138 59.0951 101.435 58.2859 93.4461C57.9135 89.8226 57.1239 84.3915 59.5261 81.4808C61.8613 78.6465 66.271 78.0525 69.4106 77.0766C77.999 74.412 86.621 71.9043 95.2764 69.5537C98.796 85.8342 102.863 101.945 107.057 118.017ZM85.1536 93.9129C85.8984 89.7123 78.662 92.9158 77.4851 93.3783C75.6229 94.0741 73.7123 94.596 71.8985 95.4446C70.8967 95.9198 70.1145 96.4163 70.0177 97.7528C69.7346 101.733 75.3622 99.136 76.9003 98.6014C78.8072 97.948 80.7625 97.2649 82.6135 96.4332C83.6638 95.9707 84.904 95.3088 85.1536 93.9129ZM77.1648 89.5468C78.3826 89.1225 84.986 87.0944 83.0269 84.3067C81.2877 81.8585 76.2113 84.6334 74.3305 85.342C72.5354 85.9233 69.8389 86.5428 68.5428 88.2697C67.6564 89.445 67.9469 91.3077 69.4553 91.5495C70.271 91.6811 71.2654 91.261 72.0624 91.0616C73.7607 90.6415 75.4702 90.1239 77.1611 89.5468H77.1648Z" fill="#2046DC"/>
<g style="mix-blend-mode:multiply">
<path d="M200.665 132.94C202.177 133.305 203.734 133.44 205.135 132.668C206.874 131.705 207.589 129.524 207.872 127.475C208.282 124.53 207.872 121.564 207.563 118.637C207.321 116.43 207.068 114.224 206.784 112.022C203.611 110.539 200.354 109.228 197.012 108.088C198.542 116.303 199.958 124.585 200.665 132.94Z" fill="#E6E6E6"/>
</g>
<path d="M104.983 105.984C105.996 109.944 107.019 113.905 108.052 117.865C110.826 117.44 113.609 117.063 116.398 116.774C127.653 115.607 138.957 115.82 150.111 117.967C160.264 119.923 170.141 123.308 180.018 126.546C186.007 128.51 192.007 130.428 198.044 132.176C198.562 132.329 199.098 132.499 199.649 132.664C198.93 124.301 197.526 115.977 195.962 107.732C167.489 98.3001 133.906 100.481 104.983 105.984Z" fill="#E6E6E6"/>
<g style="mix-blend-mode:multiply">
<path d="M71.0012 125.227C72.7032 126.949 75.8131 125.625 77.8242 125.227C79.7137 124.853 81.5995 124.463 83.4816 124.056C91.1786 122.389 98.821 120.409 106.409 118.115C106.446 118.098 106.485 118.086 106.524 118.081C106.566 118.075 106.609 118.075 106.651 118.081L107.046 118.022C106.018 114.076 104.999 110.129 103.988 106.18C89.34 109.014 75.9211 112.705 65.0161 116.1C66.6623 119.252 68.5878 122.778 71.0012 125.227Z" fill="#E6E6E6"/>
</g>
<path d="M87.1428 136.267C86.9119 130.301 95.8876 126.551 101.865 124.718C101.426 123.479 100.994 122.233 100.569 120.979C93.2843 123.002 85.9473 124.75 78.5581 126.224C80.6847 134.15 83.1093 141.825 86.3085 149.285C89.0124 155.594 91.4742 161.929 95.005 167.712C95.72 168.887 96.45 170.317 97.437 171.234C99.0645 172.744 101.228 171.964 102.945 171.026C97.6977 161.806 87.3886 142.916 87.1428 136.267Z" fill="#E6E6E6"/>
<path d="M66.3236 101.249C67.683 103.205 65.791 105.267 64.5508 106.422C61.3739 109.392 57.5191 111.513 53.8506 113.554C50.9233 115.188 47.832 114.428 44.7036 113.978C42.5434 113.673 39.7613 112.829 38.1077 114.869C35.8731 117.64 34.968 121.586 34.6664 125.244C34.529 126.726 34.5453 128.221 34.7148 129.699C34.7334 129.818 34.7446 129.949 34.7706 130.072C34.9459 131.301 35.2523 132.501 35.6831 133.645C37.1729 137.591 39.0351 141.342 40.3721 145.347C41.3702 148.317 41.117 151.512 40.3237 154.643C39.3591 158.356 37.5937 161.984 36.1412 165.043C35.1531 167.25 34.0331 169.376 32.7893 171.408C31.9587 172.702 30.4094 174.076 28.9271 173.987C27.2362 173.89 27.1319 172.027 27.3219 170.563C28.0928 164.576 32.0965 159.485 32.5174 153.43C32.726 150.46 30.3796 148.381 28.4206 146.883C26.5956 145.5 24.6254 144.371 22.7037 143.17C20.8415 142.008 18.7223 140.896 17.4299 138.927C14.4504 134.353 15.9663 129.398 17.4299 124.552C18.9532 119.541 20.726 114.496 23.2213 109.998C24.1115 108.395 25.1171 106.769 26.4653 105.62C27.7334 104.736 29.1717 104.219 30.6552 104.113C33.1096 103.855 35.765 104.3 37.8954 104.69C41.7203 105.391 45.3665 107.355 49.2212 107.733C52.9456 108.098 56.3273 105.136 59.508 103.29C60.8338 102.548 65.102 99.5054 66.3236 101.249Z" fill="white"/>
<path d="M57.0535 90.3448C57.0535 90.1454 57.0349 89.946 57.0237 89.7466C56.7071 90.0521 56.4092 90.3618 56.1298 90.5952C53.5675 92.9076 50.8896 95.3516 47.8729 96.8494L47.8096 96.8706C47.209 100.085 45.6249 102.951 43.3403 104.958C43.8543 105.132 44.3645 105.314 44.8785 105.492C49.5712 103.213 53.8752 100.01 57.5935 96.0305C57.3298 94.1468 57.1496 92.2492 57.0535 90.3448V90.3448Z" fill="white"/>
<path d="M40.7821 81.4132C48.4804 85.3889 49.471 99.3993 42.093 104.567C38.4059 103.43 34.391 102.751 30.5847 103.142L30.3017 103.171C29.5755 103.249 28.8558 103.391 28.149 103.596C22.3985 100.201 22.3278 91.554 25.5419 85.9914C28.4581 80.9464 33.8845 79.3553 38.8901 80.6834C39.5402 80.8554 40.1739 81.0998 40.7821 81.4132V81.4132ZM42.324 92.9754C42.4096 93.6925 43.3668 93.3997 43.2774 92.6741C43.1415 91.5503 42.8915 90.4482 42.5325 89.39C42.3091 88.7196 41.3519 89.0082 41.5791 89.6913C41.9363 90.7501 42.1862 91.852 42.324 92.9754V92.9754Z" fill="white"/>
<path d="M42.5285 89.3901C42.8875 90.4481 43.1375 91.55 43.2734 92.6737C43.3628 93.3864 42.4056 93.6919 42.32 92.9749C42.1822 91.8516 41.9323 90.7499 41.5751 89.6913C41.3479 89.0083 42.3237 88.7198 42.5285 89.3901Z" fill="#333333"/>
<path d="M38.9713 127.772C39.124 128.765 38.3456 129.664 37.7572 130.5L35.5524 129.35C35.1799 126.1 35.8093 122.383 36.7814 119.532C37.0559 118.696 37.3884 117.886 37.7758 117.109C37.7621 119.354 37.8865 121.597 38.1483 123.822C38.3345 125.175 38.7777 126.444 38.9713 127.772Z" fill="#20DCB6"/>
<path d="M27.4262 147.439C27.0538 149.361 26.8266 151.321 26.3089 153.205C25.5641 155.866 24.1823 157.915 22.4952 159.897C19.3305 163.718 15.7844 167.104 11.9291 169.986C11.1842 170.525 10.16 171.365 9.24756 171.361C7.79505 171.361 7.34813 169.571 7.66098 168.213C8.07811 166.401 9.3295 164.768 10.3798 163.389C12.4729 160.648 14.998 158.327 17.0054 155.505C19.6646 151.767 19.2401 146.913 19.389 142.381C21.9551 144.21 24.8937 145.547 27.4262 147.439Z" fill="white"/>
<path d="M66.5727 99.9386C65.2617 98.8354 63.1947 100.159 61.9247 100.787C59.8986 101.767 57.9657 102.977 56.0253 104.148C53.9508 105.395 51.8987 106.867 49.4666 106.664C48.4079 106.558 47.3603 106.338 46.3382 106.006C50.3636 103.914 54.0889 101.142 57.3884 97.7831C57.5262 97.6431 57.6565 97.4903 57.7944 97.3588C57.7236 96.9345 57.6565 96.5102 57.597 96.0562C53.8735 100.028 49.5658 103.222 44.8708 105.493C44.3568 105.314 43.8466 105.132 43.3326 104.958C45.6172 102.952 47.2012 100.085 47.8019 96.8709L47.8652 96.8496C50.8819 95.3519 53.5597 92.9079 56.1221 90.5954C56.4014 90.3451 56.6994 90.0354 57.016 89.7468C56.9973 89.3013 56.9787 88.8516 56.9675 88.4018C54.1035 90.9137 51.3102 93.7437 48.029 95.547C48.6063 90.9815 47.4629 86.1106 44.3866 82.975C43.417 81.9791 42.324 81.1514 41.1427 80.5183C38.6246 79.1825 35.8053 78.7675 33.0719 79.3302C28.4314 80.2128 24.9975 83.5732 23.247 88.5163C21.3364 93.9177 22.5022 100.847 26.9081 104.088C26.6166 104.235 26.3352 104.407 26.0664 104.602C26.0317 104.62 25.9992 104.642 25.9696 104.67C23.0087 107.19 21.2098 111.458 19.6865 115.158C18.6772 117.623 17.7797 120.152 16.964 122.711C16.1149 125.371 15.1018 128.206 14.707 131.014C14.1931 134.867 15.5934 139.348 18.4314 141.622C18.4275 141.663 18.4275 141.704 18.4314 141.745C18.3048 144.618 18.5134 147.613 18.0143 150.447C17.5972 152.819 16.465 154.597 15.0348 156.294C12.4054 159.392 9.23594 162.315 7.38864 166.138C6.02925 168.955 6.64377 173.652 10.3048 172.184C12.3421 171.37 14.1707 169.639 15.8542 168.162C17.8643 166.389 19.7889 164.494 21.6195 162.485C23.5711 160.346 25.5636 158.106 26.6809 155.221C27.5636 152.947 27.8466 150.532 28.3085 148.135C28.9729 148.683 29.5958 149.293 30.1707 149.959C31.3215 151.305 31.72 152.467 31.4109 154.275C31.0917 155.861 30.6416 157.41 30.0664 158.9C28.8895 162.205 27.4295 165.442 26.6288 168.905C26.1558 170.95 25.7796 174.051 27.9882 174.964C30.2936 175.918 32.7367 173.58 33.9248 171.535C36.841 166.516 39.6306 160.817 41.1464 154.945C41.3401 154.21 41.5114 153.471 41.6604 152.73C42.3531 149.281 41.9285 146.65 40.7181 143.425C39.2283 139.403 37.1129 135.546 35.9397 131.371C35.8764 131.15 35.8205 130.947 35.7721 130.7L37.6641 131.689C37.7789 131.758 37.9123 131.776 38.0379 131.738C38.1634 131.7 38.272 131.61 38.3419 131.485C38.8742 130.596 39.4669 129.757 40.1147 128.974C40.1773 128.904 40.2221 128.816 40.2444 128.72C40.2667 128.623 40.2656 128.522 40.2414 128.426C38.8447 124.387 38.7702 120.097 38.7516 115.812C38.7558 115.762 38.7558 115.713 38.7516 115.663C39.159 115.18 39.6966 114.867 40.2786 114.772C41.7274 114.602 43.2581 114.929 44.6957 115.129C47.6752 115.553 50.9378 116.401 53.7385 114.874C57.5336 112.799 61.4293 110.601 64.7701 107.661C66.6472 106.015 69.4367 102.344 66.5727 99.9386ZM25.5413 85.9748C28.4574 80.9298 33.8839 79.3387 38.8894 80.6668C39.5396 80.8388 40.1733 81.0832 40.7814 81.3966C48.4797 85.3723 49.4704 99.3827 42.0924 104.551C38.4053 103.414 34.3904 102.735 30.5841 103.125L30.301 103.155C29.5749 103.232 28.8551 103.374 28.1483 103.579C22.3979 100.185 22.3271 91.5544 25.5413 85.9748ZM26.3085 153.205C25.5636 155.866 24.1819 157.915 22.4947 159.897C19.33 163.718 15.7839 167.104 11.9287 169.987C11.1838 170.525 10.1596 171.366 9.24711 171.361C7.7946 171.361 7.34768 169.571 7.66053 168.213C8.07766 166.401 9.32905 164.768 10.3793 163.389C12.4724 160.648 14.9975 158.327 17.005 155.505C19.6642 151.767 19.2396 146.913 19.3886 142.381C21.9547 144.223 24.8932 145.559 27.4407 147.452C27.0533 149.361 26.8411 151.317 26.3085 153.205ZM38.9714 127.773C39.1241 128.766 38.3457 129.665 37.7572 130.501L35.5524 129.351C35.1799 126.101 35.8094 122.384 36.7814 119.533C37.0559 118.696 37.3884 117.886 37.7758 117.11C37.7621 119.355 37.8865 121.598 38.1483 123.823C38.3345 125.176 38.7777 126.445 38.9714 127.773ZM64.5355 106.435C61.3586 109.405 57.5039 111.526 53.8353 113.567C50.908 115.201 47.8168 114.441 44.6883 113.991C42.5281 113.686 39.746 112.842 38.0924 114.882C35.8578 117.653 34.9528 121.599 34.6511 125.257C34.5137 126.739 34.53 128.234 34.6995 129.712C34.7181 129.835 34.7367 129.975 34.7554 130.085C34.9306 131.314 35.237 132.514 35.6678 133.658C37.1576 137.604 39.0198 141.355 40.3568 145.36C41.355 148.33 41.1017 151.525 40.3084 154.657C39.3438 158.369 37.5784 161.997 36.1259 165.056C35.1378 167.263 34.0179 169.389 32.774 171.421C31.9435 172.715 30.3941 174.09 28.9118 174C27.221 173.903 27.1167 172.04 27.3066 170.576C28.0776 164.589 32.0813 159.498 32.5021 153.443C32.7107 150.473 30.3643 148.394 28.4053 146.896C26.5804 145.513 24.6102 144.384 22.6884 143.183C20.8262 142.021 18.707 140.909 17.4147 138.94C14.4352 134.366 15.951 129.411 17.4147 124.565C18.9379 119.554 20.7107 114.509 23.2061 110.011C24.0962 108.408 25.1018 106.783 26.45 105.633C27.7181 104.749 29.1564 104.232 30.6399 104.126C33.0943 103.868 35.7498 104.313 37.8801 104.703C41.7051 105.404 45.3512 107.368 49.2059 107.746C52.9303 108.111 56.3121 105.149 59.4927 103.303C60.8111 102.54 65.0792 99.4846 66.3008 101.254C67.6826 103.218 65.7869 105.281 64.5504 106.435H64.5355Z" fill="#333333"/>
<path d="M57.0533 90.3448C57.0533 90.1454 57.0347 89.946 57.0235 89.7466C56.7069 90.0521 56.409 90.3618 56.1297 90.5952L55.2097 91.4226C55.1613 93.5823 55.1315 96.2384 55.2097 98.3981C56.0366 97.6343 56.8447 96.8451 57.6157 96.0135C57.345 94.1359 57.1573 92.2439 57.0533 90.3448Z" fill="#E6E6E6"/>
<g style="mix-blend-mode:multiply">
<path d="M63.3097 112.556C65.6412 110.435 68.9521 106.425 68.5238 104.151C68.3562 103.239 68.1216 102.899 67.779 102.594C67.6896 104.533 66.0211 106.552 64.7622 107.66C63.9205 108.402 63.0378 109.09 62.1328 109.747C62.5077 110.695 62.9 111.631 63.3097 112.556Z" fill="#E6E6E6"/>
</g>
</svg>
