<svg width="507" height="366" viewBox="0 0 507 366" fill="none" xmlns="http://www.w3.org/2000/svg">
<path d="M467.549 270.984C467.549 270.984 507.123 190.667 460.54 152.338C434.548 130.951 399.058 168.925 372.703 111.518C357.364 78.1095 303.69 67.964 276.849 113.58C250.008 159.197 226.935 158.964 208.416 150.523C187.178 140.847 177.847 111.727 144.603 117.883C106.179 125.001 111.324 168.151 83.0111 160.637C28.4106 146.147 -12.0429 228.933 25.6999 271.555L467.549 270.984Z" fill="#E9F3FE"/>
<path d="M253.743 222.332C253.743 222.332 246.039 228.536 244.536 228.159C243.034 227.782 250.167 221.463 250.167 221.463C247.484 220.065 239.138 220.941 239.138 220.941C239.138 220.941 236.36 230.64 234.989 229.881C233.619 229.121 237.862 221.424 237.862 221.424C234.866 221.229 231.192 223.626 231.192 223.626C226.173 227.919 231.53 234.677 231.53 234.677C231.53 234.677 230.499 238.019 227.33 241.06C227.33 241.06 222.803 244.687 222.489 251.165L223.31 251.244C223.31 251.244 224.613 245.205 226.979 242.358C227.072 242.253 227.205 242.105 227.371 241.926C227.756 241.538 228.027 241.249 228.207 241.033C229.39 239.807 231.015 238.246 231.799 238.094C231.771 237.953 231.759 237.809 231.765 237.666C231.775 237.803 231.787 237.944 231.799 238.094C232.067 241.509 238.187 244.499 241.952 245.106C245.718 245.714 244.553 244.043 243.255 241.558C241.957 239.073 237.847 237.962 236.916 236.818C235.985 235.675 237.917 235.671 240.185 236.793C242.452 237.914 242.763 240.907 246.402 242.793C250.041 244.68 255.516 238.141 255.516 238.141C252.616 237.982 248.476 234.571 248.626 233.528C248.776 232.485 255.655 235.329 256.831 235.464C258.007 235.6 260.683 234.017 261.098 228.887C261.514 223.758 253.743 222.332 253.743 222.332Z" fill="#82B378"/>
<path d="M212.823 226.188C212.823 226.188 221.334 221.028 217.363 214.024C217.363 214.024 214.185 209.724 210.782 208.618C210.782 208.618 212.597 219.062 210.782 219.307C208.967 219.553 209.533 207.511 209.533 207.511C209.533 207.511 200.576 202.843 197.052 203.213C197.052 203.213 202.612 213.409 200.796 213.164C198.979 212.919 192.739 202.598 192.739 202.598C192.739 202.598 183.549 200.755 182.074 206.653C180.598 212.551 182.981 215.499 184.343 215.867C185.706 216.235 194.441 216.112 194.215 217.342C193.988 218.572 188.089 220.535 184.798 219.43C184.798 219.43 188.428 229.129 193.194 228.646C197.96 228.163 199.435 224.959 202.384 224.713C205.333 224.468 207.491 225.328 206.016 226.188C204.541 227.048 199.548 226.47 197.166 228.662C194.783 230.855 192.853 232.209 197.279 233.192C201.705 234.174 209.646 233.558 211.235 229.874L212.823 226.188Z" fill="#A8D29F"/>
<path d="M215.093 235.155C212.71 230.364 212.823 226.188 212.823 226.188C210.101 216.855 186.272 208.495 186.272 208.495C216.568 221.764 211.235 229.873 211.235 229.873C212.051 230.389 213.276 232.849 214.125 234.735C214.246 235.056 214.437 235.5 214.723 236.104C214.838 236.377 214.931 236.598 214.993 236.756C216.553 240.981 215.727 248.285 215.727 248.285L216.673 248.559C218.767 241.194 215.093 235.155 215.093 235.155Z" fill="#82B378"/>
<path d="M226.362 219.067C226.362 219.067 215.145 212.265 220.379 203.033C220.379 203.033 224.567 197.36 229.054 195.906C229.054 195.906 226.661 209.674 229.054 209.997C231.447 210.321 230.7 194.442 230.7 194.442C230.7 194.442 242.517 188.288 247.152 188.769C247.152 188.769 239.824 202.213 242.218 201.889C244.611 201.565 252.837 187.961 252.837 187.961C252.837 187.961 264.951 185.532 266.897 193.306C268.842 201.08 265.7 204.967 263.905 205.454C262.11 205.94 250.593 205.776 250.892 207.397C251.191 209.018 258.969 211.606 263.307 210.142C263.307 210.142 258.521 222.937 252.239 222.29C245.957 221.642 244.012 217.431 240.124 217.107C236.235 216.783 233.392 217.916 235.338 219.051C237.283 220.185 243.862 219.416 246.999 222.313C250.135 225.21 252.682 226.987 246.848 228.283C241.014 229.578 230.545 228.768 228.451 223.909L226.362 219.067Z" fill="#A8D29F"/>
<path d="M261.362 195.744C261.362 195.744 229.952 206.759 226.362 219.067C226.362 219.067 226.512 224.574 223.371 230.891C223.371 230.891 218.527 238.855 221.289 248.551L222.534 248.185C222.534 248.185 221.446 238.564 223.503 232.996C223.585 232.791 223.707 232.496 223.859 232.137C224.234 231.341 224.488 230.756 224.647 230.333C225.767 227.846 227.381 224.603 228.456 223.928C228.456 223.926 221.427 213.237 261.362 195.744Z" fill="#82B378"/>
<path d="M204.01 245.783C204.01 252.093 206.325 258.144 210.445 262.605C214.565 267.067 220.153 269.573 225.98 269.573C231.807 269.573 237.395 267.067 241.515 262.605C245.635 258.144 247.95 252.093 247.95 245.783H204.01Z" fill="#F1A34F"/>
<path d="M245.557 268.115H206.418C205.701 268.115 205.013 268.424 204.506 268.973C203.999 269.522 203.714 270.267 203.714 271.043H248.261C248.261 270.267 247.976 269.522 247.469 268.973C246.962 268.424 246.274 268.115 245.557 268.115Z" fill="#F1A34F"/>
<path d="M248.121 246.512H203.625C203.535 246.512 203.449 246.474 203.386 246.405C203.322 246.336 203.287 246.243 203.287 246.146C203.287 246.049 203.322 245.956 203.386 245.887C203.449 245.819 203.535 245.78 203.625 245.78H248.121C248.21 245.78 248.296 245.819 248.36 245.887C248.423 245.956 248.459 246.049 248.459 246.146C248.459 246.243 248.423 246.336 248.36 246.405C248.296 246.474 248.21 246.512 248.121 246.512Z" fill="#D86713"/>
<path d="M295.833 271.051H381.294C383.985 271.051 386.167 268.689 386.167 265.775V80.7125C386.167 77.7987 383.985 75.4366 381.294 75.4366H295.833C293.142 75.4366 290.961 77.7987 290.961 80.7125V265.775C290.961 268.689 293.142 271.051 295.833 271.051Z" fill="#4A75CB"/>
<path d="M286.602 271.051H372.064C374.755 271.051 376.936 268.689 376.936 265.775V80.7125C376.936 77.7987 374.755 75.4366 372.064 75.4366H286.602C283.911 75.4366 281.73 77.7987 281.73 80.7125V265.775C281.73 268.689 283.911 271.051 286.602 271.051Z" fill="#699FF0"/>
<path d="M315.381 84.927H340.129C340.385 84.9261 340.629 84.8159 340.81 84.6204C340.99 84.425 341.092 84.1603 341.093 83.8839V83.8839C341.092 83.6076 340.99 83.3428 340.81 83.1474C340.629 82.952 340.385 82.8418 340.129 82.8408H315.381C315.126 82.8418 314.881 82.952 314.701 83.1474C314.52 83.3428 314.419 83.6076 314.418 83.8839V83.8839C314.419 84.1603 314.52 84.425 314.701 84.6204C314.881 84.8159 315.126 84.9261 315.381 84.927V84.927Z" fill="#4A75CB"/>
<path d="M344.525 84.927C344.78 84.9261 345.025 84.8159 345.205 84.6204C345.386 84.425 345.487 84.1603 345.488 83.8839C345.487 83.6076 345.386 83.3428 345.205 83.1474C345.025 82.952 344.78 82.8418 344.525 82.8408V82.8408C344.27 82.8418 344.025 82.952 343.845 83.1474C343.664 83.3428 343.563 83.6076 343.562 83.8839V83.8839C343.563 84.1603 343.664 84.425 343.845 84.6204C344.025 84.8159 344.27 84.9261 344.525 84.927V84.927Z" fill="#4A75CB"/>
<path d="M334.365 260.243C334.365 258.912 334.001 257.612 333.319 256.506C332.637 255.4 331.667 254.537 330.532 254.028C329.397 253.519 328.148 253.385 326.943 253.645C325.739 253.904 324.632 254.544 323.763 255.485C322.894 256.425 322.303 257.624 322.063 258.928C321.823 260.233 321.946 261.585 322.416 262.814C322.886 264.043 323.682 265.094 324.703 265.833C325.725 266.572 326.926 266.966 328.154 266.966C329.801 266.966 331.38 266.258 332.545 264.997C333.71 263.736 334.364 262.026 334.365 260.243V260.243Z" fill="#4A75CB"/>
<path d="M369.011 90.9473H289.857V249.167H369.011V90.9473Z" fill="white"/>
<path d="M209.198 95.6904H132.584C130.172 95.6904 128.217 97.8075 128.217 100.419V266.321C128.217 268.933 130.172 271.05 132.584 271.05H209.198C211.61 271.05 213.565 268.933 213.565 266.321V100.419C213.565 97.8075 211.61 95.6904 209.198 95.6904Z" fill="#4A75CB"/>
<path d="M217.471 95.6904H140.856C138.445 95.6904 136.49 97.8075 136.49 100.419V266.321C136.49 268.933 138.445 271.05 140.856 271.05H217.471C219.883 271.05 221.838 268.933 221.838 266.321V100.419C221.838 97.8075 219.883 95.6904 217.471 95.6904Z" fill="#699FF0"/>
<path d="M218.605 109.71H139.542V251.806H218.605V109.71Z" fill="white"/>
<path d="M169.485 102.328H191.671C191.9 102.328 192.12 102.427 192.282 102.602C192.444 102.777 192.535 103.015 192.535 103.263C192.535 103.511 192.444 103.749 192.282 103.924C192.12 104.1 191.9 104.198 191.671 104.198H169.485C169.256 104.198 169.036 104.1 168.874 103.924C168.712 103.749 168.621 103.511 168.621 103.263C168.621 103.015 168.712 102.777 168.874 102.602C169.036 102.427 169.256 102.328 169.485 102.328Z" fill="#4A75CB"/>
<path d="M165.546 102.328C165.716 102.328 165.883 102.383 166.025 102.486C166.167 102.588 166.278 102.735 166.343 102.905C166.409 103.076 166.426 103.264 166.393 103.446C166.359 103.627 166.277 103.794 166.156 103.924C166.035 104.055 165.882 104.144 165.714 104.18C165.547 104.217 165.373 104.198 165.215 104.127C165.057 104.056 164.922 103.937 164.828 103.783C164.733 103.629 164.682 103.448 164.682 103.263C164.682 103.015 164.774 102.778 164.935 102.603C165.097 102.427 165.317 102.329 165.546 102.328V102.328Z" fill="#4A75CB"/>
<path d="M183.372 263.69C183.933 261.116 182.461 258.538 180.085 257.931C177.708 257.323 175.327 258.917 174.766 261.49C174.205 264.063 175.677 266.642 178.053 267.249C180.43 267.856 182.811 266.263 183.372 263.69Z" fill="#4A75CB"/>
<path d="M47.7763 270.935C47.7763 270.935 40.6411 271.217 39.5849 270.935C39.5409 270.721 38.2227 261.712 38.2227 261.712L37.1259 253.38C36.9721 252.214 38.2582 251.446 39.0559 252.244C39.5301 252.735 39.8794 253.35 40.0699 254.03C40.9673 256.958 43.6189 261.692 47.5414 262.925C51.6684 264.223 47.7763 270.935 47.7763 270.935Z" fill="#163560"/>
<path d="M84.985 229.163L84.2837 229.434C84.2837 229.434 82.4467 226.069 78.6915 227.421C78.6915 227.421 77.1924 228.102 78.0814 228.991C78.9703 229.881 78.7574 229.419 79.9793 230.699C81.2011 231.978 82.8861 232.618 84.0353 232.186L85.3163 231.698L84.985 229.163Z" fill="#E49963"/>
<path d="M116.627 257.342C116.627 257.342 90.4472 235.682 82.9959 235.445C75.5447 235.207 51.3929 271.014 51.3929 271.014H60.4395C60.4395 271.014 76.3796 261.828 81.987 253.097C82.1174 252.895 82.292 252.732 82.4952 252.621C82.6983 252.51 82.9237 252.456 83.151 252.463C83.3783 252.47 83.6004 252.538 83.7975 252.66C83.9947 252.783 84.1605 252.957 84.2803 253.166C87.1787 258.182 94.7583 270.484 99.6593 271.014C104.922 271.582 116.627 257.342 116.627 257.342Z" fill="#163560"/>
<path d="M114.121 198.401C114.121 198.401 114.29 199.821 114.499 201.572C114.783 203.849 115.16 206.674 115.408 207.557L123.285 209.718L123.865 203.516C123.865 203.516 121.891 199.232 121.903 193.171L114.121 198.401Z" fill="#FFB27D"/>
<path d="M120.972 211.31L109.779 226.157L105.865 231.349C105.865 231.349 98.8548 232.771 95.174 233.116C92.519 233.365 84.0403 232.201 84.0403 232.201L84.2836 229.442C84.2836 229.442 89.5446 227.019 92.0441 226.45C94.5943 225.871 101.037 224.298 101.037 224.298C103.472 223.339 112.726 210.39 112.726 210.39L120.972 211.31Z" fill="#82B378"/>
<path d="M128.271 264.327L105.38 262.303C105.38 262.303 105.317 261.807 105.211 260.973C105.178 260.705 105.159 260.435 105.154 260.164C105.101 257.688 105.999 254.35 106.387 251.069C106.642 248.902 106.675 246.761 106.063 244.909C105.36 242.772 105.035 238.717 104.892 234.861C104.711 230.031 104.816 225.519 104.812 225.486C104.584 222.411 105.258 218.996 106.391 215.748C108.623 209.343 112.787 205.72 114.743 203.57C114.743 203.57 117.132 204.208 123.341 202.192C123.526 202.131 124.06 202.978 124.296 203.473C124.296 203.473 126.983 207.155 128.089 216.134C129.081 224.175 128.271 264.327 128.271 264.327Z" fill="#A8D29F"/>
<path d="M122.547 219.818C122.503 220.945 113.293 252.692 114.42 255.034C119.882 266.366 106.113 261.256 105.366 258.339C105.622 256.173 106.678 246.761 106.066 244.909C105.363 242.772 105.039 238.716 104.895 234.86C105.125 233.453 105.666 232 106.394 230.597C109.816 230.016 122.89 211.076 122.547 219.818Z" fill="#82B378"/>
<path d="M76.7648 226.005L79.604 223.895C79.6275 223.878 79.6531 223.864 79.6801 223.853V223.853L80.2141 223.617L82.8268 232.549L80.542 234.551L80.1313 234.745C80.0244 234.778 79.91 234.764 79.8127 234.706C79.7154 234.648 79.6429 234.551 79.6108 234.436L76.655 226.589C76.6104 226.493 76.597 226.383 76.6169 226.277C76.6368 226.171 76.6889 226.075 76.7648 226.005V226.005Z" fill="#373480"/>
<path d="M83.4133 232.022L80.7093 234.478C80.5184 234.661 80.2209 234.524 80.1077 234.222L77.1451 226.371C77.1012 226.274 77.0887 226.164 77.1096 226.058C77.1304 225.953 77.1834 225.858 77.26 225.789L80.106 223.679C80.3003 223.536 80.5775 223.668 80.6857 223.955L83.513 231.458C83.5527 231.552 83.5644 231.656 83.5465 231.757C83.5286 231.859 83.4821 231.951 83.4133 232.022Z" fill="#575B9F"/>
<path d="M82.974 231.06L80.3054 233.479L77.6234 226.362L80.4204 224.283L82.974 231.06Z" fill="#E2E7F2"/>
<path d="M81.921 232.697C81.901 232.634 81.9019 232.565 81.9235 232.503C81.945 232.441 81.986 232.388 82.0393 232.355C82.1424 232.311 82.2539 232.39 82.2911 232.538C82.3119 232.6 82.3115 232.669 82.2902 232.731C82.2688 232.793 82.2279 232.846 82.1745 232.878C82.1468 232.887 82.1176 232.889 82.0891 232.884C82.0605 232.88 82.0332 232.868 82.0091 232.851C81.985 232.834 81.9646 232.811 81.9494 232.785C81.9342 232.758 81.9245 232.728 81.921 232.697V232.697Z" fill="#373480"/>
<path d="M78.0291 226.494L80.2987 224.759L82.6529 230.871L80.341 232.824L78.0291 226.494Z" fill="#CED4EA"/>
<path d="M78.6222 226.862L80.2125 225.646L81.8619 229.929L80.2429 231.296L78.6222 226.862Z" fill="#BCC5DD"/>
<path d="M84.6554 233.493L83.2156 233.442C83.2156 233.442 81.7808 230.219 78.4971 231.747C78.4971 231.747 77.1789 232.492 77.9056 233.323C78.6323 234.154 78.4616 233.713 79.4638 234.909C80.4659 236.106 81.8788 236.655 82.8894 236.172L84.0099 235.623L84.6554 233.493Z" fill="#E49963"/>
<path d="M120.419 203.624C120.419 203.624 114.8 206.186 111.881 211.676C109.936 215.336 106.587 221.558 104.569 225.308C104.037 226.294 103.323 227.151 102.47 227.823C101.617 228.496 100.645 228.969 99.6153 229.215L92.7945 230.84L83.2156 233.433C83.062 233.795 83.0036 234.196 83.0466 234.591C83.1243 235.612 83.7412 235.817 83.7412 235.817C83.7412 235.817 92.6846 238.149 95.8686 238.407C103.712 239.046 107.43 237.933 108.582 237.474C108.837 237.371 109.073 237.223 109.282 237.036C110.484 235.978 115.092 231.797 117.519 227.802C119.885 223.917 126.388 213.817 126.388 213.817L120.419 203.624Z" fill="#A8D29F"/>
<path d="M128.44 254.736C128.44 254.736 130.698 271.023 123.776 271.023H47.5853C47.5853 271.023 45.4812 269.484 45.3342 266.554C45.177 263.443 46.0846 262.345 46.0846 262.345C46.0846 262.345 73.3561 261.319 78.8925 259.309C106.639 249.228 128.44 254.736 128.44 254.736Z" fill="#1C468A"/>
<path d="M114.121 198.401C114.121 198.401 114.29 199.821 114.499 201.572C121.776 199.274 121.903 193.171 121.903 193.171L114.121 198.401Z" fill="#E8945B"/>
<path d="M112.976 198.855C112.976 198.855 121.822 199.138 121.901 193.171C121.981 187.203 123.174 183.221 117.529 182.787C111.885 182.354 110.758 184.617 110.283 186.599C109.808 188.581 110.676 198.628 112.976 198.855Z" fill="#FFB27D"/>
<path d="M122.059 195.51C122.059 195.51 121.124 195.34 121.274 193.946C121.425 192.551 121.423 190.73 120.377 191.069C119.331 191.407 119.278 192.317 118.856 191.786C118.433 191.256 118.418 189.025 115.307 188.869C112.196 188.714 110.926 189.887 109.478 189.197C108.03 188.507 107.957 186.133 107.957 186.133C107.957 186.133 108.37 186.982 108.991 187.251C108.991 187.251 106.575 183.672 109.373 181.212C112.172 178.753 115.023 180.365 116.64 180.48C120.206 180.715 122.511 180.947 123.676 183.485C124.84 186.024 124.347 193.065 122.059 195.51Z" fill="#2B478B"/>
<path d="M344.579 56.0714L368.315 63.611L353.818 49.2217L352.492 52.8981L346.443 53.1306L344.579 56.0714Z" fill="#82B378"/>
<path d="M368.315 63.6104L349.653 49.1918L330.028 45.0176L368.315 63.6104Z" fill="#A8D29F"/>
<path d="M353.818 49.2216L368.315 63.6109L358.344 43.1094L353.818 49.2216Z" fill="#A8D29F"/>
<path d="M411.033 95.107C412.6 94.0694 415.103 95.3101 415.103 95.3101C414.238 93.9925 411.081 94.4225 411.081 94.4225C417.371 92.975 418.686 97.3286 418.792 97.7367C423.355 93.277 430.659 102.782 430.659 102.782L420.181 117.828C420.181 117.828 419.226 115.435 417.962 116.181C415.994 117.345 412.184 112.631 413.399 106.427C413.521 105.803 413.676 105.187 413.864 104.583C413.455 104.794 413.011 104.913 412.558 104.934C411.41 104.934 409.685 101.768 409.446 100.703C409.208 99.638 409.465 96.1464 411.033 95.107Z" fill="#233862"/>
<path d="M441.017 160.608C447.657 157.96 454.052 145.657 454.052 145.657L451.958 144.068C450.214 146.832 442.368 152.137 442.368 152.137C442.189 149.807 441.928 147.695 441.607 145.783C439.429 132.79 434.447 128.929 433.108 128.111C432.999 128.042 432.886 127.98 432.77 127.928C432.77 127.928 432.77 128.023 432.784 128.206C432.804 128.596 432.846 129.384 432.915 130.466C433.436 138.514 435.469 162.824 441.017 160.608Z" fill="#FFB27D"/>
<path d="M408.928 173.885C412.208 165.919 413.778 163.668 413.829 161.161C413.873 159.179 412.97 157.042 411.218 151.797C410.81 150.569 410.517 149.299 410.344 148.007C408.958 137.898 414.356 126.971 417.711 126.23C418.645 125.963 420.227 122.312 420.207 116.429L420.627 116.518L427.693 118.034C427.693 118.034 427.524 120.44 427.524 122.709C427.524 124.6 427.624 126.391 428.02 126.616C428.527 126.666 428.829 126.699 428.829 126.699C428.829 126.699 434.719 135.558 435.214 143.796C435.709 152.035 430.497 155.615 435.254 172.079C440.117 188.891 407.121 178.286 408.928 173.885Z" fill="#FFB27D"/>
<path d="M427.697 118.035C427.697 118.035 427.528 120.441 427.528 122.71C423.573 122.59 421.484 118.684 420.627 116.52L427.697 118.035Z" fill="#E8945B"/>
<path d="M419.901 115.681C419.901 115.681 417.829 112.137 417.332 109.106C416.977 106.941 417.994 98.9202 425.444 100.075C426.943 100.3 428.377 100.888 429.639 101.793C431.254 102.974 433.586 105.527 430.979 112.526L430.303 114.891L419.901 115.681Z" fill="#233862"/>
<path d="M429.017 120.176C429.017 120.176 419.662 120.345 419.656 114.035C419.649 107.725 418.437 103.498 424.41 103.125C430.382 102.751 431.545 105.158 432.015 107.262C432.485 109.367 431.457 119.972 429.017 120.176Z" fill="#FFB27D"/>
<path d="M417.21 250.321C418.646 256.479 420.62 262.476 423.107 268.229L426.191 267.997C426.191 267.997 424.67 260.204 424.765 249.676C424.825 242.316 425.667 233.616 428.352 225.31C437.582 196.762 436.091 175.995 436.091 175.995L418.735 178.191L417.925 178.294C417.854 186.926 417.648 198.645 417.467 207.808C417.308 216.043 417.168 222.223 417.168 222.223C413.832 230.006 415.044 240.991 417.21 250.321Z" fill="#163560"/>
<path d="M422.179 111.467C418.248 112.565 416.543 111.419 416.543 111.419C416.543 111.419 419.558 108.826 420.185 104.301C420.185 104.301 421.91 98.399 428.594 102.837C429.206 102.268 430.298 101.856 431.741 103.752C433.909 106.599 431.981 111.621 431.981 111.621C431.09 111.732 430.881 108.426 430.414 106.819C430.076 105.637 428.946 104.44 428.374 103.876C428.187 104.623 426.301 111.694 421.606 114.044C423.059 112.582 424.322 110.912 425.359 109.081C424.45 110.212 423.377 111.132 422.179 111.467Z" fill="#233862"/>
<path d="M395.22 184.625C395.932 184.138 396.621 182.643 396.868 182.063C399.043 176.207 401.549 164.828 402.377 162.735C402.68 161.973 403.258 158.376 404.018 153.74C405.379 145.425 407.315 133.766 409.257 129.147C409.49 128.598 410.158 128.122 411.032 127.727C413.673 126.53 418.189 126.03 418.189 126.03L415.823 137.089L415.132 140.332C415.132 140.332 413.033 148.342 411.414 154.888C410.626 158.048 409.953 160.87 409.678 162.279C408.833 166.609 399.573 183.253 399.573 183.253C399.573 183.253 399.293 183.456 398.967 184.468C398.641 185.48 396.018 190.853 394.896 190.853C393.773 190.853 393.544 189.023 393.305 187.862C393.067 186.702 394.331 185.234 395.22 184.625Z" fill="#FFB27D"/>
<path d="M451.958 144.069C451.958 143.758 451.715 139.232 452.465 138.283C453.216 137.333 454.728 135.98 455.207 136.022C455.685 136.065 457.551 138.751 456.989 140.812C456.428 142.872 454.059 145.657 454.059 145.657L451.958 144.069Z" fill="#FFB27D"/>
<path d="M448.546 138.531L452.876 139.936C452.945 139.959 453.019 139.95 453.083 139.913C453.146 139.876 453.193 139.813 453.214 139.739L455.688 130.799C455.709 130.725 455.701 130.644 455.667 130.575C455.633 130.507 455.575 130.456 455.506 130.433L451.176 129.028C451.107 129.006 451.033 129.014 450.969 129.051C450.906 129.088 450.859 129.151 450.838 129.225L448.365 138.165C448.355 138.202 448.351 138.241 448.355 138.279C448.358 138.317 448.369 138.355 448.386 138.389C448.402 138.423 448.425 138.453 448.453 138.477C448.48 138.502 448.512 138.52 448.546 138.531V138.531Z" fill="#575B9F"/>
<path d="M449.672 138.897L453.599 140.178C453.66 140.198 453.724 140.205 453.787 140.198C453.85 140.192 453.911 140.171 453.967 140.139C454.022 140.106 454.072 140.062 454.111 140.009C454.151 139.956 454.181 139.895 454.199 139.829L456.553 131.325C456.59 131.192 456.576 131.05 456.516 130.928C456.455 130.806 456.353 130.715 456.231 130.675L452.303 129.394C452.243 129.374 452.179 129.368 452.116 129.375C452.053 129.382 451.992 129.402 451.936 129.434C451.881 129.467 451.831 129.511 451.791 129.564C451.751 129.617 451.721 129.678 451.703 129.744L449.349 138.248C449.331 138.313 449.325 138.382 449.331 138.45C449.337 138.518 449.356 138.585 449.386 138.645C449.416 138.705 449.457 138.759 449.506 138.802C449.555 138.845 449.611 138.878 449.672 138.897V138.897Z" fill="#373480"/>
<path d="M407.253 248.697C408.252 260.226 412.646 267.687 412.646 267.687L414.145 269.168C414.145 269.168 415.514 260.722 416.5 251.051C415.459 251.142 410.876 251.323 407.253 248.697Z" fill="#FFB27D"/>
<path d="M411.375 155.239C410.332 155.543 406.981 156.223 403.134 153.932C404.719 145.556 406.972 133.815 409.23 129.163C409.369 128.909 409.559 128.692 409.786 128.528C409.778 128.519 409.771 128.509 409.764 128.499C411.878 126.834 416.203 126.321 416.203 126.321C416.203 126.321 417.535 132.726 418.378 133.559C419.221 134.392 431.432 135.755 431.712 134.243C431.981 132.792 428.537 127.147 428.28 126.649C428.466 126.653 428.651 126.668 428.836 126.695C430.227 126.892 431.202 127.044 431.918 127.174C433.304 127.432 434.153 128.074 434.232 128.175C435.876 129.522 439.74 133.665 441.251 143.639C441.251 143.639 439.339 146.473 436.649 147.311C436.578 147.333 436.507 147.352 436.434 147.37C436.902 155.825 439.777 169.894 438.741 178.033C437.746 185.859 422.544 183.856 419.531 183.13C417.464 182.633 415.863 180.278 414.726 176.064C414.347 179.005 413.501 182.453 411.601 182.667C408.492 183.017 407.207 182.435 406.832 181.159C406.716 180.662 406.679 180.147 406.722 179.637C406.925 175.241 410.013 164.883 411.375 155.239Z" fill="#575B9F"/>
<path d="M417.21 250.32C418.646 256.479 420.621 262.475 423.107 268.228L426.191 267.996C426.191 267.996 424.67 260.204 424.765 249.676C423.719 250.247 421.559 250.825 417.21 250.32Z" fill="#D9935C"/>
<path d="M421.331 271.023H423.299C423.958 270.912 424.445 270.705 425.123 270.608C426.15 270.463 426.622 270.919 426.717 271.023C426.724 271.03 426.73 271.037 426.735 271.045H435.101C435.31 270.719 435.109 269.966 434.911 269.411C434.845 269.225 434.739 269.058 434.603 268.923C434.467 268.789 434.304 268.69 434.127 268.635C433.24 268.357 431.492 268.11 429.89 266.54C428.99 265.658 425.539 263.299 425.539 263.299H425.522C425.446 263.299 425.084 263.421 423.516 264.854C422.704 265.586 421.319 263.809 421.319 263.809C421.128 263.997 420.974 264.223 420.864 264.476C420.669 264.907 420.606 265.394 420.685 265.866C420.81 266.682 420.408 268.2 420.085 269.224C419.891 269.847 419.727 270.288 419.727 270.288C419.727 270.288 419.635 270.8 421.331 271.023Z" fill="#233862"/>
<path d="M420.867 264.475C421.339 264.841 422.331 265.54 422.988 265.633C423.877 265.76 425.539 263.304 425.539 263.304H425.522C425.446 263.304 425.084 263.426 423.516 264.859C422.704 265.591 421.319 263.814 421.319 263.814C421.13 264.001 420.977 264.225 420.867 264.475Z" fill="#466AA5"/>
<path d="M421.331 271.023H423.299C423.958 270.911 424.445 270.705 425.123 270.608C426.15 270.463 426.622 270.919 426.717 271.023C426.724 271.029 426.73 271.037 426.735 271.045H435.101C435.31 270.719 435.109 269.965 434.911 269.411C434.656 269.166 434.585 270.472 434.445 270.681C434.305 270.89 427.621 270.758 427.235 270.454C426.85 270.15 425.691 269.618 424.077 270.035C422.672 270.401 420.602 269.468 420.088 269.219C419.894 269.841 419.73 270.282 419.73 270.282C419.73 270.282 419.635 270.8 421.331 271.023Z" fill="#466AA5"/>
<path d="M410.822 271.023H412.791C413.45 270.912 413.937 270.705 414.614 270.608C415.642 270.463 416.113 270.919 416.208 271.023C416.215 271.03 416.221 271.037 416.227 271.045H424.592C424.802 270.719 424.592 269.966 424.403 269.411C424.336 269.225 424.231 269.058 424.095 268.923C423.959 268.789 423.796 268.69 423.619 268.635C422.732 268.357 420.982 268.11 419.382 266.54C418.481 265.658 415.03 263.299 415.03 263.299H415.012C414.937 263.299 414.576 263.421 413.007 264.854C412.196 265.586 410.81 263.809 410.81 263.809C410.62 263.997 410.466 264.223 410.356 264.476C410.161 264.907 410.098 265.394 410.177 265.866C410.302 266.682 409.899 268.2 409.577 269.224C409.382 269.847 409.218 270.288 409.218 270.288C409.218 270.288 409.127 270.8 410.822 271.023Z" fill="#233862"/>
<path d="M410.359 264.475C410.831 264.841 411.823 265.54 412.48 265.633C413.369 265.76 415.03 263.304 415.03 263.304H415.012C414.937 263.304 414.576 263.426 413.007 264.859C412.196 265.591 410.81 263.814 410.81 263.814C410.622 264.001 410.468 264.225 410.359 264.475Z" fill="#466AA5"/>
<path d="M410.822 271.023H412.791C413.45 270.911 413.937 270.705 414.614 270.608C415.642 270.463 416.113 270.919 416.208 271.023C416.215 271.029 416.221 271.037 416.227 271.045H424.592C424.802 270.719 424.592 269.965 424.403 269.411C424.148 269.166 424.077 270.472 423.937 270.681C423.796 270.89 417.112 270.758 416.727 270.454C416.342 270.15 415.182 269.618 413.568 270.035C412.164 270.401 410.094 269.468 409.58 269.219C409.386 269.841 409.222 270.282 409.222 270.282C409.222 270.282 409.127 270.8 410.822 271.023Z" fill="#466AA5"/>
<path d="M406.722 179.637C408.811 178.881 411.49 176.872 414.707 172.37C423.227 160.447 415.431 146.435 414.386 146.175C413.342 145.915 411.375 155.239 411.375 155.239C410.013 164.883 406.925 175.241 406.722 179.637Z" fill="#373480"/>
<path d="M455.573 136.335C455.573 136.335 454.206 134.992 453.091 136.262C451.975 137.532 453.513 139.799 454.639 140.341C455.764 140.883 456.138 141.186 456.138 141.186L455.573 136.335Z" fill="#FFB27D"/>
<path d="M427.19 116.432C427.19 116.432 427.35 117.175 429.059 117.06C429.059 117.06 430.494 116.965 430.45 116.145C430.443 116.149 429.059 115.567 427.19 116.432Z" fill="white"/>
<path d="M356.064 214.16L356.078 184.543C356.077 184.049 355.895 183.576 355.573 183.227C355.25 182.877 354.814 182.68 354.357 182.678L304.526 182.654C304.07 182.655 303.633 182.852 303.31 183.201C302.987 183.55 302.805 184.023 302.804 184.517L302.791 214.132C302.792 214.626 302.973 215.099 303.296 215.448C303.618 215.798 304.055 215.995 304.511 215.997L354.344 216.023C354.8 216.021 355.237 215.824 355.559 215.475C355.881 215.126 356.063 214.653 356.064 214.16V214.16Z" fill="#699FF0"/>
<path d="M356.075 187.624H302.801V194.223H356.075V187.624Z" fill="#365DA4"/>
<path d="M339.403 196.061H306.808V201.249H339.403V196.061Z" fill="#AFCDFB"/>
<path d="M313.453 210.569V206.79C313.452 206.417 313.315 206.059 313.072 205.795C312.828 205.531 312.498 205.382 312.153 205.381H308.097C307.752 205.381 307.421 205.529 307.177 205.794C306.933 206.058 306.796 206.416 306.796 206.79V210.571C306.796 210.944 306.933 211.303 307.177 211.567C307.421 211.831 307.752 211.98 308.097 211.98H312.153C312.324 211.98 312.493 211.943 312.651 211.872C312.809 211.801 312.953 211.697 313.073 211.566C313.194 211.435 313.29 211.28 313.355 211.109C313.42 210.937 313.453 210.754 313.453 210.569Z" fill="#AFCDFB"/>
<path opacity="0.2" d="M319.533 206.047L351.554 206.063C351.688 206.063 351.817 206.005 351.912 205.902C352.007 205.799 352.061 205.66 352.061 205.514V204.981C352.061 204.836 352.007 204.696 351.912 204.593C351.817 204.49 351.688 204.432 351.554 204.432L319.533 204.416C319.399 204.416 319.27 204.474 319.175 204.577C319.08 204.68 319.026 204.819 319.026 204.965V205.509C319.029 205.652 319.084 205.789 319.178 205.89C319.273 205.99 319.401 206.047 319.533 206.047V206.047Z" fill="#AFCDFB"/>
<path opacity="0.2" d="M319.527 209.094L351.559 209.108C351.69 209.106 351.815 209.048 351.908 208.948C352.001 208.848 352.055 208.712 352.057 208.57V208.071C352.057 207.927 352.005 207.788 351.912 207.686C351.819 207.583 351.692 207.524 351.559 207.522L319.528 207.507C319.462 207.505 319.396 207.518 319.335 207.545C319.274 207.571 319.218 207.61 319.17 207.661C319.123 207.711 319.086 207.77 319.06 207.836C319.034 207.902 319.021 207.973 319.021 208.045V208.554C319.023 208.697 319.078 208.834 319.172 208.935C319.267 209.036 319.394 209.093 319.527 209.094Z" fill="#AFCDFB"/>
<path opacity="0.2" d="M352.056 211.504V210.928C352.056 210.782 352.002 210.643 351.907 210.54C351.812 210.437 351.683 210.379 351.549 210.379L319.549 210.364C319.414 210.364 319.285 210.422 319.19 210.525C319.095 210.628 319.042 210.768 319.042 210.913V211.49C319.042 211.635 319.095 211.775 319.19 211.878C319.285 211.981 319.414 212.039 319.549 212.039L351.549 212.055C351.615 212.055 351.682 212.041 351.743 212.013C351.805 211.985 351.861 211.945 351.908 211.894C351.955 211.843 351.992 211.782 352.018 211.715C352.043 211.648 352.056 211.577 352.056 211.504Z" fill="#AFCDFB"/>
<path d="M201.877 157.578H156.271C154.584 157.578 153.217 159.059 153.217 160.885V191.44C153.217 193.267 154.584 194.747 156.271 194.747H201.877C203.564 194.747 204.931 193.267 204.931 191.44V160.885C204.931 159.059 203.564 157.578 201.877 157.578Z" fill="#4A75CB"/>
<path d="M197.076 146.777H155.417V169.813H197.076V146.777Z" fill="#82B378"/>
<path d="M196.855 146.433H155.196V169.469H196.855V146.433Z" fill="#82B378"/>
<path d="M196.559 146.137H154.9V169.173H196.559V146.137Z" fill="#82B378"/>
<path d="M196.273 145.853H154.615V168.889H196.273V145.853Z" fill="#A8D29F"/>
<path d="M156.244 147.582V167.163H194.644V147.582H156.244ZM193.189 165.644H157.699V149.099H193.189V165.644Z" fill="#82B378"/>
<path d="M156.244 147.582V152.034C156.742 152.192 157.268 152.221 157.779 152.121C158.29 152.02 158.772 151.792 159.188 151.455C159.603 151.117 159.94 150.68 160.173 150.177C160.405 149.674 160.526 149.12 160.526 148.557C160.526 148.23 160.484 147.904 160.401 147.589L156.244 147.582Z" fill="#82B378"/>
<path d="M194.644 147.562H190.532C190.444 147.889 190.399 148.228 190.399 148.569C190.398 149.128 190.516 149.681 190.745 150.182C190.974 150.684 191.308 151.121 191.719 151.459C192.13 151.798 192.608 152.029 193.116 152.134C193.623 152.239 194.147 152.215 194.644 152.064V147.562Z" fill="#82B378"/>
<path d="M194.644 167.163H190.532C190.444 166.836 190.399 166.497 190.399 166.156C190.397 165.596 190.515 165.044 190.743 164.542C190.972 164.04 191.305 163.602 191.717 163.263C192.129 162.924 192.607 162.693 193.115 162.589C193.623 162.484 194.146 162.509 194.644 162.661V167.163Z" fill="#82B378"/>
<path d="M156.244 167.143V162.687C156.546 162.591 156.859 162.542 157.173 162.542C157.69 162.54 158.201 162.667 158.665 162.915C159.128 163.163 159.532 163.524 159.845 163.969C160.158 164.415 160.371 164.933 160.468 165.483C160.564 166.033 160.542 166.6 160.401 167.139L156.244 167.143Z" fill="#82B378"/>
<path d="M179.951 157.38C179.951 158.345 179.687 159.289 179.192 160.091C178.696 160.894 177.992 161.519 177.169 161.889C176.345 162.258 175.439 162.355 174.565 162.166C173.69 161.978 172.887 161.513 172.257 160.831C171.627 160.148 171.197 159.279 171.023 158.332C170.849 157.385 170.939 156.404 171.28 155.512C171.621 154.62 172.199 153.858 172.94 153.322C173.681 152.785 174.553 152.499 175.444 152.499C176.639 152.499 177.786 153.013 178.631 153.929C179.476 154.844 179.951 156.085 179.951 157.38V157.38Z" fill="#82B378"/>
<path d="M192.77 169.092C197.441 168.297 200.633 163.552 199.899 158.494C199.165 153.436 194.783 149.98 190.112 150.775C185.441 151.57 182.249 156.314 182.983 161.372C183.717 166.43 188.099 169.886 192.77 169.092Z" fill="#E2810E"/>
<path d="M189.645 150.82C187.965 151.047 186.385 151.808 185.104 153.008C183.824 154.208 182.901 155.792 182.451 157.56C182.002 159.327 182.047 161.2 182.581 162.94C183.114 164.68 184.112 166.21 185.449 167.336C186.785 168.462 188.4 169.133 190.089 169.265C191.778 169.398 193.465 168.985 194.937 168.079C196.409 167.173 197.6 165.815 198.359 164.176C199.118 162.537 199.412 160.691 199.202 158.872C199.063 157.663 198.705 156.497 198.15 155.438C197.594 154.379 196.851 153.45 195.964 152.702C195.076 151.954 194.062 151.403 192.977 151.08C191.893 150.757 190.761 150.669 189.645 150.82Z" fill="#FFB93E"/>
<path d="M191.687 168.508C190.156 168.715 188.603 168.426 187.224 167.678C185.845 166.929 184.702 165.755 183.939 164.303C183.177 162.851 182.829 161.187 182.94 159.521C183.051 157.855 183.616 156.262 184.563 154.943C185.51 153.625 186.797 152.64 188.26 152.113C189.724 151.587 191.3 151.542 192.787 151.985C194.274 152.428 195.607 153.338 196.616 154.601C197.626 155.864 198.267 157.423 198.458 159.08C198.712 161.302 198.141 163.542 196.872 165.31C195.603 167.077 193.738 168.227 191.687 168.508V168.508ZM189.811 152.256C188.371 152.451 187.017 153.103 185.92 154.131C184.823 155.159 184.032 156.516 183.647 158.03C183.262 159.545 183.301 161.149 183.758 162.64C184.215 164.131 185.071 165.442 186.216 166.406C187.361 167.371 188.744 167.946 190.191 168.059C191.638 168.172 193.084 167.818 194.345 167.041C195.606 166.265 196.626 165.101 197.276 163.696C197.926 162.292 198.177 160.71 197.997 159.152C197.754 157.063 196.755 155.163 195.221 153.871C193.686 152.578 191.74 151.997 189.811 152.256V152.256Z" fill="#FFA412"/>
<path d="M192.065 162.416C192.068 162.251 192.043 162.087 191.991 161.931C191.94 161.787 191.859 161.657 191.754 161.552C191.628 161.427 191.487 161.323 191.333 161.241C191.13 161.133 190.919 161.04 190.703 160.963C190.307 160.819 189.919 160.652 189.54 160.464C189.218 160.307 188.916 160.103 188.645 159.858C188.401 159.635 188.203 159.359 188.063 159.049C187.794 158.374 187.782 157.611 188.029 156.926C188.147 156.623 188.323 156.35 188.545 156.125C188.781 155.888 189.055 155.698 189.353 155.565C189.69 155.415 190.046 155.322 190.409 155.287V153.885H191.45V155.307C191.802 155.35 192.144 155.456 192.464 155.62C192.758 155.771 193.023 155.983 193.243 156.244C193.463 156.51 193.632 156.821 193.74 157.159C193.862 157.538 193.922 157.937 193.919 158.339L192.038 158.352C192.038 157.828 191.928 157.437 191.709 157.179C191.599 157.05 191.465 156.949 191.315 156.883C191.166 156.816 191.005 156.786 190.843 156.794C190.67 156.791 190.499 156.822 190.336 156.886C190.205 156.939 190.086 157.023 189.988 157.131C189.897 157.236 189.829 157.361 189.789 157.497C189.745 157.644 189.724 157.797 189.726 157.951C189.726 158.1 189.748 158.248 189.794 158.388C189.842 158.528 189.919 158.653 190.02 158.754C190.147 158.88 190.291 158.985 190.446 159.065C190.659 159.18 190.878 159.28 191.102 159.366C191.524 159.534 191.908 159.706 192.254 159.882C192.576 160.042 192.876 160.248 193.147 160.495C193.404 160.727 193.61 161.02 193.747 161.352C193.884 161.683 193.95 162.044 193.939 162.407C193.947 162.762 193.886 163.115 193.76 163.443C193.64 163.745 193.463 164.016 193.24 164.239C193.002 164.475 192.726 164.661 192.425 164.788C192.084 164.933 191.726 165.024 191.362 165.059L191.371 166.362H190.335V165.064C189.977 165.029 189.625 164.945 189.287 164.815C188.957 164.692 188.652 164.502 188.388 164.255C188.118 163.999 187.903 163.681 187.757 163.326C187.59 162.9 187.508 162.441 187.516 161.979L189.398 161.966C189.392 162.231 189.434 162.494 189.523 162.74C189.594 162.931 189.705 163.101 189.848 163.236C189.981 163.359 190.139 163.448 190.309 163.496C190.48 163.545 190.656 163.569 190.833 163.567C191.016 163.57 191.197 163.539 191.371 163.478C191.513 163.428 191.644 163.347 191.756 163.24C191.858 163.139 191.938 163.013 191.989 162.874C192.043 162.728 192.068 162.573 192.065 162.416V162.416Z" fill="#FFA412"/>
<path d="M198.497 160.483H156.271C154.584 160.483 153.217 161.964 153.217 163.79V194.346C153.217 196.172 154.584 197.653 156.271 197.653H198.497C200.184 197.653 201.551 196.172 201.551 194.346V163.79C201.551 161.964 200.184 160.483 198.497 160.483Z" fill="#699FF0"/>
<path d="M202.988 184.148H187.989C186.745 184.148 185.552 183.613 184.673 182.66C183.793 181.708 183.299 180.416 183.299 179.069C183.299 178.403 183.42 177.742 183.656 177.126C183.891 176.51 184.237 175.95 184.672 175.478C185.108 175.006 185.625 174.632 186.194 174.377C186.763 174.122 187.373 173.991 187.989 173.991H202.988V184.148Z" fill="#4A75CB"/>
<path d="M187.989 183.049C190.019 183.049 191.665 181.267 191.665 179.069C191.665 176.871 190.019 175.089 187.989 175.089C185.959 175.089 184.313 176.871 184.313 179.069C184.313 181.267 185.959 183.049 187.989 183.049Z" fill="#E9F3FE"/>
<path d="M328.678 145.71C334.977 145.4 339.852 139.62 339.566 132.798C339.28 125.977 333.941 120.699 327.642 121.008C321.342 121.318 316.468 127.099 316.754 133.92C317.04 140.741 322.378 146.02 328.678 145.71Z" fill="#A8D29F"/>
<path d="M321.502 134.227L325.232 138.266C325.333 138.375 325.453 138.462 325.585 138.521C325.717 138.58 325.858 138.61 326.001 138.61H326.543C326.686 138.61 326.828 138.58 326.96 138.521C327.092 138.462 327.212 138.375 327.312 138.266L334.806 130.152C334.959 129.987 335.064 129.777 335.107 129.549C335.149 129.32 335.128 129.082 335.046 128.866C334.964 128.651 334.824 128.466 334.645 128.337C334.465 128.207 334.254 128.138 334.039 128.139H333.685C333.401 128.139 333.128 128.26 332.925 128.475L326.787 134.972C326.583 135.19 326.308 135.312 326.022 135.312C325.736 135.312 325.461 135.19 325.257 134.972L323.04 132.569C322.938 132.458 322.816 132.371 322.682 132.312C322.548 132.253 322.404 132.223 322.259 132.225C322.047 132.229 321.84 132.3 321.664 132.43C321.488 132.56 321.352 132.743 321.271 132.956C321.19 133.169 321.169 133.403 321.21 133.629C321.252 133.855 321.353 134.063 321.502 134.227V134.227Z" fill="white"/>
<path d="M111.89 137.999C111.569 138.044 111.249 138.086 110.933 138.129C110.76 138.153 110.585 138.102 110.447 137.986C110.308 137.871 110.218 137.7 110.196 137.513C110.173 137.325 110.221 137.136 110.327 136.986C110.434 136.836 110.591 136.738 110.764 136.714V136.714C111.332 136.641 111.91 136.56 112.498 136.476C112.668 136.459 112.837 136.514 112.97 136.63C113.103 136.745 113.19 136.912 113.212 137.095C113.234 137.278 113.189 137.463 113.087 137.612C112.986 137.76 112.835 137.86 112.667 137.891C112.417 137.925 112.152 137.964 111.89 137.999ZM114.425 137.633C114.258 137.645 114.092 137.587 113.963 137.472C113.833 137.356 113.749 137.192 113.728 137.012C113.706 136.832 113.749 136.65 113.847 136.503C113.945 136.356 114.091 136.254 114.256 136.22C114.826 136.13 115.403 136.036 115.988 135.938C116.157 135.919 116.326 135.97 116.46 136.082C116.594 136.194 116.684 136.357 116.709 136.539C116.735 136.72 116.696 136.905 116.599 137.056C116.502 137.206 116.355 137.311 116.189 137.347C115.599 137.446 115.017 137.54 114.443 137.631L114.425 137.633ZM109.194 138.348H109.174C108.577 138.418 107.991 138.48 107.416 138.531C107.247 138.539 107.081 138.476 106.954 138.355C106.826 138.234 106.747 138.065 106.731 137.882C106.716 137.699 106.767 137.517 106.872 137.374C106.978 137.23 107.13 137.136 107.298 137.111C107.861 137.056 108.446 136.992 109.035 136.928C109.205 136.914 109.373 136.972 109.504 137.089C109.636 137.206 109.72 137.373 109.74 137.556C109.76 137.739 109.713 137.923 109.611 138.07C109.508 138.217 109.357 138.315 109.189 138.344L109.194 138.348ZM117.896 137.049C117.811 137.062 117.724 137.057 117.64 137.034C117.556 137.011 117.477 136.971 117.408 136.915C117.269 136.802 117.176 136.634 117.151 136.447C117.126 136.26 117.17 136.07 117.274 135.919C117.379 135.767 117.534 135.667 117.707 135.64C118.277 135.537 118.853 135.432 119.434 135.325C119.521 135.305 119.611 135.303 119.698 135.322C119.786 135.34 119.869 135.377 119.942 135.431C120.016 135.485 120.079 135.554 120.127 135.635C120.176 135.716 120.208 135.807 120.223 135.902C120.238 135.996 120.236 136.094 120.215 136.187C120.194 136.281 120.157 136.369 120.104 136.447C120.051 136.524 119.984 136.589 119.907 136.638C119.83 136.687 119.745 136.718 119.657 136.73C119.07 136.84 118.49 136.946 117.918 137.047L117.896 137.049ZM105.696 138.696H105.657C105.052 138.742 104.457 138.78 103.889 138.809C103.717 138.814 103.55 138.745 103.424 138.618C103.297 138.491 103.222 138.315 103.214 138.129C103.206 137.942 103.266 137.76 103.381 137.621C103.496 137.481 103.656 137.396 103.829 137.384C104.385 137.356 104.969 137.32 105.566 137.274C105.734 137.266 105.899 137.328 106.026 137.448C106.154 137.567 106.234 137.735 106.251 137.916C106.267 138.098 106.219 138.28 106.116 138.424C106.013 138.568 105.862 138.664 105.696 138.692V138.696ZM121.361 136.416C121.192 136.434 121.024 136.382 120.891 136.27C120.757 136.158 120.668 135.995 120.643 135.814C120.617 135.633 120.656 135.448 120.753 135.298C120.85 135.148 120.996 135.043 121.161 135.007C121.73 134.897 122.305 134.783 122.885 134.666C122.972 134.644 123.062 134.642 123.149 134.658C123.237 134.675 123.32 134.711 123.395 134.764C123.47 134.816 123.533 134.885 123.583 134.965C123.632 135.045 123.666 135.136 123.682 135.23C123.699 135.325 123.697 135.422 123.678 135.516C123.658 135.611 123.622 135.699 123.57 135.778C123.518 135.856 123.452 135.922 123.376 135.972C123.299 136.022 123.215 136.054 123.127 136.068C122.542 136.185 121.966 136.3 121.393 136.41L121.361 136.416ZM102.188 138.868C102.164 138.868 102.14 138.868 102.115 138.868C101.498 138.879 100.898 138.877 100.334 138.868C100.164 138.855 100.006 138.773 99.8917 138.637C99.7772 138.502 99.7154 138.324 99.7191 138.14C99.7228 137.957 99.7917 137.782 99.9115 137.652C100.031 137.522 100.193 137.447 100.362 137.442C100.91 137.455 101.493 137.457 102.093 137.442C102.26 137.442 102.42 137.51 102.542 137.633C102.664 137.756 102.739 137.925 102.751 138.105C102.763 138.285 102.711 138.463 102.607 138.603C102.502 138.744 102.352 138.837 102.188 138.862V138.868ZM124.817 135.722C124.649 135.741 124.481 135.689 124.348 135.578C124.214 135.467 124.125 135.305 124.098 135.125C124.072 134.945 124.11 134.761 124.205 134.61C124.3 134.459 124.444 134.354 124.609 134.315L126.331 133.949C126.502 133.912 126.68 133.951 126.825 134.056C126.97 134.161 127.07 134.324 127.104 134.51C127.138 134.695 127.102 134.887 127.005 135.044C126.908 135.201 126.757 135.31 126.586 135.347C126.005 135.469 125.428 135.591 124.857 135.713L124.817 135.722ZM128.264 134.99C128.092 135.021 127.916 134.976 127.774 134.866C127.632 134.756 127.536 134.59 127.508 134.404C127.479 134.217 127.521 134.026 127.622 133.873C127.724 133.719 127.877 133.615 128.05 133.585C128.619 133.463 129.191 133.335 129.768 133.202C129.936 133.172 130.109 133.213 130.249 133.317C130.39 133.421 130.488 133.58 130.522 133.76C130.557 133.941 130.526 134.129 130.436 134.285C130.345 134.442 130.202 134.554 130.037 134.598L128.312 134.983L128.264 134.99ZM131.705 134.218C131.537 134.239 131.369 134.189 131.234 134.08C131.099 133.97 131.008 133.808 130.979 133.628C130.951 133.448 130.988 133.263 131.082 133.111C131.176 132.959 131.321 132.852 131.485 132.812C132.049 132.682 132.62 132.549 133.201 132.413C133.369 132.38 133.543 132.418 133.686 132.521C133.829 132.624 133.929 132.783 133.965 132.964C134.002 133.146 133.971 133.335 133.88 133.493C133.79 133.65 133.646 133.763 133.48 133.808L131.759 134.207L131.705 134.218ZM98.6791 138.76C98.6347 138.765 98.5899 138.765 98.5456 138.76C97.9084 138.709 97.3051 138.637 96.7508 138.548C96.582 138.515 96.4317 138.412 96.3318 138.261C96.2319 138.11 96.1903 137.923 96.2158 137.739C96.2413 137.555 96.3319 137.39 96.4684 137.277C96.6049 137.165 96.7766 137.114 96.9468 137.137C97.4674 137.221 98.0386 137.289 98.6368 137.336C98.7986 137.35 98.9498 137.429 99.0615 137.556C99.1732 137.684 99.2375 137.852 99.2421 138.027C99.2467 138.203 99.1913 138.374 99.0865 138.508C98.9817 138.643 98.8348 138.73 98.674 138.754L98.6791 138.76ZM135.139 133.391C134.973 133.41 134.805 133.361 134.671 133.251C134.537 133.142 134.447 132.982 134.418 132.803C134.39 132.624 134.425 132.44 134.517 132.289C134.609 132.137 134.751 132.029 134.914 131.987C135.484 131.852 136.053 131.714 136.628 131.573C136.798 131.534 136.976 131.568 137.122 131.67C137.269 131.771 137.372 131.931 137.411 132.115C137.449 132.298 137.418 132.491 137.326 132.65C137.233 132.81 137.086 132.923 136.917 132.966C136.341 133.105 135.77 133.244 135.198 133.38C135.179 133.385 135.159 133.389 135.139 133.391ZM138.568 132.556C138.397 132.588 138.221 132.545 138.08 132.437C137.938 132.328 137.841 132.164 137.811 131.979C137.78 131.794 137.819 131.603 137.918 131.449C138.016 131.294 138.168 131.189 138.338 131.154C138.902 131.015 139.472 130.873 140.049 130.728C140.219 130.685 140.398 130.718 140.546 130.818C140.695 130.918 140.8 131.078 140.84 131.262C140.879 131.447 140.849 131.641 140.757 131.801C140.664 131.962 140.516 132.076 140.346 132.119L138.632 132.545C138.611 132.551 138.59 132.554 138.568 132.556V132.556ZM141.992 131.698C141.826 131.718 141.659 131.669 141.524 131.561C141.39 131.453 141.299 131.294 141.269 131.115C141.24 130.937 141.274 130.753 141.365 130.601C141.456 130.449 141.596 130.34 141.759 130.296C142.322 130.152 142.891 130.006 143.466 129.859C143.551 129.832 143.641 129.825 143.729 129.837C143.817 129.85 143.902 129.881 143.979 129.93C144.056 129.978 144.122 130.043 144.175 130.121C144.228 130.198 144.266 130.286 144.287 130.38C144.307 130.473 144.31 130.57 144.295 130.665C144.28 130.76 144.248 130.851 144.2 130.932C144.152 131.013 144.089 131.082 144.015 131.136C143.942 131.19 143.859 131.228 143.772 131.246L142.06 131.685L141.992 131.698ZM95.2146 138.165C95.128 138.177 95.0402 138.17 94.956 138.145C94.3435 137.971 93.7503 137.725 93.1866 137.413C93.1102 137.369 93.0426 137.309 92.9876 137.237C92.9326 137.165 92.8912 137.082 92.8658 136.992C92.8405 136.903 92.8317 136.809 92.8399 136.716C92.8481 136.623 92.8731 136.532 92.9136 136.45C92.9541 136.367 93.0093 136.294 93.0759 136.234C93.1426 136.174 93.2194 136.13 93.302 136.102C93.3846 136.075 93.4715 136.065 93.5575 136.074C93.6435 136.083 93.7271 136.11 93.8034 136.154C94.2817 136.418 94.7848 136.625 95.3042 136.773C95.4511 136.816 95.5796 136.913 95.6678 137.048C95.756 137.182 95.7984 137.346 95.7879 137.51C95.7773 137.675 95.7144 137.831 95.6099 137.951C95.5054 138.071 95.3657 138.148 95.2146 138.169V138.165ZM145.408 130.809C145.242 130.828 145.076 130.779 144.943 130.672C144.809 130.564 144.718 130.406 144.688 130.228C144.658 130.051 144.691 129.868 144.78 129.716C144.869 129.564 145.008 129.454 145.169 129.409L146.876 128.96C146.962 128.933 147.051 128.925 147.139 128.937C147.228 128.949 147.313 128.98 147.39 129.028C147.467 129.076 147.534 129.141 147.587 129.218C147.641 129.295 147.679 129.383 147.7 129.476C147.721 129.57 147.725 129.667 147.71 129.762C147.696 129.857 147.664 129.948 147.616 130.029C147.568 130.11 147.506 130.18 147.432 130.235C147.359 130.289 147.276 130.327 147.189 130.346L145.479 130.794C145.457 130.803 145.434 130.81 145.411 130.816L145.408 130.809ZM148.821 129.906C148.654 129.931 148.484 129.885 148.348 129.778C148.211 129.671 148.117 129.511 148.086 129.331C148.056 129.151 148.09 128.966 148.182 128.812C148.274 128.659 148.417 128.55 148.581 128.508L150.285 128.049C150.37 128.021 150.46 128.012 150.549 128.023C150.638 128.034 150.724 128.064 150.801 128.111C150.879 128.159 150.947 128.224 151.001 128.301C151.055 128.378 151.094 128.466 151.115 128.56C151.137 128.654 151.141 128.751 151.126 128.847C151.112 128.942 151.08 129.034 151.032 129.115C150.984 129.197 150.921 129.267 150.847 129.322C150.774 129.376 150.69 129.414 150.603 129.432C150.034 129.587 149.465 129.74 148.896 129.892C148.873 129.901 148.849 129.908 148.825 129.914L148.821 129.906ZM152.23 128.991C152.062 129.019 151.89 128.974 151.752 128.868C151.613 128.761 151.518 128.6 151.487 128.419C151.455 128.238 151.49 128.051 151.583 127.897C151.676 127.743 151.821 127.634 151.987 127.593L153.689 127.127C153.774 127.098 153.864 127.089 153.953 127.099C154.041 127.109 154.127 127.139 154.205 127.186C154.283 127.234 154.351 127.298 154.406 127.374C154.46 127.451 154.499 127.539 154.521 127.633C154.543 127.726 154.548 127.824 154.534 127.92C154.52 128.015 154.488 128.107 154.441 128.189C154.393 128.27 154.331 128.341 154.257 128.396C154.184 128.451 154.101 128.489 154.013 128.508L152.31 128.975C152.285 128.983 152.259 128.989 152.233 128.993L152.23 128.991ZM155.649 128.056C155.484 128.077 155.318 128.029 155.184 127.922C155.05 127.816 154.958 127.658 154.927 127.481C154.895 127.304 154.927 127.121 155.015 126.969C155.103 126.816 155.242 126.705 155.402 126.658L157.102 126.182C157.186 126.158 157.273 126.152 157.359 126.165C157.445 126.177 157.528 126.208 157.603 126.255C157.678 126.302 157.744 126.365 157.796 126.44C157.849 126.514 157.887 126.599 157.909 126.69C157.932 126.781 157.937 126.875 157.925 126.968C157.914 127.061 157.886 127.151 157.842 127.232C157.798 127.313 157.741 127.384 157.672 127.441C157.603 127.498 157.524 127.54 157.44 127.564L155.737 128.038C155.708 128.047 155.679 128.054 155.649 128.056V128.056ZM159.046 127.103C158.878 127.13 158.708 127.085 158.57 126.98C158.432 126.874 158.337 126.714 158.304 126.534C158.272 126.354 158.305 126.168 158.397 126.014C158.488 125.859 158.631 125.749 158.796 125.706L160.486 125.225C160.569 125.201 160.656 125.195 160.742 125.208C160.828 125.22 160.91 125.251 160.985 125.298C161.06 125.345 161.125 125.407 161.178 125.481C161.23 125.556 161.269 125.641 161.291 125.731C161.313 125.822 161.319 125.916 161.307 126.009C161.296 126.102 161.268 126.191 161.224 126.272C161.181 126.353 161.123 126.424 161.054 126.481C160.986 126.538 160.907 126.579 160.824 126.603L159.125 127.086L159.046 127.103ZM92.2402 136.299C92.1226 136.315 92.0032 136.297 91.8943 136.246C91.7855 136.195 91.6913 136.113 91.6216 136.009C91.5828 135.951 91.5473 135.892 91.5118 135.826C91.2002 135.306 90.9354 134.754 90.7209 134.179C90.6648 134.005 90.6731 133.815 90.744 133.647C90.8149 133.479 90.943 133.348 91.1013 133.28C91.2597 133.213 91.4361 133.214 91.5935 133.284C91.751 133.354 91.8774 133.487 91.9461 133.656C92.1293 134.149 92.3557 134.621 92.6221 135.067L92.6897 135.175C92.7406 135.251 92.7773 135.336 92.7975 135.427C92.8178 135.518 92.8213 135.613 92.8078 135.705C92.7943 135.798 92.7641 135.886 92.7189 135.966C92.6737 136.046 92.6144 136.115 92.5444 136.17C92.4542 136.239 92.3497 136.283 92.2402 136.299ZM162.431 126.137C162.266 126.156 162.101 126.109 161.968 126.003C161.834 125.897 161.743 125.74 161.711 125.564C161.679 125.388 161.71 125.206 161.796 125.053C161.883 124.9 162.02 124.789 162.179 124.74L163.878 124.257C163.963 124.228 164.052 124.218 164.141 124.227C164.23 124.236 164.316 124.265 164.394 124.312C164.472 124.358 164.541 124.421 164.596 124.497C164.651 124.573 164.691 124.661 164.714 124.754C164.737 124.848 164.742 124.945 164.729 125.041C164.716 125.136 164.686 125.228 164.639 125.31C164.592 125.393 164.531 125.464 164.458 125.52C164.385 125.576 164.303 125.615 164.216 125.635L162.515 126.126C162.487 126.131 162.459 126.135 162.431 126.137V126.137ZM165.831 125.152C165.665 125.176 165.497 125.131 165.36 125.026C165.224 124.92 165.13 124.762 165.098 124.584C165.065 124.406 165.097 124.221 165.186 124.068C165.276 123.914 165.416 123.803 165.578 123.758L167.278 123.26C167.442 123.225 167.612 123.26 167.753 123.356C167.894 123.452 167.997 123.602 168.04 123.777C168.083 123.952 168.063 124.138 167.984 124.297C167.905 124.456 167.774 124.578 167.616 124.636L165.912 125.134C165.886 125.142 165.859 125.148 165.831 125.152V125.152ZM169.228 124.156C169.062 124.182 168.893 124.137 168.756 124.032C168.618 123.927 168.524 123.769 168.491 123.59C168.459 123.411 168.49 123.226 168.58 123.072C168.669 122.918 168.81 122.807 168.973 122.762L170.663 122.261C170.831 122.211 171.011 122.235 171.163 122.329C171.314 122.422 171.425 122.577 171.472 122.759C171.518 122.942 171.495 123.136 171.409 123.3C171.322 123.465 171.179 123.585 171.011 123.635L169.321 124.136C169.291 124.146 169.26 124.153 169.228 124.156V124.156ZM172.618 123.15C172.454 123.17 172.289 123.123 172.156 123.018C172.022 122.912 171.93 122.757 171.897 122.581C171.865 122.406 171.894 122.224 171.98 122.071C172.066 121.918 172.201 121.805 172.36 121.756L174.05 121.249C174.133 121.224 174.22 121.216 174.306 121.228C174.391 121.239 174.474 121.268 174.55 121.314C174.625 121.36 174.691 121.422 174.744 121.496C174.798 121.569 174.837 121.654 174.86 121.744C174.883 121.834 174.89 121.928 174.879 122.021C174.869 122.114 174.842 122.203 174.799 122.285C174.757 122.366 174.7 122.438 174.632 122.496C174.564 122.553 174.486 122.596 174.403 122.621L172.713 123.13C172.682 123.142 172.651 123.152 172.618 123.159V123.15ZM175.998 122.133C175.834 122.154 175.668 122.107 175.534 122.002C175.4 121.897 175.308 121.741 175.275 121.565C175.242 121.389 175.271 121.207 175.357 121.054C175.443 120.9 175.579 120.788 175.738 120.738L177.428 120.226C177.593 120.184 177.766 120.214 177.912 120.307C178.058 120.401 178.165 120.551 178.211 120.728C178.256 120.904 178.238 121.093 178.158 121.255C178.079 121.417 177.945 121.54 177.785 121.598L176.095 122.112C176.065 122.121 176.034 122.127 176.003 122.133H175.998ZM179.378 121.104C179.214 121.126 179.047 121.08 178.913 120.975C178.778 120.87 178.685 120.714 178.652 120.538C178.619 120.362 178.648 120.179 178.734 120.025C178.821 119.872 178.957 119.759 179.116 119.71C179.68 119.538 180.243 119.365 180.806 119.192C180.973 119.146 181.149 119.173 181.297 119.266C181.446 119.358 181.555 119.51 181.602 119.689C181.648 119.867 181.629 120.059 181.548 120.222C181.467 120.386 181.33 120.508 181.166 120.564L179.476 121.082C179.447 121.091 179.417 121.098 179.387 121.104H179.378ZM182.758 120.065C182.592 120.09 182.424 120.046 182.287 119.942C182.15 119.837 182.055 119.68 182.021 119.502C181.988 119.324 182.018 119.139 182.107 118.985C182.195 118.831 182.334 118.719 182.496 118.672L184.186 118.149C184.271 118.118 184.36 118.106 184.449 118.114C184.537 118.122 184.624 118.149 184.702 118.194C184.781 118.238 184.851 118.3 184.907 118.375C184.963 118.449 185.005 118.536 185.029 118.628C185.054 118.721 185.061 118.818 185.05 118.914C185.039 119.009 185.01 119.102 184.965 119.185C184.92 119.268 184.86 119.341 184.789 119.398C184.718 119.456 184.636 119.497 184.55 119.519L182.858 120.048C182.828 120.057 182.798 120.062 182.767 120.065H182.758ZM90.9913 132.783H90.9659C90.8799 132.792 90.7932 132.782 90.7107 132.754C90.6282 132.726 90.5516 132.681 90.4852 132.621C90.4188 132.562 90.364 132.488 90.3238 132.405C90.2836 132.323 90.2589 132.232 90.2511 132.139C90.1917 131.438 90.2362 130.731 90.3829 130.045C90.4221 129.861 90.5273 129.701 90.6753 129.601C90.8233 129.501 91.002 129.469 91.1721 129.511C91.3422 129.554 91.4898 129.667 91.5823 129.828C91.6748 129.988 91.7048 130.181 91.6656 130.366C91.551 130.905 91.5162 131.461 91.5625 132.013C91.5777 132.194 91.5282 132.375 91.4242 132.518C91.3202 132.662 91.1695 132.756 91.0031 132.783H90.9913ZM186.138 119.016C185.975 119.036 185.81 118.989 185.677 118.884C185.544 118.779 185.452 118.625 185.419 118.45C185.386 118.276 185.414 118.094 185.499 117.941C185.583 117.788 185.717 117.675 185.875 117.623L187.565 117.096C187.73 117.051 187.906 117.078 188.054 117.17C188.202 117.262 188.311 117.413 188.358 117.591C188.406 117.769 188.387 117.959 188.307 118.123C188.227 118.286 188.092 118.41 187.93 118.467L186.24 118.994C186.209 119.005 186.177 119.012 186.145 119.016H186.138ZM189.518 117.958C189.353 117.983 189.185 117.939 189.049 117.835C188.913 117.731 188.818 117.575 188.784 117.398C188.75 117.221 188.78 117.037 188.866 116.883C188.953 116.729 189.091 116.616 189.251 116.567L190.941 116.035C191.106 115.992 191.28 116.019 191.426 116.111C191.573 116.203 191.681 116.353 191.728 116.529C191.776 116.705 191.759 116.894 191.681 117.057C191.603 117.22 191.47 117.344 191.31 117.404L189.62 117.936C189.588 117.947 189.555 117.954 189.522 117.958H189.518ZM192.898 116.893C192.734 116.916 192.568 116.87 192.433 116.766C192.299 116.662 192.205 116.507 192.171 116.331C192.137 116.156 192.166 115.973 192.251 115.819C192.335 115.665 192.471 115.551 192.63 115.501C193.193 115.321 193.756 115.143 194.32 114.964C194.487 114.913 194.666 114.935 194.818 115.025C194.97 115.116 195.083 115.268 195.132 115.449C195.182 115.629 195.163 115.823 195.081 115.989C194.999 116.154 194.859 116.278 194.693 116.333L193.003 116.869C192.968 116.88 192.931 116.888 192.895 116.893H192.898ZM196.27 115.817C196.107 115.838 195.942 115.791 195.809 115.687C195.676 115.583 195.583 115.429 195.549 115.255C195.515 115.081 195.543 114.9 195.626 114.746C195.709 114.593 195.843 114.479 195.999 114.426L197.689 113.887C197.854 113.842 198.029 113.867 198.176 113.959C198.324 114.05 198.433 114.199 198.482 114.375C198.53 114.552 198.514 114.742 198.436 114.905C198.358 115.069 198.225 115.194 198.065 115.254L196.375 115.803C196.339 115.81 196.303 115.815 196.266 115.817H196.27ZM199.638 114.734C199.475 114.754 199.31 114.708 199.177 114.604C199.044 114.5 198.951 114.346 198.917 114.172C198.884 113.998 198.911 113.816 198.994 113.663C199.078 113.51 199.211 113.396 199.368 113.343L201.058 112.794C201.14 112.767 201.227 112.758 201.313 112.768C201.399 112.777 201.482 112.805 201.559 112.85C201.635 112.894 201.702 112.954 201.756 113.027C201.811 113.099 201.852 113.183 201.876 113.273C201.901 113.362 201.909 113.456 201.901 113.549C201.892 113.642 201.866 113.733 201.825 113.815C201.784 113.897 201.728 113.97 201.661 114.029C201.594 114.088 201.517 114.132 201.434 114.159L199.744 114.708C199.709 114.722 199.672 114.733 199.635 114.741L199.638 114.734ZM91.7484 129.163C91.611 129.181 91.4718 129.153 91.3496 129.083C91.1963 128.992 91.0827 128.839 91.0336 128.658C90.9845 128.476 91.0039 128.281 91.0876 128.115C91.3915 127.521 91.7487 126.962 92.154 126.444C92.266 126.298 92.4269 126.207 92.6012 126.19C92.7756 126.173 92.949 126.231 93.0835 126.352C93.218 126.474 93.3024 126.648 93.3183 126.837C93.3341 127.026 93.28 127.213 93.168 127.359C92.819 127.804 92.5111 128.285 92.2486 128.796C92.1983 128.896 92.1262 128.982 92.0385 129.046C91.9508 129.11 91.8501 129.151 91.745 129.163H91.7484ZM203.003 113.643C202.839 113.664 202.675 113.619 202.541 113.515C202.407 113.411 202.314 113.257 202.28 113.082C202.246 112.908 202.273 112.726 202.356 112.573C202.44 112.419 202.573 112.305 202.731 112.252L204.421 111.703C204.588 111.649 204.769 111.668 204.923 111.758C205.077 111.848 205.192 112 205.242 112.181C205.292 112.362 205.274 112.558 205.192 112.725C205.109 112.891 204.968 113.016 204.801 113.07L203.111 113.619C203.076 113.631 203.039 113.639 203.003 113.643V113.643ZM206.368 112.545C206.203 112.57 206.035 112.527 205.899 112.424C205.763 112.32 205.667 112.165 205.633 111.989C205.598 111.813 205.626 111.629 205.712 111.474C205.797 111.32 205.934 111.206 206.094 111.156L207.784 110.607C207.951 110.552 208.131 110.572 208.285 110.661C208.439 110.75 208.554 110.901 208.604 111.082C208.655 111.263 208.637 111.458 208.555 111.625C208.473 111.791 208.333 111.916 208.166 111.971L206.476 112.52C206.44 112.531 206.404 112.54 206.368 112.545V112.545ZM209.731 111.447C209.568 111.467 209.404 111.421 209.271 111.318C209.138 111.215 209.046 111.061 209.011 110.888C208.977 110.715 209.003 110.534 209.085 110.38C209.167 110.227 209.299 110.112 209.455 110.058L211.135 109.509C211.219 109.477 211.308 109.463 211.397 109.468C211.486 109.474 211.573 109.499 211.653 109.543C211.733 109.586 211.804 109.646 211.861 109.72C211.919 109.794 211.962 109.88 211.988 109.972C212.014 110.064 212.023 110.162 212.013 110.258C212.004 110.354 211.976 110.447 211.932 110.531C211.889 110.615 211.83 110.689 211.759 110.747C211.688 110.806 211.607 110.849 211.52 110.873L209.839 111.422C209.803 111.431 209.766 111.436 209.729 111.436L209.731 111.447ZM213.092 110.333C212.929 110.354 212.765 110.308 212.631 110.205C212.498 110.102 212.405 109.948 212.37 109.775C212.335 109.601 212.362 109.42 212.444 109.266C212.526 109.112 212.659 108.997 212.815 108.944L214.495 108.384C214.66 108.334 214.837 108.356 214.987 108.445C215.138 108.534 215.251 108.683 215.301 108.861C215.352 109.038 215.337 109.23 215.259 109.396C215.181 109.561 215.046 109.687 214.883 109.747L213.193 110.307C213.16 110.316 213.126 110.321 213.092 110.322V110.333ZM93.964 126.25C93.8248 126.27 93.6834 126.241 93.5604 126.168C93.4375 126.094 93.3394 125.98 93.2807 125.842C93.2219 125.704 93.2055 125.549 93.2339 125.4C93.2623 125.252 93.334 125.116 93.4384 125.015C93.8904 124.575 94.3625 124.161 94.8529 123.772C94.9225 123.717 95.0015 123.677 95.0854 123.654C95.1693 123.632 95.2565 123.627 95.3419 123.641C95.4274 123.655 95.5094 123.687 95.5834 123.736C95.6574 123.784 95.7219 123.848 95.7731 123.923C95.8244 123.998 95.8615 124.084 95.8822 124.175C95.9029 124.266 95.907 124.36 95.894 124.453C95.8811 124.545 95.8514 124.634 95.8067 124.714C95.7621 124.794 95.7033 124.864 95.6337 124.92C95.1571 125.3 94.7143 125.688 94.3206 126.072C94.2215 126.17 94.097 126.232 93.964 126.25V126.25ZM216.454 109.2C216.29 109.222 216.126 109.177 215.992 109.074C215.858 108.971 215.764 108.817 215.729 108.643C215.694 108.469 215.72 108.287 215.803 108.134C215.885 107.98 216.018 107.864 216.175 107.811L217.853 107.249C218.017 107.202 218.192 107.225 218.341 107.314C218.49 107.403 218.601 107.55 218.652 107.726C218.703 107.902 218.689 108.092 218.613 108.257C218.537 108.422 218.405 108.549 218.245 108.611L216.565 109.174C216.528 109.186 216.49 109.195 216.452 109.2H216.454ZM219.81 108.071C219.649 108.088 219.489 108.041 219.358 107.939C219.228 107.836 219.137 107.685 219.102 107.514C219.068 107.344 219.092 107.166 219.171 107.013C219.251 106.861 219.378 106.746 219.531 106.689L221.207 106.122C221.374 106.065 221.554 106.083 221.709 106.17C221.864 106.258 221.98 106.408 222.032 106.588C222.084 106.769 222.068 106.964 221.988 107.132C221.907 107.299 221.768 107.425 221.601 107.482L219.921 108.049C219.884 108.06 219.846 108.067 219.808 108.071H219.81ZM223.166 106.934C223.002 106.959 222.835 106.916 222.699 106.813C222.564 106.71 222.468 106.556 222.433 106.381C222.398 106.205 222.425 106.022 222.509 105.868C222.594 105.713 222.729 105.599 222.887 105.547L224.564 104.974C224.647 104.945 224.734 104.933 224.821 104.941C224.908 104.948 224.993 104.974 225.071 105.017C225.148 105.06 225.217 105.12 225.274 105.192C225.33 105.264 225.372 105.348 225.399 105.438C225.425 105.528 225.434 105.623 225.426 105.717C225.418 105.812 225.393 105.903 225.352 105.987C225.311 106.07 225.256 106.144 225.188 106.204C225.121 106.264 225.043 106.309 224.959 106.336L223.281 106.907C223.243 106.92 223.204 106.929 223.164 106.934H223.166ZM96.7795 123.984C96.6306 124.005 96.4797 123.97 96.3517 123.885C96.2237 123.8 96.1263 123.67 96.0756 123.517C96.025 123.364 96.0241 123.197 96.0731 123.043C96.1221 122.89 96.2181 122.759 96.3452 122.672C96.8302 122.343 97.3507 122.012 97.8932 121.688C98.0453 121.606 98.2207 121.591 98.3829 121.645C98.545 121.7 98.6814 121.821 98.7636 121.982C98.8458 122.143 98.8674 122.332 98.8239 122.509C98.7805 122.687 98.6753 122.84 98.5304 122.936C98.0098 123.247 97.5164 123.565 97.0465 123.88C96.9655 123.935 96.8744 123.971 96.7795 123.984ZM226.519 105.789C226.357 105.809 226.194 105.763 226.061 105.66C225.928 105.557 225.835 105.405 225.8 105.232C225.766 105.06 225.791 104.879 225.872 104.726C225.953 104.572 226.084 104.457 226.239 104.402L227.915 103.827C228.08 103.777 228.256 103.798 228.407 103.886C228.557 103.974 228.67 104.121 228.722 104.298C228.774 104.474 228.76 104.666 228.684 104.832C228.608 104.998 228.475 105.125 228.314 105.187L226.636 105.761C226.598 105.774 226.559 105.783 226.519 105.789V105.789ZM229.874 104.636C229.711 104.657 229.548 104.611 229.414 104.509C229.281 104.406 229.188 104.254 229.153 104.081C229.117 103.908 229.143 103.727 229.224 103.573C229.305 103.419 229.436 103.304 229.592 103.249L231.266 102.67C231.35 102.637 231.439 102.622 231.528 102.627C231.616 102.632 231.704 102.656 231.784 102.698C231.864 102.74 231.935 102.799 231.993 102.872C232.052 102.945 232.096 103.03 232.123 103.122C232.15 103.214 232.16 103.31 232.151 103.406C232.143 103.502 232.117 103.595 232.075 103.68C232.032 103.765 231.974 103.839 231.904 103.899C231.835 103.959 231.754 104.003 231.669 104.028L229.99 104.608C229.952 104.621 229.913 104.63 229.874 104.636V104.636ZM99.8536 122.136C99.699 122.158 99.5422 122.12 99.4111 122.029C99.2801 121.937 99.1834 121.798 99.1383 121.636C99.0932 121.475 99.1027 121.301 99.165 121.146C99.2273 120.991 99.3384 120.865 99.4785 120.791C99.9855 120.515 100.535 120.242 101.092 119.966C101.25 119.898 101.426 119.898 101.584 119.967C101.741 120.037 101.868 120.169 101.938 120.337C102.007 120.505 102.014 120.695 101.957 120.868C101.9 121.042 101.783 121.184 101.632 121.267C101.091 121.53 100.562 121.801 100.063 122.068C99.9975 122.104 99.9266 122.127 99.8536 122.136V122.136ZM233.228 103.47C233.066 103.492 232.902 103.447 232.768 103.345C232.634 103.242 232.54 103.089 232.505 102.916C232.469 102.743 232.495 102.562 232.576 102.408C232.657 102.254 232.789 102.138 232.945 102.083L234.621 101.497C234.785 101.447 234.961 101.467 235.112 101.554C235.263 101.642 235.376 101.789 235.429 101.965C235.481 102.141 235.468 102.332 235.393 102.499C235.318 102.665 235.186 102.793 235.025 102.855L233.347 103.441C233.308 103.456 233.269 103.467 233.228 103.474V103.47ZM236.586 102.293C236.425 102.314 236.261 102.269 236.128 102.167C235.995 102.065 235.902 101.913 235.866 101.741C235.83 101.569 235.855 101.388 235.935 101.234C236.015 101.081 236.145 100.964 236.299 100.908C237.335 100.542 237.888 100.348 237.888 100.346C238.054 100.287 238.235 100.302 238.391 100.387C238.547 100.472 238.665 100.621 238.72 100.801C238.775 100.981 238.761 101.177 238.682 101.346C238.604 101.515 238.466 101.643 238.3 101.702L236.706 102.264C236.668 102.28 236.627 102.291 236.586 102.297V102.293ZM103.061 120.57C102.903 120.592 102.742 120.552 102.609 120.455C102.476 120.359 102.38 120.214 102.339 120.047C102.297 119.879 102.314 119.702 102.384 119.546C102.455 119.391 102.576 119.269 102.723 119.203C103.254 118.967 103.81 118.727 104.374 118.493C104.456 118.454 104.544 118.435 104.633 118.434C104.722 118.434 104.81 118.453 104.892 118.49C104.974 118.528 105.048 118.583 105.11 118.652C105.172 118.721 105.22 118.803 105.252 118.893C105.283 118.983 105.298 119.079 105.294 119.175C105.291 119.272 105.27 119.366 105.232 119.453C105.194 119.54 105.14 119.618 105.073 119.682C105.006 119.746 104.929 119.794 104.844 119.825C104.292 120.054 103.746 120.29 103.225 120.522C103.173 120.546 103.118 120.562 103.061 120.57V120.57ZM106.347 119.206C106.185 119.23 106.021 119.188 105.886 119.089C105.752 118.989 105.656 118.838 105.618 118.667C105.58 118.495 105.603 118.314 105.681 118.159C105.759 118.004 105.888 117.886 106.042 117.828C106.587 117.618 107.151 117.407 107.719 117.202C107.802 117.168 107.891 117.152 107.98 117.155C108.069 117.159 108.156 117.182 108.237 117.223C108.317 117.264 108.39 117.322 108.449 117.394C108.508 117.466 108.553 117.551 108.581 117.642C108.61 117.734 108.62 117.83 108.613 117.926C108.606 118.023 108.581 118.116 108.539 118.202C108.497 118.287 108.44 118.362 108.371 118.423C108.302 118.484 108.222 118.528 108.136 118.555C107.575 118.756 107.019 118.965 106.485 119.172C106.44 119.189 106.394 119.2 106.347 119.206V119.206ZM109.681 117.999C109.519 118.019 109.356 117.973 109.223 117.87C109.09 117.767 108.997 117.615 108.962 117.442C108.927 117.27 108.953 117.089 109.034 116.936C109.115 116.782 109.245 116.667 109.4 116.611C109.951 116.428 110.521 116.236 111.09 116.053C111.258 116 111.438 116.021 111.591 116.111C111.744 116.202 111.858 116.354 111.908 116.535C111.957 116.717 111.938 116.912 111.854 117.078C111.771 117.244 111.63 117.367 111.462 117.42C110.896 117.603 110.333 117.786 109.789 117.969C109.754 117.982 109.718 117.992 109.681 117.999ZM113.061 116.917C112.897 116.938 112.731 116.891 112.597 116.786C112.463 116.681 112.37 116.525 112.337 116.35C112.305 116.174 112.334 115.991 112.42 115.838C112.506 115.685 112.642 115.572 112.801 115.523C113.363 115.354 113.938 115.184 114.509 115.021C114.678 114.973 114.858 114.999 115.009 115.094C115.16 115.188 115.27 115.344 115.315 115.527C115.359 115.71 115.335 115.904 115.248 116.068C115.16 116.231 115.016 116.351 114.847 116.399C114.281 116.562 113.713 116.729 113.157 116.897C113.126 116.906 113.094 116.913 113.061 116.917ZM116.466 115.942C116.298 115.969 116.127 115.925 115.988 115.818C115.849 115.711 115.754 115.55 115.723 115.369C115.691 115.188 115.726 115.001 115.819 114.847C115.912 114.693 116.057 114.584 116.223 114.543C116.789 114.39 117.367 114.238 117.942 114.09C118.027 114.063 118.117 114.055 118.206 114.067C118.294 114.079 118.38 114.11 118.457 114.159C118.534 114.207 118.601 114.273 118.654 114.35C118.708 114.428 118.746 114.516 118.766 114.61C118.787 114.704 118.79 114.802 118.774 114.897C118.759 114.992 118.726 115.083 118.678 115.164C118.629 115.245 118.566 115.315 118.491 115.369C118.417 115.422 118.334 115.459 118.246 115.477C117.676 115.623 117.103 115.775 116.542 115.927C116.517 115.934 116.492 115.939 116.466 115.942V115.942ZM119.895 115.063C119.728 115.085 119.56 115.036 119.424 114.927C119.289 114.819 119.197 114.658 119.168 114.478C119.139 114.299 119.175 114.114 119.267 113.961C119.36 113.809 119.503 113.701 119.667 113.66C120.245 113.521 120.827 113.383 121.399 113.252C121.568 113.219 121.741 113.259 121.883 113.363C122.025 113.467 122.124 113.627 122.159 113.808C122.194 113.989 122.163 114.178 122.071 114.335C121.98 114.492 121.836 114.604 121.67 114.648C121.104 114.776 120.527 114.913 119.956 115.05L119.895 115.063ZM123.346 114.276C123.178 114.296 123.01 114.245 122.876 114.134C122.742 114.023 122.652 113.861 122.625 113.68C122.598 113.5 122.636 113.315 122.731 113.164C122.827 113.013 122.972 112.908 123.137 112.869C124.235 112.635 124.869 112.518 124.896 112.512C124.983 112.491 125.073 112.49 125.161 112.508C125.249 112.526 125.332 112.563 125.406 112.617C125.48 112.671 125.543 112.741 125.592 112.822C125.64 112.903 125.673 112.994 125.688 113.089C125.703 113.184 125.7 113.282 125.679 113.376C125.658 113.47 125.62 113.558 125.567 113.636C125.513 113.713 125.446 113.778 125.369 113.827C125.292 113.875 125.206 113.906 125.117 113.918C125.117 113.918 124.472 114.038 123.39 114.267L123.346 114.276Z" fill="#A8D29F"/>
<path d="M245.846 111.891L268.791 93.2783L246.392 97.8515L248.621 101.738L244.621 107.977L245.846 111.891Z" fill="#82B378"/>
<path d="M268.791 93.2783L243.473 102.018L226.269 118.836L268.791 93.2783Z" fill="#A8D29F"/>
<path d="M246.392 97.8519L268.791 93.2787L244.296 89.0605L246.392 97.8519Z" fill="#A8D29F"/>
<path d="M207.02 220.361H151.127C149.712 220.361 148.565 221.603 148.565 223.136V233.81C148.565 235.342 149.712 236.584 151.127 236.584H207.02C208.435 236.584 209.582 235.342 209.582 233.81V223.136C209.582 221.603 208.435 220.361 207.02 220.361Z" fill="#A8D29F"/>
<path d="M159.266 224.807C159.334 224.808 159.4 224.838 159.449 224.891C159.497 224.944 159.525 225.016 159.526 225.09V225.833C159.525 225.908 159.498 225.979 159.449 226.032C159.4 226.085 159.334 226.115 159.266 226.115H157.525V231.861C157.524 231.936 157.497 232.008 157.448 232.061C157.398 232.113 157.332 232.143 157.263 232.143H156.48C156.411 232.143 156.345 232.113 156.296 232.061C156.247 232.008 156.219 231.936 156.218 231.861V226.115H154.478C154.409 226.115 154.343 226.085 154.294 226.033C154.245 225.98 154.218 225.908 154.218 225.833V225.09C154.218 225.015 154.245 224.944 154.294 224.89C154.342 224.837 154.409 224.807 154.478 224.807H159.266Z" fill="white"/>
<path d="M163.254 224.807C164.06 224.807 164.672 225.009 165.091 225.414C165.51 225.819 165.72 226.381 165.72 227.1C165.732 227.56 165.62 228.013 165.395 228.404C165.166 228.775 164.832 229.056 164.444 229.204L165.777 231.792C165.796 231.827 165.806 231.867 165.808 231.907C165.806 231.968 165.783 232.025 165.744 232.068C165.704 232.111 165.651 232.135 165.595 232.136H164.775C164.672 232.145 164.569 232.109 164.489 232.037C164.437 231.984 164.393 231.922 164.359 231.854L163.085 229.415H161.799V231.861C161.798 231.936 161.771 232.008 161.722 232.061C161.673 232.113 161.606 232.143 161.537 232.143H160.755C160.685 232.143 160.619 232.113 160.57 232.061C160.521 232.008 160.493 231.936 160.493 231.861V225.09C160.493 225.015 160.521 224.944 160.57 224.891C160.619 224.838 160.685 224.808 160.755 224.807H163.254ZM161.804 228.101H163.205C163.511 228.116 163.814 228.043 164.085 227.89C164.311 227.751 164.423 227.486 164.423 227.094C164.423 226.703 164.311 226.441 164.085 226.309C163.812 226.164 163.509 226.095 163.205 226.11H161.804V228.101Z" fill="white"/>
<path d="M170.153 224.807C170.195 224.803 170.238 224.809 170.278 224.825C170.318 224.84 170.355 224.865 170.386 224.896C170.447 224.975 170.493 225.066 170.521 225.164L172.887 231.781C172.893 231.805 172.896 231.829 172.895 231.854C172.895 231.929 172.868 232.001 172.819 232.053C172.77 232.106 172.704 232.136 172.635 232.136H171.939C171.891 232.142 171.842 232.137 171.795 232.122C171.749 232.107 171.706 232.082 171.668 232.048C171.622 231.999 171.586 231.941 171.562 231.876L171.146 230.712H168.094L167.678 231.876C167.653 231.94 167.617 231.998 167.572 232.048C167.534 232.081 167.491 232.106 167.444 232.122C167.397 232.137 167.348 232.141 167.3 232.136H166.604C166.535 232.135 166.469 232.106 166.42 232.053C166.371 232 166.344 231.929 166.343 231.854C166.343 231.829 166.346 231.805 166.353 231.781L168.719 225.164C168.746 225.065 168.792 224.974 168.855 224.896C168.885 224.864 168.922 224.84 168.961 224.824C169.001 224.809 169.044 224.803 169.086 224.807H170.153ZM170.685 229.404L169.622 226.419L168.557 229.404H170.685Z" fill="white"/>
<path d="M178.17 232.136C178.124 232.139 178.078 232.133 178.035 232.117C177.992 232.101 177.952 232.076 177.918 232.042C177.874 231.996 177.832 231.947 177.793 231.896L175.089 227.541V231.861C175.089 231.936 175.061 232.008 175.012 232.061C174.963 232.113 174.896 232.143 174.827 232.143H174.045C173.975 232.143 173.909 232.113 173.86 232.061C173.811 232.008 173.783 231.936 173.783 231.861V225.09C173.784 225.015 173.811 224.944 173.86 224.891C173.909 224.838 173.975 224.808 174.045 224.807H174.721C174.766 224.803 174.812 224.81 174.856 224.826C174.899 224.842 174.939 224.868 174.972 224.902C175.017 224.948 175.058 224.997 175.098 225.048L177.802 229.404V225.09C177.801 225.053 177.808 225.016 177.821 224.982C177.835 224.948 177.855 224.917 177.879 224.891C177.903 224.864 177.932 224.842 177.963 224.828C177.995 224.813 178.029 224.806 178.063 224.807H178.846C178.915 224.808 178.981 224.838 179.03 224.891C179.079 224.944 179.107 225.015 179.108 225.09V231.861C179.107 231.936 179.08 232.008 179.031 232.061C178.982 232.113 178.915 232.143 178.846 232.143L178.17 232.136Z" fill="white"/>
<path d="M182.937 224.702C183.325 224.693 183.71 224.755 184.078 224.885C184.374 224.992 184.652 225.151 184.9 225.355C185.106 225.524 185.279 225.736 185.407 225.979C185.511 226.177 185.576 226.397 185.596 226.624C185.6 226.661 185.595 226.7 185.583 226.735C185.57 226.77 185.55 226.802 185.523 226.827C185.472 226.878 185.404 226.906 185.334 226.905H184.658C184.571 226.913 184.484 226.889 184.411 226.838C184.351 226.787 184.301 226.725 184.261 226.655C184.151 226.467 184 226.31 183.821 226.199C183.551 226.052 183.248 225.985 182.946 226.005C182.784 226.005 182.623 226.024 182.466 226.064C182.327 226.097 182.194 226.153 182.07 226.23C181.965 226.296 181.874 226.388 181.805 226.497C181.738 226.605 181.703 226.733 181.707 226.863C181.701 227.001 181.734 227.137 181.8 227.255C181.878 227.372 181.986 227.463 182.109 227.517C182.295 227.604 182.487 227.673 182.684 227.722C182.922 227.784 183.219 227.857 183.575 227.941C183.915 228.018 184.25 228.124 184.575 228.26C184.826 228.363 185.058 228.512 185.261 228.701C185.433 228.863 185.569 229.065 185.658 229.292C185.748 229.535 185.793 229.795 185.788 230.057C185.791 230.361 185.724 230.661 185.596 230.931C185.462 231.204 185.273 231.44 185.043 231.621C184.777 231.828 184.48 231.982 184.164 232.077C183.784 232.194 183.389 232.25 182.993 232.245C182.644 232.247 182.296 232.199 181.959 232.103C181.649 232.018 181.353 231.881 181.084 231.695C180.84 231.529 180.631 231.309 180.47 231.05C180.316 230.802 180.225 230.513 180.208 230.214C180.204 230.176 180.209 230.138 180.222 230.102C180.234 230.066 180.254 230.035 180.281 230.009C180.333 229.959 180.4 229.931 180.47 229.93H181.146C181.234 229.925 181.322 229.947 181.398 229.994C181.461 230.04 181.511 230.103 181.543 230.177C181.593 230.272 181.649 230.363 181.712 230.448C181.784 230.547 181.873 230.629 181.974 230.69C182.103 230.768 182.241 230.826 182.385 230.862C182.586 230.912 182.792 230.934 182.998 230.93C183.186 230.93 183.374 230.915 183.559 230.884C183.724 230.858 183.884 230.805 184.034 230.726C184.16 230.661 184.272 230.568 184.362 230.454C184.448 230.341 184.492 230.197 184.487 230.051C184.49 229.982 184.479 229.912 184.456 229.847C184.433 229.783 184.397 229.724 184.352 229.674C184.234 229.558 184.094 229.473 183.941 229.424C183.72 229.341 183.494 229.274 183.265 229.224C182.995 229.16 182.682 229.081 182.327 228.982C182.038 228.91 181.755 228.81 181.482 228.684C181.26 228.583 181.057 228.439 180.882 228.26C180.725 228.094 180.605 227.892 180.529 227.669C180.448 227.408 180.409 227.133 180.414 226.858C180.412 226.555 180.478 226.257 180.607 225.989C180.737 225.723 180.918 225.49 181.139 225.308C181.382 225.109 181.656 224.959 181.947 224.863C182.268 224.754 182.602 224.7 182.937 224.702Z" fill="white"/>
<path d="M191.272 224.807C191.342 224.807 191.408 224.837 191.457 224.89C191.505 224.944 191.533 225.015 191.533 225.09V225.833C191.533 225.908 191.505 225.98 191.456 226.033C191.408 226.085 191.341 226.115 191.272 226.115H188.188V228.148H191.08C191.149 228.149 191.215 228.179 191.263 228.231C191.312 228.284 191.34 228.355 191.34 228.43V229.173C191.34 229.21 191.334 229.247 191.32 229.282C191.307 229.316 191.287 229.347 191.262 229.373C191.239 229.399 191.21 229.42 191.179 229.435C191.148 229.449 191.114 229.457 191.08 229.457H188.188V231.861C188.188 231.936 188.16 232.008 188.111 232.061C188.062 232.113 187.995 232.143 187.926 232.143H187.144C187.075 232.143 187.008 232.113 186.959 232.061C186.91 232.008 186.882 231.936 186.882 231.861V225.09C186.883 225.015 186.911 224.944 186.96 224.891C187.008 224.838 187.075 224.808 187.144 224.807H191.272Z" fill="white"/>
<path d="M197.162 230.827C197.196 230.827 197.23 230.834 197.262 230.848C197.293 230.863 197.321 230.884 197.345 230.912C197.37 230.937 197.389 230.968 197.403 231.002C197.416 231.037 197.423 231.074 197.422 231.111V231.861C197.422 231.936 197.394 232.007 197.346 232.06C197.297 232.113 197.231 232.143 197.162 232.143H192.917C192.849 232.142 192.784 232.111 192.736 232.059C192.688 232.006 192.66 231.935 192.66 231.861V225.09C192.661 225.015 192.689 224.944 192.738 224.891C192.787 224.838 192.853 224.808 192.922 224.807H197.09C197.159 224.807 197.225 224.837 197.274 224.89C197.322 224.944 197.35 225.015 197.35 225.09V225.833C197.35 225.908 197.322 225.98 197.274 226.033C197.225 226.085 197.159 226.115 197.09 226.115H193.961V227.78H196.872C196.941 227.781 197.007 227.811 197.056 227.864C197.104 227.917 197.132 227.989 197.132 228.064V228.807C197.132 228.882 197.104 228.953 197.056 229.006C197.007 229.059 196.941 229.089 196.872 229.089H193.961V230.827H197.162Z" fill="white"/>
<path d="M201.377 224.807C202.183 224.807 202.795 225.009 203.214 225.414C203.633 225.819 203.843 226.381 203.843 227.1C203.855 227.559 203.743 228.013 203.52 228.404C203.29 228.775 202.956 229.056 202.567 229.204L203.902 231.792C203.919 231.827 203.929 231.867 203.931 231.907C203.93 231.968 203.908 232.026 203.868 232.069C203.828 232.112 203.774 232.136 203.718 232.136H202.896C202.845 232.141 202.793 232.134 202.744 232.117C202.695 232.1 202.65 232.073 202.611 232.037C202.558 231.984 202.514 231.922 202.481 231.854L201.213 229.415H199.927V231.861C199.927 231.936 199.899 232.007 199.85 232.06C199.802 232.113 199.736 232.143 199.667 232.143H198.883C198.814 232.143 198.747 232.113 198.699 232.061C198.65 232.008 198.622 231.936 198.622 231.861V225.09C198.622 225.015 198.65 224.944 198.698 224.89C198.747 224.837 198.813 224.807 198.883 224.807H201.377ZM199.927 228.101H201.33C201.635 228.116 201.938 228.043 202.208 227.89C202.428 227.751 202.541 227.486 202.546 227.094C202.552 226.703 202.439 226.441 202.208 226.309C201.936 226.164 201.633 226.095 201.33 226.11H199.927V228.101Z" fill="white"/>
<path d="M7.74014 271.938H486.46C486.583 271.938 486.701 271.884 486.788 271.79C486.875 271.696 486.924 271.568 486.924 271.435V271.435C486.924 271.302 486.875 271.174 486.788 271.08C486.701 270.985 486.583 270.932 486.46 270.932H7.74014C7.61702 270.932 7.49907 270.985 7.412 271.08C7.32494 271.174 7.27584 271.302 7.27539 271.435V271.435C7.27584 271.568 7.32494 271.696 7.412 271.79C7.49907 271.884 7.61702 271.938 7.74014 271.938V271.938Z" fill="#2E3552"/>
</svg>
